<?xml version="1.0" encoding="UTF-8"?>
<!DOCTYPE svg PUBLIC "-//W3C//DTD SVG 1.1//EN" "http://www.w3.org/2000/svg">
<svg xmlns="http://www.w3.org/2000/svg" xml:space="preserve" width="350px" height="350px" version="1.1" style="shape-rendering:geometricPrecision; text-rendering:geometricPrecision; image-rendering:optimizeQuality; fill-rule:evenodd; clip-rule:evenodd"
viewBox="0 0 25000 25000">
 <defs>
  <style type="text/css">
    .fil0 {fill:black}
    .fil4 {fill:#146555}
    .fil3 {fill:#8B2005}
    .fil1 {fill:#B1CCC3}
    .fil2 {fill:#FEFBC8}
  </style>
 </defs>
 <g id="Слой_x0020_1">
  <metadata id="CorelCorpID_0Corel-Layer"/>
  <path class="fil0" d="M12355.35 12678.08c47.94,90.59 206.18,565.48 249.88,696.91 83.18,250.15 -1.87,57.39 -21.35,133.67 -12.37,48.48 255.53,269.27 302.91,312.49 2323.81,2119.65 3100.85,8220.6 112.58,8843.26 -1104.13,230.06 -2096.96,-490.59 -2478.85,-1078.48 -1235.51,-1901.89 -472.67,-5397.43 745.8,-7202.92 476.71,-706.39 778.91,-764.85 914.08,-905.57l-112.1 -20.01 287.05 -779.35zm1852.01 -974.48l779.25 30.86 2169.86 69.74c51.24,652.56 -390.96,1697.27 -673.22,2100.98 -320.66,458.63 -878.8,1058.21 -1756.81,1015.58 -359.61,-17.48 -752.8,-151.05 -970.84,-433.03 -369.21,-477.47 -584.59,-583.11 -676.34,-699.1 -218.62,-276.38 -743.53,-1703.27 -595.73,-2135.86l1723.83 50.83zm-4421.92 -152.11l745.66 20.35 1690.79 69.68c50.49,526.61 -211.53,1749.93 -650.71,2119.17 -288.91,242.9 -412.05,411.96 -660.27,746.9 -387.76,523.25 -1814.78,623.33 -2625.78,-819.89 -310.51,-552.55 -598.64,-1448.1 -558.91,-2205.48l2059.22 69.27zm7575.63 26.79c-1482.34,-22.36 -2992.07,-94.7 -4473.93,-145.36 -339.74,-11.62 -849.99,61.21 -911.22,-252.54 -68.51,-350.95 429.16,-473.17 516.91,-622.25 101.2,-171.93 94.33,-869.9 618.79,-1682 1106.07,-1712.69 3117.75,-1259.27 3808.88,1012.56 48.04,157.91 183.44,864.77 227.21,922.92 89.69,119.18 474.92,85.72 213.36,766.67zm-5560.28 -203.73c-279.83,28.31 -2429.81,-69.99 -2902,-85.1 -239.53,-7.66 -1259.42,15.06 -1395.6,-112.43 -167.11,-156.42 -88.32,-372.05 44.4,-508.01 135.75,-139.07 339.57,-149.51 396.9,-338.9 54.36,-179.55 84.8,-426.1 141.49,-625.7 146.32,-515.18 457.17,-1091.16 802.57,-1435.37 296.73,-295.71 346.9,-116.13 1195.23,-53.12 549.48,40.83 1220.25,-20.18 1413.62,-1.95 164.74,228.55 328.28,397.94 507.41,703.78 138.82,237.01 262.34,547.9 350.88,833.54 68.42,220.76 17.62,300.45 -26.07,515.88 -47.77,235.58 -100.33,210.06 -263.53,312.77 -213.21,134.2 -424.45,449.7 -265.3,794.61zm1034.35 -3605.89c-447.52,-30.55 -923.98,13.12 -1375.7,20.36 -439.94,7.05 -876.35,-1.4 -1313.12,-30.82 -816.71,-55.03 -1581.24,-189.44 -2376.06,-300.39l-182.46 17c-68.61,227.43 981.78,418.07 1207.23,549.68 -328.13,404.21 -330.45,342.21 -653,873.39 -190.21,313.23 -350.64,676.17 -460.9,1073.07 -24.16,86.95 -48.39,230.02 -73.76,308.99 -49.82,155.06 -79.35,95.75 -195.22,189.69 -91.18,73.93 -259.26,316.39 -249.06,526.87 14.4,297.25 244.47,342.89 306.04,468.14 50.07,101.86 29,1841.05 967.61,2839.18 538.24,572.34 1056.61,954.95 2163.48,681.21 -284.13,703.09 -449.2,819 -730.26,1774.38 -353.47,1201.48 -231.75,1380.88 -391.35,2103.13l-2790.75 449.47 -0.12 -424.98c-545.43,532.4 110.08,985.22 153.56,1039.47l-75.57 -392.91 2707.03 -424.26 14.2 719.16 -377.18 39.95c-73.94,29.41 -25.23,16.76 -74.91,52.3 -148.95,106.58 -1002.37,303.19 -1209,356.54 -480.7,124.11 -1246.72,356.28 -1716.83,409.22 -163.79,-325.6 -467.78,-497.09 -589.74,-1360.33 -63.76,-451.37 -96.83,-611.8 120.72,-782.87 575.71,-452.71 1127.21,-790.78 1855.95,-1055.07 781.26,-283.32 1357.36,-275.81 1590.59,-355.52l-0.08 -166.7c-397.55,-44.91 -792.35,36.58 -1172.72,63.77 50.23,-93.83 195.34,-233.1 213.03,-319.24 17.42,-84.78 -30.04,-355.38 -43.35,-457.88 -120.39,-926.64 -167.96,-2859.93 -607.34,-3482.19 -180.08,-255.03 -289.76,-243.95 -635.63,-388.45 -501.52,-209.51 -930.02,-431.54 -1354.43,-691.68 -1844.02,-1130.25 -3160.07,-3098.99 -2577.06,-5368.17 522.41,-2033.3 2238.23,-3453.55 3937.61,-4278.17 1458.34,-707.65 3135.74,-1144.55 4801.98,-1340.27 971.94,-114.16 878.09,-133.59 1864.52,-4.72 10703.96,1398.37 11661.23,8987 5945.13,11735.57 -1885.34,906.57 -2458.23,436.83 -2559.98,1534 -87.09,939.31 218.56,2596.82 177.63,3904.36l-1088.2 -114.59 -25.78 174.93c648.47,96.36 1712.51,394.68 2308.38,610.07 365.51,132.13 717.47,299.04 955.98,514.91 395.72,358.17 354.77,1188.62 -40.83,1604.99 -502.08,528.44 -300.89,376.05 -1417.19,-20.41 -722.05,-256.44 -1595.32,-486.77 -2430.41,-464.88l22.6 -1160.67c532.32,71.52 1104.15,208.2 1594.49,360.37 698.66,216.81 844.03,331.04 1377.44,529.47l52.94 631.39c91.59,-89.78 121.3,-228.02 150.49,-367.3 28.06,-133.9 37.86,-274.7 24.08,-416.06 -24.67,-253.16 -125.39,-474.9 -306.5,-575.98 38.1,138.11 78.82,295.39 72.9,465.69 -459.93,-185.71 -894.94,-367.11 -1407.47,-517.97 -2076.56,-611.24 -1401.93,168.48 -1733.98,-1434.12 -69.44,-335.15 -162.47,-673.86 -264.69,-980.79 -332.62,-998.8 -563.6,-1185.98 -761.99,-1674.32 1420.11,456.57 2385.15,-609.53 2810.24,-1510.31 294.11,-623.24 330.15,-968.15 418.94,-1594.97 27.35,-193.13 -0.76,-86.03 103.28,-184.39 200.29,-189.37 263.5,-620.27 89.72,-887.98 -120.47,-185.57 -198.68,-86.51 -246.3,-327.68 -472.57,-2392.96 -2223.98,-3782.57 -3915.64,-2373.06 -506.25,421.83 -639.97,884.88 -891.17,1359.87 -261.57,-609.7 -386.91,-898.49 -749.88,-1334.87l145.48 -50.5c349.64,-74.09 641.43,-97.36 975.76,-310.13l-63.42 -54.99zm-2975.4 -7005.33c-211.6,66.97 -500.23,116.73 -730.34,173.89 -1572.64,390.72 -3104.6,1060.86 -4328.84,2034.1 -1098.72,873.47 -2589.48,2550.2 -2394.92,4862.69 212.65,2527.82 2289.14,4117 4180.58,4930.01 259.26,111.43 457.09,123.03 571.26,355.25 232.04,472.06 321.68,1809.33 369.35,2350.23 48.06,545.48 123.48,1070.48 182.78,1600.52 -936.14,248.45 -1495.16,478.98 -2171,956.3 -549.09,387.79 -572.09,389.72 -542.75,1025.37 20.99,455.03 125.48,877.18 294.71,1239.36 129.66,277.48 475.59,800.46 712.63,856.15 265.97,62.49 2043.89,-578.98 2397.01,-710.08 622.26,-231.02 786.76,-431.98 1124.2,-317.14 263.26,1067.48 326.11,1418.33 929.79,2107.69 168.89,192.87 569.75,496.01 890.48,642.89 450.45,206.32 697.22,201.46 1181.85,326.04l12.57 1582.01 231.77 3.89 -11.22 -1617.73c827.09,-61.16 1116.55,-408.57 1371.15,-517.12l87.98 1994.4 226.3 -1.99c6.19,-464.77 -51.66,-1320.68 -76.68,-1850.78 -14.65,-310.59 -65.97,-314.39 115.29,-494.73 325.94,-324.31 678.15,-1121.57 778.37,-1752.85l40.35 -173.75c654.79,53.73 1421.21,297.52 2033.64,546.31 97.56,39.63 177.52,63.55 243.98,130.64 149.32,1.91 613.84,240.23 783.46,314.42 387.84,169.6 440.39,254.66 797.83,-17.85 353.65,-269.63 792.5,-684.48 832.9,-1366.69 17.74,-299.66 -57.61,-698.83 -171.16,-937.11 -299.99,-629.51 -1598.95,-957.96 -2251.44,-1079.67 -0.64,-978.67 -91.88,-1864.98 -174.67,-2825.78 -157.02,-1822.39 -39.01,-1415.38 1072.37,-1800.15 782.39,-270.88 1389.49,-567.61 2010.72,-963.22 549.73,-350.09 785.23,-580.63 1230.63,-1008.83l354.74 -380.15c884.2,-1011.86 1563.45,-2794.66 1074.05,-4587.01 -220.62,-808 -580.54,-1434.29 -996.63,-1975.72 -642.97,-836.64 -810.8,-859.2 -1417.01,-1397.98 -28.73,-25.53 -22.58,-21.35 -43.34,-43.79l-22.58 -30.22c-114.27,-45.66 -1130.34,-776.72 -2212.77,-1228.5 -1634.06,-682.02 -3722.47,-1162.62 -5523.38,-1283.1 -934.04,-62.5 -2158.93,195.18 -3064.01,329.78z"/>
  <path class="fil1" d="M8626.55 10613.13c232.93,-145.79 1904.51,-62.24 2140.81,63.9 -37.46,88.1 4.1,45.55 -96.37,77.77 -103.63,33.22 -930.85,36.85 -1028.26,32.75 -176.84,-7.43 -375.53,-19.05 -551.8,-40.9 -294.74,-36.55 -430.96,-14.85 -464.38,-133.52zm3174.24 761.42c-159.15,-344.91 52.09,-660.41 265.3,-794.61 163.2,-102.71 215.76,-77.19 263.53,-312.77 43.69,-215.43 94.49,-295.12 26.07,-515.88 -88.54,-285.64 -212.06,-596.53 -350.88,-833.54 -179.13,-305.84 -342.67,-475.23 -507.41,-703.78 -193.37,-18.23 -864.14,42.78 -1413.62,1.95 -848.33,-63.01 -898.5,-242.59 -1195.23,53.12 -345.4,344.21 -656.25,920.19 -802.57,1435.37 -56.69,199.6 -87.13,446.15 -141.49,625.7 -57.33,189.39 -261.15,199.83 -396.9,338.9 -132.72,135.96 -211.51,351.59 -44.4,508.01 136.18,127.49 1156.07,104.77 1395.6,112.43 472.19,15.11 2622.17,113.41 2902,85.1zm2485.24 -761.42c152.56,-94.14 889.91,-75.25 1110.67,-66.3 132.2,5.36 948.14,12.45 1033.16,162.16 -196.27,138.73 -1464.64,66 -1708.88,34.01 -90.24,-11.83 -168.9,-21.9 -256.93,-33.18 -144.41,-18.5 -151.39,1.98 -178.02,-96.69zm3075.04 965.15c261.56,-680.95 -123.67,-647.49 -213.36,-766.67 -43.77,-58.15 -179.17,-765.01 -227.21,-922.92 -691.13,-2271.83 -2702.81,-2725.25 -3808.88,-1012.56 -524.46,812.1 -517.59,1510.07 -618.79,1682 -87.75,149.08 -585.42,271.3 -516.91,622.25 61.23,313.75 571.48,240.92 911.22,252.54 1481.86,50.66 2991.59,123 4473.93,145.36zm-4397.62 -5207.66c44.12,-326.46 540.11,-694.34 824.52,-846.65 1741,-932.51 2871.38,748.93 2721.32,1639.57 -161.25,-32.17 -340.75,-505.94 -579.99,-823.01 -1065.16,-1411.72 -2627.63,-9.67 -2965.85,30.09zm1713.54 -1877.89c-38.18,-201.48 456.36,-339.73 696.21,-388.42 1179.84,-239.51 2109.73,621.08 2044.25,1181.51 -192.37,-33.39 -385.67,-258.97 -539.01,-372.51 -910.89,-674.46 -1796.67,-260.05 -2201.45,-420.58zm-9785.39 -557.53c116.11,-35.72 316.03,-30.76 407.23,50.58 124.42,110.97 8.93,245.01 -127.35,281.95 -353.65,95.87 -744.18,-189.72 -279.88,-332.53zm14985.26 -138.94c503.57,-170.44 1095.79,359.5 587.8,501.98 -495.62,139.01 -1077.47,-336.25 -587.8,-501.98zm-4135.54 -422.04c43.84,-194.03 288.09,-198.56 485.51,-197.47 191.91,1.08 387.69,14.65 467.97,149.84 -151.02,246.89 -740.35,145.54 -953.48,47.63zm-7799.98 -284.42c461.68,-389.26 914.16,-73.5 834.08,144.23 -101.88,277.04 -866.95,349.67 -834.08,-144.23zm10039.83 -386.4c587.79,-101.91 906.61,401.63 283.01,513.28 -604.36,108.2 -934.49,-400.33 -283.01,-513.28zm-11395.89 -144.26c518.98,-142.85 646.68,423 165.73,543.12 -520.7,130.05 -716.2,-391.59 -165.73,-543.12zm5401.42 -3.79c606.98,-168.9 835.76,315.13 245,488.49 -605.07,177.57 -881.63,-311.34 -245,-488.49zm-1056.45 -1102.23c175.73,-49.11 451.71,-27.04 565.34,81.03 169.32,161.02 -29.45,305.71 -173.92,345.51 -506.83,139.64 -893.49,-286.25 -391.42,-426.54zm-3159.99 6004.69l-167.14 -97.33c-41.25,-15.03 -89.16,-28.5 -140.72,-46.8 -92.69,-32.89 -194.38,-71.17 -263.83,-106.61l37.26 -131.52 1429.47 204.3c1278.33,174.33 3370.23,265.73 4610.76,144.05l18.13 153.17c-49.48,25.58 -180.77,58.06 -250.36,73.2 -336.71,73.23 -274.89,27.09 -208.69,118.39l63.42 54.99c-334.33,212.77 -626.12,236.04 -975.76,310.13l-145.48 50.5c362.97,436.38 488.31,725.17 749.88,1334.87 251.2,-474.99 384.92,-938.04 891.17,-1359.87 1691.66,-1409.51 3443.07,-19.9 3915.64,2373.06 47.62,241.17 125.83,142.11 246.3,327.68 173.78,267.71 110.57,698.61 -89.72,887.98 -104.04,98.36 -75.93,-8.74 -103.28,184.39 -88.79,626.82 -124.83,971.73 -418.94,1594.97 -425.09,900.78 -1390.13,1966.88 -2810.24,1510.31 198.39,488.34 429.37,675.52 761.99,1674.32 102.22,306.93 195.25,645.64 264.69,980.79 332.05,1602.6 -342.58,822.88 1733.98,1434.12 512.53,150.86 947.54,332.26 1407.47,517.97 5.92,-170.3 -34.8,-327.58 -72.9,-465.69 181.11,101.08 281.83,322.82 306.5,575.98 13.78,141.36 3.98,282.16 -24.08,416.06 -29.19,139.28 -58.9,277.52 -150.49,367.3l-52.94 -631.39c-533.41,-198.43 -678.78,-312.66 -1377.44,-529.47 -490.34,-152.17 -1062.17,-288.85 -1594.49,-360.37l-22.6 1160.67c835.09,-21.89 1708.36,208.44 2430.41,464.88 1116.3,396.46 915.11,548.85 1417.19,20.41 395.6,-416.37 436.55,-1246.82 40.83,-1604.99 -238.51,-215.87 -590.47,-382.78 -955.98,-514.91 -595.87,-215.39 -1659.91,-513.71 -2308.38,-610.07l25.78 -174.93 1088.2 114.59c40.93,-1307.54 -264.72,-2965.05 -177.63,-3904.36 101.75,-1097.17 674.64,-627.43 2559.98,-1534 5716.1,-2748.57 4758.83,-10337.2 -5945.13,-11735.57 -986.43,-128.87 -892.58,-109.44 -1864.52,4.72 -1666.24,195.72 -3343.64,632.62 -4801.98,1340.27 -1699.38,824.62 -3415.2,2244.87 -3937.61,4278.17 -583.01,2269.18 733.04,4237.92 2577.06,5368.17 424.41,260.14 852.91,482.17 1354.43,691.68 345.87,144.5 455.55,133.42 635.63,388.45 439.38,622.26 486.95,2555.55 607.34,3482.19 13.31,102.5 60.77,373.1 43.35,457.88 -17.69,86.14 -162.8,225.41 -213.03,319.24 380.37,-27.19 775.17,-108.68 1172.72,-63.77l0.08 166.7c-233.23,79.71 -809.33,72.2 -1590.59,355.52 -728.74,264.29 -1280.24,602.36 -1855.95,1055.07 -217.55,171.07 -184.48,331.5 -120.72,782.87 121.96,863.24 425.95,1034.73 589.74,1360.33 470.11,-52.94 1236.13,-285.11 1716.83,-409.22 206.63,-53.35 1060.05,-249.96 1209,-356.54 49.68,-35.54 0.97,-22.89 74.91,-52.3l377.18 -39.95 -14.2 -719.16 -2707.03 424.26 75.57 392.91c-43.48,-54.25 -698.99,-507.07 -153.56,-1039.47l0.12 424.98 2790.75 -449.47c159.6,-722.25 37.88,-901.65 391.35,-2103.13 281.06,-955.38 446.13,-1071.29 730.26,-1774.38 -1106.87,273.74 -1625.24,-108.87 -2163.48,-681.21 -938.61,-998.13 -917.54,-2737.32 -967.61,-2839.18 -61.57,-125.25 -291.64,-170.89 -306.04,-468.14 -10.2,-210.48 157.88,-452.94 249.06,-526.87 115.87,-93.94 145.4,-34.63 195.22,-189.69 25.37,-78.97 49.6,-222.04 73.76,-308.99 110.26,-396.9 270.69,-759.84 460.9,-1073.07 322.55,-531.18 324.87,-469.18 653,-873.39 -225.45,-131.61 -1275.84,-322.25 -1207.23,-549.68l182.46 -17zm0 0c794.82,110.95 1559.35,245.36 2376.06,300.39 436.77,29.42 873.18,37.87 1313.12,30.82 451.72,-7.24 928.18,-50.91 1375.7,-20.36 -66.2,-91.3 -128.02,-45.16 208.69,-118.39 69.59,-15.14 200.88,-47.62 250.36,-73.2l-18.13 -153.17c-1240.53,121.68 -3332.43,30.28 -4610.76,-144.05l-1429.47 -204.3 -37.26 131.52c69.45,35.44 171.14,73.72 263.83,106.61 51.56,18.3 99.47,31.77 140.72,46.8l167.14 97.33zm4298.04 5999.62l112.1 20.01c-135.17,140.72 -437.37,199.18 -914.08,905.57 -1218.47,1805.49 -1981.31,5301.03 -745.8,7202.92 381.89,587.89 1374.72,1308.54 2478.85,1078.48 2988.27,-622.66 2211.23,-6723.61 -112.58,-8843.26 -47.38,-43.22 -315.28,-264.01 -302.91,-312.49 19.48,-76.28 104.53,116.48 21.35,-133.67 -43.7,-131.43 -201.94,-606.32 -249.88,-696.91l-287.05 779.35zm702.57 11325.07l1447.91 -140.45 -87.98 -1994.4c-254.6,108.55 -544.06,455.96 -1371.15,517.12l11.22 1617.73z"/>
  <path class="fil2" d="M14986.61 11734.46c60.99,394.14 -5.98,1048.67 -416.46,1006.72 -465.12,-47.54 -374.26,-849.44 -362.79,-1037.58l-1723.83 -50.83c-147.8,432.59 377.11,1859.48 595.73,2135.86 91.75,115.99 307.13,221.63 676.34,699.1 218.04,281.98 611.23,415.55 970.84,433.03 878.01,42.63 1436.15,-556.95 1756.81,-1015.58 282.26,-403.71 724.46,-1448.42 673.22,-2100.98l-2169.86 -69.74zm-4455.51 -162.62c220.69,1531.49 -1057.33,1296.26 -745.66,-20.35l-2059.22 -69.27c-39.73,757.38 248.4,1652.93 558.91,2205.48 811,1443.22 2238.02,1343.14 2625.78,819.89 248.22,-334.94 371.36,-504 660.27,-746.9 439.18,-369.24 701.2,-1592.56 650.71,-2119.17l-1690.79 -69.68z"/>
  <path class="fil3" d="M14986.61 11734.46l-779.25 -30.86c-11.47,188.14 -102.33,990.04 362.79,1037.58 410.48,41.95 477.45,-612.58 416.46,-1006.72zm-4455.51 -162.62l-745.66 -20.35c-311.67,1316.61 966.35,1551.84 745.66,20.35z"/>
  <path class="fil0" d="M14286.03 10613.13c26.63,98.67 33.61,78.19 178.02,96.69 88.03,11.28 166.69,21.35 256.93,33.18 244.24,31.99 1512.61,104.72 1708.88,-34.01 -85.02,-149.71 -900.96,-156.8 -1033.16,-162.16 -220.76,-8.95 -958.11,-27.84 -1110.67,66.3zm-5659.48 0c33.42,118.67 169.64,96.97 464.38,133.52 176.27,21.85 374.96,33.47 551.8,40.9 97.41,4.1 924.63,0.47 1028.26,-32.75 100.47,-32.22 58.91,10.33 96.37,-77.77 -236.3,-126.14 -1907.88,-209.69 -2140.81,-63.9zm4336.9 -4242.51c338.22,-39.76 1900.69,-1441.81 2965.85,-30.09 239.24,317.07 418.74,790.84 579.99,823.01 150.06,-890.64 -980.32,-2572.08 -2721.32,-1639.57 -284.41,152.31 -780.4,520.19 -824.52,846.65zm1713.54 -1877.89c404.78,160.53 1290.56,-253.88 2201.45,420.58 153.34,113.54 346.64,339.12 539.01,372.51 65.48,-560.43 -864.41,-1421.02 -2044.25,-1181.51 -239.85,48.69 -734.39,186.94 -696.21,388.42z"/>
  <path class="fil4" d="M4891.6 3935.2c-464.3,142.81 -73.77,428.4 279.88,332.53 136.28,-36.94 251.77,-170.98 127.35,-281.95 -91.2,-81.34 -291.12,-86.3 -407.23,-50.58zm1693.68 -1376.06c-550.47,151.53 -354.97,673.17 165.73,543.12 480.95,-120.12 353.25,-685.97 -165.73,-543.12zm1356.06 530.66c-32.87,493.9 732.2,421.27 834.08,144.23 80.08,-217.73 -372.4,-533.49 -834.08,-144.23zm2988.91 -1636.68c-502.07,140.29 -115.41,566.18 391.42,426.54 144.47,-39.8 343.24,-184.49 173.92,-345.51 -113.63,-108.07 -389.61,-130.14 -565.34,-81.03zm1056.45 1102.23c-636.63,177.15 -360.07,666.06 245,488.49 590.76,-173.36 361.98,-657.39 -245,-488.49zm3754.62 818.87c213.13,97.91 802.46,199.26 953.48,-47.63 -80.28,-135.19 -276.06,-148.76 -467.97,-149.84 -197.42,-1.09 -441.67,3.44 -485.51,197.47zm2239.85 -670.82c-651.48,112.95 -321.35,621.48 283.01,513.28 623.6,-111.65 304.78,-615.19 -283.01,-513.28zm1895.69 1092.86c-489.67,165.73 92.18,640.99 587.8,501.98 507.99,-142.48 -84.23,-672.42 -587.8,-501.98z"/>
 </g>
</svg>
