<?xml version="1.0" encoding="UTF-8"?>
<!DOCTYPE svg PUBLIC "-//W3C//DTD SVG 1.1//EN" "http://www.w3.org/2000/svg">
<svg xmlns="http://www.w3.org/2000/svg" xml:space="preserve" width="20px" height="20px" version="1.1" style="shape-rendering:geometricPrecision; text-rendering:geometricPrecision; image-rendering:optimizeQuality; fill-rule:evenodd; clip-rule:evenodd"
viewBox="0 0 3000 3000">
 <defs>
  <style type="text/css">
    .fil01 {fill:#2787F5}
    .fil11 {fill:white}
  </style>
 </defs>
 <g>
  <metadata/>
  <g>
   <path class="fil01" d="M1458.7 1886.07c-223.03,0 -363.56,-169.64 -450.1,-296.02 -61.83,-90.32 -154.12,-257.63 -184.7,-370.07 -18.25,-67.08 -26.26,-101.71 48.63,-101.71 198.87,0 170.7,-11.81 211.78,97.28 33.82,89.78 138.92,335.11 235.96,328.74l5.19 -234.07c0,-127.71 -129.46,-191.95 5.35,-191.95 198.8,0 236.06,-22.22 240.52,54.2 3.19,54.76 -13.8,291.41 14.63,310.96 53.75,13.02 133.73,-119.68 164.14,-169.49 82.19,-134.68 65.62,-195.67 156.22,-195.67 177.23,0 242.59,-28.56 92.67,210.06 -168.66,268.43 -161.68,150.67 14.56,365.42 40.93,49.86 104.54,99.88 87.38,185.03l-173.29 7.29c-137.48,0 -190.77,-252.52 -354.06,-222.69l-8.24 204.06c-44.53,19.73 -47.38,18.63 -106.64,18.63zm-57.74 -1546.26l212.91 0c130.61,12.5 260.84,48.35 384.97,110.02 231.64,115.13 417.82,301.42 532.87,533.2 105.86,213.27 109.98,349.41 109.98,583.11 0,390.68 -292.45,782.23 -642.85,956.36 -213.14,105.92 -349.21,110.05 -582.77,110.05 -390.44,0 -781.74,-292.63 -955.78,-643.25 -105.85,-213.25 -109.98,-349.42 -109.98,-583.11 0,-142.24 60.79,-324.06 109.98,-423.16 183.06,-368.78 549.39,-606.43 940.67,-643.22z"/>
   <path class="fil11" d="M1458.7 1886.07c59.26,0 62.11,1.1 106.64,-18.63l8.24 -204.06c163.29,-29.83 216.58,222.69 354.06,222.69l173.29 -7.29c17.16,-85.15 -46.45,-135.17 -87.38,-185.03 -176.24,-214.75 -183.22,-96.99 -14.56,-365.42 149.92,-238.62 84.56,-210.06 -92.67,-210.06 -90.6,0 -74.03,60.99 -156.22,195.67 -30.41,49.81 -110.39,182.51 -164.14,169.49 -28.43,-19.55 -11.44,-256.2 -14.63,-310.96 -4.46,-76.42 -41.72,-54.2 -240.52,-54.2 -134.81,0 -5.35,64.24 -5.35,191.95l-5.19 234.07c-97.04,6.37 -202.14,-238.96 -235.96,-328.74 -41.08,-109.09 -12.91,-97.28 -211.78,-97.28 -74.89,0 -66.88,34.63 -48.63,101.71 30.58,112.44 122.87,279.75 184.7,370.07 86.54,126.38 227.07,296.02 450.1,296.02z"/>
  </g>
 </g>
</svg>
