<?xml version="1.0" encoding="UTF-8"?>
<!DOCTYPE svg PUBLIC "-//W3C//DTD SVG 1.1//EN" "http://www.w3.org/2000/svg">
<svg xmlns="http://www.w3.org/2000/svg" xml:space="preserve" width="20px" height="20px" version="1.1" style="shape-rendering:geometricPrecision; text-rendering:geometricPrecision; image-rendering:optimizeQuality; fill-rule:evenodd; clip-rule:evenodd"
viewBox="0 0 3000 3000">
 <defs>
  <style type="text/css">
    .fil02 {fill:#25D365}
    .fil12 {fill:white}
  </style>
 </defs>
 <g>
  <metadata/>
  <g>
   <path class="fil02" d="M939.55 2064.5c15.54,-80.58 46.49,-165.55 67.05,-244.34 19.04,-72.95 -37.52,-137.79 -53.69,-226.49 -60.78,-333.49 175.86,-649.18 521.04,-672.74 190.92,-13.04 344.25,67.14 436.91,164.59 57.55,60.52 86.37,88.61 126.64,182.49 100.52,234.34 14.01,527.2 -159.9,655.71 -374.31,276.61 -549.76,36.82 -698.91,79.53 -73.72,21.1 -163.05,46.5 -239.14,61.25zm-585.52 -649.81c0,233.45 4.13,369.45 110.11,582.47 174.24,350.23 566,642.54 956.91,642.54 233.83,0 370.06,-4.13 583.44,-109.93 350.82,-173.94 643.62,-565.05 643.62,-955.29 0,-233.45 -4.13,-369.45 -110.11,-582.47 -174.24,-350.23 -566,-642.54 -956.9,-642.54 -233.84,0 -370.07,4.13 -583.45,109.93 -231.93,114.99 -418.32,301.08 -533.51,532.61 -49.25,98.98 -110.11,280.6 -110.11,422.68zm1340.9 159.02c43.4,7.82 75.08,25.36 115.31,43.43 49.46,22.24 70.17,19.84 70.07,69.81 -0.41,183.65 -312.59,218.32 -569.41,-58.19 -296.47,-319.23 -122.92,-488.66 -23.67,-475.51 51.56,6.83 48.65,30.54 68.44,79.61 56.24,139.52 47.29,92.24 -19.26,201.62 36.63,93.85 164.79,213.43 282.32,230.49 23.39,-40.89 36.12,-58.44 76.2,-91.26zm-729.82 467.78c60.33,-10.21 183.99,-58.3 235.01,-45.52 88.41,22.16 373.93,218.87 701.09,-58.18 96.19,-81.47 198.38,-226.8 206.59,-421.86 8.32,-197.8 -80.64,-363.55 -174.09,-454.99 -89.98,-88.06 -254.22,-176.72 -442.18,-169.53 -181.73,6.94 -351.76,107.41 -425.22,199.05 -95.18,118.74 -173.25,268.86 -143.78,479.07 16.62,118.55 46.35,142.16 83.91,229.01 28.15,65.14 -26.97,170.67 -41.33,242.95z"/>
   <path class="fil12" d="M992.34 2014.01c13.65,-68.65 66.02,-168.92 39.27,-230.79 -35.68,-82.52 -63.92,-104.94 -79.71,-217.57 -27.99,-199.69 46.17,-342.31 136.59,-455.11 69.79,-87.06 231.32,-182.49 403.96,-189.09 178.56,-6.83 334.57,77.4 420.06,161.06 88.77,86.86 173.29,244.32 165.39,432.23 -7.8,185.3 -104.88,323.36 -196.26,400.76 -310.8,263.19 -582.04,76.32 -666.02,55.28 -48.48,-12.15 -165.95,33.53 -223.28,43.23zm-169.58 167.72c91.67,-17.77 199.3,-48.37 288.11,-73.79 179.69,-51.45 391.08,237.44 842.03,-95.82 209.52,-154.83 313.75,-507.66 192.65,-789.98 -48.52,-113.11 -83.24,-146.95 -152.58,-219.86 -111.63,-117.41 -296.36,-214 -526.37,-198.29 -415.87,28.38 -700.96,408.71 -627.75,810.49 19.49,106.87 87.63,184.99 64.7,272.88 -24.78,94.92 -62.07,197.29 -80.79,294.37zm872.17 -608.02c-40.08,32.82 -52.81,50.37 -76.2,91.26 -117.53,-17.06 -245.69,-136.64 -282.32,-230.49 66.55,-109.38 75.5,-62.1 19.26,-201.62 -19.79,-49.07 -16.88,-72.78 -68.44,-79.61 -99.25,-13.15 -272.8,156.28 23.67,475.51 256.82,276.51 569,241.84 569.41,58.19 0.1,-49.97 -20.61,-47.57 -70.07,-69.81 -40.23,-18.07 -71.91,-35.61 -115.31,-43.43z"/>
  </g>
 </g>
</svg>
