<?xml version="1.0" encoding="UTF-8"?>
<!DOCTYPE svg PUBLIC "-//W3C//DTD SVG 1.1//EN" "http://www.w3.org/2000/svg">
<svg xmlns="http://www.w3.org/2000/svg" xml:space="preserve" width="42.3332mm" height="42.3332mm" version="1.1" style="shape-rendering:geometricPrecision; text-rendering:geometricPrecision; image-rendering:optimizeQuality; fill-rule:evenodd; clip-rule:evenodd"
viewBox="0 0 4233.32 4233.32">
 <g>
  <path d="M2056.03 778.38c1.59,-0.1 12.64,-4.36 16.75,-4.76 4.13,-0.4 14.53,-0.25 19.16,-0.25 177.35,0.25 352.41,32.25 516.91,99.01 155.72,63.18 376.36,204.19 485.04,341.22 28.28,35.66 33.82,35.54 73.4,89.09 49.13,66.46 87.03,125.41 125.88,203.49 166.85,335.46 177.8,737.15 30.39,1084.95 -69.34,163.67 -227.03,385.85 -351.14,475.72 -31.33,22.68 -56.08,49 -90.91,71.59 -66.83,43.38 -125.6,85.28 -207.84,121.82 -159.72,71.01 -331.43,121.27 -528.75,124.7 -302.47,5.26 -535.98,-67.79 -774.11,-214.24 -71.16,-43.79 -131.25,-95.97 -185.91,-143.66 -69.68,-60.76 -175.97,-191.78 -224.27,-271.85 -114.24,-189.39 -183.51,-401.11 -191.5,-630.53 -1.91,-54.67 -0.2,-111.53 4.23,-162.85l21.13 -141.04c17.85,-86.82 44.6,-173.77 79.2,-250.82 36.89,-82.22 69.82,-139.51 117.06,-212.51 8.44,-13.04 8.84,-13.24 17.9,-25.5 6.78,-9.15 8.19,-12.12 17.68,-24.86 28.73,-38.53 61.02,-78.36 95.14,-109.94 8.51,-7.88 11.13,-11.61 18.98,-19.66l65.52 -63.36c8.84,-7.6 11.43,-8.91 20.8,-18.23 27.3,-27.07 107.7,-87.28 140.39,-107.12 134.89,-81.81 239.79,-131.22 399.67,-173.55 65.27,-17.25 141.84,-29.61 207.26,-35.68 46.69,-4.36 70.33,-0.43 81.94,-1.18zm-630.98 -300.59c-7.36,-23.01 -75.6,-67 -125.86,-65.07 -52.83,2.07 -98.71,41.73 -133.73,63.76 -103.77,65.3 -187.37,51.02 -151.47,219.51 -51.24,-18.06 -88.86,-53.69 -152.04,-11.92 -37.64,24.88 -57.11,57.06 -96.04,95.04 -89.17,87.02 -149.7,100.32 -80.78,234.48 -149.8,-29.48 -163.8,56.63 -220.28,147.71 -17.18,27.68 -59.58,86.88 -66.73,124.3 -13.45,70.35 38.63,103.82 56.18,132.07 -143.26,1.39 -150.74,71.59 -176.14,192.56 -9.75,46.51 -39.64,94 -37.9,141.06 1.64,44.02 25.2,62.6 54.67,82.35l24.82 18.1 -105.4 62.12 0.95 343.44c39.36,19.95 65.58,39.31 103.04,59.38 -17.19,15.44 -31.35,20.37 -49.17,39.38 -15.92,16.93 -25.56,36.62 -26.75,65.45 -1.96,48.3 23.85,97.8 36.72,145.27 33.77,124.52 24.73,181.7 173.65,187.8 -25.19,37.24 -68.77,64.64 -54.75,132.93 8.92,43.31 47.12,87.7 66.56,119.15 26.18,42.33 37.36,81.26 69.55,118.61 34.92,40.54 69.7,40.31 147,30.59 -56.5,130.29 -22.49,144.11 85.16,237.23 36.82,31.85 48.4,66.2 92.49,93.8 57.79,36.21 90.65,14.05 146.08,-5.99 -20.68,158.06 56.86,151.99 159.12,211.94 32.3,18.94 77.07,58.98 126.45,65.98 70.76,10.02 97.71,-44.67 128.15,-64.26 1.96,147.88 69.6,150.43 193.49,180.92 74.81,18.43 169.04,76.28 241.16,-26.19 8.76,-12.49 8.91,-14.25 15.71,-27.7 17.33,29.79 15.71,81.79 69.02,105.64 41.83,18.68 176.22,11.13 249.75,12.74 131.29,2.92 118.42,-65.87 142.14,-113.31 24.71,37.57 47.95,77.02 106.04,82.34 54.49,4.98 121.85,-25.91 194.98,-41.83 111.12,-24.2 140.73,-46.93 149.55,-169.57 27.02,24.66 66.37,67.74 129.2,60.92 26.69,-2.9 76.85,-29.09 99.57,-43.31 8.73,-5.47 14.93,-12.47 27.34,-20.38 91.06,-58.06 188.28,-50.36 158.49,-213.66 52.83,15.87 91.28,46.66 149.63,5.62 23.79,-16.75 53.91,-48.73 72.04,-71.36 7.23,-9.02 12.16,-14.63 20.34,-22.52l64.72 -54.74c78.06,-78.59 41.85,-117.77 19.06,-180.34 154.74,29.53 159.3,-59.41 218.47,-150.71 21.98,-33.92 60.26,-81.36 66.81,-128.45 8.94,-64.16 -35.31,-98.76 -58.17,-125.68 151.84,-4.81 149.77,-69.88 176.49,-186.01 11.69,-50.71 38.25,-96.22 36.51,-145.45 -2.19,-62.09 -37.89,-74.96 -74.51,-103.41 22.72,-12.34 91.41,-53.21 102.82,-64.67l-0.86 -338.76 -102.86 -61.97c26.34,-20.77 38.1,-20.7 51.82,-38.07 53.08,-67.28 3.45,-148.64 -13.4,-212.6 -13.8,-52.46 -15.18,-98.31 -42.68,-138.22 -25.2,-36.62 -69.12,-46.13 -130.89,-47.07 14.53,-17.97 27.25,-27.09 41.78,-52.98 41.32,-73.63 -5.17,-131.47 -52.03,-199.28 -63.53,-91.91 -48.97,-175.21 -213.91,-150.96 18.08,-61.84 44.77,-77.86 2.09,-147.94 -25.89,-42.53 -51.34,-49.4 -93.4,-91 -92.56,-91.53 -101.05,-145.52 -238.56,-84.05 19.97,-143.94 -23.62,-140.11 -149.3,-208.98 -40.54,-22.24 -70.5,-52.96 -115.75,-70.68 -74.97,-29.34 -99.22,31.3 -127.22,40.99 -37.57,-25.38 -8.79,-71.89 -70.4,-114.17 -42.51,-29.16 -85.02,-23.22 -142.23,-40.87 -41.82,-12.87 -96.84,-36.18 -144.86,-34.97 -74.24,1.86 -88.94,63.65 -106.85,75.14 -7.98,-13.85 -56.25,-97.25 -70.78,-104.86l-339.24 1.21c-15.58,17.75 -50.43,77.84 -61.99,98.96 -21.76,-19.79 -41.8,-74.56 -114.2,-72.64 -48.95,1.28 -99.89,26.11 -146.1,37.67 -50.56,12.61 -101.05,13.29 -137.13,44.11 -50.24,42.96 -36.74,69.53 -45.25,136.33zm1256.58 1223.57c14.37,-3.02 26.44,-4.91 40.36,-7.91 60.01,-12.97 331.11,-68.01 353.84,-80.25 -0.83,-3.02 -0.88,-3.68 -3.45,-9.42l-10.52 -18.96c-28.46,-47.74 -83.83,-130.54 -118.1,-168.51 -53.59,-59.32 -91.76,-103.87 -167.98,-161.74 -97.43,-73.98 -293.86,-182.18 -451.32,-206.58 5.19,121.27 12.09,246.65 21.03,374.01 8.66,122.94 -2.32,254.3 89.74,297.67 63.43,29.86 175.66,-3.45 246.4,-18.31zm-1555.25 -87.1c25.98,5.24 60.3,14.05 82.06,18.48l237.91 52.91c131.72,29.21 301.06,97.98 374.94,-18.46 15.36,-24.2 21.63,-44.57 25.13,-70.33 7.81,-57.14 7.84,-120.87 11.16,-178.91 6.67,-116.72 14.55,-245.26 20.57,-369.23 -242.99,37.24 -517.89,223.58 -657.02,414.76 -7.12,9.77 -10.98,18.93 -16.92,26.96 -28.2,38.18 -58.97,82.5 -77.83,123.82zm529.98 1465.78c22.86,18.31 66.22,28.13 101.15,38.96 80.23,24.85 135.85,38.1 220.21,47.74 98.58,11.23 158.21,10.12 253.22,-0.55 75.29,-8.49 268.91,-49.06 315.92,-86.15l-152.32 -182.91c-19.14,-21.28 -34.9,-36.57 -52.13,-57.26l-6.22 -7.96c-33.39,-43.14 -44.21,-49.81 -73.78,-83.9 -45.93,-52.93 -85.41,-112.99 -160.68,-112.99 -74.71,0 -106.91,54.09 -137.33,87.8 -16.04,17.83 -299.86,339.85 -308.04,357.22zm-646.52 -1040.05c-12.72,53.74 7,191.81 15.64,247.51 26.86,173.34 103.31,327.52 206.33,463.12l60.33 73.31 125.15 -189.44c26.06,-38.07 152.12,-221.72 163.45,-256.52 35.2,-108.15 -31.78,-148.57 -111.22,-179.49 -68.02,-26.46 -433.62,-159.12 -459.68,-158.49zm1936.56 742.99c77.13,-95.59 124.37,-172.06 173.73,-290.13 54.92,-131.45 79.17,-289.56 74.56,-453.81 -30.6,3.92 -260.8,87.85 -309.5,104.47 -50.44,17.25 -103.14,36.67 -150.73,54.17 -55.38,20.37 -95.52,40.24 -113.57,93.06 -22.56,66.05 17.02,119.54 42.66,160.41 13.07,20.82 235.54,356.23 250.45,367.79l32.4 -35.96zm-564.7 -653.75c11.23,-88.58 -27.53,-163.45 -67.99,-207.16 -43.44,-46.96 -92.64,-85.61 -180.05,-96.01 -162.36,-19.32 -294.74,103.72 -311.56,243.95 -27.67,230.91 235.62,381.06 422.76,268.73 79.88,-47.92 125.38,-119.13 136.84,-209.51zm-206.46 -516.03c23.74,-54.54 -16.42,-102.36 -53.44,-115.86 -109.91,-40.06 -180.37,123.64 -62.5,168.99 23.32,8.97 54.19,4.61 74.94,-6.09 22.31,-11.51 29.09,-19.74 41,-47.04zm-477.61 950.83c8.64,45.2 50.24,79.25 106.11,69.83 46.92,-7.91 81.01,-45.98 72.93,-102.59 -16.62,-116.21 -202.21,-88.61 -179.04,32.76zm1002.86 -535.14c45.88,-111.63 -132.3,-173.32 -170.35,-63.76 -39.59,113.99 125.9,171.96 170.35,63.76zm-1023 -9.55c14.93,-55.24 -22.19,-98.81 -64.39,-109.08 -55.27,-13.47 -101.15,21.71 -112.01,63.46 -30.09,115.93 145.68,159.32 176.4,45.62zm826.23 549.48c4.23,-13.7 2.55,1.46 3.02,-19.57 0.43,-18.48 -4.58,-35.91 -14.65,-50.49 -51.22,-74.2 -147.31,-42.5 -164.51,23.78 -28.78,110.87 139.96,163.77 176.14,46.28z"/>
 </g>
</svg>
