<?xml version="1.0" encoding="UTF-8"?>
<!DOCTYPE svg PUBLIC "-//W3C//DTD SVG 1.1//EN" "http://www.w3.org/2000/svg">
<svg xmlns="http://www.w3.org/2000/svg" xml:space="preserve" width="42.3332mm" height="42.3332mm" version="1.1" style="shape-rendering:geometricPrecision; text-rendering:geometricPrecision; image-rendering:optimizeQuality; fill-rule:evenodd; clip-rule:evenodd"
viewBox="0 0 4233.32 4233.32">
 <g>
  <path d="M1878.9 3298.28l1.57 -472.11c-44.7,-9.32 -463.26,5.36 -480.63,-5.01l0 -477.16c10.12,-6.04 45.7,-3.17 57.94,-3.17 124.19,0 304.96,4.25 415.58,-0.3l-0.15 -470.69c2.22,-19.31 -0.42,-3.65 3.91,-10.87 19.61,-4.28 95.28,-1.14 121.85,-1.14 40.56,0 81.13,0 121.67,0 32.51,0 229.93,-5.03 242.72,3.43l0.93 475.67c54.29,0 461.19,-3.23 478.44,2.31l0.78 363.41c0,19.87 4.18,113.04 -4.2,118l-472.53 0.73 0 479.32 -473.7 1.29c-0.02,-0.03 -5.11,-0.28 -6.27,-0.51 -5.29,-1.01 -5.82,-2.06 -7.91,-3.2zm210.21 -2204.23l-6.21 3.04 -5.34 1.26 -5.24 4.41 -4.53 4.33 -5.87 1.43 -4.71 4.31 -3.8 1.56 -1.89 -0.1 -14.13 9.42 -1.16 0.17c-2.21,2.14 -2.92,3.2 -6.09,5.59 -0.15,0.13 -5.61,3.58 -6.12,3.88 -3.65,2.19 -8.51,4.61 -12.24,6.27l-1.43 0.28c-4.11,3.83 1.59,-0.28 -6.04,5.41 -1.09,0.83 -4.79,3.08 -6.12,3.88 -3.58,2.12 -8.36,4.61 -12.04,6.27l-1.61 0.45c-0.68,0.63 -1.49,1.52 -1.99,1.94 -0.48,0.41 -1.39,1.36 -1.97,1.82 -9.54,7.42 7.61,-4.61 -4.05,2.89 -4.68,3.05 -1.06,0.58 -6.4,2.82l-1 0.15c-5.21,5.67 6.29,1.62 -8.59,5.82l-1.96 0.58 -14.05 9.37 -1.39 0.25c-2.22,2.11 -2.79,3.07 -5.97,5.49 -0.45,0.33 -5.39,3.42 -6.12,3.85 -3.62,2.17 -8.38,4.53 -12.13,6.22l-1.56 0.43c-4.08,3.75 1.53,-0.28 -6.02,5.36 -1.31,0.96 -4.59,2.92 -6.1,3.83 -3.5,2.09 -8.53,4.73 -11.96,6.4l-1.91 0.42c-0.66,0.61 -1.46,1.49 -1.94,1.89 -0.45,0.38 -1.33,1.34 -1.91,1.79l-10.25 5.74 -1.16 0.2 -50.09 31.58 -1.81 0.45c-0.65,0.61 -1.46,1.51 -1.91,1.92l-12.27 7.53 -1.03 0.15c-5.08,5.54 6.1,1.63 -8.58,5.84l-1.99 0.55c-0.66,0.61 -1.49,1.46 -1.94,1.87l-12.09 7.5 -1.38 0.25c-2.22,2.14 -2.8,3.07 -5.97,5.49 -0.53,0.4 -5.29,3.35 -6.15,3.85 -3.65,2.17 -8.31,4.54 -12.11,6.22l-1.59 0.46c-0.68,0.63 -1.48,1.51 -1.96,1.94l-12.46 7.65 -1.14 0c-4.93,5.79 6.07,1.79 -8.48,5.97l-1.89 0.45 -7.76 6.6c-4.63,3.05 -1.11,0.6 -6.34,2.85l-1.04 0.15c-5.08,5.54 6.1,1.63 -8.58,5.84l-1.97 0.58 -14.05 9.39 -1.16 0.2c-2.19,2.09 -2.99,3.22 -6.09,5.59 -0.2,0.15 -5.56,3.55 -6.09,3.88 -3.7,2.22 -8.51,4.63 -12.27,6.29l-0.4 0.26c-9.54,9.69 -67.76,44.57 -76.45,48.12l-1.61 -0.08c-3.95,3.63 1.41,-0.2 -5.97,5.34 -1.31,0.98 -4.56,2.92 -6.09,3.83 -3.5,2.09 -8.51,4.73 -11.96,6.39l-1.84 0.43 -14.18 9.47 -1 0.15c-5.32,5.79 6.47,1.61 -8.59,5.84l-1.92 0.56c-0.65,0.63 -1.43,1.51 -1.88,1.91l-5.87 4.71c-4.63,3.05 -1.08,0.6 -6.35,2.82l-1.03 0.18c-4.96,5.38 5.92,1.63 -8.59,5.84l-1.93 0.55c-0.66,0.61 -1.47,1.49 -1.94,1.87l-12.12 7.55 -1.18 0.2c-2.19,2.09 -2.97,3.22 -6.07,5.57 -0.2,0.15 -5.59,3.57 -6.12,3.9 -3.65,2.16 -8.53,4.63 -12.26,6.29l-0.4 0.26 -10.53 8.91c-1.26,0.78 -6.77,3.53 -10.35,5.51 -13.92,7.79 -37.77,26.42 -55.57,33.57l-1.61 0.03c-3.63,3.34 0.9,0.15 -5.95,5.33 -1.18,0.91 -4.65,3.05 -6.07,3.88 -3.57,2.19 -8.3,4.66 -11.98,6.35l-1.59 0.45c-3.8,3.5 1.14,-0.02 -5.99,5.34 -1.16,0.91 -4.66,3.05 -6.04,3.88 -3.6,2.21 -8.29,4.63 -12.02,6.34l-1.56 0.46c-4.1,3.87 1.59,-0.31 -5.94,5.38 -1.08,0.84 -4.73,3.08 -6.07,3.88 -3.55,2.14 -8.38,4.64 -12.03,6.3l-0.63 0.45c-13.95,13.85 -8.11,5.77 -26.75,17.96 -9.72,6.34 -17.67,10.82 -25.61,16.01l-151.96 94.43 -1.41 -0.3c-2.19,2.11 -2.8,3.09 -5.97,5.49 -0.53,0.4 -5.24,3.35 -6.09,3.87 -3.81,2.3 -8.21,4.61 -12.17,6.37l-1.38 0.28c-2.19,2.12 -2.8,3.07 -5.97,5.49 -0.53,0.43 -5.24,3.35 -6.09,3.88 -3.81,2.29 -8.21,4.61 -12.17,6.37l-1.38 0.25c-4.03,3.83 1.31,-0.12 -5.97,5.52 -0.63,0.45 -5.14,3.4 -6.02,3.92 -3.87,2.37 -8.33,4.64 -12.23,6.38l-1.16 0.2c-5.06,5.59 6.07,1.61 -8.46,5.84l-1.06 0.58c-2.32,2.19 -3.07,3.32 -6.22,5.76 -1.11,0.86 -4.73,3.1 -6.09,3.93 -3.81,2.32 -8.29,4.66 -12.24,6.4l-1.87 -0.08c-3.19,3.02 0.41,0.58 -5.76,5.29 -1.39,1.06 -4.46,2.92 -6.05,3.88 -3.42,2.09 -8.53,4.76 -11.96,6.39l-1.58 0.43c-3.38,3.23 -29.84,22.89 -49.63,31.78l-1.41 0.25c-5.52,5.42 2.94,-1.36 -5.9,5.57 -0.1,0.07 -5.56,3.67 -5.99,3.93 -3.85,2.34 -8.31,4.58 -12.34,6.34l-1.16 0.18c-5.13,5.71 6.25,1.58 -8.43,5.84l-1.94 0.55c-3.33,3.15 0.65,0.38 -5.79,5.24 -1.56,1.19 -4.26,2.77 -6.05,3.85 -3.7,2.25 -8.11,4.69 -11.86,6.5l-1.81 0.43c-3.07,2.89 0.13,0.75 -5.79,5.31 -1.24,0.96 -4.56,3.02 -5.99,3.91 -3.58,2.19 -8.34,4.65 -12.02,6.34l-1.53 0.45c-4.06,3.86 1.43,-0.22 -5.94,5.42 -0.79,0.6 -5.02,3.3 -6.05,3.9 -3.67,2.24 -8.28,4.58 -12.11,6.3l-1.39 0.4c-5.28,5.14 2.75,-1.18 -5.91,5.54 -0.36,0.28 -5.39,3.5 -6.05,3.9 -3.7,2.24 -8.51,4.66 -12.26,6.35l-1.16 0.22c-2.21,2.12 -2.99,3.2 -6.07,5.59 -0.15,0.11 -5.56,3.63 -6.06,3.93 -3.88,2.37 -8.26,4.56 -12.32,6.35l-1.03 0.15c-5.21,5.67 6.32,1.61 -8.59,5.82l-1.89 0.58c-3.09,2.97 0.28,0.68 -5.74,5.28 -1.38,1.06 -4.43,2.92 -6.02,3.88 -3.42,2.09 -8.56,4.79 -11.96,6.4l-1.58 0.45 -14.43 9.7 -1.31 -0.11 -15.69 16.2c-0.33,-0.63 -1.46,1.05 -2.21,1.56l-0.21 1.48c-2.26,5.04 0.23,1.41 -4.25,8.26 -3.8,5.82 -3.12,3.83 -5.16,6.3l0.35 1.43c0,6.27 1.81,5.16 -3.55,5.16l1.79 1.26 -4.99 8.59 0.86 4.21 -4.06 11.7 0.05 587.15 0 387.48 -0.05 337.15c0.43,0.88 1.19,1.08 1.34,2.64 0.17,1.59 0.95,2.04 1.16,2.8 1.1,4.58 1.13,4.99 1.51,9.67l-0.81 4.03 5.72 18.38 -2.52 3.73 5.26 12.29 -2.06 6.47c0.9,1.56 2.69,3.95 4.35,8.53 0.58,1.61 2.22,8.69 2.75,10.63l-0.68 3.9 7.93 18.51 -1.54 2.17 6.65 13.85 -0.25 2.41c8.06,9.97 17.32,29.94 22.26,42.41l0.18 1.61c2.59,2.84 1.08,0.38 5.31,5.94 2.84,3.78 3.27,4.91 5.26,7.83 5.52,8.16 4.41,5.04 7.93,13.45l0.71 1.06c9.67,7.38 6.55,9.31 16.06,18.2l53.31 51.2 1.06 0.55 31.12 19.52c3.35,2.51 3.91,3.37 6.17,5.54l1.16 -0.18c5.69,0 4.63,-1.64 4.63,3.37l1.77 0.31 29.41 15.71 2.62 0.07c5.51,0 4.55,-1.61 4.55,3.13l1.84 -0.51 13.6 6.9 2.42 -1.16 6.55 4.39 3.04 -0.08 14.36 6.47 1.66 -0.98 7 4.18 2.62 -0.05c5.69,0 4.68,-1.66 4.68,3.25l1.71 -0.36c6.3,0 5.19,-1.83 5.19,3.58l1.21 -1.31 5.89 4.51 2315.49 0 6.75 -4.01 2.06 0.81 13.95 -6.62 3.1 0.2 6.5 -3.8 1.91 0.6 4.48 -3.05 3.15 -0.15 6.47 -4.6 1.69 1.41c0,-4.84 -0.98,-3.18 4.71,-3.18l3.17 -0.05 6.45 -4 1.28 0.8c0,-5.26 -1.08,-3.45 5.11,-3.45l2.04 0.26 4.38 -3.08 2.77 -0.12 29.24 -15.61 2.54 -0.41 3.88 -3.02 1.46 -0.17c1.79,-1.52 3.48,-3.43 6.25,-5.22 6.42,-4.13 3.6,-2.04 8.28,-4.05l1.46 -0.35c4.76,-5.75 -5.84,-1.67 8.16,-5.9l1.28 -0.5c4.61,-5.99 -5.84,-1.69 8.34,-6.27l0.53 -0.13c4.18,-5.74 -0.18,-2.41 7.55,-8.03 3,-2.19 5.26,-2.72 7.91,-4.18l1.63 -0.6 30.4 -30.19 3.3 -5.04c0.95,-2.42 1.16,-4.43 3.09,-6.75 4.28,-5.11 1.14,-1.64 6.43,-5.51l-0.06 -0.56c2.52,-5.46 5.07,-9.24 7.99,-14.15 1.68,-2.87 3.17,-5.84 4.63,-8.11l4.76 -6.55c0.43,-0.57 1.26,-1.51 1.89,-2.26l-0.58 -0.93 16.59 -33.04 -0.93 -2.19 7.33 -13.1 0.15 -2.92 3.05 -4.55 -0.71 -1.87 3.91 -6.49 -0.08 -3.1 6.5 -14.23 -1.06 -1.79 4.25 -7.8 -1.05 -1.79 4.25 -7.81 -0.9 -5.01 7.3 -19.46 -1.54 -2.95 4.76 -12.16 -0.55 -3.85 3.75 -8.21 -1.66 -7.81 4.86 -19.04 -1.29 -12.99c1.26,-28.65 -2.59,-109.51 4.49,-128.9l-0.73 -172.11 0 -714.13 0.73 -283.47 -3.5 -7.95 0.3 -1.77 -7.38 -14.25 0.98 -1.33c-0.6,-0.73 -1.46,-1.61 -1.86,-2.14l-4.66 -6.27c-4.48,-7 0.55,1.48 -3,-6.25l-0.1 -1.38 -14.53 -13.52c-0.37,-0.43 -1.31,-0.91 -1.58,-2.12 -0.28,-1.23 -1.06,-1.46 -1.56,-2.22l-1.54 -0.02c-5.64,-2.47 -0.86,0.86 -8.36,-4.28 -10.38,-7.1 0.68,0.65 -5.87,-5.29l-1.79 -0.7c-14.17,-3.86 -3.4,-0.26 -8.28,-5.7l-1.31 -0.12c-4.13,-1.84 -8.23,-3.98 -12.26,-6.45 -1.04,-0.65 -5.19,-3.35 -6,-3.93 -3.02,-2.26 -3.9,-3.5 -6.01,-5.51l-1.36 -0.28c-3.63,-1.66 -8.54,-4.2 -12.14,-6.37 -1.26,-0.75 -5.01,-3.12 -6.07,-3.9 -3.07,-2.27 -3.75,-3.4 -5.92,-5.47l-1.48 -0.35c-3.4,-1.58 -8.61,-4.3 -12.06,-6.39 -1.57,-0.94 -4.64,-2.85 -6.02,-3.88 -9.35,-6.98 0.07,0.22 -5.82,-5.39l-1.71 -0.53c-14.41,-3.78 -3.88,-0.48 -8.66,-5.87l-0.96 -0.02c-5.92,-2.57 -0.58,1.06 -8.39,-4.28 -10.32,-7.08 0.61,0.55 -5.86,-5.32l-1.77 -0.7c-15.05,-3.83 -3.14,0.15 -8.48,-5.69l-1.11 -0.1c-5.64,-2.52 -0.73,0.85 -8.31,-4.31 -8.96,-6.12 -0.93,-0.8 -5.89,-5.21l-1.82 -0.71c-14,-3.82 -3.5,-0.35 -8.28,-5.69l-1.33 -0.25c-3.78,-1.69 -8.52,-4.08 -12.22,-6.34 -1,-0.61 -5.23,-3.33 -6.02,-3.93 -3.04,-2.29 -3.72,-3.4 -5.89,-5.49l-1.48 -0.3c-3.7,-1.69 -8.49,-4.16 -12.12,-6.37 -1.38,-0.86 -4.83,-3.05 -6.01,-3.93 -2.92,-2.14 -3.96,-3.5 -6,-5.42l-1.51 -0.35c-3.72,-1.76 -8.23,-4.2 -11.93,-6.47 -1.64,-0.98 -4.61,-2.8 -6.07,-3.85 -3,-2.19 -3.8,-3.38 -5.87,-5.34l-1.74 -0.53c-14.17,-3.83 -3.77,-0.48 -8.51,-5.87l-1.08 -0.07c-5.87,-2.52 -0.66,1.03 -8.39,-4.26 -10.19,-6.95 0.43,0.45 -5.86,-5.29l-1.77 -0.7c-15.05,-3.83 -3.14,0.15 -8.51,-5.69l-1.1 -0.1c-5.67,-2.55 -0.63,0.95 -8.24,-4.34 -7.2,-4.96 -2.19,-1.96 -5.71,-5.16l-2.07 -0.73c-15.18,-4.25 -2.62,0.58 -8.26,-5.69l-1.33 -0.25c-3.65,-1.69 -8.54,-4.21 -12.17,-6.4 -1.26,-0.75 -5.01,-3.09 -6.04,-3.87 -3.1,-2.3 -3.78,-3.4 -5.94,-5.49l-1.49 -0.31c-3.6,-1.66 -8.58,-4.2 -12.11,-6.37 -1.28,-0.78 -4.96,-3.07 -6.04,-3.87 -3.08,-2.32 -3.58,-3.33 -5.74,-5.47l-1.72 -0.35c-3.4,-1.61 -8.61,-4.31 -12.03,-6.37 -1.56,-0.93 -4.69,-2.87 -6.05,-3.88 -2.92,-2.19 -3.75,-3.42 -5.84,-5.39l-1.69 -0.38c-3.67,-1.73 -8.31,-4.23 -11.96,-6.44 -1.66,-1.01 -4.61,-2.77 -6.07,-3.86 -2.99,-2.19 -3.8,-3.39 -5.86,-5.33l-1.74 -0.41c-3.7,-1.73 -8.26,-4.2 -11.94,-6.42 -1.63,-0.98 -4.63,-2.82 -6.06,-3.85 -3.03,-2.22 -3.83,-3.37 -5.9,-5.34l-1.71 -0.38c-3.73,-1.76 -8.26,-4.2 -11.96,-6.44 -1.64,-1.01 -4.61,-2.8 -6.07,-3.86 -3,-2.21 -3.8,-3.37 -5.87,-5.33l-1.73 -0.53c-14.38,-3.78 -3.86,-0.48 -8.64,-5.87l-0.96 0c-5.69,-2.42 -0.98,0.88 -8.48,-4.26 -2.97,-2.03 -3.76,-3.42 -5.79,-5.36l-1.74 -0.53c-14.41,-3.77 -3.88,-0.48 -8.66,-5.86l-0.94 0c-5.91,-2.6 -0.63,1.03 -8.41,-4.31 -2.69,-1.84 -4,-3.6 -5.86,-5.31l-1.74 -0.53c-14.33,-3.78 -3.88,-0.53 -8.64,-5.87l-0.98 -0.02c-5.87,-2.55 -0.66,1.03 -8.39,-4.29 -2.69,-1.83 -4,-3.6 -5.89,-5.31l-1.74 -0.53c-15.71,-4.2 -2.94,0.48 -8.63,-5.86l-0.96 -0.03c-5.89,-2.54 -0.63,1.03 -8.41,-4.28 -11.16,-7.66 1.74,1.61 -5.84,-5.31l-1.76 -0.53c-14.28,-3.83 -3.73,-0.41 -8.52,-5.87l-1.1 -0.05c-5.82,-2.52 -0.66,1.01 -8.36,-4.26 -10.81,-7.35 1.15,1.09 -5.9,-5.28l-1.76 -0.56c-14.25,-3.83 -3.7,-0.4 -8.51,-5.86l-1.08 -0.06c-5.84,-2.51 -0.66,1.01 -8.39,-4.25 -10.8,-7.35 1.16,1.08 -5.87,-5.29l-1.76 -0.7c-15.16,-3.83 -3.07,0.22 -8.48,-5.72l-1.11 -0.05c-5.74,-2.47 -0.78,0.93 -8.39,-4.26 -10.27,-7.02 0.56,0.53 -5.86,-5.28l-1.77 -0.71c-15.06,-3.83 -3.14,0.15 -8.51,-5.69l-1.11 -0.1c-5.64,-2.42 -0.83,0.88 -8.36,-4.23 -10.52,-7.15 0.81,0.75 -5.86,-5.29l-1.79 -0.7c-15.06,-3.83 -3.12,0.15 -8.49,-5.69l-1.11 -0.08c-5.81,-2.59 -0.57,0.96 -8.3,-4.31 -10,-6.8 0.1,0.08 -5.92,-5.23l-1.79 -0.53c-14.03,-3.78 -3.88,-0.53 -8.51,-5.87l-1.11 -0.08c-5.66,-2.44 -0.81,0.91 -8.36,-4.25 -11.03,-7.51 1.44,1.36 -5.89,-5.29l-1.74 -0.55c-15.84,-4.18 -2.89,0.55 -8.64,-5.85l-0.98 -0.02c-5.56,-2.34 -1.11,0.81 -8.46,-4.21 -3,-2.06 -3.78,-3.45 -5.82,-5.38l-1.73 -0.51c-14.38,-3.8 -3.86,-0.5 -8.64,-5.89l-0.96 0.02c-5.81,-2.46 -0.9,0.96 -8.51,-4.25 -3.02,-2.07 -3.73,-3.4 -5.79,-5.36l-1.71 -0.38c-3.4,-1.59 -8.61,-4.28 -12.06,-6.35 -1.49,-0.9 -4.76,-2.92 -6.07,-3.88 -2.95,-2.14 -3.96,-3.5 -6,-5.41l-1.51 -0.35c-3.6,-1.64 -8.56,-4.18 -12.13,-6.3 -1.29,-0.78 -5.01,-3.09 -6.1,-3.87 -3.02,-2.25 -3.9,-3.5 -6.02,-5.49l-1.36 -0.31c-3.75,-1.66 -8.56,-4.08 -12.23,-6.27 -0.68,-0.4 -5.74,-3.6 -6.1,-3.87 -3.37,-2.5 -3.62,-3.28 -5.97,-5.57l-1.3 -0.15c-5.62,-2.47 -0.68,0.93 -8.26,-4.28 -7.28,-5.01 -2.14,-1.91 -5.75,-5.19l-2.01 -0.7c-14.18,-3.83 -3.4,-0.23 -8.31,-5.69l-1.31 -0.11c-5.61,-2.49 -0.75,0.84 -8.31,-4.28 -10.37,-7.05 0.51,0.43 -5.92,-5.21l-1.78 -0.73c-15.06,-3.83 -3.13,0.15 -8.49,-5.69l-1.11 -0.05c-5.81,-2.52 -0.7,0.98 -8.38,-4.26 -2.72,-1.83 -4.01,-3.57 -5.87,-5.28l-1.76 -0.56c-14.33,-3.77 -3.88,-0.53 -8.64,-5.86l-0.98 0c-5.67,-2.4 -0.98,0.88 -8.46,-4.24 -3.02,-2.03 -3.78,-3.42 -5.82,-5.36l-1.71 -0.38c-3.4,-1.61 -8.61,-4.3 -12.06,-6.37 -1.51,-0.9 -4.74,-2.87 -6.07,-3.85 -2.95,-2.17 -3.93,-3.5 -6,-5.41l-1.51 -0.36c-3.42,-1.61 -8.58,-4.28 -12.06,-6.37 -1.48,-0.88 -4.78,-2.89 -6.07,-3.85 -2.99,-2.19 -3.92,-3.47 -6.01,-5.44l-1.47 -0.33c-3.67,-1.66 -8.53,-4.15 -12.13,-6.32 -1.24,-0.73 -5.11,-3.12 -6.12,-3.87 -3.07,-2.27 -3.88,-3.45 -6.02,-5.49l-1.36 -0.28c-4.68,-2.09 -1.69,0.2 -8.16,-4.18 -8.51,-5.79 -1.21,-1.03 -5.76,-5.14l-2.07 -0.7c-14.45,-3.86 -3.55,-0.38 -8.54,-5.72l-1.08 -0.1c-5.56,-2.47 -0.8,0.81 -8.31,-4.28 -10.37,-7.05 0.48,0.43 -5.94,-5.21l-1.76 -0.58c-14.41,-3.8 -3.81,-0.48 -8.64,-5.84l-0.96 0c-5.69,-2.4 -1,0.9 -8.48,-4.21 -3,-2.06 -3.76,-3.45 -5.82,-5.39l-1.71 -0.35c-3.63,-1.64 -8.59,-4.18 -12.14,-6.3 -1.26,-0.75 -5.09,-3.12 -6.12,-3.87 -3.1,-2.27 -3.88,-3.45 -6.02,-5.49l-1.36 -0.25c-4.76,-2.12 -1.66,0.2 -8.21,-4.18 -10.62,-7.11 0.61,0.57 -5.96,-5.17l-1.84 -0.73c-15.06,-3.82 -3.12,0.15 -8.49,-5.69l-1.11 -0.05c-5.79,-2.49 -0.7,0.98 -8.38,-4.25 -2.72,-1.84 -4,-3.58 -5.89,-5.29l-1.74 -0.4c-3.4,-1.59 -8.59,-4.29 -12.04,-6.35 -1.48,-0.88 -4.78,-2.9 -6.09,-3.85 -3,-2.19 -3.9,-3.48 -5.99,-5.42l-1.49 -0.32c-4.66,-2.07 -1.74,0.17 -8.16,-4.16 -7.8,-5.29 -1.84,-1.61 -5.76,-5.14l-2.09 -0.7c-14.01,-3.83 -3.5,-0.35 -8.29,-5.69l-1.33 -0.13c-5.59,-2.47 -0.76,0.83 -8.29,-4.25 -10.55,-7.16 0.63,0.58 -5.94,-5.24l-1.79 -0.56c-15.81,-4.18 -2.87,0.56 -8.64,-5.84l-0.95 0c-5.64,-2.39 -1.04,0.86 -8.49,-4.23 -3.05,-2.06 -3.73,-3.4 -5.79,-5.36l-1.74 -0.35c-3.62,-1.67 -8.56,-4.18 -12.14,-6.3 -1.23,-0.75 -5.08,-3.12 -6.09,-3.88 -3.1,-2.26 -3.9,-3.47 -6.04,-5.49l-1.34 -0.27c-4.76,-2.09 -1.71,0.2 -8.23,-4.16 -11.18,-7.45 1.23,1.14 -5.99,-5.19l-1.79 -0.7c-15.06,-3.83 -3.15,0.15 -8.51,-5.69l-1.11 -0.08c-5.79,-2.49 -0.71,0.99 -8.39,-4.23 -2.72,-1.86 -4,-3.6 -5.89,-5.31l-1.74 -0.4c-3.35,-1.56 -8.61,-4.28 -12.03,-6.32 -1.49,-0.89 -4.79,-2.9 -6.1,-3.86 -2.97,-2.19 -3.9,-3.47 -5.99,-5.44l-1.49 -0.3c-4.73,-2.09 -1.63,0.25 -8.15,-4.18 -7.66,-5.18 -1.97,-1.68 -5.77,-5.11l-2.09 -0.7c-14,-3.83 -3.48,-0.36 -8.28,-5.7l-1.31 -0.12c-5.64,-2.49 -0.76,0.85 -8.31,-4.28 -10.4,-7.05 0.47,0.45 -5.95,-5.21l-1.76 -0.46 -18.81 -9.14 -3.6 1.61 -38.45 -0.02 -3.1 -1.59 -9.22 5.37zm-0.88 -564.99l-5.51 3.83 -3.7 1.56 -1.46 0.2c-0.71,0.63 -1.56,1.49 -2.09,1.91 -0.51,0.38 -1.46,1.31 -2.07,1.77l-10.4 5.49 -2.24 0.45c0,4.68 1.03,3.25 -4.15,3.25l-1.19 -0.05 -14.83 9.29 -1.43 0.33 -14.58 9.14 -1.01 0.45c-0.76,0.66 -1.61,1.56 -2.19,2.04 -0.56,0.45 -1.46,1.41 -2.14,1.91l-10.68 5.8 -0.4 -0.13 -266.62 178.51c-11.63,7.75 -25.3,18.18 -37.19,23.49l-1.11 -0.25c-4.83,5.94 6.07,1.91 -8.51,6.09l-1.11 0.31c-4.86,5.99 6.17,1.88 -8.48,6.06l-1.11 0.33c-4.89,6.02 6.14,1.92 -8.51,6.1l-1.11 0.32c-4.86,6 6.17,1.89 -8.49,6.07l-1.15 0.33c-4.81,5.89 6.01,1.86 -8.47,6.07l-1.1 0.32c-4.94,6.02 6.22,1.87 -8.49,6.07l-1.11 0.36c-4.91,5.96 6.17,1.86 -8.51,6.04l-1.18 0.35c-4.79,5.92 6.02,1.86 -8.41,6.07l-1.14 0.33c-4.81,5.86 6,1.89 -8.48,6.07l-1.11 0.35c-4.88,5.89 6.07,1.86 -8.49,6.04l-1.13 0.35c-4.88,5.95 6.15,1.87 -8.48,6.05l-1.11 0.35c-4.86,5.87 6.02,1.86 -8.49,6.04l-1.13 0.38c-4.91,5.89 6.12,1.84 -8.49,6.02l-1.11 0.38c-4.91,5.89 6.1,1.84 -8.48,6.02l-1.13 0.4c-4.91,5.89 6.11,1.81 -8.49,6.02l-1.13 0.37c-4.81,5.8 5.96,1.84 -8.46,6.02l-1.16 0.38c-4.81,5.74 5.94,1.81 -8.46,6.02l-1.14 0.4c-4.83,5.74 5.95,1.81 -8.46,5.99l-1.16 0.41c-4.81,5.74 5.95,1.81 -8.46,5.99l-1.13 0.4c-4.83,5.74 5.94,1.82 -8.49,6.02l-1.13 0.4c-4.81,5.75 5.94,1.82 -8.46,6l-1.13 0.4c-4.89,5.79 6.04,1.79 -8.49,5.99l-1.13 0.41c-4.81,5.69 5.92,1.81 -8.46,5.99l-1.14 0.43c-4.83,5.69 5.9,1.79 -8.48,5.97l-1.14 0.42c-4.88,5.75 6.02,1.79 -8.46,5.97l-1.15 0.43c-4.79,5.64 5.84,1.79 -8.47,5.99l-1.15 0.43c-4.79,5.64 5.86,1.79 -8.44,5.97l-1.16 0.43c-4.78,5.64 5.84,1.78 -8.46,5.96l-1.16 0.43c-4.76,5.59 5.82,1.79 -8.43,5.97l-1.16 0.45c-5.04,5.59 6.07,1.59 -8.46,5.82l-1.46 0.58c-4.69,5.46 5.59,1.61 -8.14,5.84l-1.51 0.56c-4.58,5.36 5.44,1.63 -8.1,5.84l-1.52 0.58c-4.55,5.34 5.44,1.61 -8.08,5.81l-1.51 0.58c-4.58,5.37 5.44,1.61 -8.11,5.85l-1.51 0.55c-4.48,5.24 5.26,1.64 -8.08,5.84l-1.54 0.58c-4.48,5.24 5.29,1.61 -8.08,5.84l-1.51 0.56c-4.51,5.23 5.26,1.63 -8.08,5.84l-1.54 0.58c-4.48,5.23 5.29,1.61 -8.08,5.81l-1.56 0.58c-4.39,5.14 5.11,1.64 -8.04,5.85l-1.61 0.55c-4.28,5.06 4.96,1.66 -8.01,5.84l-1.56 0.58c-4.63,5.24 5.44,1.49 -8.03,5.74l-1.56 0.66c-4.38,5.13 5.08,1.63 -8.06,5.84l-1.54 0.55c-4.48,5.24 5.29,1.64 -8.05,5.84l-1.54 0.58c-4.48,5.24 5.26,1.61 -8.08,5.82l-1.51 0.58c-4.59,5.36 5.44,1.61 -8.11,5.84l-0.53 0.56c-3.22,3.27 -1.79,2.29 -6.5,5.91 -0.8,0.63 -3.3,2.27 -4.1,2.77 -8.31,5.39 -1.69,1.29 -8.08,4.23l-1.14 -0.1c-4.78,5.64 5.84,1.79 -8.46,5.97l-1.13 0.43c-4.84,5.69 5.89,1.81 -8.49,5.99l-1.13 0.43c-4.89,5.79 6.04,1.79 -8.46,5.99l-1.13 0.41c-4.84,5.74 5.94,1.81 -8.49,5.99l-1.13 0.4c-4.81,5.77 5.94,1.84 -8.46,6.02l-1.14 0.4c-4.83,5.79 5.97,1.84 -8.48,6.02l-1.11 0.38c-4.91,5.89 6.12,1.84 -8.49,6.02l-1.13 0.37c-4.84,5.87 6.02,1.87 -8.49,6.05l-1.1 0.38c-4.81,5.86 5.99,1.86 -8.49,6.06l-1.13 0.33c-4.81,5.87 5.99,1.89 -8.49,6.07l-1.11 0.33c-4.88,5.97 6.15,1.89 -8.48,6.07l-1.11 0.35c-4.89,5.99 6.14,1.89 -8.51,6.07l-1.11 0.32c-4.81,5.97 6.07,1.92 -8.49,6.1l-1.1 0.33c-0.68,0.68 -1.52,1.58 -2.02,2.04 -0.5,0.42 -1.38,1.38 -2.01,1.91 -0.58,0.48 -1.39,1.18 -2.04,1.69 -0.61,0.47 -1.41,0.95 -2.04,1.43l-234.19 155.67 -1.66 0.55c-4.88,5.8 5.92,1.24 -7.93,5.85l-1.61 0.58c-4.21,4.93 4.76,1.66 -8.01,5.81l-1.56 0.58c-4.38,5.16 5.11,1.64 -8.03,5.84l-1.54 0.56c-4.58,5.39 5.47,1.63 -8.08,5.84l-1.29 0.58c-4.73,5.74 5.85,1.79 -8.31,5.99l-1.13 0.4c-4.83,5.75 5.94,1.82 -8.49,6.02l-1.1 0.38c-4.86,5.87 6.02,1.86 -8.49,6.04l-1.13 0.38c-4.81,5.87 5.99,1.86 -8.49,6.07l-1.11 0.33c-15.61,15.66 -142.85,97.32 -146.2,98.71l-1.66 0.58c-4.88,5.76 5.92,1.2 -7.93,5.81l-1.61 0.58 -11.21 9.87c-5.51,4.41 -3.07,3.02 -9.59,6l-0.03 0.15c-5.91,14.53 -35.88,20.97 -60.51,57.61 -8.91,13.25 -0.83,3.93 -9.92,9.62l-0.12 0 -12.7 23.02 1.39 2.61 -4.58 10.08 0 24.75 4.28 10 -1.09 3.09 4.08 6.53 -0.88 2.69 5.87 10.1 0.55 2.59 2.95 3.83 0.25 1.01 12.27 15.96c6.14,9.59 5.33,3.3 10.04,15.06l0.1 0.93c6.55,4.31 13.8,16.14 38.83,36.84 12.69,10.48 -7.73,-7.03 3.75,3.25 0.58,0.5 1.49,1.46 1.94,1.86 0.48,0.46 1.34,1.31 2.02,1.94l1.51 0.03c5.54,0 4.53,-1.62 4.53,3.17l1.86 -1.36 8.97 4.56 7.05 0.12 12.79 -0.32 7.43 0.2c0,-5.22 -1.01,-3.28 5.39,-3.28l3.67 0.08 5.95 -3.78 2.92 0.58c7.02,-5.69 17.22,-10.12 26.79,-15.41 10.3,-5.72 17.58,-11.86 27.93,-16.54l1.05 -0.08c0.66,-0.7 1.64,-2.72 2.02,-2.06 0.35,0.63 1.51,-1.54 2.01,-1.94l14.13 -8.54 1.08 -0.25c4.94,-6.17 -6.29,-1.97 8.51,-6.12l1.09 -0.3c4.93,-6.1 -6.27,-1.92 8.53,-6.1l1.11 -0.3c4.81,-5.99 -6.09,-1.94 8.49,-6.12l1.1 -0.3c4.89,-6.02 -6.14,-1.91 8.52,-6.09l1.1 -0.31c4.81,-5.94 -6.06,-1.91 8.49,-6.09l1.11 -0.3c5.08,-5.97 -6.3,-1.76 8.51,-5.97l1.41 -0.45c4.58,-5.95 -5.79,-1.92 8.18,-6.07l1.44 -0.33c4.61,-5.99 -5.89,-1.89 8.18,-6.07l1.41 -0.32c4.81,-5.9 -5.97,-1.74 8.21,-5.97l1.41 -0.46c4.58,-5.96 -5.84,-1.88 8.18,-6.06l1.14 -0.33c5.03,-5.89 -6.25,-1.74 8.48,-5.97l1.11 -0.43c5.06,-5.92 -6.22,-1.74 8.49,-5.99l1.13 -0.43c5.06,-5.92 -6.22,-1.71 8.49,-5.97l1.13 -0.42c5.04,-5.92 -6.24,-1.74 8.46,-5.97l1.13 -0.43c4.91,-6.02 -6.19,-1.89 8.49,-6.07l1.41 -0.35c4.61,-5.92 -5.82,-1.87 8.18,-6.07l1.14 -0.33c4.91,-6.02 -6.2,-1.86 8.48,-6.04l1.41 -0.35c4.76,-5.87 -5.91,-1.74 8.19,-6l1.16 -0.42c4.83,-5.92 -6.07,-1.87 8.46,-6.05l1.41 -0.35c4.83,-5.92 -6,-1.71 8.18,-5.97l1.18 -0.43c5.04,-5.91 -6.27,-1.73 8.44,-5.94l1.43 -0.48c4.74,-5.81 -5.86,-1.71 8.16,-5.94l1.19 -0.45c5.03,-5.92 -6.27,-1.72 8.43,-5.95l1.44 -0.45c4.58,-5.89 -5.79,-1.86 8.16,-6.07l1.18 -0.35c5.06,-5.92 -6.27,-1.71 8.44,-5.94l1.43 -0.46c4.56,-5.84 -5.74,-1.84 8.16,-6.04l1.18 -0.38c5.06,-5.92 -6.24,-1.71 8.44,-5.92l1.18 -0.47c4.89,-5.95 -6.14,-1.84 8.41,-6.02l1.44 -0.38c4.78,-5.84 -5.92,-1.71 8.18,-5.94l1.19 -0.48c5.06,-5.92 -6.27,-1.71 8.41,-5.94l1.43 -0.46c4.63,-5.86 -5.79,-1.84 8.18,-6.02l1.44 -0.37c4.63,-5.87 -5.82,-1.84 8.18,-6.02l1.41 -0.4c4.64,-5.87 -5.79,-1.82 8.19,-6.02l1.43 -0.38c4.79,-5.79 -5.89,-1.69 8.19,-5.92l1.41 -0.48c4.78,-5.81 -5.9,-1.68 8.18,-5.94l1.44 -0.48c4.78,-5.79 -5.9,-1.68 8.18,-5.91l1.41 -0.48c4.78,-5.79 -5.89,-1.69 8.18,-5.92l1.44 -0.48c4.78,-5.82 -5.89,-1.69 8.18,-5.94l1.44 -0.48c4.76,-5.79 -5.89,-1.69 8.16,-5.92l1.43 -0.48c4.79,-5.79 -5.89,-1.68 8.19,-5.91l1.43 -0.48c4.76,-5.82 -5.89,-1.69 8.16,-5.94l1.44 -0.48c4.78,-5.8 -5.9,-1.69 8.18,-5.92l1.43 -0.48c4.79,-5.79 -5.89,-1.69 8.16,-5.92l1.44 -0.48c4.78,-5.81 -5.89,-1.68 8.18,-5.94l1.44 -0.48c4.76,-5.74 -5.84,-1.66 8.16,-5.91l1.46 -0.48c4.76,-5.74 -5.85,-1.69 8.16,-5.92l1.43 -0.48c4.76,-5.76 -5.84,-1.69 8.16,-5.92l1.46 -0.5c4.76,-5.74 -5.84,-1.69 8.16,-5.92l1.43 -0.48c4.76,-5.74 -5.84,-1.68 8.16,-5.91l1.46 -0.51c4.76,-5.74 -5.84,-1.66 8.16,-5.89l1.44 -0.5c4.76,-5.74 -5.85,-1.69 8.16,-5.92l1.46 -0.48c4.75,-5.74 -5.85,-1.69 8.15,-5.92l1.44 -0.5c4.76,-5.74 -5.82,-1.66 8.16,-5.89l1.46 -0.51c4.76,-5.74 -5.84,-1.68 8.16,-5.91l1.43 -0.48c4.76,-5.74 -5.81,-1.69 8.19,-5.92l1.43 -0.5c4.76,-5.74 -5.84,-1.66 8.16,-5.9l1.46 -0.5c4.74,-5.69 -5.82,-1.66 8.16,-5.89l1.43 -0.5c4.76,-5.7 -5.81,-1.67 8.16,-5.9l1.46 -0.53c4.76,-5.69 -5.81,-1.63 8.16,-5.89l1.44 -0.5c4.76,-5.69 -5.82,-1.66 8.16,-5.89l1.46 -0.51c4.76,-5.71 -5.82,-1.66 8.16,-5.92l1.43 -0.5c4.76,-5.69 -5.82,-1.64 8.16,-5.89l1.46 -0.5c4.76,-5.7 -5.82,-1.67 8.16,-5.9l1.43 -0.5c4.76,-5.72 -5.79,-1.66 8.16,-5.92l1.46 -0.5c4.76,-5.69 -5.81,-1.64 8.16,-5.89l1.44 -0.51c4.76,-5.69 -5.79,-1.66 8.16,-5.89l1.46 -0.5c4.76,-5.72 -5.82,-1.67 8.15,-5.92l1.44 -0.5c4.76,-5.8 -5.87,-1.69 8.16,-5.92l1.46 -0.48c4.68,-5.69 -5.74,-1.71 8.16,-5.94l1.43 -0.46c4.76,-5.71 -5.79,-1.66 8.16,-5.91l1.46 -0.51c4.69,-5.64 -5.71,-1.66 8.16,-5.92l1.44 -0.47c4.76,-5.75 -5.85,-1.69 8.15,-5.92l1.47 -0.48c4.68,-5.69 -5.75,-1.71 8.15,-5.94l1.44 -0.48c4.78,-5.79 -5.89,-1.69 8.16,-5.92l1.43 -0.48c4.74,-5.74 -5.79,-1.71 8.19,-5.94l1.43 -0.48c4.76,-5.84 -5.92,-1.71 8.16,-5.94l1.44 -0.45c4.78,-5.85 -5.92,-1.72 8.18,-5.95l1.41 -0.45c4.81,-5.89 -5.97,-1.74 8.18,-5.97l1.44 -0.45c4.78,-5.89 -5.97,-1.71 8.18,-5.94l1.41 -0.46c5.06,-6.67 -6.69,-1.66 8.21,-6.12l1.09 -0.27c4.88,-6.1 -6.22,-1.94 8.51,-6.12l1.08 -0.3c4.88,-6.07 -6.2,-1.94 8.54,-6.1l1.08 -0.3c4.83,-6.04 -6.12,-1.94 8.51,-6.12l1.11 -0.28c4.86,-6.12 -6.22,-1.96 8.51,-6.14l1.08 -0.28c4.81,-6.07 -6.14,-1.96 8.51,-6.14l1.09 -0.25c4.88,-6.15 -6.25,-1.99 8.53,-6.15l1.06 -0.25c4.88,-6.19 -6.25,-2.01 8.54,-6.17l1.08 -0.25c4.86,-6.17 -6.27,-2.01 8.53,-6.14l1.06 -0.26c4.89,-6.19 -6.24,-2.01 8.54,-6.17l1.08 -0.22c4.84,-6.22 -6.27,-2.04 8.54,-6.2l1.06 -0.22c4.91,-6.3 -6.38,-2.04 8.53,-6.17l1.06 -0.23c4.86,-6.24 -6.3,-2.06 8.56,-6.19l1.06 -0.21c4.83,-6.24 -6.27,-2.06 8.53,-6.22l1.06 -0.2c5.34,-6.92 -7.12,-1.83 8.56,-6.22l1.06 -0.17c5.31,-6.93 -7.12,-1.84 8.54,-6.22l1.06 -0.18c5.36,-7 -7.21,-1.86 8.56,-6.24l1.03 -0.18 162.29 -109.21 0.4 0.33c6.55,-8.01 23.37,-18.46 31.61,-21.58l0.88 -0.83c5.08,-5.97 -6.25,-2.45 8.73,-6.05l0.84 -0.35c5.21,-6.14 -6.48,-2.49 8.76,-6.04l1.71 -0.38c5.11,-5.57 -5.99,-1.23 7.91,-5.57l1.68 -0.83c4.13,-4.98 -4.7,-1.71 7.94,-5.84l1.46 -0.55c4.63,-5.47 -5.54,-1.66 8.13,-5.87l1.46 -0.55c4.74,-5.64 -5.74,-1.64 8.16,-5.87l1.44 -0.53c4.68,-5.64 -5.72,-1.69 8.15,-5.92l1.46 -0.48c4.69,-5.69 -5.74,-1.71 8.16,-5.94l1.44 -0.48c4.76,-5.84 -5.94,-1.71 8.16,-5.94l1.41 -0.45c4.76,-5.84 -5.87,-1.74 8.21,-5.97l1.23 -0.43c4.83,-6.19 -6.22,-1.94 8.36,-6.12l1.11 -0.3c4.81,-6.07 -6.15,-1.96 8.51,-6.14l1.08 -0.26c4.86,-6.19 -6.27,-2.01 8.51,-6.16l1.09 -0.23c4.81,-6.17 -6.2,-2.04 8.53,-6.2l1.06 -0.22c4.86,-6.25 -6.3,-2.04 8.54,-6.2l1.05 -0.2c5.34,-6.92 -7.12,-1.84 8.57,-6.22l1.03 -0.2c3.15,-3.42 1.56,-2.22 6.02,-5.74l31.37 -19.89 1.11 0.02c5.36,-5.84 -6.57,-1.86 8.49,-5.69l2.41 -0.7 4.01 -2.98 2.49 -0.22c6.9,-6.42 3.22,-4.36 13.52,-7.2l3.88 0.78c8.38,-6.2 16.77,-4.84 24.83,0l3.3 -0.36 6.49 3.55 3.13 0c5.66,0 4.65,-1.66 4.65,3.23l1.74 -0.28c6.04,0 4.96,-1.76 4.96,3.48l1.46 -0.08c6.05,2.39 1.06,-1.03 8.74,4.1 3.5,2.35 3.63,3.33 5.94,5.57l1.31 0.4c14.33,4.18 3.73,0.33 8.49,6.02l1.13 0.38c14.28,4.2 3.73,0.38 8.46,6.02l1.14 0.42c14.25,4.21 3.52,0.18 8.33,5.97l1.28 0.58c13.53,4.23 3.5,0.45 8.09,5.84l1.53 0.56c13.35,4.23 3.55,0.58 8.06,5.84l1.54 0.58c12.97,4.15 3.75,0.8 8.03,5.82l1.59 0.57c12.74,4.16 3.77,0.89 7.98,5.85l1.61 0.55c14.08,4.63 2.97,-0.05 7.98,5.84l1.64 0.58c13.67,4.58 3.15,0.2 7.93,5.82l1.66 0.7 188.11 125.03c4.05,3.07 3.42,2.84 6.14,5.59l1.11 0.3c14.53,4.2 3.65,0.18 8.48,6.09l1.11 0.33c14.35,4.21 3.75,0.3 8.49,6.07l1.13 0.45c14.43,4.21 3.58,0.25 8.46,5.97l1.13 0.38c13.85,4.2 3.68,0.35 8.24,6.02l1.38 0.4c14.38,4.2 3.65,0.3 8.46,5.99l1.14 0.43c14.2,4.18 3.75,0.4 8.46,5.99l1.16 0.43c14.3,4.18 3.65,0.33 8.46,5.97l1.13 -0.1c5.01,2.29 3.78,1.13 10.1,5.51l8.58 7.41 0.53 0.55c13.55,4.23 3.53,0.48 8.11,5.84l1.51 0.58c13.53,4.21 3.53,0.48 8.11,5.82l1.49 0.58c13.37,4.2 3.6,0.58 8.08,5.84l1.54 0.55c13.34,4.21 3.6,0.61 8.08,5.85l1.54 0.57c13.14,4.18 3.65,0.68 8.03,5.82l1.56 0.58c13.14,4.18 3.68,0.71 8.06,5.84l1.56 0.56c12.94,4.18 3.72,0.83 8.03,5.84l1.56 0.58c12.97,4.15 3.75,0.8 8.03,5.81l1.59 0.58c12.74,4.16 3.8,0.94 7.98,5.85l1.62 0.55c12.76,4.15 3.82,0.93 8,5.84l1.61 0.58c14.06,4.61 2.98,-0.05 7.99,5.82l1.61 0.58c14.07,4.63 2.99,-0.03 7.98,5.84l1.64 0.55c14.05,4.64 2.94,-0.05 7.95,5.84l1.64 0.58c13.88,4.61 3.07,0.08 7.96,5.85l1.66 0.55c13.85,4.61 3.05,0.08 7.93,5.84l1.66 0.56c13.7,4.6 3.15,0.22 7.96,5.84l1.66 0.58c13.68,4.6 3.13,0.17 7.94,5.84l1.66 0.7 94.38 61.62c209.55,139.91 435.95,295.12 645.71,430.12l12.34 10.32 0.12 -1.21 30.5 20.42 1.54 0.56 10.62 5.29c0.66,0.48 1.61,1.41 2.17,1.81 0.58,0.43 1.46,1.31 2.21,1.94l1.01 -0.63 19.69 10.25 2.72 -0.88 6.07 4.08 3.53 -0.89 7.12 4.08 2.49 -2.44 14.96 5.64 10.65 0 3.23 0 10.42 0 11.99 -4.81 2.06 1.61 10.73 -5.94 2.34 -0.45 36.11 -34.53 0.43 -0.7c1.59,-3.88 1.33,-4.33 3.93,-8.13 0.53,-0.76 2.29,-2.98 2.89,-3.73 2.82,-3.37 3.86,-3.93 5.54,-5.69l0.28 -1.66 6.14 -10 0.1 -2.82 3.1 -4.63 -1.61 -1.77 4.81 -9.21 -1.81 -3.6 5.01 -12.97 0 -32.96 -3.88 -8.51 0.68 -3.1 -3.88 -6.5 0.68 -3.47 -4.13 -6.15 0.93 -2.06 -3.07 -4.33 -0.15 -2.52 -2.97 -3.88 -0.23 -1.64c-0.6,-0.7 -1.43,-1.56 -1.84,-2.06l-8.51 -11.89c-8.21,-11.93 -23.47,-20.65 -30.62,-32.46l-0.65 0.31c-12.64,-5.92 -44.32,-24.33 -54.42,-35.53l-0.02 -0.18c-15.67,-4.38 -3.23,0.71 -8.54,-6.22l-1.08 -0.25c-14.78,-4.13 -3.68,0.05 -8.51,-6.17l-1.09 -0.23c-14.78,-4.15 -3.67,0.03 -8.53,-6.17l-1.08 -0.27c-14.74,-4.16 -3.63,-0.03 -8.52,-6.12l-1.08 -0.3c-14.88,-4.46 -3.12,0.55 -8.18,-6.12l-1.44 -0.43c-14,-4.23 -3.45,-0.18 -8.16,-5.97l-1.43 -0.48c-13.9,-4.23 -3.48,-0.22 -8.16,-5.92l-1.46 -0.52c-13.95,-4.23 -3.4,-0.21 -8.16,-5.9l-1.43 -0.53c-13.75,-4.23 -3.51,-0.35 -8.16,-5.86l-1.46 -0.56c-12.85,-4.18 -3.71,-0.75 -7.94,-5.84l-1.66 -0.83c-13.9,-4.33 -2.79,0 -7.9,-5.59l-1.72 -0.35c-15.23,-3.55 -3.55,0.1 -8.76,-6.05l-0.83 -0.83 -31.63 -21.58 -0.4 0.33c-5.21,-2.37 -94.38,-60.21 -104.63,-70.78l-1.06 -0.23c-14.83,-4.13 -3.67,0.08 -8.53,-6.19l-1.06 -0.23c-14.81,-4.16 -3.68,0.02 -8.54,-6.17l-1.08 -0.25c-14.65,-4.18 -3.7,-0.08 -8.51,-6.15l-1.08 -0.27c-14.53,-4.18 -3.6,0.02 -8.39,-6.15l-1.23 -0.43c-14.05,-4.23 -3.45,-0.12 -8.19,-5.96l-1.41 -0.38c-13.9,-4.18 -3.6,-0.2 -8.18,-6.02l-1.43 -0.43c-13.78,-4.2 -3.61,-0.3 -8.16,-5.99l-1.44 -0.48c-14,-4.23 -3.42,-0.17 -8.16,-5.92l-1.46 -0.5c-13.97,-4.26 -3.4,-0.2 -8.16,-5.89l-1.43 -0.51c-13.98,-4.25 -3.43,-0.2 -8.16,-5.91l-1.46 -0.51c-13.8,-4.23 -3.48,-0.3 -8.13,-5.89l-1.46 -0.53c-13.9,-4.23 -3.43,-0.22 -8.16,-5.87l-1.46 -0.52c-13.9,-4.23 -3.43,-0.26 -8.14,-5.9l-1.48 -0.52c-13.85,-4.26 -3.4,-0.28 -8.14,-5.87l-1.46 -0.53c-13.85,-4.26 -3.42,-0.3 -8.13,-5.87l-1.49 -0.55c-13.64,-4.21 -3.5,-0.4 -8.1,-5.87l-1.49 -0.55c-13.77,-4.23 -3.45,-0.33 -8.13,-5.85l-1.49 -0.55c-13.77,-4.23 -3.42,-0.33 -8.11,-5.84l-1.48 -0.58c-12.74,-4.16 -3.73,-0.81 -7.91,-5.84l-1.71 -0.83c-14.08,-4.33 -2.7,0.15 -7.91,-5.57l-1.69 -0.83c-14.07,-4.33 -2.72,0.13 -7.9,-5.56l-1.72 -0.86c-14.07,-4.33 -2.69,0.18 -7.88,-5.57l-1.71 -0.83c-13.9,-4.33 -2.79,0.03 -7.91,-5.56l-1.71 -0.38c-15.26,-3.52 -3.57,0.08 -8.79,-6.04l-0.8 -0.35c-15.26,-3.56 -3.58,0.07 -8.79,-6.05l-0.83 -0.38c-15.24,-3.52 -3.55,0.1 -8.76,-6.01l-0.84 -0.38c-15.25,-3.53 -3.57,0.1 -8.78,-6.05l-0.83 -0.35c-15.09,-3.55 -3.61,0.03 -8.74,-6.04l-0.86 -0.38c-15.01,-3.57 -3.65,-0.05 -8.76,-6.02l-0.86 -0.38c-14.95,-3.57 -3.62,-0.05 -8.71,-6.04l-0.88 -0.35c-14.98,-3.58 -3.63,-0.05 -8.74,-6.04l-0.88 -0.84 -213.56 -140.98c-5.84,-4.74 -2.44,-2.32 -5.62,-5.49l-1.78 -0.38c-14.99,-3.58 -3.63,-0.05 -8.74,-6.02l-0.86 -0.38c-15.01,-3.57 -3.65,-0.05 -8.76,-6.04l-0.86 -0.35c-14.98,-3.6 -3.62,-0.08 -8.73,-6.05l-0.86 -0.37c-15.11,-3.55 -3.63,0 -8.76,-6.02l-0.86 -0.38c-15.26,-3.55 -3.55,0.1 -8.79,-6.04l-0.8 -0.36c-15.26,-3.55 -3.58,0.08 -8.79,-6.04l-0.83 -0.38c-15.26,-3.52 -3.55,0.1 -8.79,-6.02l-0.81 -0.37c-15.28,-3.55 -3.57,0.07 -8.81,-6.05l-0.81 -0.83c-13.9,-4.33 -2.79,0.03 -7.9,-5.56l-1.71 -0.83c-13.9,-4.33 -2.82,-0.03 -7.91,-5.57l-1.69 -0.83c-14.07,-4.33 -2.72,0.13 -7.91,-5.59l-1.71 -0.83c-14.07,-4.33 -2.69,0.15 -7.9,-5.57l-1.69 -0.83c-14.08,-4.33 -2.72,0.13 -7.91,-5.56l-1.71 -0.86c-15.13,-4.35 -2.27,0.71 -8.11,-5.56l-1.48 -0.56c-13.88,-4.25 -3.38,-0.25 -8.14,-5.84l-1.48 -0.55c-13.78,-4.23 -3.43,-0.33 -8.11,-5.87l-1.49 -0.55c-13.77,-4.23 -3.45,-0.33 -8.13,-5.85l-1.49 -0.55c-13.95,-4.26 -3.35,-0.2 -8.13,-5.84l-1.46 -0.56c-13.85,-4.23 -3.43,-0.27 -8.16,-5.86l-1.46 -0.53c-14.05,-4.23 -3.42,-0.28 -8.23,-5.87l-1.36 -0.53c-13.9,-4.23 -3.43,-0.22 -8.16,-5.86l-1.46 -0.48c-13.73,-4.23 -3.55,-0.36 -8.14,-5.95l-1.46 -0.45c-14.15,-4.2 -3.52,-0.23 -8.28,-5.94l-1.34 -0.51c-13.97,-4.25 -3.4,-0.2 -8.15,-5.89l-1.44 -0.5c-13.98,-4.26 -3.4,-0.23 -8.16,-5.92l-1.46 -0.5c-14.1,-4.23 -3.32,-0.1 -8.16,-5.89l-1.43 -0.51c-14,-4.23 -3.43,-0.15 -8.16,-5.89l-1.46 -0.5c-14,-4.23 -3.4,-0.16 -8.16,-5.92l-1.44 -0.48c-14.07,-4.23 -3.4,-0.13 -8.18,-5.92l-1.44 -0.48c-14.07,-4.23 -3.39,-0.12 -8.18,-5.91l-1.41 -0.48c-14.08,-4.26 -3.4,-0.15 -8.18,-5.94l-1.44 -0.46c-14.1,-4.23 -3.4,-0.1 -8.18,-5.94l-1.44 -0.45c-14.07,-4.23 -3.4,-0.1 -8.16,-5.95l-1.43 -0.48c-14.25,-4.23 -3.33,0 -8.19,-5.94l-1.43 -0.45c-14.15,-4.23 -3.37,-0.05 -8.18,-5.94l-1.41 -0.46c-14.16,-4.23 -3.4,-0.07 -8.19,-5.94l-1.43 -0.45c-14.89,-4.23 -3.35,0.05 -8.49,-5.97l-1.11 -0.28c-14.73,-4.18 -3.62,-0.05 -8.51,-6.12l-1.11 -0.3c-14.7,-4.18 -3.62,-0.02 -8.51,-6.12l-1.08 -0.27c-14.73,-4.19 -3.63,-0.03 -8.51,-6.12l-1.11 -0.28c-14.71,-4.18 -3.63,-0.05 -8.51,-6.12l-1.08 -0.28c-14.73,-4.15 -3.65,-0.02 -8.51,-6.14l-1.11 -0.28c-14.73,-4.15 -3.65,0 -8.51,-6.12l-1.09 -0.27c-14.85,-4.16 -3.6,0.07 -8.53,-6.12l-1.09 -0.28c-14.78,-4.15 -3.65,0.03 -8.51,-6.14l-1.08 -0.26c-14.88,-4.15 -3.63,0.08 -8.54,-6.14l-1.08 -0.25c-14.78,-4.13 -3.65,0.02 -8.54,-6.15l-1.05 -0.25c-14.81,-4.15 -3.68,0.03 -8.54,-6.17l-1.08 -0.22c-14.78,-4.16 -3.65,0.02 -8.54,-6.17l-1.06 -0.25c-14.8,-4.16 -3.67,0.02 -8.53,-6.15l-1.08 -0.25c-14.91,-4.11 -3.66,0.13 -8.54,-6.17l-1.06 -0.23c-14.93,-4.13 -3.65,0.13 -8.56,-6.17l-1.06 -0.22c-14.91,-4.13 -3.65,0.1 -8.53,-6.17l-1.06 -0.23c-14.86,-4.13 -3.7,0.08 -8.56,-6.19l-1.06 -0.2c-14.91,-4.13 -3.68,0.12 -8.54,-6.2l-1.08 -0.18c-15.66,-4.38 -3.22,0.68 -8.54,-6.22l-1.05 -0.1c-15.49,-4.28 -3.5,0.61 -8.54,-6.32l-1.08 -0.17c-15.77,-4.38 -3.18,0.75 -8.54,-6.22l-1.06 -0.2c-15.76,-4.36 -3.2,0.78 -8.56,-6.2l-1.06 -0.05c-6.44,-2.87 0,1.41 -8.26,-4.35 -10.95,-7.69 2.02,1.78 -5.69,-5.22l-2.04 -0.83c-15.61,-4.33 -2.39,0.61 -8.41,-5.56l-1.21 0.2c-5.56,0 -4.48,1.56 -4.48,-3.43l-1.91 -0.42c-4.26,-1.67 -2.75,-0.23 -8.46,-3.81 -3.55,-2.21 -4.18,-3.45 -6.35,-5.36l-1.21 0.28c-5.69,0 -4.58,1.58 -4.58,-3.48l-1.84 -0.2 -21.17 -12.62 -1.24 0.28c-5.66,0 -4.56,1.61 -4.56,-3.47l-1.83 0.32 -51.25 0.13 -1.03 -0.45c0,6.04 1.26,4 -5.77,4zm751.08 2288.87l0 2.72c8.38,-4.96 4.2,-98.13 4.2,-118l-0.78 -363.41c-17.25,-5.54 -424.15,-2.31 -478.44,-2.31l-0.93 -475.67 -2.52 0 0 479.54 480.35 0c0,35.28 3.3,454.34 -1.88,477.13zm-960.41 480.35c2.09,1.14 2.62,2.19 7.91,3.2 1.16,0.23 6.25,0.48 6.27,0.51l473.7 -1.29 0 -479.32 472.53 -0.73 0 -2.72 -475.27 0 0 480.35 22.41 0 -507.55 0zm-5.54 -957.75l3.91 -0.31 -0.15 -481.25 483.72 2.29 2.52 0c-12.79,-8.46 -210.21,-3.43 -242.72,-3.43 -40.54,0 -81.11,0 -121.67,0 -26.57,0 -102.24,-3.14 -121.85,1.14 -4.33,7.22 -1.69,-8.44 -3.91,10.87l0.15 470.69zm1697.23 669.56c4.25,-2.9 4.15,-0.28 4.07,-19.11l0.03 -685.56c-1.96,-13.67 0.53,-4.48 -4.1,-9.46l0 714.13zm-111.48 -1325.78l-12.34 -10.32c-209.76,-135 -436.16,-290.21 -645.71,-430.12l-94.38 -61.62c1.86,2.12 -0.41,0.58 4.2,4.46l182.29 121.85c0.58,0.38 1.36,0.91 1.94,1.29l36.51 24.32c0.55,0.4 1.33,0.91 1.91,1.28l74.94 49.96c0.55,0.38 1.34,0.91 1.91,1.29 0.79,0.53 3.05,2.04 3.86,2.57 2.36,1.58 3.2,2.14 5.76,3.82 1.46,1.01 3.3,2.22 5.75,3.86l13.47 8.96c0.78,0.53 3.04,2.04 3.82,2.57l23.07 15.36c0.58,0.38 1.36,0.91 1.91,1.28 0.58,0.38 1.36,0.91 1.94,1.29l109.51 73.02c0.56,0.38 1.34,0.88 1.92,1.26 0.58,0.38 1.36,0.91 1.94,1.29l26.89 17.93c0.55,0.37 1.34,0.9 1.91,1.28l84.56 56.35c0.56,0.38 1.34,0.91 1.92,1.29l48.04 32.03c0.55,0.38 1.34,0.88 1.91,1.26l46.14 30.74c0.55,0.38 1.33,0.91 1.91,1.29l62.5 40.16zm-2789.07 1309.76l0 -387.48c-8.56,13.24 -2.84,318.46 -3.3,365.12 -0.02,2.65 -0.35,10.83 -0.1,12.9 1.24,10.37 0.38,4.78 3.4,9.46zm1210.43 -167.9c-4.23,-7.96 4.33,-3 -9.47,-5.24l-471.16 0.23c17.37,10.37 435.93,-4.31 480.63,5.01zm-3.2 -485.95l-3.91 0.31c-110.62,4.55 -291.39,0.3 -415.58,0.3 -12.24,0 -47.82,-2.87 -57.94,3.17l470.8 -0.25c7.84,-1.84 2.02,0.58 6.63,-3.53zm-172.92 -1561.92c11.89,-5.31 25.56,-15.74 37.19,-23.49l266.62 -178.51c-1.03,0.45 -2.57,-0.1 -3.12,1.31l-59.81 38.27c-2.79,1.87 -2.89,1.92 -5.77,3.86l-94.17 62.75c-0.58,0.38 -1.36,0.88 -1.92,1.26l-94.17 62.75c-0.58,0.38 -1.36,0.9 -1.92,1.28l-42.93 30.52zm-592.43 922.33l151.96 -94.43c7.94,-5.19 15.89,-9.67 25.61,-16.01 18.64,-12.19 12.8,-4.11 26.75,-17.96 -8.14,3.53 -2.04,0.3 -8.59,3.83l-126.33 78.84c-0.58,0.35 -1.36,0.88 -1.94,1.26l-23.65 14.76c-0.58,0.37 -1.33,0.9 -1.91,1.25 -0.58,0.38 -1.36,0.91 -1.94,1.29l-38.53 25.46c-0.32,0.3 -0.95,1.15 -1.43,1.71zm2454.91 1610.47c7.33,-4.36 4.71,-1.56 4.49,-28.81l0 -100.09c-7.08,19.39 -3.23,100.25 -4.49,128.9zm-549.52 -2213.66l-73.15 -50.58c-0.58,-0.41 -1.36,-0.91 -1.91,-1.31l-32.59 -21.81c-0.55,-0.38 -1.33,-0.91 -1.91,-1.28l-42.38 -28.13c-0.56,-0.38 -1.34,-0.88 -1.92,-1.29l-34.59 -23.04c-1.41,-0.93 -3.33,-2.21 -5.77,-3.82l-24.96 -15.21c3.18,3.17 -0.22,0.75 5.62,5.49l213.56 140.98zm-2132.78 227.64l234.19 -155.67c0.63,-0.48 1.43,-0.96 2.04,-1.43 0.65,-0.51 1.46,-1.21 2.04,-1.69 0.63,-0.53 1.51,-1.49 2.01,-1.91 0.5,-0.46 1.34,-1.36 2.02,-2.04l-159.7 105.33c-3.02,2.01 -4.31,2.87 -7.68,5.13 -0.58,0.38 -1.36,0.91 -1.92,1.29l-19.18 12.82c-0.58,0.37 -1.36,0.9 -1.92,1.28l-51.9 36.89zm1571.27 -310.05c-2.72,-2.75 -2.09,-2.52 -6.14,-5.59l-188.11 -125.03c7.61,8.77 24.3,18.18 34.7,25.13l55.58 37.27c0.58,0.38 1.36,0.88 1.91,1.26 0.58,0.4 1.36,0.91 1.94,1.29 2.54,1.71 3.37,2.26 5.77,3.85l84.25 56.5c0.68,0.43 1.46,0.91 2.17,1.31l7.93 4.01zm-1795.43 460.56c3.35,-1.39 130.59,-83.05 146.2,-98.71 -0.93,0.48 -2.31,0.05 -2.79,1.36l-64.67 42.5c-0.55,0.38 -1.36,0.91 -1.91,1.29 -0.58,0.37 -1.36,0.9 -1.91,1.28l-40.22 27c-3.25,2.16 -4.05,2.71 -7.68,5.13 -0.58,0.38 -1.36,0.91 -1.91,1.29l-25.11 18.86zm2760.44 -107.98c-5.74,-6.77 -1.66,-3.2 -10.2,-9.01 -0.55,-0.38 -1.38,-0.86 -1.94,-1.24l-19.24 -12.79c-0.58,-0.38 -1.36,-0.91 -1.94,-1.28l-7.65 -5.14c-0.55,-0.38 -1.34,-0.91 -1.89,-1.29 -3.17,-2.16 -4.73,-3.24 -7.63,-5.16l-54.14 -34.87c10.25,10.57 99.42,68.41 104.63,70.78zm-1734.64 -285.35l21.53 -13.04c6.97,-4.71 12.04,-8.04 21.13,-14.1 14.45,-9.65 25.23,-16.88 40.31,-26.92l40.24 -27c11.71,-7.83 30.52,-18.05 39.08,-28.15l-162.29 109.21zm-292.45 441.9c17.8,-7.15 41.65,-25.78 55.57,-33.57 3.58,-1.98 9.09,-4.73 10.35,-5.51l10.53 -8.91 -34.6 19.86c-0.58,0.36 -1.36,0.91 -1.94,1.26 -0.58,0.38 -1.36,0.91 -1.94,1.29l-29.69 18.43c-6.67,4.53 -3.37,1.61 -8.28,7.15zm195.35 -121.57c8.69,-3.55 66.91,-38.43 76.45,-48.12l-13.04 6.47c-0.61,0.38 -1.34,0.88 -1.92,1.26l-7.78 4.93c-0.6,0.35 -1.41,0.86 -1.99,1.21l-51.72 34.25zm557.21 -877.21c-1.54,-2.01 -1.97,-3.04 -3.1,-3.52l-39.49 0c-7.93,0.63 -5.84,1.21 -8.66,3.65l51.25 -0.13zm-6.4 564.91c-2.09,-3.75 2.87,-5.18 -19.24,-5.18 -17.17,0 -14.65,0 -19.21,5.16l38.45 0.02zm-1513.02 651.66c-0.68,-0.63 -1.54,-1.48 -2.02,-1.94 -0.45,-0.4 -1.36,-1.36 -1.94,-1.86 -11.48,-10.28 8.94,7.23 -3.75,-3.25 -25.03,-20.7 -32.28,-32.53 -38.83,-36.84 8.31,13.62 20.63,26.31 33.02,36.19l3.57 2.79c5.11,3.37 5.24,2.87 9.95,4.91zm2995.7 -239.87l-12.04 -10.08c-0.6,-0.35 -1.41,-0.83 -2.01,-1.18l-40.37 -24.27c10.1,11.2 41.78,29.61 54.42,35.53zm-2933.63 239.87c7.5,-1.96 8.11,-2.39 14.43,-5.59l10.17 -5.72c12.26,-7.22 23.02,-12.38 30.12,-20.64 -10.35,4.68 -17.63,10.82 -27.93,16.54 -9.57,5.29 -19.77,9.72 -26.79,15.41zm234.06 76.6c19.79,-8.89 46.25,-28.55 49.63,-31.78l-12.09 6.1c-0.6,0.37 -1.33,0.9 -1.91,1.26 -11.41,7.17 -27.8,15.41 -35.63,24.42zm-201.93 1675.09c-4.94,-12.47 -14.2,-32.44 -22.26,-42.41 2.67,10.33 5.44,14.68 9.87,23.55 5.21,10.45 5.46,12.61 12.39,18.86zm1361.84 -2396.55c-4.89,-2.54 -3.25,-3.4 -5.34,1.26 -8.77,-0.18 -2.42,-1.21 -5.24,4.41 -9.97,-2.62 -4.08,-2.37 -4.53,4.33 -5.87,-2.97 -4.23,-4.28 -5.87,1.43 -9.47,-1.51 -3.1,-1.66 -4.71,4.31 -4.68,-2.14 -3.8,-3.32 -3.8,1.56l3.8 -1.56 4.71 -4.31 5.87 -1.43 4.53 -4.33 5.24 -4.41 5.34 -1.26 6.21 -3.04 9.22 -5.37c-15.96,0 -6.72,-1.56 -9.22,5.37 -10.17,-3.93 -4.6,-3.56 -6.21,3.04zm-256.88 157.66l50.09 -31.58c-12.36,5.32 -42.83,23.17 -50.09,31.58zm1665.19 2280.51c7.23,-6.14 3.66,-2.01 9.98,-12.06 4.45,-7.13 5.71,-10.1 9.29,-19.01 -0.63,0.75 -1.46,1.69 -1.89,2.26l-4.76 6.55c-1.46,2.27 -2.95,5.24 -4.63,8.11 -2.92,4.91 -5.47,8.69 -7.99,14.15zm-1357.85 -2728.4c-8.06,-4.84 -16.45,-6.2 -24.83,0l24.83 0zm-1285.19 2811.68c-2.26,-2.17 -2.82,-3.03 -6.17,-5.54l-31.12 -19.52c2.47,2.87 2.09,2.95 5.87,6.07l31.42 18.99zm817.75 -2264.33c3.76,-1.66 8.57,-4.07 12.27,-6.29 0.53,-0.33 5.89,-3.73 6.09,-3.88 3.1,-2.37 3.9,-3.5 6.09,-5.59 -6.72,2.9 -2.46,0.58 -8.2,3.65l-4.29 2.5c-0.6,0.37 -1.38,0.85 -1.96,1.23 -8.81,5.61 -3.88,1.36 -10,8.38zm-1108.01 211.6c9.09,-5.69 1.01,3.63 9.92,-9.62 24.63,-36.64 54.6,-43.08 60.51,-57.61 -0.9,0.6 -2.21,0.37 -2.72,1.78l-67.71 65.45zm2161.58 -121.98c-7,-8 -14.27,-11.3 -24.3,-15.71 2.35,2.29 2.6,3.07 5.97,5.57 0.36,0.27 5.42,3.47 6.1,3.87 3.67,2.19 8.48,4.61 12.23,6.27zm-1684.42 304.32c3.9,-1.74 8.36,-4.01 12.23,-6.38 0.88,-0.52 5.39,-3.47 6.02,-3.92 7.28,-5.64 1.94,-1.69 5.97,-5.52 -10.32,4.48 -17.4,7.93 -24.22,15.82zm2472.21 189.03c-7,-8.03 -13.77,-11.36 -24.27,-15.89 2.11,2.01 2.99,3.25 6.01,5.51 0.81,0.58 4.96,3.28 6,3.93 4.03,2.47 8.13,4.61 12.26,6.45zm-1521.13 -781.72c3.68,-1.66 8.46,-4.15 12.04,-6.27 1.33,-0.8 5.03,-3.05 6.12,-3.88 7.63,-5.69 1.93,-1.58 6.04,-5.41 -6.2,2.67 -2.59,0.65 -8.06,3.58l-6.24 3.72c-8.59,5.49 -4.08,1.56 -9.9,8.26zm1383.42 695.12c-6.12,-7.05 -1.19,-2.74 -10,-8.41 -0.58,-0.38 -1.34,-0.86 -1.97,-1.23 -0.62,-0.38 -1.38,-0.86 -2.03,-1.24l-10.13 -4.88c2.17,2.09 2.85,3.2 5.89,5.49 0.79,0.6 5.02,3.32 6.02,3.93 3.7,2.26 8.44,4.65 12.22,6.34zm112.08 70.43c-7,-8.11 -14.53,-11.53 -24.13,-15.74 2.17,2.07 2.85,3.2 5.92,5.47 1.06,0.78 4.81,3.15 6.07,3.9 3.6,2.17 8.51,4.71 12.14,6.37zm-2670.77 -32.15c3.83,-1.72 8.44,-4.06 12.11,-6.3 1.03,-0.6 5.26,-3.3 6.05,-3.9 7.37,-5.64 1.88,-1.56 5.94,-5.42 -10.07,4.39 -17.4,7.91 -24.1,15.62zm2395.36 -140.82c-6.7,-7.75 -13.92,-11.23 -23.89,-15.71 2.16,2.14 2.66,3.15 5.74,5.47 1.08,0.8 4.76,3.09 6.04,3.87 3.53,2.17 8.51,4.71 12.11,6.37zm-2420.97 157.01c3.75,-1.69 8.56,-4.11 12.26,-6.35 0.66,-0.4 5.69,-3.62 6.05,-3.9 8.66,-6.72 0.63,-0.4 5.91,-5.54l-14.22 7.38c-8.82,5.66 -3.86,1.36 -10,8.41zm1226.51 -765.43c3.73,-1.66 8.59,-4.08 12.24,-6.27 0.51,-0.3 5.97,-3.75 6.12,-3.88 3.17,-2.39 3.88,-3.45 6.09,-5.59l-14.47 7.41c-8.82,5.59 -3.88,1.33 -9.98,8.33zm-1037.58 646.72c3.43,-1.63 8.54,-4.3 11.96,-6.39 1.59,-0.96 4.66,-2.82 6.05,-3.88 6.17,-4.71 2.57,-2.27 5.76,-5.29 -8.63,3.81 0.51,-0.95 -7.7,3.53 -0.61,0.33 -1.51,0.88 -2.17,1.26l-4.03 2.47c-8.51,5.46 -4.13,1.58 -9.87,8.3zm1415.45 -547.55c-6.67,-7.71 -13.95,-11.19 -24.12,-15.62 2.09,1.94 2.99,3.23 5.99,5.42 1.31,0.95 4.61,2.97 6.09,3.85 3.45,2.06 8.64,4.76 12.04,6.35zm-1047.18 316.97c3.73,-1.71 8.42,-4.13 12.02,-6.34 1.38,-0.83 4.88,-2.97 6.04,-3.88 7.13,-5.36 2.19,-1.84 5.99,-5.34 -10.07,4.36 -17.37,7.88 -24.05,15.56zm1838.16 176.22c-6.67,-7.73 -14.02,-11.26 -23.92,-15.64 2.09,1.97 2.92,3.2 5.84,5.39 1.36,1.01 4.49,2.95 6.05,3.88 3.42,2.06 8.63,4.76 12.03,6.37zm-1287.35 -518.85c3.43,-1.67 8.46,-4.31 11.96,-6.4 1.51,-0.91 4.79,-2.87 6.1,-3.83 7.55,-5.64 1.94,-1.61 6.02,-5.36 -10.1,4.36 -17.48,7.83 -24.08,15.59zm-1153.54 2309.34c-3.52,-8.41 -2.41,-5.29 -7.93,-13.45 -1.99,-2.92 -2.42,-4.05 -5.26,-7.83 -4.23,-5.56 -2.72,-3.1 -5.31,-5.94l12.59 21.38c3.17,3.85 2.99,3.32 5.91,5.84zm320.93 -1790.39c3.96,-1.76 8.36,-4.08 12.17,-6.37 0.85,-0.53 5.56,-3.45 6.09,-3.88 3.17,-2.42 3.78,-3.37 5.97,-5.49l-14.28 7.33c-8.74,5.59 -4,1.59 -9.95,8.41zm2094.35 -16.12c-6.77,-7.85 -13.82,-11.2 -23.89,-15.63 2.06,1.94 2.87,3.14 5.86,5.33 1.46,1.09 4.41,2.85 6.07,3.86 3.65,2.21 8.29,4.71 11.96,6.44zm-2430.59 227.29c3.4,-1.61 8.54,-4.31 11.96,-6.4 1.59,-0.96 4.64,-2.82 6.02,-3.88 6.02,-4.6 2.65,-2.31 5.74,-5.28 -9.39,4.18 -17.12,7.85 -23.72,15.56zm2046.31 -467.46c-5.84,-6.75 -1.31,-2.82 -9.92,-8.31 -0.58,-0.38 -1.34,-0.86 -1.97,-1.24l-12.24 -6.09c2.04,1.91 3.05,3.27 6,5.41 1.31,0.96 4.58,2.98 6.07,3.88 3.45,2.07 8.66,4.76 12.06,6.35zm-2190.52 221.34c-4.71,-11.76 -3.9,-5.47 -10.04,-15.06l-12.27 -15.96 15.87 25.08c3.19,3.57 3.5,3.42 6.44,5.94zm281.9 159.67c3.75,-1.81 8.16,-4.25 11.86,-6.5 1.79,-1.08 4.49,-2.66 6.05,-3.85 6.44,-4.86 2.46,-2.09 5.79,-5.24 -9.92,4.39 -17.05,7.76 -23.7,15.59zm454.75 -285.02c3.65,-1.66 8.48,-4.16 12.03,-6.3 1.34,-0.8 4.99,-3.04 6.07,-3.88 7.53,-5.69 1.84,-1.51 5.94,-5.38l-14.15 7.3c-8.59,5.49 -4.08,1.56 -9.89,8.26zm2139.17 333.14c-5.87,-6.8 -1.31,-2.79 -9.92,-8.33l-13.98 -7.33c5.89,5.61 -3.53,-1.59 5.82,5.39 1.38,1.03 4.45,2.94 6.02,3.88 3.45,2.09 8.66,4.81 12.06,6.39zm-352.26 -220.99c-5.64,-6.57 -1.36,-2.89 -9.87,-8.36 -0.58,-0.37 -1.36,-0.88 -1.96,-1.23l-12.07 -6.04c2.07,1.96 2.87,3.12 5.87,5.33 1.46,1.06 4.43,2.85 6.07,3.86 3.7,2.24 8.23,4.68 11.96,6.44zm-2206.43 150.71c4.03,-1.76 8.49,-4 12.34,-6.34 0.43,-0.26 5.89,-3.86 5.99,-3.93 8.84,-6.93 0.38,-0.15 5.9,-5.57l-10.18 4.91c-0.63,0.36 -1.41,0.86 -2.04,1.24l-12.01 9.69zm2592.38 -131.12l-30.5 -20.42c0.56,0.63 1.31,0.86 1.59,1.97 0.28,1.1 1.21,1.56 1.61,1.91 0.36,0.35 1.21,1.28 1.69,1.69l13.37 8.66c0.66,0.38 1.36,0.91 2.04,1.28 5.72,3.23 4.48,2.45 10.2,4.91zm-2489.89 67.34c3.95,-1.74 8.43,-4.08 12.24,-6.4 1.36,-0.83 4.98,-3.07 6.09,-3.93 3.15,-2.44 3.9,-3.57 6.22,-5.76 -6.77,2.94 -2.67,0.68 -8.34,3.75l-16.21 12.34zm849.02 -797.48l31.61 -21.58c-8.24,3.12 -25.06,13.57 -31.61,21.58zm186.37 -124.9c0.93,-0.48 2.31,-2.17 2.79,-1.38 0.48,0.73 2.04,-1.01 2.67,-1.36l31.93 -22.89 -31.37 19.89c-4.46,3.52 -2.87,2.32 -6.02,5.74zm421.68 431.98l-11.91 -9.54c-0.66,-0.38 -1.41,-0.86 -2.09,-1.24l-10.28 -4.88c2.14,2.04 2.92,3.22 6.02,5.49 1.03,0.75 4.86,3.12 6.12,3.87 3.55,2.12 8.51,4.66 12.14,6.3zm-1697.25 640.68c4.06,-1.79 8.44,-3.98 12.32,-6.35 0.5,-0.3 5.91,-3.82 6.06,-3.93 3.08,-2.39 3.86,-3.47 6.07,-5.59 -6.72,2.9 -2.47,0.56 -8.18,3.66l-16.27 12.21zm2369.73 -221.22l-11.84 -9.57c-0.62,-0.4 -1.38,-0.88 -2.06,-1.23 -0.68,-0.4 -1.46,-0.88 -2.17,-1.26 -7.15,-3.78 -0.6,-0.38 -7.83,-3.55 2.07,1.97 2.87,3.12 5.9,5.34 1.43,1.03 4.43,2.87 6.06,3.85 3.68,2.22 8.24,4.69 11.94,6.42zm-2244.25 1937.83l-29.41 -15.71c7.25,7.75 19.18,12.94 29.41,15.71zm1690.24 -2283.64l-11.88 -9.54c-0.63,-0.4 -1.39,-0.88 -2.07,-1.26l-10.19 -4.86c2.09,1.97 3.02,3.25 6.01,5.44 1.29,0.96 4.59,2.97 6.07,3.85 3.48,2.09 8.64,4.76 12.06,6.37zm768.58 480.41l-13.95 -10.86c-0.71,-0.4 -1.49,-0.88 -2.19,-1.26 -5.07,-2.67 -2.09,-1.03 -7.99,-3.6 2.04,1.92 3.08,3.28 6,5.42 1.18,0.88 4.63,3.07 6.01,3.93 3.63,2.21 8.42,4.68 12.12,6.37zm-1114.44 -695.02l-13.92 -10.73c-0.71,-0.4 -1.49,-0.91 -2.19,-1.28 -4.99,-2.6 -2.19,-1.06 -8.01,-3.61 2.09,1.97 3.02,3.25 5.99,5.44 1.31,0.96 4.61,2.97 6.1,3.86 3.42,2.04 8.68,4.76 12.03,6.32zm1130.02 2498.25c6.35,-1.76 2.14,-0.18 7.86,-2.54 7.88,-3.23 2.62,-1.09 8.79,-4.21 7.1,-3.6 7.85,-3.85 12.59,-8.86l-29.24 15.61zm-2523.03 -1764.96c3.68,-1.69 8.44,-4.15 12.02,-6.34 1.43,-0.89 4.75,-2.95 5.99,-3.91 5.92,-4.56 2.72,-2.42 5.79,-5.31 -5.31,2.34 -2.87,0.88 -7.73,3.55 -0.6,0.33 -1.49,0.86 -2.17,1.23l-13.9 10.78zm1082.41 -675.68c3.75,-1.69 8.51,-4.05 12.13,-6.22 0.73,-0.43 5.67,-3.52 6.12,-3.85 3.18,-2.42 3.75,-3.38 5.97,-5.49 -5.99,2.59 -2.82,0.8 -8.03,3.57l-16.19 11.99zm-832.64 518.95c3.96,-1.76 8.36,-4.07 12.17,-6.37 0.85,-0.52 5.56,-3.47 6.09,-3.87 3.17,-2.4 3.78,-3.38 5.97,-5.49 -5.94,2.59 -2.82,0.8 -8.01,3.57l-16.22 12.16zm672.51 -419.69c3.8,-1.68 8.46,-4.05 12.11,-6.22 0.86,-0.5 5.62,-3.45 6.15,-3.85 3.17,-2.42 3.75,-3.35 5.97,-5.49 -5.97,2.6 -2.85,0.83 -8.04,3.6l-16.19 11.96zm986.31 163.43l-16.16 -12.06c-5.27,-2.75 -1.89,-0.94 -8.09,-3.6 2.12,1.99 3,3.24 6.02,5.49 1.09,0.78 4.81,3.09 6.1,3.87 3.57,2.12 8.53,4.66 12.13,6.3zm906.72 227.71c2.57,-2.22 3.35,-2.14 6.14,-5.77 4.03,-5.28 3.38,-5.31 6.22,-11.78 -1.68,1.76 -2.72,2.32 -5.54,5.69 -0.6,0.75 -2.36,2.97 -2.89,3.73 -2.6,3.8 -2.34,4.25 -3.93,8.13zm-2283.71 -147.76c3.68,-1.69 8.41,-4.16 11.98,-6.35 1.42,-0.83 4.89,-2.97 6.07,-3.88 6.85,-5.18 2.32,-1.99 5.95,-5.33 -5.77,2.49 -2.75,0.78 -7.91,3.55l-16.09 12.01zm1232.91 -169.65l-16.14 -12.03c-5.01,-2.65 -2.14,-1.06 -7.99,-3.6 2.07,1.91 3.05,3.24 6,5.41 1.33,0.98 4.56,2.95 6.07,3.85 3.45,2.07 8.66,4.76 12.06,6.37zm-1037.58 47.97c3.45,-1.66 8.46,-4.3 11.96,-6.39 1.53,-0.91 4.78,-2.85 6.09,-3.83 7.38,-5.54 2.02,-1.71 5.97,-5.34 -5.72,2.47 -2.82,0.78 -7.93,3.55l-16.09 12.01zm-310.63 -338.91c6.39,-2.94 -0.23,1.16 8.08,-4.23 0.8,-0.5 3.3,-2.14 4.1,-2.77 4.71,-3.62 3.28,-2.64 6.5,-5.91 -9.54,4.75 -11.26,4.1 -18.68,12.91zm-566.12 2331.23c-0.53,-1.94 -2.17,-9.02 -2.75,-10.63 -1.66,-4.58 -3.45,-6.97 -4.35,-8.53 0,15.94 -1.36,5.69 4.93,11.08 -4.28,14.63 -0.98,4.03 2.17,8.08zm-7.78 -41.65l-5.72 -18.38c0,1.11 -0.28,8.79 -0.23,8.96 2.7,10.28 -1.73,3.75 5.95,9.42zm-133.82 -1779.91l12.7 -23.02c-6.9,6.27 -9.32,9.87 -12.7,23.02zm3018.77 143.5l-14.96 -5.64c3.88,8.18 -1.33,5.64 14.96,5.64zm-0.6 1610.8c8,-4.41 2.39,1.99 4.53,-6.62 0.65,-2.7 0.33,-9.34 0.33,-12.42l-4.86 19.04zm-2889.26 3.2c-0.38,-4.68 -0.41,-5.09 -1.51,-9.67 -0.21,-0.76 -0.99,-1.21 -1.16,-2.8 -0.15,-1.56 -0.91,-1.76 -1.34,-2.64 0,13.09 -2.62,10.7 4.01,15.11zm135.82 246.6l-53.31 -51.2c-9.51,-8.89 -6.39,-10.82 -16.06,-18.2l61.97 64.96c0.7,0.48 1.59,1.04 2.27,1.46l5.13 2.98zm1272.9 -3060.04l-3.7 1.56 3.7 -1.56 5.51 -3.83c7.03,0 5.77,2.04 5.77,-4 -6.65,0 -5.19,-1.87 -5.77,4 -9.72,-1.64 -3.75,-1.81 -5.51,3.83zm91.05 293.18c-2.31,-2.24 -2.44,-3.22 -5.94,-5.57 -7.68,-5.13 -2.69,-1.71 -8.74,-4.1 7.98,8.91 0.88,3.65 14.68,9.67zm1501.42 810.2c2.87,0 4.33,-0.43 5.01,-1.41l0 -11.56 -5.01 12.97zm-123.09 334.88l-10.85 -13.55c-4.18,-3.25 -1.23,-0.93 -6.82,-4.31 0.5,0.76 1.28,0.99 1.56,2.22 0.27,1.21 1.21,1.69 1.58,2.12l14.53 13.52zm-1389.81 -873.33c-4.81,-5.31 -7.3,-7.88 -18.81,-9.14l18.81 9.14zm-1468.35 2334.98l-7.93 -18.51c1,8.36 -1.34,2.6 2.06,10.55 3.07,7.18 1.51,3.63 5.87,7.96zm2092.81 -1947.02c-7.65,-8.73 -0.93,-3.72 -14.3,-9.61 2.06,1.96 2.77,3.29 5.79,5.36 7.61,5.21 2.7,1.79 8.51,4.25zm-473.95 -294.64c-7.63,-8.71 -0.96,-3.72 -14.28,-9.59 2.06,1.96 2.74,3.3 5.79,5.36 7.45,5.09 2.85,1.84 8.49,4.23zm304.21 188.94c-7.61,-8.69 -0.93,-3.73 -14.28,-9.6 2.04,1.94 2.8,3.33 5.82,5.36 7.48,5.12 2.79,1.84 8.46,4.24zm803.8 502.76c-7.51,-8.61 -0.83,-3.78 -14.25,-9.6 6.47,5.87 -4.46,-1.76 5.86,5.32 7.81,5.34 2.47,1.71 8.39,4.28zm-947.89 -592.43c-7.63,-8.69 -0.95,-3.73 -14.3,-9.6 2.06,1.94 2.82,3.33 5.82,5.39 7.48,5.11 2.79,1.81 8.48,4.21zm595.63 371.49c-7.6,-8.71 -0.93,-3.73 -14.27,-9.62 2.03,1.94 2.82,3.33 5.79,5.36 7.5,5.14 2.79,1.84 8.48,4.26zm-256.19 -160.15c-7.58,-8.69 -0.98,-3.73 -14.28,-9.59 2.04,1.93 2.82,3.32 5.82,5.38 7.35,5.02 2.9,1.87 8.46,4.21zm470.76 294.57c-7.48,-8.51 -0.93,-3.78 -14.25,-9.55 6.29,5.74 -4.33,-1.66 5.86,5.29 7.73,5.29 2.52,1.74 8.39,4.26zm-368.27 -230.56c-7.48,-8.54 -0.96,-3.8 -14.25,-9.54 6.42,5.81 -4.41,-1.74 5.86,5.28 7.61,5.19 2.65,1.79 8.39,4.26zm76.85 48.07c-7.53,-8.61 -0.86,-3.78 -14.25,-9.59 7.58,6.92 -5.32,-2.35 5.84,5.31 7.78,5.31 2.52,1.74 8.41,4.28zm541.19 339.44c-7.45,-8.59 -0.93,-3.83 -14.23,-9.57 6.55,5.94 -4.51,-1.81 5.87,5.29 7.5,5.14 2.72,1.81 8.36,4.28zm-592.43 -371.5c-7.48,-8.53 -0.93,-3.77 -14.26,-9.54 7.03,6.37 -4.93,-2.06 5.87,5.29 7.73,5.26 2.55,1.74 8.39,4.25zm25.61 16.02c-7.48,-8.54 -0.94,-3.8 -14.26,-9.54 7.05,6.37 -4.91,-2.07 5.9,5.28 7.7,5.27 2.54,1.74 8.36,4.26zm-76.86 -48.07c-7.45,-8.51 -0.98,-3.8 -14.22,-9.52 6.67,6.04 -4.66,-1.86 5.86,5.29 7.53,5.11 2.72,1.81 8.36,4.23zm-51.24 -32.01c-7.45,-8.53 -0.98,-3.8 -14.25,-9.54 7.33,6.65 -5.14,-2.22 5.89,5.29 7.55,5.16 2.7,1.81 8.36,4.25zm-640.45 -964.27c-7.45,-8.21 -2.07,-3.88 -14.81,-9.17 2.17,1.91 2.8,3.15 6.35,5.36 5.71,3.58 4.2,2.14 8.46,3.81zm1329.45 1169.3l-19.69 -10.25c4.76,4.93 -3.5,0.18 6.95,5.87 5.57,3.04 6.62,2.84 12.74,4.38zm-484.03 -76.85c-7.53,-8.67 -0.85,-3.78 -14.27,-9.62 1.86,1.71 3.17,3.47 5.86,5.31 7.78,5.34 2.5,1.71 8.41,4.31zm-25.63 -16.04c-7.5,-8.62 -0.86,-3.78 -14.28,-9.6 1.89,1.71 3.2,3.48 5.89,5.31 7.73,5.32 2.52,1.74 8.39,4.29zm-153.71 -96.12c-7.4,-8.49 -0.95,-3.83 -14.22,-9.54 6.02,5.31 -4.08,-1.57 5.92,5.23 7.73,5.27 2.49,1.72 8.3,4.31zm-618.06 -384.29c-7.48,-8.53 -0.96,-3.77 -14.28,-9.54 1.89,1.71 3.17,3.45 5.89,5.31 7.68,5.22 2.6,1.74 8.39,4.23zm160.12 99.29c-7.5,-8.56 -0.95,-3.78 -14.27,-9.54 1.89,1.71 3.17,3.45 5.89,5.29 7.68,5.23 2.59,1.76 8.38,4.25zm236.98 147.31c-7.5,-8.54 -0.95,-3.78 -14.25,-9.54 1.86,1.71 3.15,3.45 5.87,5.28 7.68,5.24 2.57,1.74 8.38,4.26zm752.56 470.71c-7.35,-8.46 -1.01,-3.86 -14.2,-9.52 4.96,4.41 -3.07,-0.91 5.89,5.21 7.58,5.16 2.67,1.79 8.31,4.31zm-2731.63 -118.6l-12.79 0.32c3,3.48 -5.06,3.75 6.4,2.62 7.3,-0.73 2.44,0.25 6.39,-2.94zm2004.68 -336.15c-7.35,-8.43 -1.06,-3.85 -14.23,-9.49 6.43,5.64 -4.45,-1.84 5.92,5.21 7.56,5.12 2.7,1.79 8.31,4.28zm-489.94 -304.23c-7.38,-8.44 -1.06,-3.83 -14.26,-9.49 6.42,5.66 -4.45,-1.84 5.95,5.21 7.55,5.13 2.67,1.79 8.31,4.28zm320.22 198.55c-7.35,-8.44 -1.06,-3.85 -14.25,-9.49 6.42,5.64 -4.43,-1.84 5.94,5.21 7.51,5.09 2.75,1.81 8.31,4.28zm-160.12 -99.29c-7.36,-8.41 -1.06,-3.83 -14.23,-9.49 6.57,5.82 -4.61,-1.92 5.94,5.24 7.53,5.08 2.7,1.78 8.29,4.25zm919.08 573.25c-7.28,-8.39 -1.01,-3.81 -13.95,-9.5 3.52,3.2 -1.49,0.2 5.71,5.16 7.61,5.29 2.57,1.79 8.24,4.34zm-563.6 -352.31c-7.28,-8.31 -1.09,-3.8 -14.01,-9.47 3.61,3.28 -1.53,0.18 5.75,5.19 7.58,5.21 2.64,1.81 8.26,4.28zm-2014.3 559.12c2.04,-2.47 1.36,-0.48 5.16,-6.3 4.48,-6.85 1.99,-3.22 4.25,-8.26 -8.36,7.25 -4.02,1.21 -9.41,14.56zm1549.93 -1414.04c-7.35,-8.46 -0.8,-3.78 -13.95,-9.57 7.71,7 -5.26,-2.47 5.69,5.22 8.26,5.76 1.82,1.48 8.26,4.35zm-259.39 592.33c5.34,-2.24 1.72,0.23 6.4,-2.82 11.66,-7.5 -5.49,4.53 4.05,-2.89 0.58,-0.46 1.49,-1.41 1.97,-1.82 0.5,-0.42 1.31,-1.31 1.99,-1.94 -13.15,5.65 -6.9,0.96 -14.41,9.47zm1581.07 2232.19c3.02,-3.5 2.92,-1.53 5.18,-7.9 2.95,-8.34 1.14,-2.42 2.12,-11.56l-7.3 19.46zm5.76 -22.41c7.68,0 4.76,-2.97 4.76,-12.16l-4.76 12.16zm-1125.69 -2110.61c-7.17,-8.24 -1.43,-3.91 -14.17,-9.35 6.57,5.74 -4.66,-1.94 5.96,5.17 6.55,4.38 3.45,2.06 8.21,4.18zm-160.1 -99.29c-7.2,-8.24 -1.46,-3.88 -14.22,-9.35 7.22,6.33 -5.19,-2.26 5.99,5.19 6.52,4.36 3.47,2.07 8.23,4.16zm1125.49 2453.28c12.87,-5.34 7.28,-1.09 14.53,-9.27 -4.68,2.01 -1.86,-0.08 -8.28,4.05 -2.77,1.79 -4.46,3.7 -6.25,5.22zm-872.52 -2296.38c-7.1,-8.16 -1.46,-3.85 -13.92,-9.32 4.55,4.11 -2.75,-0.65 5.76,5.14 6.47,4.38 3.48,2.09 8.16,4.18zm-320.23 -198.58c-7.07,-8.11 -1.48,-3.85 -13.92,-9.29 3.8,3.43 -1.89,-0.07 5.77,5.11 6.52,4.43 3.42,2.09 8.15,4.18zm1357.81 863.61c-5.44,-13.5 -0.93,-7.35 -9.52,-14.66 3.55,7.73 -1.48,-0.75 3,6.25l4.66 6.27c0.4,0.53 1.26,1.41 1.86,2.14zm-1197.68 -764.34c-7.08,-8.09 -1.54,-3.88 -13.92,-9.3 3.92,3.53 -2.04,-0.15 5.76,5.14 6.42,4.33 3.5,2.09 8.16,4.16zm-842.23 221.11c5.27,-2.22 1.72,0.23 6.35,-2.82l5.87 -4.71c0.45,-0.4 1.23,-1.28 1.88,-1.91 -12.81,5.64 -6.72,1.03 -14.1,9.44zm569.32 -630.68c6.65,-1.97 1.48,1 8.08,-2.77 4.84,-2.77 2.09,-1.41 5.44,-4.43 -10.3,2.84 -6.62,0.78 -13.52,7.2zm-1409.48 2571.48l-5.26 -12.29c0,17.27 -1.39,8.91 5.26,12.29zm1326.91 -2808.33l10.68 -5.8c0.68,-0.5 1.58,-1.46 2.14,-1.91 0.58,-0.48 1.43,-1.38 2.19,-2.04 -14.63,6.12 -7.05,0.66 -15.01,9.75zm-291.39 745.86c5.23,-2.25 1.71,0.2 6.34,-2.85l7.76 -6.6c-12.84,5.64 -6.72,1.01 -14.1,9.45zm1764.58 2225.79c1.91,-1.61 2.01,-0.63 4.93,-4.61 3.58,-4.81 0.43,-0.4 4.59,-7.65 -5.29,3.87 -2.15,0.4 -6.43,5.51 -1.93,2.32 -2.14,4.33 -3.09,6.75zm-2011.18 -2072.17c3.73,-1.66 8.61,-4.13 12.26,-6.29 0.53,-0.33 5.92,-3.75 6.12,-3.9 3.1,-2.35 3.88,-3.48 6.07,-5.57l-24.45 15.76zm704.51 -935.04c-6.92,-7.43 -8.46,-7.38 -21.17,-12.62l21.17 12.62zm1331.19 1172.25c-0.75,-0.63 -1.63,-1.51 -2.21,-1.94 -0.56,-0.4 -1.51,-1.33 -2.17,-1.81l-10.62 -5.29c7.37,8.06 2.34,3.98 15,9.04zm-274.39 50.99l-24.15 -15.76c2.16,2.09 2.84,3.19 5.94,5.49 1.03,0.78 4.78,3.12 6.04,3.87 3.63,2.19 8.52,4.71 12.17,6.4zm-935.1 -582.91l-24.27 -15.67c2.14,2.02 2.94,3.23 6.04,5.49 1.01,0.76 4.86,3.13 6.09,3.88 3.58,2.12 8.52,4.63 12.14,6.3zm252.99 156.92l-24.27 -15.68c2.14,2.04 2.95,3.22 6.02,5.49 1.01,0.75 4.88,3.14 6.12,3.87 3.6,2.17 8.46,4.66 12.13,6.32zm1050.38 389.4l-11.99 4.81c16.44,0 8.64,1.21 11.99,-4.81zm-1537.15 -1183.7l10.4 -5.49c0.61,-0.46 1.56,-1.39 2.07,-1.77 0.53,-0.42 1.38,-1.28 2.09,-1.91 -12.44,5.16 -7.38,1.06 -14.56,9.17zm-1393.01 1475.62l4.06 -11.7c-6.7,0 -4.06,3.09 -4.06,11.7zm1207.28 -796.47l10.25 -5.74c0.58,-0.45 1.46,-1.41 1.91,-1.79 0.48,-0.4 1.28,-1.28 1.94,-1.89 -12.84,5.59 -6.8,1.11 -14.1,9.42zm-1335.37 378.55l4.58 -10.08c-2.59,0 -3.95,0.08 -4.58,0.58l0 9.5zm2776.42 216.93l-23.87 -15.66c2.07,1.96 2.87,3.15 5.87,5.34 1.46,1.05 4.43,2.87 6.07,3.85 3.7,2.27 8.21,4.71 11.93,6.47zm-589.21 -912.68c-5.89,-8.16 -0.93,-2.52 -8.81,-6.05 5.24,6.12 -6.47,2.5 8.81,6.05zm365.05 243.37c-5.87,-8.16 -0.9,-2.52 -8.79,-6.04 5.22,6.12 -6.47,2.52 8.79,6.04zm-355.45 -236.98c-5.84,-8.11 -0.96,-2.51 -8.79,-6.02 5.24,6.12 -6.47,2.5 8.79,6.02zm19.21 12.82c-5.84,-8.11 -0.96,-2.52 -8.79,-6.04 5.24,6.14 -6.47,2.49 8.79,6.04zm-9.59 -6.4c-5.87,-8.1 -0.96,-2.54 -8.79,-6.04 5.21,6.12 -6.47,2.49 8.79,6.04zm-857.41 25.99c7.83,-3.52 2.92,2.07 8.76,-6.04 -15.24,3.55 -3.55,-0.1 -8.76,6.04zm1174.43 185.36c-5.84,-8.11 -0.95,-2.52 -8.78,-6.05 5.21,6.15 -6.47,2.52 8.78,6.05zm9.6 6.39c-5.84,-8.1 -0.96,-2.51 -8.76,-6.01 5.21,6.11 -6.48,2.49 8.76,6.01zm9.62 6.43c-5.84,-8.11 -0.96,-2.55 -8.79,-6.05 5.21,6.12 -6.47,2.49 8.79,6.05zm483.55 860.02c0,-13.62 1.28,-4.25 -4.91,-8.63 3.85,-11.43 1.31,-1.26 -2.47,-5.62l7.38 14.25zm-105.69 -607.03c-5.79,-8.06 -0.98,-2.55 -8.76,-6.05 5.21,6.15 -6.47,2.5 8.76,6.05zm-694.89 -464.36c-5.82,-8.06 -1.01,-2.55 -8.76,-6.02 5.13,6.02 -6.35,2.47 8.76,6.02zm-1024.76 375.04l12.46 -7.65c0.48,-0.43 1.28,-1.31 1.96,-1.94 -13.52,5.81 -6.77,0.93 -14.42,9.59zm1312.96 -182.89c-5.77,-8.03 -1.01,-2.57 -8.74,-6.04 5.13,6.07 -6.35,2.49 8.74,6.04zm-268.99 -179.34c-5.79,-8.08 -1,-2.57 -8.76,-6.04 5.11,5.99 -6.25,2.47 8.76,6.04zm-9.62 -6.39c-5.76,-8.11 -0.98,-2.57 -8.73,-6.05 5.11,5.97 -6.25,2.45 8.73,6.05zm19.22 12.79c-5.77,-8.08 -0.99,-2.57 -8.74,-6.02 5.11,5.97 -6.25,2.44 8.74,6.02zm-915 0.38c7.75,-3.48 2.94,2.06 8.73,-6.05 -14.98,3.6 -3.65,0.08 -8.73,6.05zm1164.79 166.14c-5.79,-8.08 -1.01,-2.54 -8.76,-6.02 5.11,5.97 -6.25,2.45 8.76,6.02zm384.82 2479.01l15.46 -12.21c-2.65,1.46 -4.91,1.99 -7.91,4.18 -7.73,5.62 -3.37,2.29 -7.55,8.03zm-404.03 -2491.8c-5.74,-8.03 -1.03,-2.59 -8.74,-6.04 5.11,5.99 -6.24,2.46 8.74,6.04zm9.59 6.39c-5.74,-8.03 -1.03,-2.56 -8.71,-6.04 5.09,5.99 -6.24,2.47 8.71,6.04zm-1226.49 153.94l12.27 -7.53c0.45,-0.41 1.26,-1.31 1.91,-1.92 -12.92,5.64 -6.77,0.99 -14.18,9.45zm986.32 227c-6.5,-9.06 -0.31,-2.26 -8.64,-5.89 4.78,5.39 -5.74,2.09 8.64,5.89zm-537.99 -899.44c-4.71,-6.52 -2.04,-3.22 -8.54,-6.32 5.04,6.93 -6.95,2.04 8.54,6.32zm819.79 1075.56c-6.5,-9.04 -0.31,-2.27 -8.64,-5.87 4.78,5.39 -5.74,2.09 8.64,5.87zm-25.61 -16.02c-6.5,-9.04 -0.3,-2.26 -8.66,-5.86 4.78,5.38 -5.75,2.09 8.66,5.86zm377.89 236.98c-6.52,-9.04 -0.33,-2.27 -8.66,-5.87 4.78,5.39 -5.75,2.09 8.66,5.87zm-955.44 -860.91c-4.74,-5.77 5.86,-1.86 -8.49,-6.07 6.62,9.47 0.28,2.39 8.49,6.07zm947.1 2574.7c9.04,-4.18 1.01,4.51 8.34,-6.27 -14.18,4.58 -3.73,0.28 -8.34,6.27zm-795.46 -2216.58c-6.5,-9.01 -0.33,-2.26 -8.64,-5.86 4.76,5.33 -5.69,2.09 8.64,5.86zm400.3 249.8c-6.5,-9.04 -0.33,-2.27 -8.64,-5.87 4.76,5.34 -5.69,2.09 8.64,5.87zm-1437.86 -781.22c14.51,-4.18 3.63,-0.17 8.49,-6.04 -8.29,3.73 -1.84,-3.42 -8.49,6.04zm-771.77 515.58c14.51,-4.18 3.63,-0.17 8.49,-6.04 -8.29,3.73 -1.84,-3.4 -8.49,6.04zm358.65 -240.17c14.51,-4.18 3.65,-0.18 8.49,-6.05 -8.26,3.73 -1.81,-3.42 -8.49,6.05zm480.35 -320.2c14.48,-4.21 3.66,-0.18 8.47,-6.07 -8.06,3.65 -1.92,-3.25 -8.47,6.07zm20.28 278.95c6.77,-3.15 3.57,0.71 8.56,-6.24 -15.77,4.38 -3.2,-0.76 -8.56,6.24zm805.94 207.57c-6.53,-9.09 -0.23,-2.22 -8.64,-5.84 4.83,5.36 -5.77,2.04 8.64,5.84zm-233.78 -710.53c-4.96,-6.95 -1.79,-3.1 -8.54,-6.22 5.36,6.97 -7.23,1.84 8.54,6.22zm-9.6 -6.42c-4.96,-6.93 -1.79,-3.08 -8.56,-6.2 5.36,6.98 -7.2,1.84 8.56,6.2zm-1455.96 1105.01c7.23,-3.3 2.75,2.02 8.49,-6.12 -14.58,4.18 -3.68,0.13 -8.49,6.12zm796.27 -823.39c14.61,-4.18 3.58,-0.13 8.49,-6.02 -8.31,3.73 -1.79,-3.47 -8.49,6.02zm-9.59 6.4c14.58,-4.18 3.57,-0.13 8.48,-6.02 -8.31,3.72 -1.81,-3.45 -8.48,6.02zm-9.62 6.42c14.6,-4.21 3.58,-0.13 8.49,-6.02 -8.31,3.7 -1.79,-3.48 -8.49,6.02zm87.53 234.15c6.77,-3.14 3.57,0.79 8.53,-6.22 -14.8,4.16 -3.7,-0.02 -8.53,6.22zm-462.2 15.62c14.61,-4.18 3.58,-0.13 8.49,-6.02 -8.31,3.73 -1.81,-3.45 -8.49,6.02zm1092 -518.6c-4.96,-6.9 -1.81,-3.08 -8.54,-6.2 4.86,6.32 -6.37,2.07 8.54,6.2zm-1475.18 1066.58c7.31,-3.29 2.7,2.12 8.49,-6.09 -14.55,4.18 -3.68,0.15 -8.49,6.09zm892.34 -887.35c14.58,-4.18 3.68,-0.15 8.51,-6.09 -7.3,3.3 -2.69,-2.14 -8.51,6.09zm-566.8 377.87c14.56,-4.18 3.68,-0.13 8.49,-6.1 -7.28,3.3 -2.7,-2.11 -8.49,6.1zm2187.19 134.59c-4.96,-6.95 -1.76,-3.07 -8.53,-6.19 4.86,6.27 -6.3,2.06 8.53,6.19zm-1299.08 -435.3c6.77,-3.12 3.58,0.78 8.54,-6.2 -14.84,4.16 -3.68,-0.05 -8.54,6.2zm271.15 -250c-4.99,-6.95 -1.79,-3.07 -8.56,-6.19 4.86,6.27 -6.3,2.06 8.56,6.19zm-649.04 502.99c6.77,-3.12 3.57,0.76 8.56,-6.19 -14.86,4.13 -3.7,-0.05 -8.56,6.19zm46.99 -323.78c14.65,-4.18 3.62,-0.07 8.48,-6.06 -7.3,3.29 -2.67,-2.17 -8.48,6.06zm-9.62 6.43c14.65,-4.18 3.62,-0.08 8.51,-6.1 -7.33,3.33 -2.67,-2.14 -8.51,6.1zm-9.6 6.39c14.66,-4.18 3.63,-0.07 8.49,-6.07 -7.3,3.3 -2.67,-2.16 -8.49,6.07zm-528.39 352.26c14.65,-4.18 3.62,-0.08 8.51,-6.07 -7.33,3.3 -2.7,-2.17 -8.51,6.07zm1178.47 -525.1c-4.99,-6.95 -1.77,-3.05 -8.54,-6.17 4.88,6.3 -6.37,2.06 8.54,6.17zm-19.22 -12.79c-4.98,-6.98 -1.76,-3.05 -8.53,-6.17 4.88,6.27 -6.38,2.04 8.53,6.17zm9.62 6.39c-5.01,-6.97 -1.76,-3.04 -8.56,-6.17 4.91,6.3 -6.37,2.04 8.56,6.17zm-677.84 496.6c6.77,-3.13 3.55,0.8 8.53,-6.17 -14.91,4.13 -3.62,-0.13 -8.53,6.17zm397.07 -265.79c6.75,-3.12 3.63,0.71 8.57,-6.22 -15.69,4.38 -3.23,-0.7 -8.57,6.22zm-358.65 240.18c6.72,-3.12 3.6,0.7 8.54,-6.22 -15.66,4.38 -3.23,-0.71 -8.54,6.22zm-9.62 6.39c6.75,-3.12 3.63,0.71 8.56,-6.22 -15.68,4.39 -3.22,-0.7 -8.56,6.22zm1910.76 364.9c-4.94,-6.92 -1.82,-3.1 -8.54,-6.22 5.31,6.93 -7.13,1.84 8.54,6.22zm-1300.17 -867.84c-4.94,-6.92 -1.79,-3.09 -8.54,-6.22 5.32,6.9 -7.12,1.84 8.54,6.22zm197.44 422.89c-4.83,-5.91 6.05,-1.89 -8.48,-6.09 5.84,8.31 1.13,2.77 8.48,6.09zm535.9 598.3c-6.47,-9.06 -0.3,-2.26 -8.63,-5.86 5.69,6.34 -7.08,1.66 8.63,5.86zm-1450.64 -739.59c14.42,-4.18 3.65,-0.22 8.46,-6.02 -8.24,3.68 -1.84,-3.42 -8.46,6.02zm76.85 -51.19c14.43,-4.21 3.62,-0.15 8.41,-6.07 -7.91,3.6 -1.94,-3.12 -8.41,6.07zm-432.33 288.17c14.45,-4.18 3.65,-0.23 8.48,-6.02 -8.23,3.68 -1.84,-3.42 -8.48,6.02zm-383.18 547.99c8.58,-3.8 1.68,3.7 8.51,-5.97 -14.81,4.21 -3.43,0 -8.51,5.97zm335.16 -515.93c14.63,-4.18 3.6,-0.1 8.48,-6.07 -7.38,3.32 -2.62,-2.24 -8.48,6.07zm1036.42 -316.68c-4.76,-5.69 5.84,-1.84 -8.49,-6.02 6.68,9.47 0.23,2.32 8.49,6.02zm-687.37 627.46l12.12 -7.55c0.47,-0.38 1.28,-1.26 1.94,-1.87 -12.82,5.57 -6.8,1.11 -14.06,9.42zm150.51 -643.83c14.71,-4.2 3.55,-0.05 8.49,-6.07 -7.41,3.35 -2.6,-2.29 -8.49,6.07zm803.78 -96.16c-6.85,-9.72 0.12,-2.14 -8.49,-5.97 5.14,6.02 -6.4,1.74 8.49,5.97zm371.49 787.66c-6.52,-9.09 -0.28,-2.24 -8.64,-5.85 5.75,6.4 -7.2,1.67 8.64,5.85zm-1184.89 -685.1c14.68,-4.18 3.6,-0.08 8.51,-6.04 -7.38,3.32 -2.64,-2.25 -8.51,6.04zm685.3 374.46c-6.5,-9.09 -0.25,-2.21 -8.64,-5.84 5.77,6.4 -7.17,1.66 8.64,5.84zm-1495.5 166.7c14.43,-4.2 3.66,-0.27 8.49,-6.02 -8.31,3.71 -1.81,-3.5 -8.49,6.02zm377.9 -252.99c14.4,-4.18 3.65,-0.25 8.46,-6.02 -8.31,3.7 -1.79,-3.5 -8.46,6.02zm9.59 -6.42c14.43,-4.18 3.65,-0.25 8.49,-5.99 -8.31,3.7 -1.82,-3.5 -8.49,5.99zm297.81 -198.53c14.43,-4.2 3.66,-0.28 8.49,-6.02 -8.31,3.71 -1.79,-3.5 -8.49,6.02zm-9.59 6.4c14.4,-4.18 3.65,-0.25 8.46,-6 -8.31,3.71 -1.79,-3.5 -8.46,6zm38.43 -25.61c14.4,-4.21 3.65,-0.28 8.46,-6.02 -8.29,3.7 -1.79,-3.5 -8.46,6.02zm-19.22 12.79c14.41,-4.18 3.65,-0.25 8.46,-5.99 -8.31,3.7 -1.78,-3.5 -8.46,5.99zm9.62 -6.4c14.41,-4.18 3.63,-0.25 8.46,-5.99 -8.31,3.7 -1.78,-3.52 -8.46,5.99zm87.53 234.19c6.75,-3.12 3.58,0.75 8.54,-6.2 -14.81,4.16 -3.7,-0.02 -8.54,6.2zm1939.54 332.79c-4.96,-6.93 -1.76,-3.05 -8.51,-6.17 4.83,6.22 -6.27,2.04 8.51,6.17zm-2065.52 -541.37c14.53,-4.2 3.6,-0.2 8.49,-5.99 -8.36,3.73 -1.77,-3.55 -8.49,5.99zm513.47 -50.81c6.77,-3.12 3.55,0.8 8.53,-6.2 -14.73,4.16 -3.72,0.03 -8.53,6.2zm-782.45 230.15c14.5,-4.2 3.57,-0.2 8.46,-5.99 -8.34,3.7 -1.76,-3.55 -8.46,5.99zm-416.32 278.68c14.48,-4.21 3.68,-0.2 8.49,-6.07 -7.33,3.3 -2.65,-2.21 -8.49,6.07zm810.2 -541.21c14.48,-4.18 3.67,-0.21 8.48,-6.07 -7.32,3.3 -2.64,-2.22 -8.48,6.07zm-451.52 301.03c14.48,-4.2 3.68,-0.2 8.49,-6.06 -7.33,3.29 -2.67,-2.22 -8.49,6.06zm-9.62 6.4c14.48,-4.18 3.68,-0.2 8.49,-6.07 -7.33,3.3 -2.65,-2.21 -8.49,6.07zm1178.47 -499.46c-4.99,-7.03 -1.74,-3.05 -8.54,-6.17 4.89,6.19 -6.24,2.01 8.54,6.17zm-9.6 -6.42c-5.01,-7.01 -1.76,-3.05 -8.53,-6.15 4.86,6.17 -6.27,1.99 8.53,6.15zm28.81 19.21c-4.98,-7 -1.74,-3.05 -8.54,-6.15 4.89,6.17 -6.24,2.02 8.54,6.15zm-9.59 -6.4c-5.01,-7.02 -1.77,-3.04 -8.54,-6.17 4.86,6.2 -6.27,2.02 8.54,6.17zm-347.98 224.41c6.78,-3.12 3.53,0.86 8.51,-6.16 -14.78,4.15 -3.65,-0.03 -8.51,6.16zm-387.51 259.39c6.8,-3.12 3.55,0.86 8.54,-6.17 -14.78,4.16 -3.65,-0.02 -8.54,6.17zm1939.56 320c-5.01,-7.02 -1.73,-3.04 -8.53,-6.17 4.86,6.2 -6.25,2.02 8.53,6.17zm-1949.15 -313.6c6.77,-3.1 3.52,0.86 8.53,-6.14 -14.8,4.13 -3.67,-0.03 -8.53,6.14zm-9.62 6.42c6.8,-3.12 3.55,0.86 8.54,-6.17 -14.79,4.16 -3.66,-0.02 -8.54,6.17zm1715.4 143.86c-5.01,-7.03 -1.74,-3.05 -8.54,-6.17 4.86,6.19 -6.27,2.01 8.54,6.17zm-1112.37 -451.29c-4.73,-5.64 5.82,-1.82 -8.46,-6.02 7.38,10.55 -0.96,1.84 8.46,6.02zm-1169.73 685.3c8.03,-3.63 1.87,3.27 8.41,-6.02 -14.55,4.18 -3.52,0.07 -8.41,6.02zm584.85 -682.46c14.56,-4.18 3.61,-0.15 8.49,-6.04 -7.35,3.3 -2.64,-2.27 -8.49,6.04zm755.76 -179.24c-5.04,-7.02 -1.74,-3.02 -8.54,-6.14 4.91,6.22 -6.34,1.99 8.54,6.14zm-783.5 490.23c6.82,-3.13 3.5,0.93 8.53,-6.15 -14.78,4.16 -3.65,0 -8.53,6.15zm1712.17 649.54c-7.05,-9.87 0.46,-1.94 -8.51,-5.87 4.74,5.39 -5.66,2.04 8.51,5.87zm-919.08 -1133.37c-5.03,-7.08 -1.68,-3.02 -8.51,-6.14 4.86,6.17 -6.27,1.99 8.51,6.14zm-1503.98 957.78c9.65,-4.28 1.01,4.71 8.49,-5.99 -14.71,4.25 -3.43,0.07 -8.49,5.99zm-9.59 6.4c9.64,-4.26 1.01,4.71 8.48,-5.97 -14.73,4.23 -3.45,0.08 -8.48,5.97zm613.71 -701.74c14.38,-4.18 3.65,-0.28 8.48,-5.97 -9.46,4.2 -1.08,-4.58 -8.48,5.97zm9.62 -6.4c14.38,-4.18 3.65,-0.3 8.46,-5.99 -9.47,4.2 -1.06,-4.56 -8.46,5.99zm1020.4 122.1c-4.81,-5.69 5.92,-1.79 -8.46,-5.99 7.38,10.58 -1,1.79 8.46,5.99zm-1270.2 44.42c14.38,-4.18 3.65,-0.3 8.49,-5.99 -9.47,4.2 -1.08,-4.56 -8.49,5.99zm365.08 -243.32c14.63,-4.18 3.6,-0.1 8.48,-6.05 -7.35,3.3 -2.62,-2.24 -8.48,6.05zm1248.92 675.53c-6.98,-9.75 0.3,-1.97 -8.51,-5.87 4.63,5.34 -5.52,2.09 8.51,5.87zm-1949.11 83.8c7.28,-3.3 2.67,2.14 8.49,-6.07 -14.68,4.18 -3.58,0.05 -8.49,6.07zm19.22 -12.82c7.27,-3.3 2.67,2.14 8.48,-6.04 -14.68,4.18 -3.57,0.02 -8.48,6.04zm1465.55 -919.35c-5.06,-7.11 -1.68,-3 -8.53,-6.12 4.93,6.19 -6.32,1.96 8.53,6.12zm592.44 928.42c-7.08,-9.9 0.47,-1.92 -8.52,-5.87 4.79,5.46 -5.76,2.04 8.52,5.87zm-25.64 -16.02c-7.05,-9.89 0.5,-1.91 -8.51,-5.86 4.81,5.46 -5.74,2.03 8.51,5.86zm-1216.89 -275.3c14.55,-4.18 3.55,-0.18 8.48,-5.97 -8.43,3.75 -1.73,-3.6 -8.48,5.97zm-853.89 307.86c9.6,-4.23 1.03,4.68 8.49,-5.97 -14.71,4.26 -3.43,0.05 -8.49,5.97zm9.62 -6.39c9.57,-4.26 1.01,4.68 8.46,-5.97 -14.7,4.23 -3.42,0.05 -8.46,5.97zm575.28 -676.14c14.48,-4.18 3.58,-0.22 8.46,-5.97 -9.51,4.23 -1.03,-4.6 -8.46,5.97zm1049.22 115.73c-4.71,-5.59 5.74,-1.81 -8.46,-5.99 7.35,10.5 -0.91,1.81 8.46,5.99zm-526.13 -172.94c6.77,-3.1 3.5,0.91 8.51,-6.14 -14.66,4.18 -3.7,0.07 -8.51,6.14zm-416.32 278.6c6.8,-3.09 3.5,0.93 8.51,-6.14 -14.65,4.18 -3.7,0.07 -8.51,6.14zm1724.97 124.65c-5.01,-7.05 -1.71,-3.05 -8.51,-6.15 4.81,6.07 -6.14,1.97 8.51,6.15zm243.38 163.3c-5.02,-7.08 -1.69,-3.03 -8.52,-6.12 4.89,6.09 -6.22,1.96 8.52,6.12zm-2602.35 134.77c7.22,-3.25 2.69,2.11 8.46,-6.05 -14.53,4.18 -3.63,0.13 -8.46,6.05zm-163.4 108.88c6.9,-3.12 3.42,1.11 8.53,-6.1 -14.8,4.18 -3.6,0 -8.53,6.1zm787.81 -525.18c6.8,-3.12 3.47,0.94 8.51,-6.14 -14.73,4.18 -3.65,0.02 -8.51,6.14zm841.12 -477.43c-5.04,-7.07 -1.72,-3.02 -8.51,-6.14 4.86,6.12 -6.22,1.99 8.51,6.14zm-9.62 -6.42c-5.01,-7.05 -1.72,-3.02 -8.51,-6.12 4.86,6.12 -6.22,1.97 8.51,6.12zm130.16 378.17c-4.81,-5.64 5.84,-1.79 -8.46,-5.97 7.37,10.53 -0.99,1.79 8.46,5.97zm-1068.46 -115.71c14.31,-4.2 3.68,-0.35 8.47,-5.99 -9.42,4.18 -1.09,-4.56 -8.47,5.99zm-9.59 6.4c14.3,-4.18 3.65,-0.33 8.44,-5.97 -9.42,4.18 -1.06,-4.56 -8.44,5.97zm-9.62 6.39c14.3,-4.18 3.68,-0.32 8.46,-5.96 -9.41,4.18 -1.08,-4.56 -8.46,5.96zm-192.13 128.1c14.3,-4.18 3.68,-0.33 8.46,-5.97 -9.44,4.18 -1.08,-4.56 -8.46,5.97zm308.52 86.9c6.82,-3.1 3.47,1.01 8.51,-6.12 -14.63,4.18 -3.68,0.08 -8.51,6.12zm-787.79 525.2c6.83,-3.12 3.48,0.96 8.51,-6.12 -14.8,4.15 -3.57,-0.05 -8.51,6.12zm1667.33 -989.84c-5.06,-7.13 -1.66,-3 -8.51,-6.12 4.89,6.1 -6.19,1.94 8.51,6.12zm9.62 6.42c-5.06,-7.15 -1.66,-3.02 -8.51,-6.12 4.89,6.07 -6.22,1.94 8.51,6.12zm-19.21 -12.81c-5.06,-7.16 -1.66,-3 -8.51,-6.12 4.88,6.09 -6.22,1.93 8.51,6.12zm-9.62 -6.4c-5.06,-7.15 -1.66,-3.02 -8.51,-6.12 4.88,6.07 -6.2,1.94 8.51,6.12zm-879.54 490.25c6.84,-3.13 3.44,1 8.51,-6.12 -14.73,4.18 -3.63,0.02 -8.51,6.12zm9.59 -6.42c6.85,-3.1 3.47,1.03 8.54,-6.1 -14.74,4.16 -3.66,0.03 -8.54,6.1zm1744.21 99.01c-5.44,-7.68 -1.56,-2.97 -8.39,-6.15 4.79,6.17 -6.14,1.97 8.39,6.15zm-2330.15 291.69c9.5,-4.23 1.01,4.61 8.44,-5.94 -14.71,4.21 -3.4,0.03 -8.44,5.94zm19.22 -12.81c9.49,-4.23 1,4.6 8.43,-5.95 -14.7,4.23 -3.4,0.03 -8.43,5.95zm19.21 -12.82c9.49,-4.21 1.01,4.63 8.44,-5.94 -14.71,4.23 -3.38,0.02 -8.44,5.94zm789.8 -262.84l12.09 -7.5c0.45,-0.41 1.28,-1.26 1.94,-1.87 -12.67,5.49 -6.88,1.19 -14.03,9.37zm193.39 -393.63c6.82,-3.2 2.9,1.59 8.36,-6.12 -14.58,4.18 -3.53,-0.07 -8.36,6.12zm-1185.02 790.96c6.85,-3.1 3.45,1.03 8.52,-6.09 -14.66,4.18 -3.63,0.07 -8.52,6.09zm249.88 -166.52c9.44,-4.18 1.03,4.58 8.41,-5.94 -14.68,4.23 -3.35,0.02 -8.41,5.94zm-28.84 19.21c9.45,-4.18 1.04,4.61 8.44,-5.92 -14.68,4.21 -3.38,0 -8.44,5.92zm-163.07 108.88c7.66,-3.6 1.61,3.28 8.18,-6.06 -14.02,4.18 -3.6,0.1 -8.18,6.06zm57.64 -38.42c7.78,-3.65 1.59,3.37 8.18,-6.07 -14,4.2 -3.57,0.15 -8.18,6.07zm2016.06 -29.51c-7.28,-10.03 0.91,-1.62 -8.48,-5.72 5.41,5.94 -6.68,1.89 8.48,5.72zm-1939.18 -21.71c7.73,-3.65 1.56,3.35 8.16,-6.07 -13.95,4.21 -3.58,0.18 -8.16,6.07zm2281.84 -285.4c-6.62,-9.44 -0.4,-2.39 -8.18,-6.02 4.58,5.82 -5.72,1.84 8.18,6.02zm-2262.63 272.58c7.78,-3.65 1.56,3.4 8.16,-6.04 -13.9,4.2 -3.6,0.2 -8.16,6.04zm67.23 -44.84c7.86,-3.66 1.54,3.47 8.19,-6.02 -13.98,4.2 -3.55,0.15 -8.19,6.02zm-19.21 12.81c7.86,-3.65 1.54,3.48 8.18,-6.02 -13.97,4.18 -3.55,0.16 -8.18,6.02zm9.62 -6.39c7.83,-3.68 1.51,3.45 8.18,-6.02 -14,4.18 -3.55,0.15 -8.18,6.02zm1431.84 -457.94c-4.56,-5.67 5.61,-1.82 -8.24,-6.02 7.48,10.7 -1,1.76 8.24,6.02zm-1672.04 618.04c6.8,-3.2 2.44,2.11 8.18,-6.07 -13.97,4.15 -3.6,0.12 -8.18,6.07zm701.31 -467.54c6.73,-3.2 2.5,1.99 8.21,-6.12 -14.9,4.46 -3.15,-0.55 -8.21,6.12zm2006.47 249.5c-5.69,-8.11 -1.46,-2.93 -8.18,-6.12 5.06,6.67 -6.7,1.66 8.18,6.12zm-2698.16 211.64c6.82,-3.22 2.39,2.14 8.18,-6.07 -14.07,4.18 -3.57,0.08 -8.18,6.07zm2425.96 -394.31c-7.36,-10.55 0.85,-1.81 -8.16,-5.99 4.55,5.69 -5.62,1.79 8.16,5.99zm262.58 176.12c-7.43,-10.7 1.06,-1.71 -8.16,-5.97 4.71,5.79 -5.84,1.74 8.16,5.97zm-1982.24 -0.13c15.06,-4.23 3.27,-0.05 8.59,-5.84 -7.13,3.05 -3.73,-1.06 -8.59,5.84zm422.71 -262.61c14.88,-4.2 3.38,-0.15 8.59,-5.82 -7.15,3.03 -3.73,-1.13 -8.59,5.82zm-1210.5 755.76c14.91,-4.21 3.38,-0.15 8.59,-5.82 -7.15,3.02 -3.73,-1.11 -8.59,5.82zm957.51 -598.83c14.68,-4.21 3.5,-0.3 8.58,-5.84 -7.12,3.02 -3.75,-1.09 -8.58,5.84zm92.87 -57.64c14.68,-4.21 3.5,-0.3 8.58,-5.84 -7.12,3.02 -3.75,-1.09 -8.58,5.84zm-288.23 179.34c14.51,-4.21 3.63,-0.46 8.59,-5.84 -7.13,3.02 -3.73,-1.14 -8.59,5.84zm-555.21 2216.6c0,-5.41 1.11,-3.58 -5.19,-3.58 0,5.39 -1.11,3.58 5.19,3.58zm1527.6 -2632.34c-4.88,-5.72 5.97,-1.76 -8.46,-5.97 4.56,6.52 1.69,2.97 8.46,5.97zm110.02 -218.24c-7.38,-10.65 0.98,-1.74 -8.14,-5.95 4.59,5.59 -5.59,1.72 8.14,5.95zm-1168.85 147.33c14.25,-4.18 3.67,-0.38 8.43,-5.97 -6.74,3 -3.9,-0.53 -8.43,5.97zm-745.81 1025.19c-5.36,0 -3.55,-1.11 -3.55,5.16 5.36,0 3.55,1.11 3.55,-5.16zm2193.26 -449.02c-4.79,-6.63 -1.49,-2.67 -8.49,-5.69 5.37,5.84 -6.57,1.86 8.49,5.69zm-365.05 -227.36c-4.86,-6.8 -1.46,-2.7 -8.54,-5.72 4.99,5.34 -5.91,1.86 8.54,5.72zm390.68 243.37c-4.81,-6.62 -1.51,-2.67 -8.51,-5.69 5.37,5.84 -6.55,1.86 8.51,5.69zm-246.59 -153.73c-4.79,-6.62 -1.49,-2.64 -8.49,-5.69 5.36,5.84 -6.57,1.86 8.49,5.69zm614.86 384.29c-4.81,-6.62 -1.51,-2.65 -8.51,-5.69 5.37,5.84 -6.54,1.86 8.51,5.69zm-1193.37 -963.2c7,-3.05 3.7,0.93 8.49,-5.69 -15.06,3.83 -3.13,-0.15 -8.49,5.69zm1331.06 1049.67c-4.78,-6.62 -1.48,-2.67 -8.48,-5.69 5.34,5.84 -6.57,1.86 8.48,5.69zm-1149.63 -717.33c-4.81,-6.62 -1.51,-2.67 -8.51,-5.69 5.36,5.84 -6.55,1.86 8.51,5.69zm160.1 99.26c-4.79,-6.62 -1.49,-2.64 -8.49,-5.69 5.37,5.84 -6.57,1.87 8.49,5.69zm-1527.5 586.19c14.68,-4.26 3.3,-0.13 8.43,-5.84 -6.87,2.97 -3.77,-0.83 -8.43,5.84zm528.37 -871.06c14.53,-4.23 3.42,-0.23 8.46,-5.82 -6.9,2.98 -3.78,-0.88 -8.46,5.82zm-390.68 784.59c14.53,-4.23 3.4,-0.25 8.46,-5.84 -6.9,2.99 -3.8,-0.88 -8.46,5.84zm-349.06 -9.12c-6.4,0 -5.39,-1.94 -5.39,3.28 6.4,0 5.39,1.94 5.39,-3.28zm1884.69 -659.61c-4.58,-5.34 5.42,-1.61 -8.11,-5.82 7.33,10.65 -1.03,1.69 8.11,5.82zm-9.62 -6.4c-4.58,-5.36 5.44,-1.61 -8.11,-5.84 7.33,10.65 -1.03,1.71 8.11,5.84zm-1173.76 -83.82c13.55,-4.24 3.53,-0.48 8.11,-5.85 -9.14,4.13 -0.78,-4.81 -8.11,5.85zm9.62 -6.43c13.52,-4.2 3.53,-0.47 8.08,-5.81 -9.11,4.13 -0.75,-4.84 -8.08,5.81zm9.6 -6.39c13.54,-4.21 3.52,-0.48 8.1,-5.84 -9.14,4.13 -0.78,-4.81 -8.1,5.84zm-124.9 83.27c13.55,-4.23 3.52,-0.48 8.11,-5.84 -9.14,4.13 -0.78,-4.84 -8.11,5.84zm-435.51 291.57c14.16,-4.2 3.58,-0.25 8.31,-5.99 -6.47,2.92 -4,-0.18 -8.31,5.99zm531.6 -355.63c13.34,-4.2 3.6,-0.6 8.08,-5.84 -9.11,4.1 -0.78,-4.84 -8.08,5.84zm-522 349.06c13.55,-4.21 3.5,-0.45 8.08,-5.84 -9.06,4.13 -0.78,-4.79 -8.08,5.84zm1365.89 -498.99c-4.59,-5.39 5.44,-1.61 -8.09,-5.84 7.31,10.63 -0.98,1.74 8.09,5.84zm-9.37 -6.42c-4.81,-5.79 5.92,-1.76 -8.33,-5.97 4.33,6.17 1.86,3.05 8.33,5.97zm368.02 246.6c-4.48,-5.26 5.29,-1.64 -8.08,-5.84 7.3,10.62 -0.96,1.74 8.08,5.84zm9.62 6.4c-4.48,-5.24 5.26,-1.64 -8.08,-5.85 7.27,10.66 -0.99,1.77 8.08,5.85zm-1231.37 -83.83c13.34,-4.21 3.57,-0.61 8.08,-5.84 -9.07,4.08 -0.81,-4.81 -8.08,5.84zm9.59 -6.4c13.37,-4.23 3.6,-0.6 8.08,-5.84 -9.06,4.08 -0.8,-4.81 -8.08,5.84zm-19.21 12.79c13.37,-4.2 3.6,-0.58 8.08,-5.81 -9.07,4.08 -0.81,-4.81 -8.08,5.81zm-57.64 38.43c13.34,-4.21 3.6,-0.58 8.08,-5.82 -9.06,4.08 -0.81,-4.81 -8.08,5.82zm9.62 -6.4c13.34,-4.2 3.57,-0.6 8.05,-5.84 -9.04,4.11 -0.78,-4.78 -8.05,5.84zm930.33 -194.77c-4.51,-5.26 5.29,-1.61 -8.06,-5.84 7.26,10.6 -0.93,1.76 8.06,5.84zm1450.6 790.98c5.94,-4.28 4.81,7.15 4.81,-9.21l-4.81 9.21zm-1082.35 -544.41c-4.38,-5.14 5.11,-1.64 -8.03,-5.82 7.2,10.56 -0.86,1.79 8.03,5.82zm9.62 6.42c-4.38,-5.13 5.08,-1.66 -8.06,-5.84 7.2,10.55 -0.86,1.81 8.06,5.84zm-1269.78 -83.82c13.15,-4.21 3.65,-0.71 8.04,-5.85 -8.89,4.03 -0.84,-4.73 -8.04,5.85zm-28.83 19.21c13.14,-4.21 3.68,-0.71 8.06,-5.84 -8.92,4.03 -0.86,-4.74 -8.06,5.84zm2049.5 2594.21c-6.19,0 -5.11,-1.81 -5.11,3.45 6.2,0 5.11,1.82 5.11,-3.45zm-2494.62 -2296.4c13.14,-4.2 3.65,-0.68 8.03,-5.84 -8.84,4.01 -0.86,-4.68 -8.03,5.84zm1753.32 -226.8c-4.31,-5.01 4.91,-1.66 -8.03,-5.84 7.15,10.55 -0.81,1.86 8.03,5.84zm9.59 6.39c-4.28,-5.01 4.94,-1.66 -8.03,-5.81 7.18,10.52 -0.78,1.84 8.03,5.81zm-387.48 -259.38c-4.28,-5.02 4.94,-1.67 -8.03,-5.82 7.17,10.52 -0.78,1.84 8.03,5.82zm353.84 -54.9c-4.33,-6.17 -1.84,-3.02 -8.28,-5.94 4.76,5.71 -5.87,1.74 8.28,5.94zm-1264.94 224.06c12.97,-4.18 3.73,-0.78 8.01,-5.84 -8.69,3.95 -0.88,-4.61 -8.01,5.84zm1317.77 103.04c-4.18,-4.91 4.76,-1.69 -8,-5.84 7.1,10.47 -0.68,1.91 8,5.84zm-9.62 -6.39c-4.18,-4.91 4.76,-1.69 -7.98,-5.85 7.08,10.45 -0.68,1.92 7.98,5.85zm-1762.89 207.56c12.77,-4.15 3.8,-0.88 8.01,-5.81 -8.61,3.9 -0.93,-4.61 -8.01,5.81zm1375.41 -466.95c-4.21,-4.96 4.76,-1.69 -7.98,-5.85 7.05,10.43 -0.63,1.92 7.98,5.85zm406.7 272.18c-5.01,-5.87 6.07,-1.21 -7.99,-5.82 7.05,10.43 -0.63,1.94 7.99,5.82zm9.59 6.42c-4.99,-5.87 6.09,-1.21 -7.98,-5.84 7.05,10.45 -0.61,1.94 7.98,5.84zm-1346.55 -109.54c13.47,-4.25 3.4,-0.5 8.03,-5.74 -9.09,4.05 -0.78,-4.91 -8.03,5.74zm2171.18 368.37c-6.95,-10.19 0.35,-2.04 -7.94,-5.84 4.23,5.09 -4.91,1.66 7.94,5.84zm-815.04 -252.44c-5.01,-5.89 6.1,-1.2 -7.95,-5.84 7.02,10.43 -0.58,1.97 7.95,5.84zm-416.29 -278.6c-5.01,-5.89 6.1,-1.21 -7.98,-5.84 7.03,10.43 -0.55,1.96 7.98,5.84zm-1704.14 758.96l-4.28 -10 0 9.77c0.22,0.81 1.13,-2.29 4.28,0.23zm2130.03 -473.93c-4.89,-5.77 5.92,-1.24 -7.96,-5.85 6.98,10.35 -0.5,1.99 7.96,5.85zm-1748.62 425.91c6.3,-2.9 4.03,0.02 8.19,-6 -14.1,4.26 -3.43,0.13 -8.19,6zm2349.11 -317.49c-4.16,-5.96 -1.92,-3.07 -8.19,-5.96 4.74,5.84 -5.86,1.73 8.19,5.96zm-1308.35 -377.43c6.29,-2.9 4.05,0 8.21,-5.97 -14.08,4.23 -3.45,0.13 -8.21,5.97zm-57.37 38.42c8.19,-3.77 1.01,4.28 7.94,-5.84 -12.64,4.13 -3.81,0.86 -7.94,5.84zm-964.17 643.68c6.29,-2.9 4,0.05 8.18,-5.97 -14.18,4.26 -3.35,0.05 -8.18,5.97zm-71.87 -243.95c13.85,-4.61 3.05,-0.05 7.93,-5.85 -8.38,3.83 -0.98,-4.48 -7.93,5.85zm1810.86 -162.75c-4.88,-5.76 5.92,-1.23 -7.93,-5.84 6.95,10.32 -0.45,2.01 7.93,5.84zm-2035.02 313.25c13.85,-4.61 3.05,-0.05 7.93,-5.81 -8.38,3.8 -0.98,-4.51 -7.93,5.81zm1809.33 -755.63c-4.18,-5.96 -1.92,-3.07 -8.19,-5.94 4.79,5.87 -5.97,1.71 8.19,5.94zm9.59 6.4c-4.16,-5.97 -1.89,-3.05 -8.18,-5.94 4.81,5.89 -5.97,1.71 8.18,5.94zm-965.69 471.21c6.3,-2.9 4.03,0 8.18,-5.97 -14.15,4.23 -3.37,0.08 -8.18,5.97zm9.62 -6.42c6.27,-2.87 4.03,0.02 8.18,-5.94 -14.15,4.23 -3.4,0.05 -8.18,5.94zm-672.51 448.35c6.3,-2.9 4.03,0 8.21,-5.97 -14.18,4.23 -3.4,0.07 -8.21,5.97zm1418.77 -762.18c-4.78,-5.62 5.74,-1.24 -7.93,-5.82 6.92,10.33 -0.45,2.02 7.93,5.82zm435.53 291.42c-4.81,-5.62 5.74,-1.24 -7.96,-5.84 6.95,10.35 -0.42,2.04 7.96,5.84zm446.79 5.84c-6.93,-10.17 0.32,-2.04 -7.91,-5.84 4.18,5.03 -4.83,1.68 7.91,5.84zm-464.34 236.83c-4.53,-6.3 -1.66,-2.75 -8.31,-5.69 4.91,5.46 -5.87,1.86 8.31,5.69zm839 525.2c-4.5,-6.33 -1.66,-2.77 -8.28,-5.7 4.88,5.44 -5.89,1.84 8.28,5.7zm-1037.55 -1203.86c-4.18,-5.96 -1.89,-3.04 -8.19,-5.94 4.86,5.94 -6.06,1.71 8.19,5.94zm225.7 442.41c-4.81,-5.67 5.74,-1.24 -7.94,-5.84 6.9,10.3 -0.4,2.04 7.94,5.84zm-1738.98 381.06c6.27,-2.87 4.01,0.03 8.16,-5.94 -14.02,4.23 -3.42,0.13 -8.16,5.94zm1647.77 -733.87c-4.33,-6.25 -1.76,-2.97 -8.23,-5.87 4.81,5.59 -5.82,1.64 8.23,5.87zm765.37 1027.78c-4.5,-6.29 -1.68,-2.77 -8.28,-5.69 4.78,5.34 -5.72,1.87 8.28,5.69zm-890.27 -1110.95c-4.15,-5.97 -1.89,-3.08 -8.16,-5.95 4.76,5.85 -5.91,1.72 8.16,5.95zm9.62 6.39c-4.15,-5.97 -1.91,-3.07 -8.18,-5.94 4.78,5.84 -5.92,1.71 8.18,5.94zm-310.63 361.63c-4.48,-6.3 -1.66,-2.77 -8.28,-5.7 4.8,5.34 -5.72,1.87 8.28,5.7zm-703.08 103.16c6.27,-2.87 4.01,0.03 8.16,-5.94 -14.08,4.23 -3.4,0.1 -8.16,5.94zm9.6 -6.39c6.27,-2.87 4.03,0.02 8.18,-5.95 -14.1,4.23 -3.4,0.1 -8.18,5.95zm853.61 2.49c-4.51,-6.3 -1.69,-2.77 -8.29,-5.69 4.79,5.34 -5.72,1.86 8.29,5.69zm-389.25 -313.13c6.24,-2.87 4,0.03 8.16,-5.94 -14.1,4.23 -3.4,0.1 -8.16,5.94zm-925.5 618.07c6.27,-2.9 4.03,0 8.18,-5.94 -14.1,4.23 -3.4,0.1 -8.18,5.94zm441.92 -294.62c6.3,-2.89 4.01,0.05 8.19,-5.94 -13.98,4.23 -3.45,0.2 -8.19,5.94zm-9.59 6.4c6.29,-2.87 3.98,0.07 8.16,-5.92 -14.05,4.23 -3.38,0.13 -8.16,5.92zm1042.54 -471.21c-4.18,-6.02 -1.89,-3.05 -8.18,-5.94 4.78,5.79 -5.9,1.68 8.18,5.94zm9.59 6.39c-4.18,-6.01 -1.88,-3.04 -8.18,-5.91 4.79,5.79 -5.89,1.68 8.18,5.91zm9.62 6.4c-4.18,-5.99 -1.88,-3.05 -8.18,-5.92 4.78,5.79 -5.89,1.69 8.18,5.92zm-1407.61 689c6.29,-2.9 4,0.08 8.18,-5.94 -14.07,4.25 -3.4,0.12 -8.18,5.94zm9.62 -6.42c6.27,-2.87 3.98,0.08 8.16,-5.92 -14.05,4.23 -3.4,0.13 -8.16,5.92zm48.02 -32.01c6.29,-2.89 4,0.08 8.18,-5.94 -14.07,4.26 -3.4,0.13 -8.18,5.94zm-38.43 25.61c6.3,-2.87 4.01,0.08 8.19,-5.91 -14.08,4.23 -3.4,0.12 -8.19,5.91zm-57.64 38.43c6.3,-2.87 4.01,0.08 8.19,-5.92 -14.08,4.23 -3.4,0.13 -8.19,5.92zm67.26 -44.82c6.27,-2.9 3.98,0.07 8.16,-5.94 -14.05,4.25 -3.4,0.12 -8.16,5.94zm9.6 -6.42c6.29,-2.87 4,0.07 8.18,-5.92 -14.08,4.23 -3.4,0.12 -8.18,5.92zm-67.26 44.84c6.29,-2.89 4,0.08 8.18,-5.94 -14.08,4.26 -3.4,0.13 -8.18,5.94zm9.62 -6.42c6.29,-2.87 4,0.1 8.18,-5.91 -14.08,4.23 -3.4,0.12 -8.18,5.91zm9.59 -6.39c6.3,-2.87 4,0.07 8.18,-5.92 -14.07,4.23 -3.4,0.13 -8.18,5.92zm57.66 -38.43c6.3,-2.9 3.98,0.08 8.16,-5.92 -14.05,4.23 -3.37,0.13 -8.16,5.92zm240.18 -160.12c6.25,-2.88 4.03,0.02 8.16,-5.92 -14.03,4.23 -3.4,0.12 -8.16,5.92zm749.66 -451.52c0,-5.24 1.08,-3.48 -4.96,-3.48 0,5.21 -1.08,3.48 4.96,3.48zm-208.45 89.66c6.25,-2.87 3.98,0.06 8.16,-5.94 -13.9,4.23 -3.47,0.25 -8.16,5.94zm1561.3 521.5c-4.16,-5.99 -1.89,-3.04 -8.16,-5.92 4.68,5.7 -5.74,1.69 8.16,5.92zm-2054.46 -191.65c6.27,-2.9 4,0.05 8.15,-5.94 -13.9,4.23 -3.47,0.25 -8.15,5.94zm-38.43 25.61c6.27,-2.87 4,0.05 8.16,-5.94 -13.9,4.23 -3.48,0.25 -8.16,5.94zm795.94 -698.95c-4.86,-6.9 -1.41,-2.62 -8.41,-5.56 6.02,6.17 -7.2,1.23 8.41,5.56zm-767.13 679.74c6.29,-2.87 4,0.07 8.15,-5.92 -14,4.23 -3.39,0.17 -8.15,5.92zm1100.18 -458.45c-4.18,-5.99 -1.89,-3.02 -8.16,-5.89 4.73,5.74 -5.84,1.66 8.16,5.89zm-9.62 -6.39c-4.18,-6 -1.89,-3.05 -8.16,-5.92 4.76,5.76 -5.84,1.69 8.16,5.92zm-1292.31 599.33c6.29,-2.87 4,0.07 8.16,-5.92 -14.01,4.23 -3.4,0.18 -8.16,5.92zm-9.6 6.39c6.27,-2.87 3.98,0.1 8.16,-5.89 -14,4.23 -3.4,0.15 -8.16,5.89zm-9.62 6.42c6.3,-2.87 4.01,0.08 8.16,-5.91 -14,4.23 -3.4,0.17 -8.16,5.91zm-19.21 12.82c6.27,-2.87 4,0.08 8.16,-5.92 -14,4.23 -3.4,0.16 -8.16,5.92zm67.26 -44.85c6.27,-2.87 3.98,0.08 8.16,-5.91 -14,4.23 -3.4,0.17 -8.16,5.91zm-86.47 57.64c6.27,-2.87 4,0.1 8.16,-5.91 -14,4.25 -3.4,0.17 -8.16,5.91zm105.68 -70.45c6.27,-2.87 3.98,0.1 8.16,-5.9 -14,4.24 -3.4,0.16 -8.16,5.9zm-9.62 6.42c6.3,-2.87 4.01,0.07 8.19,-5.92 -14,4.23 -3.43,0.18 -8.19,5.92zm-86.44 57.64c6.27,-2.87 3.98,0.07 8.16,-5.92 -14.01,4.23 -3.4,0.18 -8.16,5.92zm19.21 -12.82c6.27,-2.87 3.98,0.08 8.16,-5.92 -14,4.23 -3.4,0.18 -8.16,5.92zm48.02 -32.03c6.29,-2.87 4,0.1 8.16,-5.89 -13.98,4.23 -3.4,0.15 -8.16,5.89zm-9.59 6.42c6.27,-2.87 3.97,0.08 8.15,-5.92 -14,4.23 -3.4,0.18 -8.15,5.92zm1993.62 -118.98c-4.18,-5.99 -1.89,-3.05 -8.16,-5.92 4.74,5.75 -5.84,1.69 8.16,5.92zm164.76 2357.42c6.27,-2.87 3.98,0.1 8.16,-5.9 -14,4.23 -3.4,0.15 -8.16,5.9zm-1473.08 -2696.38c6.29,-2.87 3.97,0.13 8.15,-5.92 -13.87,4.23 -3.47,0.28 -8.15,5.92zm-502.77 336.24c6.3,-2.87 3.98,0.13 8.16,-5.92 -13.87,4.26 -3.47,0.28 -8.16,5.92zm1119.37 -458.44c-4.18,-6 -1.86,-3.02 -8.16,-5.89 4.84,5.79 -5.94,1.66 8.16,5.89zm944.69 630.86c-4.18,-6.05 -1.84,-3.03 -8.16,-5.9 4.76,5.69 -5.79,1.67 8.16,5.9zm-2102.48 -146.78c6.29,-2.87 3.95,0.12 8.15,-5.92 -13.97,4.25 -3.39,0.2 -8.15,5.92zm-28.84 19.21c6.3,-2.87 3.98,0.13 8.16,-5.92 -13.95,4.26 -3.4,0.2 -8.16,5.92zm19.22 -12.82c6.29,-2.87 3.98,0.15 8.16,-5.89 -13.95,4.23 -3.4,0.2 -8.16,5.89zm-38.43 25.61c6.3,-2.87 3.98,0.15 8.16,-5.89 -13.98,4.25 -3.4,0.2 -8.16,5.89zm76.85 -51.22c6.32,-2.87 3.98,0.13 8.16,-5.91 -13.95,4.25 -3.4,0.2 -8.16,5.91zm-48.02 32.01c6.3,-2.87 3.96,0.15 8.16,-5.89 -13.97,4.25 -3.4,0.2 -8.16,5.89zm-19.21 12.82c6.3,-2.88 3.95,0.15 8.16,-5.9 -13.98,4.23 -3.4,0.2 -8.16,5.9zm-57.64 38.42c6.3,-2.87 3.95,0.15 8.16,-5.89 -13.98,4.23 -3.42,0.2 -8.16,5.89zm9.59 -6.39c6.3,-2.88 3.98,0.15 8.16,-5.9 -13.97,4.23 -3.4,0.2 -8.16,5.9zm1916.78 -93.38c-4.21,-6.06 -1.87,-3.04 -8.16,-5.91 4.73,5.71 -5.82,1.66 8.16,5.91zm9.59 6.4c-4.18,-6.04 -1.86,-3.02 -8.16,-5.89 4.76,5.69 -5.81,1.63 8.16,5.89zm-672.48 -448.32c-4.21,-6.07 -1.86,-3.05 -8.16,-5.92 4.76,5.69 -5.82,1.66 8.16,5.92zm9.59 6.39c-4.18,-6.04 -1.86,-3.02 -8.15,-5.89 4.75,5.69 -5.82,1.64 8.15,5.89zm-1234.64 509.69c6.29,-2.87 3.95,0.15 8.16,-5.92 -13.98,4.26 -3.4,0.21 -8.16,5.92zm-9.62 6.4c6.29,-2.87 3.98,0.15 8.16,-5.89 -13.98,4.23 -3.4,0.2 -8.16,5.89zm-9.6 6.39c6.3,-2.87 3.96,0.16 8.16,-5.89 -13.97,4.26 -3.4,0.2 -8.16,5.89zm-613.1 627.77l14.43 -9.7c-13.7,5.97 -6.68,0.83 -14.43,9.7zm2510.64 -721.14c-4.18,-6.01 -1.86,-3.02 -8.13,-5.89 4.65,5.59 -5.67,1.66 8.13,5.89zm22.41 537.79c-4.48,-6.32 -1.66,-2.77 -8.26,-5.69 5.64,6.27 -6.92,1.44 8.26,5.69zm-637.25 -947.71c-4.18,-6.02 -1.87,-3.02 -8.16,-5.86 4.73,5.64 -5.74,1.63 8.16,5.86zm-674.25 96.6c6.3,-2.85 3.95,0.15 8.16,-5.87 -13.9,4.23 -3.42,0.23 -8.16,5.87zm1279.5 306.9c-4.21,-6.02 -1.87,-3.02 -8.16,-5.87 4.73,5.65 -5.74,1.64 8.16,5.87zm-9.62 -6.39c-4.18,-6.05 -1.87,-3.03 -8.14,-5.9 4.71,5.64 -5.76,1.67 8.14,5.9zm291.42 195.32c-4.21,-6.06 -1.84,-3.02 -8.16,-5.86 4.65,5.51 -5.59,1.63 8.16,5.86zm-867.84 -579.64c-4.21,-6.06 -1.84,-2.99 -8.16,-5.86 4.73,5.59 -5.69,1.63 8.16,5.86zm-1950.24 1168.4l4.99 -8.59c-6.15,4.26 -4.99,-6.92 -4.99,8.59zm2517.04 -790.5c-4.18,-6.1 -1.82,-3.03 -8.14,-5.87 4.74,5.59 -5.71,1.61 8.14,5.87zm-9.6 -6.4c-4.2,-6.09 -1.84,-3.02 -8.13,-5.87 4.71,5.57 -5.72,1.61 8.13,5.87zm-547.61 -365.1c-4.2,-6.09 -1.81,-3 -8.13,-5.84 4.78,5.64 -5.82,1.58 8.13,5.84zm-712.64 83.83c6.29,-2.85 3.95,0.2 8.13,-5.87 -13.67,4.21 -3.5,0.4 -8.13,5.87zm1250.63 274.85c-4.18,-6.07 -1.83,-3.02 -8.1,-5.87 4.6,5.47 -5.54,1.66 8.1,5.87zm-518.77 -345.86c-4.18,-6.07 -1.84,-3 -8.11,-5.87 4.68,5.54 -5.67,1.64 8.11,5.87zm-9.6 -6.42c-4.2,-6.07 -1.84,-3 -8.13,-5.85 4.68,5.52 -5.64,1.62 8.13,5.85zm509.16 339.46c-4.18,-6.07 -1.81,-3 -8.11,-5.84 4.69,5.51 -5.66,1.61 8.11,5.84zm9.62 6.4c-4.21,-6.07 -1.84,-3 -8.13,-5.85 4.68,5.52 -5.64,1.62 8.13,5.85zm-499.56 -333.05c-4.21,-6.09 -1.84,-2.99 -8.14,-5.84 4.76,5.59 -5.74,1.59 8.14,5.84zm-1255.33 115.28c13.73,-4.23 3.45,-0.38 8.14,-5.84 -6.32,2.85 -3.93,-0.28 -8.14,5.84zm-778.16 522.41c6.52,-2.98 4.08,-1.59 9.59,-6l11.21 -9.87 -20.8 15.87zm2081.51 -605.93c-7.16,-10.43 0.95,-1.64 -7.91,-5.57 5.09,5.54 -5.99,1.24 7.91,5.57zm-28.81 -19.22c-7.2,-10.42 0.98,-1.61 -7.91,-5.56 5.19,5.69 -6.17,1.23 7.91,5.56zm19.21 12.82c-7.2,-10.45 0.98,-1.61 -7.91,-5.59 5.19,5.72 -6.16,1.26 7.91,5.59zm-9.62 -6.42c-7.17,-10.43 1.01,-1.59 -7.9,-5.57 5.21,5.72 -6.17,1.24 7.9,5.57zm432.33 288.22c-7.2,-10.42 0.99,-1.61 -7.9,-5.56 5.18,5.69 -6.17,1.23 7.9,5.56zm9.6 6.4c-7.18,-10.43 1.01,-1.59 -7.91,-5.57 5.21,5.72 -6.17,1.24 7.91,5.57zm-1231.2 -236.15c8.81,-3.93 0.78,4.83 7.91,-5.57 -13.9,4.34 -2.8,0 -7.91,5.57zm818.1 -39.26c-7.12,-10.4 0.91,-1.63 -7.9,-5.56 5.11,5.59 -6,1.23 7.9,5.56zm752.56 502.79c-7.15,-10.42 0.91,-1.66 -7.9,-5.59 5.11,5.59 -6,1.26 7.9,5.59zm-368.27 -246.6c-7.15,-10.4 0.91,-1.63 -7.91,-5.56 5.12,5.59 -5.99,1.23 7.91,5.56zm9.59 6.4c-7.17,-10.4 0.96,-1.61 -7.88,-5.57 5.19,5.75 -6.19,1.24 7.88,5.57zm-1072.78 -604.72l14.83 -9.29c-13.04,5.49 -7.17,0.88 -14.83,9.29zm-1396.86 1191.59l-8.97 -4.56c4.26,5.64 -7.05,4.56 8.97,4.56zm1380.85 -1182.12l14.58 -9.14c-12.52,5.21 -7.28,1 -14.58,9.14zm646.87 300.63c-4.43,-6.37 -1.61,-2.72 -8.11,-5.56 5.84,6.27 -7.02,1.21 8.11,5.56zm-1124.03 561.11l14.18 -9.47c-12.94,5.69 -6.72,1.01 -14.18,9.47zm144.11 -89.72l14.05 -9.39c-12.76,5.56 -6.77,1.08 -14.05,9.39zm253 -156.95l14.05 -9.37c-12.72,5.51 -6.83,1.11 -14.05,9.37zm92.86 -57.59l14.13 -9.42c-12.79,5.62 -6.75,1.03 -14.13,9.42zm144.11 -579.16c0,-5.09 1.11,-3.48 -4.58,-3.48 0,5.06 -1.11,3.48 4.58,3.48zm-28.83 -16.02c0,-5.09 1.11,-3.47 -4.56,-3.47 0,5.08 -1.1,3.47 4.56,3.47zm-1298.71 3093.2c0,-5.01 1.06,-3.37 -4.63,-3.37 0,5.01 -1.08,3.37 4.63,3.37zm2671.6 -153.7c4.06,-3.93 1.74,0.53 4.71,-5.24 4.28,-8.28 0.71,-0.98 2.62,-7.86l-7.33 13.1zm-2617.81 179.31l-13.6 -6.9c3.28,3.13 -0.05,1.94 5.29,4.43 9.42,4.39 -0.78,0.26 8.31,2.47zm1635.07 -2574.67l-8.58 -7.41c-6.32,-4.38 -5.09,-3.22 -10.1,-5.51l18.68 12.92zm-1592.74 2590.69c0,-4.91 1.01,-3.25 -4.68,-3.25 0,4.91 -1.04,3.25 4.68,3.25zm1253.83 -3106.07c0,-4.99 1.09,-3.43 -4.48,-3.43 0,4.99 -1.08,3.43 4.48,3.43zm-52.98 255.99c0,-4.89 1.01,-3.23 -4.65,-3.23 0,4.86 -1.01,3.23 4.65,3.23zm1183.41 2834.11c-5.69,0 -4.71,-1.66 -4.71,3.18 5.69,0 4.71,1.66 4.71,-3.18zm-2635.29 -198.57l-6.65 -13.85c1.72,7.15 -1.05,1.78 2.47,8.56 2.39,4.53 1.74,2.54 4.18,5.29zm-66.15 -1703.67c0,-4.79 1.01,-3.17 -4.53,-3.17 0,4.78 -1.01,3.17 4.53,3.17zm2655.48 1921.43c7.33,-1.76 1.76,1.03 8.61,-2.52 4.49,-2.31 2.65,-1.76 5.34,-4.1l-13.95 6.62zm391.82 -2084.73c-0.3,-0.2 -1.24,1.31 -3.88,-0.02l3.88 8.51 0 -8.49zm-135.55 1838.13c5.51,-2.51 4.25,5.17 4.25,-7.8l-4.25 7.8zm-2855.44 -1448.93c0.75,-0.51 1.88,-2.19 2.21,-1.56l15.69 -16.2c-0.83,0.51 -2.12,0.21 -2.52,1.44l-15.38 16.32zm2858.64 1439.34c5.51,-2.52 4.25,5.14 4.25,-7.81l-4.25 7.81zm-2655.54 230.56c0,-4.74 0.96,-3.13 -4.55,-3.13 0,4.74 -0.98,3.13 4.55,3.13zm41.81 16.01l-14.36 -6.47c2.62,2.19 0.61,1.99 5.37,3.98 6.32,2.64 1.41,0.75 8.99,2.49zm2518.72 -2268.1l-25.94 -18.66c-0.85,-0.47 -2.04,-1.03 -2.79,-1.43 -0.76,-0.4 -1.94,-0.98 -2.9,-1.49l31.63 21.58zm86.37 2047.14c3.63,-2.95 4.43,4.66 2.22,-5.36 6.44,-5.62 1.86,0.22 4.28,-8.87l-6.5 14.23zm-1478.45 -2891.73c-5.19,0 -4.15,-1.46 -4.15,3.25 5.18,0 4.15,1.43 4.15,-3.25zm1500.41 2814.88c4.88,-2.55 3.75,5.01 3.75,-8.21l-3.75 8.21zm-233.23 290.01l-6.47 4.6c11.13,0 3.98,1.31 6.47,-4.6zm-2385.16 11l-7 -4.18c2.52,5.39 -4.86,4.18 7,4.18zm2603.63 -1931.03l-7.12 -4.08c2.51,5.27 -4.89,4.08 7.12,4.08zm-2629.69 1921.44l-6.55 -4.39c2.49,5.62 -4.69,4.39 6.55,4.39zm2654.6 -1638.08c0,-13.01 1.05,-5.41 -3.5,-7.95l3.5 7.95zm30.89 -283.36c10.48,-2.69 5.14,0.41 10.73,-5.94l-10.73 5.94zm-315.89 1936.64l-6.75 4.01 6.75 0c0.12,-0.3 -1.36,-1.24 0,-4.01zm-2737.15 -2019.88l-4.08 -6.53c0,11.18 -1.15,4.03 4.08,6.53zm414.91 2023.89l-5.89 -4.51c1.36,3.12 -0.08,4.18 0,4.51l5.89 0zm2700.38 -2001.48c7.98,-7.05 2.97,0.68 6.14,-10l-6.14 10zm-320.5 1975.04l-6.45 4c11.08,0 3.95,1.14 6.45,-4zm191.42 -197.75c5.01,-2.47 3.91,4.69 3.91,-6.49l-3.91 6.49zm141.62 -1866.86c0,-11.16 1.08,-4.01 -3.88,-6.5l3.88 6.5zm-3.2 -9.97c0,-10.66 1.13,-3.66 -4.13,-6.15l4.13 6.15zm-2929.1 141.16l18.16 -12.54 -14.13 8.54c-0.5,0.4 -1.66,2.57 -2.01,1.94 -0.38,-0.66 -1.36,1.36 -2.02,2.06zm2567.23 1946.44l-6.5 3.8c11.15,0 4,1.08 6.5,-3.8zm223.83 -1930.42l-6.07 -4.08c2.47,5.21 -4.51,4.08 6.07,4.08zm-2981.6 -67.26l-5.87 -10.1c2.65,9.57 0.03,4.99 5.87,10.1zm1588.99 -848.63l-6.49 -3.55c2.49,4.56 -4.66,3.55 6.49,3.55zm-1457.14 931.32l-5.95 3.78c10.38,0 3.45,1.03 5.95,-3.78zm2978.17 -193.19l-38.37 -44.79c-0.63,-0.43 -1.74,-1.06 -2.6,-1.62 7.15,11.81 22.41,20.53 30.62,32.46l8.51 11.89c0.41,0.5 1.24,1.36 1.84,2.06z"/>
 </g>
</svg>
