<?xml version="1.0" encoding="UTF-8"?>
<!DOCTYPE svg PUBLIC "-//W3C//DTD SVG 1.1//EN" "http://www.w3.org/2000/svg">
<svg xmlns="http://www.w3.org/2000/svg" xml:space="preserve" width="34.5438mm" height="34.5438mm" version="1.1" style="shape-rendering:geometricPrecision; text-rendering:geometricPrecision; image-rendering:optimizeQuality; fill-rule:evenodd; clip-rule:evenodd"
viewBox="0 0 3454.38 3454.38">
 <defs>
  <style type="text/css">
    .fil3 {fill:#FEFEFE}
    .fil2 {fill:#5B4969}
    .fil4 {fill:#655670}
    .fil0 {fill:#9D65C9}
    .fil1 {fill:#C0A5D4}
  </style>
 </defs>
 <g>
  <g>
   <circle class="fil0" cx="1727.19" cy="1727.19" r="1693.33"/>
   <g>
    <path class="fil1" d="M1727.19 33.85c935.19,0 1693.34,758.15 1693.34,1693.34 0,935.18 -758.15,1693.33 -1693.34,1693.33 -935.18,0 -1693.33,-758.15 -1693.33,-1693.33 0,-935.19 758.15,-1693.34 1693.33,-1693.34z"/>
    <path id="1" class="fil2" d="M1727.19 33.85c0.53,0 1.05,0.02 1.58,0.02 -0.53,0 -1.05,-0.01 -1.58,-0.01 -0.53,0 -1.05,0.01 -1.58,0.01 0.53,0 1.05,-0.02 1.58,-0.02zm42.12 0.53c1.06,0.03 2.12,0.06 3.17,0.08 -1.05,-0.02 -2.11,-0.05 -3.17,-0.08zm43.42 1.61c1.07,0.06 2.14,0.11 3.21,0.17 -1.07,-0.06 -2.14,-0.11 -3.21,-0.17zm43.11 2.69c1.09,0.09 2.18,0.17 3.27,0.25 -1.09,-0.08 -2.18,-0.16 -3.27,-0.25zm42.81 3.76c1.12,0.12 2.23,0.23 3.34,0.34 -1.11,-0.11 -2.22,-0.22 -3.34,-0.34zm42.5 4.82c1.14,0.14 2.28,0.29 3.42,0.44 -1.14,-0.15 -2.28,-0.3 -3.42,-0.44zm42.16 5.86c1.17,0.17 2.35,0.35 3.52,0.53 -1.17,-0.18 -2.35,-0.36 -3.52,-0.53zm41.82 6.88c1.2,0.21 2.41,0.43 3.62,0.65 -1.21,-0.22 -2.42,-0.44 -3.62,-0.65zm41.46 7.9c1.24,0.25 2.49,0.5 3.73,0.76 -1.24,-0.26 -2.49,-0.51 -3.73,-0.76zm41.1 8.9c1.28,0.29 2.55,0.58 3.83,0.88 -1.28,-0.3 -2.55,-0.59 -3.83,-0.88zm40.73 9.88c1.3,0.34 2.61,0.67 3.92,1.01 -1.31,-0.34 -2.62,-0.67 -3.92,-1.01zm40.33 10.87c1.34,0.37 2.67,0.75 4.01,1.13 -1.34,-0.38 -2.67,-0.76 -4.01,-1.13zm39.94 11.82c1.36,0.42 2.72,0.85 4.08,1.27 -1.36,-0.42 -2.72,-0.85 -4.08,-1.27zm39.52 12.78c1.38,0.46 2.77,0.93 4.15,1.4 -1.38,-0.47 -2.77,-0.94 -4.15,-1.4zm39.1 13.71c1.4,0.51 2.8,1.03 4.2,1.54 -1.4,-0.51 -2.8,-1.03 -4.2,-1.54zm38.66 14.64c1.41,0.56 2.82,1.11 4.23,1.67 -1.41,-0.56 -2.82,-1.11 -4.23,-1.67zm38.21 15.55c1.41,0.6 2.83,1.2 4.24,1.8 -1.41,-0.6 -2.83,-1.2 -4.24,-1.8zm37.74 16.45c1.42,0.64 2.83,1.28 4.25,1.92 -1.42,-0.64 -2.83,-1.28 -4.25,-1.92zm37.27 17.34c1.41,0.68 2.82,1.36 4.23,2.04 -1.41,-0.68 -2.82,-1.36 -4.23,-2.04zm36.79 18.22c1.39,0.71 2.78,1.42 4.17,2.14 -1.39,-0.72 -2.78,-1.43 -4.17,-2.14zm36.28 19.08c1.37,0.74 2.74,1.48 4.11,2.23 -1.37,-0.75 -2.74,-1.49 -4.11,-2.23zm35.77 19.93c1.34,0.77 2.68,1.54 4.02,2.31 -1.34,-0.77 -2.68,-1.54 -4.02,-2.31zm35.24 20.77c1.3,0.79 2.61,1.58 3.91,2.37 -1.3,-0.79 -2.61,-1.58 -3.91,-2.37zm34.69 21.59c1.27,0.81 2.53,1.62 3.79,2.43 -1.26,-0.81 -2.52,-1.62 -3.79,-2.43zm34.14 22.41c1.22,0.82 2.44,1.64 3.65,2.46 -1.21,-0.82 -2.43,-1.64 -3.65,-2.46zm33.57 23.21c1.17,0.82 2.33,1.65 3.49,2.47 -1.16,-0.82 -2.32,-1.65 -3.49,-2.47zm32.99 23.99c1.1,0.82 2.21,1.65 3.31,2.48 -1.1,-0.83 -2.21,-1.66 -3.31,-2.48zm32.39 24.77c1.04,0.82 2.08,1.63 3.12,2.45 -1.04,-0.82 -2.08,-1.63 -3.12,-2.45zm31.77 25.53c0.98,0.8 1.95,1.61 2.93,2.41 -0.98,-0.8 -1.95,-1.61 -2.93,-2.41zm31.15 26.27c0.91,0.79 1.81,1.58 2.72,2.36 -0.91,-0.78 -1.81,-1.57 -2.72,-2.36zm30.5 27.01c0.84,0.76 1.68,1.53 2.52,2.29 -0.84,-0.76 -1.68,-1.53 -2.52,-2.29zm29.85 27.73c0.77,0.73 1.54,1.47 2.3,2.2 -0.76,-0.73 -1.53,-1.47 -2.3,-2.2zm29.17 28.44c0.7,0.7 1.4,1.4 2.1,2.1 -0.35,-0.35 -0.69,-0.71 -1.04,-1.06 -0.35,-0.35 -0.71,-0.69 -1.06,-1.04zm28.34 28.97c0.73,0.76 1.47,1.53 2.2,2.3 -0.73,-0.77 -1.47,-1.54 -2.2,-2.3zm27.64 29.63c0.76,0.84 1.53,1.68 2.29,2.52 -0.76,-0.84 -1.53,-1.68 -2.29,-2.52zm26.94 30.3c0.78,0.91 1.57,1.81 2.36,2.72 -0.79,-0.91 -1.58,-1.81 -2.36,-2.72zm26.22 30.94c0.8,0.98 1.61,1.95 2.41,2.93 -0.8,-0.98 -1.61,-1.95 -2.41,-2.93zm25.49 31.58c0.82,1.04 1.63,2.08 2.45,3.12 -0.82,-1.04 -1.63,-2.08 -2.45,-3.12zm24.74 32.2c0.83,1.1 1.66,2.21 2.48,3.31 -0.82,-1.1 -1.65,-2.21 -2.48,-3.31zm24 32.81c0.82,1.16 1.65,2.32 2.47,3.49 -0.82,-1.17 -1.65,-2.33 -2.47,-3.49zm23.22 33.41c0.82,1.21 1.64,2.43 2.46,3.65 -0.82,-1.22 -1.64,-2.44 -2.46,-3.65zm22.44 34c0.81,1.26 1.62,2.52 2.43,3.79 -0.81,-1.27 -1.62,-2.53 -2.43,-3.79zm21.65 34.57c0.79,1.3 1.58,2.61 2.37,3.91 -0.79,-1.3 -1.58,-2.61 -2.37,-3.91zm20.83 35.13c0.77,1.34 1.54,2.68 2.31,4.02 -0.77,-1.34 -1.54,-2.68 -2.31,-4.02zm20.01 35.68c0.75,1.37 1.49,2.74 2.23,4.11 -0.74,-1.37 -1.48,-2.74 -2.23,-4.11zm19.17 36.22c0.72,1.39 1.43,2.78 2.14,4.17 -0.71,-1.39 -1.42,-2.78 -2.14,-4.17zm18.32 36.73c0.68,1.41 1.36,2.82 2.04,4.23 -0.68,-1.41 -1.36,-2.82 -2.04,-4.23zm17.46 37.25c0.64,1.42 1.28,2.83 1.92,4.25 -0.64,-1.42 -1.28,-2.83 -1.92,-4.25zm16.57 37.75c0.6,1.41 1.2,2.83 1.8,4.24 -0.6,-1.41 -1.2,-2.83 -1.8,-4.24zm15.68 38.22c0.56,1.41 1.11,2.82 1.67,4.23 -0.56,-1.41 -1.11,-2.82 -1.67,-4.23zm14.77 38.69c0.51,1.4 1.03,2.8 1.54,4.2 -0.51,-1.4 -1.03,-2.8 -1.54,-4.2zm13.85 39.15c0.47,1.38 0.94,2.77 1.4,4.15 -0.46,-1.38 -0.93,-2.77 -1.4,-4.15zm12.91 39.59c0.42,1.36 0.85,2.72 1.27,4.08 -0.42,-1.36 -0.85,-2.72 -1.27,-4.08zm11.96 40.01c0.38,1.34 0.76,2.67 1.13,4.01 -0.37,-1.34 -0.75,-2.67 -1.13,-4.01zm10.99 40.42c0.34,1.31 0.67,2.62 1.01,3.92 -0.34,-1.3 -0.67,-2.61 -1.01,-3.92zm10.01 40.82c0.3,1.28 0.59,2.55 0.88,3.83 -0.29,-1.28 -0.58,-2.55 -0.88,-3.83zm9.02 41.2c0.26,1.24 0.51,2.49 0.76,3.73 -0.25,-1.24 -0.5,-2.49 -0.76,-3.73zm8.01 41.57c0.22,1.21 0.44,2.42 0.65,3.62 -0.21,-1.2 -0.43,-2.41 -0.65,-3.62zm7 41.92c0.18,1.17 0.36,2.35 0.53,3.52 -0.17,-1.17 -0.35,-2.35 -0.53,-3.52zm5.95 42.26c0.15,1.14 0.3,2.28 0.44,3.42 -0.14,-1.14 -0.29,-2.28 -0.44,-3.42zm4.92 42.58c0.11,1.11 0.22,2.22 0.34,3.34 -0.12,-1.12 -0.23,-2.23 -0.34,-3.34zm3.85 42.88c0.08,1.09 0.16,2.18 0.25,3.27 -0.09,-1.09 -0.17,-2.18 -0.25,-3.27zm2.77 43.17c0.06,1.07 0.11,2.14 0.17,3.21 -0.06,-1.07 -0.11,-2.14 -0.17,-3.21zm1.7 43.46c0.02,1.05 0.05,2.11 0.08,3.17 -0.03,-1.06 -0.06,-2.12 -0.08,-3.17zm0.59 43.71c0,0.53 0.02,1.05 0.02,1.58 0,0.53 -0.02,1.05 -0.02,1.58 0,-0.53 0.01,-1.05 0.01,-1.58 0,-0.53 -0.01,-1.05 -0.01,-1.58zm-0.51 43.7c-0.03,1.06 -0.06,2.12 -0.08,3.18 0.02,-1.06 0.05,-2.12 0.08,-3.18zm-1.61 43.41c-0.06,1.07 -0.11,2.15 -0.17,3.22 0.06,-1.07 0.11,-2.15 0.17,-3.22zm-2.69 43.11c-0.09,1.1 -0.17,2.2 -0.25,3.3 0.08,-1.1 0.16,-2.2 0.25,-3.3zm-3.76 42.8c-0.12,1.13 -0.23,2.26 -0.35,3.39 0.12,-1.13 0.23,-2.26 0.35,-3.39zm-4.82 42.48c-0.14,1.17 -0.29,2.33 -0.44,3.5 0.15,-1.17 0.3,-2.33 0.44,-3.5zm-5.85 42.15c-0.18,1.2 -0.37,2.41 -0.55,3.62 0.18,-1.21 0.37,-2.42 0.55,-3.62zm-6.88 41.8c-0.22,1.25 -0.44,2.5 -0.67,3.75 0.23,-1.25 0.45,-2.5 0.67,-3.75zm-7.89 41.45c-0.27,1.3 -0.53,2.59 -0.8,3.88 0.27,-1.29 0.53,-2.58 0.8,-3.88zm-8.9 41.09c-0.3,1.34 -0.61,2.67 -0.92,4.01 0.31,-1.34 0.62,-2.67 0.92,-4.01zm-9.88 40.71c-0.35,1.38 -0.71,2.75 -1.06,4.13 0.35,-1.38 0.71,-2.75 1.06,-4.13zm-10.85 40.32c-0.41,1.42 -0.81,2.83 -1.21,4.25 0.4,-1.42 0.8,-2.83 1.21,-4.25zm-11.82 39.92c-0.45,1.45 -0.9,2.9 -1.36,4.35 0.46,-1.45 0.91,-2.9 1.36,-4.35zm-12.77 39.51c-0.5,1.48 -1,2.96 -1.5,4.44 0.5,-1.48 1,-2.96 1.5,-4.44zm-13.71 39.09c-0.55,1.5 -1.1,3.01 -1.65,4.51 0.55,-1.5 1.1,-3.01 1.65,-4.51zm-14.63 38.65c-0.6,1.52 -1.2,3.04 -1.8,4.56 0.6,-1.52 1.2,-3.04 1.8,-4.56zm-15.54 38.2c-0.65,1.53 -1.3,3.06 -1.95,4.59 0.65,-1.53 1.3,-3.06 1.95,-4.59zm-16.45 37.74c-0.69,1.53 -1.38,3.07 -2.08,4.6 0.7,-1.53 1.39,-3.07 2.08,-4.6zm-17.33 37.26c-0.73,1.54 -1.47,3.07 -2.21,4.6 0.74,-1.53 1.48,-3.06 2.21,-4.6zm-18.21 36.79c-0.77,1.51 -1.55,3.03 -2.33,4.54 0.78,-1.51 1.56,-3.03 2.33,-4.54zm-19.07 36.28c-0.81,1.49 -1.62,2.99 -2.44,4.48 0.82,-1.49 1.63,-2.99 2.44,-4.48zm-19.92 35.76c-0.84,1.47 -1.69,2.94 -2.53,4.4 0.84,-1.46 1.69,-2.93 2.53,-4.4zm-20.77 35.25c-0.86,1.43 -1.73,2.85 -2.6,4.28 0.87,-1.43 1.74,-2.86 2.6,-4.28zm-21.59 34.69c-0.88,1.39 -1.77,2.77 -2.66,4.16 0.89,-1.39 1.78,-2.77 2.66,-4.16zm-22.4 34.15c-0.9,1.33 -1.8,2.67 -2.7,4 0.9,-1.33 1.8,-2.67 2.7,-4zm-23.21 33.58c-0.9,1.27 -1.81,2.55 -2.72,3.82 0.91,-1.27 1.82,-2.55 2.72,-3.82zm-23.99 32.99c-0.91,1.21 -1.81,2.42 -2.72,3.64 0.91,-1.22 1.81,-2.43 2.72,-3.64zm-24.77 32.39c-0.9,1.15 -1.8,2.29 -2.7,3.44 0.9,-1.15 1.8,-2.29 2.7,-3.44zm-25.53 31.79c-0.88,1.07 -1.77,2.14 -2.66,3.22 0.89,-1.08 1.78,-2.15 2.66,-3.22zm-26.28 31.15c-0.86,1 -1.73,2 -2.59,3 0.86,-1 1.73,-2 2.59,-3zm-27.01 30.52c-0.84,0.92 -1.67,1.84 -2.51,2.76 0.84,-0.92 1.67,-1.84 2.51,-2.76zm-27.73 29.85c-0.81,0.85 -1.61,1.69 -2.42,2.54 0.81,-0.85 1.61,-1.69 2.42,-2.54zm-28.44 29.19c-0.77,0.77 -1.54,1.54 -2.31,2.31 0.38,-0.39 0.77,-0.76 1.16,-1.15 0.39,-0.39 0.76,-0.78 1.15,-1.16zm-28.98 28.34c-0.83,0.8 -1.67,1.6 -2.51,2.4 0.84,-0.8 1.68,-1.6 2.51,-2.4zm-29.63 27.65c-0.91,0.82 -1.82,1.65 -2.72,2.47 0.9,-0.82 1.81,-1.65 2.72,-2.47zm-30.29 26.93c-0.98,0.85 -1.96,1.7 -2.94,2.55 0.98,-0.85 1.96,-1.7 2.94,-2.55zm-30.93 26.22c-1.06,0.87 -2.11,1.74 -3.17,2.61 1.06,-0.87 2.11,-1.74 3.17,-2.61zm-31.57 25.49c-1.13,0.88 -2.25,1.77 -3.38,2.65 1.13,-0.88 2.25,-1.77 3.38,-2.65zm-32.19 24.74c-1.2,0.9 -2.39,1.79 -3.59,2.69 1.2,-0.9 2.39,-1.79 3.59,-2.69zm-32.8 23.99c-1.26,0.9 -2.53,1.8 -3.79,2.69 1.26,-0.89 2.53,-1.79 3.79,-2.69zm-33.39 23.21c-1.33,0.9 -2.66,1.8 -3.99,2.69 1.33,-0.89 2.66,-1.79 3.99,-2.69zm-33.99 22.44c-1.38,0.89 -2.76,1.78 -4.15,2.66 1.39,-0.88 2.77,-1.77 4.15,-2.66zm-34.55 21.64c-1.44,0.88 -2.87,1.75 -4.31,2.62 1.44,-0.87 2.87,-1.74 4.31,-2.62zm-35.12 20.83c-1.48,0.86 -2.96,1.71 -4.44,2.56 1.48,-0.85 2.96,-1.7 4.44,-2.56zm-35.67 20.02c-1.52,0.82 -3.03,1.65 -4.55,2.47 1.52,-0.82 3.03,-1.65 4.55,-2.47zm-36.21 19.17c-1.54,0.79 -3.08,1.59 -4.63,2.37 1.55,-0.78 3.09,-1.58 4.63,-2.37zm-36.73 18.33c-1.56,0.75 -3.12,1.5 -4.69,2.26 1.57,-0.76 3.13,-1.51 4.69,-2.26zm-37.24 17.45c-1.58,0.72 -3.15,1.43 -4.73,2.14 1.58,-0.71 3.15,-1.42 4.73,-2.14zm-37.74 16.58c-1.58,0.67 -3.16,1.34 -4.73,2.01 1.57,-0.67 3.15,-1.34 4.73,-2.01zm-38.23 15.69c-1.57,0.62 -3.14,1.24 -4.71,1.86 1.57,-0.62 3.14,-1.24 4.71,-1.86zm-38.7 14.78c-1.55,0.57 -3.11,1.14 -4.66,1.71 1.55,-0.57 3.11,-1.14 4.66,-1.71zm-39.15 13.86c-1.54,0.52 -3.07,1.04 -4.6,1.55 1.53,-0.51 3.06,-1.03 4.6,-1.55zm-39.6 12.92c-1.5,0.47 -3.01,0.93 -4.51,1.4 1.5,-0.47 3.01,-0.93 4.51,-1.4zm-40.03 11.97c-1.47,0.41 -2.93,0.83 -4.4,1.25 1.47,-0.42 2.93,-0.84 4.4,-1.25zm-40.44 11c-1.43,0.37 -2.85,0.73 -4.27,1.1 1.42,-0.37 2.84,-0.73 4.27,-1.1zm-40.84 10.02c-1.38,0.32 -2.76,0.64 -4.14,0.96 1.38,-0.32 2.76,-0.64 4.14,-0.96zm-41.22 9.03c-1.34,0.27 -2.67,0.55 -4,0.82 1.33,-0.27 2.66,-0.55 4,-0.82zm-41.59 8.02c-1.29,0.23 -2.57,0.46 -3.85,0.69 1.28,-0.23 2.56,-0.46 3.85,-0.69zm-41.95 7c-1.23,0.19 -2.46,0.38 -3.7,0.57 1.24,-0.19 2.47,-0.38 3.7,-0.57zm-42.28 5.96c-1.18,0.16 -2.37,0.31 -3.56,0.46 1.19,-0.15 2.38,-0.3 3.56,-0.46zm-42.59 4.92c-1.15,0.12 -2.29,0.23 -3.44,0.35 1.15,-0.12 2.29,-0.23 3.44,-0.35zm-42.91 3.85c-1.11,0.09 -2.21,0.17 -3.32,0.26 1.11,-0.09 2.21,-0.17 3.32,-0.26zm-43.19 2.78c-1.08,0.06 -2.16,0.11 -3.24,0.17 1.08,-0.06 2.16,-0.11 3.24,-0.17zm-43.46 1.7c-1.06,0.02 -2.12,0.05 -3.18,0.08 1.06,-0.03 2.12,-0.06 3.18,-0.08zm-43.72 0.59c-0.53,0 -1.05,0.02 -1.58,0.02 -0.53,0 -1.05,-0.02 -1.58,-0.02 0.53,0 1.05,0.01 1.58,0.01 0.53,0 1.05,-0.01 1.58,-0.01zm-43.7 -0.51c-1.06,-0.03 -2.12,-0.06 -3.18,-0.08 1.06,0.02 2.12,0.05 3.18,0.08zm-43.41 -1.61c-1.07,-0.06 -2.15,-0.11 -3.22,-0.17 1.07,0.06 2.15,0.11 3.22,0.17zm-43.11 -2.69c-1.1,-0.09 -2.2,-0.17 -3.3,-0.25 1.1,0.08 2.2,0.16 3.3,0.25zm-42.8 -3.76c-1.13,-0.12 -2.26,-0.23 -3.39,-0.35 1.13,0.12 2.26,0.23 3.39,0.35zm-42.48 -4.82c-1.17,-0.14 -2.33,-0.29 -3.5,-0.44 1.17,0.15 2.33,0.3 3.5,0.44zm-42.15 -5.85c-1.2,-0.18 -2.41,-0.37 -3.62,-0.55 1.21,0.18 2.42,0.37 3.62,0.55zm-41.8 -6.88c-1.25,-0.22 -2.5,-0.44 -3.75,-0.67 1.25,0.23 2.5,0.45 3.75,0.67zm-41.45 -7.89c-1.3,-0.27 -2.59,-0.53 -3.89,-0.8 1.3,0.27 2.59,0.53 3.89,0.8zm-41.09 -8.9c-1.34,-0.3 -2.67,-0.61 -4.01,-0.92 1.34,0.31 2.67,0.62 4.01,0.92zm-40.7 -9.88c-1.39,-0.35 -2.77,-0.71 -4.15,-1.06 1.38,0.35 2.76,0.71 4.15,1.06zm-40.32 -10.85c-1.42,-0.4 -2.85,-0.81 -4.27,-1.21 1.42,0.4 2.85,0.81 4.27,1.21zm-39.92 -11.82c-1.46,-0.45 -2.92,-0.91 -4.37,-1.36 1.45,0.45 2.91,0.91 4.37,1.36zm-39.51 -12.77c-1.49,-0.5 -2.98,-1 -4.46,-1.51 1.48,0.51 2.97,1.01 4.46,1.51zm-39.08 -13.7c-1.52,-0.55 -3.03,-1.11 -4.54,-1.67 1.51,0.56 3.02,1.12 4.54,1.67zm-38.65 -14.63c-1.53,-0.6 -3.07,-1.21 -4.6,-1.82 1.53,0.61 3.07,1.22 4.6,1.82zm-38.2 -15.54c-1.54,-0.65 -3.09,-1.31 -4.64,-1.97 1.55,0.66 3.1,1.32 4.64,1.97zm-37.73 -16.45c-1.56,-0.69 -3.11,-1.4 -4.66,-2.1 1.55,0.7 3.1,1.41 4.66,2.1zm-37.27 -17.32c-1.55,-0.75 -3.1,-1.5 -4.64,-2.24 1.54,0.74 3.09,1.49 4.64,2.24zm-36.77 -18.21c-1.54,-0.79 -3.08,-1.57 -4.62,-2.36 1.54,0.79 3.08,1.57 4.62,2.36zm-36.28 -19.07c-1.52,-0.82 -3.04,-1.65 -4.56,-2.48 1.52,0.83 3.04,1.66 4.56,2.48zm-35.76 -19.92c-1.5,-0.86 -2.99,-1.72 -4.49,-2.58 1.5,0.86 2.99,1.72 4.49,2.58zm-35.24 -20.76c-1.46,-0.88 -2.92,-1.77 -4.38,-2.66 1.46,0.89 2.92,1.78 4.38,2.66zm-34.69 -21.58c-1.42,-0.91 -2.84,-1.82 -4.26,-2.73 1.42,0.91 2.84,1.82 4.26,2.73zm-34.14 -22.4c-1.37,-0.93 -2.75,-1.85 -4.12,-2.78 1.37,0.93 2.75,1.85 4.12,2.78zm-33.57 -23.2c-1.32,-0.94 -2.64,-1.87 -3.96,-2.81 1.32,0.94 2.64,1.87 3.96,2.81zm-32.99 -23.99c-1.26,-0.94 -2.52,-1.88 -3.78,-2.82 1.26,0.94 2.52,1.88 3.78,2.82zm-32.39 -24.76c-1.19,-0.94 -2.39,-1.88 -3.58,-2.82 1.19,0.94 2.39,1.88 3.58,2.82zm-31.77 -25.52c-1.13,-0.93 -2.26,-1.86 -3.39,-2.79 1.13,0.93 2.26,1.86 3.39,2.79zm-31.15 -26.27c-1.06,-0.92 -2.12,-1.83 -3.18,-2.75 1.06,0.92 2.12,1.83 3.18,2.75zm-30.51 -27.01c-0.99,-0.89 -1.97,-1.78 -2.95,-2.68 0.98,0.9 1.96,1.79 2.95,2.68zm-29.85 -27.72c-0.91,-0.87 -1.83,-1.73 -2.74,-2.61 0.91,0.87 1.83,1.74 2.74,2.61zm-29.18 -28.43c-0.84,-0.84 -1.68,-1.68 -2.52,-2.52 0.42,0.42 0.83,0.85 1.25,1.27 0.42,0.42 0.85,0.83 1.27,1.25zm-28.34 -28.96c-0.88,-0.91 -1.74,-1.83 -2.61,-2.74 0.87,0.91 1.73,1.83 2.61,2.74zm-27.65 -29.64c-0.9,-0.98 -1.79,-1.96 -2.68,-2.95 0.89,0.99 1.78,1.97 2.68,2.95zm-26.94 -30.28c-0.92,-1.06 -1.83,-2.12 -2.75,-3.18 0.92,1.06 1.83,2.12 2.75,3.18zm-26.23 -30.94c-0.93,-1.13 -1.86,-2.26 -2.79,-3.39 0.93,1.13 1.86,2.26 2.79,3.39zm-25.49 -31.58c-0.94,-1.19 -1.88,-2.39 -2.82,-3.58 0.94,1.19 1.88,2.39 2.82,3.58zm-24.76 -32.19c-0.94,-1.26 -1.88,-2.52 -2.82,-3.78 0.94,1.26 1.88,2.52 2.82,3.78zm-24 -32.81c-0.94,-1.32 -1.87,-2.64 -2.81,-3.96 0.94,1.32 1.87,2.64 2.81,3.96zm-23.23 -33.41c-0.93,-1.37 -1.85,-2.75 -2.78,-4.12 0.93,1.37 1.85,2.75 2.78,4.12zm-22.45 -34c-0.91,-1.42 -1.82,-2.84 -2.73,-4.26 0.91,1.42 1.82,2.84 2.73,4.26zm-21.65 -34.57c-0.89,-1.46 -1.78,-2.92 -2.66,-4.38 0.88,1.46 1.77,2.92 2.66,4.38zm-20.84 -35.13c-0.86,-1.5 -1.72,-2.99 -2.58,-4.49 0.86,1.5 1.72,2.99 2.58,4.49zm-20.02 -35.69c-0.83,-1.52 -1.66,-3.04 -2.48,-4.56 0.82,1.52 1.65,3.04 2.48,4.56zm-19.19 -36.22c-0.79,-1.54 -1.57,-3.08 -2.36,-4.62 0.79,1.54 1.57,3.08 2.36,4.62zm-18.33 -36.75c-0.74,-1.54 -1.49,-3.09 -2.24,-4.64 0.75,1.55 1.5,3.1 2.24,4.64zm-17.46 -37.25c-0.7,-1.55 -1.41,-3.1 -2.1,-4.66 0.69,1.56 1.4,3.11 2.1,4.66zm-16.58 -37.75c-0.66,-1.55 -1.32,-3.1 -1.97,-4.64 0.65,1.54 1.31,3.09 1.97,4.64zm-15.69 -38.24c-0.61,-1.53 -1.22,-3.07 -1.82,-4.6 0.6,1.53 1.21,3.07 1.82,4.6zm-14.78 -38.71c-0.56,-1.51 -1.12,-3.02 -1.67,-4.54 0.55,1.52 1.11,3.03 1.67,4.54zm-13.86 -39.16c-0.51,-1.48 -1.01,-2.97 -1.51,-4.46 0.5,1.49 1,2.98 1.51,4.46zm-12.92 -39.6c-0.45,-1.45 -0.91,-2.91 -1.36,-4.37 0.45,1.46 0.91,2.92 1.36,4.37zm-11.97 -40.02c-0.4,-1.42 -0.81,-2.85 -1.21,-4.27 0.4,1.42 0.81,2.85 1.21,4.27zm-11 -40.44c-0.35,-1.38 -0.71,-2.76 -1.06,-4.15 0.35,1.39 0.71,2.77 1.06,4.15zm-10.02 -40.84c-0.31,-1.34 -0.62,-2.67 -0.92,-4.01 0.3,1.34 0.61,2.67 0.92,4.01zm-9.02 -41.21c-0.27,-1.3 -0.53,-2.59 -0.8,-3.89 0.27,1.3 0.53,2.59 0.8,3.89zm-8.02 -41.59c-0.23,-1.25 -0.45,-2.5 -0.67,-3.75 0.22,1.25 0.44,2.5 0.67,3.75zm-7 -41.93c-0.18,-1.21 -0.37,-2.42 -0.55,-3.62 0.18,1.2 0.37,2.41 0.55,3.62zm-5.96 -42.27c-0.15,-1.17 -0.3,-2.33 -0.44,-3.5 0.14,1.17 0.29,2.33 0.44,3.5zm-4.91 -42.59c-0.12,-1.13 -0.23,-2.26 -0.35,-3.39 0.12,1.13 0.23,2.26 0.35,3.39zm-3.86 -42.89c-0.08,-1.1 -0.16,-2.2 -0.25,-3.3 0.09,1.1 0.17,2.2 0.25,3.3zm-2.77 -43.19c-0.06,-1.07 -0.11,-2.15 -0.17,-3.22 0.06,1.07 0.11,2.15 0.17,3.22zm-1.7 -43.45c-0.02,-1.06 -0.05,-2.12 -0.08,-3.18 0.03,1.06 0.06,2.12 0.08,3.18zm-0.59 -43.72c0,-0.53 -0.02,-1.05 -0.02,-1.58 0,-0.53 0.02,-1.05 0.02,-1.58 0,0.53 -0.01,1.05 -0.01,1.58 0,0.53 0.01,1.05 0.01,1.58zm0.51 -43.7c0.03,-1.06 0.06,-2.12 0.08,-3.18 -0.02,1.06 -0.05,2.12 -0.08,3.18zm1.61 -43.4c0.06,-1.08 0.11,-2.16 0.17,-3.24 -0.06,1.08 -0.11,2.16 -0.17,3.24zm2.69 -43.11c0.09,-1.11 0.17,-2.21 0.26,-3.32 -0.09,1.11 -0.17,2.21 -0.26,3.32zm3.76 -42.79c0.12,-1.15 0.23,-2.29 0.35,-3.44 -0.12,1.15 -0.23,2.29 -0.35,3.44zm4.81 -42.47c0.15,-1.19 0.3,-2.38 0.46,-3.56 -0.16,1.18 -0.31,2.37 -0.46,3.56zm5.85 -42.14c0.19,-1.24 0.38,-2.47 0.57,-3.7 -0.19,1.23 -0.38,2.46 -0.57,3.7zm6.88 -41.8c0.23,-1.28 0.46,-2.56 0.69,-3.85 -0.23,1.29 -0.46,2.57 -0.69,3.85zm7.89 -41.44c0.27,-1.33 0.55,-2.66 0.82,-4 -0.27,1.34 -0.55,2.67 -0.82,4zm8.89 -41.08c0.32,-1.38 0.64,-2.76 0.96,-4.14 -0.32,1.38 -0.64,2.76 -0.96,4.14zm9.88 -40.71c0.37,-1.42 0.73,-2.84 1.1,-4.27 -0.37,1.43 -0.73,2.85 -1.1,4.27zm10.85 -40.31c0.42,-1.47 0.84,-2.93 1.25,-4.4 -0.41,1.47 -0.83,2.93 -1.25,4.4zm11.82 -39.92c0.47,-1.5 0.93,-3.01 1.4,-4.51 -0.47,1.5 -0.93,3.01 -1.4,4.51zm12.77 -39.51c0.51,-1.53 1.03,-3.06 1.55,-4.6 -0.52,1.54 -1.04,3.07 -1.55,4.6zm13.7 -39.09c0.57,-1.55 1.14,-3.11 1.71,-4.66 -0.57,1.55 -1.14,3.11 -1.71,4.66zm14.63 -38.65c0.62,-1.57 1.24,-3.14 1.86,-4.71 -0.62,1.57 -1.24,3.14 -1.86,4.71zm15.54 -38.21c0.67,-1.57 1.34,-3.15 2.01,-4.73 -0.67,1.58 -1.34,3.16 -2.01,4.73zm16.45 -37.74c0.71,-1.58 1.42,-3.15 2.14,-4.73 -0.72,1.58 -1.43,3.15 -2.14,4.73zm17.33 -37.28c0.76,-1.57 1.51,-3.13 2.26,-4.69 -0.75,1.56 -1.5,3.12 -2.26,4.69zm18.22 -36.79c0.78,-1.55 1.58,-3.09 2.37,-4.63 -0.79,1.54 -1.59,3.08 -2.37,4.63zm19.07 -36.29c0.82,-1.52 1.65,-3.03 2.47,-4.55 -0.82,1.52 -1.65,3.03 -2.47,4.55zm19.93 -35.78c0.85,-1.48 1.7,-2.96 2.56,-4.44 -0.86,1.48 -1.71,2.96 -2.56,4.44zm20.77 -35.25c0.87,-1.44 1.74,-2.87 2.62,-4.31 -0.88,1.44 -1.75,2.87 -2.62,4.31zm21.6 -34.71c0.88,-1.39 1.77,-2.77 2.66,-4.15 -0.89,1.38 -1.78,2.76 -2.66,4.15zm22.41 -34.15c0.89,-1.33 1.79,-2.66 2.69,-3.99 -0.9,1.33 -1.8,2.66 -2.69,3.99zm23.21 -33.59c0.89,-1.26 1.79,-2.53 2.69,-3.79 -0.9,1.26 -1.8,2.53 -2.69,3.79zm23.99 -33c0.9,-1.2 1.79,-2.39 2.69,-3.59 -0.9,1.2 -1.79,2.39 -2.69,3.59zm24.78 -32.4c0.88,-1.13 1.77,-2.25 2.65,-3.38 -0.88,1.13 -1.77,2.25 -2.65,3.38zm25.53 -31.78c0.87,-1.06 1.74,-2.11 2.61,-3.17 -0.87,1.06 -1.74,2.11 -2.61,3.17zm26.28 -31.16c0.85,-0.98 1.7,-1.96 2.55,-2.94 -0.85,0.98 -1.7,1.96 -2.55,2.94zm27.01 -30.51c0.82,-0.9 1.65,-1.81 2.47,-2.72 -0.82,0.91 -1.65,1.82 -2.47,2.72zm27.72 -29.84c0.8,-0.84 1.6,-1.68 2.4,-2.51 -0.8,0.83 -1.6,1.67 -2.4,2.51zm28.43 -29.18c0.77,-0.77 1.54,-1.54 2.31,-2.31 -0.38,0.39 -0.77,0.76 -1.16,1.15 -0.39,0.39 -0.76,0.78 -1.15,1.16zm28.96 -28.33c0.85,-0.81 1.69,-1.61 2.54,-2.42 -0.85,0.81 -1.69,1.61 -2.54,2.42zm29.63 -27.64c0.92,-0.84 1.84,-1.67 2.76,-2.51 -0.92,0.84 -1.84,1.67 -2.76,2.51zm30.28 -26.93c1,-0.86 2,-1.73 3,-2.59 -1,0.86 -2,1.73 -3,2.59zm30.93 -26.21c1.08,-0.89 2.15,-1.78 3.22,-2.66 -1.07,0.88 -2.14,1.77 -3.22,2.66zm31.57 -25.49c1.15,-0.9 2.29,-1.8 3.44,-2.7 -1.15,0.9 -2.29,1.8 -3.44,2.7zm32.19 -24.75c1.22,-0.91 2.43,-1.81 3.64,-2.72 -1.21,0.91 -2.42,1.81 -3.64,2.72zm32.81 -23.99c1.27,-0.91 2.55,-1.82 3.82,-2.72 -1.27,0.9 -2.55,1.81 -3.82,2.72zm33.4 -23.23c1.33,-0.9 2.67,-1.8 4,-2.7 -1.33,0.9 -2.67,1.8 -4,2.7zm33.99 -22.44c1.39,-0.89 2.77,-1.78 4.16,-2.66 -1.39,0.88 -2.77,1.77 -4.16,2.66zm34.57 -21.65c1.43,-0.87 2.85,-1.74 4.28,-2.6 -1.42,0.86 -2.85,1.73 -4.28,2.6zm35.13 -20.84c1.46,-0.84 2.93,-1.69 4.4,-2.53 -1.47,0.84 -2.94,1.69 -4.4,2.53zm35.68 -20.01c1.49,-0.82 2.99,-1.63 4.48,-2.44 -1.49,0.81 -2.99,1.62 -4.48,2.44zm36.22 -19.18c1.51,-0.78 3.03,-1.56 4.54,-2.33 -1.51,0.77 -3.03,1.55 -4.54,2.33zm36.73 -18.33c1.53,-0.74 3.06,-1.48 4.6,-2.21 -1.54,0.73 -3.07,1.47 -4.6,2.21zm37.26 -17.46c1.53,-0.7 3.07,-1.39 4.6,-2.08 -1.53,0.69 -3.07,1.38 -4.6,2.08zm37.75 -16.58c1.53,-0.65 3.06,-1.3 4.59,-1.95 -1.53,0.65 -3.06,1.3 -4.59,1.95zm38.23 -15.69c1.52,-0.6 3.04,-1.2 4.56,-1.8 -1.52,0.6 -3.04,1.2 -4.56,1.8zm38.7 -14.78c1.5,-0.55 3.01,-1.1 4.51,-1.65 -1.5,0.55 -3.01,1.1 -4.51,1.65zm39.16 -13.86c1.48,-0.5 2.96,-1 4.44,-1.5 -1.48,0.5 -2.96,1 -4.44,1.5zm39.6 -12.91c1.45,-0.46 2.9,-0.91 4.35,-1.36 -1.45,0.45 -2.9,0.9 -4.35,1.36zm40.02 -11.97c1.42,-0.4 2.83,-0.8 4.25,-1.21 -1.42,0.41 -2.83,0.81 -4.25,1.21zm40.44 -11c1.38,-0.35 2.75,-0.71 4.13,-1.06 -1.38,0.35 -2.75,0.71 -4.13,1.06zm40.83 -10.02c1.34,-0.31 2.67,-0.62 4.01,-0.92 -1.34,0.3 -2.67,0.61 -4.01,0.92zm41.22 -9.02c1.29,-0.27 2.58,-0.53 3.88,-0.8 -1.3,0.27 -2.59,0.53 -3.88,0.8zm41.58 -8.02c1.25,-0.23 2.5,-0.45 3.75,-0.67 -1.25,0.22 -2.5,0.44 -3.75,0.67zm41.93 -7c1.21,-0.18 2.42,-0.37 3.62,-0.55 -1.2,0.18 -2.41,0.37 -3.62,0.55zm42.27 -5.96c1.17,-0.15 2.33,-0.3 3.5,-0.44 -1.17,0.14 -2.33,0.29 -3.5,0.44zm42.59 -4.91c1.13,-0.12 2.26,-0.23 3.39,-0.35 -1.13,0.12 -2.26,0.23 -3.39,0.35zm42.89 -3.86c1.1,-0.08 2.2,-0.16 3.3,-0.25 -1.1,0.09 -2.2,0.17 -3.3,0.25zm43.19 -2.77c1.07,-0.06 2.15,-0.11 3.22,-0.17 -1.07,0.06 -2.15,0.11 -3.22,0.17zm43.45 -1.7c1.06,-0.02 2.12,-0.05 3.18,-0.08 -1.06,0.03 -2.12,0.06 -3.18,0.08z"/>
   </g>
   <g>
    <path class="fil3" d="M1516.16 1016.58l2.35 -0.18 3.43 1.94 1.88 -0.04c3.27,0 2.7,-0.96 2.7,1.81l0.83 -0.51 3.6 2.28 1.71 -0.07 7.52 3.61 1.32 -0.36 3.49 2.12 1.81 -0.62 3.73 2.39 1.57 -0.6 3.7 2.37 1.61 -0.23 3.68 2 1.62 -0.46 10.65 3.99 1.72 -0.49 4.99 2.26 2.09 -0.88 5.42 2.65 1.65 -0.46 4.6 2.23 4.24 -0.62 5.28 2.38 1.79 -0.53 6.8 2.3 2.04 -0.6 6.21 2.37 4.39 -0.5 6.12 2.27 6.26 -0.28 5.95 2.05 6.42 -0.41 7.66 2.17 8.25 -0.94 13.68 2.71 5.77 -0.91 21.02 2.68 17.87 -0.11 28.29 0.11 25.84 0 14.82 -2.22 8.6 0.45 10.84 -2.28 4.99 0.51 9.15 -2.65 6.19 0.89 6.19 -2.19 2.54 0.42 8.07 -2.64 2.32 0.87 6.51 -2.46 4.42 0.69 4.42 -2.04 2.23 0.27 6.61 -2.89 2.86 1.13 4.21 -1.96 2.19 0.19 10.19 -3.98 1.3 0.44 4 -2.39 1.61 0.62 3.7 -2.33 1.7 0.57 3.6 -2.36 1.71 0.59 3.59 -2.18 1.21 0.41 7.63 -3.88 1.04 0.35c0,-2.61 -0.54,-1.73 2.5,-1.73l1.72 -0.04 7.12 -3.8 1.58 0.26 3.72 -2.19 1.56 0.42c0.17,-0.17 4.3,-5.87 4.3,0l-0.03 1.77 -6.56 12.2c-0.16,-0.31 -0.7,0.78 -1.04,1.18l-0.22 0.76c-2.14,8.05 -0.14,2.06 -3.31,4.75l0.24 0.56 -10.61 15.98c-1.22,1.51 -1.37,1.35 -2.51,2.74 -2.17,2.65 -1.59,2.44 -3.55,5.45l-20.7 19.75 -0.27 0.27c-2.32,3.83 0.05,1.13 -2.76,3.89 -0.39,0.39 -1.72,1.31 -2.17,1.63l-12.48 8.31 -0.71 0.32c-2.82,3.8 3.77,0.97 -4.59,3.45l-0.47 0.08c-2.91,3.26 3.6,1.12 -4.83,3.27l-0.75 0.27 -8.09 5.22 -1.13 0.08c0,2.7 0.59,1.86 -2.41,1.86l-1.17 -0.09c0,2.57 0.55,1.74 -2.36,1.74l-0.45 0.03c-1.12,0.87 -1.88,1.53 -3.9,2.78 -2,1.22 0.31,-0.02 -2.72,1.13l-1.14 -0.38 -2.4 1.69 -0.77 0.08c0,2.88 0.59,1.9 -2.77,1.9l-1.31 -0.13 -7.52 3.93 -0.97 -0.4 -7.87 3.73 -1.63 -0.19 -3.68 2.19 -1.43 -0.42 -3.87 2.17 -1.56 -0.41 -3.74 2.08 -2.02 -0.31 -5.06 2.36 -2.62 -0.59 -4.45 2.09 -6.15 -0.32 -9.76 2.28 -77.78 -0.45 -6.3 -1.83 -7.84 0.28 -4.54 -2.05 -2.53 0.57 -5.22 -2.34 -1.86 0.37 -9.41 -3.9 -1.19 0.5 -3.91 -2.27 -1.4 0.41 -3.59 -2.18 -1.71 0.36 -7.45 -3.89 -1.39 0.28 -7.59 -3.82 -1.25 0.15c-3.35,0 -2.74,0.97 -2.74,-1.92l-0.79 -0.12 -2.31 -1.65 -1.23 0.39 -13.39 -7.46 -0.75 0.16c-3.17,0 -2.56,0.89 -2.56,-1.92l-0.98 -0.15c-2.79,-0.98 -1.18,0.27 -4.8,-2.04 -2.3,-1.46 -1.91,-1.68 -3.37,-3.12l-0.67 -0.08c-6.89,-3.18 -15.58,-9.71 -21.16,-13.98 -4.44,-3.4 -5.25,-3.89 -9.61,-8.1 -3.11,-3.01 -6.2,-5.03 -9.78,-7.98 -4.75,-3.91 -28.8,-29.91 -31.93,-37.04l0 0c-3.77,0 -2.97,1.02 -2.97,-2.49l-1.18 -2.56 -1.18 -2.58 -2.7 -2.35 -1.03 -2.87 -2.27 -3.13 0.14 -1.69zm443.78 -81.1l-3.47 1.81 -3.39 1.84 -3.56 1.76 -3.65 1.77 -3.77 1.61 -2.85 1.59 -1.13 0 -7.7 3.79 -1.77 -0.25 -3.54 2.03 -1.45 -0.26 -3.85 2.37 -2.04 -0.6 -5.03 2.72 -2.93 -0.96 -4.14 1.87 -1.94 -0.1 -5.14 2.16 -2.05 -0.39 -6.78 2.71 -2.01 -0.94 -6.83 2.54 -3.31 -0.78 -7.3 2.66 -3.16 -0.89 -7.45 2.61 -5.31 -0.84 -14.13 2.7 -12.49 -0.93 -28.17 2.28c-15.65,-1.76 -127.73,-2.14 -139.66,0.49l-28.21 -2.77 -8.91 0.98 -14.08 -2.75 -3.6 0.56 -7.37 -2.33 -5.01 0.81 -6.99 -2.58 -1.85 0.59 -7 -2.35 -1.84 1.2 -6.78 -2.97 -2.05 0.07 -4.23 -1.84 -2.85 0.21 -4.29 -1.98 -2.78 0.63 -5.25 -2.39 -1.82 0.38c-1.89,-0.53 -3.92,-0.91 -5.77,-1.63 -5.24,-2.06 -2.33,-1.19 -4.08,-2.29l-0.76 0.31 -4.01 -2.08 -1.29 0.3 -3.74 -2.07 -1.56 0.29 -17.17 -9.12 -0.51 0.23c-3.4,0 -2.77,0.98 -2.77,-2l-0.77 0.78 -7.07 -0.11 -1.1 -0.67 -2.43 1.71 -1.58 0.06 -62.06 31.66 -1.42 0.16 -2.12 1.64 -1.21 0.12c0,2.58 0.56,1.76 -2.33,1.76l-1.19 0.01c0,2.58 0.56,1.76 -2.34,1.76l-1.19 0.01c0,2.58 0.56,1.76 -2.35,1.76l-1.19 0.01c0,2.58 0.56,1.76 -2.34,1.76l-0.88 0c0,2.85 0.6,1.91 -2.66,1.91l-0.84 -0.14c0,2.91 0.62,1.96 -2.69,1.96l-1.13 -0.19 -2.41 1.71 -0.5 0.06c-2.16,1.66 -19.23,12.41 -29.55,15.83l-1.23 0.08c0,2.56 0.56,1.76 -2.31,1.76l-1.15 0.01c0,2.62 0.56,1.78 -2.38,1.78l-0.88 -0.02c0,2.84 0.6,1.91 -2.66,1.91l-0.84 -0.14c0,2.91 0.62,1.96 -2.69,1.96l-1.13 -0.19 -2.41 1.71 -0.51 0.06c-0.44,0.33 -0.97,0.77 -1.3,1.01 -0.33,0.22 -0.88,0.69 -1.27,0.95 -7.15,4.72 5.67,-3.21 -2.53,1.54l-11.63 6.03c-5.66,3.01 -10.74,6.31 -16.35,8.05l-1.22 0.1c0,2.57 0.56,1.75 -2.31,1.75l-1.06 0.01c0,2.71 0.58,1.84 -2.48,1.84l-0.91 -0.07c0,2.85 0.61,1.92 -2.63,1.92l-1.23 -0.15 -2.3 1.66 -1.13 0.11 -2.41 1.72 -0.46 0.04 -7.52 4.75c-2.24,1.18 -3.47,1.8 -5.72,3.02 -4.82,2.59 -8.08,4.69 -12.81,6.22l-1.31 0.16 -2.23 1.71 -1.12 0.06c0,2.65 0.57,1.8 -2.41,1.8l-0.94 -0.04c0,2.83 0.61,1.91 -2.6,1.91l-1.24 -0.14 -2.3 1.66 -1.11 0.11c0,2.59 0.55,1.74 -2.42,1.74l-0.43 0.03c-0.44,0.34 -0.97,0.79 -1.32,1.03l-21.23 11.19 -1.21 0.15c0,2.59 0.57,1.77 -2.33,1.77l-1.04 0c0,2.7 0.58,1.82 -2.49,1.82l-0.86 -0.05c0,2.88 0.61,1.94 -2.68,1.94l-0.74 -0.18c-0.42,0.33 -0.94,0.76 -1.26,0.98 -0.3,0.21 -0.85,0.68 -1.22,0.92 -0.49,0.33 -17.84,10.97 -26.83,13.93l-1.2 0.08c0,2.59 0.56,1.77 -2.34,1.77l-1.1 0c0,2.68 0.58,1.82 -2.43,1.82l-0.92 -0.05c0,2.85 0.61,1.93 -2.62,1.93l-1.12 -0.16 -2.41 1.71 -1.04 0.06c0,2.63 0.55,1.74 -2.5,1.74l-0.41 0.02 -6.29 4.26c-2.19,1.2 -3.86,1.94 -5.76,2.99 -4.23,2.34 -6.04,3.62 -10.52,5.05l-1.29 0.08 -2.25 1.72 -1.1 0.05c0,2.67 0.58,1.82 -2.43,1.82l-0.86 -0.06c0,2.89 0.61,1.94 -2.68,1.94l-1.23 -0.17 -2.3 1.67 -0.58 0.1 -25.94 14 -1.29 0.14 -2.25 1.73 -1.09 0.04c0,2.69 0.58,1.83 -2.44,1.83l-0.92 -0.06c0,2.84 0.61,1.92 -2.62,1.92l-0.73 -0.15c-1.03,0.82 -1.86,1.59 -3.7,2.75l-9.27 5c-4.71,2.62 -8.21,4.77 -12.82,6.31l-1.21 0.08c0,2.58 0.56,1.77 -2.32,1.77l-1.04 0c0,2.7 0.57,1.82 -2.5,1.82l-0.84 -0.06c0,2.91 0.62,1.96 -2.69,1.96l-0.6 -0.19c-0.43,0.33 -0.96,0.77 -1.29,1l-24.63 13.06 -1.2 0.08c0,2.59 0.56,1.77 -2.34,1.77l-1.03 0c0,2.71 0.58,1.83 -2.5,1.83l-0.84 -0.06c0,2.91 0.61,1.96 -2.7,1.96l-0.59 -0.19 -25.92 14.06 -1.2 0.08c0,2.6 0.57,1.78 -2.34,1.78l-0.88 -0.01c0,2.84 0.6,1.9 -2.66,1.9l-0.84 -0.13c0,2.9 0.62,1.95 -2.69,1.95l-0.59 -0.19c-0.43,0.34 -0.95,0.78 -1.28,1.01 -0.32,0.22 -0.86,0.69 -1.25,0.95l-10.57 5.81c-4.78,2.67 -8.06,4.73 -12.83,6.3l-1.18 0.08c0,2.6 0.56,1.77 -2.35,1.77l-0.88 -0.01c0,2.84 0.6,1.91 -2.66,1.91l-0.86 -0.14c0,2.91 0.62,1.97 -2.67,1.97l-0.6 -0.2 -22.39 12.29 -1.38 0.08 -2.15 1.69 -1.12 0.08c0,2.67 0.57,1.82 -2.42,1.82l-0.84 -0.05c0,2.9 0.62,1.96 -2.69,1.96l-0.6 -0.19c-1,0.79 -2.01,1.67 -3.76,2.79 -2.98,1.9 1.66,-0.92 -2.41,1.37l-16.21 8.13 -1.2 0.08c0,2.6 0.57,1.78 -2.34,1.78l-1.04 -0.01c0,2.74 0.59,1.87 -2.5,1.87l-0.75 -0.1c0,2.96 0.62,1.98 -2.78,1.98l-0.58 -0.21 -4.87 3.64c-0.05,0.04 -3.2,1.8 -3.43,1.93 -3.26,1.8 -3.67,2.07 -7.03,3.18l-1.09 0.08c0,2.71 0.59,1.85 -2.45,1.85l-1.77 3.38 2.34 3.61 -0.57 1.78 2.16 3.53 -0.39 1.29 3.78 7.55 -0.24 1.41 3.76 7.43 -0.23 1.45 3.73 7.38 -0.19 1.49 3.71 7.35 -0.18 1.52 3.77 7.32 -0.23 1.31 3.94 7.53 -0.41 1.01c2.64,0 1.74,-0.55 1.74,2.53l0.03 1.78 2.31 3.52 -0.54 0.67c2.95,0 1.93,-0.6 1.93,2.87l-0.16 1.49 3.82 7.34 -0.29 1.19 3.97 7.65 -0.43 0.88c2.75,0 1.8,-0.56 1.8,2.66l-0.03 1.68 3.72 7.16 -0.19 1.31 4 7.53 -0.46 0.79c2.84,0 1.86,-0.59 1.86,2.74l-0.09 1.53 3.88 7.31 -0.35 1.03c2.63,0 1.74,-0.55 1.74,2.51l0.03 1.74 3.77 7.1 -0.24 1.24 4.02 7.6 -0.48 0.71c2.92,0 1.92,-0.61 1.92,2.82l-0.15 1.46 3.93 7.38 -0.4 0.95c2.7,0 1.78,-0.55 1.78,2.59l-0.01 1.65 3.82 7.19 -0.28 1.08 1.72 2.45 0.04 1.72 3.87 7.12 -0.33 1.02c2.64,0 1.75,-0.55 1.75,2.52l0.02 1.64 3.87 7.19 -0.34 0.97c2.69,0 1.78,-0.55 1.78,2.57l-0.01 1.61 3.9 7.23 -0.36 0.88c2.78,0 1.84,-0.58 1.84,2.66l-0.07 1.56 3.94 7.27 -0.41 0.85c2.8,0 1.85,-0.58 1.85,2.69l-0.08 1.51 3.96 7.33 -0.43 0.8c2.84,0 1.87,-0.59 1.87,2.73l-0.1 1.45 4 7.39 -0.46 0.74c2.9,0 1.91,-0.6 1.91,2.8l-0.14 1.39 4.06 7.45 -0.53 1.08 1.67 2.45 0.1 1.13 1.71 2.41 0.06 1.67 3.95 7.17 -0.42 0.75c2.9,0 1.91,-0.6 1.91,2.78l-0.14 1.32 5.71 11.06 -0.41 0.69c2.98,0 1.97,-0.62 1.97,2.84l-0.2 1.14 1.72 2.4 0.05 1.53 5.72 10.84 -0.42 1.04c2.62,0 1.73,-0.54 1.73,2.5l0.04 1.17 1.66 2.37 0.11 0.84c2.85,0 1.9,-0.6 1.9,2.69l-0.13 1.02c2.72,0 1.83,-0.58 1.83,2.52l-0.07 0.83c2.95,0 2,-0.63 2,2.7l-0.23 0.56 5.04 8.28 0.27 0.01c8.28,5.29 4.51,4.48 19.44,2.61l5.29 0.92 12.39 -2.74 6.43 0.97 7.71 -2.18 7.85 0.41 8.06 -2.36 3.41 0.59 10.73 -2.76 6.39 1 7.76 -2.18 7.68 0.41 6.46 -2.21 4.83 0.44 9.31 -2.68 5.23 0.91 8.91 -2.31 9.35 0.55 4.8 -1.96 3.27 0.19 9.1 -2.62 7.72 0.85 6.42 -2.11 5.24 0.34 10.67 -2.69 17.68 1.05 0 936.31 1020.03 0.36 0 -936.8 17.68 -0.96 10.8 2.73 5.11 -0.39 7.75 2.16 6.39 -0.44 8.83 2.21 5.31 -0.45 8.91 2.22 5.24 -0.38 6.29 2.14 7.85 -0.37 6.29 2.14 6.08 -0.98 10.49 2.75 3.66 -0.5 10.44 2.27 3.7 -1.15 11.92 2.91 3.99 -0.05 4.79 1.82 9.35 -0.46 7.8 2.23 6.34 -0.54 8.23 2.31 9.45 -0.46 15.91 0.58 7.07 -8.08 -0.01 -0.88c0,-2.89 -0.81,-2.33 1.78,-2.33l0.14 -1.21 5.16 -9.07 0.12 -1.53 1.65 -2.17 0.02 -1.37c0,-2.95 -0.84,-2.4 1.75,-2.4l-0.06 -1.14c0,-3.14 -0.91,-2.56 1.83,-2.56l0.13 -0.97 1.64 -2.4 -0.44 -1.14 5.74 -11.02 -0.05 -1.35c0,-3.18 -0.92,-2.61 1.82,-2.61l-0.25 -0.93 5.55 -10.98 -0.05 -1.39c0,-3.24 -0.95,-2.67 1.82,-2.67l-0.33 -0.87c0.68,-1.85 1.63,-4.89 2.41,-6.48 2.08,-4.28 1.93,-3.17 3.22,-4.7l-0.17 -1.19c0,-3.48 -1.02,-2.87 1.94,-2.87l-0.46 -0.67 3.99 -7.44 -0.1 -1.4c0,-3.35 -0.99,-2.76 1.87,-2.76l-0.39 -0.77 3.93 -7.36 -0.06 -1.48c0,-3.24 -0.94,-2.67 1.83,-2.67l-0.37 -0.87 3.9 -7.24 -0.03 -1.6c0,-3.17 -0.93,-2.61 1.8,-2.61l-0.33 -0.92 3.86 -7.19 0.01 -1.65c0,-3.07 -0.89,-2.52 1.76,-2.52l-0.3 -1.02c0.69,-1.84 1.65,-4.93 2.38,-6.47 2.1,-4.39 1.94,-3.26 3.23,-4.81l-0.26 -1.09c0.69,-1.84 1.64,-4.91 2.37,-6.44 2.06,-4.32 1.85,-3.15 3.19,-4.76l-0.2 -1.18 5.5 -11.12 -0.19 -1.25c0.7,-1.86 1.61,-4.9 2.32,-6.42 2.05,-4.42 1.85,-3.23 3.18,-4.85l-0.26 -1.1 3.79 -7.17 -0.01 -1.67c0,-3.14 -0.91,-2.58 1.78,-2.58l-0.33 -0.96 3.87 -7.34 -0.07 -1.5c0,-3.28 -0.96,-2.71 1.83,-2.71l-0.39 -0.82 3.93 -7.49 -0.14 -1.35c0.7,-1.88 1.58,-4.81 2.31,-6.37 2,-4.28 1.73,-3.08 3.13,-4.81l-0.2 -1.2 5.51 -11.32 -0.31 -1.05 3.84 -7.21 -0.03 -1.63c0,-3.2 -0.94,-2.63 1.8,-2.63l-0.38 -0.91 3.91 -7.4 -0.54 -1.44 4.08 -7.43 0.01 -1.41c0,-3.11 -0.91,-2.56 1.76,-2.56l-0.38 -0.97 3.91 -7.55 -0.19 -1.29 3.73 -7.25 -0.1 -1.59 3.64 -7.28 -0.14 -1.56 3.67 -7.31 -0.16 -1.53 3.7 -7.88 -0.57 -0.96 2.33 -3.94 -0.35 -1.36 3.89 -10.4 0 -6.76c-3.34,0 -2.6,0.89 -2.6,-2.29l-0.94 -0.08 -2.26 -1.68 -1.27 0.09c-3.05,0 -2.46,0.86 -2.46,-1.86l-1.08 -0.15 -15.37 -8.69 -0.54 0.22c-3.34,0 -2.72,0.96 -2.72,-1.99l-0.81 0.08c-3.04,0 -2.45,0.86 -2.45,-1.85l-1.09 -0.06c-4.76,-1.54 -6.91,-3.2 -11.57,-5.76 -1.84,-1.01 -4.19,-2.09 -5.81,-3.02l-5.05 -3.53 -0.55 -0.1 -2.26 -1.67 -1.28 0.12c-3.07,0 -2.47,0.87 -2.47,-1.89l-1.06 -0.02c-2.82,0 -2.26,0.79 -2.26,-1.74l-1.28 -0.1 -18.91 -10.51 -0.53 -0.04 -2.42 -1.73 -1.12 0.23c-3.35,0 -2.72,0.95 -2.72,-2l-0.81 0.09c-3.05,0 -2.46,0.87 -2.46,-1.85l-1.08 -0.04 -2.25 -1.73 -1.29 -0.24 -21.15 -11.11c-0.24,-0.71 -0.86,-0.69 -1.29,-1.03l-0.54 -0.08 -2.27 -1.68 -1.26 0.2c-3.34,0 -2.72,0.96 -2.72,-1.97l-0.82 0.09c-3.05,0 -2.46,0.86 -2.46,-1.86l-1.07 -0.04 -2.26 -1.73 -1.28 -0.23c-8.16,-2.49 -19.4,-9.83 -19.9,-10.15 -0.32,-0.2 -1.02,-0.28 -1.25,-0.97 -0.24,-0.71 -0.86,-0.68 -1.29,-1.02l-0.54 -0.08 -2.27 -1.69 -1.27 0.21c-3.34,0 -2.72,0.95 -2.72,-1.98l-0.81 0.09c-3.05,0 -2.46,0.86 -2.46,-1.86l-1.08 -0.04 -2.24 -1.72 -1.29 -0.24 -21.15 -11.11c-0.24,-0.71 -0.86,-0.69 -1.29,-1.03l-0.55 -0.08 -2.27 -1.69 -1.26 0.2c-3.33,0 -2.71,0.96 -2.71,-1.96l-0.83 0.08c-3.03,0 -2.45,0.86 -2.45,-1.85l-1.08 -0.05 -2.25 -1.72 -1.29 -0.23 -11.76 -5.62c-0.44,-0.27 -2.29,-1.13 -2.55,-1.9 -0.24,-0.74 -0.87,-0.73 -1.3,-1.09l-0.3 0.49c-2.49,-1 -1.86,-0.72 -4.05,-2 -0.32,-0.18 -1.05,-0.28 -1.29,-0.97 -0.25,-0.7 -0.85,-0.71 -1.28,-1.05l-0.45 -0.05 -2.39 -1.72 -1.14 0.21c-3.35,0 -2.72,0.96 -2.72,-1.98l-0.82 0.1c-3.11,0 -2.52,0.89 -2.52,-1.87l-1.02 -0.01c-2.87,0 -2.31,0.81 -2.31,-1.76l-1.22 -0.11 -15.62 -8.72 -0.29 0.49c-2.5,-1.01 -1.86,-0.72 -4.05,-2.01 -0.32,-0.18 -1.05,-0.28 -1.29,-0.96 -0.25,-0.71 -0.84,-0.72 -1.28,-1.06l-0.45 -0.05 -2.39 -1.72 -1.15 0.22c-3.33,0 -2.71,0.95 -2.71,-1.99l-0.82 0.12c-3.16,0 -2.56,0.9 -2.56,-1.88l-0.98 0.01c-2.94,0 -2.37,0.83 -2.37,-1.78l-1.17 -0.16 -19.15 -10.45 -0.29 0.5c-2.6,-1.04 -1.78,-0.67 -4.03,-2 -0.32,-0.19 -1.02,-0.3 -1.26,-0.97 -0.24,-0.7 -0.82,-0.72 -1.24,-1.06l-0.54 -0.09 -2.33 -1.68 -1.21 -0.12 -2.28 -1.65 -1.25 0.14c-3.21,0 -2.61,0.92 -2.61,-1.91l-0.93 -0.01c-2.84,0 -2.28,0.8 -2.28,-1.76l-1.26 -0.07 -19.72 -9.9c-1.74,-0.95 -2.06,-1.12 -3.71,-2.17l-2.54 -2 -0.54 -0.03c-3.01,0 -2.47,0.87 -2.47,-1.74l-1.07 -0.11 -2.25 -1.65 -1.28 0.11c-3.08,0 -2.48,0.87 -2.48,-1.88l-1.06 0.06c-3.02,0 -2.44,0.86 -2.44,-1.83l-1.1 -0.02c-2.84,0 -2.28,0.8 -2.28,-1.75l-1.25 -0.23 -26.02 -13.91 -0.5 -0.07 -2.36 -1.7 -1.17 0.2c-3.32,0 -2.7,0.95 -2.7,-1.96l-0.84 0.09c-3.11,0 -2.52,0.89 -2.52,-1.86l-1.01 0c-2.9,0 -2.34,0.81 -2.34,-1.77l-1.2 -0.1 -26.06 -14.04 -0.46 -0.05 -2.4 -1.72 -1.13 0.22c-3.38,0 -2.75,0.97 -2.75,-1.99l-0.79 0.13c-3.16,0 -2.57,0.9 -2.57,-1.9l-0.96 0.03c-2.96,0 -2.39,0.84 -2.39,-1.79l-1.15 -0.08 -2.2 -1.69 -1.34 -0.16c-4.55,-1.48 -7.12,-3.19 -11.62,-5.62l-10.82 -6.6 -0.54 -0.03c-2.99,0 -2.44,0.87 -2.44,-1.73l-1.09 -0.11 -2.26 -1.66 -1.28 0.13c-3.17,0 -2.56,0.9 -2.56,-1.9l-0.97 0.09c-3.05,0 -2.46,0.86 -2.46,-1.86l-1.08 -0.03c-2.82,0 -2.27,0.8 -2.27,-1.74l-1.26 -0.07 -2.2 -1.69 -1.34 -0.24c-10.19,-3.23 -17.14,-8.7 -19.15,-10.37l-0.3 0.49c-2.53,-1.03 -1.81,-0.7 -4.02,-2 -0.31,-0.19 -1.02,-0.29 -1.26,-0.97 -0.24,-0.7 -0.83,-0.71 -1.25,-1.06l-0.54 -0.03c-2.99,0 -2.45,0.87 -2.45,-1.73l-1.08 -0.11 -2.26 -1.66 -1.28 0.13c-3.17,0 -2.57,0.9 -2.57,-1.9l-0.96 0.09c-3.05,0 -2.46,0.86 -2.46,-1.86l-1.08 -0.02c-2.82,0 -2.27,0.79 -2.27,-1.75l-1.27 -0.05 -36.66 -19.39 -0.46 0.04c-3.13,0 -2.56,0.91 -2.56,-1.81l-0.98 -0.01c-3.02,0 -2.47,0.87 -2.47,-1.76l-1.06 -0.06 -2.4 -1.7 -1.14 -0.12 -2.33 -1.65 -1.2 -0.11 -2.33 -1.66 -1.21 -0.11 -2.33 -1.66 -1.2 -0.11 -2.33 -1.66 -1.21 0.23c-3.35,0 -2.72,0.96 -2.72,-1.99l-0.81 -0.13 -2.33 -1.64 -1.21 -0.11 -2.33 -1.66 -1.21 0.22c-3.34,0 -2.72,0.96 -2.72,-1.99l-0.81 -0.13 -2.32 -1.63 -1.22 -0.12 -2.31 -1.65 -1.22 -0.12 -2.32 -1.65 -1.22 0.3 -5.83 1.69z"/>
    <path id="1" class="fil4" d="M1516.16 1016.57l2.35 -0.18 3.43 1.94 1.88 -0.04c0.88,0 1.5,-0.08 1.9,-0.12 0.38,-0.04 0.61,-0.07 0.73,0.01 0.13,0.08 0.12,0.36 0.11,0.89l-0.03 1.02 0.81 -0.5c0,0 0.02,0 0.02,0l3.6 2.28 1.7 -0.07 7.52 3.61 1.32 -0.36 0 0 0.01 0 3.49 2.12 1.8 -0.62 0 0 0.01 0 3.73 2.39 1.56 -0.6 0 0 0.01 0 3.7 2.37 1.6 -0.23 3.68 2 1.62 -0.46 10.65 3.99 1.72 -0.49 4.99 2.26 2.09 -0.88 5.42 2.65 1.65 -0.46 4.6 2.23 4.24 -0.62 5.28 2.38 1.79 -0.53 6.8 2.3 2.04 -0.6 6.21 2.37 4.39 -0.5 6.12 2.27 6.26 -0.28 5.95 2.05 6.42 -0.41 7.66 2.17 8.25 -0.94 13.68 2.71 5.77 -0.91 21.02 2.68 17.87 -0.11 28.29 0.11 25.84 0 14.82 -2.22 8.6 0.45 10.84 -2.28 4.99 0.51 9.15 -2.65 6.19 0.89 6.19 -2.19 2.54 0.42 8.07 -2.64 2.32 0.87 6.51 -2.46 4.42 0.69 4.42 -2.04 2.23 0.27 6.61 -2.89 2.86 1.13 4.21 -1.96 2.19 0.19 10.19 -3.98 1.29 0.44 4 -2.39 0.01 0 0.01 0 0 0 1.59 0.62 3.7 -2.33 0.01 0 0.01 0 0 0 1.68 0.57 3.6 -2.36 0.01 0 0.01 0 0 0 1.69 0.59 3.59 -2.18 0.01 0 0.01 0 0 0 1.2 0.41 7.63 -3.88 1.03 0.35 -0.02 -0.99c-0.01,-0.49 -0.03,-0.74 0.09,-0.83 0.03,-0.02 0.07,-0.03 0.12,-0.03 -0.34,0.06 -0.18,0.45 -0.18,1.86l-1.04 -0.35 -7.63 3.88 -1.21 -0.41 -3.59 2.18 -1.71 -0.59 -3.6 2.36 -1.7 -0.57 -3.7 2.33 -1.61 -0.62 -4 2.39 -1.3 -0.44 -10.19 3.98 -2.19 -0.19 -4.21 1.96 -2.86 -1.13 -6.61 2.89 -2.23 -0.27 -4.42 2.04 -4.42 -0.69 -6.51 2.46 -2.32 -0.87 -8.07 2.64 -2.54 -0.42 -6.19 2.19 -6.19 -0.89 -9.15 2.65 -4.99 -0.51 -10.84 2.28 -8.6 -0.45 -14.82 2.22 -25.84 0 -28.29 -0.11 -17.87 0.11 -21.02 -2.68 -5.77 0.91 -13.68 -2.71 -8.25 0.94 -7.66 -2.17 -6.42 0.41 -5.95 -2.05 -6.26 0.28 -6.12 -2.27 -4.39 0.5 -6.21 -2.37 -2.04 0.6 -6.8 -2.3 -1.79 0.53 -5.28 -2.38 -4.24 0.62 -4.6 -2.23 -1.65 0.46 -5.42 -2.65 -2.09 0.88 -4.99 -2.26 -1.72 0.49 -10.65 -3.99 -1.62 0.46 -3.68 -2 -1.61 0.23 -3.7 -2.37 -1.57 0.6 -3.73 -2.39 -1.81 0.62 -3.49 -2.12 -1.32 0.36 -7.52 -3.61 -1.71 0.07 -3.6 -2.28 -0.83 0.51c0,-2.77 0.57,-1.81 -2.7,-1.81l-1.88 0.04 -3.43 -1.94 -2.35 0.18 -0.14 1.69 2.27 3.13 1.03 2.87 2.7 2.35 1.18 2.58 1.18 2.56c0,0.15 0,0.29 0,0.43l-0.03 0.66c-0.1,2.19 -0.31,1.4 3,1.4l0 0c3.13,7.13 27.18,33.13 31.93,37.04 3.58,2.95 6.67,4.97 9.78,7.98 4.36,4.21 5.17,4.7 9.61,8.1 5.58,4.27 14.27,10.8 21.16,13.98l0.67 0.08c1.46,1.44 1.07,1.66 3.37,3.12 3.62,2.31 2.01,1.06 4.8,2.04l0.98 0.15c0,2.81 -0.61,1.92 2.56,1.92l0.75 -0.16 13.39 7.46 1.23 -0.39 2.31 1.65 0.79 0.12c0,0.88 -0.06,1.41 -0.04,1.71 -0.01,-0.15 0,-0.34 0,-0.58l0.03 -1.12 -0.78 -0.12 -0.01 -0.01 0 0.01 -2.31 -1.65 -1.22 0.39 -13.39 -7.46 -0.75 0.16c-0.8,0 -1.37,0.07 -1.75,0.1 -0.4,0.03 -0.65,0.05 -0.76,-0.02 -0.12,-0.09 -0.11,-0.36 -0.09,-0.87l0.03 -1.13 -0.97 -0.15c-1,-0.35 -1.45,-0.43 -1.76,-0.46 -0.55,-0.08 -0.75,-0.12 -3.05,-1.58 -1.51,-0.96 -1.88,-1.4 -2.35,-1.98 -0.23,-0.3 -0.54,-0.66 -1.02,-1.14l0 0 -0.66 -0.08c-3.46,-1.59 -7.37,-4.03 -11.08,-6.58 -3.72,-2.56 -7.31,-5.28 -10.09,-7.4l-1.51 -1.15c-3.18,-2.42 -4.29,-3.28 -8.1,-6.95 -1.97,-1.91 -3.97,-3.45 -6.06,-5.05 -1.18,-0.9 -2.43,-1.87 -3.72,-2.93 -2.77,-2.28 -12.17,-12.15 -20.1,-21.34 -5.61,-6.51 -10.52,-12.74 -11.83,-15.7 -0.88,0 -1.53,0.07 -1.97,0.1 -0.52,0.04 -0.82,0.06 -0.95,-0.04 -0.14,-0.11 -0.12,-0.44 -0.1,-1.04l0.05 -1.52 -1.18 -2.56 -1.18 -2.57 0 0 -2.7 -2.35 0 -0.01 -1.03 -2.86 0 0 -2.27 -3.13 0 -0.01 0 -0.01 0 0 0.14 -1.68c0,0 0.01,-0.01 0.01,-0.01zm410.53 6.99c0.07,0.01 0.14,0.01 0.22,0.02 0.37,0.03 0.94,0.1 1.74,0.1l1.72 -0.04 7.12 -3.8 1.57 0.26 3.72 -2.19 0.01 0 0.01 0 0 0 1.54 0.42 0.11 -0.14c0.43,-0.53 2,-2.5 3.1,-2.5 0.62,0 1.11,0.67 1.11,2.65l-0.03 1.77 -6.56 12.2 -0.01 0c-0.16,-0.31 -0.7,0.78 -1.04,1.18l-0.22 0.76c-2.14,8.05 -0.14,2.06 -3.31,4.75l0.24 0.56 -10.61 15.98c-1.22,1.51 -1.37,1.35 -2.51,2.74 -2.17,2.65 -1.59,2.44 -3.55,5.45l-20.7 19.75 -0.27 0.27c-2.32,3.83 0.05,1.13 -2.76,3.89 -0.39,0.39 -1.72,1.31 -2.17,1.63l-12.48 8.31 -0.71 0.32c-1.43,1.93 -0.44,2.15 -0.21,2.22l-0.02 -0.01c-0.26,-0.08 -1.12,-0.37 0.24,-2.2l0 0 0.7 -0.32 0.01 0 12.48 -8.31 0.22 -0.16c0.56,-0.39 1.62,-1.14 1.95,-1.47l1.23 -1.18 0.3 -0.29 0 -0.01 0 0 0.05 -0.13c0.03,-0.16 0.15,-0.57 1.18,-2.28l0.27 -0.27 20.7 -19.75c0.71,-1.1 1.14,-1.87 1.46,-2.44 0.46,-0.84 0.78,-1.41 2.09,-3.01 0.54,-0.66 0.88,-0.99 1.19,-1.29 0.33,-0.32 0.7,-0.68 1.32,-1.45l10.61 -15.98 0 -0.01 0 0 -0.24 -0.55c1.38,-1.17 1.78,-0.67 1.95,-0.44 0.07,0.09 0.13,0.14 0.18,0.07 0.07,-0.09 0.18,-0.51 0.43,-1.5l0.75 -2.89 0.22 -0.75 0 0 0.37 -0.52c0.2,-0.31 0.42,-0.65 0.53,-0.7 0.05,-0.02 0.1,-0.01 0.12,0.03l0.01 0 6.56 -12.2 0.03 -1.77c0,-5.87 -4.13,-0.17 -4.3,0l-1.56 -0.42 -3.72 2.19 -1.58 -0.26 -7.12 3.8 -1.72 0.04c-0.98,0 -1.58,-0.09 -1.96,-0.13zm-44.88 76.59l0 0 0 0.02 -0.32 0.08c-0.5,0.11 -1.68,0.4 -4.11,1.11l-0.46 0.08 0 0c-1.31,1.47 -0.68,1.84 -0.42,1.99 0.1,0.05 0.15,0.1 0.09,0.14l-0.06 0.01c0.27,-0.11 -0.31,-0.12 -0.42,-0.57l0 0c-0.07,-0.29 0.07,-0.77 0.8,-1.58l0.47 -0.08c3.56,-1.06 4.41,-1.15 4.43,-1.2zm-6.25 3.69l-0.18 0.05 -3.3 0.82 -0.74 0.27 0 0 -8.09 5.22 -0.01 0 -1.12 0.08 0.03 1.1c0.02,0.48 0.04,0.73 -0.08,0.82 -0.1,0.08 -0.34,0.06 -0.73,0.03 -0.35,-0.03 -0.89,-0.09 -1.64,-0.09l-1.16 -0.09 0.03 1.02c0.01,0.47 0.03,0.71 -0.09,0.8 -0.09,0.06 -0.32,0.04 -0.68,0.01 -0.35,-0.03 -0.88,-0.09 -1.63,-0.09l-0.44 0.03 0 0 -0.5 0.39c-0.87,0.69 -1.7,1.34 -3.4,2.39l-0.84 0.53 -0.01 0 -0.11 0.06 -0.02 0c-0.03,0 -0.2,-0.04 -1.75,0.54l-1.13 -0.38 -2.4 1.69 -0.01 0 -0.76 0.08 0.03 1.08c0.01,0.55 0.02,0.84 -0.11,0.92 -0.03,0.02 -0.06,0.03 -0.11,0.04 0.34,-0.08 0.18,-0.53 0.18,-2.05l0.77 -0.08 2.4 -1.69 1.14 0.38c3.03,-1.15 0.72,0.09 2.72,-1.13 2.02,-1.25 2.78,-1.91 3.9,-2.78l0.45 -0.03c2.91,0 2.36,0.83 2.36,-1.74l1.17 0.09c3,0 2.41,0.84 2.41,-1.86l1.13 -0.08 8.09 -5.22 0.75 -0.27c1.7,-0.43 2.79,-0.69 3.48,-0.86zm-31.25 17.32c-0.1,0 -0.22,-0.01 -0.36,-0.02 -0.41,-0.04 -1.04,-0.12 -1.93,-0.12l-1.31 -0.13 -7.52 3.93 -0.97 -0.4 -7.87 3.73 -1.62 -0.19 -3.68 2.19 -0.01 0 -0.01 0 0 0 -1.42 -0.42 -3.87 2.17 -1.56 -0.41 -3.74 2.08 -2.02 -0.31 -5.06 2.36 -2.62 -0.59 -4.45 2.09 -6.15 -0.32 -9.76 2.28 -77.78 -0.45 -6.3 -1.83 -7.84 0.28 -4.54 -2.05 -2.53 0.57 -5.22 -2.34 -1.86 0.37 -9.41 -3.9 -1.19 0.5 -0.01 -0.01 0 0.01 -3.91 -2.27 -1.39 0.41 -0.01 -0.01 0 0.01 -3.59 -2.18 -1.7 0.36 -7.45 -3.89 -1.39 0.28 -7.59 -3.82 -1.25 0.15c-0.89,0 -1.5,0.08 -1.91,0.11 -0.4,0.04 -0.65,0.07 -0.76,-0.01 -0.05,-0.04 -0.08,-0.11 -0.1,-0.22 0.08,0.53 0.57,0.11 2.77,0.11l1.25 -0.15 7.59 3.82 1.39 -0.28 7.45 3.89 1.71 -0.36 3.59 2.18 1.4 -0.41 3.91 2.27 1.19 -0.5 9.41 3.9 1.86 -0.37 5.22 2.34 2.53 -0.57 4.54 2.05 7.84 -0.28 6.3 1.83 77.78 0.45 9.76 -2.28 6.15 0.32 4.45 -2.09 2.62 0.59 5.06 -2.36 2.02 0.31 3.74 -2.08 1.56 0.41 3.87 -2.17 1.43 0.42 3.68 -2.19 1.63 0.19 7.87 -3.73 0.97 0.4 7.52 -3.93 1.31 0.13c1.19,0 1.89,0.12 2.29,0.15zm-213.66 -2.02c0,0 0,-0.01 0,-0.01 0,0 0,0.01 0,0.01zm329.29 -183.66l-3.47 1.81 -3.39 1.84 -3.56 1.76 -3.65 1.77 -3.77 1.61 -2.85 1.59 -1.13 0 -7.7 3.79 -1.77 -0.25 -3.54 2.03 -1.45 -0.26 -3.85 2.37 -2.04 -0.6 -5.03 2.72 -2.93 -0.96 -4.14 1.87 -1.94 -0.1 -5.14 2.16 -2.05 -0.39 -6.78 2.71 -2.01 -0.94 -6.83 2.54 -3.31 -0.78 -7.3 2.66 -3.16 -0.89 -7.45 2.61 -5.31 -0.84 -14.13 2.7 -12.49 -0.93 -28.17 2.28c-15.65,-1.76 -127.73,-2.14 -139.66,0.49l-28.21 -2.77 -8.91 0.98 -14.08 -2.75 -3.6 0.56 -7.37 -2.33 -5.01 0.81 -6.99 -2.58 -1.85 0.59 -7 -2.35 -1.84 1.2 -6.78 -2.97 -2.05 0.07 -4.23 -1.84 -2.85 0.21 -4.29 -1.98 -2.78 0.63 -5.25 -2.39 -1.82 0.38c-1.89,-0.53 -3.92,-0.91 -5.77,-1.63 -5.24,-2.06 -2.33,-1.19 -4.08,-2.29l-0.76 0.31 -4.01 -2.08 -1.29 0.3 -3.74 -2.07 -1.56 0.29 -17.17 -9.12 -0.51 0.23c-2.07,0 -2.65,0.36 -2.78,-0.03 0.02,0.06 0.04,0.1 0.08,0.13 0.12,0.09 0.37,0.06 0.78,0.02 0.41,-0.03 1.04,-0.11 1.92,-0.11l0.51 -0.23 17.17 9.12 1.56 -0.29 3.74 2.07 1.29 -0.3 4.01 2.08 0.75 -0.31c0.62,0.39 0.67,0.55 0.68,0.64 0.02,0.19 0.07,0.34 3.41,1.65 1.24,0.48 2.59,0.83 3.9,1.14l1.87 0.49 1.82 -0.38 5.25 2.39 2.78 -0.63 4.29 1.98 2.85 -0.21 4.23 1.84 2.05 -0.07 6.77 2.97 0 0 0.01 0 0.01 0 1.84 -1.2 6.99 2.35 1.85 -0.59 6.99 2.58 5.01 -0.81 7.37 2.33 3.6 -0.56 14.08 2.75 8.91 -0.98 28.21 2.77c5.44,-1.19 31.84,-1.79 60.36,-1.88 33.87,-0.1 70.81,0.44 79.3,1.39l28.17 -2.28 12.49 0.93 14.13 -2.7 5.31 0.84 7.45 -2.61 3.16 0.89 7.3 -2.66 3.31 0.78 6.83 -2.54 2.01 0.94 6.78 -2.71 2.05 0.39 5.14 -2.16 1.94 0.1 4.14 -1.87 2.93 0.96 5.03 -2.72 2.03 0.6 0 0 0.01 0 0.01 0 3.85 -2.37 1.44 0.26 3.54 -2.03 1.77 0.25 7.7 -3.79 1.13 0 2.85 -1.59 3.77 -1.61 3.65 -1.77 3.56 -1.76 3.39 -1.84 3.47 -1.81 5.83 -1.69 1.21 -0.3 2.32 1.65 0.01 -0.01 -2.32 -1.65 -1.22 0.3 -5.83 1.69zm-456.62 1.35c0.01,-0.33 0.05,-0.82 0.05,-1.57l-0.77 0.78 -7.07 -0.11 -1.1 -0.67 -2.43 1.71 -1.58 0.06 -62.06 31.66 -1.42 0.16 -2.12 1.64 -1.21 0.12c0,2.58 0.56,1.76 -2.33,1.76l-1.19 0.01c0,2.58 0.56,1.76 -2.34,1.76l-1.19 0.01c0,2.58 0.56,1.76 -2.35,1.76l-1.19 0.01c0,2.58 0.56,1.76 -2.34,1.76l-0.88 0c0,2.85 0.6,1.91 -2.66,1.91l-0.84 -0.14c0,2.91 0.62,1.96 -2.69,1.96l-1.13 -0.19 -2.41 1.71 -0.5 0.06c-2.16,1.66 -19.23,12.41 -29.55,15.83l-1.23 0.08c0,2.56 0.56,1.76 -2.31,1.76l-1.15 0.01c0,1.5 0.18,1.87 -0.21,1.9 0.07,0 0.12,-0.01 0.16,-0.04 0.12,-0.09 0.1,-0.33 0.09,-0.81l-0.03 -1.04 1.14 -0.01c0.72,0 1.23,0.06 1.57,0.09 0.37,0.03 0.6,0.05 0.69,-0.02 0.12,-0.09 0.1,-0.33 0.09,-0.79l-0.03 -1.04 1.22 -0.08c3.86,-1.27 8.7,-3.61 13.32,-6.08 7.73,-4.14 14.91,-8.72 16.24,-9.75l0 0 0.49 -0.06 0.01 0 2.41 -1.71 1.12 0.19c0.86,0 1.46,0.07 1.86,0.11 0.41,0.03 0.65,0.07 0.77,-0.02 0.13,-0.09 0.12,-0.37 0.1,-0.9l-0.03 -1.15 0.83 0.14c0.85,0 1.45,0.07 1.84,0.11 0.4,0.03 0.64,0.07 0.76,-0.01 0.12,-0.09 0.11,-0.37 0.1,-0.9l-0.03 -1.11 0.87 0c0.74,0 1.26,0.06 1.6,0.09 0.37,0.03 0.6,0.05 0.69,-0.02 0.12,-0.09 0.1,-0.33 0.09,-0.79l-0.03 -1.04 1.18 -0.01c0.74,0 1.26,0.06 1.61,0.09 0.36,0.03 0.6,0.05 0.69,-0.02 0.12,-0.09 0.1,-0.33 0.09,-0.79l-0.03 -1.04 1.18 -0.01c0.74,0 1.26,0.06 1.6,0.09 0.37,0.03 0.6,0.05 0.69,-0.02 0.12,-0.09 0.1,-0.33 0.09,-0.79l-0.03 -1.04 1.18 -0.01c0.73,0 1.25,0.06 1.6,0.09 0.36,0.03 0.59,0.05 0.68,-0.02 0.12,-0.09 0.1,-0.33 0.09,-0.79l-0.03 -1.04 1.2 -0.12 0.01 0 2.12 -1.64 0 0 1.41 -0.16 62.06 -31.66 1.58 -0.06 0.01 0 2.42 -1.7 1.09 0.66 0 -0.01 0.01 0.01 7.06 0.11 0 0 0.01 0 0.01 0 0.75 -0.76 -0.03 1.15c0,0.15 -0.01,0.28 -0.01,0.39zm-138.37 65.75c-0.34,-0.02 -0.94,-0.13 -2,-0.13l-0.88 -0.02c0,0.93 0.06,1.46 0.04,1.74 0.01,-0.14 0.01,-0.35 0,-0.62l-0.03 -1.11 0.87 0.02c0.75,0 1.28,0.07 1.63,0.09 0.15,0.01 0.27,0.02 0.37,0.03zm-2.84 1.59c-0.06,0.59 -0.51,0.17 -2.7,0.17l-0.84 -0.14c0,2.91 0.62,1.96 -2.69,1.96l-1.13 -0.19 -2.41 1.71 -0.51 0.06c-0.44,0.33 -0.97,0.77 -1.3,1.01 -0.33,0.22 -0.88,0.69 -1.27,0.95 -0.38,0.25 -0.7,0.46 -0.97,0.65 -0.41,0.23 -0.92,0.52 -1.56,0.89l-11.63 6.03c-0.25,0.13 -0.5,0.27 -0.75,0.4l-2.21 1.22c-4.51,2.51 -8.77,5 -13.39,6.43l-1.22 0.1c0,2.57 0.56,1.75 -2.31,1.75l-1.06 0.01c0,0.84 0.06,1.34 0.04,1.62 0.01,-0.13 0,-0.31 0,-0.53l-0.03 -1.08 1.05 -0.01c0.73,0 1.25,0.06 1.59,0.09 0.36,0.03 0.59,0.05 0.68,-0.02 0.1,-0.08 0.09,-0.32 0.08,-0.78l-0.03 -1.04 1.21 -0.1c4.21,-1.3 8.14,-3.51 12.22,-5.78l4.13 -2.27 11.63 -6.03 0.01 0c0.48,-0.28 0.89,-0.51 1.23,-0.71 -0.73,0.51 -0.99,0.72 -0.98,0.73 0.02,0.04 0.69,-0.36 1.34,-0.75 0.41,-0.25 0.82,-0.53 1.06,-0.7 -0.63,0.44 -2.58,1.62 -2.38,1.43 0.01,-0.01 0.01,-0.02 0.02,-0.02 0.12,-0.1 0.49,-0.36 1.26,-0.88 1.12,-0.63 1.4,-0.76 1.27,-0.65 0.02,-0.02 0.04,-0.04 0.04,-0.04l-0.01 -0.01 0.01 0c-0.01,-0.02 -0.31,0.12 -1.04,0.53 0.21,-0.14 0.45,-0.3 0.71,-0.47l1.27 -0.95 1.3 -1.01 0 0 0.5 -0.06 0.01 0 2.41 -1.71 1.12 0.19c0.86,0 1.46,0.07 1.86,0.11 0.41,0.03 0.65,0.07 0.77,-0.02 0.13,-0.09 0.12,-0.37 0.1,-0.9l-0.03 -1.15 0.83 0.14c0.85,0 1.44,0.07 1.83,0.11 0.4,0.03 0.64,0.07 0.76,-0.02 0.06,-0.04 0.09,-0.13 0.11,-0.27zm-47.92 24.72c-0.06,0.5 -0.51,0.13 -2.51,0.13l-0.91 -0.07c0,2.85 0.61,1.92 -2.63,1.92l-1.23 -0.15 -2.3 1.66 -1.13 0.11 -2.41 1.72 -0.46 0.04 -7.52 4.75c-0.63,0.33 -1.19,0.62 -1.7,0.89l-3.22 1.7c-0.25,0.13 -0.52,0.28 -0.8,0.43 -4.82,2.59 -8.08,4.69 -12.81,6.22l-1.31 0.16 -2.23 1.71 -1.12 0.06c0,2.65 0.57,1.8 -2.41,1.8l-0.94 -0.04c0,2.83 0.61,1.91 -2.6,1.91l-1.24 -0.14 -2.3 1.66 -1.11 0.11c0,2.59 0.55,1.74 -2.42,1.74l-0.43 0.03c-0.44,0.34 -0.97,0.79 -1.32,1.03l-21.23 11.19 -1.21 0.15c0,0.76 0.05,1.23 0.05,1.51 0,-0.12 -0.01,-0.27 -0.01,-0.45l-0.03 -1.05 1.2 -0.15 21.23 -11.19 0.01 0 1.32 -1.03 0 0 0.42 -0.03c0.77,0 1.32,0.07 1.68,0.1 0.36,0.02 0.59,0.05 0.69,-0.02 0.12,-0.09 0.1,-0.33 0.09,-0.81l-0.03 -1.01 1.1 -0.11 0.01 0 2.3 -1.66 1.23 0.14c0.83,0 1.41,0.07 1.8,0.1 0.39,0.04 0.63,0.07 0.75,-0.01 0.12,-0.09 0.11,-0.36 0.09,-0.87l-0.03 -1.13 0.93 0.04c0.76,0 1.3,0.07 1.66,0.09 0.37,0.03 0.59,0.07 0.7,-0.01 0.12,-0.09 0.1,-0.34 0.09,-0.82l-0.03 -1.06 1.11 -0.06 0.01 0 2.23 -1.71 0 0 1.3 -0.16c3.71,-1.19 6.55,-2.77 9.92,-4.63l2.89 -1.59 5.72 -3.02 0.01 0 7.52 -4.75 0 0 0.45 -0.04 0.01 0 2.41 -1.72 0 0 1.12 -0.11 0.01 0 2.3 -1.66 1.22 0.15c0.84,0 1.43,0.07 1.82,0.1 0.4,0.04 0.65,0.06 0.75,-0.01 0.13,-0.09 0.12,-0.36 0.1,-0.88l-0.03 -1.13 0.9 0.07c0.78,0 1.33,0.07 1.7,0.1 0.38,0.03 0.62,0.05 0.72,-0.02 0.05,-0.04 0.08,-0.11 0.09,-0.22zm-81.46 42.32c-0.04,0.54 -0.43,0.17 -2.37,0.17l-1.04 0c0,2.7 0.58,1.82 -2.49,1.82l-0.86 -0.05c0,2.88 0.61,1.94 -2.68,1.94l-0.74 -0.18c-0.42,0.33 -0.94,0.76 -1.26,0.98 -0.3,0.21 -0.85,0.68 -1.22,0.92 -0.49,0.33 -17.84,10.97 -26.83,13.93l-1.2 0.08c0,2.59 0.56,1.77 -2.34,1.77l-1.1 0c0,2.68 0.58,1.82 -2.43,1.82l-0.92 -0.05c0,2.85 0.61,1.93 -2.62,1.93l-1.12 -0.16 -2.41 1.71 -1.04 0.06c0,2.63 0.55,1.74 -2.5,1.74l-0.41 0.02 -6.29 4.26c-0.15,0.08 -0.3,0.16 -0.44,0.24l0.44 -0.23 0.01 0 6.29 -4.26 0 0 0.4 -0.02c0.81,0 1.38,0.07 1.75,0.11 0.36,0.03 0.59,0.05 0.69,-0.01 0.12,-0.08 0.11,-0.34 0.1,-0.83l-0.03 -1.01 1.03 -0.06 0.01 0 2.41 -1.71 1.11 0.16c0.83,0 1.42,0.07 1.81,0.1 0.4,0.04 0.65,0.06 0.75,-0.01 0.13,-0.09 0.12,-0.37 0.1,-0.89l-0.03 -1.13 0.91 0.05c0.77,0 1.31,0.07 1.67,0.09 0.38,0.03 0.61,0.06 0.71,-0.01 0.12,-0.09 0.1,-0.34 0.09,-0.82l-0.03 -1.08 1.09 0c0.73,0 1.26,0.06 1.6,0.09 0.37,0.03 0.6,0.05 0.69,-0.02 0.12,-0.09 0.1,-0.33 0.09,-0.8l-0.03 -1.04 1.19 -0.08c3.05,-1 7.11,-2.92 11.11,-4.99 7.77,-4.03 15.42,-8.73 15.73,-8.94l0.75 -0.56 0.47 -0.36 1.26 -0.98 0.73 0.18c0.85,0 1.46,0.07 1.85,0.11 0.41,0.03 0.65,0.07 0.77,-0.02 0.13,-0.09 0.12,-0.37 0.1,-0.9l-0.03 -1.13 0.85 0.05c0.79,0 1.35,0.07 1.72,0.1 0.38,0.03 0.62,0.05 0.72,-0.02 0.12,-0.09 0.1,-0.34 0.09,-0.83l-0.03 -1.07 1.03 0c0.74,0 1.26,0.06 1.6,0.09 0.37,0.03 0.6,0.05 0.69,-0.02 0.05,-0.04 0.07,-0.12 0.08,-0.25zm-66.1 33.88c-0.42,0.21 -0.83,0.41 -1.23,0.62l-1.95 1.01c-0.12,0.06 -0.23,0.13 -0.35,0.19 -4.23,2.34 -6.04,3.62 -10.52,5.05l-1.29 0.08 -2.25 1.72 -1.1 0.05c0,1.53 0.19,1.91 -0.22,1.94 0.08,0 0.13,-0.01 0.17,-0.04 0.12,-0.09 0.1,-0.34 0.09,-0.82l-0.03 -1.07 1.09 -0.05 0.01 0 2.25 -1.72 0 0 1.28 -0.08c3.64,-1.15 5.53,-2.24 8.38,-3.85l2.14 -1.2 2.74 -1.42 0.79 -0.41zm-19.12 10.66c-0.36,-0.02 -0.97,-0.12 -2,-0.12l-0.86 -0.06c0,2.89 0.61,1.94 -2.68,1.94l-1.23 -0.17 -2.3 1.67 -0.58 0.1 -25.94 14 -1.29 0.14 -2.25 1.73 -1.09 0.04c0,0.83 0.05,1.32 0.04,1.6 0.01,-0.13 0,-0.3 0,-0.51l-0.03 -1.08 1.08 -0.04 0.01 0 2.25 -1.73 0 0 1.28 -0.14 25.94 -14 0.58 -0.1 0.01 0 2.3 -1.67 1.22 0.17c0.86,0 1.46,0.07 1.86,0.11 0.4,0.03 0.64,0.07 0.76,-0.02 0.13,-0.09 0.12,-0.37 0.1,-0.9l-0.03 -1.13 0.85 0.06c0.77,0 1.31,0.06 1.67,0.09 0.12,0.01 0.23,0.02 0.33,0.02zm-40.18 20.93c-0.05,0.56 -0.46,0.17 -2.48,0.17l-0.92 -0.06c0,2.84 0.61,1.92 -2.62,1.92l-0.73 -0.15c-1.03,0.82 -1.86,1.59 -3.7,2.75l-9.27 5c-4.71,2.62 -8.21,4.77 -12.82,6.31l-1.21 0.08c0,2.58 0.56,1.77 -2.32,1.77l-1.04 0c0,2.7 0.57,1.82 -2.5,1.82l-0.84 -0.06c0,2.91 0.62,1.96 -2.69,1.96l-0.6 -0.19c-0.43,0.33 -0.96,0.77 -1.29,1l-24.63 13.06 -1.2 0.08c0,2.59 0.56,1.77 -2.34,1.77l-1.03 0c0,2.71 0.58,1.83 -2.5,1.83l-0.84 -0.06c0,0.86 0.05,1.39 0.04,1.7 0.01,-0.15 0,-0.33 0,-0.56l-0.03 -1.13 0.83 0.06c0.79,0 1.35,0.07 1.72,0.1 0.38,0.03 0.62,0.05 0.72,-0.02 0.12,-0.08 0.11,-0.34 0.1,-0.84l-0.03 -1.07 1.02 0c0.73,0 1.26,0.06 1.6,0.09 0.37,0.03 0.6,0.05 0.69,-0.02 0.12,-0.09 0.1,-0.33 0.09,-0.8l-0.03 -1.04 1.19 -0.08 24.63 -13.06 0.01 0 1.29 -1 0.59 0.19c0.86,0 1.46,0.07 1.86,0.11 0.41,0.03 0.65,0.07 0.77,-0.02 0.13,-0.09 0.12,-0.37 0.1,-0.9l-0.03 -1.15 0.83 0.06c0.79,0 1.36,0.07 1.73,0.1 0.37,0.03 0.61,0.05 0.71,-0.02 0.12,-0.08 0.11,-0.34 0.1,-0.84l-0.03 -1.06 1.03 0c0.72,0 1.24,0.06 1.58,0.09 0.36,0.03 0.6,0.05 0.69,-0.02 0.12,-0.09 0.1,-0.33 0.09,-0.8l-0.03 -1.04 1.2 -0.08c3.93,-1.31 7.07,-3.09 10.83,-5.19l1.99 -1.12 9.27 -5 0.01 0c1.45,-0.91 2.29,-1.61 3.08,-2.24l0.62 -0.51 0.72 0.15c0.83,0 1.42,0.07 1.81,0.1 0.4,0.04 0.64,0.07 0.76,-0.01 0.12,-0.09 0.11,-0.36 0.09,-0.88l-0.03 -1.13 0.91 0.06c0.77,0 1.32,0.07 1.68,0.09 0.38,0.03 0.61,0.06 0.71,-0.01 0.05,-0.04 0.08,-0.13 0.09,-0.26zm-77.53 40.7c0,0.01 0,0.03 0,0.04 0,-0.01 0,-0.03 0,-0.04zm0 0.05c-0.04,0.66 -0.47,0.21 -2.74,0.21l-0.59 -0.19 -25.92 14.06 -1.2 0.08c0,2.6 0.57,1.78 -2.34,1.78l-0.88 -0.01c0,2.84 0.6,1.9 -2.66,1.9l-0.84 -0.13c0,2.9 0.62,1.95 -2.69,1.95l-0.59 -0.19c-0.43,0.34 -0.95,0.78 -1.28,1.01 -0.32,0.22 -0.86,0.69 -1.25,0.95l-10.57 5.81c-4.78,2.67 -8.06,4.73 -12.83,6.3l-1.18 0.08c0,2.6 0.56,1.77 -2.35,1.77l-0.88 -0.01c0,0.93 0.06,1.46 0.04,1.74 0.01,-0.14 0.01,-0.35 0,-0.62l-0.03 -1.11 0.87 0.01c0.74,0 1.26,0.06 1.61,0.09 0.37,0.03 0.6,0.05 0.69,-0.02 0.12,-0.09 0.1,-0.33 0.09,-0.8l-0.03 -1.04 1.17 -0.08c4.03,-1.32 7.03,-3.02 10.74,-5.12l2.09 -1.18 10.57 -5.81 0.01 0 1.25 -0.95 1.28 -1.01 0.58 0.19c0.86,0 1.46,0.07 1.86,0.11 0.41,0.03 0.65,0.07 0.77,-0.02 0.13,-0.09 0.12,-0.37 0.1,-0.9l-0.03 -1.14 0.83 0.13c0.85,0 1.45,0.07 1.85,0.11 0.39,0.03 0.63,0.07 0.75,-0.01 0.12,-0.09 0.11,-0.36 0.1,-0.89l-0.03 -1.11 0.87 0.01c0.74,0 1.26,0.06 1.61,0.09 0.37,0.03 0.6,0.05 0.69,-0.02 0.1,-0.08 0.09,-0.33 0.08,-0.79l-0.03 -1.06 1.19 -0.08 25.92 -14.06 0.59 0.19c0.86,0 1.46,0.07 1.86,0.11 0.41,0.03 0.66,0.07 0.78,-0.02 0.06,-0.05 0.09,-0.15 0.1,-0.31zm-70.75 37.11c-0.06,0.59 -0.51,0.17 -2.7,0.17l-0.86 -0.14c0,2.91 0.62,1.97 -2.67,1.97l-0.6 -0.2 -22.39 12.29 -1.38 0.08 -2.15 1.69 -1.12 0.08c0,1.53 0.19,1.91 -0.22,1.94 0.08,0 0.13,-0.01 0.17,-0.04 0.12,-0.09 0.1,-0.34 0.09,-0.83l-0.03 -1.06 1.11 -0.08 0.01 0 2.15 -1.69 0 0 1.37 -0.08 22.39 -12.29 0.6 0.2c0.85,0 1.44,0.07 1.84,0.11 0.41,0.03 0.65,0.07 0.77,-0.02 0.13,-0.1 0.12,-0.38 0.1,-0.91l-0.03 -1.15 0.85 0.14c0.85,0 1.44,0.07 1.83,0.11 0.4,0.03 0.64,0.07 0.76,-0.02 0.06,-0.04 0.09,-0.13 0.11,-0.27zm-34.3 17.88c-0.35,-0.02 -0.96,-0.12 -1.99,-0.12l-0.84 -0.05c0,2.9 0.62,1.96 -2.69,1.96l-0.6 -0.19c-1,0.79 -2.01,1.67 -3.76,2.79 -0.83,0.53 -1.07,0.69 -1.07,0.7l-0.01 -0.01 0.33 -0.21 -1.66 0.9 -16.21 8.13 -1.19 0.08 0.03 1.06c0.01,0.46 0.02,0.71 -0.08,0.79 -0.09,0.07 -0.32,0.05 -0.69,0.02 -0.35,-0.03 -0.87,-0.09 -1.61,-0.09l-1.03 -0.01 0.03 1.09c0.01,0.5 0.03,0.76 -0.09,0.85 -0.1,0.08 -0.35,0.06 -0.74,0.03 -0.37,-0.03 -0.93,-0.1 -1.71,-0.1l-0.74 -0.1 0.03 1.15c0.02,0.55 0.03,0.84 -0.1,0.93 -0.12,0.09 -0.37,0.05 -0.79,0.01 -0.41,-0.03 -1.04,-0.11 -1.93,-0.11l-0.57 -0.21 -4.87 3.64 -0.01 0 -3.43 1.93 -0.51 0.28c-2.79,1.54 -3.35,1.86 -6.52,2.9l-1.08 0.08 0.03 1.09c0.02,0.49 0.03,0.75 -0.09,0.83 -0.03,0.02 -0.08,0.03 -0.13,0.04 0.36,-0.06 0.18,-0.46 0.18,-1.97l1.09 -0.08c3.36,-1.11 3.77,-1.38 7.03,-3.18 0.23,-0.13 3.38,-1.89 3.43,-1.93l4.87 -3.64 0.58 0.21c3.4,0 2.78,0.98 2.78,-1.98l0.75 0.1c3.09,0 2.5,0.87 2.5,-1.87l1.04 0.01c2.91,0 2.34,0.82 2.34,-1.78l1.2 -0.08 16.21 -8.13c2.9,-1.63 1.38,-0.67 1.34,-0.67l0.01 0.01 0.22 -0.13 0.21 -0.15 0 0 0.64 -0.42c1.41,-0.9 2.37,-1.67 3.19,-2.34l0.57 -0.45 0.59 0.19c0.85,0 1.45,0.07 1.85,0.11 0.42,0.03 0.66,0.07 0.78,-0.02 0.13,-0.1 0.12,-0.38 0.1,-0.91l-0.03 -1.14 0.83 0.05c0.76,0 1.3,0.06 1.66,0.09 0.13,0.01 0.24,0.02 0.33,0.02zm-56.59 30.08c-0.37,-0.03 -0.97,-0.12 -1.97,-0.12l-1.77 3.38 2.34 3.61 -0.57 1.78 2.16 3.53 -0.39 1.29 3.78 7.55 -0.24 1.41 3.76 7.43 -0.23 1.45 3.73 7.38 -0.19 1.49 3.71 7.35 -0.18 1.52 3.77 7.32 -0.23 1.31 3.94 7.53 -0.41 1.01c2.64,0 1.74,-0.55 1.74,2.53l0.03 1.78 2.31 3.52 -0.54 0.67c2.95,0 1.93,-0.6 1.93,2.87l-0.16 1.49 3.82 7.34 -0.29 1.19 3.97 7.65 -0.43 0.88c0.6,0 1.02,-0.03 1.32,-0.03 -0.08,0 -0.18,0 -0.28,0l-1.02 0.02 0.42 -0.87 -3.97 -7.65 0.29 -1.19 -3.82 -7.34 0.16 -1.49c0,-0.94 0.09,-1.59 0.13,-2.01 0.04,-0.41 0.07,-0.66 -0.01,-0.78 -0.09,-0.14 -0.38,-0.13 -0.95,-0.12l-1.08 0.03 0.52 -0.65c0,0 0,-0.02 0,-0.02l-2.31 -3.52 0 0 -0.03 -1.77c0,-0.83 0.07,-1.4 0.11,-1.77 0.03,-0.37 0.05,-0.6 -0.01,-0.7 -0.08,-0.12 -0.34,-0.11 -0.83,-0.1l-1.01 0.03 0.41 -1 -3.94 -7.53 0.23 -1.31 -3.77 -7.32 0.18 -1.52 -3.71 -7.35 0.19 -1.49 -3.73 -7.38 0.23 -1.45 -3.76 -7.43 0.24 -1.41 -3.78 -7.55 0.39 -1.28 0 0 0 -0.01 0 -0.01 -2.16 -3.53 0.57 -1.76 0 0 0 -0.01 0 -0.01 -2.34 -3.61 1.76 -3.36c0.77,0 1.32,0.06 1.68,0.09 0.11,0.01 0.2,0.02 0.29,0.02zm35.11 96.12c0.49,0.08 0.08,0.57 0.08,2.68l-0.03 1.68 3.72 7.16 -0.19 1.31 4 7.53 0.01 0.01 -0.45 0.77 1.07 -0.03c0.53,-0.01 0.81,-0.02 0.89,0.11 0.03,0.04 0.04,0.11 0.04,0.2 -0.02,-0.47 -0.39,-0.27 -2.02,-0.27l0.46 -0.79 0.01 0 -4 -7.53 0.19 -1.31 -3.72 -7.16 0.03 -1.68c0,-0.87 0.08,-1.48 0.12,-1.87 0.03,-0.38 0.07,-0.61 -0.01,-0.72 -0.03,-0.05 -0.1,-0.08 -0.2,-0.09zm9.14 21.58c-0.03,0.39 -0.16,1.08 -0.16,2.31l-0.09 1.53 3.88 7.31 -0.35 1.03c2.63,0 1.74,-0.55 1.74,2.51l0.03 1.74 3.77 7.1 -0.24 1.24 4.02 7.6 0.01 0.01 -0.47 0.69 1.1 -0.03c0.55,-0.01 0.84,-0.02 0.92,0.11 0.07,0.11 0.05,0.37 0.01,0.77 -0.04,0.42 -0.12,1.06 -0.12,1.98l-0.15 1.46 3.93 7.38 -0.4 0.94 1.01 -0.02c0.11,0 0.22,0 0.31,-0.01 -0.3,0.01 -0.72,0.04 -1.33,0.04l0.4 -0.95 -3.93 -7.38 0.15 -1.46c0,-3.43 1,-2.82 -1.92,-2.82l0.48 -0.71 0.01 0 -4.02 -7.6 0.24 -1.24 -3.77 -7.1 -0.03 -1.74c0,-0.81 0.07,-1.38 0.11,-1.75 0.03,-0.37 0.05,-0.6 -0.01,-0.7 -0.08,-0.12 -0.34,-0.11 -0.83,-0.1l-1.01 0.03 0.35 -1.02 -3.88 -7.31 0.09 -1.53c0,-0.9 0.08,-1.52 0.12,-1.93 0.01,-0.15 0.02,-0.27 0.03,-0.38zm19.13 45.67c0.45,0.09 0.07,0.58 0.07,2.61l-0.01 1.65 3.82 7.19 -0.28 1.08 1.72 2.45 0.04 1.72 3.87 7.12 -0.33 1.02c2.64,0 1.75,-0.55 1.75,2.52l0.02 1.64 3.87 7.19 -0.34 0.97c0.59,0 1.01,-0.03 1.3,-0.03 -0.08,0 -0.17,0 -0.27,0l-1.02 0.02 0.34 -0.96 -3.87 -7.19 -0.02 -1.64c0,-0.82 0.07,-1.38 0.11,-1.76 0.03,-0.37 0.05,-0.6 -0.01,-0.7 -0.08,-0.12 -0.34,-0.11 -0.84,-0.1l-1.01 0.03 0.33 -1.01 -3.87 -7.12 -0.04 -1.72 0 -0.01 -1.72 -2.45 0.28 -1.07 -3.82 -7.19 0.01 -1.65c0,-0.84 0.08,-1.43 0.11,-1.81 0.04,-0.37 0.07,-0.6 -0.01,-0.71 -0.03,-0.05 -0.09,-0.07 -0.18,-0.09zm15.9 37.14c0.46,0.09 0.08,0.58 0.08,2.59l-0.01 1.61 3.9 7.23 -0.36 0.88c2.78,0 1.84,-0.58 1.84,2.66l-0.07 1.56 3.94 7.27 -0.41 0.85c2.8,0 1.85,-0.58 1.85,2.69l-0.08 1.51 3.96 7.33 -0.43 0.8c2.84,0 1.87,-0.59 1.87,2.73l-0.1 1.45 4 7.39 0.01 0.01 -0.45 0.72 1.09 -0.03c0.55,-0.01 0.83,-0.02 0.92,0.11 0.08,0.12 0.05,0.37 0.01,0.78 -0.04,0.41 -0.12,1.04 -0.12,1.95l-0.14 1.39 4.06 7.45 -0.53 1.07 1.67 2.45 0 0.01 0.1 1.12 0 0 1.71 2.41 0 0.01 0.06 1.67 3.95 7.17 -0.41 0.74 1.09 -0.03c0.55,-0.01 0.83,-0.02 0.92,0.11 0.08,0.12 0.05,0.36 0.01,0.76 -0.04,0.42 -0.12,1.05 -0.12,1.95l-0.14 1.32 5.71 11.06 -0.01 0 -0.41 0.69c2.98,0 1.97,-0.62 1.97,2.84l-0.2 1.14 1.72 2.4 0.05 1.53 5.72 10.84 -0.42 1.04c0.59,0 1.01,-0.03 1.29,-0.04 -0.09,0.01 -0.18,0.01 -0.29,0.01l-0.99 0.02 0.42 -1.03 -5.72 -10.84 -0.05 -1.53 0 -0.01 -1.72 -2.4 0.2 -1.13c0,-0.92 0.08,-1.56 0.12,-1.98 0.04,-0.41 0.06,-0.68 -0.01,-0.79 -0.09,-0.13 -0.38,-0.12 -0.94,-0.11l-1.13 0.03 0.4 -0.67 -0.01 -0.01 -5.71 -11.06 0.14 -1.32c0,-3.38 0.99,-2.78 -1.91,-2.78l0.42 -0.75 -3.95 -7.17 -0.06 -1.67 -1.71 -2.41 -0.1 -1.13 -1.67 -2.45 0.53 -1.08 -4.06 -7.45 0.14 -1.39c0,-3.4 0.99,-2.8 -1.91,-2.8l0.46 -0.74 0.01 0 -4 -7.39 0.1 -1.45c0,-0.89 0.08,-1.5 0.12,-1.91 0.03,-0.39 0.07,-0.63 -0.01,-0.75 -0.09,-0.13 -0.37,-0.12 -0.9,-0.11l-1.07 0.03 0.42 -0.79 -3.96 -7.33 0.08 -1.51c0,-0.87 0.08,-1.48 0.11,-1.88 0.04,-0.39 0.07,-0.63 -0.01,-0.74 -0.08,-0.13 -0.36,-0.12 -0.89,-0.11l-1.05 0.03 0.4 -0.84 -3.94 -7.27 0.07 -1.56c0,-0.86 0.08,-1.46 0.11,-1.86 0.04,-0.38 0.06,-0.63 -0.01,-0.74 -0.08,-0.12 -0.36,-0.11 -0.88,-0.1l-1.06 0.03 0.36 -0.87 -3.9 -7.23 0.01 -1.61c0,-0.83 0.07,-1.41 0.11,-1.79 0.03,-0.37 0.05,-0.61 -0.01,-0.71 -0.03,-0.05 -0.09,-0.07 -0.19,-0.09zm49.48 113.21c0.41,0.1 0.05,0.59 0.05,2.52l0.04 1.17 1.66 2.37 0.11 0.84c2.85,0 1.9,-0.6 1.9,2.69l-0.13 1.02c2.72,0 1.83,-0.58 1.83,2.52l-0.07 0.83c2.95,0 2,-0.63 2,2.7l-0.23 0.56 5.04 8.28 0.27 0.01c8.28,5.29 4.51,4.48 19.44,2.61l5.29 0.92 12.39 -2.74 6.43 0.97 7.71 -2.18 7.85 0.41 8.06 -2.36 3.41 0.59 10.73 -2.76 6.39 1 7.76 -2.18 7.68 0.41 6.46 -2.21 4.83 0.44 9.31 -2.68 5.23 0.91 8.91 -2.31 9.35 0.55 4.8 -1.96 3.27 0.19 9.1 -2.62 7.72 0.85 6.42 -2.11 5.24 0.34 10.67 -2.69 17.68 1.05 0 936.31 1020.03 0.36 0 -936.8 17.68 -0.96 10.8 2.73 5.11 -0.39 7.75 2.16 6.39 -0.44 8.83 2.21 5.31 -0.45 8.91 2.22 5.24 -0.38 6.29 2.14 7.85 -0.37 6.29 2.14 6.08 -0.98 10.49 2.75 3.66 -0.5 10.44 2.27 3.7 -1.15 11.92 2.91 3.99 -0.05 4.79 1.82 9.35 -0.46 7.8 2.23 6.34 -0.54 8.23 2.31 9.45 -0.46 15.91 0.58 7.07 -8.08 -0.01 -0.88c0,-2.89 -0.81,-2.33 1.78,-2.33l0.14 -1.21 5.16 -9.07 0.12 -1.53 1.65 -2.17 0.02 -1.37c0,-2.95 -0.84,-2.4 1.75,-2.4l-0.06 -1.14c0,-3.14 -0.91,-2.56 1.83,-2.56l0.13 -0.97 1.64 -2.4 -0.44 -1.14 5.74 -11.02 -0.05 -1.35c0,-3.18 -0.92,-2.61 1.82,-2.61l-0.25 -0.93 5.55 -10.98 -0.05 -1.39c0,-3.24 -0.95,-2.67 1.82,-2.67l-0.33 -0.87c0.68,-1.85 1.63,-4.89 2.41,-6.48 2.08,-4.28 1.93,-3.17 3.22,-4.7l-0.17 -1.19c0,-3.48 -1.02,-2.87 1.94,-2.87l-0.46 -0.67 3.99 -7.44 -0.1 -1.4c0,-3.35 -0.99,-2.76 1.87,-2.76l-0.39 -0.77 3.93 -7.36 -0.06 -1.48c0,-3.24 -0.94,-2.67 1.83,-2.67l-0.37 -0.87 3.9 -7.24 -0.03 -1.6c0,-2 -0.37,-2.52 0.04,-2.62 -0.07,0.01 -0.12,0.04 -0.15,0.08 -0.07,0.1 -0.05,0.34 -0.01,0.72 0.03,0.38 0.11,0.97 0.11,1.82l0.03 1.6 -3.9 7.24 0.37 0.86 -1.04 -0.03c-0.53,-0.01 -0.81,-0.02 -0.89,0.11 -0.08,0.11 -0.05,0.35 -0.01,0.74 0.03,0.4 0.11,1 0.11,1.86l0.06 1.48 -3.93 7.36 0.38 0.76 -1.07 -0.03c-0.54,-0.01 -0.82,-0.02 -0.9,0.11 -0.08,0.12 -0.05,0.36 -0.01,0.75 0.04,0.41 0.12,1.03 0.12,1.94l0.1 1.4 -3.98 7.43 -0.01 0 0 0.01 0 0.01 0.45 0.65 -1.1 -0.03c-0.57,-0.01 -0.86,-0.02 -0.94,0.12 -0.09,0.12 -0.05,0.37 -0.01,0.78 0.04,0.42 0.12,1.07 0.12,2.01l0.17 1.18c-0.36,0.43 -0.63,0.67 -0.84,0.85 -0.53,0.47 -0.89,0.79 -2.38,3.86 -0.54,1.11 -1.19,2.95 -1.74,4.58l-0.67 1.9 0.33 0.86 -1.05 -0.03c-0.52,-0.01 -0.8,-0.02 -0.88,0.11 -0.06,0.1 -0.04,0.35 0,0.73 0.03,0.4 0.11,1 0.11,1.87l0.05 1.39 -5.55 10.98 0.25 0.92 -1.05 -0.03c-0.52,-0.01 -0.79,-0.02 -0.87,0.11 -0.08,0.11 -0.04,0.34 -0.01,0.73 0.04,0.38 0.11,0.97 0.11,1.81l0.05 1.35 -5.74 11.02 0.44 1.13 -1.64 2.4 0.01 0 -0.01 0.01 -0.13 0.96 -1.07 -0.03c-0.5,-0.01 -0.77,-0.02 -0.86,0.1 -0.08,0.11 -0.04,0.34 -0.01,0.72 0.04,0.38 0.11,0.96 0.11,1.78l0.06 1.13 -1.01 -0.03c-0.48,-0.01 -0.73,-0.02 -0.82,0.1 -0.07,0.09 -0.04,0.32 -0.01,0.69 0.02,0.35 0.09,0.89 0.09,1.65l-0.02 1.36 0 0 -1.65 2.17 0.01 0 -0.01 0.01 -0.12 1.53 -5.16 9.07 -0.14 1.2 -1.04 -0.03c-0.47,-0.01 -0.71,-0.03 -0.8,0.09 -0.08,0.09 -0.06,0.32 -0.03,0.69 0.03,0.35 0.09,0.87 0.09,1.59l0.01 0.87 -7.07 8.08 -15.9 -0.58 -9.45 0.46 -8.23 -2.31 -6.34 0.54 -7.8 -2.23 -9.35 0.46 -4.79 -1.82 -3.99 0.05 -11.92 -2.91 -3.7 1.15 -10.44 -2.27 -3.66 0.5 -10.49 -2.75 -6.08 0.98 -6.29 -2.14 -7.85 0.37 -6.29 -2.14 -5.24 0.38 -8.91 -2.22 -5.31 0.45 -8.83 -2.21 -6.39 0.44 -7.75 -2.16 -5.11 0.39 -10.8 -2.73 -17.68 0.96c0,0 -0.01,0.01 -0.01,0.01l0 936.79 -1020.01 -0.36 0 -936.3c0,0 -0.01,-0.01 -0.01,-0.01l-17.68 -1.05 -10.67 2.69 -5.24 -0.34 -6.42 2.11 -7.72 -0.85 -9.1 2.62 -3.27 -0.19 -4.8 1.96 -9.35 -0.55 -8.91 2.31 -5.23 -0.91 -9.31 2.68 -4.83 -0.44 -6.46 2.21 -7.68 -0.41 -7.76 2.18 -6.39 -1 -10.73 2.76 -3.41 -0.59 -8.06 2.36 -7.85 -0.41 -7.71 2.18 -6.43 -0.97 -12.39 2.74 -5.29 -0.92c-2.57,0.31 -4.61,0.62 -6.22,0.85 -3.15,0.44 -4.81,0.68 -6.1,0.52 -1.39,-0.18 -2.41,-0.87 -4.49,-2.26l-2.62 -1.72 -0.01 0 0 0 -0.26 -0.01 0 0 -5.04 -8.28 0.23 -0.55c0,-0.85 0.07,-1.46 0.11,-1.86 0.03,-0.41 0.07,-0.66 -0.02,-0.78 -0.09,-0.13 -0.38,-0.12 -0.92,-0.1l-1.17 0.03 0.07 -0.82c0,-0.8 0.07,-1.37 0.1,-1.74 0.03,-0.38 0.07,-0.61 -0.01,-0.72 -0.09,-0.12 -0.35,-0.11 -0.85,-0.1l-1.07 0.03 0.13 -1.01c0,-0.87 0.08,-1.47 0.11,-1.87 0.04,-0.4 0.06,-0.65 -0.01,-0.75 -0.09,-0.13 -0.37,-0.12 -0.9,-0.11l-1.1 0.03 -0.11 -0.83 0 -0.01 -1.66 -2.37 0 0 -0.04 -1.16c0,-0.81 0.07,-1.37 0.11,-1.74 0.03,-0.36 0.05,-0.6 -0.01,-0.69 -0.03,-0.04 -0.08,-0.07 -0.16,-0.09zm1510.29 -92.05c0.29,0.01 0.7,0.03 1.28,0.03l-0.33 -0.92 3.86 -7.19 0.01 -1.65c0,-1 -0.09,-1.61 -0.13,-1.99 0.01,0.08 0.01,0.15 0.02,0.24 0.03,0.37 0.1,0.94 0.1,1.75l-0.01 1.65 -3.86 7.19 0.33 0.91 -1.03 -0.02c-0.09,0 -0.17,0 -0.24,0zm4.68 -11.99c0.02,-0.44 0.37,-0.26 1.9,-0.26l-0.3 -1.02c0.69,-1.84 1.65,-4.93 2.38,-6.47 2.1,-4.39 1.94,-3.26 3.23,-4.81l-0.26 -1.09c0.69,-1.84 1.64,-4.91 2.37,-6.44 2.06,-4.32 1.85,-3.15 3.19,-4.76l-0.2 -1.18 5.5 -11.12 -0.19 -1.25c0.7,-1.86 1.61,-4.9 2.32,-6.42 2.05,-4.42 1.85,-3.23 3.18,-4.85l-0.26 -1.1 3.79 -7.17 -0.01 -1.67c0,-1.96 -0.35,-2.48 0.03,-2.59 -0.07,0.01 -0.11,0.04 -0.14,0.08 -0.07,0.1 -0.04,0.34 -0.01,0.71 0.04,0.38 0.11,0.97 0.11,1.8l0.01 1.67 -3.79 7.17 0.26 1.09c-0.37,0.45 -0.64,0.7 -0.85,0.89 -0.54,0.5 -0.86,0.79 -2.33,3.97 -0.43,0.94 -0.97,2.5 -1.46,3.97l-0.86 2.45 0.19 1.25 -5.5 11.12 0.2 1.17c-0.37,0.45 -0.65,0.7 -0.86,0.89 -0.54,0.49 -0.86,0.78 -2.33,3.88 -0.47,0.99 -1.06,2.67 -1.58,4.21l-0.79 2.23 0.26 1.08c-0.35,0.43 -0.62,0.67 -0.83,0.86 -0.54,0.48 -0.89,0.81 -2.4,3.96 -0.47,1 -1.06,2.69 -1.59,4.23l-0.79 2.24 0.3 1.01 -1.01 -0.02c-0.5,-0.02 -0.76,-0.03 -0.84,0.09 -0.03,0.04 -0.04,0.11 -0.04,0.2zm27.18 -62.22c0.29,0.01 0.69,0.03 1.24,0.03l-0.33 -0.96 3.87 -7.34 -0.07 -1.5c0,-2.14 -0.41,-2.64 0.08,-2.73 -0.1,0.01 -0.17,0.04 -0.2,0.09 -0.07,0.11 -0.05,0.36 -0.01,0.74 0.04,0.4 0.12,1.02 0.12,1.9l0.07 1.5 -3.87 7.34 0.33 0.95 -1.03 -0.02c-0.07,0 -0.14,0 -0.2,0zm5.24 -12.51c0.29,0 0.71,0.03 1.3,0.03l-0.39 -0.82 3.93 -7.49 -0.14 -1.35c0.7,-1.88 1.58,-4.81 2.31,-6.37 2,-4.28 1.73,-3.08 3.13,-4.81l-0.2 -1.2 5.51 -11.32 -0.31 -1.05 3.84 -7.21 -0.03 -1.63c0,-3.2 -0.94,-2.63 1.8,-2.63l-0.38 -0.91 3.91 -7.4 -0.54 -1.44 4.08 -7.43 0.01 -1.41c0,-3.11 -0.91,-2.56 1.76,-2.56l-0.38 -0.97 3.91 -7.55 -0.19 -1.29 3.73 -7.25 -0.1 -1.59 3.64 -7.28 -0.14 -1.56 3.67 -7.31 -0.16 -1.53 3.7 -7.88 -0.57 -0.96 2.33 -3.94 -0.35 -1.36 3.89 -10.4 0 -6.76c-2.91,0 -2.72,0.68 -2.63,-1.26l0.03 -0.63c0,-0.13 0,-0.26 0,-0.4l-0.94 -0.08 -0.01 0.01 -2.26 -1.68 -1.26 0.09c-0.77,0 -1.32,0.06 -1.68,0.09 -0.39,0.03 -0.63,0.06 -0.73,-0.02 -0.12,-0.08 -0.11,-0.34 -0.09,-0.83l0.03 -1.1 -1.07 -0.15 -15.37 -8.69 -0.54 0.22c-0.86,0 -1.47,0.07 -1.87,0.11 -0.42,0.04 -0.67,0.07 -0.79,-0.02 -0.13,-0.09 -0.12,-0.37 -0.1,-0.92l0.03 -1.16 -0.8 0.08c-0.77,0 -1.32,0.07 -1.68,0.09 -0.38,0.03 -0.62,0.06 -0.72,-0.02 -0.12,-0.08 -0.11,-0.34 -0.09,-0.83l0.03 -1.09 -1.08 -0.06c-3.54,-1.14 -5.66,-2.38 -8.43,-3.97l-3.14 -1.79 -2.76 -1.42c-1.09,-0.55 -2.19,-1.11 -3.05,-1.6l0 -0.01 -5.05 -3.53 -0.55 -0.1 -0.01 0.01 -2.26 -1.67 -1.27 0.12c-0.77,0 -1.33,0.07 -1.69,0.09 -0.39,0.03 -0.63,0.06 -0.73,-0.02 -0.12,-0.09 -0.11,-0.35 -0.09,-0.84l0.03 -1.12 -1.05 -0.02c-0.71,0 -1.21,0.06 -1.55,0.08 -0.36,0.03 -0.58,0.05 -0.67,-0.02 -0.1,-0.07 -0.09,-0.31 -0.08,-0.76l0.03 -1.04 -1.27 -0.1 -18.91 -10.51 -0.53 -0.04 0 -0.01 -2.42 -1.73 -1.12 0.23c-3.35,0 -2.72,0.95 -2.72,-2l-0.81 0.09c-3.05,0 -2.46,0.87 -2.46,-1.85l-1.08 -0.04 -0.01 0.01 -2.25 -1.73 0 0 -1.28 -0.24 -21.15 -11.11c0,0 -0.01,-0.01 -0.01,-0.01 -0.15,-0.47 -0.5,-0.62 -0.81,-0.76l-0.11 -0.06c0.37,0.17 0.75,0.29 0.93,0.82l21.15 11.11 1.29 0.24 2.25 1.73 0 0.01 1.07 0.04 -0.03 1.1c-0.02,0.49 -0.03,0.74 0.09,0.83 0.1,0.07 0.34,0.05 0.72,0.02 0.36,-0.03 0.91,-0.1 1.69,-0.1l0.8 -0.09 -0.03 1.17c-0.02,0.54 -0.03,0.83 0.1,0.92 0.12,0.09 0.37,0.05 0.79,0.02 0.41,-0.04 1.01,-0.11 1.87,-0.11l1.11 -0.23 2.42 1.73 0.01 -0.01 0.53 0.04 18.91 10.51 1.28 0.1c0,2.53 -0.56,1.74 2.26,1.74l1.06 0.02c0,2.76 -0.6,1.89 2.47,1.89l1.28 -0.12 2.26 1.67 0 0.01 0.54 0.1 0 0 5.05 3.53 0.01 -0.01c0.96,0.55 2.18,1.16 3.4,1.77l2.05 1.05c0.12,0.07 0.24,0.13 0.36,0.2 0.21,0.12 0.42,0.23 0.62,0.34l2.07 1.18c3.01,1.74 5.14,3.03 8.88,4.24l1.09 0.06c0,2.71 -0.59,1.85 2.45,1.85l0.81 -0.08c0,2.95 -0.62,1.99 2.72,1.99l0.54 -0.22 15.37 8.69 1.08 0.15c0,2.72 -0.59,1.86 2.46,1.86l1.27 -0.09 2.26 1.68 0 0.01 0.93 0.08 -0.05 1.41c-0.02,0.52 -0.04,0.81 0.08,0.92 0.11,0.09 0.39,0.07 0.86,0.04 0.39,-0.02 0.95,-0.08 1.71,-0.08l0 6.75 -3.89 10.4 0.35 1.35 -2.33 3.94c0,0 0,0.02 0,0.02l0.57 0.96 -3.7 7.87 0.16 1.53 -3.67 7.31 0.14 1.56 -3.64 7.28 0.1 1.59 -3.73 7.25 0.19 1.29 -3.91 7.55 0.38 0.96 -1.01 -0.02c-0.51,-0.02 -0.77,-0.03 -0.85,0.09 -0.07,0.1 -0.04,0.34 -0.01,0.71 0.04,0.38 0.11,0.96 0.11,1.79l-0.01 1.41 -4.08 7.43 0.54 1.44 -3.91 7.4 0.38 0.9 -1.04 -0.03c-0.52,-0.01 -0.78,-0.02 -0.86,0.11 -0.08,0.11 -0.05,0.34 -0.01,0.71 0.03,0.39 0.11,0.99 0.11,1.85l0.03 1.63 -3.84 7.21 0.31 1.05 -5.51 11.32 0.2 1.19c-0.39,0.48 -0.67,0.76 -0.88,0.96 -0.54,0.52 -0.82,0.78 -2.25,3.86 -0.46,0.99 -1.01,2.57 -1.5,4.05l-0.81 2.32 0.14 1.35 -3.93 7.49 0.39 0.81 -1.05 -0.02c-0.09,0 -0.17,0 -0.24,0zm-70.59 -200.52c-0.02,-0.01 -0.03,-0.03 -0.05,-0.04l-0.54 -0.08 -0.01 0.01 -2.27 -1.68 -1.25 0.2c-0.87,0 -1.48,0.07 -1.88,0.11 -0.41,0.04 -0.66,0.07 -0.78,-0.01 -0.13,-0.09 -0.12,-0.38 -0.1,-0.92l0.03 -1.15 -0.81 0.09c-0.77,0 -1.32,0.06 -1.68,0.09 -0.39,0.03 -0.63,0.06 -0.73,-0.02 -0.12,-0.08 -0.11,-0.34 -0.09,-0.83l0.03 -1.1 -1.06 -0.04 0 -0.01 -2.26 -1.73 -1.28 -0.23c-8.16,-2.49 -19.4,-9.83 -19.9,-10.15 -0.32,-0.2 -1.02,-0.28 -1.25,-0.97 -0.18,-0.53 -0.58,-0.65 -0.94,-0.82l0.12 0.07c0.32,0.13 0.66,0.3 0.81,0.75 0.17,0.51 0.61,0.7 0.95,0.84l0.3 0.14 0 0 0.07 0.05c1.09,0.7 11.93,7.68 19.84,10.1l1.27 0.23 0 0 2.26 1.73 0.01 -0.01 1.07 0.04c0,2.72 -0.59,1.86 2.46,1.86l0.82 -0.09c0,2.93 -0.62,1.97 2.72,1.97l1.26 -0.2 2.27 1.68 0 0.01 0.54 0.08 0.05 0.03zm-37.12 -19.44c-0.02,-0.01 -0.03,-0.03 -0.05,-0.04l-0.54 -0.08 -0.01 0.01 -2.27 -1.69 -1.26 0.21c-0.86,0 -1.47,0.07 -1.87,0.11 -0.42,0.03 -0.67,0.07 -0.79,-0.02 -0.13,-0.09 -0.12,-0.38 -0.1,-0.92l0.03 -1.15 -0.8 0.09c-0.77,0 -1.32,0.06 -1.68,0.09 -0.39,0.03 -0.63,0.06 -0.73,-0.02 -0.12,-0.08 -0.11,-0.34 -0.09,-0.83l0.03 -1.1 -1.07 -0.04 0 -0.01 -2.24 -1.72 -1.29 -0.24 -21.15 -11.11c-0.18,-0.53 -0.56,-0.65 -0.93,-0.82l0.11 0.06c0.31,0.14 0.66,0.29 0.81,0.76 0,0 0.01,0.01 0.01,0.01l21.15 11.11 1.28 0.24 0 0 2.24 1.72 0.01 -0.01 1.08 0.04c0,2.72 -0.59,1.86 2.46,1.86l0.81 -0.09c0,2.93 -0.62,1.98 2.72,1.98l1.27 -0.21 2.27 1.69 0 0.01 0.54 0.08 0.05 0.03zm-37.12 -19.45c-0.02,-0.01 -0.03,-0.03 -0.05,-0.04l-0.55 -0.08 -0.01 0.01 -2.27 -1.69 -1.25 0.2c-0.87,0 -1.48,0.08 -1.88,0.11 -0.41,0.04 -0.66,0.06 -0.77,-0.01 -0.13,-0.09 -0.12,-0.38 -0.1,-0.91l0.03 -1.15 -0.82 0.08c-0.77,0 -1.31,0.07 -1.68,0.09 -0.38,0.03 -0.62,0.06 -0.72,-0.02 -0.12,-0.09 -0.1,-0.34 -0.09,-0.83l0.03 -1.09 -1.07 -0.05 0 -0.01 -2.25 -1.72 -1.29 -0.23 -11.76 -5.62c-0.44,-0.27 -2.29,-1.13 -2.55,-1.9 -0.19,-0.58 -0.62,-0.7 -1,-0.9l0.17 0.1c0.33,0.15 0.67,0.33 0.82,0.8 0.2,0.62 1.49,1.33 2.19,1.71l0.37 0.2 11.76 5.62 1.28 0.23 0 0 2.25 1.72 0.01 -0.01 1.08 0.05c0,2.71 -0.58,1.85 2.45,1.85l0.83 -0.08c0,2.92 -0.62,1.96 2.71,1.96l1.26 -0.2 2.27 1.69 0 0.01 0.55 0.08 0.05 0.03zm-30.23 -15.86c-0.04,-0.03 -0.08,-0.06 -0.12,-0.09l-0.3 0.49c-0.32,-0.13 -0.59,-0.24 -0.82,-0.33l0.38 0.16 0.43 0.18 0 0 0.01 0 0.01 0 0.29 -0.48 0.12 0.07zm-2.31 -0.38c-0.19,-0.08 -0.34,-0.16 -0.52,-0.26l0.32 0.18 0.2 0.08zm-0.63 -0.32c-0.33,-0.19 -0.75,-0.45 -1.53,-0.9 -0.32,-0.18 -1.05,-0.28 -1.29,-0.97 -0.21,-0.58 -0.65,-0.69 -1.04,-0.9l0.2 0.12 0.01 -0.01 0 0.01c0.32,0.15 0.66,0.32 0.82,0.78 0.18,0.53 0.67,0.73 1.02,0.86l0.27 0.12 0 0 0.87 0.52 0.01 -0.01 0 0.01 0.66 0.37zm-3.97 -2.83c-0.04,-0.03 -0.09,-0.06 -0.13,-0.09l-0.45 -0.05 -0.01 0.01 -2.39 -1.72 -1.13 0.21c-0.87,0 -1.48,0.07 -1.88,0.11 -0.41,0.04 -0.66,0.07 -0.78,-0.02 -0.13,-0.09 -0.12,-0.37 -0.1,-0.91l0.03 -1.16 -0.81 0.1c-0.8,0 -1.36,0.07 -1.74,0.1 -0.39,0.03 -0.63,0.06 -0.73,-0.02 -0.12,-0.09 -0.11,-0.35 -0.09,-0.85l0.03 -1.1 -1.01 -0.01c-0.72,0 -1.24,0.06 -1.58,0.09 -0.36,0.03 -0.59,0.04 -0.68,-0.02 -0.12,-0.09 -0.1,-0.33 -0.09,-0.79l0.03 -1.04 -1.21 -0.11 -15.61 -8.72 -0.29 0.49 -0.01 0 -0.01 0 0 0 -0.49 -0.2 -0.55 -0.24c0.27,0.12 0.61,0.25 1.05,0.43l0.29 -0.49 15.62 8.72 1.22 0.11c0,2.57 -0.56,1.76 2.31,1.76l1.02 0.01c0,2.76 -0.59,1.87 2.52,1.87l0.82 -0.1c0,2.94 -0.63,1.98 2.72,1.98l1.14 -0.21 2.39 1.72 0 0.01 0.44 0.05 0 0 0.14 0.08zm-32.56 -16.31c-0.12,-0.05 -0.23,-0.11 -0.34,-0.17l0.17 0.1 0.17 0.07zm-0.91 -0.49c-0.11,-0.06 -0.22,-0.13 -0.35,-0.21l0 0.01 0.35 0.2zm-0.35 -0.21c-0.23,-0.14 -0.51,-0.3 -0.86,-0.51 -0.32,-0.18 -1.05,-0.28 -1.29,-0.96 -0.25,-0.71 -0.84,-0.72 -1.28,-1.06l-0.45 -0.05 -0.01 0.01 -2.39 -1.72 -1.14 0.22c-0.85,0 -1.46,0.07 -1.86,0.11 -0.42,0.03 -0.67,0.07 -0.79,-0.02 -0.13,-0.09 -0.12,-0.38 -0.1,-0.92l0.03 -1.16 -0.81 0.12c-0.81,0 -1.39,0.07 -1.77,0.1 -0.39,0.03 -0.62,0.07 -0.74,-0.02 -0.12,-0.09 -0.11,-0.36 -0.09,-0.86l0.03 -1.1 -0.97 0.01c-0.75,0 -1.28,0.06 -1.63,0.09 -0.37,0.03 -0.6,0.05 -0.7,-0.02 -0.12,-0.09 -0.09,-0.33 -0.08,-0.8l0.03 -1.05 -1.16 -0.16 -19.14 -10.45 -0.29 0.5 -0.01 0 -0.01 0 0 0 -0.62 -0.25 -0.5 -0.21c0.29,0.11 0.65,0.26 1.13,0.45l0.29 -0.5 19.15 10.45 1.17 0.16c0,2.61 -0.57,1.78 2.37,1.78l0.98 -0.01c0,2.78 -0.6,1.88 2.56,1.88l0.82 -0.12c0,2.94 -0.62,1.99 2.71,1.99l1.15 -0.22 2.39 1.72 0 0.01 0.44 0.05 0 0 0.45 0.26 0.01 -0.01 0 0.01c0.32,0.15 0.66,0.33 0.82,0.79 0.18,0.52 0.67,0.72 1.02,0.85l0.27 0.12 0 0 0.86 0.51 0.01 -0.01zm-39.43 -20.51c-0.1,-0.05 -0.19,-0.09 -0.28,-0.14l0.14 0.08 0.14 0.06zm-0.71 -0.39c-0.3,-0.17 -0.7,-0.42 -1.36,-0.81 -0.32,-0.19 -1.02,-0.3 -1.26,-0.97 -0.16,-0.47 -0.48,-0.64 -0.8,-0.8l0 0.01c0.31,0.15 0.64,0.33 0.79,0.79 0.18,0.51 0.65,0.71 0.98,0.85l0.28 0.13 0 0 1 0.6 0.01 -0.01 0 0.01 0.36 0.2zm-3.42 -2.58c-0.06,-0.03 -0.12,-0.06 -0.18,-0.09l0.17 0.1 0.01 -0.01zm-0.32 -0.17c-0.04,-0.03 -0.08,-0.06 -0.12,-0.09l-0.54 -0.09 -0.01 0.01 -2.33 -1.68 0 0 -1.2 -0.12 0 -0.01 -2.28 -1.65 -1.25 0.14c-3.21,0 -2.61,0.92 -2.61,-1.91l-0.93 -0.01c-2.84,0 -2.28,0.8 -2.28,-1.76l-1.26 -0.07 -19.72 -9.9c-1.74,-0.95 -2.06,-1.12 -3.71,-2.17l-2.54 -2 -0.54 -0.03c-3.01,0 -2.47,0.87 -2.47,-1.74l-1.07 -0.11 -0.01 0.01 -2.25 -1.65 -1.27 0.11c-0.78,0 -1.33,0.07 -1.7,0.09 -0.39,0.03 -0.63,0.06 -0.73,-0.02 -0.12,-0.09 -0.11,-0.35 -0.09,-0.84l0.03 -1.11 -1.05 0.06c-0.77,0 -1.32,0.07 -1.68,0.09 -0.38,0.03 -0.61,0.06 -0.71,-0.01 -0.05,-0.04 -0.08,-0.13 -0.09,-0.25 0.05,0.54 0.46,0.16 2.48,0.16l1.06 -0.06c0,2.75 -0.6,1.88 2.48,1.88l1.28 -0.11 2.25 1.65 0 0.01 1.06 0.11 -0.02 0.99c-0.02,0.5 -0.03,0.76 0.09,0.84 0.1,0.07 0.34,0.04 0.7,0.01 0.36,-0.03 0.92,-0.1 1.71,-0.1l0.53 0.03 0 0 2.54 2c1.53,0.97 1.91,1.18 3.57,2.09l0.15 0.08 19.72 9.9 1.25 0.07 -0.03 1.05c-0.01,0.45 -0.02,0.7 0.08,0.78 0.09,0.06 0.32,0.05 0.68,0.02 0.34,-0.03 0.85,-0.09 1.56,-0.09l0.92 0.01 -0.03 1.11c-0.02,0.53 -0.03,0.8 0.1,0.89 0.1,0.07 0.35,0.05 0.75,0.01 0.39,-0.03 0.97,-0.1 1.8,-0.1l1.24 -0.14 2.28 1.65 0.01 -0.01 1.21 0.12 2.33 1.68 0 0.01 0.53 0.09 0 0 0.13 0.08zm-54.41 -26.81c-0.01,-0.29 0.04,-0.77 0.04,-1.57l-1.1 -0.02c-2.84,0 -2.28,0.8 -2.28,-1.75l-1.25 -0.23 -26.02 -13.91 -0.5 -0.07 -0.01 0.01 -2.36 -1.7 -1.16 0.2c-0.86,0 -1.46,0.07 -1.87,0.11 -0.41,0.03 -0.65,0.07 -0.77,-0.02 -0.13,-0.09 -0.12,-0.37 -0.1,-0.9l0.03 -1.15 -0.83 0.09c-0.8,0 -1.37,0.07 -1.74,0.1 -0.39,0.03 -0.63,0.06 -0.73,-0.02 -0.12,-0.08 -0.11,-0.35 -0.09,-0.85l0.03 -1.09 -1 0c-0.73,0 -1.25,0.06 -1.59,0.09 -0.37,0.03 -0.6,0.05 -0.7,-0.02 -0.11,-0.09 -0.1,-0.34 -0.09,-0.8l0.03 -1.04 -1.19 -0.1 -26.06 -14.04 -0.46 -0.05 0 -0.01 -2.4 -1.72 -1.13 0.22c-3.38,0 -2.75,0.97 -2.75,-1.99l-0.79 0.13c-3.16,0 -2.57,0.9 -2.57,-1.9l-0.96 0.03c-1.14,0 -1.76,0.13 -2.09,0.13 0.12,0 0.27,-0.02 0.45,-0.03 0.35,-0.03 0.89,-0.09 1.64,-0.09l0.95 -0.03 -0.03 1.1c-0.02,0.52 -0.03,0.79 0.1,0.88 0.1,0.08 0.35,0.05 0.75,0.02 0.38,-0.03 0.95,-0.1 1.76,-0.1l0.78 -0.13 -0.03 1.16c-0.02,0.55 -0.03,0.83 0.1,0.92 0.12,0.09 0.37,0.06 0.79,0.02 0.41,-0.03 1.02,-0.11 1.9,-0.11l1.12 -0.22 2.4 1.72 0.01 -0.01 0.46 0.05 26.06 14.04 1.2 0.1c0,2.58 -0.56,1.77 2.34,1.77l1.01 0c0,2.75 -0.59,1.86 2.52,1.86l0.84 -0.09c0,2.91 -0.62,1.96 2.7,1.96l1.17 -0.2 2.36 1.7 0 0.01 0.5 0.07 26.02 13.91 1.24 0.23 -0.03 1.04c-0.01,0.46 -0.02,0.7 0.08,0.78 0.09,0.06 0.32,0.05 0.68,0.02 0.34,-0.03 0.85,-0.09 1.56,-0.09l1.09 0.02 -0.03 1.07c0,0.2 -0.01,0.36 0,0.49zm-84.48 -43.84c-0.49,-0.01 -0.28,-0.33 -0.28,-1.92l-1.15 -0.08 -0.01 0.01 -2.2 -1.69 0 0 -1.33 -0.16c-3.58,-1.16 -5.96,-2.49 -9,-4.18l-2.62 -1.44 0 -0.01 -10.82 -6.6 -0.54 -0.03c-2.99,0 -2.44,0.87 -2.44,-1.73l-1.09 -0.11 -0.01 0.01 -2.26 -1.66 -1.27 0.13c-0.81,0 -1.39,0.07 -1.77,0.1 -0.39,0.03 -0.64,0.06 -0.74,-0.02 -0.12,-0.09 -0.11,-0.35 -0.09,-0.86l0.03 -1.12 -0.96 0.09c-0.77,0 -1.32,0.06 -1.68,0.09 -0.39,0.03 -0.63,0.06 -0.73,-0.02 -0.12,-0.08 -0.11,-0.34 -0.09,-0.83l0.03 -1.1 -1.07 -0.03c-0.71,0 -1.22,0.06 -1.55,0.09 -0.36,0.03 -0.59,0.04 -0.68,-0.02 -0.12,-0.09 -0.09,-0.33 -0.08,-0.78l0.03 -1.03 -1.25 -0.07 0 -0.01 -2.2 -1.69 -1.34 -0.24c-10.19,-3.23 -17.14,-8.7 -19.15,-10.37l-0.3 0.49c-0.36,-0.15 -0.65,-0.26 -0.89,-0.36l0.31 0.13 0.57 0.24 0 0 0.01 0 0.01 0 0.29 -0.48c1.01,0.83 3.26,2.63 6.5,4.59 3.24,1.97 7.56,4.15 12.65,5.77l1.33 0.24 0 0 2.2 1.69 0.01 -0.01 1.26 0.07c0,2.54 -0.55,1.74 2.27,1.74l1.08 0.03c0,2.72 -0.59,1.86 2.46,1.86l0.97 -0.09c0,2.8 -0.61,1.9 2.56,1.9l1.28 -0.13 2.26 1.66 0 0.01 1.08 0.11 -0.03 1.01c-0.01,0.48 -0.01,0.74 0.1,0.81 0.09,0.07 0.32,0.04 0.68,0.01 0.36,-0.03 0.91,-0.1 1.7,-0.1l0.53 0.03 0 0 10.82 6.6 0.01 -0.01c4.5,2.43 7.07,4.14 11.62,5.62l1.34 0.16 2.2 1.69 0 0.01 1.14 0.08 -0.03 1.06c-0.01,0.47 -0.03,0.71 0.09,0.8 0.04,0.03 0.12,0.05 0.23,0.05zm-70.55 -37.6c-0.11,-0.05 -0.21,-0.1 -0.31,-0.15l0.16 0.09 0.15 0.06zm-0.81 -0.44c-0.11,-0.06 -0.23,-0.13 -0.36,-0.21l0 0.01 0.36 0.2zm-0.36 -0.21c-0.24,-0.14 -0.53,-0.32 -0.91,-0.54 -0.31,-0.19 -1.02,-0.29 -1.26,-0.97 -0.18,-0.52 -0.56,-0.66 -0.91,-0.84l0.11 0.06c0.31,0.15 0.64,0.33 0.79,0.78 0.18,0.51 0.64,0.71 0.98,0.85l0.28 0.13 0 0 0.91 0.54 0.01 -0.01zm-3.33 -2.5c-0.03,-0.02 -0.06,-0.04 -0.09,-0.07l-0.54 -0.03c-2.99,0 -2.45,0.87 -2.45,-1.73l-1.08 -0.11 -0.01 0.01 -2.26 -1.66 -1.27 0.13c-0.81,0 -1.39,0.07 -1.77,0.1 -0.39,0.03 -0.64,0.06 -0.74,-0.02 -0.13,-0.09 -0.12,-0.36 -0.1,-0.87l0.03 -1.11 -0.95 0.09c-0.77,0 -1.32,0.06 -1.68,0.09 -0.39,0.03 -0.63,0.06 -0.73,-0.02 -0.12,-0.08 -0.11,-0.34 -0.09,-0.83l0.03 -1.1 -1.07 -0.02c-0.7,0 -1.21,0.06 -1.54,0.08 -0.36,0.03 -0.59,0.05 -0.69,-0.02 -0.12,-0.08 -0.09,-0.32 -0.08,-0.78l0.03 -1.03 -1.26 -0.05 -36.66 -19.39 -0.46 0.04c-0.82,0 -1.4,0.07 -1.78,0.11 -0.38,0.03 -0.61,0.07 -0.72,-0.01 -0.12,-0.09 -0.11,-0.35 -0.1,-0.86l0.03 -1.05 -0.97 -0.01c-0.79,0 -1.34,0.07 -1.71,0.1 -0.37,0.03 -0.59,0.07 -0.7,-0.01 -0.12,-0.09 -0.11,-0.34 -0.09,-0.83l0.02 -1.02 -1.05 -0.06 0 -0.01 -2.4 -1.7 -1.14 -0.12 -0.01 0.01 -2.33 -1.65 0 0 -1.19 -0.11 0 -0.01 -2.33 -1.66 -1.21 -0.11 -0.01 0.01 -2.33 -1.66 0 0 -1.19 -0.11 0 -0.01 -2.33 -1.66 -1.21 0.23c-3.35,0 -2.72,0.96 -2.72,-1.99l-0.81 -0.13 -0.01 0.01 -2.33 -1.64 0 0 -1.2 -0.11 0 -0.01 -2.33 -1.66 -1.21 0.22c-3.34,0 -2.72,0.96 -2.72,-1.99l-0.81 -0.13 -0.01 0.01 -2.32 -1.63 0 0 -1.21 -0.12 0 -0.01 -2.31 -1.65 -1.22 -0.12 0 0.01 1.21 0.12 0 0 2.31 1.65 0.01 -0.01 1.22 0.12 2.32 1.63 0 0.01 0.8 0.13 -0.03 1.16c-0.02,0.55 -0.03,0.83 0.1,0.92 0.12,0.09 0.37,0.06 0.79,0.02 0.4,-0.04 1.01,-0.11 1.87,-0.11l1.2 -0.22 2.33 1.66 0.01 -0.01 1.21 0.11 2.33 1.64 0 0.01 0.8 0.13 -0.03 1.17c-0.02,0.54 -0.03,0.82 0.1,0.91 0.12,0.09 0.37,0.06 0.78,0.02 0.4,-0.04 1.01,-0.11 1.88,-0.11l1.2 -0.23 2.33 1.66 0.01 -0.01 1.2 0.11 2.33 1.66 0 0.01 1.2 0.11 0 0 2.33 1.66 0.01 -0.01 1.2 0.11 2.33 1.65 0 0.01 1.13 0.12 0 0 2.4 1.7 0.01 -0.01 1.06 0.06c0,2.63 -0.55,1.76 2.47,1.76l0.98 0.01c0,2.72 -0.57,1.81 2.56,1.81l0.46 -0.04 36.66 19.39 1.27 0.05c0,2.54 -0.55,1.75 2.27,1.75l1.08 0.02c0,2.72 -0.59,1.86 2.46,1.86l0.96 -0.09c0,2.8 -0.6,1.9 2.57,1.9l1.28 -0.13 2.26 1.66 0 0.01 1.07 0.11 -0.02 1c-0.02,0.48 -0.03,0.74 0.09,0.82 0.11,0.08 0.33,0.04 0.69,0.01 0.36,-0.03 0.91,-0.1 1.7,-0.1l0.53 0.03 0 0 0.1 0.06z"/>
   </g>
  </g>
 </g>
</svg>
