<?xml version="1.0" encoding="UTF-8"?>
<!DOCTYPE svg PUBLIC "-//W3C//DTD SVG 1.1//EN" "http://www.w3.org/2000/svg">
<svg xmlns="http://www.w3.org/2000/svg" xml:space="preserve" width="42.3332mm" height="42.3332mm" version="1.1" style="shape-rendering:geometricPrecision; text-rendering:geometricPrecision; image-rendering:optimizeQuality; fill-rule:evenodd; clip-rule:evenodd"
viewBox="0 0 4233.32 4233.32">
 <g>
  <path d="M1743.99 868.65l4.11 -0.32 5.99 3.41 3.28 -0.08c5.72,0 4.73,-1.68 4.73,3.17l1.45 -0.9 6.3 3.99 2.98 -0.13 13.15 6.31 2.3 -0.63 6.11 3.72 3.17 -1.09 6.52 4.19 2.75 -1.06 6.47 4.15 2.81 -0.41 6.44 3.5 2.83 -0.8 18.63 6.98 3.01 -0.86 8.72 3.95 3.64 -1.55 9.49 4.64 2.88 -0.8 8.05 3.89 7.4 -1.07 9.24 4.16 3.13 -0.94 11.89 4.04 3.56 -1.06 10.86 4.15 7.69 -0.88 10.7 3.97 10.94 -0.49 10.4 3.58 11.24 -0.71 13.38 3.8 14.44 -1.64 23.91 4.73 10.09 -1.58 36.75 4.67 31.26 -0.18 49.46 0.18 45.19 0 25.91 -3.87 15.04 0.78 18.96 -3.98 8.72 0.89 16.01 -4.64 10.81 1.55 10.83 -3.81 4.45 0.72 14.1 -4.62 4.06 1.53 11.39 -4.3 7.72 1.21 7.74 -3.58 3.89 0.48 11.56 -5.05 5 1.96 7.37 -3.42 3.83 0.33 17.81 -6.95 2.27 0.77 7 -4.18 2.8 1.09 6.47 -4.09 2.98 1 6.3 -4.13 2.99 1.04 6.28 -3.82 2.12 0.73 13.34 -6.8 1.82 0.61c0,-4.56 -0.95,-3.01 4.36,-3.01l3.01 -0.08 12.45 -6.64 2.77 0.46 6.5 -3.83 2.73 0.74c0.29,-0.3 7.52,-10.27 7.52,0l-0.05 3.09 -11.47 21.33c-0.29,-0.55 -1.22,1.37 -1.82,2.06l-0.39 1.34c-3.74,14.07 -0.24,3.59 -5.79,8.3l0.42 0.97 -18.55 27.95c-2.14,2.63 -2.39,2.36 -4.39,4.79 -3.79,4.62 -2.77,4.27 -6.21,9.54l-36.19 34.52 -0.47 0.48c-4.06,6.7 0.08,1.96 -4.82,6.79 -0.7,0.69 -3.02,2.3 -3.8,2.86l-21.82 14.53 -1.26 0.55c-4.92,6.65 6.6,1.71 -8.02,6.04l-0.81 0.15c-5.1,5.7 6.28,1.96 -8.46,5.71l-1.3 0.47 -14.15 9.13 -1.98 0.14c0,4.72 1.03,3.25 -4.21,3.25l-2.06 -0.16c0,4.5 0.97,3.05 -4.12,3.05l-0.78 0.04c-1.95,1.53 -3.29,2.69 -6.83,4.86 -3.49,2.15 0.55,-0.03 -4.75,1.98l-1.98 -0.65 -4.21 2.94 -1.35 0.15c0,5.04 1.05,3.32 -4.83,3.32l-2.31 -0.23 -13.15 6.87 -1.67 -0.69 -13.78 6.51 -2.84 -0.33 -6.44 3.83 -2.51 -0.74 -6.76 3.8 -2.73 -0.7 -6.54 3.62 -3.53 -0.53 -8.84 4.12 -4.58 -1.03 -7.78 3.65 -10.77 -0.56 -17.05 3.99 -136.02 -0.8 -11.02 -3.19 -13.71 0.5 -7.94 -3.59 -4.42 0.99 -9.12 -4.08 -3.25 0.64 -16.46 -6.83 -2.08 0.88 -6.83 -3.97 -2.45 0.73 -6.29 -3.82 -2.98 0.63 -13.02 -6.81 -2.44 0.5 -13.27 -6.68 -2.18 0.26c-5.86,0 -4.8,1.7 -4.8,-3.35l-1.39 -0.21 -4.03 -2.89 -2.15 0.68 -23.41 -13.04 -1.32 0.27c-5.53,0 -4.47,1.57 -4.47,-3.36l-1.71 -0.25c-4.87,-1.71 -2.07,0.47 -8.4,-3.56 -4.02,-2.57 -3.34,-2.94 -5.89,-5.46l-1.17 -0.15c-12.05,-5.55 -27.25,-16.98 -37,-24.45 -7.76,-5.94 -9.18,-6.8 -16.8,-14.16 -5.44,-5.26 -10.84,-8.8 -17.11,-13.96 -8.31,-6.83 -50.35,-52.28 -55.83,-64.75l0 -0.02c-6.59,0 -5.19,1.79 -5.19,-4.34l-2.07 -4.48 -2.06 -4.51 -4.72 -4.12 -1.8 -5.02 -3.97 -5.46 0.25 -2.96zm775.98 -141.81l-6.06 3.17 -5.93 3.2 -6.22 3.1 -6.39 3.09 -6.58 2.8 -4.98 2.8 -1.98 0 -13.48 6.62 -3.09 -0.44 -6.18 3.55 -2.54 -0.46 -6.74 4.14 -3.57 -1.05 -8.79 4.77 -5.12 -1.68 -7.25 3.28 -3.39 -0.18 -8.97 3.78 -3.59 -0.69 -11.87 4.73 -3.51 -1.64 -11.94 4.44 -5.78 -1.35 -12.77 4.64 -5.53 -1.55 -13.02 4.56 -9.29 -1.47 -24.71 4.72 -21.83 -1.63 -49.27 3.99c-27.35,-3.07 -223.34,-3.74 -244.2,0.86l-49.33 -4.85 -15.59 1.72 -24.62 -4.81 -6.29 0.97 -12.88 -4.06 -8.76 1.41 -12.23 -4.5 -3.23 1.02 -12.24 -4.11 -3.21 2.1 -11.87 -5.19 -3.59 0.13 -7.4 -3.22 -4.96 0.36 -7.52 -3.46 -4.85 1.1 -9.18 -4.19 -3.18 0.68c-3.31,-0.94 -6.86,-1.59 -10.09,-2.86 -9.16,-3.6 -4.08,-2.07 -7.14,-4l-1.32 0.54 -7.02 -3.63 -2.25 0.52 -6.55 -3.61 -2.73 0.5 -30.02 -15.96 -0.89 0.41c-5.95,0 -4.85,1.71 -4.85,-3.5l-1.33 1.38 -12.37 -0.2 -1.93 -1.18 -4.25 3 -2.76 0.09 -108.52 55.38 -2.48 0.26 -3.71 2.87 -2.11 0.22c0,4.5 0.97,3.08 -4.07,3.08l-2.08 0.02c0,4.51 0.97,3.07 -4.1,3.07l-2.07 0.02c0,4.52 0.97,3.07 -4.11,3.07l-2.09 0.02c0,4.51 0.97,3.07 -4.1,3.07l-1.53 0.02c0,4.97 1.04,3.33 -4.65,3.33l-1.47 -0.24c0,5.08 1.08,3.42 -4.71,3.42l-1.97 -0.33 -4.21 2.99 -0.88 0.1c-3.78,2.91 -33.62,21.71 -51.67,27.68l-2.15 0.14c0,4.49 0.97,3.08 -4.04,3.08l-2.02 0.02c0,4.58 0.99,3.12 -4.16,3.12l-1.54 -0.03c0,4.96 1.05,3.32 -4.64,3.32l-1.47 -0.23c0,5.08 1.07,3.42 -4.71,3.42l-1.97 -0.33 -4.22 2.99 -0.89 0.1c-0.76,0.59 -1.69,1.36 -2.28,1.77 -0.57,0.39 -1.52,1.2 -2.22,1.66 -12.5,8.25 9.92,-5.61 -4.42,2.69l-20.33 10.55c-9.89,5.27 -18.79,11.03 -28.59,14.07l-2.13 0.17c0,4.5 0.97,3.08 -4.05,3.08l-1.85 0.01c0,4.74 1.02,3.22 -4.33,3.22l-1.59 -0.12c0,4.97 1.06,3.35 -4.6,3.35l-2.16 -0.26 -4.02 2.89 -1.97 0.2 -4.21 3.01 -0.82 0.08 -13.14 8.3c-3.91,2.06 -6.07,3.15 -10.01,5.27 -8.42,4.54 -14.12,8.2 -22.4,10.88l-2.29 0.28 -3.89 2.99 -1.96 0.1c0,4.64 1,3.15 -4.22,3.15l-1.63 -0.06c0,4.94 1.05,3.34 -4.56,3.34l-2.17 -0.25 -4.01 2.9 -1.94 0.19c0,4.54 0.96,3.04 -4.24,3.04l-0.75 0.05c-0.77,0.61 -1.7,1.39 -2.3,1.81l-37.14 19.57 -2.1 0.26c0,4.52 0.98,3.09 -4.08,3.09l-1.82 0c0,4.73 1.01,3.19 -4.36,3.19l-1.49 -0.09c0,5.04 1.07,3.38 -4.69,3.38l-1.31 -0.29c-0.73,0.56 -1.64,1.32 -2.19,1.7 -0.53,0.38 -1.49,1.18 -2.14,1.62 -0.86,0.57 -31.18,19.18 -46.91,24.36l-2.11 0.14c0,4.52 0.98,3.09 -4.08,3.09l-1.93 0c0,4.68 1.01,3.18 -4.25,3.18l-1.6 -0.09c0,4.99 1.07,3.37 -4.58,3.37l-1.96 -0.28 -4.22 3 -1.82 0.09c0,4.6 0.96,3.05 -4.37,3.05l-0.72 0.04 -11 7.44c-3.82,2.1 -6.73,3.41 -10.05,5.24 -7.4,4.08 -10.57,6.32 -18.41,8.82l-2.26 0.14 -3.92 3.01 -1.93 0.08c0,4.68 1,3.19 -4.26,3.19l-1.49 -0.1c0,5.05 1.07,3.39 -4.69,3.39l-2.15 -0.29 -4.03 2.92 -1.01 0.17 -45.36 24.48 -2.26 0.25 -3.92 3.01 -1.92 0.08c0,4.7 1.02,3.2 -4.26,3.2l-1.6 -0.11c0,4.97 1.06,3.36 -4.59,3.36l-1.27 -0.27c-1.81,1.45 -3.25,2.78 -6.48,4.81l-16.2 8.75c-8.24,4.58 -14.36,8.34 -22.41,11.03l-2.12 0.14c0,4.51 0.98,3.09 -4.07,3.09l-1.82 0c0,4.72 1.01,3.19 -4.36,3.19l-1.47 -0.1c0,5.08 1.07,3.42 -4.71,3.42l-1.05 -0.33c-0.75,0.59 -1.67,1.35 -2.25,1.75l-43.07 22.84 -2.1 0.14c0,4.52 0.98,3.1 -4.08,3.1l-1.81 0c0,4.74 1.01,3.2 -4.38,3.2l-1.47 -0.11c0,5.08 1.08,3.42 -4.71,3.42l-1.03 -0.33 -45.34 24.59 -2.08 0.14c0,4.54 0.98,3.1 -4.1,3.1l-1.54 -0.01c0,4.97 1.05,3.32 -4.64,3.32l-1.48 -0.23c0,5.08 1.08,3.42 -4.7,3.42l-1.04 -0.33c-0.75,0.59 -1.66,1.36 -2.23,1.76 -0.56,0.39 -1.51,1.21 -2.19,1.66l-18.47 10.16c-8.37,4.67 -14.11,8.27 -22.44,11.01l-2.07 0.14c0,4.55 0.98,3.11 -4.11,3.11l-1.54 -0.02c0,4.97 1.05,3.33 -4.65,3.33l-1.5 -0.24c0,5.08 1.08,3.44 -4.68,3.44l-1.03 -0.35 -39.15 21.5 -2.42 0.14 -3.77 2.95 -1.96 0.14c0,4.67 1.01,3.19 -4.22,3.19l-1.47 -0.09c0,5.07 1.07,3.42 -4.71,3.42l-1.04 -0.33c-1.75,1.38 -3.52,2.93 -6.59,4.89 -5.19,3.32 2.92,-1.63 -4.21,2.38l-28.35 14.22 -2.08 0.15c0,4.54 0.98,3.1 -4.1,3.1l-1.82 -0.01c0,4.79 1.03,3.26 -4.36,3.26l-1.32 -0.17c0,5.18 1.09,3.46 -4.86,3.46l-1.02 -0.37 -8.51 6.38c-0.09,0.06 -5.59,3.14 -6,3.37 -5.7,3.13 -6.41,3.61 -12.3,5.56l-1.89 0.14c0,4.74 1.02,3.24 -4.29,3.24l-3.09 5.9 4.08 6.32 -0.99 3.11 3.77 6.16 -0.68 2.26 6.61 13.2 -0.42 2.48 6.57 12.98 -0.39 2.54 6.51 12.91 -0.33 2.61 6.5 12.85 -0.32 2.65 6.59 12.81 -0.4 2.29 6.88 13.16 -0.7 1.76c4.61,0 3.04,-0.96 3.04,4.42l0.05 3.13 4.03 6.15 -0.94 1.17c5.15,0 3.37,-1.05 3.37,5.01l-0.28 2.6 6.69 12.85 -0.51 2.08 6.94 13.38 -0.75 1.54c4.8,0 3.15,-0.99 3.15,4.64l-0.06 2.94 6.51 12.52 -0.33 2.29 7 13.17 -0.82 1.38c4.97,0 3.27,-1.02 3.27,4.8l-0.18 2.67 6.8 12.78 -0.61 1.79c4.6,0 3.04,-0.95 3.04,4.4l0.05 3.04 6.59 12.41 -0.41 2.17 7.03 13.29 -0.85 1.24c5.12,0 3.36,-1.05 3.36,4.94l-0.27 2.54 6.88 12.92 -0.69 1.66c4.71,0 3.1,-0.97 3.1,4.52l-0.01 2.89 6.67 12.57 -0.49 1.89 3.01 4.29 0.08 3 6.76 12.45 -0.58 1.79c4.62,0 3.06,-0.96 3.06,4.4l0.03 2.87 6.78 12.58 -0.59 1.7c4.69,0 3.1,-0.98 3.1,4.49l-0.01 2.8 6.81 12.65 -0.63 1.54c4.86,0 3.22,-1.01 3.22,4.64l-0.13 2.73 6.91 12.73 -0.73 1.47c4.91,0 3.24,-1.01 3.24,4.71l-0.15 2.64 6.92 12.82 -0.73 1.4c4.96,0 3.26,-1.03 3.26,4.78l-0.17 2.53 7 12.93 -0.82 1.28c5.08,0 3.34,-1.04 3.34,4.9l-0.25 2.43 7.11 13.03 -0.93 1.89 2.93 4.29 0.17 1.96 2.99 4.22 0.1 2.92 6.9 12.54 -0.72 1.31c5.07,0 3.34,-1.04 3.34,4.87l-0.25 2.31 9.98 19.33 -0.71 1.21c5.2,0 3.44,-1.08 3.44,4.97l-0.34 1.98 3.01 4.2 0.08 2.69 10.01 18.95 -0.74 1.81c4.58,0 3.03,-0.95 3.03,4.37l0.06 2.05 2.91 4.14 0.18 1.47c4.99,0 3.33,-1.04 3.33,4.71l-0.24 1.77c4.76,0 3.2,-1.01 3.2,4.41l-0.1 1.46c5.14,0 3.48,-1.1 3.48,4.72l-0.39 0.98 8.82 14.48 0.45 0.01c14.48,9.25 7.9,7.83 34,4.57l9.26 1.6 21.66 -4.79 11.25 1.7 13.48 -3.81 13.72 0.72 14.1 -4.13 5.95 1.04 18.78 -4.83 11.17 1.74 13.56 -3.82 13.43 0.73 11.3 -3.86 8.45 0.76 16.28 -4.69 9.14 1.6 15.58 -4.04 16.35 0.95 8.38 -3.41 5.73 0.32 15.91 -4.58 13.5 1.49 11.23 -3.69 9.16 0.6 18.66 -4.72 30.91 1.85 0.01 1637.24 1783.62 0.64 0 -1638.1 30.92 -1.68 18.89 4.77 8.93 -0.69 13.55 3.78 11.18 -0.77 15.44 3.86 9.29 -0.78 15.58 3.87 9.15 -0.66 11 3.75 13.73 -0.66 11 3.75 10.63 -1.72 18.34 4.82 6.39 -0.88 18.27 3.97 6.46 -2.01 20.86 5.1 6.96 -0.11 8.38 3.2 16.35 -0.82 13.64 3.91 11.09 -0.94 14.39 4.03 16.53 -0.8 27.82 1.02 12.36 -14.14 -0.01 -1.53c0,-5.06 -1.43,-4.07 3.1,-4.07l0.24 -2.12 9.04 -15.86 0.2 -2.68 2.89 -3.79 0.03 -2.4c0,-5.15 -1.48,-4.19 3.06,-4.19l-0.11 -1.99c0,-5.49 -1.59,-4.49 3.2,-4.49l0.23 -1.69 2.86 -4.2 -0.77 -1.98 10.05 -19.29 -0.08 -2.35c0,-5.56 -1.62,-4.57 3.17,-4.57l-0.44 -1.62 9.71 -19.2 -0.09 -2.43c0,-5.66 -1.66,-4.66 3.18,-4.66l-0.58 -1.53c1.2,-3.24 2.86,-8.56 4.22,-11.34 3.64,-7.47 3.37,-5.53 5.63,-8.21l-0.29 -2.08c0,-6.08 -1.79,-5.03 3.39,-5.03l-0.8 -1.16 6.98 -13 -0.19 -2.45c0,-5.86 -1.72,-4.84 3.28,-4.84l-0.69 -1.35 6.87 -12.86 -0.09 -2.59c0,-5.66 -1.66,-4.66 3.18,-4.66l-0.64 -1.52 6.83 -12.67 -0.07 -2.79c0,-5.55 -1.62,-4.57 3.16,-4.57l-0.58 -1.61 6.76 -12.57 0.02 -2.89c0,-5.37 -1.57,-4.41 3.07,-4.41l-0.53 -1.77c1.2,-3.23 2.88,-8.63 4.17,-11.33 3.66,-7.66 3.38,-5.69 5.63,-8.41l-0.45 -1.9c1.21,-3.22 2.87,-8.58 4.15,-11.26 3.6,-7.55 3.23,-5.51 5.58,-8.32l-0.35 -2.06 9.62 -19.46 -0.33 -2.18c1.21,-3.24 2.81,-8.56 4.05,-11.23 3.59,-7.71 3.24,-5.64 5.56,-8.48l-0.46 -1.93 6.64 -12.53 -0.02 -2.92c0,-5.48 -1.6,-4.5 3.11,-4.5l-0.58 -1.68 6.76 -12.84 -0.11 -2.62c0,-5.74 -1.68,-4.74 3.2,-4.74l-0.69 -1.44 6.87 -13.09 -0.23 -2.37c1.22,-3.28 2.76,-8.4 4.03,-11.13 3.49,-7.49 3.03,-5.39 5.48,-8.42l-0.35 -2.09 9.62 -19.8 -0.53 -1.84 6.71 -12.6 -0.06 -2.85c0,-5.59 -1.63,-4.6 3.16,-4.6l-0.66 -1.58 6.84 -12.95 -0.96 -2.51 7.14 -13 0.02 -2.46c0,-5.45 -1.6,-4.48 3.07,-4.48l-0.66 -1.7 6.84 -13.19 -0.34 -2.26 6.53 -12.68 -0.18 -2.78 6.36 -12.73 -0.24 -2.73 6.42 -12.79 -0.28 -2.66 6.46 -13.8 -0.98 -1.66 4.08 -6.89 -0.62 -2.38 6.8 -18.19 0 -11.82c-5.84,0 -4.54,1.55 -4.54,-4l-1.64 -0.14 -3.96 -2.95 -2.23 0.16c-5.33,0 -4.3,1.51 -4.3,-3.25l-1.88 -0.27 -26.88 -15.18 -0.94 0.39c-5.85,0 -4.76,1.67 -4.76,-3.48l-1.42 0.14c-5.31,0 -4.29,1.5 -4.29,-3.24l-1.9 -0.11c-8.33,-2.68 -12.08,-5.6 -20.23,-10.07 -3.22,-1.78 -7.33,-3.65 -10.16,-5.29l-8.83 -6.16 -0.96 -0.19 -3.95 -2.91 -2.23 0.21c-5.38,0 -4.34,1.51 -4.34,-3.3l-1.85 -0.04c-4.92,0 -3.95,1.38 -3.95,-3.05l-2.23 -0.17 -33.08 -18.38 -0.92 -0.07 -4.23 -3.02 -1.95 0.4c-5.86,0 -4.76,1.67 -4.76,-3.49l-1.43 0.16c-5.33,0 -4.3,1.51 -4.3,-3.25l-1.88 -0.06 -3.94 -3.03 -2.24 -0.41 -36.99 -19.43c-0.42,-1.25 -1.5,-1.2 -2.26,-1.8l-0.94 -0.14 -3.97 -2.95 -2.21 0.36c-5.84,0 -4.75,1.68 -4.75,-3.45l-1.43 0.16c-5.33,0 -4.3,1.5 -4.3,-3.25l-1.88 -0.07 -3.94 -3.02 -2.25 -0.41c-14.26,-4.36 -33.93,-17.19 -34.79,-17.75 -0.56,-0.35 -1.8,-0.49 -2.2,-1.69 -0.42,-1.24 -1.5,-1.2 -2.25,-1.79l-0.94 -0.14 -3.97 -2.95 -2.22 0.36c-5.84,0 -4.75,1.67 -4.75,-3.45l-1.43 0.15c-5.33,0 -4.3,1.51 -4.3,-3.25l-1.88 -0.08 -3.92 -3.01 -2.26 -0.41 -36.98 -19.43c-0.42,-1.24 -1.5,-1.2 -2.25,-1.8l-0.96 -0.14 -3.97 -2.95 -2.21 0.35c-5.82,0 -4.74,1.67 -4.74,-3.44l-1.44 0.14c-5.31,0 -4.29,1.5 -4.29,-3.23l-1.9 -0.08 -3.92 -3.01 -2.26 -0.41 -20.57 -9.81c-0.76,-0.49 -4,-1.98 -4.45,-3.33 -0.43,-1.3 -1.52,-1.27 -2.28,-1.91l-0.52 0.87c-4.36,-1.76 -3.26,-1.27 -7.09,-3.51 -0.56,-0.32 -1.82,-0.49 -2.25,-1.69 -0.44,-1.24 -1.48,-1.25 -2.24,-1.85l-0.78 -0.08 -4.19 -3.01 -2 0.38c-5.84,0 -4.75,1.67 -4.75,-3.47l-1.43 0.17c-5.44,0 -4.41,1.55 -4.41,-3.26l-1.77 -0.02c-5.02,0 -4.05,1.42 -4.05,-3.07l-2.13 -0.21 -27.31 -15.25 -0.51 0.86c-4.38,-1.77 -3.25,-1.26 -7.09,-3.5 -0.56,-0.33 -1.82,-0.5 -2.24,-1.7 -0.44,-1.23 -1.48,-1.24 -2.24,-1.84l-0.8 -0.09 -4.18 -3 -2 0.37c-5.83,0 -4.74,1.67 -4.74,-3.47l-1.44 0.21c-5.52,0 -4.48,1.57 -4.48,-3.3l-1.71 0.04c-5.13,0 -4.14,1.45 -4.14,-3.13l-2.04 -0.28 -33.48 -18.26 -0.52 0.87c-4.55,-1.83 -3.11,-1.17 -7.05,-3.5 -0.55,-0.33 -1.79,-0.52 -2.2,-1.7 -0.42,-1.22 -1.43,-1.25 -2.16,-1.86l-0.96 -0.14 -4.07 -2.95 -2.11 -0.21 -4 -2.88 -2.18 0.25c-5.61,0 -4.55,1.6 -4.55,-3.34l-1.63 -0.02c-4.97,0 -3.99,1.4 -3.99,-3.07l-2.2 -0.13 -34.49 -17.32c-3.04,-1.66 -3.6,-1.95 -6.48,-3.8l-4.45 -3.48 -0.95 -0.05c-5.26,0 -4.3,1.52 -4.3,-3.04l-1.88 -0.2 -3.93 -2.89 -2.25 0.2c-5.38,0 -4.33,1.52 -4.33,-3.3l-1.85 0.11c-5.28,0 -4.27,1.5 -4.27,-3.2l-1.91 -0.03c-4.98,0 -4.01,1.4 -4.01,-3.06l-2.18 -0.41 -45.49 -24.32 -0.88 -0.11 -4.13 -2.98 -2.05 0.35c-5.8,0 -4.72,1.66 -4.72,-3.44l-1.46 0.17c-5.44,0 -4.41,1.55 -4.41,-3.26l-1.77 0c-5.06,0 -4.08,1.43 -4.08,-3.09l-2.11 -0.18 -45.56 -24.55 -0.8 -0.08 -4.21 -3.01 -1.97 0.39c-5.9,0 -4.81,1.69 -4.81,-3.48l-1.38 0.21c-5.53,0 -4.49,1.58 -4.49,-3.31l-1.69 0.05c-5.17,0 -4.17,1.46 -4.17,-3.14l-2.01 -0.12 -3.85 -2.97 -2.33 -0.28c-7.96,-2.58 -12.46,-5.57 -20.33,-9.83l-18.92 -11.53 -0.94 -0.05c-5.24,0 -4.28,1.51 -4.28,-3.04l-1.9 -0.18 -3.95 -2.91 -2.23 0.24c-5.54,0 -4.49,1.57 -4.49,-3.33l-1.7 0.16c-5.33,0 -4.3,1.5 -4.3,-3.25l-1.88 -0.05c-4.94,0 -3.97,1.39 -3.97,-3.04l-2.21 -0.13 -3.85 -2.96 -2.33 -0.41c-17.81,-5.66 -29.98,-15.23 -33.49,-18.14l-0.52 0.86c-4.42,-1.8 -3.16,-1.23 -7.03,-3.51 -0.54,-0.32 -1.79,-0.51 -2.2,-1.69 -0.43,-1.22 -1.45,-1.24 -2.19,-1.84l-0.94 -0.06c-5.24,0 -4.28,1.52 -4.28,-3.04l-1.91 -0.18 -3.94 -2.91 -2.24 0.24c-5.54,0 -4.49,1.58 -4.49,-3.33l-1.69 0.16c-5.33,0 -4.3,1.51 -4.3,-3.25l-1.88 -0.05c-4.94,0 -3.97,1.39 -3.97,-3.04l-2.22 -0.09 -64.11 -33.91 -0.8 0.07c-5.47,0 -4.48,1.59 -4.48,-3.16l-1.7 -0.03c-5.3,0 -4.34,1.53 -4.34,-3.07l-1.85 -0.1 -4.19 -2.99 -1.99 -0.19 -4.07 -2.9 -2.11 -0.19 -4.07 -2.9 -2.11 -0.19 -4.08 -2.9 -2.11 -0.19 -4.07 -2.9 -2.11 0.39c-5.85,0 -4.75,1.67 -4.75,-3.48l-1.43 -0.22 -4.07 -2.87 -2.11 -0.2 -4.08 -2.9 -2.1 0.4c-5.86,0 -4.76,1.67 -4.76,-3.49l-1.43 -0.23 -4.04 -2.86 -2.14 -0.21 -4.05 -2.88 -2.13 -0.21 -4.05 -2.88 -2.13 0.52 -10.21 2.96z"/>
 </g>
</svg>
