<?xml version="1.0" encoding="UTF-8"?>
<!DOCTYPE svg PUBLIC "-//W3C//DTD SVG 1.1//EN" "http://www.w3.org/2000/svg">
<svg xmlns="http://www.w3.org/2000/svg" xml:space="preserve" width="42.3332mm" height="42.3332mm" version="1.1" style="shape-rendering:geometricPrecision; text-rendering:geometricPrecision; image-rendering:optimizeQuality; fill-rule:evenodd; clip-rule:evenodd"
viewBox="0 0 4233.32 4233.32">
 <g>
  <path d="M1526.43 2897.23c199.31,-46.69 377.29,103.54 406,260.09 37.59,205.2 -97.88,370.24 -261.18,403.22 -435.38,87.99 -583.52,-560.6 -144.82,-663.31zm-725.18 -747.3c210.26,-36.26 360.21,114.3 389.04,283.99 32.49,191.33 -116.94,365.61 -277.06,384.47 -193.42,22.76 -359.11,-79.65 -393.78,-282.26 -34,-198.65 119.33,-358.2 281.8,-386.2zm1439.74 -403.67c106.67,-28.84 134.72,137.43 39.74,161.58 -108.43,27.58 -158.99,-129.33 -39.74,-161.58zm417.83 -323.53c11.91,-27.24 28.25,-46.76 44.75,-75.34 15.18,-26.31 28.13,-45.25 44.87,-73.4l268.13 -441.45c26.92,-45.3 347.92,-557.78 353.97,-592.99l-20.35 -13.29c-30.17,6.5 -22.08,8.21 -37.42,29.76l-84.23 107.98c-19.26,23.37 -36.74,50.89 -57.01,76.4 -21.5,27.07 -36.23,41.97 -57.18,67.99l-960.26 1228.4c-43.56,32.86 -188.75,106.56 -243.55,133.41 -80.47,39.43 -666.38,318.16 -706.22,322.29 -45.6,-43.09 -57.66,-61.42 -123.03,-99.39 -154.99,-89.95 -361.95,-78.39 -491.76,23.82 -72.37,57.01 -145.45,139.63 -176.24,259.51 -32.44,126.31 3.82,267.55 61.29,352.99 139.68,207.69 398.13,267.52 600.06,153.33 91.76,-51.87 159.8,-122.76 202.43,-226.88 57.31,-140.01 31.93,-228.8 -4.99,-362.91 76.2,-53.74 252.04,-113.87 347.93,-137.03 127.59,-30.85 273.08,-73.71 402.01,-93.25 -19.84,151.69 -155.77,678.75 -233.6,747.19 -152.07,-37.72 -240.71,-57.79 -390.61,11.86 -334.28,155.37 -361.62,693.06 80.03,847.42 2.77,72.49 -41.15,183.24 -51.1,259.39 193.32,-12.32 128.9,-38.81 166.1,-236.95 1.68,-0.99 4,-2.15 5.23,-2.65l75.98 -14.58c267.82,-43.56 437.67,-310.1 358.5,-580.75 -32.66,-111.62 -86.6,-153.65 -142.3,-214.14 8.38,-43.23 296.93,-648.2 323.52,-706.25 102.16,-222.85 176.67,-291.59 356.11,-419.64l1085.2 -844.84c25.21,-17.6 44.92,-35.88 69.3,-56.08 44.67,-37.04 124.42,-82.47 131.69,-117.29 -12.46,-15.56 -4.1,-7.13 -19.69,-19.64 -24.93,5.21 -1095.17,677.92 -1177.56,707zm-473.88 980.02c63.56,-12.52 86.42,-36.61 165.47,-37.32 122.73,-1.08 266.23,150.56 330.14,235.69 111.91,149.08 185.66,292.83 277.37,477.03 61.14,122.78 198.07,422.66 273.82,480.05 158.89,120.42 400.55,-11.61 542.47,-112.25 31.7,-22.49 73.73,-58.73 87.38,-105.08 19.36,-65.83 -25.81,-86.48 -57.72,-118.36 -128.49,-128.34 -1279.74,-1289.46 -1320.48,-1315.07 -23.04,13.35 -42.71,30.59 -62.33,44.75 -58.47,42.25 -227.25,402.74 -236.12,450.56zm-1180.2 -663.44l480.55 -471.99 52.27 52.14 -236.75 236.96c-41.37,41.72 -77.53,78.69 -117.19,119.41 -27.92,28.63 -87.28,104.85 -119.08,122.7 -18.76,7.1 -72.85,61.49 -48.02,85.62 28.23,27.42 64.99,-27.35 84.38,-46.91 53.59,-54.12 108.46,-100.6 163.05,-155.02l317.53 -315.49c18.94,11.91 27.17,25.68 45.96,39.11 -12.95,33.16 -241.31,251.63 -270.83,280.33 -47.97,46.64 -87.93,90.76 -134.84,138.73 -28.98,29.61 -118.2,108.5 -119.26,145.09 14.76,14.93 5.07,7.25 24.68,18 59.23,-25.1 92.44,-79.39 139.48,-125.57 68.77,-67.56 385.24,-387.44 412.64,-401.29l43.44 40.64c-14.56,26.82 -235.22,239.85 -276.21,281.65 -46.94,47.85 -89.45,89.37 -135.45,138.05 -24.71,26.16 -42.99,46.73 -66.81,73.88 -55.12,62.82 -55.97,38.98 -41.34,80.4 46.15,14.05 19.13,10.55 84.45,-44.77 29.97,-25.38 38.2,-38.68 65.72,-67.31 45.15,-46.99 91.21,-89.29 138.15,-135.45l271.7 -273.36c31.43,12.03 31.4,23.36 55.52,42.6 -20.34,49.13 -393.4,384.67 -423.84,442.51 133.33,-49.46 182.23,-105.66 257.1,-177 43.28,-41.25 181.1,-191.15 218.94,-211.49l41.95 43.43c-13.84,19.39 -175.25,178.03 -176.14,179.24l7.08 4.79c72.42,-47.37 88.36,-25.99 182.11,-104.33 76.3,-63.73 -17.53,41.62 166.55,-77.36 45.42,-29.33 56.98,-51.87 85.08,-96.77 -17.02,-27.39 -83.67,-87.42 -111.4,-114.9 -264.55,-262.03 -515.93,-520.06 -786.55,-780.86 -146.15,-140.81 -173.4,-194.39 -263.32,-120.51 -56.73,46.58 -401.18,395.44 -448.67,445.72 -19.77,20.9 -34.05,36.21 -54.04,57.01 -53.61,55.78 -141.44,105.34 -110.75,199.41 42.41,14.38 73.89,5.19 104.63,-21.07l362.83 -353.75c16.42,-19.36 55.25,-55.09 77.28,-70.88 31.08,-22.24 73.05,-21.76 103.07,5.64 -11.96,28.28 -244.26,254.91 -265.08,275.96 -45.86,46.28 -86.14,87.8 -131.55,134.67 -23.34,24.07 -40.94,45.52 -64.31,68.81 -23.14,23.12 -53.16,38.48 -56.43,74.79 9.17,9.62 12.01,11.64 23.57,19.19 61.72,-18.46 474.49,-472.77 553.15,-527.52l44.7 40.6 -467.71 482.84c-51.12,55 -85.01,70.43 -33.29,99.52 79.42,-43.11 501.63,-507.88 553.12,-528.8 18.94,24.67 30.85,23.94 43.24,55.12l-480.56 478.66c-52.45,62.17 -57.03,36.74 -39.81,81.81 46.56,14.96 52.86,-17.97 83.25,-45.57l207.97 -198.78c47.52,-47.24 89.49,-89.27 136.93,-136.63 25.24,-25.18 45.08,-45.13 70.26,-70.23l52 -51.6 64.69 35.46c-35.63,21.53 -520.24,515.32 -528.53,543.88 8.74,14.08 7.63,12.97 18.97,23.8 40.03,-3.66 53.76,-34.6 79.19,-59.18l340.77 -332.16c45.46,-46.36 86.2,-91.11 134.24,-132.86 19.02,11.54 35.33,28.23 48.53,46.26l-421.15 424.88c-84.64,91.48 -127.17,113.97 -84.89,148.39 25.01,-4.05 67.13,-40.59 73.08,-58.29zm582.56 718.94c32.91,1.99 37.69,-8.39 55.8,-27.15 62.67,-64.94 210.59,-191.57 272.05,-269.69l7.31 -10.27c-55.68,8.97 -96.65,15.08 -128.23,46.51 -29.18,29.03 -52.15,52.6 -81.25,81.49 -30.42,30.16 -54.6,54.94 -83.48,86.74 -24.98,27.48 -66.91,50.77 -42.2,92.37zm124.77 136.25c25.73,10.68 54.01,22.74 89.82,10.5 33.11,-11.33 34.62,-35.78 44.17,-74.84 14.48,-59.45 35.45,-129.98 44.52,-189.96 -27.2,14.48 -87.21,82.69 -111.68,108.43 -35.81,37.64 -83.38,69.22 -66.83,145.87zm-42.91 -384.96c-49.51,17.42 -88.08,18.18 -126.13,47.69 -18.53,14.4 -84,69.57 -53.61,100.7 34.07,34.85 171.18,-120.32 179.74,-148.39zm-664.42 -470.23c74.61,-58.27 160.22,-147.92 242.56,-229.02l237.99 -235.45 45.95 43.37c-102.28,119.86 -352.6,333.97 -466.7,480.32 31.8,-17.85 91.16,-94.07 119.08,-122.7 39.66,-40.72 75.82,-77.69 117.19,-119.41l236.75 -236.96 -52.27 -52.14 -480.55 471.99z"/>
 </g>
</svg>
