<?xml version="1.0" encoding="UTF-8"?>
<!DOCTYPE svg PUBLIC "-//W3C//DTD SVG 1.1//EN" "http://www.w3.org/2000/svg">
<svg xmlns="http://www.w3.org/2000/svg" xml:space="preserve" width="42.3332mm" height="42.3332mm" version="1.1" style="shape-rendering:geometricPrecision; text-rendering:geometricPrecision; image-rendering:optimizeQuality; fill-rule:evenodd; clip-rule:evenodd"
viewBox="0 0 4233.32 4233.32">
 <g>
  <path d="M2479.72 3179.13c-29.54,132.3 -195.18,98.23 -334.88,98.23 -71.54,0 -143.08,-0.1 -214.62,0.02 -236.5,0.41 -185.08,-112 -185.08,-462.42 0,-90.32 -11.63,-357.69 3.78,-428.07 27.4,-125.05 211.75,-93.02 337.37,-93.02 71.54,0 143.08,0.15 214.62,0 229.52,-0.53 181.13,101.8 181.13,462.57 0,82.85 10.98,363.08 -2.32,422.69zm-1405.93 336.39l32.44 3.73 0.05 10.88 2012.91 0.25 0 -11.16 33.31 -2.89c120.24,-4.16 236.03,-107.93 285.03,-221.65 46,-106.84 28.05,-559.67 28.28,-733.34 0.05,-59.81 10.82,-76.4 -22.54,-108.43 -261.08,-250.65 -561.08,-560.38 -819.62,-819.09 -86.09,-86.14 -167.5,-167.47 -253.62,-253.59 -80.68,-80.73 -175.41,-166.78 -248.71,-249.52 -30.39,8.54 -105.94,95.36 -133.33,122.78 -43.82,43.89 -83.02,82.9 -126.81,126.81l-760.82 760.84c-86.22,86 -167.45,167.56 -253.62,253.6 -100.78,100.6 -84.86,67.13 -84.76,166.6 0.2,172.01 -16.95,625.59 26.87,731.73 38.52,93.32 154.51,222.05 284.94,222.45zm1776.8 -2231.79c-21.89,-8.96 -203.44,-198.85 -236.58,-232.01l-354.42 -354.4c-31.2,-31.1 -76.3,-95.23 -147.34,-94.05 -72.06,1.21 -114.92,60.46 -147.73,93.52 -41.55,41.83 -78.44,78.74 -120.09,120.52l-1186.17 1193.9c-25.03,25.11 -97.03,85.19 -104.91,128.93 -14,77.6 29.62,134.61 90.13,148.26 80.78,18.18 128.04,-43.26 159.09,-74.36 146.7,-146.88 1286.95,-1297.34 1317.64,-1312.1l1159.16 1162.15c65.11,65.22 125.57,128.25 191.95,191.85 33.04,31.66 84.78,62.83 144.51,27.15 36.62,-21.88 75.24,-66.83 64.59,-131.09 -10.6,-63.96 -135.92,-169.32 -175.63,-209.31 -28.11,-28.27 -279.31,-268.68 -284.15,-293 -9.99,-50.24 12.49,-865.9 -2.46,-967.43 -7.03,-47.69 -48.75,-95.21 -97.6,-97.98 -27.38,-1.56 -174.03,-2.24 -192.76,3.05 -104,29.28 -77.03,205.35 -77.03,309.3 0,127.49 3.6,260.37 -0.2,387.1zm268.6 2246.65l33.31 -2.5 0 -11.55 -33.31 2.89 0 11.16zm-2012.91 -0.25l-0.05 -10.88 -32.44 -3.73 -0.05 11.96 32.54 2.65z"/>
 </g>
</svg>
