<?xml version="1.0" encoding="UTF-8"?>
<!DOCTYPE svg PUBLIC "-//W3C//DTD SVG 1.1//EN" "http://www.w3.org/2000/svg">
<svg xmlns="http://www.w3.org/2000/svg" xml:space="preserve" width="34.5438mm" height="34.5438mm" version="1.1" style="shape-rendering:geometricPrecision; text-rendering:geometricPrecision; image-rendering:optimizeQuality; fill-rule:evenodd; clip-rule:evenodd"
viewBox="0 0 3454.38 3454.38">
 <defs>
  <style type="text/css">
    .fil3 {fill:#FEFEFE}
    .fil1 {fill:#669B9C}
    .fil2 {fill:#3C5D5E}
    .fil0 {fill:#99B898}
  </style>
 </defs>
 <g>
  <g>
   <circle class="fil0" cx="1727.19" cy="1727.19" r="1693.33"/>
   <g>
    <path class="fil1" d="M1727.19 33.86c935.19,0 1693.33,758.15 1693.33,1693.33 0,935.18 -758.14,1693.33 -1693.33,1693.33 -935.18,0 -1693.32,-758.15 -1693.32,-1693.33 0,-935.18 758.14,-1693.33 1693.32,-1693.33z"/>
    <path id="1" class="fil2" d="M1727.19 33.86c0.53,0 1.05,0.02 1.58,0.02 -0.53,0 -1.05,-0.01 -1.58,-0.01 -0.53,0 -1.05,0.01 -1.58,0.01 0.53,0 1.05,-0.02 1.58,-0.02zm42.12 0.53c1.06,0.03 2.12,0.06 3.18,0.08 -1.06,-0.02 -2.12,-0.05 -3.18,-0.08zm43.4 1.61c1.08,0.06 2.16,0.11 3.24,0.17 -1.08,-0.06 -2.16,-0.11 -3.24,-0.17zm43.11 2.69c1.11,0.09 2.21,0.17 3.32,0.26 -1.11,-0.09 -2.21,-0.17 -3.32,-0.26zm42.79 3.76c1.15,0.12 2.29,0.23 3.43,0.35 -1.14,-0.12 -2.28,-0.23 -3.43,-0.35zm42.47 4.81c1.19,0.15 2.38,0.3 3.56,0.45 -1.18,-0.15 -2.37,-0.3 -3.56,-0.45zm42.14 5.85c1.24,0.19 2.47,0.38 3.7,0.57 -1.23,-0.19 -2.46,-0.38 -3.7,-0.57zm41.8 6.88c1.28,0.23 2.56,0.46 3.84,0.69 -1.28,-0.23 -2.56,-0.46 -3.84,-0.69zm41.45 7.89c1.33,0.27 2.65,0.54 3.98,0.82 -1.33,-0.28 -2.65,-0.55 -3.98,-0.82zm41.08 8.9c1.37,0.31 2.74,0.63 4.12,0.95 -1.38,-0.32 -2.75,-0.64 -4.12,-0.95zm40.71 9.87c1.41,0.37 2.83,0.73 4.24,1.1 -1.41,-0.37 -2.83,-0.73 -4.24,-1.1zm40.32 10.86c1.45,0.41 2.91,0.82 4.36,1.24 -1.45,-0.42 -2.91,-0.83 -4.36,-1.24zm39.92 11.82c1.49,0.46 2.98,0.92 4.47,1.39 -1.49,-0.47 -2.98,-0.93 -4.47,-1.39zm39.51 12.76c1.52,0.52 3.04,1.03 4.55,1.55 -1.51,-0.52 -3.03,-1.04 -4.55,-1.55zm39.09 13.71c1.54,0.56 3.08,1.12 4.62,1.69 -1.54,-0.57 -3.08,-1.13 -4.62,-1.69zm38.65 14.63c1.56,0.61 3.11,1.22 4.67,1.84 -1.56,-0.62 -3.11,-1.23 -4.67,-1.84zm38.2 15.54c1.57,0.66 3.13,1.32 4.7,1.99 -1.57,-0.67 -3.13,-1.33 -4.7,-1.99zm37.75 16.45c1.56,0.7 3.13,1.41 4.69,2.12 -1.56,-0.71 -3.13,-1.42 -4.69,-2.12zm37.27 17.33c1.56,0.75 3.11,1.5 4.67,2.25 -1.56,-0.75 -3.11,-1.5 -4.67,-2.25zm36.78 18.21c1.54,0.78 3.09,1.58 4.63,2.37 -1.54,-0.79 -3.09,-1.59 -4.63,-2.37zm36.28 19.07c1.52,0.82 3.05,1.65 4.57,2.48 -1.52,-0.83 -3.05,-1.66 -4.57,-2.48zm35.76 19.92c1.5,0.86 3,1.72 4.49,2.58 -1.49,-0.86 -2.99,-1.72 -4.49,-2.58zm35.24 20.76c1.46,0.88 2.92,1.77 4.38,2.66 -1.46,-0.89 -2.92,-1.78 -4.38,-2.66zm34.69 21.58c1.42,0.91 2.85,1.82 4.27,2.74 -1.42,-0.92 -2.85,-1.83 -4.27,-2.74zm34.13 22.39c1.38,0.93 2.77,1.87 4.15,2.8 -1.38,-0.93 -2.77,-1.87 -4.15,-2.8zm33.56 23.19c1.34,0.95 2.67,1.9 4.01,2.85 -1.34,-0.95 -2.67,-1.9 -4.01,-2.85zm32.97 23.97c1.29,0.97 2.58,1.93 3.87,2.9 -1.29,-0.97 -2.58,-1.93 -3.87,-2.9zm32.36 24.74c1.25,0.98 2.49,1.96 3.73,2.94 -1.24,-0.98 -2.48,-1.96 -3.73,-2.94zm31.74 25.5c1.2,0.98 2.4,1.97 3.6,2.96 -1.2,-0.99 -2.4,-1.98 -3.6,-2.96zm31.11 26.23c1.16,1 2.31,2 3.47,3 -1.16,-1 -2.31,-2 -3.47,-3zm30.46 26.95c1.12,1.01 2.23,2.03 3.35,3.04 -1.12,-1.01 -2.23,-2.03 -3.35,-3.04zm29.8 27.67c1.08,1.02 2.16,2.05 3.23,3.08 -1.07,-1.03 -2.15,-2.06 -3.23,-3.08zm29.11 28.35c1.05,1.05 2.1,2.1 3.15,3.15 -0.53,-0.53 -1.04,-1.06 -1.57,-1.59 -0.52,-0.52 -1.05,-1.04 -1.58,-1.56zm28.35 28.96c1.08,1.12 2.15,2.25 3.22,3.37 -1.07,-1.12 -2.14,-2.25 -3.22,-3.37zm27.66 29.63c1.09,1.2 2.18,2.39 3.27,3.59 -1.09,-1.2 -2.18,-2.39 -3.27,-3.59zm26.95 30.29c1.11,1.27 2.21,2.54 3.31,3.81 -1.1,-1.27 -2.2,-2.54 -3.31,-3.81zm26.24 30.93c1.11,1.35 2.22,2.69 3.33,4.03 -1.11,-1.34 -2.22,-2.68 -3.33,-4.03zm25.51 31.58c1.11,1.41 2.22,2.82 3.32,4.23 -1.1,-1.41 -2.21,-2.82 -3.32,-4.23zm24.77 32.2c1.1,1.47 2.2,2.94 3.3,4.41 -1.1,-1.47 -2.2,-2.94 -3.3,-4.41zm24.01 32.82c1.09,1.52 2.18,3.05 3.26,4.57 -1.08,-1.52 -2.17,-3.05 -3.26,-4.57zm23.25 33.41c1.07,1.58 2.13,3.15 3.19,4.72 -1.06,-1.57 -2.12,-3.14 -3.19,-4.72zm22.47 34.01c1.03,1.61 2.07,3.23 3.1,4.84 -1.03,-1.61 -2.07,-3.23 -3.1,-4.84zm21.67 34.58c1,1.65 2,3.3 3,4.95 -1,-1.65 -2,-3.3 -3,-4.95zm20.86 35.15c0.96,1.67 1.92,3.34 2.88,5.02 -0.96,-1.68 -1.92,-3.35 -2.88,-5.02zm20.03 35.69c0.92,1.69 1.84,3.39 2.76,5.08 -0.92,-1.69 -1.84,-3.39 -2.76,-5.08zm19.2 36.24c0.87,1.7 1.74,3.4 2.61,5.1 -0.87,-1.7 -1.74,-3.4 -2.61,-5.1zm18.34 36.76c0.83,1.7 1.65,3.4 2.46,5.1 -0.81,-1.7 -1.63,-3.4 -2.46,-5.1zm17.48 37.27c0.77,1.69 1.54,3.38 2.3,5.08 -0.76,-1.7 -1.53,-3.39 -2.3,-5.08zm16.6 37.77c0.71,1.67 1.42,3.35 2.13,5.03 -0.71,-1.68 -1.42,-3.36 -2.13,-5.03zm15.7 38.25c0.66,1.65 1.31,3.31 1.96,4.96 -0.65,-1.65 -1.3,-3.31 -1.96,-4.96zm14.79 38.72c0.6,1.62 1.19,3.25 1.79,4.87 -0.6,-1.62 -1.19,-3.25 -1.79,-4.87zm13.87 39.18c0.54,1.58 1.08,3.17 1.61,4.75 -0.53,-1.58 -1.07,-3.17 -1.61,-4.75zm12.93 39.62c0.48,1.54 0.96,3.08 1.44,4.62 -0.48,-1.54 -0.96,-3.08 -1.44,-4.62zm11.97 40.04c0.43,1.5 0.86,2.99 1.28,4.49 -0.42,-1.5 -0.85,-2.99 -1.28,-4.49zm11.01 40.46c0.38,1.44 0.75,2.88 1.12,4.33 -0.37,-1.45 -0.74,-2.89 -1.12,-4.33zm10.03 40.85c0.32,1.39 0.64,2.78 0.96,4.17 -0.32,-1.39 -0.64,-2.78 -0.96,-4.17zm9.03 41.23c0.27,1.34 0.55,2.67 0.82,4.01 -0.27,-1.34 -0.55,-2.67 -0.82,-4.01zm8.02 41.6c0.23,1.28 0.46,2.56 0.69,3.85 -0.23,-1.29 -0.46,-2.57 -0.69,-3.85zm7 41.94c0.19,1.23 0.38,2.47 0.57,3.7 -0.19,-1.23 -0.38,-2.47 -0.57,-3.7zm5.97 42.28c0.15,1.19 0.3,2.37 0.45,3.56 -0.15,-1.19 -0.3,-2.37 -0.45,-3.56zm4.91 42.6c0.12,1.14 0.23,2.29 0.35,3.43 -0.12,-1.14 -0.23,-2.29 -0.35,-3.43zm3.85 42.9c0.09,1.11 0.17,2.22 0.26,3.32 -0.09,-1.1 -0.17,-2.21 -0.26,-3.32zm2.78 43.19c0.06,1.08 0.11,2.16 0.17,3.23 -0.06,-1.07 -0.11,-2.15 -0.17,-3.23zm1.7 43.46c0.02,1.06 0.05,2.12 0.08,3.18 -0.03,-1.06 -0.06,-2.12 -0.08,-3.18zm0.59 43.72c0,0.53 0.02,1.05 0.02,1.58 0,0.53 -0.02,1.05 -0.02,1.58 0,-0.53 0.01,-1.05 0.01,-1.58 0,-0.53 -0.01,-1.05 -0.01,-1.58zm-0.51 43.7c-0.03,1.06 -0.06,2.12 -0.08,3.18 0.02,-1.06 0.05,-2.12 0.08,-3.18zm-1.61 43.41c-0.06,1.07 -0.11,2.15 -0.17,3.23 0.06,-1.08 0.11,-2.16 0.17,-3.23zm-2.69 43.1c-0.09,1.1 -0.17,2.21 -0.26,3.32 0.09,-1.11 0.17,-2.22 0.26,-3.32zm-3.76 42.79c-0.12,1.14 -0.23,2.29 -0.35,3.43 0.12,-1.14 0.23,-2.29 0.35,-3.43zm-4.81 42.47c-0.15,1.19 -0.3,2.37 -0.45,3.56 0.15,-1.19 0.3,-2.37 0.45,-3.56zm-5.85 42.14c-0.19,1.23 -0.38,2.47 -0.57,3.7 0.19,-1.23 0.38,-2.47 0.57,-3.7zm-6.88 41.79c-0.23,1.29 -0.46,2.57 -0.69,3.85 0.23,-1.28 0.46,-2.56 0.69,-3.85zm-7.89 41.44c-0.27,1.34 -0.55,2.67 -0.82,4.01 0.27,-1.34 0.55,-2.67 0.82,-4.01zm-8.89 41.07c-0.32,1.39 -0.64,2.78 -0.96,4.17 0.32,-1.39 0.64,-2.78 0.96,-4.17zm-9.87 40.69c-0.37,1.45 -0.74,2.89 -1.12,4.33 0.38,-1.44 0.75,-2.88 1.12,-4.33zm-10.85 40.3c-0.42,1.5 -0.85,2.99 -1.28,4.49 0.43,-1.5 0.86,-2.99 1.28,-4.49zm-11.81 39.91c-0.48,1.54 -0.96,3.08 -1.44,4.62 0.48,-1.54 0.96,-3.08 1.44,-4.62zm-12.76 39.49c-0.53,1.58 -1.07,3.17 -1.61,4.75 0.54,-1.58 1.08,-3.17 1.61,-4.75zm-13.69 39.06c-0.6,1.62 -1.19,3.25 -1.79,4.87 0.6,-1.62 1.19,-3.25 1.79,-4.87zm-14.62 38.63c-0.65,1.65 -1.3,3.31 -1.96,4.96 0.66,-1.65 1.31,-3.31 1.96,-4.96zm-15.53 38.18c-0.71,1.68 -1.42,3.36 -2.13,5.03 0.71,-1.67 1.42,-3.35 2.13,-5.03zm-16.43 37.72c-0.76,1.7 -1.53,3.39 -2.3,5.08 0.77,-1.69 1.54,-3.38 2.3,-5.08zm-17.32 37.25c-0.81,1.7 -1.63,3.4 -2.46,5.1 0.83,-1.7 1.65,-3.4 2.46,-5.1zm-18.19 36.76c-0.87,1.7 -1.74,3.4 -2.61,5.1 0.87,-1.7 1.74,-3.4 2.61,-5.1zm-19.05 36.26c-0.92,1.69 -1.84,3.39 -2.76,5.08 0.92,-1.69 1.84,-3.39 2.76,-5.08zm-19.91 35.75c-0.96,1.68 -1.92,3.35 -2.88,5.02 0.96,-1.67 1.92,-3.34 2.88,-5.02zm-20.74 35.22c-1,1.65 -2,3.3 -3,4.95 1,-1.65 2,-3.3 3,-4.95zm-21.57 34.69c-1.03,1.61 -2.07,3.23 -3.1,4.84 1.03,-1.61 2.07,-3.23 3.1,-4.84zm-22.38 34.13c-1.06,1.57 -2.12,3.14 -3.19,4.72 1.07,-1.58 2.13,-3.15 3.19,-4.72zm-23.18 33.56c-1.08,1.52 -2.17,3.05 -3.26,4.57 1.09,-1.52 2.18,-3.05 3.26,-4.57zm-23.97 32.98c-1.1,1.47 -2.2,2.94 -3.3,4.41 1.1,-1.47 2.2,-2.94 3.3,-4.41zm-24.75 32.38c-1.1,1.41 -2.21,2.82 -3.32,4.23 1.11,-1.41 2.22,-2.82 3.32,-4.23zm-25.5 31.78c-1.11,1.34 -2.22,2.68 -3.33,4.03 1.11,-1.35 2.22,-2.69 3.33,-4.03zm-26.26 31.15c-1.1,1.27 -2.2,2.54 -3.31,3.81 1.11,-1.27 2.21,-2.54 3.31,-3.81zm-26.99 30.51c-1.09,1.2 -2.18,2.39 -3.27,3.59 1.09,-1.2 2.18,-2.39 3.27,-3.59zm-27.71 29.85c-1.07,1.12 -2.14,2.25 -3.22,3.37 1.08,-1.12 2.15,-2.25 3.22,-3.37zm-28.42 29.18c-1.05,1.05 -2.1,2.1 -3.15,3.15 0.53,-0.52 1.06,-1.04 1.58,-1.56 0.53,-0.53 1.04,-1.06 1.57,-1.59zm-29.03 28.42c-1.07,1.03 -2.15,2.06 -3.23,3.08 1.08,-1.02 2.16,-2.05 3.23,-3.08zm-29.68 27.71c-1.12,1.01 -2.23,2.03 -3.35,3.04 1.12,-1.01 2.23,-2.03 3.35,-3.04zm-30.34 26.99c-1.16,1 -2.31,2 -3.47,3 1.16,-1 2.31,-2 3.47,-3zm-30.98 26.27c-1.2,0.99 -2.4,1.98 -3.6,2.96 1.2,-0.98 2.4,-1.97 3.6,-2.96zm-31.61 25.52c-1.24,0.98 -2.48,1.96 -3.73,2.94 1.25,-0.98 2.49,-1.96 3.73,-2.94zm-32.22 24.78c-1.29,0.97 -2.58,1.93 -3.87,2.9 1.29,-0.97 2.58,-1.93 3.87,-2.9zm-32.83 24.02c-1.34,0.95 -2.67,1.9 -4.01,2.85 1.34,-0.95 2.67,-1.9 4.01,-2.85zm-33.42 23.24c-1.38,0.93 -2.77,1.87 -4.15,2.8 1.38,-0.93 2.77,-1.87 4.15,-2.8zm-34.01 22.45c-1.42,0.92 -2.85,1.83 -4.27,2.74 1.42,-0.91 2.85,-1.82 4.27,-2.74zm-34.58 21.66c-1.46,0.89 -2.92,1.78 -4.38,2.66 1.46,-0.88 2.92,-1.77 4.38,-2.66zm-35.13 20.84c-1.49,0.86 -2.99,1.72 -4.49,2.58 1.5,-0.86 3,-1.72 4.49,-2.58zm-35.68 20.02c-1.52,0.83 -3.05,1.66 -4.57,2.48 1.52,-0.82 3.05,-1.65 4.57,-2.48zm-36.22 19.18c-1.54,0.79 -3.09,1.59 -4.63,2.37 1.54,-0.78 3.09,-1.58 4.63,-2.37zm-36.74 18.33c-1.56,0.75 -3.11,1.5 -4.67,2.25 1.56,-0.75 3.11,-1.5 4.67,-2.25zm-37.25 17.46c-1.56,0.71 -3.13,1.42 -4.69,2.12 1.56,-0.7 3.13,-1.41 4.69,-2.12zm-37.74 16.58c-1.57,0.67 -3.13,1.33 -4.7,1.99 1.57,-0.66 3.13,-1.32 4.7,-1.99zm-38.23 15.69c-1.56,0.62 -3.11,1.23 -4.67,1.84 1.56,-0.61 3.11,-1.22 4.67,-1.84zm-38.7 14.78c-1.54,0.57 -3.08,1.13 -4.62,1.69 1.54,-0.56 3.08,-1.12 4.62,-1.69zm-39.16 13.85c-1.51,0.52 -3.03,1.03 -4.55,1.55 1.52,-0.52 3.04,-1.03 4.55,-1.55zm-39.59 12.92c-1.49,0.47 -2.98,0.93 -4.47,1.39 1.49,-0.46 2.98,-0.92 4.47,-1.39zm-40.03 11.97c-1.45,0.42 -2.91,0.83 -4.36,1.24 1.45,-0.41 2.91,-0.82 4.36,-1.24zm-40.44 11c-1.41,0.37 -2.83,0.73 -4.24,1.1 1.41,-0.37 2.83,-0.73 4.24,-1.1zm-40.83 10.02c-1.38,0.32 -2.75,0.64 -4.12,0.95 1.37,-0.31 2.74,-0.63 4.12,-0.95zm-41.22 9.03c-1.33,0.28 -2.65,0.55 -3.98,0.82 1.33,-0.27 2.65,-0.54 3.98,-0.82zm-41.59 8.02c-1.28,0.23 -2.56,0.46 -3.84,0.69 1.28,-0.23 2.56,-0.46 3.84,-0.69zm-41.94 7c-1.23,0.19 -2.46,0.38 -3.7,0.57 1.24,-0.19 2.47,-0.38 3.7,-0.57zm-42.28 5.97c-1.18,0.15 -2.37,0.3 -3.56,0.45 1.19,-0.15 2.38,-0.3 3.56,-0.45zm-42.6 4.91c-1.14,0.12 -2.28,0.23 -3.43,0.35 1.15,-0.12 2.29,-0.23 3.43,-0.35zm-42.9 3.85c-1.11,0.09 -2.21,0.17 -3.32,0.26 1.11,-0.09 2.21,-0.17 3.32,-0.26zm-43.19 2.78c-1.08,0.06 -2.16,0.11 -3.24,0.17 1.08,-0.06 2.16,-0.11 3.24,-0.17zm-43.46 1.7c-1.06,0.02 -2.12,0.05 -3.18,0.08 1.06,-0.03 2.12,-0.06 3.18,-0.08zm-43.72 0.59c-0.53,0 -1.05,0.02 -1.58,0.02 -0.53,0 -1.05,-0.02 -1.58,-0.02 0.53,0 1.05,0.01 1.58,0.01 0.53,0 1.05,-0.01 1.58,-0.01zm-43.7 -0.51c-1.06,-0.03 -2.12,-0.06 -3.18,-0.08 1.06,0.02 2.12,0.05 3.18,0.08zm-43.41 -1.61c-1.07,-0.06 -2.15,-0.11 -3.22,-0.17 1.07,0.06 2.15,0.11 3.22,0.17zm-43.11 -2.69c-1.1,-0.09 -2.2,-0.17 -3.3,-0.25 1.1,0.08 2.2,0.16 3.3,0.25zm-42.8 -3.76c-1.13,-0.12 -2.26,-0.23 -3.39,-0.35 1.13,0.12 2.26,0.23 3.39,0.35zm-42.48 -4.82c-1.17,-0.14 -2.33,-0.29 -3.5,-0.44 1.17,0.15 2.33,0.3 3.5,0.44zm-42.15 -5.85c-1.21,-0.18 -2.41,-0.37 -3.62,-0.55 1.21,0.18 2.41,0.37 3.62,0.55zm-41.81 -6.88c-1.24,-0.22 -2.49,-0.44 -3.74,-0.67 1.25,0.23 2.5,0.45 3.74,0.67zm-41.45 -7.89c-1.29,-0.27 -2.58,-0.53 -3.87,-0.8 1.29,0.27 2.58,0.53 3.87,0.8zm-41.09 -8.9c-1.33,-0.3 -2.66,-0.61 -3.99,-0.92 1.33,0.31 2.66,0.62 3.99,0.92zm-40.71 -9.88c-1.37,-0.35 -2.74,-0.7 -4.11,-1.06 1.37,0.36 2.74,0.71 4.11,1.06zm-40.32 -10.86c-1.41,-0.4 -2.82,-0.8 -4.23,-1.2 1.41,0.4 2.82,0.8 4.23,1.2zm-39.92 -11.82c-1.44,-0.44 -2.89,-0.89 -4.33,-1.34 1.44,0.45 2.89,0.9 4.33,1.34zm-39.51 -12.76c-1.47,-0.5 -2.95,-1 -4.42,-1.5 1.47,0.5 2.95,1 4.42,1.5zm-39.08 -13.71c-1.5,-0.55 -3,-1.1 -4.5,-1.65 1.5,0.55 3,1.1 4.5,1.65zm-38.65 -14.63c-1.52,-0.6 -3.04,-1.2 -4.56,-1.8 1.52,0.6 3.04,1.2 4.56,1.8zm-38.19 -15.54c-1.54,-0.65 -3.07,-1.3 -4.61,-1.95 1.54,0.65 3.07,1.3 4.61,1.95zm-37.74 -16.44c-1.54,-0.7 -3.08,-1.39 -4.62,-2.09 1.54,0.7 3.08,1.39 4.62,2.09zm-37.25 -17.33c-1.55,-0.74 -3.09,-1.48 -4.63,-2.23 1.54,0.75 3.08,1.49 4.63,2.23zm-36.77 -18.2c-1.54,-0.79 -3.08,-1.57 -4.62,-2.36 1.54,0.79 3.08,1.57 4.62,2.36zm-36.27 -19.07c-1.53,-0.82 -3.05,-1.65 -4.58,-2.48 1.53,0.83 3.05,1.66 4.58,2.48zm-35.75 -19.91c-1.51,-0.86 -3.02,-1.73 -4.53,-2.6 1.51,0.87 3.02,1.74 4.53,2.6zm-35.22 -20.75c-1.48,-0.9 -2.97,-1.8 -4.46,-2.71 1.49,0.91 2.98,1.81 4.46,2.71zm-34.67 -21.57c-1.46,-0.93 -2.92,-1.87 -4.38,-2.8 1.46,0.93 2.92,1.87 4.38,2.8zm-34.12 -22.38c-1.43,-0.96 -2.85,-1.92 -4.28,-2.89 1.43,0.96 2.85,1.93 4.28,2.89zm-33.54 -23.18c-1.39,-0.98 -2.78,-1.97 -4.17,-2.97 1.39,1 2.78,1.99 4.17,2.97zm-32.95 -23.96c-1.36,-1.01 -2.71,-2.02 -4.07,-3.03 1.36,1.01 2.71,2.02 4.07,3.03zm-32.36 -24.73c-1.31,-1.03 -2.63,-2.06 -3.94,-3.09 1.31,1.03 2.63,2.06 3.94,3.09zm-31.73 -25.48c-1.28,-1.05 -2.55,-2.1 -3.82,-3.15 1.27,1.05 2.54,2.1 3.82,3.15zm-31.11 -26.22c-1.23,-1.07 -2.46,-2.13 -3.69,-3.2 1.23,1.07 2.46,2.13 3.69,3.2zm-30.46 -26.95c-1.19,-1.08 -2.38,-2.16 -3.57,-3.25 1.19,1.09 2.38,2.17 3.57,3.25zm-29.8 -27.66c-1.15,-1.1 -2.3,-2.2 -3.45,-3.3 1.15,1.1 2.3,2.2 3.45,3.3zm-29.12 -28.36c-1.12,-1.11 -2.24,-2.23 -3.36,-3.36 0.57,0.57 1.12,1.14 1.68,1.7 0.56,0.56 1.12,1.11 1.68,1.66zm-28.36 -28.96c-1.13,-1.19 -2.27,-2.38 -3.4,-3.57 1.13,1.19 2.27,2.38 3.4,3.57zm-27.66 -29.64c-1.15,-1.26 -2.3,-2.52 -3.44,-3.78 1.14,1.26 2.29,2.52 3.44,3.78zm-26.97 -30.29c-1.15,-1.33 -2.3,-2.66 -3.46,-3.99 1.16,1.33 2.31,2.66 3.46,3.99zm-26.24 -30.94c-1.16,-1.4 -2.31,-2.8 -3.46,-4.2 1.15,1.4 2.3,2.8 3.46,4.2zm-25.52 -31.58c-1.15,-1.46 -2.3,-2.92 -3.44,-4.38 1.14,1.46 2.29,2.92 3.44,4.38zm-24.78 -32.21c-1.13,-1.52 -2.27,-3.03 -3.4,-4.55 1.13,1.52 2.27,3.03 3.4,4.55zm-24.02 -32.82c-1.12,-1.57 -2.23,-3.14 -3.35,-4.71 1.12,1.57 2.23,3.14 3.35,4.71zm-23.25 -33.42c-1.09,-1.61 -2.18,-3.23 -3.27,-4.84 1.09,1.61 2.18,3.23 3.27,4.84zm-22.47 -34.01c-1.06,-1.65 -2.12,-3.31 -3.18,-4.96 1.06,1.65 2.12,3.31 3.18,4.96zm-21.68 -34.59c-1.02,-1.68 -2.04,-3.36 -3.06,-5.05 1.02,1.69 2.04,3.37 3.06,5.05zm-20.86 -35.15c-0.98,-1.7 -1.96,-3.41 -2.94,-5.11 0.98,1.7 1.96,3.41 2.94,5.11zm-20.04 -35.71c-0.94,-1.71 -1.87,-3.43 -2.8,-5.15 0.93,1.72 1.86,3.44 2.8,5.15zm-19.2 -36.24c-0.89,-1.72 -1.77,-3.44 -2.65,-5.16 0.88,1.72 1.76,3.44 2.65,5.16zm-18.35 -36.76c-0.83,-1.72 -1.66,-3.44 -2.49,-5.16 0.83,1.72 1.66,3.44 2.49,5.16zm-17.48 -37.28c-0.78,-1.7 -1.55,-3.41 -2.32,-5.12 0.77,1.71 1.54,3.42 2.32,5.12zm-16.6 -37.77c-0.72,-1.69 -1.43,-3.38 -2.15,-5.07 0.72,1.69 1.43,3.38 2.15,5.07zm-15.7 -38.25c-0.66,-1.67 -1.32,-3.33 -1.97,-5 0.65,1.67 1.31,3.33 1.97,5zm-14.8 -38.73c-0.6,-1.63 -1.2,-3.26 -1.79,-4.89 0.59,1.63 1.19,3.26 1.79,4.89zm-13.87 -39.18c-0.54,-1.59 -1.08,-3.18 -1.61,-4.77 0.53,1.59 1.07,3.18 1.61,4.77zm-12.93 -39.62c-0.48,-1.55 -0.96,-3.09 -1.44,-4.64 0.48,1.55 0.96,3.09 1.44,4.64zm-11.97 -40.05c-0.43,-1.49 -0.86,-2.99 -1.28,-4.49 0.42,1.5 0.85,3 1.28,4.49zm-11.01 -40.45c-0.37,-1.45 -0.75,-2.9 -1.12,-4.34 0.37,1.44 0.75,2.89 1.12,4.34zm-10.03 -40.85c-0.32,-1.4 -0.64,-2.79 -0.96,-4.19 0.32,1.4 0.64,2.79 0.96,4.19zm-9.03 -41.24c-0.27,-1.34 -0.55,-2.67 -0.82,-4.01 0.27,1.34 0.55,2.67 0.82,4.01zm-8.02 -41.6c-0.23,-1.28 -0.46,-2.56 -0.69,-3.85 0.23,1.29 0.46,2.57 0.69,3.85zm-7 -41.94c-0.19,-1.23 -0.38,-2.47 -0.57,-3.7 0.19,1.23 0.38,2.47 0.57,3.7zm-5.97 -42.28c-0.15,-1.19 -0.3,-2.37 -0.45,-3.56 0.15,1.19 0.3,2.37 0.45,3.56zm-4.91 -42.6c-0.12,-1.14 -0.23,-2.29 -0.35,-3.43 0.12,1.14 0.23,2.29 0.35,3.43zm-3.85 -42.9c-0.09,-1.11 -0.17,-2.22 -0.26,-3.32 0.09,1.1 0.17,2.21 0.26,3.32zm-2.78 -43.19c-0.06,-1.08 -0.11,-2.16 -0.17,-3.23 0.06,1.07 0.11,2.15 0.17,3.23zm-1.7 -43.46c-0.02,-1.06 -0.05,-2.12 -0.08,-3.18 0.03,1.06 0.06,2.12 0.08,3.18zm-0.59 -43.72c0,-0.53 -0.02,-1.05 -0.02,-1.58 0,-0.53 0.02,-1.05 0.02,-1.58 0,0.53 -0.01,1.05 -0.01,1.58 0,0.53 0.01,1.05 0.01,1.58zm0.51 -43.7c0.03,-1.06 0.06,-2.12 0.08,-3.18 -0.02,1.06 -0.05,2.12 -0.08,3.18zm1.61 -43.41c0.06,-1.07 0.11,-2.15 0.17,-3.23 -0.06,1.08 -0.11,2.16 -0.17,3.23zm2.69 -43.1c0.09,-1.1 0.17,-2.21 0.26,-3.32 -0.09,1.11 -0.17,2.22 -0.26,3.32zm3.76 -42.79c0.12,-1.14 0.23,-2.29 0.35,-3.43 -0.12,1.14 -0.23,2.29 -0.35,3.43zm4.81 -42.47c0.15,-1.19 0.3,-2.37 0.45,-3.56 -0.15,1.19 -0.3,2.37 -0.45,3.56zm5.85 -42.14c0.19,-1.23 0.38,-2.47 0.57,-3.7 -0.19,1.23 -0.38,2.47 -0.57,3.7zm6.88 -41.79c0.23,-1.29 0.46,-2.57 0.69,-3.85 -0.23,1.28 -0.46,2.56 -0.69,3.85zm7.89 -41.44c0.27,-1.34 0.55,-2.67 0.82,-4.01 -0.27,1.34 -0.55,2.67 -0.82,4.01zm8.89 -41.06c0.32,-1.4 0.64,-2.79 0.96,-4.19 -0.32,1.4 -0.64,2.79 -0.96,4.19zm9.87 -40.7c0.37,-1.44 0.75,-2.89 1.12,-4.34 -0.37,1.45 -0.75,2.9 -1.12,4.34zm10.85 -40.3c0.42,-1.5 0.85,-3 1.28,-4.49 -0.43,1.49 -0.86,2.99 -1.28,4.49zm11.81 -39.9c0.48,-1.55 0.96,-3.09 1.44,-4.64 -0.48,1.55 -0.96,3.09 -1.44,4.64zm12.76 -39.49c0.53,-1.59 1.07,-3.18 1.61,-4.77 -0.54,1.59 -1.08,3.18 -1.61,4.77zm13.69 -39.06c0.59,-1.63 1.19,-3.26 1.79,-4.89 -0.6,1.63 -1.2,3.26 -1.79,4.89zm14.62 -38.62c0.65,-1.67 1.31,-3.33 1.97,-5 -0.66,1.67 -1.32,3.33 -1.97,5zm15.52 -38.18c0.72,-1.69 1.43,-3.38 2.15,-5.07 -0.72,1.69 -1.43,3.38 -2.15,5.07zm16.43 -37.72c0.77,-1.71 1.54,-3.42 2.32,-5.12 -0.78,1.7 -1.55,3.41 -2.32,5.12zm17.31 -37.24c0.83,-1.72 1.66,-3.44 2.49,-5.16 -0.83,1.72 -1.66,3.44 -2.49,5.16zm18.19 -36.76c0.88,-1.72 1.76,-3.44 2.65,-5.16 -0.89,1.72 -1.77,3.44 -2.65,5.16zm19.05 -36.25c0.93,-1.72 1.86,-3.44 2.8,-5.15 -0.94,1.71 -1.87,3.43 -2.8,5.15zm19.9 -35.75c0.98,-1.7 1.96,-3.41 2.94,-5.11 -0.98,1.7 -1.96,3.41 -2.94,5.11zm20.74 -35.21c1.02,-1.69 2.04,-3.37 3.06,-5.05 -1.02,1.68 -2.04,3.36 -3.06,5.05zm21.56 -34.68c1.06,-1.65 2.12,-3.31 3.18,-4.96 -1.06,1.65 -2.12,3.31 -3.18,4.96zm22.38 -34.13c1.09,-1.61 2.18,-3.23 3.27,-4.84 -1.09,1.61 -2.18,3.23 -3.27,4.84zm23.17 -33.55c1.12,-1.57 2.23,-3.14 3.35,-4.71 -1.12,1.57 -2.23,3.14 -3.35,4.71zm23.97 -32.98c1.13,-1.52 2.27,-3.03 3.4,-4.55 -1.13,1.52 -2.27,3.03 -3.4,4.55zm24.74 -32.38c1.14,-1.46 2.29,-2.92 3.44,-4.38 -1.15,1.46 -2.3,2.92 -3.44,4.38zm25.5 -31.76c1.15,-1.4 2.3,-2.8 3.46,-4.2 -1.16,1.4 -2.31,2.8 -3.46,4.2zm26.24 -31.15c1.16,-1.33 2.31,-2.66 3.46,-3.99 -1.15,1.33 -2.3,2.66 -3.46,3.99zm26.99 -30.5c1.14,-1.26 2.29,-2.52 3.44,-3.78 -1.15,1.26 -2.3,2.52 -3.44,3.78zm27.7 -29.85c1.13,-1.19 2.27,-2.38 3.4,-3.57 -1.13,1.19 -2.27,2.38 -3.4,3.57zm28.4 -29.17c1.12,-1.13 2.24,-2.25 3.36,-3.36 -0.56,0.55 -1.12,1.1 -1.68,1.66 -0.56,0.56 -1.11,1.13 -1.68,1.7zm29.03 -28.42c1.15,-1.1 2.3,-2.2 3.45,-3.3 -1.15,1.1 -2.3,2.2 -3.45,3.3zm29.68 -27.71c1.19,-1.09 2.38,-2.17 3.57,-3.25 -1.19,1.08 -2.38,2.16 -3.57,3.25zm30.34 -27c1.23,-1.07 2.46,-2.13 3.69,-3.2 -1.23,1.07 -2.46,2.13 -3.69,3.2zm30.98 -26.27c1.27,-1.05 2.54,-2.1 3.82,-3.15 -1.28,1.05 -2.55,2.1 -3.82,3.15zm31.61 -25.54c1.31,-1.03 2.63,-2.06 3.94,-3.09 -1.31,1.03 -2.63,2.06 -3.94,3.09zm32.23 -24.79c1.36,-1.01 2.71,-2.02 4.07,-3.03 -1.36,1.01 -2.71,2.02 -4.07,3.03zm32.85 -24.02c1.39,-1 2.78,-1.99 4.17,-2.97 -1.39,0.98 -2.78,1.97 -4.17,2.97zm33.43 -23.26c1.43,-0.97 2.85,-1.93 4.28,-2.89 -1.43,0.96 -2.85,1.92 -4.28,2.89zm34.02 -22.47c1.46,-0.93 2.92,-1.87 4.38,-2.8 -1.46,0.93 -2.92,1.87 -4.38,2.8zm34.59 -21.66c1.49,-0.91 2.98,-1.81 4.46,-2.71 -1.48,0.9 -2.97,1.8 -4.46,2.71zm35.15 -20.86c1.51,-0.87 3.02,-1.74 4.53,-2.6 -1.51,0.86 -3.02,1.73 -4.53,2.6zm35.7 -20.03c1.53,-0.83 3.05,-1.66 4.58,-2.48 -1.53,0.82 -3.05,1.65 -4.58,2.48zm36.23 -19.19c1.54,-0.79 3.08,-1.57 4.62,-2.36 -1.54,0.79 -3.08,1.57 -4.62,2.36zm36.76 -18.33c1.54,-0.75 3.08,-1.49 4.63,-2.23 -1.55,0.74 -3.09,1.48 -4.63,2.23zm37.26 -17.47c1.54,-0.7 3.08,-1.39 4.62,-2.09 -1.54,0.7 -3.08,1.39 -4.62,2.09zm37.75 -16.58c1.54,-0.65 3.07,-1.3 4.61,-1.95 -1.54,0.65 -3.07,1.3 -4.61,1.95zm38.24 -15.69c1.52,-0.6 3.04,-1.2 4.56,-1.8 -1.52,0.6 -3.04,1.2 -4.56,1.8zm38.71 -14.78c1.5,-0.55 3,-1.1 4.5,-1.65 -1.5,0.55 -3,1.1 -4.5,1.65zm39.16 -13.86c1.47,-0.5 2.95,-1 4.42,-1.5 -1.47,0.5 -2.95,1 -4.42,1.5zm39.6 -12.92c1.44,-0.45 2.89,-0.9 4.33,-1.34 -1.44,0.44 -2.89,0.89 -4.33,1.34zm40.02 -11.96c1.41,-0.4 2.82,-0.8 4.23,-1.2 -1.41,0.4 -2.82,0.8 -4.23,1.2zm40.44 -11c1.37,-0.36 2.74,-0.71 4.11,-1.06 -1.37,0.35 -2.74,0.7 -4.11,1.06zm40.83 -10.02c1.33,-0.31 2.66,-0.62 3.99,-0.92 -1.33,0.3 -2.66,0.61 -3.99,0.92zm41.21 -9.02c1.29,-0.27 2.58,-0.53 3.87,-0.8 -1.29,0.27 -2.58,0.53 -3.87,0.8zm41.58 -8.02c1.25,-0.23 2.5,-0.45 3.74,-0.67 -1.24,0.22 -2.49,0.44 -3.74,0.67zm41.93 -7c1.21,-0.18 2.41,-0.37 3.62,-0.55 -1.21,0.18 -2.41,0.37 -3.62,0.55zm42.27 -5.96c1.17,-0.15 2.33,-0.3 3.5,-0.44 -1.17,0.14 -2.33,0.29 -3.5,0.44zm42.59 -4.91c1.13,-0.12 2.26,-0.23 3.39,-0.35 -1.13,0.12 -2.26,0.23 -3.39,0.35zm42.89 -3.86c1.1,-0.08 2.2,-0.16 3.3,-0.25 -1.1,0.09 -2.2,0.17 -3.3,0.25zm43.19 -2.77c1.07,-0.06 2.15,-0.11 3.22,-0.17 -1.07,0.06 -2.15,0.11 -3.22,0.17zm43.45 -1.7c1.06,-0.02 2.12,-0.05 3.18,-0.08 -1.06,0.03 -2.12,0.06 -3.18,0.08z"/>
   </g>
   <g>
    <path class="fil3" d="M1911.08 2296.24c-16.94,75.91 -111.99,56.37 -192.14,56.37 -41.04,0 -82.08,-0.07 -123.13,0 -135.7,0.24 -106.19,-64.25 -106.19,-265.31 0,-51.82 -6.68,-205.23 2.16,-245.61 15.72,-71.74 121.5,-53.36 193.58,-53.36 41.04,0 82.09,0.08 123.13,-0.01 131.69,-0.3 103.92,58.42 103.92,265.4 0,47.53 6.3,208.32 -1.33,242.52zm-806.65 193.01l18.6 2.14 0.03 6.24 1154.92 0.14 0 -6.39 19.11 -1.67c69,-2.39 135.42,-61.92 163.53,-127.17 26.41,-61.3 16.11,-321.11 16.23,-420.75 0.04,-34.32 6.22,-43.84 -12.93,-62.22 -149.79,-143.81 -321.91,-321.51 -470.25,-469.95 -49.4,-49.43 -96.1,-96.09 -145.51,-145.51 -46.3,-46.31 -100.66,-95.68 -142.71,-143.15 -17.43,4.9 -60.79,54.71 -76.5,70.45 -25.14,25.17 -47.64,47.55 -72.76,72.75l-436.52 436.54c-49.46,49.33 -96.07,96.13 -145.52,145.5 -57.81,57.72 -48.69,38.52 -48.62,95.59 0.11,98.69 -9.73,358.94 15.41,419.83 22.11,53.54 88.65,127.4 163.49,127.63z"/>
    <path id="1" class="fil2" d="M1911.09 2296.24c-0.52,2.34 -1.13,4.59 -1.8,6.75 0.08,-0.25 0.15,-0.52 0.22,-0.77 0.09,-0.29 0.17,-0.59 0.26,-0.88 0.2,-0.72 0.41,-1.44 0.6,-2.18 0.01,-0.05 0.02,-0.1 0.03,-0.14 0.24,-0.92 0.47,-1.84 0.68,-2.78 1.91,-8.55 2.94,-25.01 3.43,-45.64 -0.48,20.63 -1.52,37.09 -3.42,45.64zm-1.86 6.95c-0.32,1.02 -0.65,2.02 -1,3 0.12,-0.34 0.23,-0.7 0.35,-1.05 0.1,-0.31 0.21,-0.62 0.31,-0.93 0.11,-0.34 0.23,-0.67 0.34,-1.02zm-1.06 3.18c-1.49,4.13 -3.25,7.92 -5.27,11.39 0.12,-0.2 0.23,-0.42 0.35,-0.63 0.13,-0.23 0.26,-0.47 0.39,-0.71 0.32,-0.57 0.63,-1.15 0.94,-1.75 0.05,-0.11 0.11,-0.23 0.17,-0.35 1.03,-2.05 1.98,-4.2 2.84,-6.45 0.1,-0.27 0.21,-0.54 0.31,-0.81 0.09,-0.23 0.18,-0.46 0.27,-0.69zm-5.41 11.64c-0.47,0.79 -0.94,1.56 -1.43,2.32 0.18,-0.28 0.35,-0.58 0.53,-0.87 0.15,-0.23 0.29,-0.46 0.43,-0.7 0.16,-0.25 0.32,-0.5 0.47,-0.75zm-1.56 2.52c-1.62,2.48 -3.38,4.79 -5.27,6.94 0.12,-0.14 0.23,-0.28 0.35,-0.42 0.04,-0.04 0.07,-0.09 0.11,-0.13 1.44,-1.68 2.8,-3.46 4.08,-5.34 0.13,-0.17 0.25,-0.35 0.37,-0.52 0.12,-0.18 0.24,-0.35 0.36,-0.53zm-5.39 7.06c-0.57,0.65 -1.16,1.29 -1.76,1.91 0.17,-0.18 0.33,-0.36 0.49,-0.54 0.13,-0.13 0.26,-0.27 0.39,-0.41 0.3,-0.32 0.6,-0.63 0.88,-0.96zm-2.03 2.18c-0.58,0.59 -1.17,1.17 -1.77,1.73 0.27,-0.24 0.52,-0.5 0.78,-0.75 0.13,-0.13 0.26,-0.26 0.39,-0.39 0.2,-0.19 0.4,-0.38 0.6,-0.59zm-2 1.95c-2.05,1.91 -4.23,3.67 -6.52,5.29 2.06,-1.45 4.02,-3.03 5.89,-4.73 0.06,-0.04 0.11,-0.09 0.16,-0.14 0.16,-0.14 0.32,-0.27 0.47,-0.42zm-6.77 5.47c-0.67,0.47 -1.35,0.92 -2.03,1.37 0.24,-0.16 0.47,-0.33 0.71,-0.48 0.06,-0.04 0.12,-0.08 0.18,-0.12 0.38,-0.26 0.76,-0.51 1.14,-0.77zm-2.42 1.62c-0.68,0.43 -1.37,0.85 -2.07,1.26 0.39,-0.22 0.76,-0.46 1.14,-0.7 0.05,-0.02 0.09,-0.05 0.14,-0.08 0.26,-0.16 0.53,-0.32 0.79,-0.48zm-2.38 1.45c-2.44,1.42 -4.99,2.71 -7.64,3.89 2.65,-1.18 5.2,-2.47 7.64,-3.89zm-7.97 4.03c-0.77,0.33 -1.54,0.66 -2.33,0.98 0.79,-0.32 1.56,-0.65 2.33,-0.98zm-2.75 1.15c-0.81,0.32 -1.63,0.63 -2.45,0.93 0.82,-0.3 1.64,-0.61 2.45,-0.93zm-2.7 1.02c-2.81,1.02 -5.72,1.92 -8.72,2.72 3,-0.8 5.9,-1.7 8.72,-2.72zm-8.93 2.78c-0.93,0.25 -1.86,0.48 -2.81,0.71 0.95,-0.23 1.88,-0.46 2.81,-0.71zm-3.06 0.77c-27.02,6.43 -60.48,5.09 -94.09,3.74 -14.04,-0.55 -28.12,-1.13 -41.77,-1.13l-41.04 -0.02c-27.35,0 -54.73,-0.02 -82.09,0.02 -16.89,0.03 -31.2,-0.95 -43.35,-3.07 0.45,0.08 0.92,0.15 1.38,0.22 0.19,0.04 0.39,0.07 0.59,0.1 3,0.48 6.13,0.9 9.4,1.25 0.24,0.03 0.48,0.05 0.72,0.08 3.28,0.34 6.69,0.62 10.25,0.83 0.24,0.02 0.48,0.03 0.73,0.04 3.63,0.21 7.4,0.36 11.32,0.44 0.19,0.01 0.38,0.01 0.57,0.02 1.33,0.02 2.67,0.04 4.04,0.05 0,0 0.01,0 0.01,0 1.44,0.02 2.87,0.03 4.34,0.03 41.05,-0.07 82.09,0 123.13,0 46.29,0 97.55,6.52 135.86,-2.6zm-302.67 -0.51c-2.91,-0.52 -5.7,-1.1 -8.36,-1.75 0.32,0.08 0.65,0.15 0.97,0.23 0.1,0.02 0.21,0.04 0.31,0.06 1.78,0.41 3.6,0.8 5.47,1.15 0.15,0.03 0.29,0.05 0.44,0.08 0.39,0.08 0.77,0.16 1.17,0.23zm-8.82 -1.86c-2.62,-0.65 -5.13,-1.36 -7.52,-2.14 1.83,0.6 3.75,1.14 5.72,1.66 0.21,0.06 0.43,0.12 0.65,0.18 0.38,0.1 0.76,0.21 1.15,0.3zm-7.97 -2.29c-1.07,-0.36 -2.12,-0.73 -3.14,-1.12 0.41,0.16 0.85,0.3 1.28,0.46 0.23,0.08 0.46,0.16 0.7,0.25 0.39,0.13 0.77,0.28 1.16,0.41zm-3.52 -1.26c-1.13,-0.42 -2.22,-0.87 -3.29,-1.33 1.07,0.46 2.16,0.91 3.29,1.33zm-3.6 -1.47c-0.95,-0.41 -1.88,-0.85 -2.8,-1.29 0.29,0.14 0.59,0.27 0.87,0.4 0.23,0.11 0.46,0.21 0.68,0.32 0.41,0.19 0.82,0.39 1.25,0.57zm-3.31 -1.54c-1,-0.5 -1.98,-1.01 -2.94,-1.55 0.69,0.39 1.42,0.76 2.13,1.12 0.09,0.05 0.17,0.09 0.25,0.14 0.19,0.1 0.37,0.2 0.56,0.29zm-2.96 -1.56c-0.92,-0.52 -1.81,-1.06 -2.69,-1.61 0.2,0.13 0.42,0.25 0.62,0.37 0.2,0.13 0.41,0.25 0.61,0.37 0.48,0.29 0.96,0.59 1.46,0.87zm-3.19 -1.93c-1.77,-1.13 -3.45,-2.34 -5.03,-3.62 0.15,0.13 0.31,0.24 0.46,0.36 0.16,0.12 0.33,0.25 0.49,0.37 0.96,0.74 1.94,1.45 2.96,2.14 0.19,0.12 0.37,0.25 0.57,0.38 0.18,0.13 0.36,0.25 0.55,0.37zm-5.45 -3.96c-0.74,-0.6 -1.45,-1.22 -2.15,-1.85 0.31,0.28 0.64,0.55 0.96,0.82 0.21,0.18 0.41,0.36 0.63,0.54 0.18,0.17 0.37,0.33 0.56,0.49zm-2.3 -1.99c-0.75,-0.69 -1.48,-1.41 -2.19,-2.14 0.11,0.12 0.24,0.23 0.35,0.35 0.05,0.05 0.1,0.09 0.15,0.14 0.55,0.56 1.11,1.12 1.69,1.65zm-2.47 -2.43c-0.64,-0.67 -1.26,-1.35 -1.87,-2.05 0.21,0.24 0.44,0.47 0.65,0.71 0.2,0.23 0.41,0.45 0.61,0.67 0.21,0.23 0.4,0.45 0.61,0.67zm-2.08 -2.3c-0.68,-0.79 -1.33,-1.6 -1.96,-2.43 0.63,0.83 1.28,1.64 1.96,2.43zm-2.03 -2.53c-0.6,-0.79 -1.18,-1.6 -1.74,-2.44 0.15,0.23 0.32,0.44 0.47,0.67 0.19,0.27 0.38,0.53 0.58,0.8 0.23,0.33 0.45,0.66 0.69,0.97zm-1.93 -2.72c-1.17,-1.75 -2.26,-3.59 -3.27,-5.51 0.12,0.22 0.24,0.43 0.36,0.64 0.17,0.32 0.35,0.63 0.52,0.95 0.51,0.89 1.03,1.77 1.57,2.63 0.17,0.26 0.34,0.53 0.51,0.8 0.1,0.16 0.2,0.33 0.31,0.49zm-3.39 -5.74c-1.02,-1.96 -1.97,-4.02 -2.84,-6.16 0.09,0.22 0.19,0.44 0.29,0.66 0.15,0.37 0.31,0.74 0.47,1.1 0.41,0.92 0.82,1.83 1.25,2.71 0.17,0.34 0.33,0.69 0.5,1.03 0.11,0.22 0.22,0.45 0.33,0.66zm-2.85 -6.2c-7.27,-17.94 -9.31,-42.15 -9.36,-73.86 -0.02,-17.01 0.52,-36.22 1.11,-57.73 0.74,-26.58 1.6,-56.75 1.6,-90.83 0,-13.19 -0.44,-32.98 -0.93,-55.79 -1.46,-66.81 -3.49,-159.73 3.09,-189.82 0.48,-2.2 1.06,-4.31 1.71,-6.34 -0.07,0.2 -0.12,0.42 -0.19,0.63 -0.09,0.31 -0.18,0.63 -0.27,0.94 -0.2,0.65 -0.38,1.3 -0.56,1.97 -0.03,0.12 -0.06,0.25 -0.09,0.37 -0.2,0.8 -0.41,1.6 -0.59,2.43 -8.84,40.38 -2.16,193.79 -2.16,245.61 0,76.69 -4.29,133.49 -2.07,174.42 0.02,0.28 0.03,0.56 0.05,0.83 0.17,3.05 0.38,6.02 0.63,8.9 0.04,0.42 0.08,0.85 0.12,1.28 0.08,0.84 0.16,1.68 0.24,2.51 0.05,0.41 0.09,0.82 0.14,1.23 0.15,1.39 0.31,2.77 0.49,4.12 0.06,0.49 0.12,0.97 0.19,1.45 0.1,0.73 0.2,1.46 0.31,2.18 0.08,0.49 0.16,0.99 0.23,1.48 0.19,1.16 0.38,2.3 0.59,3.43 0.09,0.51 0.18,1.01 0.28,1.51 0.13,0.66 0.26,1.31 0.39,1.96 0.1,0.48 0.21,0.96 0.31,1.44 0.22,0.98 0.45,1.94 0.68,2.89 0.14,0.56 0.27,1.11 0.42,1.66 0.15,0.61 0.32,1.2 0.49,1.79 0.12,0.45 0.25,0.89 0.38,1.33 0.18,0.59 0.35,1.18 0.53,1.76 0.16,0.48 0.32,0.94 0.47,1.41 0.31,0.92 0.63,1.82 0.96,2.71 0.15,0.4 0.3,0.79 0.45,1.19 0.12,0.31 0.23,0.63 0.36,0.94zm-2.69 -474.66c0.3,-0.92 0.61,-1.82 0.94,-2.7 -0.1,0.27 -0.19,0.56 -0.29,0.84 -0.12,0.32 -0.23,0.65 -0.34,0.97 -0.1,0.3 -0.21,0.59 -0.31,0.89zm1.05 -3c1.47,-3.87 3.25,-7.43 5.32,-10.7 -0.11,0.17 -0.21,0.35 -0.31,0.51 -0.13,0.22 -0.26,0.43 -0.39,0.65 -0.33,0.55 -0.66,1.11 -0.98,1.68 -0.01,0.03 -0.03,0.05 -0.04,0.08 -0.73,1.32 -1.42,2.69 -2.05,4.1 -0.07,0.15 -0.14,0.29 -0.21,0.44 -0.25,0.58 -0.5,1.17 -0.74,1.76 -0.12,0.29 -0.24,0.58 -0.35,0.88 -0.09,0.2 -0.17,0.4 -0.25,0.6zm5.51 -11c0.45,-0.7 0.92,-1.39 1.4,-2.07 -0.16,0.22 -0.31,0.45 -0.46,0.68 -0.15,0.21 -0.29,0.43 -0.44,0.65 -0.17,0.24 -0.34,0.49 -0.5,0.74zm1.63 -2.4c0.51,-0.71 1.04,-1.41 1.58,-2.09 -0.28,0.34 -0.54,0.71 -0.81,1.07 -0.13,0.16 -0.25,0.33 -0.38,0.5 -0.13,0.18 -0.26,0.34 -0.39,0.52zm1.68 -2.23c1.19,-1.5 2.46,-2.92 3.79,-4.28 -1.33,1.36 -2.6,2.78 -3.79,4.28zm3.84 -4.33c0.62,-0.63 1.25,-1.25 1.9,-1.85 -0.16,0.15 -0.31,0.31 -0.47,0.46 -0.05,0.04 -0.1,0.09 -0.15,0.14 -0.43,0.41 -0.86,0.82 -1.28,1.25zm2.24 -2.16c0.57,-0.52 1.15,-1.03 1.73,-1.53 -0.23,0.2 -0.46,0.41 -0.69,0.61 -0.08,0.07 -0.16,0.14 -0.24,0.21 -0.27,0.23 -0.54,0.47 -0.8,0.71zm2.14 -1.87c0.61,-0.51 1.24,-1.01 1.87,-1.5 -0.4,0.31 -0.79,0.63 -1.19,0.95 -0.02,0.02 -0.05,0.04 -0.08,0.06 -0.2,0.17 -0.4,0.32 -0.6,0.49zm2.15 -1.72c1.5,-1.14 3.06,-2.22 4.68,-3.24 -1.62,1.02 -3.18,2.1 -4.68,3.24zm4.85 -3.34c0.72,-0.46 1.46,-0.9 2.2,-1.33 -0.74,0.43 -1.48,0.87 -2.2,1.33zm2.72 -1.63c0.65,-0.37 1.31,-0.73 1.97,-1.08 -0.66,0.35 -1.32,0.71 -1.97,1.08zm2.56 -1.39c0.69,-0.35 1.38,-0.7 2.08,-1.04 -0.7,0.34 -1.39,0.69 -2.08,1.04zm2.56 -1.27c1.76,-0.84 3.57,-1.62 5.42,-2.35 -1.85,0.73 -3.66,1.51 -5.42,2.35zm5.7 -2.46c0.81,-0.32 1.63,-0.62 2.45,-0.92 -0.82,0.3 -1.64,0.6 -2.45,0.92zm3.12 -1.16c0.72,-0.25 1.44,-0.5 2.17,-0.74 -0.73,0.24 -1.45,0.49 -2.17,0.74zm2.92 -0.99c0.75,-0.24 1.5,-0.47 2.26,-0.7 -0.76,0.23 -1.51,0.46 -2.26,0.7zm2.89 -0.89c1.98,-0.58 4,-1.11 6.06,-1.61 -2.06,0.5 -4.08,1.03 -6.06,1.61zm6.31 -1.67c0.92,-0.22 1.85,-0.43 2.79,-0.63 -0.94,0.2 -1.87,0.41 -2.79,0.63zm3.49 -0.78c0.81,-0.17 1.62,-0.34 2.44,-0.5 -0.82,0.16 -1.63,0.33 -2.44,0.5zm3.22 -0.65c0.84,-0.16 1.69,-0.31 2.54,-0.46 -0.85,0.15 -1.7,0.3 -2.54,0.46zm3.16 -0.57c3.26,-0.55 6.58,-1.02 9.96,-1.42 -3.38,0.4 -6.7,0.87 -9.96,1.42zm10.46 -1.48c0.96,-0.11 1.94,-0.22 2.92,-0.32 -0.98,0.1 -1.96,0.21 -2.92,0.32zm3.47 -0.37c1.03,-0.11 2.06,-0.2 3.09,-0.29 -1.04,0.09 -2.06,0.18 -3.09,0.29zm3.39 -0.32c23.24,-2 48.71,-1.01 72.95,-0.07 13.13,0.5 25.91,1.01 37.78,1.01l39.4 0.02c27.9,0 55.83,0.02 83.73,-0.03 12.31,-0.03 23.21,0.47 32.88,1.54 -0.6,-0.06 -1.24,-0.12 -1.85,-0.18 -0.07,-0.01 -0.13,-0.01 -0.19,-0.02 -3.37,-0.34 -6.88,-0.61 -10.54,-0.82 -0.1,0 -0.19,-0.01 -0.29,-0.01 -3.69,-0.2 -7.53,-0.35 -11.53,-0.42 -0.05,0 -0.09,0 -0.14,0 -2.71,-0.05 -5.48,-0.09 -8.34,-0.08 -41.04,0.09 -82.09,0.01 -123.13,0.01 -33.76,0 -74.9,-4.03 -110.73,-0.95zm266.93 2.5c3.12,0.35 6.11,0.76 8.98,1.23 -2.87,-0.47 -5.86,-0.88 -8.98,-1.23zm9.45 1.31c2.8,0.48 5.48,1.01 8.05,1.61 -2.09,-0.49 -4.27,-0.92 -6.51,-1.33 -0.06,-0.01 -0.12,-0.02 -0.18,-0.03 -0.46,-0.08 -0.9,-0.17 -1.36,-0.25zm8.57 1.73c1.12,0.27 2.23,0.55 3.31,0.85 -0.51,-0.14 -1.04,-0.27 -1.56,-0.4 -0.11,-0.03 -0.23,-0.06 -0.35,-0.09 -0.47,-0.12 -0.93,-0.24 -1.4,-0.36zm3.78 0.97c1.19,0.33 2.36,0.68 3.51,1.04 -1.15,-0.36 -2.31,-0.71 -3.51,-1.04zm3.91 1.17c0.99,0.32 1.96,0.65 2.91,1 -0.33,-0.12 -0.67,-0.23 -1,-0.35 -0.12,-0.04 -0.24,-0.08 -0.36,-0.12 -0.51,-0.18 -1.02,-0.36 -1.55,-0.53zm3.57 1.24c1.07,0.39 2.11,0.8 3.13,1.23 -1.02,-0.43 -2.06,-0.84 -3.13,-1.23zm3.18 1.25c0.98,0.41 1.93,0.84 2.86,1.28 -0.22,-0.1 -0.46,-0.2 -0.69,-0.31 -0.07,-0.03 -0.14,-0.06 -0.2,-0.09 -0.65,-0.3 -1.3,-0.6 -1.97,-0.88zm3.54 1.61c0.86,0.42 1.71,0.85 2.53,1.3 -0.5,-0.27 -1.02,-0.53 -1.54,-0.79 -0.1,-0.06 -0.2,-0.11 -0.31,-0.16 -0.22,-0.12 -0.45,-0.24 -0.68,-0.35zm2.77 1.42c0.9,0.49 1.77,1.01 2.62,1.53 -0.85,-0.52 -1.72,-1.03 -2.62,-1.53zm3.2 1.89c0.71,0.45 1.4,0.91 2.07,1.37 -0.3,-0.2 -0.61,-0.4 -0.91,-0.6 -0.15,-0.1 -0.29,-0.19 -0.43,-0.29 -0.24,-0.16 -0.48,-0.32 -0.73,-0.48zm2.53 1.69c0.8,0.56 1.58,1.14 2.33,1.74 -0.75,-0.6 -1.53,-1.18 -2.33,-1.74zm2.73 2.07c0.64,0.51 1.26,1.04 1.86,1.58 -0.19,-0.18 -0.4,-0.35 -0.6,-0.52 -0.15,-0.12 -0.29,-0.24 -0.44,-0.36 -0.27,-0.24 -0.54,-0.48 -0.82,-0.7zm2.34 2c0.71,0.65 1.41,1.31 2.08,1.99 -0.53,-0.53 -1.08,-1.05 -1.63,-1.56 -0.02,-0.02 -0.04,-0.04 -0.07,-0.06 -0.12,-0.13 -0.25,-0.25 -0.38,-0.37zm2.17 2.08c0.64,0.66 1.26,1.33 1.86,2.02 -0.14,-0.16 -0.29,-0.31 -0.43,-0.47 -0.12,-0.13 -0.25,-0.27 -0.37,-0.4 -0.35,-0.39 -0.7,-0.78 -1.06,-1.15zm2.27 2.48c1.26,1.47 2.44,3.02 3.56,4.64 -0.11,-0.16 -0.23,-0.31 -0.34,-0.46 -0.06,-0.1 -0.13,-0.19 -0.2,-0.28 -0.72,-1.02 -1.48,-2.01 -2.26,-2.96 -0.12,-0.15 -0.24,-0.3 -0.36,-0.44 -0.14,-0.17 -0.27,-0.34 -0.4,-0.5zm3.83 5.04c0.51,0.76 1.01,1.54 1.49,2.33 -0.21,-0.34 -0.43,-0.67 -0.65,-1.01 -0.13,-0.2 -0.26,-0.41 -0.39,-0.62 -0.15,-0.23 -0.3,-0.47 -0.45,-0.7zm1.61 2.54c0.54,0.89 1.05,1.8 1.55,2.73 -0.5,-0.93 -1.01,-1.84 -1.55,-2.73zm1.65 2.93c0.46,0.88 0.91,1.78 1.34,2.69 -0.15,-0.3 -0.3,-0.59 -0.45,-0.89 -0.12,-0.25 -0.24,-0.5 -0.37,-0.74 -0.17,-0.36 -0.34,-0.72 -0.52,-1.06zm1.46 2.96c0.92,1.98 1.77,4.05 2.55,6.21 -0.11,-0.29 -0.22,-0.57 -0.33,-0.86 -0.1,-0.27 -0.21,-0.53 -0.31,-0.8 -0.47,-1.22 -0.97,-2.42 -1.49,-3.58 -0.05,-0.13 -0.1,-0.26 -0.16,-0.39 -0.09,-0.19 -0.17,-0.39 -0.26,-0.58zm2.61 6.4c6.27,17.52 8.06,41 8.13,71.75 0.03,16.99 -0.46,36.24 -1,57.9 -0.66,26.63 -1.44,56.97 -1.44,91.41 0,12.24 0.43,32.01 0.91,55.17 0.69,33.03 1.53,73.01 1.52,108.06 0.02,-59.63 -2.44,-133.53 -2.44,-163.23 0,-82.67 4.43,-141.68 1.35,-182.72 0,-0.09 -0.01,-0.18 -0.02,-0.26 -0.24,-3.21 -0.53,-6.31 -0.87,-9.29 -0.02,-0.15 -0.03,-0.29 -0.05,-0.44 -0.1,-0.91 -0.22,-1.81 -0.33,-2.71 -0.04,-0.26 -0.07,-0.53 -0.11,-0.79 -0.36,-2.69 -0.77,-5.29 -1.23,-7.8 -0.06,-0.32 -0.12,-0.65 -0.18,-0.97 -0.46,-2.42 -0.97,-4.76 -1.53,-7.02 -0.08,-0.31 -0.16,-0.63 -0.24,-0.94 -0.18,-0.7 -0.37,-1.39 -0.56,-2.07 -0.06,-0.24 -0.14,-0.47 -0.21,-0.71 -0.36,-1.26 -0.74,-2.5 -1.15,-3.7 -0.09,-0.27 -0.18,-0.54 -0.27,-0.81 -0.09,-0.28 -0.18,-0.56 -0.28,-0.83zm8.12 384.38c0,2.91 0,5.78 -0.02,8.6 0.02,-2.82 0.02,-5.69 0.02,-8.6zm-0.02 9.08c-0.01,1.27 -0.01,2.53 -0.02,3.79 0.01,-1.26 0.01,-2.52 0.02,-3.79zm-0.02 4.16c-0.03,2.76 -0.05,5.46 -0.09,8.12 0.04,-2.66 0.06,-5.36 0.09,-8.12zm-0.09 8.53c-0.02,1.29 -0.04,2.58 -0.06,3.85 0.02,-1.27 0.04,-2.56 0.06,-3.85zm-0.06 3.88c-0.04,2.7 -0.09,5.33 -0.15,7.91 0.06,-2.58 0.11,-5.22 0.15,-7.91zm-209.21 -1121.73c-17.43,4.9 -60.79,54.71 -76.5,70.45 -14.31,14.32 -27.76,27.74 -41.32,41.29l-22.98 22.98c-2.79,2.8 -5.61,5.62 -8.46,8.48l-436.52 436.54c-49.46,49.33 -96.07,96.13 -145.52,145.5 -57.81,57.72 -48.69,38.52 -48.62,95.59 0.04,36.94 -1.31,96.53 -1.7,159.81 0,0.26 -0.01,0.51 -0.01,0.77 -0.01,2.24 -0.02,4.48 -0.03,6.72 -0.01,0.42 -0.01,0.83 -0.01,1.25 -0.01,2.39 -0.02,4.79 -0.03,7.19 0,0.14 0,0.27 0,0.4 -0.01,2.51 -0.01,5.03 -0.02,7.55 0,0.57 0,1.15 0,1.73 0,1.85 -0.01,3.7 -0.01,5.56 0,0.88 0,1.76 0,2.64 0.01,1.59 0.01,3.18 0.01,4.76 0,0.94 0,1.87 0,2.8 0.01,1.68 0.01,3.36 0.02,5.04 0,0.78 0,1.57 0.01,2.35 0,2.37 0.02,4.74 0.03,7.11 0,0.75 0.01,1.51 0.02,2.26 0.01,1.68 0.02,3.36 0.03,5.04 0.01,0.95 0.02,1.91 0.03,2.86 0.01,1.52 0.02,3.03 0.04,4.54 0.01,0.95 0.02,1.91 0.03,2.86 0.02,1.64 0.04,3.27 0.06,4.9 0.01,0.79 0.01,1.57 0.03,2.36 0.03,2.38 0.06,4.75 0.1,7.12 0.01,0.45 0.01,0.9 0.02,1.35 0.03,1.96 0.07,3.92 0.1,5.87 0.02,0.77 0.03,1.53 0.05,2.3 0.03,1.67 0.06,3.34 0.1,5.01 0.02,0.77 0.03,1.54 0.05,2.31 0.04,1.8 0.08,3.6 0.13,5.39 0.01,0.57 0.02,1.14 0.04,1.7 0.12,4.8 0.26,9.56 0.41,14.26 0.02,0.46 0.03,0.92 0.05,1.37 0.06,1.92 0.13,3.82 0.2,5.71 0.01,0.52 0.03,1.03 0.05,1.55 0.08,1.98 0.15,3.94 0.23,5.9 0.02,0.32 0.03,0.65 0.04,0.97 0.2,4.72 0.41,9.37 0.64,13.94 0.01,0.12 0.02,0.24 0.02,0.35 0.11,2.13 0.22,4.24 0.34,6.33 0.02,0.28 0.03,0.55 0.05,0.83 0.12,2.07 0.24,4.13 0.36,6.16 0.01,0.12 0.02,0.25 0.03,0.38 0.42,6.68 0.88,13.16 1.4,19.39 0.01,0.09 0.01,0.18 0.02,0.26 0.17,2.05 0.35,4.07 0.53,6.06l0 0.03c2.15,23.43 5.11,42.99 9.14,56.62 -17.21,-58.41 -14.88,-225.82 -13.31,-339.08 0.38,-28.47 0.73,-53.55 0.72,-72.58 0,-7.98 -0.21,-14.49 -0.36,-19.9 -0.39,-13.82 -0.58,-20.68 2.88,-27.49 3.37,-6.63 10.28,-13.3 23.89,-26.45 5.99,-5.79 13.32,-12.87 22.21,-21.74 22.64,-22.6 44.71,-44.69 66.7,-66.71 26.03,-26.05 52.02,-52.06 78.82,-78.79l436.52 -436.54 41.37 -41.37 31.39 -31.38c3.31,-3.32 7.89,-8.19 13.16,-13.8 19.71,-20.98 49.6,-52.79 63.32,-56.65 28.53,32.21 62.76,65.33 96.27,97.74 15.85,15.33 31.58,30.54 46.44,45.41l145.51 145.51c46.75,46.78 95.9,96.5 145.93,147.12 108.7,109.98 221.76,224.36 324.32,322.83 14.89,14.29 14.46,23.25 13.52,42.66 -0.26,5.53 -0.59,11.94 -0.59,19.55 -0.01,19.23 0.35,44.47 0.76,73.07 1.64,113.61 4.05,280.73 -14.01,339.43 1.27,-4.13 2.45,-8.77 3.53,-13.92l0 -0.02c18.07,-86.44 9.62,-308.27 9.73,-398.56 0.04,-34.32 6.22,-43.84 -12.93,-62.22 -149.79,-143.81 -321.91,-321.51 -470.25,-469.95 -49.4,-49.43 -96.1,-96.09 -145.51,-145.51 -46.3,-46.31 -100.66,-95.68 -142.71,-143.15zm-767.12 1233.18c0.11,0.37 0.22,0.75 0.33,1.1 0.01,0.06 0.03,0.12 0.05,0.18 0.1,0.31 0.21,0.61 0.31,0.92 -0.23,-0.71 -0.46,-1.45 -0.69,-2.2zm0.96 3c0.23,0.69 0.47,1.36 0.7,2.02 -0.23,-0.65 -0.47,-1.33 -0.7,-2.02zm0.9 2.53c0.25,0.67 0.49,1.33 0.75,1.95 17.81,43.13 64.45,99.43 121.03,119.82 -17.54,-6.32 -34.12,-16.1 -49.18,-27.85 -33.54,-26.18 -59.56,-62.23 -71.84,-91.97 -0.26,-0.62 -0.51,-1.28 -0.76,-1.95zm121.85 121.8c0.92,0.33 1.85,0.65 2.78,0.96 -0.93,-0.31 -1.86,-0.63 -2.78,-0.96zm3.11 1.08c0.9,0.29 1.8,0.59 2.7,0.87 -0.9,-0.28 -1.8,-0.58 -2.7,-0.87zm3.1 0.99c1.1,0.34 2.2,0.67 3.31,0.98 -1.11,-0.31 -2.21,-0.64 -3.31,-0.98zm4.22 1.23c0.74,0.2 1.48,0.4 2.22,0.59 -0.74,-0.19 -1.48,-0.39 -2.22,-0.59zm3.27 0.85c0.71,0.18 1.43,0.35 2.14,0.51 -0.71,-0.16 -1.43,-0.33 -2.14,-0.51zm3.39 0.79c0.65,0.14 1.31,0.28 1.97,0.42 -0.66,-0.14 -1.32,-0.28 -1.97,-0.42zm3.8 0.77c0.47,0.09 0.94,0.18 1.41,0.26 -0.47,-0.08 -0.94,-0.17 -1.41,-0.26zm3.3 0.57c0.57,0.1 1.15,0.18 1.72,0.27 -0.57,-0.09 -1.15,-0.17 -1.72,-0.27zm3.35 0.49c0.62,0.08 1.23,0.16 1.84,0.23 -0.61,-0.07 -1.22,-0.15 -1.84,-0.23zm3.47 0.4c0.58,0.06 1.17,0.12 1.75,0.17 -0.58,-0.05 -1.17,-0.11 -1.75,-0.17zm3.68 0.32c0.48,0.03 0.96,0.06 1.43,0.09 -0.47,-0.03 -0.95,-0.06 -1.43,-0.09zm3.29 0.18c0.69,0.03 1.38,0.05 2.07,0.07 -0.69,-0.02 -1.38,-0.04 -2.07,-0.07zm3.28 0.09c0.37,0.01 0.75,0.02 1.13,0.02l18.6 2.14 0.03 6.24 1154.92 0.14 0 -6.39 19.11 -1.67c0.49,-0.02 0.97,-0.05 1.46,-0.07 -0.49,0.02 -0.97,0.04 -1.46,0.06l-19.11 1.67c0,0 -0.01,0.01 -0.01,0.01l0 6.38 -1154.9 -0.14 -0.03 -6.23c0,0 -0.01,-0.01 -0.01,-0.01l-18.6 -2.14c-0.38,0 -0.76,-0.01 -1.13,-0.01zm1195.45 0.4c0.97,-0.05 1.93,-0.1 2.9,-0.17 -0.97,0.07 -1.93,0.12 -2.9,0.17zm3.13 -0.19c0.97,-0.07 1.93,-0.15 2.9,-0.24 -0.97,0.09 -1.93,0.17 -2.9,0.24zm3.06 -0.26c66.14,-6.4 128.64,-63.87 155.68,-126.64 0.26,-0.6 0.5,-1.24 0.75,-1.88 -0.25,0.64 -0.5,1.28 -0.76,1.88 -14.63,33.96 -39.67,66.4 -70.03,90.01 -25.72,20 -55.31,33.7 -85.64,36.63zm156.68 -129.13c0.24,-0.64 0.48,-1.31 0.72,-1.98 -0.24,0.67 -0.48,1.34 -0.72,1.98zm1.02 -2.84c0.11,-0.3 0.21,-0.58 0.32,-0.89 0.02,-0.07 0.04,-0.14 0.07,-0.21 0.11,-0.35 0.21,-0.71 0.32,-1.06 -0.23,0.74 -0.47,1.46 -0.71,2.16z"/>
   </g>
   <g>
    <path class="fil3" d="M2123.87 1208.75c-12.56,-5.14 -116.72,-114.09 -135.74,-133.12l-203.35 -203.33c-17.9,-17.84 -43.78,-54.65 -84.53,-53.96 -41.35,0.69 -65.94,34.69 -84.77,53.65 -23.83,24.01 -45,45.18 -68.9,69.15l-680.56 685c-14.36,14.41 -55.67,48.89 -60.2,73.98 -8.02,44.52 17,77.24 51.72,85.06 46.34,10.44 73.46,-24.82 91.28,-42.66 84.17,-84.27 738.38,-744.35 756,-752.81l665.06 666.78c37.37,37.41 72.06,73.57 110.14,110.07 18.95,18.17 48.64,36.05 82.92,15.57 21,-12.55 43.17,-38.34 37.06,-75.2 -6.08,-36.71 -78,-97.16 -100.78,-120.09 -16.13,-16.22 -160.26,-154.16 -163.03,-168.12 -5.73,-28.83 7.17,-496.81 -1.41,-555.06 -4.03,-27.37 -27.98,-54.63 -56,-56.22 -15.71,-0.89 -99.85,-1.28 -110.6,1.74 -59.67,16.81 -44.19,117.83 -44.19,177.47 0,73.15 2.06,149.39 -0.12,222.1z"/>
    <path id="1" class="fil2" d="M2123.87 1208.76c-10.02,-4.1 -78.22,-74.14 -115.11,-112.03 -9.4,-9.64 -16.79,-17.24 -20.64,-21.09l-203.35 -203.33c-2.87,-2.86 -5.97,-6.23 -9.28,-9.84 -17.31,-18.85 -41.05,-44.69 -75.24,-44.12 -35.25,0.58 -58.35,25.43 -76.05,44.47 -3.04,3.27 -5.95,6.4 -8.71,9.18 -17.42,17.55 -33.44,33.61 -50.12,50.33l-18.78 18.82 -680.56 685c-2.47,2.48 -5.78,5.59 -9.54,9.12 -18,16.92 -46.92,44.12 -50.66,64.85 -3.84,21.37 -0.07,40.05 8.73,54.53 9.52,15.66 24.96,26.47 42.98,30.52 41.47,9.34 67.57,-17.95 85.36,-36.56 2.07,-2.17 4.06,-4.24 5.91,-6.1 14.56,-14.57 46.21,-46.42 88.66,-89.12 195.11,-196.29 618.71,-622.41 663.74,-660.9 -0.21,0.18 -0.5,0.43 -0.73,0.64 -0.38,0.33 -0.8,0.7 -1.22,1.07 -0.59,0.52 -1.2,1.06 -1.87,1.67 -0.33,0.29 -0.69,0.62 -1.03,0.94 -78.87,71.69 -667.96,666.03 -747.54,745.71 -17.82,17.84 -44.94,53.1 -91.28,42.66 -34.72,-7.82 -59.74,-40.54 -51.72,-85.06 4.53,-25.09 45.84,-59.57 60.2,-73.98l680.56 -685c23.9,-23.97 45.07,-45.14 68.9,-69.15 18.83,-18.96 43.42,-52.96 84.77,-53.65 40.75,-0.69 66.63,36.12 84.53,53.96l203.35 203.33c18.3,18.31 115.43,119.87 133.92,132.09 0.02,0.01 0.03,0.02 0.04,0.03 0.22,0.14 0.42,0.26 0.61,0.38 0.05,0.03 0.09,0.05 0.14,0.08 0.17,0.1 0.34,0.2 0.5,0.28 0.02,0.02 0.04,0.03 0.07,0.04 0.16,0.08 0.32,0.16 0.46,0.22 2.18,-72.71 0.12,-148.95 0.12,-222.1 0,-22.32 -2.17,-50.43 -1.75,-77.75 0,-0.2 0,-0.39 0.01,-0.58 0.01,-0.87 0.03,-1.74 0.05,-2.6 0,-0.3 0.01,-0.59 0.02,-0.89 0.02,-0.78 0.04,-1.56 0.07,-2.33 0,-0.32 0.01,-0.64 0.03,-0.96 0.02,-0.8 0.05,-1.61 0.09,-2.41 0.01,-0.26 0.02,-0.53 0.03,-0.79 0.04,-1.06 0.09,-2.11 0.15,-3.16 0.01,-0.14 0.01,-0.28 0.02,-0.42 0.05,-0.9 0.1,-1.79 0.16,-2.68 0.02,-0.37 0.05,-0.74 0.07,-1.11 0.05,-0.66 0.09,-1.32 0.14,-1.97 0.03,-0.42 0.07,-0.84 0.1,-1.26 0.05,-0.61 0.1,-1.23 0.15,-1.84 0.04,-0.42 0.07,-0.85 0.11,-1.27 0.06,-0.63 0.12,-1.25 0.18,-1.88 0.04,-0.39 0.08,-0.78 0.12,-1.17 0.09,-0.84 0.18,-1.68 0.28,-2.51 0.04,-0.33 0.07,-0.67 0.12,-1 0.09,-0.8 0.19,-1.59 0.29,-2.38 0.06,-0.39 0.11,-0.78 0.17,-1.17 0.08,-0.6 0.16,-1.19 0.25,-1.78 0.06,-0.42 0.13,-0.84 0.19,-1.26 0.09,-0.56 0.18,-1.12 0.27,-1.67 0.07,-0.42 0.14,-0.84 0.21,-1.25 0.1,-0.58 0.2,-1.15 0.31,-1.72 0.07,-0.38 0.14,-0.77 0.21,-1.15 0.14,-0.72 0.28,-1.43 0.43,-2.14 0.04,-0.22 0.09,-0.45 0.13,-0.68 0.2,-0.91 0.39,-1.81 0.6,-2.7 0.08,-0.33 0.16,-0.66 0.24,-0.99 0.14,-0.59 0.28,-1.18 0.43,-1.76 0.09,-0.36 0.19,-0.72 0.28,-1.09 0.15,-0.54 0.3,-1.09 0.45,-1.64 0.1,-0.35 0.2,-0.71 0.3,-1.06 0.16,-0.57 0.33,-1.12 0.5,-1.68 0.1,-0.32 0.19,-0.64 0.29,-0.96 0.22,-0.69 0.45,-1.37 0.68,-2.05 0.05,-0.17 0.11,-0.34 0.17,-0.52 0.29,-0.84 0.59,-1.68 0.9,-2.51 0.09,-0.22 0.17,-0.43 0.25,-0.65 0.24,-0.61 0.48,-1.23 0.73,-1.83 0.11,-0.27 0.22,-0.55 0.34,-0.82 0.23,-0.54 0.46,-1.09 0.7,-1.63 0.13,-0.27 0.25,-0.54 0.37,-0.81 0.26,-0.55 0.52,-1.1 0.78,-1.64 0.11,-0.23 0.23,-0.47 0.34,-0.7 0.33,-0.66 0.67,-1.31 1.02,-1.96 0.05,-0.1 0.1,-0.2 0.16,-0.3 0.42,-0.77 0.85,-1.53 1.29,-2.27 0.05,-0.08 0.09,-0.15 0.14,-0.23 0.39,-0.64 0.78,-1.28 1.19,-1.91 0.11,-0.17 0.23,-0.34 0.35,-0.52 0.35,-0.53 0.71,-1.05 1.07,-1.57 0.13,-0.18 0.26,-0.37 0.4,-0.55 0.15,-0.21 0.31,-0.42 0.47,-0.63 -21.57,28.9 -19.55,82.31 -17.87,127.04 0.41,11.3 0.83,22.06 0.83,31.72 0,23.82 0.23,47.98 0.44,72.22 0.44,50.2 0.9,100.86 -0.56,149.88 0,0 -0.01,0.01 -0.01,0.01zm-422.46 -216.44c0.81,-0.69 1.48,-1.24 2.04,-1.68 -0.16,0.13 -0.41,0.34 -0.59,0.49 -0.34,0.27 -0.68,0.55 -1.08,0.89 -0.13,0.1 -0.22,0.17 -0.37,0.3zm2.14 -1.75c0.57,-0.44 1,-0.74 1.27,-0.87l0 0 0.01 0 665.06 666.78c12,12.01 23.76,23.93 35.41,35.74 24.6,24.94 48.9,49.57 74.73,74.33 9.47,9.08 21.65,18.11 35.7,22.28 14.07,4.17 30.07,3.52 47.2,-6.71 11.71,-6.99 23.81,-18.14 31.13,-32.99 5.8,-11.77 8.62,-25.92 5.93,-42.2 -0.15,-0.93 -0.35,-1.88 -0.59,-2.84 0.24,0.96 0.45,1.91 0.6,2.84 6.11,36.86 -16.06,62.65 -37.06,75.2 -34.28,20.48 -63.97,2.6 -82.92,-15.57 -38.08,-36.5 -72.77,-72.66 -110.14,-110.07l-665.06 -666.78c-0.04,0.02 -0.12,0.09 -0.17,0.11 -0.25,0.14 -0.55,0.34 -0.99,0.67 -0.05,0.04 -0.06,0.04 -0.11,0.08zm895.85 713.5c-0.12,-0.47 -0.25,-0.95 -0.38,-1.43 0.13,0.48 0.26,0.96 0.38,1.43zm-0.4 -1.47c-8.52,-29.88 -54.22,-72.73 -82.97,-99.69 -6.78,-6.36 -12.64,-11.86 -16.82,-16.06 -2.83,-2.84 -9.65,-9.49 -18.94,-18.53 -43.53,-42.39 -141.81,-138.1 -144.09,-149.6 -2.55,-12.89 -1.39,-113.69 -0.1,-226.35 1.57,-136.71 3.35,-290.94 -1.07,-326.87 2.1,16.87 2.81,59.97 2.81,115.17 0,0.12 0,0.24 0,0.37 0,3.15 0,6.35 -0.01,9.58 0,0.34 0,0.69 0,1.04 0,3.13 -0.01,6.29 -0.02,9.49 0,0.41 0,0.82 0,1.23 -0.01,3.22 -0.02,6.48 -0.03,9.76 -0.01,0.28 -0.01,0.55 -0.01,0.82 -0.03,6.99 -0.06,14.11 -0.11,21.33l0 0.31c-0.02,3.68 -0.04,7.4 -0.07,11.14l0 0.13c-1.06,153.34 -4.93,348.26 -1.54,371.81 0.03,0.21 0.06,0.4 0.09,0.59 0.02,0.15 0.05,0.33 0.07,0.45 0.03,0.16 0.1,0.35 0.17,0.55 0.01,0.02 0.01,0.04 0.02,0.06 0.07,0.19 0.16,0.4 0.27,0.62 0.02,0.05 0.04,0.09 0.06,0.13 0.12,0.24 0.26,0.5 0.41,0.77 0.01,0.02 0.02,0.04 0.03,0.05 12.8,22.29 146.56,150.35 162.07,165.94 21.91,22.05 89.24,78.79 99.78,115.76zm-264.06 -837.68c-0.05,-0.44 -0.11,-0.86 -0.17,-1.26 -2.07,-14.09 -9.46,-28.21 -19.98,-38.76 -9.84,-9.89 -22.47,-16.69 -36.01,-17.45 -9.35,-0.52 -43,-0.87 -70.94,-0.44 -18.96,0.29 -35.32,0.97 -39.66,2.18 -0.74,0.21 -1.47,0.43 -2.19,0.67 0.72,-0.24 1.44,-0.47 2.19,-0.68 10.75,-3.02 94.89,-2.63 110.6,-1.74 28.02,1.59 51.97,28.85 56,56.22 0.06,0.38 0.11,0.83 0.16,1.26zm-169.08 -55.02c-0.58,0.19 -1.15,0.4 -1.72,0.61 0.57,-0.21 1.14,-0.42 1.72,-0.61zm-2.41 0.86c-0.53,0.2 -1.06,0.42 -1.58,0.64 0.26,-0.11 0.52,-0.23 0.78,-0.34 0.09,-0.03 0.17,-0.07 0.26,-0.1 0.18,-0.07 0.36,-0.13 0.54,-0.2zm-2.3 0.95c-0.52,0.23 -1.03,0.46 -1.53,0.7 0.18,-0.09 0.35,-0.18 0.53,-0.26 0.1,-0.05 0.2,-0.09 0.29,-0.14 0.23,-0.1 0.48,-0.2 0.71,-0.3zm-2.16 1.01c-0.52,0.26 -1.05,0.53 -1.56,0.8 0.14,-0.07 0.26,-0.15 0.4,-0.22 0.03,-0.01 0.06,-0.03 0.09,-0.05 0.35,-0.18 0.72,-0.35 1.07,-0.53zm-1.76 0.92c-1.81,0.99 -3.53,2.09 -5.16,3.27 0.41,-0.29 0.81,-0.6 1.23,-0.88 0,0 0,0 0.01,-0.01 1.25,-0.85 2.57,-1.64 3.92,-2.38zm-5.51 3.52c-0.48,0.36 -0.95,0.73 -1.42,1.1 0.23,-0.18 0.45,-0.37 0.68,-0.55 0.11,-0.08 0.21,-0.16 0.32,-0.25 0.14,-0.1 0.28,-0.19 0.42,-0.3zm-1.82 1.42c-0.47,0.38 -0.93,0.77 -1.38,1.17 0.16,-0.14 0.31,-0.28 0.46,-0.41 0.12,-0.11 0.25,-0.21 0.37,-0.32 0.18,-0.15 0.37,-0.29 0.55,-0.44zm-1.68 1.43c-2.63,2.36 -5.02,4.99 -7.17,7.86 0.22,-0.29 0.44,-0.59 0.67,-0.88 0.11,-0.15 0.23,-0.3 0.35,-0.45 0.47,-0.61 0.96,-1.19 1.46,-1.77 0.04,-0.04 0.07,-0.08 0.1,-0.12 1.11,-1.28 2.28,-2.49 3.5,-3.65 0.09,-0.09 0.19,-0.17 0.28,-0.25 0.26,-0.25 0.54,-0.49 0.81,-0.74z"/>
   </g>
   <polygon class="fil3" points="2277.98,2497.77 2297.09,2496.34 2297.09,2489.71 2277.98,2491.38 "/>
   <polygon class="fil3" points="1123.06,2497.63 1123.03,2491.39 1104.43,2489.25 1104.4,2496.11 "/>
  </g>
 </g>
</svg>
