<?xml version="1.0" encoding="UTF-8"?>
<!DOCTYPE svg PUBLIC "-//W3C//DTD SVG 1.1//EN" "http://www.w3.org/2000/svg">
<svg xmlns="http://www.w3.org/2000/svg" xml:space="preserve" width="34.5438mm" height="34.5438mm" version="1.1" style="shape-rendering:geometricPrecision; text-rendering:geometricPrecision; image-rendering:optimizeQuality; fill-rule:evenodd; clip-rule:evenodd"
viewBox="0 0 3454.38 3454.38">
 <defs>
  <style type="text/css">
    .fil2 {fill:#FEFEFE}
    .fil1 {fill:#693F2F}
    .fil0 {fill:#FF9A76}
  </style>
 </defs>
 <g id="Слой_x0020_1">
  <metadata id="CorelCorpID_0Corel-Layer"/>
  <g id="_605996067904">
   <circle class="fil0" cx="1727.2" cy="1727.19" r="1693.33"/>
   <g>
    <path class="fil0" d="M1727.2 33.86c935.18,0 1693.33,758.15 1693.33,1693.33 0,935.18 -758.15,1693.33 -1693.33,1693.33 -935.19,0 -1693.34,-758.15 -1693.34,-1693.33 0,-935.18 758.15,-1693.33 1693.34,-1693.33z"/>
    <path id="1" class="fil1" d="M1727.2 33.86c0.53,0 1.05,0.02 1.58,0.02 -0.53,0 -1.05,-0.01 -1.58,-0.01 -0.53,0 -1.05,0.01 -1.58,0.01 0.53,0 1.05,-0.02 1.58,-0.02zm42.12 0.53c1.06,0.03 2.12,0.06 3.18,0.08 -1.06,-0.02 -2.12,-0.05 -3.18,-0.08zm43.41 1.61c1.07,0.06 2.15,0.11 3.22,0.17 -1.07,-0.06 -2.15,-0.11 -3.22,-0.17zm43.11 2.69c1.1,0.09 2.2,0.17 3.3,0.25 -1.1,-0.08 -2.2,-0.16 -3.3,-0.25zm42.8 3.76c1.13,0.12 2.26,0.23 3.39,0.35 -1.13,-0.12 -2.26,-0.23 -3.39,-0.35zm42.48 4.82c1.17,0.14 2.33,0.29 3.5,0.44 -1.17,-0.15 -2.33,-0.3 -3.5,-0.44zm42.15 5.85c1.2,0.18 2.41,0.37 3.62,0.55 -1.21,-0.18 -2.42,-0.37 -3.62,-0.55zm41.8 6.88c1.25,0.22 2.5,0.44 3.75,0.67 -1.25,-0.23 -2.5,-0.45 -3.75,-0.67zm41.45 7.89c1.3,0.27 2.59,0.53 3.89,0.8 -1.3,-0.27 -2.59,-0.53 -3.89,-0.8zm41.09 8.9c1.34,0.3 2.67,0.61 4.01,0.92 -1.34,-0.31 -2.67,-0.62 -4.01,-0.92zm40.7 9.88c1.39,0.35 2.77,0.71 4.15,1.06 -1.38,-0.35 -2.76,-0.71 -4.15,-1.06zm40.32 10.85c1.42,0.4 2.85,0.81 4.27,1.21 -1.42,-0.4 -2.85,-0.81 -4.27,-1.21zm39.92 11.82c1.46,0.45 2.92,0.91 4.37,1.36 -1.45,-0.45 -2.91,-0.91 -4.37,-1.36zm39.51 12.77c1.49,0.5 2.98,1 4.46,1.51 -1.48,-0.51 -2.97,-1.01 -4.46,-1.51zm39.08 13.7c1.52,0.55 3.03,1.11 4.54,1.67 -1.51,-0.56 -3.02,-1.12 -4.54,-1.67zm38.65 14.63c1.53,0.6 3.07,1.21 4.6,1.82 -1.53,-0.61 -3.07,-1.22 -4.6,-1.82zm38.2 15.54c1.54,0.65 3.09,1.31 4.64,1.97 -1.55,-0.66 -3.1,-1.32 -4.64,-1.97zm37.73 16.45c1.56,0.69 3.11,1.4 4.66,2.1 -1.55,-0.7 -3.1,-1.41 -4.66,-2.1zm37.27 17.32c1.55,0.75 3.1,1.5 4.64,2.24 -1.54,-0.74 -3.09,-1.49 -4.64,-2.24zm36.77 18.21c1.54,0.79 3.08,1.57 4.62,2.36 -1.54,-0.79 -3.08,-1.57 -4.62,-2.36zm36.28 19.07c1.52,0.82 3.04,1.65 4.56,2.48 -1.52,-0.83 -3.04,-1.66 -4.56,-2.48zm35.76 19.92c1.5,0.86 2.99,1.72 4.49,2.58 -1.5,-0.86 -2.99,-1.72 -4.49,-2.58zm35.24 20.76c1.46,0.88 2.92,1.77 4.38,2.66 -1.46,-0.89 -2.92,-1.78 -4.38,-2.66zm34.69 21.58c1.42,0.91 2.84,1.82 4.26,2.73 -1.42,-0.91 -2.84,-1.82 -4.26,-2.73zm34.14 22.4c1.37,0.93 2.75,1.85 4.12,2.78 -1.37,-0.93 -2.75,-1.85 -4.12,-2.78zm33.57 23.2c1.32,0.94 2.64,1.87 3.96,2.81 -1.32,-0.94 -2.64,-1.87 -3.96,-2.81zm32.99 23.99c1.26,0.94 2.52,1.88 3.78,2.82 -1.26,-0.94 -2.52,-1.88 -3.78,-2.82zm32.39 24.76c1.19,0.94 2.39,1.88 3.58,2.82 -1.19,-0.94 -2.39,-1.88 -3.58,-2.82zm31.77 25.52c1.13,0.93 2.26,1.86 3.39,2.79 -1.13,-0.93 -2.26,-1.86 -3.39,-2.79zm31.15 26.27c1.06,0.92 2.12,1.83 3.18,2.75 -1.06,-0.92 -2.12,-1.83 -3.18,-2.75zm30.51 27.01c0.99,0.89 1.97,1.78 2.95,2.68 -0.98,-0.9 -1.96,-1.79 -2.95,-2.68zm29.85 27.72c0.91,0.87 1.83,1.73 2.74,2.61 -0.91,-0.87 -1.83,-1.74 -2.74,-2.61zm29.18 28.43c0.84,0.84 1.68,1.68 2.52,2.52 -0.42,-0.42 -0.83,-0.85 -1.25,-1.27 -0.42,-0.42 -0.85,-0.83 -1.27,-1.25zm28.34 28.96c0.88,0.91 1.74,1.83 2.61,2.74 -0.87,-0.91 -1.73,-1.83 -2.61,-2.74zm27.65 29.64c0.9,0.98 1.79,1.96 2.68,2.95 -0.89,-0.99 -1.78,-1.97 -2.68,-2.95zm26.94 30.28c0.92,1.06 1.83,2.12 2.75,3.18 -0.92,-1.06 -1.83,-2.12 -2.75,-3.18zm26.23 30.94c0.93,1.13 1.86,2.26 2.79,3.39 -0.93,-1.13 -1.86,-2.26 -2.79,-3.39zm25.49 31.58c0.94,1.19 1.88,2.39 2.82,3.58 -0.94,-1.19 -1.88,-2.39 -2.82,-3.58zm24.76 32.19c0.94,1.26 1.88,2.52 2.82,3.78 -0.94,-1.26 -1.88,-2.52 -2.82,-3.78zm24 32.81c0.94,1.32 1.87,2.64 2.81,3.96 -0.94,-1.32 -1.87,-2.64 -2.81,-3.96zm23.23 33.41c0.93,1.37 1.85,2.75 2.78,4.12 -0.93,-1.37 -1.85,-2.75 -2.78,-4.12zm22.45 34c0.91,1.42 1.82,2.84 2.73,4.26 -0.91,-1.42 -1.82,-2.84 -2.73,-4.26zm21.65 34.57c0.89,1.46 1.78,2.92 2.66,4.38 -0.88,-1.46 -1.77,-2.92 -2.66,-4.38zm20.84 35.13c0.86,1.5 1.72,2.99 2.58,4.49 -0.86,-1.5 -1.72,-2.99 -2.58,-4.49zm20.02 35.69c0.83,1.52 1.66,3.04 2.48,4.56 -0.82,-1.52 -1.65,-3.04 -2.48,-4.56zm19.19 36.22c0.79,1.54 1.57,3.08 2.36,4.62 -0.79,-1.54 -1.57,-3.08 -2.36,-4.62zm18.33 36.75c0.74,1.54 1.49,3.09 2.24,4.64 -0.75,-1.55 -1.5,-3.1 -2.24,-4.64zm17.46 37.25c0.7,1.55 1.41,3.1 2.1,4.66 -0.69,-1.56 -1.4,-3.11 -2.1,-4.66zm16.58 37.75c0.66,1.55 1.32,3.1 1.97,4.64 -0.65,-1.54 -1.31,-3.09 -1.97,-4.64zm15.69 38.24c0.61,1.53 1.22,3.07 1.82,4.6 -0.6,-1.53 -1.21,-3.07 -1.82,-4.6zm14.78 38.71c0.56,1.51 1.12,3.02 1.67,4.54 -0.55,-1.52 -1.11,-3.03 -1.67,-4.54zm13.86 39.16c0.51,1.48 1.01,2.97 1.51,4.46 -0.5,-1.49 -1,-2.98 -1.51,-4.46zm12.92 39.6c0.45,1.45 0.91,2.91 1.36,4.37 -0.45,-1.46 -0.91,-2.92 -1.36,-4.37zm11.97 40.02c0.4,1.42 0.81,2.85 1.21,4.27 -0.4,-1.42 -0.81,-2.85 -1.21,-4.27zm11 40.44c0.35,1.38 0.71,2.76 1.06,4.15 -0.35,-1.39 -0.71,-2.77 -1.06,-4.15zm10.02 40.84c0.31,1.34 0.62,2.67 0.92,4.01 -0.3,-1.34 -0.61,-2.67 -0.92,-4.01zm9.02 41.21c0.27,1.3 0.53,2.59 0.8,3.89 -0.27,-1.3 -0.53,-2.59 -0.8,-3.89zm8.02 41.59c0.23,1.25 0.45,2.5 0.67,3.75 -0.22,-1.25 -0.44,-2.5 -0.67,-3.75zm7 41.93c0.18,1.21 0.37,2.42 0.55,3.62 -0.18,-1.2 -0.37,-2.41 -0.55,-3.62zm5.96 42.27c0.15,1.17 0.3,2.33 0.44,3.5 -0.14,-1.17 -0.29,-2.33 -0.44,-3.5zm4.91 42.59c0.12,1.13 0.23,2.26 0.35,3.39 -0.12,-1.13 -0.23,-2.26 -0.35,-3.39zm3.86 42.89c0.08,1.1 0.16,2.2 0.25,3.3 -0.09,-1.1 -0.17,-2.2 -0.25,-3.3zm2.77 43.19c0.06,1.07 0.11,2.15 0.17,3.22 -0.06,-1.07 -0.11,-2.15 -0.17,-3.22zm1.7 43.45c0.02,1.06 0.05,2.12 0.08,3.18 -0.03,-1.06 -0.06,-2.12 -0.08,-3.18zm0.59 43.72c0,0.53 0.02,1.05 0.02,1.58 0,0.53 -0.02,1.05 -0.02,1.58 0,-0.53 0.01,-1.05 0.01,-1.58 0,-0.53 -0.01,-1.05 -0.01,-1.58zm-0.51 43.7c-0.03,1.06 -0.06,2.12 -0.08,3.18 0.02,-1.06 0.05,-2.12 0.08,-3.18zm-1.61 43.41c-0.06,1.07 -0.11,2.15 -0.17,3.22 0.06,-1.07 0.11,-2.15 0.17,-3.22zm-2.69 43.11c-0.09,1.1 -0.17,2.2 -0.25,3.3 0.08,-1.1 0.16,-2.2 0.25,-3.3zm-3.76 42.8c-0.12,1.13 -0.23,2.26 -0.35,3.39 0.12,-1.13 0.23,-2.26 0.35,-3.39zm-4.82 42.48c-0.14,1.17 -0.29,2.33 -0.44,3.5 0.15,-1.17 0.3,-2.33 0.44,-3.5zm-5.85 42.15c-0.18,1.2 -0.37,2.41 -0.55,3.62 0.18,-1.21 0.37,-2.42 0.55,-3.62zm-6.88 41.8c-0.22,1.25 -0.44,2.5 -0.67,3.75 0.23,-1.25 0.45,-2.5 0.67,-3.75zm-7.89 41.45c-0.27,1.3 -0.53,2.59 -0.8,3.89 0.27,-1.3 0.53,-2.59 0.8,-3.89zm-8.9 41.09c-0.3,1.34 -0.61,2.67 -0.92,4.01 0.31,-1.34 0.62,-2.67 0.92,-4.01zm-9.88 40.7c-0.35,1.39 -0.71,2.77 -1.06,4.15 0.35,-1.38 0.71,-2.76 1.06,-4.15zm-10.85 40.32c-0.4,1.42 -0.81,2.85 -1.21,4.27 0.4,-1.42 0.81,-2.85 1.21,-4.27zm-11.82 39.92c-0.45,1.46 -0.91,2.92 -1.36,4.37 0.45,-1.45 0.91,-2.91 1.36,-4.37zm-12.77 39.51c-0.5,1.49 -1,2.98 -1.51,4.46 0.51,-1.48 1.01,-2.97 1.51,-4.46zm-13.7 39.08c-0.55,1.52 -1.11,3.03 -1.67,4.54 0.56,-1.51 1.12,-3.02 1.67,-4.54zm-14.63 38.65c-0.6,1.53 -1.21,3.07 -1.82,4.6 0.61,-1.53 1.22,-3.07 1.82,-4.6zm-15.54 38.2c-0.65,1.54 -1.31,3.09 -1.97,4.64 0.66,-1.55 1.32,-3.1 1.97,-4.64zm-16.45 37.73c-0.69,1.56 -1.4,3.11 -2.1,4.66 0.7,-1.55 1.41,-3.1 2.1,-4.66zm-17.32 37.27c-0.75,1.55 -1.5,3.1 -2.24,4.64 0.74,-1.54 1.49,-3.09 2.24,-4.64zm-18.21 36.77c-0.79,1.54 -1.57,3.08 -2.36,4.62 0.79,-1.54 1.57,-3.08 2.36,-4.62zm-19.07 36.28c-0.82,1.52 -1.65,3.04 -2.48,4.56 0.83,-1.52 1.66,-3.04 2.48,-4.56zm-19.92 35.76c-0.86,1.5 -1.72,2.99 -2.58,4.49 0.86,-1.5 1.72,-2.99 2.58,-4.49zm-20.76 35.24c-0.88,1.46 -1.77,2.92 -2.66,4.38 0.89,-1.46 1.78,-2.92 2.66,-4.38zm-21.58 34.69c-0.91,1.42 -1.82,2.84 -2.73,4.26 0.91,-1.42 1.82,-2.84 2.73,-4.26zm-22.4 34.14c-0.93,1.37 -1.85,2.75 -2.78,4.12 0.93,-1.37 1.85,-2.75 2.78,-4.12zm-23.2 33.57c-0.94,1.32 -1.87,2.64 -2.81,3.96 0.94,-1.32 1.87,-2.64 2.81,-3.96zm-23.99 32.99c-0.94,1.26 -1.88,2.52 -2.82,3.78 0.94,-1.26 1.88,-2.52 2.82,-3.78zm-24.76 32.39c-0.94,1.19 -1.88,2.39 -2.82,3.58 0.94,-1.19 1.88,-2.39 2.82,-3.58zm-25.52 31.77c-0.93,1.13 -1.86,2.26 -2.79,3.39 0.93,-1.13 1.86,-2.26 2.79,-3.39zm-26.27 31.15c-0.92,1.06 -1.83,2.12 -2.75,3.18 0.92,-1.06 1.83,-2.12 2.75,-3.18zm-27.01 30.51c-0.89,0.99 -1.78,1.97 -2.68,2.95 0.9,-0.98 1.79,-1.96 2.68,-2.95zm-27.72 29.85c-0.87,0.91 -1.73,1.83 -2.61,2.74 0.87,-0.91 1.74,-1.83 2.61,-2.74zm-28.43 29.18c-0.84,0.84 -1.68,1.68 -2.52,2.52 0.42,-0.42 0.85,-0.83 1.27,-1.25 0.42,-0.42 0.83,-0.85 1.25,-1.27zm-28.96 28.34c-0.91,0.88 -1.83,1.74 -2.74,2.61 0.91,-0.87 1.83,-1.73 2.74,-2.61zm-29.64 27.65c-0.98,0.9 -1.96,1.79 -2.95,2.68 0.99,-0.89 1.97,-1.78 2.95,-2.68zm-30.28 26.94c-1.06,0.92 -2.12,1.83 -3.18,2.75 1.06,-0.92 2.12,-1.83 3.18,-2.75zm-30.94 26.23c-1.13,0.93 -2.26,1.86 -3.39,2.79 1.13,-0.93 2.26,-1.86 3.39,-2.79zm-31.58 25.49c-1.19,0.94 -2.39,1.88 -3.58,2.82 1.19,-0.94 2.39,-1.88 3.58,-2.82zm-32.19 24.76c-1.26,0.94 -2.52,1.88 -3.78,2.82 1.26,-0.94 2.52,-1.88 3.78,-2.82zm-32.81 24c-1.32,0.94 -2.64,1.87 -3.96,2.81 1.32,-0.94 2.64,-1.87 3.96,-2.81zm-33.41 23.23c-1.37,0.93 -2.75,1.85 -4.12,2.78 1.37,-0.93 2.75,-1.85 4.12,-2.78zm-34 22.45c-1.42,0.91 -2.84,1.82 -4.26,2.73 1.42,-0.91 2.84,-1.82 4.26,-2.73zm-34.57 21.65c-1.46,0.89 -2.92,1.78 -4.38,2.66 1.46,-0.88 2.92,-1.77 4.38,-2.66zm-35.13 20.84c-1.5,0.86 -2.99,1.72 -4.49,2.58 1.5,-0.86 2.99,-1.72 4.49,-2.58zm-35.69 20.02c-1.52,0.83 -3.04,1.66 -4.56,2.48 1.52,-0.82 3.04,-1.65 4.56,-2.48zm-36.22 19.19c-1.54,0.79 -3.08,1.57 -4.62,2.36 1.54,-0.79 3.08,-1.57 4.62,-2.36zm-36.75 18.33c-1.54,0.74 -3.09,1.49 -4.64,2.24 1.55,-0.75 3.1,-1.5 4.64,-2.24zm-37.25 17.46c-1.55,0.7 -3.1,1.41 -4.66,2.1 1.56,-0.69 3.11,-1.4 4.66,-2.1zm-37.75 16.58c-1.55,0.66 -3.1,1.32 -4.64,1.97 1.54,-0.65 3.09,-1.31 4.64,-1.97zm-38.24 15.69c-1.53,0.61 -3.07,1.22 -4.6,1.82 1.53,-0.6 3.07,-1.21 4.6,-1.82zm-38.71 14.78c-1.51,0.56 -3.02,1.12 -4.54,1.67 1.52,-0.55 3.03,-1.11 4.54,-1.67zm-39.16 13.86c-1.48,0.51 -2.97,1.01 -4.46,1.51 1.49,-0.5 2.98,-1 4.46,-1.51zm-39.6 12.92c-1.45,0.45 -2.91,0.91 -4.37,1.36 1.46,-0.45 2.92,-0.91 4.37,-1.36zm-40.02 11.97c-1.42,0.4 -2.85,0.81 -4.27,1.21 1.42,-0.4 2.85,-0.81 4.27,-1.21zm-40.44 11c-1.38,0.35 -2.76,0.71 -4.15,1.06 1.39,-0.35 2.77,-0.71 4.15,-1.06zm-40.84 10.02c-1.34,0.31 -2.67,0.62 -4.01,0.92 1.34,-0.3 2.67,-0.61 4.01,-0.92zm-41.21 9.02c-1.3,0.27 -2.59,0.53 -3.89,0.8 1.3,-0.27 2.59,-0.53 3.89,-0.8zm-41.59 8.02c-1.25,0.23 -2.5,0.45 -3.75,0.67 1.25,-0.22 2.5,-0.44 3.75,-0.67zm-41.93 7c-1.21,0.18 -2.42,0.37 -3.62,0.55 1.2,-0.18 2.41,-0.37 3.62,-0.55zm-42.27 5.96c-1.17,0.15 -2.33,0.3 -3.5,0.44 1.17,-0.14 2.33,-0.29 3.5,-0.44zm-42.59 4.91c-1.13,0.12 -2.26,0.23 -3.39,0.35 1.13,-0.12 2.26,-0.23 3.39,-0.35zm-42.89 3.86c-1.1,0.08 -2.2,0.16 -3.3,0.25 1.1,-0.09 2.2,-0.17 3.3,-0.25zm-43.19 2.77c-1.07,0.06 -2.15,0.11 -3.22,0.17 1.07,-0.06 2.15,-0.11 3.22,-0.17zm-43.45 1.7c-1.06,0.02 -2.12,0.05 -3.18,0.08 1.06,-0.03 2.12,-0.06 3.18,-0.08zm-43.72 0.59c-0.53,0 -1.05,0.02 -1.58,0.02 -0.53,0 -1.05,-0.02 -1.58,-0.02 0.53,0 1.05,0.01 1.58,0.01 0.53,0 1.05,-0.01 1.58,-0.01zm-43.7 -0.51c-1.06,-0.03 -2.12,-0.06 -3.18,-0.08 1.06,0.02 2.12,0.05 3.18,0.08zm-43.4 -1.61c-1.08,-0.06 -2.16,-0.11 -3.24,-0.17 1.08,0.06 2.16,0.11 3.24,0.17zm-43.11 -2.69c-1.11,-0.09 -2.21,-0.17 -3.32,-0.26 1.11,0.09 2.21,0.17 3.32,0.26zm-42.79 -3.76c-1.15,-0.12 -2.29,-0.23 -3.44,-0.35 1.15,0.12 2.29,0.23 3.44,0.35zm-42.47 -4.81c-1.19,-0.15 -2.38,-0.3 -3.56,-0.46 1.18,0.16 2.37,0.31 3.56,0.46zm-42.14 -5.85c-1.24,-0.19 -2.47,-0.38 -3.7,-0.57 1.23,0.19 2.46,0.38 3.7,0.57zm-41.8 -6.88c-1.28,-0.23 -2.56,-0.46 -3.85,-0.69 1.29,0.23 2.57,0.46 3.85,0.69zm-41.44 -7.89c-1.33,-0.27 -2.66,-0.55 -4,-0.82 1.34,0.27 2.67,0.55 4,0.82zm-41.08 -8.89c-1.38,-0.32 -2.76,-0.64 -4.14,-0.96 1.38,0.32 2.76,0.64 4.14,0.96zm-40.71 -9.88c-1.42,-0.37 -2.84,-0.73 -4.27,-1.1 1.43,0.37 2.85,0.73 4.27,1.1zm-40.31 -10.85c-1.47,-0.42 -2.93,-0.84 -4.4,-1.25 1.47,0.41 2.93,0.83 4.4,1.25zm-39.92 -11.82c-1.5,-0.47 -3.01,-0.93 -4.51,-1.4 1.5,0.47 3.01,0.93 4.51,1.4zm-39.51 -12.77c-1.53,-0.51 -3.06,-1.03 -4.6,-1.55 1.54,0.52 3.07,1.04 4.6,1.55zm-39.09 -13.7c-1.55,-0.57 -3.11,-1.14 -4.66,-1.71 1.55,0.57 3.11,1.14 4.66,1.71zm-38.65 -14.63c-1.57,-0.62 -3.14,-1.24 -4.71,-1.86 1.57,0.62 3.14,1.24 4.71,1.86zm-38.21 -15.54c-1.57,-0.67 -3.15,-1.34 -4.73,-2.01 1.58,0.67 3.16,1.34 4.73,2.01zm-37.74 -16.45c-1.58,-0.71 -3.15,-1.42 -4.73,-2.14 1.58,0.72 3.15,1.43 4.73,2.14zm-37.28 -17.33c-1.57,-0.76 -3.13,-1.51 -4.69,-2.26 1.56,0.75 3.12,1.5 4.69,2.26zm-36.79 -18.22c-1.55,-0.78 -3.09,-1.58 -4.63,-2.37 1.54,0.79 3.08,1.59 4.63,2.37zm-36.29 -19.07c-1.52,-0.82 -3.03,-1.65 -4.55,-2.47 1.52,0.82 3.03,1.65 4.55,2.47zm-35.78 -19.93c-1.48,-0.85 -2.96,-1.7 -4.44,-2.56 1.48,0.86 2.96,1.71 4.44,2.56zm-35.25 -20.77c-1.44,-0.87 -2.87,-1.74 -4.31,-2.62 1.44,0.88 2.87,1.75 4.31,2.62zm-34.71 -21.6c-1.39,-0.88 -2.77,-1.77 -4.15,-2.66 1.38,0.89 2.76,1.78 4.15,2.66zm-34.15 -22.41c-1.33,-0.89 -2.66,-1.79 -3.99,-2.69 1.33,0.9 2.66,1.8 3.99,2.69zm-33.59 -23.21c-1.26,-0.89 -2.53,-1.79 -3.79,-2.69 1.26,0.9 2.53,1.8 3.79,2.69zm-33 -23.99c-1.2,-0.9 -2.39,-1.79 -3.59,-2.69 1.2,0.9 2.39,1.79 3.59,2.69zm-32.4 -24.78c-1.13,-0.88 -2.25,-1.77 -3.38,-2.65 1.13,0.88 2.25,1.77 3.38,2.65zm-31.78 -25.53c-1.06,-0.87 -2.11,-1.74 -3.17,-2.61 1.06,0.87 2.11,1.74 3.17,2.61zm-31.16 -26.28c-0.98,-0.85 -1.96,-1.7 -2.94,-2.55 0.98,0.85 1.96,1.7 2.94,2.55zm-30.51 -27.01c-0.9,-0.82 -1.81,-1.65 -2.72,-2.47 0.91,0.82 1.82,1.65 2.72,2.47zm-29.84 -27.72c-0.84,-0.8 -1.68,-1.6 -2.51,-2.4 0.83,0.8 1.67,1.6 2.51,2.4zm-29.18 -28.43c-0.77,-0.77 -1.54,-1.54 -2.31,-2.31 0.39,0.38 0.76,0.77 1.15,1.16 0.39,0.39 0.78,0.76 1.16,1.15zm-28.33 -28.96c-0.81,-0.85 -1.61,-1.69 -2.42,-2.54 0.81,0.85 1.61,1.69 2.42,2.54zm-27.64 -29.63c-0.84,-0.92 -1.67,-1.84 -2.51,-2.76 0.84,0.92 1.67,1.84 2.51,2.76zm-26.93 -30.28c-0.86,-1 -1.73,-2 -2.59,-3 0.86,1 1.73,2 2.59,3zm-26.21 -30.93c-0.89,-1.08 -1.78,-2.15 -2.66,-3.22 0.88,1.07 1.77,2.14 2.66,3.22zm-25.49 -31.57c-0.9,-1.15 -1.8,-2.29 -2.7,-3.44 0.9,1.15 1.8,2.29 2.7,3.44zm-24.75 -32.19c-0.91,-1.22 -1.81,-2.43 -2.72,-3.64 0.91,1.21 1.81,2.42 2.72,3.64zm-23.99 -32.81c-0.91,-1.27 -1.82,-2.55 -2.72,-3.82 0.9,1.27 1.81,2.55 2.72,3.82zm-23.23 -33.4c-0.9,-1.33 -1.8,-2.67 -2.7,-4 0.9,1.33 1.8,2.67 2.7,4zm-22.44 -33.99c-0.89,-1.39 -1.78,-2.77 -2.66,-4.16 0.88,1.39 1.77,2.77 2.66,4.16zm-21.65 -34.57c-0.87,-1.43 -1.74,-2.85 -2.6,-4.28 0.86,1.42 1.73,2.85 2.6,4.28zm-20.84 -35.13c-0.84,-1.46 -1.69,-2.93 -2.53,-4.4 0.84,1.47 1.69,2.94 2.53,4.4zm-20.01 -35.68c-0.82,-1.49 -1.63,-2.99 -2.44,-4.48 0.81,1.49 1.62,2.99 2.44,4.48zm-19.18 -36.22c-0.78,-1.51 -1.56,-3.03 -2.33,-4.54 0.77,1.51 1.55,3.03 2.33,4.54zm-18.33 -36.73c-0.74,-1.53 -1.48,-3.06 -2.21,-4.6 0.73,1.54 1.47,3.07 2.21,4.6zm-17.46 -37.26c-0.7,-1.53 -1.39,-3.07 -2.08,-4.6 0.69,1.53 1.38,3.07 2.08,4.6zm-16.58 -37.75c-0.65,-1.53 -1.3,-3.06 -1.95,-4.59 0.65,1.53 1.3,3.06 1.95,4.59zm-15.69 -38.23c-0.6,-1.52 -1.2,-3.04 -1.8,-4.56 0.6,1.52 1.2,3.04 1.8,4.56zm-14.78 -38.7c-0.55,-1.5 -1.1,-3.01 -1.65,-4.51 0.55,1.5 1.1,3.01 1.65,4.51zm-13.86 -39.16c-0.5,-1.48 -1,-2.96 -1.5,-4.44 0.5,1.48 1,2.96 1.5,4.44zm-12.91 -39.6c-0.46,-1.45 -0.91,-2.9 -1.36,-4.35 0.45,1.45 0.9,2.9 1.36,4.35zm-11.97 -40.02c-0.4,-1.42 -0.8,-2.83 -1.21,-4.25 0.41,1.42 0.81,2.83 1.21,4.25zm-11 -40.44c-0.35,-1.38 -0.71,-2.75 -1.06,-4.13 0.35,1.38 0.71,2.75 1.06,4.13zm-10.02 -40.83c-0.31,-1.34 -0.62,-2.67 -0.92,-4.01 0.3,1.34 0.61,2.67 0.92,4.01zm-9.02 -41.22c-0.27,-1.29 -0.53,-2.58 -0.8,-3.88 0.27,1.3 0.53,2.59 0.8,3.88zm-8.02 -41.58c-0.23,-1.25 -0.45,-2.5 -0.67,-3.75 0.22,1.25 0.44,2.5 0.67,3.75zm-7 -41.93c-0.18,-1.21 -0.37,-2.42 -0.55,-3.62 0.18,1.2 0.37,2.41 0.55,3.62zm-5.96 -42.27c-0.15,-1.17 -0.3,-2.33 -0.44,-3.5 0.14,1.17 0.29,2.33 0.44,3.5zm-4.91 -42.59c-0.12,-1.13 -0.23,-2.26 -0.35,-3.39 0.12,1.13 0.23,2.26 0.35,3.39zm-3.86 -42.89c-0.08,-1.1 -0.16,-2.2 -0.25,-3.3 0.09,1.1 0.17,2.2 0.25,3.3zm-2.77 -43.19c-0.06,-1.07 -0.11,-2.15 -0.17,-3.22 0.06,1.07 0.11,2.15 0.17,3.22zm-1.7 -43.45c-0.02,-1.06 -0.05,-2.12 -0.08,-3.18 0.03,1.06 0.06,2.12 0.08,3.18zm-0.59 -43.72c0,-0.53 -0.02,-1.05 -0.02,-1.58 0,-0.53 0.02,-1.05 0.02,-1.58 0,0.53 -0.01,1.05 -0.01,1.58 0,0.53 0.01,1.05 0.01,1.58zm0.51 -43.7c0.03,-1.06 0.06,-2.12 0.08,-3.18 -0.02,1.06 -0.05,2.12 -0.08,3.18zm1.61 -43.41c0.06,-1.07 0.11,-2.15 0.17,-3.22 -0.06,1.07 -0.11,2.15 -0.17,3.22zm2.69 -43.11c0.09,-1.1 0.17,-2.2 0.25,-3.3 -0.08,1.1 -0.16,2.2 -0.25,3.3zm3.76 -42.8c0.12,-1.13 0.23,-2.26 0.35,-3.39 -0.12,1.13 -0.23,2.26 -0.35,3.39zm4.82 -42.48c0.14,-1.17 0.29,-2.33 0.44,-3.5 -0.15,1.17 -0.3,2.33 -0.44,3.5zm5.85 -42.15c0.18,-1.2 0.37,-2.41 0.55,-3.62 -0.18,1.21 -0.37,2.42 -0.55,3.62zm6.88 -41.8c0.22,-1.25 0.44,-2.5 0.67,-3.75 -0.23,1.25 -0.45,2.5 -0.67,3.75zm7.89 -41.45c0.27,-1.3 0.53,-2.59 0.8,-3.88 -0.27,1.29 -0.53,2.58 -0.8,3.88zm8.9 -41.09c0.3,-1.34 0.61,-2.67 0.92,-4.01 -0.31,1.34 -0.62,2.67 -0.92,4.01zm9.88 -40.71c0.35,-1.38 0.71,-2.75 1.06,-4.13 -0.35,1.38 -0.71,2.75 -1.06,4.13zm10.85 -40.32c0.41,-1.42 0.81,-2.83 1.21,-4.25 -0.4,1.42 -0.8,2.83 -1.21,4.25zm11.82 -39.92c0.45,-1.45 0.9,-2.9 1.36,-4.35 -0.46,1.45 -0.91,2.9 -1.36,4.35zm12.77 -39.51c0.5,-1.48 1,-2.96 1.5,-4.44 -0.5,1.48 -1,2.96 -1.5,4.44zm13.71 -39.09c0.55,-1.5 1.1,-3.01 1.65,-4.51 -0.55,1.5 -1.1,3.01 -1.65,4.51zm14.63 -38.65c0.6,-1.52 1.2,-3.04 1.8,-4.56 -0.6,1.52 -1.2,3.04 -1.8,4.56zm15.54 -38.2c0.65,-1.53 1.3,-3.06 1.95,-4.59 -0.65,1.53 -1.3,3.06 -1.95,4.59zm16.45 -37.74c0.69,-1.53 1.38,-3.07 2.08,-4.6 -0.7,1.53 -1.39,3.07 -2.08,4.6zm17.33 -37.26c0.73,-1.54 1.47,-3.07 2.21,-4.6 -0.74,1.53 -1.48,3.06 -2.21,4.6zm18.21 -36.79c0.77,-1.51 1.55,-3.03 2.33,-4.54 -0.78,1.51 -1.56,3.03 -2.33,4.54zm19.07 -36.28c0.81,-1.49 1.62,-2.99 2.44,-4.48 -0.82,1.49 -1.63,2.99 -2.44,4.48zm19.92 -35.76c0.84,-1.47 1.69,-2.94 2.53,-4.4 -0.84,1.46 -1.69,2.93 -2.53,4.4zm20.77 -35.25c0.86,-1.43 1.73,-2.85 2.6,-4.28 -0.87,1.43 -1.74,2.86 -2.6,4.28zm21.59 -34.69c0.88,-1.39 1.77,-2.77 2.66,-4.16 -0.89,1.39 -1.78,2.77 -2.66,4.16zm22.4 -34.15c0.9,-1.33 1.8,-2.67 2.7,-4 -0.9,1.33 -1.8,2.67 -2.7,4zm23.21 -33.58c0.9,-1.27 1.81,-2.55 2.72,-3.82 -0.91,1.27 -1.82,2.55 -2.72,3.82zm23.99 -32.99c0.91,-1.21 1.81,-2.42 2.72,-3.64 -0.91,1.22 -1.81,2.43 -2.72,3.64zm24.77 -32.39c0.9,-1.15 1.8,-2.29 2.7,-3.44 -0.9,1.15 -1.8,2.29 -2.7,3.44zm25.53 -31.79c0.88,-1.07 1.77,-2.14 2.66,-3.22 -0.89,1.08 -1.78,2.15 -2.66,3.22zm26.28 -31.15c0.86,-1 1.73,-2 2.59,-3 -0.86,1 -1.73,2 -2.59,3zm27.01 -30.52c0.84,-0.92 1.67,-1.84 2.51,-2.76 -0.84,0.92 -1.67,1.84 -2.51,2.76zm27.73 -29.85c0.81,-0.85 1.61,-1.69 2.42,-2.54 -0.81,0.85 -1.61,1.69 -2.42,2.54zm28.44 -29.19c0.77,-0.77 1.54,-1.54 2.31,-2.31 -0.38,0.39 -0.77,0.76 -1.16,1.15 -0.39,0.39 -0.76,0.78 -1.15,1.16zm28.98 -28.34c0.83,-0.8 1.67,-1.6 2.51,-2.4 -0.84,0.8 -1.68,1.6 -2.51,2.4zm29.63 -27.65c0.91,-0.82 1.82,-1.65 2.72,-2.47 -0.9,0.82 -1.81,1.65 -2.72,2.47zm30.29 -26.93c0.98,-0.85 1.96,-1.7 2.94,-2.55 -0.98,0.85 -1.96,1.7 -2.94,2.55zm30.93 -26.22c1.06,-0.87 2.11,-1.74 3.17,-2.61 -1.06,0.87 -2.11,1.74 -3.17,2.61zm31.57 -25.49c1.13,-0.88 2.25,-1.77 3.38,-2.65 -1.13,0.88 -2.25,1.77 -3.38,2.65zm32.19 -24.74c1.2,-0.9 2.39,-1.79 3.59,-2.69 -1.2,0.9 -2.39,1.79 -3.59,2.69zm32.8 -23.99c1.26,-0.9 2.53,-1.8 3.79,-2.69 -1.26,0.89 -2.53,1.79 -3.79,2.69zm33.39 -23.21c1.33,-0.9 2.66,-1.8 3.99,-2.69 -1.33,0.89 -2.66,1.79 -3.99,2.69zm33.99 -22.44c1.38,-0.89 2.76,-1.78 4.15,-2.66 -1.39,0.88 -2.77,1.77 -4.15,2.66zm34.55 -21.64c1.44,-0.88 2.87,-1.75 4.31,-2.62 -1.44,0.87 -2.87,1.74 -4.31,2.62zm35.12 -20.83c1.48,-0.86 2.96,-1.71 4.44,-2.56 -1.48,0.85 -2.96,1.7 -4.44,2.56zm35.67 -20.02c1.52,-0.82 3.03,-1.65 4.55,-2.47 -1.52,0.82 -3.03,1.65 -4.55,2.47zm36.21 -19.17c1.54,-0.79 3.08,-1.59 4.63,-2.37 -1.55,0.78 -3.09,1.58 -4.63,2.37zm36.73 -18.33c1.56,-0.75 3.12,-1.5 4.69,-2.26 -1.57,0.76 -3.13,1.51 -4.69,2.26zm37.24 -17.45c1.58,-0.72 3.15,-1.43 4.73,-2.14 -1.58,0.71 -3.15,1.42 -4.73,2.14zm37.74 -16.58c1.58,-0.67 3.16,-1.34 4.73,-2.01 -1.57,0.67 -3.15,1.34 -4.73,2.01zm38.23 -15.69c1.57,-0.62 3.14,-1.24 4.71,-1.86 -1.57,0.62 -3.14,1.24 -4.71,1.86zm38.7 -14.78c1.55,-0.57 3.11,-1.14 4.66,-1.71 -1.55,0.57 -3.11,1.14 -4.66,1.71zm39.15 -13.86c1.54,-0.52 3.07,-1.04 4.6,-1.55 -1.53,0.51 -3.06,1.03 -4.6,1.55zm39.6 -12.92c1.5,-0.47 3.01,-0.93 4.51,-1.4 -1.5,0.47 -3.01,0.93 -4.51,1.4zm40.03 -11.97c1.47,-0.41 2.93,-0.83 4.4,-1.25 -1.47,0.42 -2.93,0.84 -4.4,1.25zm40.44 -11c1.43,-0.37 2.85,-0.73 4.27,-1.1 -1.42,0.37 -2.84,0.73 -4.27,1.1zm40.84 -10.02c1.38,-0.32 2.76,-0.64 4.14,-0.96 -1.38,0.32 -2.76,0.64 -4.14,0.96zm41.22 -9.03c1.34,-0.27 2.67,-0.55 4,-0.82 -1.33,0.27 -2.66,0.55 -4,0.82zm41.59 -8.02c1.29,-0.23 2.57,-0.46 3.85,-0.69 -1.28,0.23 -2.56,0.46 -3.85,0.69zm41.95 -7c1.23,-0.19 2.46,-0.38 3.7,-0.57 -1.24,0.19 -2.47,0.38 -3.7,0.57zm42.28 -5.96c1.18,-0.16 2.37,-0.31 3.56,-0.46 -1.19,0.15 -2.38,0.3 -3.56,0.46zm42.59 -4.92c1.15,-0.12 2.29,-0.23 3.44,-0.35 -1.15,0.12 -2.29,0.23 -3.44,0.35zm42.91 -3.85c1.11,-0.09 2.21,-0.17 3.32,-0.26 -1.11,0.09 -2.21,0.17 -3.32,0.26zm43.19 -2.78c1.08,-0.06 2.16,-0.11 3.24,-0.17 -1.08,0.06 -2.16,0.11 -3.24,0.17zm43.46 -1.7c1.06,-0.02 2.12,-0.05 3.18,-0.08 -1.06,0.03 -2.12,0.06 -3.18,0.08z"/>
   </g>
   <g id="_605996069984">
    <g>
     <g>
      <path class="fil2" d="M1958.87 2046.78l67.68 -61.26 37.54 -53.51c42.17,-72.8 58.62,-180.63 34.05,-259.73 -18.15,-58.44 25.96,-70.77 52.14,-59.99 15.88,6.54 21.27,22.32 26.78,45.87 25.62,109.43 7.84,213.09 -39.1,305.33 -11.69,22.97 -30.68,47.45 -45.52,67.79 -4.97,6.8 -10.72,12.21 -16.4,18.92 -13.35,15.76 -24.23,22.17 -38.56,34.76 -144.19,126.74 -358.87,136.45 -516.33,30.34 -21,-14.15 -46.28,-28.58 -46.28,-55.21 0,-12.09 5.68,-19.88 11.41,-25.63 28.4,-28.56 52.61,-5.9 75.75,11.6 29.11,22.02 67.01,37.71 101.3,48.26 17.56,5.39 38.16,9.7 62.7,12.09 22.94,2.23 51.77,1.69 69.78,-0.16 55.16,-5.67 117.62,-27.06 163.06,-59.47zm93.94 -571.63c49.7,-11.89 70.75,65.68 18.84,77.43 -55.46,12.56 -67,-65.92 -18.84,-77.43zm449.32 276.53c0,-53.01 -6.01,-100.31 -16.67,-150.91 -0.15,-0.71 -0.3,-1.36 -0.45,-2.07l-0.9 -4.22c-2.25,-10.42 -4.67,-17.94 -7.35,-28.44l-52.37 -138.54c-28.15,-54.31 -62.66,-111.37 -104.72,-155.83l-20.79 -22.69c-0.64,-0.71 -3.03,-3.16 -3.54,-3.66l-54.9 -51.77c-15.05,-14.71 -30.64,-24.04 -48.42,-38.06 -9.82,-7.75 -28.9,-19.7 -41.18,-27.24 -164.29,-100.73 -355.16,-139.13 -562.1,-91.2 -34.06,7.89 -76.8,21.32 -105.45,33.59 -63.83,27.32 -122.16,58.34 -176.33,101.68 -13.29,10.63 -21.62,17.15 -37.17,31.01 -12.34,11.01 -24.25,19.96 -36.25,32.12 -6.45,6.54 -10.93,11.47 -16.69,18.77 -5.7,7.2 -8.86,9.89 -16.39,18.87 -13.6,16.2 -18.77,22.14 -30.78,37.55 -20.28,26.02 -40.25,57.17 -55.15,84.39 -36,65.79 -60.63,126.76 -77.54,199.89 -38.88,168.16 -13.59,332.5 48.01,470.66 22.73,50.95 66.96,128.1 107.79,170.35l87.1 87.97 99.55 71.13c18.36,12.49 37.32,21.75 56.33,30.94l85.05 34.96c45.07,15.36 94.01,27.86 141.32,33.46 9.94,1.18 21.23,1.68 32.01,1.65 59.92,-0.12 122.08,3.47 181.25,-4.07 43.32,-5.51 106.8,-21.37 144.84,-37.69 20.85,-8.94 42.32,-17.82 62.98,-27.84l100.92 -58.32c21.72,-13.15 37.61,-31.15 58.66,-44.83 3.23,-2.1 3.22,-2.12 5.94,-4.45l45.97 -44.9c20.3,-22.24 46.28,-49.9 63.05,-73.68 3.78,-5.37 3.87,-6.04 8.72,-13.89 4.3,-6.95 4.74,-6.25 9.81,-12.59 24.65,-30.78 49.45,-83.29 64.26,-118.25l25.35 -65.63c14.34,-48.71 25.99,-99.57 31.77,-150.19 3.25,-28.43 4.46,-58.6 4.46,-88.03z"/>
      <path id="1" class="fil1" d="M1958.86 2046.77l67.68 -61.26 37.54 -53.51c21.44,-37.01 36.25,-83.12 42.37,-129.85 5.91,-45.17 3.74,-91.01 -8.32,-129.87 -5.69,-18.36 -5.25,-32.19 -1.15,-42.15 2.12,-5.15 5.24,-9.3 8.95,-12.49 3.71,-3.19 8.11,-5.47 12.76,-6.92 10.34,-3.2 22.15,-2.32 31.59,1.56 7.94,3.27 13.27,8.86 17.29,16.57 4.01,7.69 6.76,17.54 9.5,29.31 12.42,53.06 14.63,104.79 8.28,154.5 -6.75,52.78 -23.21,103.33 -47.38,150.83 -9.94,19.53 -25.14,40.15 -38.58,58.35l-6.94 9.45c-3.07,4.2 -6.47,7.9 -9.93,11.67 -2.13,2.32 -4.32,4.71 -6.47,7.25 -9.12,10.76 -17.11,17.19 -25.81,24.18 -4.02,3.22 -8.23,6.61 -12.75,10.58 -71.64,62.97 -160.71,97.06 -251.49,102.39 -91.93,5.4 -185.65,-18.68 -264.86,-72.05l-5.18 -3.46c-19.75,-13.1 -41.1,-27.29 -41.1,-51.76 0,-6.04 1.43,-11.02 3.56,-15.19 2.13,-4.18 5,-7.59 7.85,-10.45 26.31,-26.45 49.05,-8.95 70.63,7.67l5.14 3.93c13.35,10.09 28.56,18.88 44.37,26.41 18.71,8.91 38.36,16.15 56.92,21.85 8.77,2.69 18.33,5.13 28.73,7.17 10.4,2.04 21.71,3.74 33.97,4.92 10.8,1.04 22.94,1.48 34.61,1.46 13.09,-0.02 25.66,-0.65 35.17,-1.62 28.2,-2.89 58.34,-9.92 87.11,-20.41 27.47,-10.01 53.74,-23.23 75.94,-39.06zm0.01 0.01l67.68 -61.26 37.54 -53.51c28.98,-50.03 45.82,-116.62 45.53,-179.04 0,-0.05 0,-0.1 0,-0.15 0,-1.35 -0.02,-2.69 -0.04,-4.03 0,-0.11 -0.01,-0.21 -0.01,-0.32 -0.02,-1.29 -0.05,-2.58 -0.09,-3.86 0,-0.15 -0.01,-0.29 -0.01,-0.43 -0.04,-1.25 -0.09,-2.5 -0.14,-3.75 -0.01,-0.17 -0.01,-0.34 -0.02,-0.51 -0.05,-1.22 -0.11,-2.44 -0.18,-3.66 -0.01,-0.19 -0.02,-0.37 -0.03,-0.56 -0.07,-1.2 -0.15,-2.41 -0.23,-3.61 -0.01,-0.19 -0.03,-0.38 -0.04,-0.56 -0.08,-1.21 -0.18,-2.41 -0.27,-3.61 -0.02,-0.18 -0.03,-0.36 -0.05,-0.53 -0.1,-1.22 -0.21,-2.43 -0.32,-3.64 -0.02,-0.15 -0.03,-0.31 -0.05,-0.47 -0.12,-1.23 -0.25,-2.46 -0.38,-3.69 -0.02,-0.13 -0.03,-0.25 -0.05,-0.38 -0.14,-1.26 -0.28,-2.52 -0.44,-3.78 -0.01,-0.08 -0.02,-0.17 -0.03,-0.25 -0.17,-1.31 -0.34,-2.6 -0.52,-3.9 -0.01,-0.03 -0.01,-0.07 -0.02,-0.11 -1.89,-13.5 -4.73,-26.54 -8.56,-38.89 -18.15,-58.44 25.96,-70.77 52.14,-59.99 15.88,6.54 21.27,22.32 26.78,45.87 12.23,52.22 14.56,103.13 8.57,152.11l-0.01 0.11c-0.18,1.41 -0.36,2.82 -0.55,4.24 -0.04,0.29 -0.07,0.59 -0.12,0.89 -0.16,1.23 -0.33,2.45 -0.51,3.68 -0.06,0.46 -0.13,0.91 -0.2,1.37 -0.15,1.05 -0.31,2.11 -0.47,3.16 -0.1,0.6 -0.19,1.2 -0.28,1.8 -0.14,0.88 -0.29,1.76 -0.43,2.64 -0.13,0.76 -0.25,1.51 -0.38,2.26 -0.12,0.67 -0.23,1.35 -0.35,2.02 -0.16,0.94 -0.33,1.89 -0.51,2.83 -0.11,0.63 -0.22,1.25 -0.34,1.87 -0.18,0.98 -0.37,1.96 -0.56,2.95 -0.12,0.61 -0.24,1.22 -0.36,1.83 -0.2,0.98 -0.39,1.96 -0.6,2.95 -0.12,0.61 -0.25,1.22 -0.38,1.83 -0.2,0.97 -0.41,1.95 -0.62,2.92 -0.13,0.62 -0.27,1.24 -0.41,1.86 -0.21,0.96 -0.43,1.91 -0.64,2.87 -0.15,0.64 -0.3,1.27 -0.45,1.91 -0.21,0.93 -0.43,1.87 -0.66,2.8 -0.16,0.66 -0.32,1.32 -0.48,1.99 -0.17,0.7 -0.35,1.4 -0.52,2.1 -0.23,0.9 -0.45,1.79 -0.68,2.69 -0.15,0.55 -0.29,1.1 -0.43,1.66 -0.28,1.04 -0.55,2.09 -0.83,3.14 -0.12,0.43 -0.24,0.87 -0.36,1.31 -0.32,1.17 -0.64,2.33 -0.96,3.5 -0.1,0.33 -0.19,0.67 -0.29,1 -0.36,1.28 -0.73,2.55 -1.1,3.82 -0.07,0.24 -0.14,0.48 -0.21,0.72 -0.4,1.38 -0.82,2.76 -1.23,4.13 -0.05,0.14 -0.09,0.28 -0.13,0.42 -0.46,1.49 -0.92,2.98 -1.39,4.47l-0.03 0.08c-7.97,25.16 -18.12,49.66 -30.2,73.4 -11.69,22.97 -30.68,47.45 -45.52,67.79 -4.97,6.8 -10.72,12.21 -16.4,18.92 -13.35,15.76 -24.23,22.17 -38.56,34.76 -0.64,0.57 -1.3,1.12 -1.95,1.67 -0.97,0.84 -1.94,1.68 -2.91,2.51 -1.3,1.11 -2.61,2.21 -3.93,3.3 -0.98,0.81 -1.96,1.62 -2.94,2.42 -1.33,1.08 -2.66,2.15 -3.99,3.21 -0.99,0.79 -1.99,1.57 -2.99,2.35 -1.34,1.05 -2.68,2.08 -4.03,3.11 -1.01,0.76 -2.03,1.53 -3.04,2.28 -1.36,1.01 -2.71,2.01 -4.08,3 -1.03,0.75 -2.06,1.49 -3.1,2.23 -1.36,0.97 -2.72,1.93 -4.1,2.88 -1.05,0.73 -2.11,1.45 -3.17,2.18 -1.36,0.92 -2.73,1.84 -4.1,2.75 -1.09,0.72 -2.18,1.43 -3.27,2.14 -1.36,0.88 -2.72,1.75 -4.09,2.62 -1.13,0.71 -2.25,1.41 -3.38,2.11 -1.35,0.83 -2.7,1.66 -4.05,2.47 -1.17,0.71 -2.34,1.4 -3.52,2.1 -1.32,0.78 -2.66,1.55 -3.99,2.32 -1.22,0.7 -2.44,1.39 -3.66,2.08 -1.31,0.72 -2.61,1.45 -3.92,2.16 -1.27,0.7 -2.55,1.39 -3.84,2.07 -1.26,0.67 -2.53,1.34 -3.8,2 -1.34,0.7 -2.69,1.39 -4.04,2.07 -1.22,0.62 -2.44,1.23 -3.67,1.83 -1.42,0.7 -2.83,1.39 -4.26,2.07 -1.17,0.56 -2.34,1.11 -3.52,1.66 -1.49,0.7 -2.99,1.39 -4.49,2.07 -1.11,0.5 -2.23,1 -3.34,1.49 -1.59,0.7 -3.17,1.4 -4.76,2.07 -1.05,0.45 -2.09,0.89 -3.14,1.33 -1.68,0.7 -3.36,1.39 -5.04,2.07 -0.97,0.39 -1.95,0.77 -2.92,1.15 -1.78,0.7 -3.56,1.39 -5.34,2.07 -0.89,0.33 -1.78,0.66 -2.67,0.99 -1.87,0.69 -3.74,1.37 -5.62,2.04 -0.81,0.29 -1.63,0.57 -2.45,0.85 -1.9,0.66 -3.81,1.31 -5.72,1.94 -0.8,0.27 -1.6,0.53 -2.4,0.79 -1.94,0.62 -3.87,1.24 -5.81,1.84 -0.79,0.24 -1.58,0.48 -2.37,0.71 -1.96,0.6 -3.93,1.18 -5.9,1.74 -0.77,0.22 -1.55,0.44 -2.32,0.65 -1.99,0.56 -3.98,1.1 -5.97,1.63 -0.77,0.2 -1.54,0.4 -2.31,0.6 -2,0.51 -4.01,1.02 -6.02,1.51 -0.77,0.18 -1.54,0.36 -2.3,0.54 -2.02,0.48 -4.04,0.95 -6.06,1.39 -0.77,0.17 -1.55,0.34 -2.32,0.5 -2.02,0.44 -4.04,0.86 -6.07,1.27 -0.78,0.15 -1.56,0.3 -2.34,0.45 -2.02,0.4 -4.04,0.78 -6.06,1.14 -0.8,0.14 -1.61,0.28 -2.41,0.42 -2,0.34 -4.01,0.68 -6.01,1 -0.83,0.13 -1.66,0.26 -2.49,0.38 -1.98,0.3 -3.96,0.59 -5.94,0.87 -0.87,0.12 -1.74,0.23 -2.61,0.35 -1.94,0.25 -3.88,0.5 -5.83,0.73 -0.92,0.1 -1.84,0.21 -2.76,0.31 -1.89,0.21 -3.78,0.41 -5.67,0.6 -0.99,0.09 -1.97,0.18 -2.96,0.27 -1.82,0.17 -3.65,0.32 -5.47,0.47 -1.07,0.08 -2.13,0.16 -3.19,0.23 -1.69,0.12 -3.37,0.23 -5.06,0.33 -0.06,0 -0.12,0.01 -0.17,0.01 -1.16,0.07 -2.32,0.13 -3.49,0.19 -1.66,0.08 -3.33,0.16 -5,0.22 -1.24,0.05 -2.48,0.09 -3.72,0.13 -1.38,0.04 -2.77,0.07 -4.15,0.1 -1.52,0.03 -3.05,0.05 -4.58,0.07 -1.05,0.01 -2.11,0.01 -3.17,0.01 -1.85,0.01 -3.7,0 -5.55,-0.02 1.85,0.02 3.7,0.03 5.55,0.02zm-7.92 -0.05c-2.12,-0.03 -4.23,-0.08 -6.35,-0.15 -0.57,-0.01 -1.13,-0.04 -1.7,-0.05 -2.34,-0.09 -4.68,-0.18 -7.01,-0.3 -0.39,-0.02 -0.77,-0.04 -1.16,-0.06 -2.51,-0.14 -5.03,-0.29 -7.54,-0.47 -0.24,-0.02 -0.48,-0.04 -0.71,-0.05 -2.66,-0.2 -5.32,-0.41 -7.97,-0.66 -0.12,-0.01 -0.24,-0.02 -0.36,-0.03 -2.77,-0.26 -5.54,-0.54 -8.31,-0.85 -0.02,0 -0.05,0 -0.07,0 -28.64,-3.2 -57.02,-9.28 -84.66,-18.21 -0.03,-0.01 -0.06,-0.02 -0.09,-0.03 -2.71,-0.88 -5.43,-1.78 -8.13,-2.72 -0.09,-0.03 -0.17,-0.06 -0.26,-0.09 -2.64,-0.91 -5.27,-1.85 -7.9,-2.82 -0.15,-0.06 -0.3,-0.11 -0.46,-0.17 -2.55,-0.95 -5.1,-1.91 -7.63,-2.91 -0.23,-0.09 -0.45,-0.17 -0.67,-0.26 -2.47,-0.97 -4.92,-1.96 -7.37,-2.98 -0.3,-0.12 -0.59,-0.25 -0.89,-0.37 -2.37,-0.99 -4.73,-2 -7.08,-3.04 -0.37,-0.16 -0.74,-0.33 -1.12,-0.49 -2.27,-1 -4.53,-2.03 -6.78,-3.07 -0.45,-0.21 -0.9,-0.43 -1.35,-0.64 -2.17,-1.01 -4.33,-2.04 -6.48,-3.1 -0.53,-0.26 -1.06,-0.52 -1.59,-0.78 -2.07,-1.02 -4.13,-2.06 -6.18,-3.11 -0.61,-0.31 -1.21,-0.63 -1.82,-0.95 -1.96,-1.02 -3.92,-2.05 -5.87,-3.11 -0.68,-0.37 -1.37,-0.74 -2.05,-1.12 -1.86,-1.02 -3.71,-2.05 -5.56,-3.1 -0.76,-0.43 -1.52,-0.87 -2.28,-1.3 -1.76,-1.02 -3.51,-2.04 -5.26,-3.08 -0.83,-0.5 -1.67,-1 -2.5,-1.5 -1.66,-1 -3.31,-2.02 -4.96,-3.05 -0.9,-0.56 -1.81,-1.13 -2.71,-1.7 -1.56,-0.99 -3.12,-1.99 -4.67,-3.01 -0.97,-0.63 -1.94,-1.27 -2.9,-1.91 -0.75,-0.49 -1.5,-0.98 -2.25,-1.48 -21,-14.15 -46.28,-28.58 -46.28,-55.21 0,-12.09 5.68,-19.88 11.41,-25.63 28.4,-28.56 52.61,-5.9 75.75,11.6 29.11,22.02 67.01,37.71 101.3,48.26 17.56,5.39 38.16,9.7 62.7,12.09 22.94,2.23 51.77,1.69 69.78,-0.16 55.16,-5.67 117.62,-27.06 163.06,-59.47zm93.94 -571.63c0.21,-0.05 0.41,-0.09 0.61,-0.13 0.39,-0.09 0.77,-0.17 1.15,-0.24 0.41,-0.09 0.83,-0.16 1.24,-0.23 0.29,-0.05 0.58,-0.1 0.86,-0.14 0.51,-0.08 1.01,-0.15 1.5,-0.2 0.22,-0.03 0.45,-0.05 0.67,-0.07 0.6,-0.07 1.2,-0.11 1.8,-0.15 0.13,0 0.27,-0.01 0.4,-0.02 20.06,-0.94 34.26,13.26 38.99,29.95 0.03,0.11 0.07,0.23 0.1,0.35 1.61,5.84 2.06,11.97 1.19,17.86 -0.01,0.12 -0.03,0.24 -0.05,0.36 -0.02,0.15 -0.05,0.31 -0.08,0.46 -0.05,0.3 -0.1,0.6 -0.16,0.9 -0.06,0.31 -0.12,0.63 -0.19,0.94 -0.06,0.27 -0.12,0.55 -0.19,0.82 -0.07,0.32 -0.16,0.65 -0.24,0.97 -0.08,0.28 -0.16,0.56 -0.24,0.83 -0.09,0.31 -0.19,0.63 -0.29,0.94 -0.09,0.28 -0.18,0.57 -0.28,0.85 -0.11,0.29 -0.22,0.59 -0.33,0.88 -0.11,0.3 -0.22,0.59 -0.34,0.88 -0.12,0.28 -0.24,0.56 -0.36,0.84 -0.13,0.3 -0.27,0.6 -0.41,0.9 -0.1,0.21 -0.21,0.42 -0.31,0.63 -0.18,0.36 -0.37,0.72 -0.56,1.07 -0.09,0.17 -0.18,0.34 -0.28,0.5 -0.22,0.4 -0.45,0.79 -0.69,1.18 -0.09,0.13 -0.17,0.27 -0.26,0.4 -0.27,0.42 -0.55,0.84 -0.84,1.24 -0.07,0.11 -0.14,0.22 -0.22,0.32 -0.63,0.87 -1.3,1.72 -2.02,2.54 -0.04,0.04 -0.08,0.08 -0.12,0.13 -0.4,0.45 -0.81,0.89 -1.23,1.32 -0.06,0.05 -0.11,0.1 -0.16,0.15 -0.42,0.42 -0.85,0.83 -1.29,1.23 -0.07,0.06 -0.13,0.11 -0.19,0.17 -0.44,0.38 -0.89,0.76 -1.35,1.13 -0.08,0.07 -0.16,0.13 -0.24,0.19 -0.44,0.35 -0.89,0.68 -1.35,1.01 -0.12,0.08 -0.23,0.16 -0.34,0.24 -0.37,0.26 -0.74,0.51 -1.12,0.75 -0.22,0.14 -0.45,0.28 -0.68,0.42 -0.37,0.23 -0.75,0.45 -1.13,0.67 -0.25,0.14 -0.51,0.29 -0.77,0.42 -0.37,0.2 -0.74,0.39 -1.12,0.58 -0.26,0.13 -0.53,0.26 -0.79,0.38 -0.39,0.19 -0.78,0.36 -1.18,0.53 -0.28,0.12 -0.57,0.24 -0.85,0.36 -0.38,0.16 -0.77,0.31 -1.16,0.45 -0.33,0.13 -0.66,0.25 -1,0.36 -0.37,0.13 -0.73,0.25 -1.11,0.37 -0.38,0.12 -0.77,0.24 -1.16,0.36 -0.39,0.11 -0.78,0.22 -1.17,0.32 -0.4,0.11 -0.8,0.21 -1.21,0.31 -0.2,0.05 -0.4,0.1 -0.61,0.15 -0.23,0.05 -0.46,0.09 -0.69,0.14 -0.4,0.09 -0.81,0.17 -1.21,0.25 -0.49,0.09 -0.97,0.18 -1.46,0.26 -0.3,0.05 -0.6,0.09 -0.91,0.14 -0.57,0.08 -1.14,0.16 -1.71,0.22 -0.16,0.02 -0.32,0.04 -0.48,0.06 -0.71,0.07 -1.41,0.13 -2.1,0.18 -0.07,0 -0.15,0.01 -0.22,0.01 -12.64,0.75 -22.47,-3.65 -29.27,-10.71l0 0c-0.44,-0.46 -0.87,-0.93 -1.28,-1.42l-0.01 -0.01c-0.75,-0.87 -1.46,-1.77 -2.13,-2.7l-0.02 -0.03c-1.39,-1.97 -2.61,-4.07 -3.62,-6.27 -0.05,-0.1 -0.09,-0.19 -0.13,-0.28 -0.2,-0.43 -0.38,-0.86 -0.56,-1.3 -0.08,-0.18 -0.15,-0.36 -0.22,-0.54 -0.15,-0.36 -0.28,-0.72 -0.42,-1.09 -0.08,-0.23 -0.17,-0.47 -0.25,-0.71 -0.12,-0.34 -0.23,-0.68 -0.34,-1.02 -0.08,-0.24 -0.15,-0.48 -0.22,-0.72 -0.12,-0.4 -0.23,-0.8 -0.34,-1.21 -0.03,-0.11 -0.06,-0.23 -0.09,-0.34 -1.84,-7.13 -1.91,-14.8 -0.09,-22 0.04,-0.12 0.07,-0.25 0.1,-0.38 0.1,-0.38 0.2,-0.76 0.31,-1.13 0.08,-0.27 0.16,-0.54 0.25,-0.81 0.1,-0.31 0.2,-0.62 0.3,-0.93 0.1,-0.27 0.19,-0.54 0.29,-0.81 0.1,-0.27 0.2,-0.54 0.3,-0.81 0.13,-0.32 0.26,-0.64 0.39,-0.97 0.11,-0.26 0.23,-0.52 0.34,-0.79 0.15,-0.32 0.3,-0.65 0.45,-0.97 0.11,-0.24 0.23,-0.47 0.35,-0.71 0.17,-0.34 0.35,-0.68 0.53,-1.02 0.1,-0.19 0.2,-0.37 0.3,-0.55 0.2,-0.35 0.4,-0.7 0.6,-1.04 0.13,-0.21 0.26,-0.42 0.39,-0.63 0.2,-0.32 0.41,-0.63 0.62,-0.95 0.14,-0.21 0.29,-0.43 0.44,-0.65 0.22,-0.31 0.44,-0.62 0.67,-0.92 0.14,-0.19 0.29,-0.38 0.44,-0.57 0.25,-0.32 0.5,-0.64 0.76,-0.95 0.14,-0.17 0.28,-0.34 0.43,-0.51 0.25,-0.29 0.51,-0.58 0.77,-0.86 0.19,-0.2 0.37,-0.4 0.56,-0.6 0.26,-0.27 0.53,-0.53 0.8,-0.8 0.19,-0.19 0.39,-0.38 0.59,-0.56 0.28,-0.27 0.58,-0.54 0.87,-0.8 0.17,-0.14 0.34,-0.29 0.51,-0.43 0.31,-0.27 0.63,-0.52 0.95,-0.78 0.21,-0.17 0.43,-0.33 0.65,-0.5 0.3,-0.23 0.62,-0.45 0.93,-0.68 0.24,-0.17 0.49,-0.33 0.73,-0.5 0.33,-0.22 0.65,-0.43 0.99,-0.64 0.23,-0.15 0.47,-0.29 0.71,-0.43 0.35,-0.21 0.71,-0.42 1.07,-0.62 0.23,-0.12 0.45,-0.25 0.68,-0.36 0.36,-0.19 0.73,-0.38 1.1,-0.56 0.28,-0.14 0.56,-0.27 0.85,-0.4 0.36,-0.17 0.73,-0.33 1.1,-0.49 0.3,-0.12 0.6,-0.25 0.91,-0.37 0.38,-0.15 0.77,-0.3 1.16,-0.44 0.29,-0.1 0.57,-0.2 0.86,-0.3 0.37,-0.12 0.75,-0.24 1.13,-0.36 0.34,-0.1 0.68,-0.21 1.02,-0.3 0.38,-0.11 0.76,-0.21 1.15,-0.31 0.19,-0.05 0.38,-0.1 0.58,-0.15zm449.32 276.53c0,-53.01 -6.01,-100.31 -16.67,-150.91 -0.15,-0.71 -0.3,-1.36 -0.45,-2.07l-0.9 -4.22c-2.25,-10.42 -4.67,-17.94 -7.35,-28.44l-52.37 -138.54c-28.15,-54.31 -62.66,-111.37 -104.72,-155.83l-20.79 -22.69c-0.64,-0.71 -3.03,-3.16 -3.54,-3.66l-54.9 -51.77c-15.05,-14.71 -30.64,-24.04 -48.42,-38.06 -9.82,-7.75 -28.9,-19.7 -41.18,-27.24 -34.13,-20.93 -69.42,-39.16 -105.75,-54.49 36.33,15.34 71.61,33.57 105.74,54.5 6.13,3.76 13.99,8.65 21.51,13.54 7.53,4.89 14.77,9.83 19.67,13.7 6.2,4.88 12.16,9.23 17.89,13.4 10.7,7.78 20.74,15.1 30.53,24.66l54.9 51.77 2.01 2.05 1.53 1.61 20.79 22.69c21.02,22.22 40.18,47.62 57.58,74.22 17.41,26.64 33.09,54.48 47.14,81.6l52.37 138.54c0.97,3.84 1.94,7.3 2.84,10.63 1.58,5.76 3.09,11.22 4.51,17.81l0.9 4.22 0.45 2.07c5.32,25.29 9.51,49.78 12.33,74.55 2.83,24.77 4.34,49.85 4.34,76.36 0,14.72 -0.31,29.63 -1.01,44.39 -0.7,14.77 -1.83,29.44 -3.45,43.64 -2.88,25.3 -7.26,50.69 -12.67,75.81 -5.42,25.12 -11.94,50.04 -19.1,74.38l-25.35 65.63c-8.47,20 -20.23,45.77 -33.34,69.9 -9.79,18.01 -20.38,35.17 -30.92,48.34 -1.81,2.26 -3.05,3.65 -4.06,4.78 -1.81,2.03 -3,3.36 -5.75,7.81 -1.69,2.73 -2.82,4.62 -3.7,6.11 -1.65,2.77 -2.57,4.3 -5.02,7.78 -14.88,21.11 -37.06,45.3 -56.04,66.02l-7.01 7.66 -45.97 44.9 -0.32 0.28c-2.39,2.05 -2.53,2.17 -5.62,4.17 -9.89,6.42 -18.67,13.83 -27.42,21.21 -9.86,8.32 -19.75,16.66 -31.24,23.62l-100.92 58.32 0 0c-16.94,8.21 -34.46,15.69 -51.71,23.03l-11.26 4.81c-18.5,7.93 -43.05,15.78 -68.33,22.35 -26.7,6.94 -54.28,12.52 -76.51,15.34 -44.42,5.65 -90.55,5.04 -136.12,4.44 -15.12,-0.19 -30.21,-0.39 -45.13,-0.37 -5.56,0.01 -11.28,-0.12 -16.85,-0.4 -5.22,-0.26 -10.36,-0.69 -15.16,-1.25 -22.6,-2.67 -45.61,-6.94 -68.35,-12.32 -24.85,-5.87 -49.45,-13.13 -72.97,-21.14l-85.05 -34.96c-9.5,-4.58 -19.01,-9.22 -28.41,-14.23 -9.37,-5.01 -18.71,-10.45 -27.91,-16.71l-99.55 -71.13 -87.1 -87.97c-18.47,-19.12 -37.68,-45.42 -55.23,-73.17 -21.24,-33.57 -40.14,-69.32 -52.56,-97.17 -19.51,-43.78 -35.4,-90.2 -46.74,-138.53 11.34,48.33 27.21,94.75 46.73,138.53 22.73,50.95 66.96,128.1 107.79,170.35l87.1 87.97 99.55 71.13c18.36,12.49 37.32,21.75 56.33,30.94l85.05 34.96c45.07,15.36 94.01,27.86 141.32,33.46 9.94,1.18 21.23,1.68 32.01,1.65 59.92,-0.12 122.08,3.47 181.25,-4.07 43.32,-5.51 106.8,-21.37 144.84,-37.69 20.85,-8.94 42.32,-17.82 62.98,-27.84l100.92 -58.32c21.72,-13.15 37.61,-31.15 58.66,-44.83 3.23,-2.1 3.22,-2.12 5.94,-4.45l45.97 -44.9c20.3,-22.24 46.28,-49.9 63.05,-73.68 3.78,-5.37 3.87,-6.04 8.72,-13.89 4.3,-6.95 4.74,-6.25 9.81,-12.59 24.65,-30.78 49.45,-83.29 64.26,-118.25l25.35 -65.63c14.34,-48.71 25.99,-99.57 31.77,-150.19 3.25,-28.43 4.46,-58.6 4.46,-88.03zm-457.9 -678.28c-2.47,-1.03 -4.94,-2.06 -7.41,-3.07 2.47,1.01 4.94,2.04 7.41,3.07zm-8.9 -3.67c-2.26,-0.92 -4.53,-1.83 -6.81,-2.73 2.28,0.9 4.55,1.81 6.81,2.73zm-8.67 -3.46c-2.15,-0.84 -4.31,-1.67 -6.47,-2.49 2.16,0.82 4.32,1.65 6.47,2.49zm-8.59 -3.3c-2.08,-0.78 -4.16,-1.55 -6.24,-2.32 2.08,0.77 4.16,1.54 6.24,2.32zm-8.56 -3.16c-2.02,-0.74 -4.05,-1.46 -6.07,-2.18 2.02,0.72 4.05,1.44 6.07,2.18zm-8.55 -3.05c-1.98,-0.69 -3.97,-1.37 -5.95,-2.04 1.98,0.67 3.97,1.35 5.95,2.04zm-8.56 -2.92c-1.95,-0.66 -3.9,-1.3 -5.85,-1.94 1.95,0.64 3.9,1.28 5.85,1.94zm-8.56 -2.81c-1.93,-0.63 -3.86,-1.24 -5.79,-1.84 1.93,0.6 3.86,1.21 5.79,1.84zm-8.58 -2.71c-1.91,-0.59 -3.83,-1.17 -5.76,-1.74 1.93,0.57 3.85,1.15 5.76,1.74zm-8.59 -2.58c-1.91,-0.57 -3.83,-1.12 -5.75,-1.67 1.92,0.55 3.84,1.1 5.75,1.67zm-8.61 -2.48c-1.93,-0.54 -3.86,-1.08 -5.79,-1.6 1.93,0.52 3.86,1.06 5.79,1.6zm-8.63 -2.37c-1.95,-0.53 -3.91,-1.04 -5.87,-1.55 1.96,0.51 3.92,1.02 5.87,1.55zm-8.65 -2.26c-2.01,-0.51 -4.02,-1.01 -6.04,-1.51 2.02,0.5 4.03,1 6.04,1.51zm-8.67 -2.15c-2.11,-0.51 -4.22,-1.01 -6.34,-1.5 2.12,0.49 4.23,0.99 6.34,1.5zm-8.69 -2.04c-2.29,-0.52 -4.59,-1.03 -6.89,-1.53 2.3,0.5 4.6,1.01 6.89,1.53zm-8.71 -1.93c-2.68,-0.57 -5.36,-1.13 -8.05,-1.68 2.69,0.55 5.37,1.11 8.05,1.68zm-8.72 -1.82c-24.2,-4.89 -48.77,-8.55 -73.68,-10.92 -0.01,0 -0.03,0 -0.04,0 -2.98,-0.28 -5.96,-0.55 -8.95,-0.79 -0.03,-0.01 -0.06,-0.01 -0.09,-0.01 -2.98,-0.25 -5.96,-0.47 -8.95,-0.68 -0.03,0 -0.07,-0.01 -0.1,-0.01 -2.99,-0.21 -5.99,-0.4 -8.99,-0.57 -0.03,0 -0.06,0 -0.08,0 -3.02,-0.17 -6.04,-0.33 -9.07,-0.46 -0.01,0 -0.02,0 -0.02,0 -9.1,-0.4 -18.23,-0.63 -27.41,-0.69 -0.1,0 -0.2,0 -0.31,0 -2.94,-0.02 -5.88,-0.02 -8.83,0 -0.18,0 -0.36,0.01 -0.54,0.01 -2.88,0.02 -5.76,0.05 -8.64,0.11 -0.24,0 -0.48,0.01 -0.71,0.01 -2.84,0.06 -5.67,0.13 -8.51,0.22 -0.28,0.01 -0.55,0.02 -0.83,0.02 -2.81,0.1 -5.62,0.2 -8.43,0.32 -0.3,0.02 -0.6,0.03 -0.9,0.04 -2.8,0.13 -5.6,0.27 -8.41,0.43 -0.3,0.02 -0.61,0.03 -0.91,0.05 -2.81,0.16 -5.62,0.34 -8.43,0.53 -0.3,0.02 -0.6,0.04 -0.89,0.07 -2.84,0.19 -5.67,0.41 -8.51,0.64 -0.28,0.02 -0.55,0.04 -0.82,0.07 -2.87,0.23 -5.75,0.48 -8.63,0.75 -0.23,0.03 -0.47,0.05 -0.71,0.07 -2.93,0.28 -5.85,0.57 -8.78,0.89 -0.19,0.02 -0.38,0.04 -0.57,0.06 -2.99,0.32 -5.99,0.65 -8.99,1.01 -0.12,0.02 -0.25,0.03 -0.38,0.05 -3.07,0.36 -6.15,0.75 -9.23,1.16 -0.05,0 -0.1,0.01 -0.14,0.01 -11.41,1.51 -22.87,3.29 -34.38,5.33 85.85,-15.17 168.76,-15.46 247.91,-2.62 9.03,1.46 18.02,3.1 26.95,4.9zm-274.88 -2.28c-2.93,0.52 -5.85,1.05 -8.79,1.6 2.94,-0.55 5.86,-1.08 8.79,-1.6zm-9.68 1.77c-2.69,0.51 -5.39,1.04 -8.09,1.58 2.7,-0.54 5.4,-1.07 8.09,-1.58zm-9.74 1.91c-2.49,0.5 -4.98,1.02 -7.47,1.54 2.49,-0.52 4.98,-1.04 7.47,-1.54zm-9.81 2.04c-2.29,0.49 -4.58,1 -6.87,1.51 2.29,-0.51 4.58,-1.02 6.87,-1.51zm-9.9 2.19c-1.08,0.24 -2.16,0.48 -3.24,0.73 -34.06,7.89 -76.8,21.32 -105.45,33.59 -63.83,27.32 -122.16,58.34 -176.33,101.68 -13.29,10.63 -21.62,17.15 -37.17,31.01 -12.34,11.01 -24.25,19.96 -36.25,32.12 -6.45,6.54 -10.93,11.47 -16.69,18.77 -5.7,7.2 -8.86,9.89 -16.39,18.87 -13.6,16.2 -18.77,22.14 -30.78,37.55 -20.28,26.02 -40.25,57.17 -55.15,84.39 -36,65.79 -60.63,126.76 -77.54,199.89 -0.27,1.15 -0.52,2.3 -0.78,3.45 0.26,-1.15 0.52,-2.3 0.79,-3.45 8.44,-36.56 18.85,-70.1 31.61,-102.7 12.76,-32.6 27.94,-64.31 45.93,-97.19 7.65,-13.99 16.69,-29.08 26.44,-43.99 9.13,-13.97 18.9,-27.8 28.71,-40.39 10.17,-13.05 15.45,-19.33 25.09,-30.79l5.69 -6.76c3.48,-4.15 6.04,-6.98 8.33,-9.5 2.66,-2.93 5.01,-5.51 8.06,-9.37 2.87,-3.64 5.45,-6.72 8.09,-9.67 2.63,-2.95 5.38,-5.84 8.6,-9.1 7.77,-7.88 15.54,-14.44 23.38,-21.05 4.24,-3.58 8.55,-7.21 12.87,-11.07 14.21,-12.66 22.41,-19.22 33.85,-28.36l3.32 -2.65c27.09,-21.68 55.24,-40.28 84.53,-56.85 29.32,-16.58 59.88,-31.18 91.79,-44.83 14.1,-6.03 31.64,-12.38 49.86,-18.17 18.77,-5.97 38.31,-11.43 55.59,-15.42 1.08,-0.25 2.16,-0.5 3.24,-0.74zm-555.92 562.73c-7.37,32.75 -12.33,65.36 -15.05,97.64 0,0.05 -0.01,0.09 -0.01,0.14 -0.21,2.51 -0.41,5.02 -0.59,7.52 -0.01,0.13 -0.02,0.27 -0.03,0.4 -0.18,2.43 -0.34,4.85 -0.5,7.27 -0.01,0.19 -0.02,0.37 -0.03,0.55 -0.15,2.38 -0.28,4.76 -0.41,7.14 -0.01,0.2 -0.02,0.4 -0.03,0.6 -0.12,2.37 -0.23,4.74 -0.33,7.11 -0.01,0.19 -0.01,0.38 -0.02,0.57 -0.1,2.39 -0.19,4.78 -0.26,7.17 0,0.15 -0.01,0.31 -0.01,0.46 -0.08,2.44 -0.14,4.88 -0.19,7.32 0,0.09 0,0.18 0,0.27 -0.57,29.41 0.66,58.48 3.52,87.09 -7.46,-74.67 -3.77,-152.53 13.94,-231.25zm-13.78 232.9c0.16,1.58 0.33,3.16 0.5,4.74 -0.17,-1.58 -0.34,-3.16 -0.5,-4.74zm0.84 7.77c0.13,1.15 0.26,2.29 0.4,3.44 -0.14,-1.15 -0.27,-2.29 -0.4,-3.44zm0.91 7.69c0.13,1.07 0.26,2.14 0.4,3.21 -0.14,-1.07 -0.27,-2.14 -0.4,-3.21zm0.98 7.61c0.13,1.02 0.27,2.04 0.41,3.05 -0.14,-1.01 -0.28,-2.03 -0.41,-3.05zm1.01 7.26c0.15,1.08 0.31,2.15 0.47,3.23 -0.16,-1.08 -0.32,-2.15 -0.47,-3.23zm1.04 7.02c0.19,1.21 0.38,2.43 0.57,3.64 -0.19,-1.21 -0.38,-2.43 -0.57,-3.64zm1.14 7.16c0.21,1.31 0.43,2.61 0.65,3.91 -0.22,-1.3 -0.44,-2.6 -0.65,-3.91zm1.22 7.22c0.24,1.38 0.48,2.75 0.73,4.12 -0.25,-1.37 -0.49,-2.74 -0.73,-4.12zm1.29 7.24c0.27,1.44 0.53,2.87 0.81,4.3 -0.28,-1.43 -0.54,-2.86 -0.81,-4.3zm1.37 7.25c0.29,1.5 0.59,2.99 0.89,4.49 -0.3,-1.5 -0.6,-2.99 -0.89,-4.49zm1.44 7.24c0.32,1.58 0.65,3.16 0.99,4.74 -0.34,-1.58 -0.67,-3.16 -0.99,-4.74zm1.51 7.22c0.37,1.72 0.74,3.43 1.12,5.14 -0.38,-1.71 -0.75,-3.42 -1.12,-5.14zm1.59 7.22c0.45,2.01 0.91,4.01 1.37,6.01 -0.46,-2 -0.92,-4 -1.37,-6.01zm717.18 268.17c0.79,0.01 1.58,0.03 2.37,0.03zm296.64 -712.91c18.12,-4.33 32.46,3.24 40.81,15.16 3.23,4.62 5.59,9.94 6.91,15.45 1.31,5.5 1.6,11.25 0.76,16.74 -2.12,13.66 -11.37,25.96 -29.64,30.1 -19.34,4.38 -33.36,-2.32 -41.34,-13.37 -3.23,-4.48 -5.51,-9.72 -6.71,-15.2 -1.21,-5.47 -1.39,-11.25 -0.5,-16.82 2.33,-14.5 11.99,-27.83 29.71,-32.06z"/>
     </g>
     <g>
      <path class="fil2" d="M2857.03 2428.44l0 -1361.11c-12.2,-20.16 -8.59,-26.24 -27.68,-38.1 -15.2,-9.45 -34.5,-12.78 -53.8,-6.15 -82.13,28.19 -95.39,219.3 -98.99,284.96 -5.66,103.32 -0.99,270.55 -1.12,385.49 -0.06,48.72 -4.57,76.31 18.41,107.59 24.88,33.86 35.54,36.59 29.4,95.29 -16.09,154.03 -27.3,314.83 -43.7,469.08 -4.8,45.18 -7.98,73.46 15.58,102.71 6.29,7.8 22.7,25.13 38.27,27.66 7.88,1.29 62.58,4.31 77.41,-4.22 3.98,-2.28 2.78,-1.79 4.65,-3.18l24.85 -22.92c2.4,-3.43 8.66,-11.89 12.68,-25.2 1.44,-4.76 1.38,-6.9 4.04,-11.9z"/>
      <path id="1" class="fil1" d="M2857.02 2428.44l0 -1361.1c-3.87,-6.38 -6.17,-11.41 -8.09,-15.63 -4.1,-8.98 -6.58,-14.39 -19.59,-22.47 -7.85,-4.87 -16.82,-8.14 -26.28,-9.22 -8.85,-1 -18.2,-0.12 -27.51,3.07 -0.19,0.06 -0.37,0.13 -0.55,0.2 0.18,-0.07 0.36,-0.15 0.55,-0.21 19.3,-6.63 38.6,-3.3 53.8,6.15 19.09,11.86 15.48,17.94 27.68,38.1l0 1361.11c-2.66,5 -2.6,7.14 -4.04,11.9 -4.02,13.31 -10.28,21.77 -12.68,25.2l-24.85 22.92c-1.87,1.39 -0.67,0.9 -4.65,3.18 -14.83,8.53 -69.53,5.51 -77.41,4.22 -15.57,-2.53 -31.98,-19.86 -38.27,-27.66 -23.56,-29.25 -20.38,-57.53 -15.58,-102.71 16.4,-154.25 27.61,-315.05 43.7,-469.08 6.14,-58.7 -4.52,-61.43 -29.4,-95.29 -22.98,-31.28 -18.47,-58.87 -18.41,-107.59 0.13,-114.94 -4.54,-282.17 1.12,-385.49 2.28,-41.53 8.42,-133.25 33.42,-202.18 -5.24,14.44 -9.64,29.88 -13.36,45.65 -14.02,59.5 -18.26,123.71 -20.05,156.53 -3.92,71.7 -2.87,174.22 -1.92,268.64 0.42,41.62 0.83,81.7 0.8,116.85 0,7.2 -0.13,13.96 -0.22,20.32 -0.56,36.62 -0.94,60.62 18.63,87.26 3.52,4.79 6.78,8.98 9.71,12.77 17.85,22.99 24.96,32.15 19.69,82.53 -7.83,75.01 -14.53,151.66 -21.2,228.34 -7.03,80.76 -14.1,161.63 -22.5,240.74l-0.09 0.88c-4.74,44.65 -7.73,72.77 15.67,101.82 3.77,4.67 11.21,12.81 19.9,19.09 5.78,4.17 12.16,7.57 18.36,8.57 4.94,0.8 28.36,2.29 48.75,1.19 12.09,-0.65 23.15,-2.25 28.66,-5.41 2.68,-1.54 3.01,-1.82 3.53,-2.28 0.23,-0.2 0.53,-0.47 1.11,-0.9l24.85 -22.92 0.41 -0.59c2.64,-3.74 8.47,-12.01 12.27,-24.6 0.42,-1.4 0.73,-2.6 1,-3.69 0.63,-2.58 1.18,-4.7 3.04,-8.21zm-84.75 -1404.12c-0.34,0.14 -0.68,0.28 -1.02,0.43 0.34,-0.15 0.68,-0.29 1.02,-0.43zm-3.74 1.66c-0.32,0.15 -0.63,0.3 -0.95,0.46 0.32,-0.16 0.63,-0.31 0.95,-0.46zm-3.62 1.87c-0.31,0.17 -0.61,0.34 -0.92,0.51 0.31,-0.17 0.61,-0.34 0.92,-0.51zm-3.52 2.08c-0.3,0.19 -0.6,0.39 -0.9,0.58 0.3,-0.19 0.6,-0.39 0.9,-0.58zm-3.4 2.29c-0.31,0.22 -0.61,0.44 -0.92,0.67 0.31,-0.23 0.61,-0.45 0.92,-0.67zm-3.3 2.49c-0.32,0.25 -0.64,0.5 -0.95,0.76 0.31,-0.26 0.63,-0.51 0.95,-0.76zm-3.2 2.67c-0.33,0.29 -0.67,0.59 -1,0.89 0.33,-0.3 0.67,-0.6 1,-0.89zm-3.11 2.86c-0.35,0.34 -0.7,0.68 -1.05,1.03 0.35,-0.35 0.7,-0.69 1.05,-1.03zm-3.01 3.03c-0.37,0.4 -0.74,0.79 -1.11,1.2 0.37,-0.41 0.74,-0.8 1.11,-1.2zm-2.92 3.21c-0.39,0.45 -0.79,0.91 -1.18,1.37 0.39,-0.46 0.79,-0.92 1.18,-1.37zm-2.83 3.37c-0.42,0.51 -0.83,1.04 -1.25,1.56 0.42,-0.52 0.83,-1.05 1.25,-1.56zm-2.75 3.52c-0.44,0.59 -0.87,1.18 -1.31,1.78 0.44,-0.6 0.87,-1.19 1.31,-1.78zm-2.66 3.68c-0.46,0.66 -0.92,1.33 -1.37,2 0.45,-0.67 0.91,-1.34 1.37,-2zm-2.58 3.83c-0.48,0.74 -0.96,1.48 -1.43,2.24 0.47,-0.76 0.95,-1.5 1.43,-2.24zm-2.51 3.97c-0.5,0.82 -0.99,1.64 -1.48,2.48 0.49,-0.84 0.98,-1.66 1.48,-2.48zm-2.42 4.1c-0.52,0.91 -1.03,1.82 -1.53,2.74 0.5,-0.92 1.01,-1.83 1.53,-2.74zm-2.35 4.24c-0.53,0.98 -1.05,1.98 -1.57,2.99 0.52,-1.01 1.04,-2.01 1.57,-2.99zm-2.27 4.35c-0.54,1.08 -1.08,2.17 -1.61,3.26 0.53,-1.09 1.07,-2.18 1.61,-3.26zm-2.2 4.47c-0.55,1.17 -1.1,2.35 -1.65,3.54 0.55,-1.19 1.1,-2.37 1.65,-3.54zm-2.12 4.59c-0.57,1.26 -1.13,2.53 -1.68,3.81 0.55,-1.28 1.11,-2.55 1.68,-3.81zm-2.05 4.68c-0.58,1.36 -1.15,2.73 -1.71,4.11 0.56,-1.38 1.13,-2.75 1.71,-4.11zm-1.98 4.78c-0.59,1.46 -1.17,2.93 -1.74,4.42 0.57,-1.49 1.15,-2.96 1.74,-4.42zm-1.91 4.86c-0.6,1.57 -1.19,3.15 -1.77,4.74 0.58,-1.59 1.17,-3.17 1.77,-4.74z"/>
     </g>
     <g>
      <path class="fil2" d="M581.83 1477.59l0 32.46c2.94,6.82 5.84,25.65 9.24,35.24 8.91,25.13 36.24,64.65 51.95,90.3 31.37,51.22 45.91,64.54 40.09,141.34 -4.46,58.93 -7.71,118 -11.04,177.04l-26.56 440.79c-2.52,43.14 13.1,75.47 45.44,93.41 16.14,8.96 63.42,13.44 82.44,3.29 21.55,-11.5 35.41,-24.34 45.56,-47.49 5.86,-13.35 7.81,-23.04 6.7,-42.21 -1.73,-29.63 -3.72,-58.43 -5.5,-89.33l-32.02 -530.23c-2.41,-42.92 -2.94,-60.15 10.07,-94.69 8.49,-22.54 54.57,-87.61 73.97,-123.21l11.73 -31.41c11.46,-48.38 -2.46,-115.38 -6.3,-173.06l-25.23 -280.43c-2.7,-26.1 2.16,-76.36 -29.88,-55.54 -4.79,6.94 0.19,208.08 0.48,232.56l0.93 174.21c0.07,18.44 -1.53,40.68 -25.08,31.51 -14.98,-5.83 -11.71,-24.46 -11.83,-46.26l-5.93 -379.74c-0.13,-9.94 -0.42,-16.6 -11.75,-17.71 -20.7,-2.02 -15.87,26.84 -15.82,43.14l0.14 351.76c-0.19,18.14 4.6,44.39 -11.06,49.35 -35.37,11.21 -25.63,-49.63 -25.63,-87.67 0,-49.99 3.12,-346.79 -2.07,-352.99 -33.74,-18.31 -25.1,35.85 -25.6,62.28l-6.46 363.74c-2.22,12.79 -15.76,20.3 -27.87,13.23 -12.33,-7.2 -8.48,-27.8 -8.35,-40.78l3 -369.1c0.11,-16.13 4.16,-32.47 -11.82,-33.15 -17.33,-0.74 -15.29,18.88 -16.49,31.94l-39.45 427.41z"/>
      <path id="1" class="fil1" d="M581.84 1477.59l0 32.46c1.5,3.5 3.03,10.23 4.59,17.2 1.46,6.56 3.01,13.4 4.65,18.04 6.83,19.28 24.6,47.15 39.57,70.64 4.49,7.05 8.76,13.73 12.38,19.65 3.22,5.27 6.3,10.17 9.16,14.74 24.98,39.89 36.15,57.73 30.93,126.61 -4.17,55.22 -7.31,110.58 -10.41,165.91l-0.63 11.13 -26.56 440.79c-1.25,21.58 2.03,40.49 9.67,56.21 7.63,15.68 19.63,28.24 35.76,37.19 8.6,4.77 26.08,8.29 43.38,8.97 15.14,0.6 30.19,-0.95 39.06,-5.68 10.75,-5.74 19.62,-11.82 27.04,-19.38 7.43,-7.54 13.44,-16.54 18.51,-28.1 2.92,-6.66 4.89,-12.44 5.96,-18.92 1.07,-6.48 1.28,-13.71 0.74,-23.29 -0.81,-14.12 -1.72,-28.07 -2.6,-42.13 -0.97,-15.43 -1.98,-31.04 -2.9,-47.2l-32.02 -530.23c-1.2,-21.45 -1.93,-36.51 -0.75,-50.49 1.18,-13.98 4.32,-26.94 10.82,-44.2 4.84,-12.86 21.91,-39.55 39.27,-66.7 13.1,-20.48 26.4,-41.28 34.7,-56.51l11.73 -31.41c8.25,-34.84 3.33,-79.38 -1.49,-123.11 -1.87,-16.96 -3.75,-33.83 -4.81,-49.95l-25.23 -280.43c-0.47,-4.62 -0.73,-10.03 -0.97,-15.64 -0.66,-14.81 -1.41,-31.23 -6.76,-39.46 -4.05,-6.25 -10.77,-7.81 -22.13,-0.43 -3.98,5.78 -1.19,146.53 0.01,207.36l0.12 6.68c-1.11,-56.45 -4.29,-208.04 -0.14,-214.05 32.04,-20.82 27.18,29.44 29.88,55.54l25.23 280.43c3.84,57.68 17.76,124.68 6.3,173.06l-11.73 31.41c-19.4,35.6 -65.48,100.67 -73.97,123.21 -13.01,34.54 -12.48,51.77 -10.07,94.69l32.02 530.23c1.78,30.9 3.77,59.7 5.5,89.33 0.19,3.24 0.29,6.21 0.3,8.97 0,0.16 0,0.31 0,0.46l0 0.09c-0.01,2.72 -0.1,5.25 -0.29,7.63 -0.01,0.12 -0.02,0.25 -0.03,0.37 0,0.04 -0.01,0.08 -0.01,0.12 -0.77,8.99 -2.92,16.03 -6.67,24.57 -10.15,23.15 -24.01,35.99 -45.56,47.49 -19.02,10.15 -66.3,5.67 -82.44,-3.29 -32.34,-17.94 -47.96,-50.27 -45.44,-93.41l26.56 -440.79c3.33,-59.04 6.58,-118.11 11.04,-177.04 5.82,-76.8 -8.72,-90.12 -40.09,-141.34 -15.71,-25.65 -43.04,-65.17 -51.95,-90.3 -3.4,-9.59 -6.3,-28.42 -9.24,-35.24l0 -32.46 39.45 -427.41c1.2,-13.06 -0.84,-32.68 16.49,-31.94 15.98,0.68 11.93,17.02 11.82,33.15l-3 369.1c-0.13,12.98 -3.98,33.58 8.35,40.78 12.11,7.07 25.65,-0.44 27.87,-13.23l6.46 -363.74c0.38,-20.23 -4.59,-56.71 8.19,-64.5 0.01,0 0.01,0 0.02,-0.01 0.25,-0.15 0.51,-0.29 0.78,-0.42 0.01,-0.01 0.02,-0.01 0.03,-0.02 0.27,-0.13 0.54,-0.25 0.82,-0.35 0.01,-0.01 0.02,-0.01 0.03,-0.01 0.29,-0.11 0.58,-0.2 0.88,-0.29 0,0 0,0 0.01,0 1.36,-0.37 2.88,-0.47 4.56,-0.29 -5.5,-0.58 -9.17,1.93 -11.58,6.36 -5.18,9.55 -4.55,28.1 -4.02,44.1 0.19,5.61 0.37,10.94 0.29,15.43l-6.46 363.74c-0.43,2.46 -1.28,4.73 -2.43,6.71 -1.9,3.26 -4.7,5.86 -7.98,7.45 -3.26,1.59 -7.03,2.2 -10.86,1.54 -2.2,-0.38 -4.45,-1.19 -6.62,-2.46 -10.15,-5.92 -9.33,-20.97 -8.66,-33.34 0.14,-2.63 0.3,-5.17 0.31,-7.45l3 -369.1c0.01,-2.72 0.16,-5.48 0.28,-8.14 0.62,-13.06 1.16,-24.45 -12.09,-25 -14.73,-0.62 -15.47,13.49 -16.08,25.74 -0.1,2.14 -0.23,4.25 -0.4,6.19l-39.45 427.41zm241.1 -223.42l0.04 2.25 0.93 174.21c0.01,3.74 -0.05,7.63 -0.34,11.39 0.29,-3.75 0.34,-7.65 0.33,-11.39l-0.93 -174.21c-0.01,-0.63 -0.02,-1.4 -0.03,-2.25zm0.62 187.89c-0.02,0.27 -0.04,0.54 -0.06,0.8 0.02,-0.26 0.04,-0.53 0.06,-0.8zm-0.07 0.89c-0.02,0.26 -0.05,0.52 -0.07,0.78 0.02,-0.26 0.05,-0.52 0.07,-0.78zm-0.08 0.85c-0.49,4.85 -1.42,9.38 -3.18,12.94 -1.77,3.57 -4.39,6.16 -8.21,7.12 7.63,-1.92 10.42,-10.36 11.39,-20.06zm-11.39 20.06c-3.37,0.85 -7.69,0.43 -13.2,-1.71 -12.58,-4.89 -12.29,-18.81 -11.96,-36.03 0.06,-3.29 0.13,-6.74 0.12,-10.24l-5.93 -379.74c-0.06,-4.96 -0.18,-9.13 -1.68,-12.17 -1.49,-3.03 -4.41,-4.99 -10.06,-5.53 -11.31,-1.1 -15.01,7.04 -16.01,17.31 -0.54,5.68 -0.27,12.04 -0.04,17.82 0.11,2.84 0.24,5.58 0.24,8l0.14 351.76c-0.03,3.47 0.12,7.28 0.26,11.14 0.24,6.2 0.49,12.64 0,18.45 0.78,-9.44 -0.36,-20.53 -0.27,-29.59l-0.14 -351.76c-0.05,-16.3 -4.88,-45.16 15.82,-43.14 11.33,1.11 11.62,7.77 11.75,17.71l5.93 379.74c0.12,21.8 -3.15,40.43 11.83,46.26 5.52,2.15 9.83,2.57 13.2,1.72zm-58.12 -20.88c-0.02,0.25 -0.05,0.5 -0.07,0.75 0.02,-0.25 0.05,-0.5 0.07,-0.75zm-0.09 0.92c-0.02,0.22 -0.04,0.44 -0.06,0.66 0.02,-0.22 0.04,-0.44 0.06,-0.66zm-0.08 0.84c-0.03,0.26 -0.06,0.51 -0.1,0.77 0.04,-0.26 0.07,-0.51 0.1,-0.77zm-0.14 1.07c-0.02,0.15 -0.04,0.3 -0.06,0.45 0.02,-0.15 0.04,-0.3 0.06,-0.45zm-0.12 0.85c-0.02,0.12 -0.03,0.23 -0.05,0.34 0.02,-0.11 0.03,-0.22 0.05,-0.34zm-0.12 0.77c-0.02,0.1 -0.04,0.19 -0.05,0.29 0.01,-0.1 0.03,-0.19 0.05,-0.29zm-0.14 0.75c0,0.03 -0.01,0.07 -0.02,0.1 0.01,-0.03 0.02,-0.07 0.02,-0.1zm-0.24 1.15c-0.01,0.06 -0.02,0.13 -0.03,0.18 0.01,-0.05 0.02,-0.12 0.03,-0.18zm-0.14 0.65c-0.02,0.08 -0.04,0.16 -0.06,0.23 0.02,-0.07 0.04,-0.15 0.06,-0.23zm-0.18 0.68c-0.02,0.08 -0.04,0.16 -0.06,0.24 0.02,-0.08 0.04,-0.16 0.06,-0.24zm-0.18 0.67c-0.02,0.07 -0.04,0.14 -0.07,0.21 0.03,-0.07 0.05,-0.14 0.07,-0.21zm-0.31 0.98c-0.03,0.09 -0.06,0.19 -0.09,0.28 0.03,-0.09 0.06,-0.19 0.09,-0.28zm-0.21 0.62c-0.04,0.11 -0.08,0.21 -0.12,0.32 0.04,-0.11 0.08,-0.21 0.12,-0.32zm-0.24 0.63c-0.04,0.12 -0.09,0.24 -0.14,0.35 0.05,-0.11 0.1,-0.23 0.14,-0.35zm-0.25 0.62c-0.07,0.16 -0.14,0.33 -0.22,0.49 0.08,-0.16 0.15,-0.33 0.22,-0.49zm-0.27 0.61c-0.1,0.2 -0.2,0.41 -0.3,0.61 0.1,-0.2 0.2,-0.41 0.3,-0.61zm-0.36 0.72c-0.08,0.17 -0.17,0.33 -0.26,0.5 0.09,-0.17 0.18,-0.33 0.26,-0.5zm-0.33 0.62c-0.1,0.17 -0.2,0.34 -0.3,0.51 0.1,-0.17 0.2,-0.34 0.3,-0.51zm-0.34 0.57c-1.73,2.81 -4.17,4.91 -7.59,5.99 -13.22,4.19 -20.15,-1.69 -23.63,-12.68 -4.21,-13.32 -3.37,-34.19 -2.6,-53.71 0.29,-7.44 0.59,-14.71 0.59,-21.29 0,-9.8 0.13,-29.09 0.27,-53.8 0.6,-98.19 1.75,-282.24 -1.97,-298.17 1.53,6.38 2.24,40.77 2.51,85.93 0,0.59 0,1.18 0.01,1.77 0,1.42 0.01,2.85 0.02,4.3 0,0.79 0.01,1.58 0.01,2.38 0.01,1.25 0.01,2.51 0.02,3.77 0,0.91 0,1.82 0.01,2.73 0,1.11 0.01,2.23 0.01,3.35 0.01,2.2 0.01,4.42 0.02,6.66 0,0.64 0,1.28 0,1.92 0.01,1.49 0.01,2.99 0.01,4.5 0,0.56 0,1.12 0.01,1.68 0,1.6 0,3.21 0,4.83 0,0.3 0,0.59 0,0.89 0.01,7.51 0.01,15.16 0,22.89l0 0.85c0,1.81 0,3.63 0,5.45 0,0.29 0,0.58 0,0.87 -0.01,5.08 -0.02,10.19 -0.03,15.31 0,1.06 -0.01,2.11 -0.01,3.17 0,0.97 0,1.95 -0.01,2.92 0,1.63 0,3.26 -0.01,4.89 0,0.54 0,1.08 0,1.62 -0.22,73.76 -0.86,146.71 -0.86,169.29 0,24.62 -4.08,58.77 2.63,76.78 0.04,0.11 0.08,0.22 0.12,0.32 0.1,0.26 0.2,0.52 0.31,0.78 0.08,0.2 0.17,0.4 0.26,0.6 0.09,0.2 0.18,0.41 0.27,0.61 0.1,0.22 0.21,0.43 0.31,0.64 0.07,0.15 0.15,0.3 0.22,0.44 0.12,0.22 0.24,0.44 0.36,0.65 0.09,0.17 0.19,0.33 0.28,0.49 0.12,0.21 0.24,0.4 0.37,0.6 0.1,0.16 0.2,0.31 0.31,0.46 0.13,0.2 0.26,0.39 0.39,0.57 0.1,0.13 0.19,0.25 0.28,0.38 0.13,0.16 0.26,0.32 0.4,0.48 0.12,0.16 0.25,0.31 0.39,0.46 0.12,0.14 0.25,0.28 0.38,0.42 0.15,0.15 0.31,0.31 0.46,0.46 0.1,0.09 0.21,0.19 0.31,0.28 0.19,0.18 0.39,0.35 0.6,0.52 0.07,0.06 0.15,0.12 0.23,0.19 0.27,0.2 0.54,0.4 0.82,0.58 0.04,0.03 0.08,0.06 0.12,0.09 0.23,0.14 0.46,0.28 0.69,0.41 0.03,0.02 0.05,0.03 0.08,0.05 0.34,0.19 0.7,0.37 1.06,0.53 0.01,0 0.01,0 0.02,0.01 3.61,1.6 8.18,1.7 13.96,-0.13 3.42,-1.08 5.86,-3.18 7.59,-5.98zm-34.93 -433.66c-0.05,-0.26 -0.12,-0.47 -0.18,-0.63 0.06,0.17 0.13,0.38 0.18,0.63zm-0.2 -0.68c-0.05,-0.14 -0.11,-0.26 -0.17,-0.33l0 -0.01c-0.12,-0.06 -0.23,-0.12 -0.35,-0.19 0.12,0.07 0.24,0.12 0.36,0.19 0.06,0.07 0.11,0.2 0.16,0.34zm-1.37 -0.97c-0.23,-0.12 -0.47,-0.23 -0.7,-0.35 0.23,0.12 0.47,0.23 0.7,0.35zm-1.5 -0.72c-0.24,-0.11 -0.47,-0.21 -0.71,-0.32 0.24,0.11 0.47,0.21 0.71,0.32zm-1.44 -0.62c-0.24,-0.1 -0.48,-0.19 -0.72,-0.28 0.24,0.09 0.48,0.18 0.72,0.28zm-1.31 -0.5c-0.28,-0.1 -0.55,-0.19 -0.82,-0.27 0.27,0.08 0.54,0.17 0.82,0.27zm-1.24 -0.4c-0.32,-0.1 -0.63,-0.18 -0.94,-0.26 0.31,0.08 0.62,0.16 0.94,0.26zm-1.23 -0.33c-0.35,-0.09 -0.69,-0.16 -1.03,-0.22 0.34,0.06 0.68,0.13 1.03,0.22zm-1.19 -0.25c-0.39,-0.07 -0.77,-0.12 -1.14,-0.16 0.38,0.04 0.75,0.09 1.14,0.16z"/>
     </g>
    </g>
   </g>
  </g>
 </g>
</svg>
