<?xml version="1.0" encoding="UTF-8"?>
<!DOCTYPE svg PUBLIC "-//W3C//DTD SVG 1.1//EN" "http://www.w3.org/2000/svg">
<svg xmlns="http://www.w3.org/2000/svg" xml:space="preserve" width="42.3332mm" height="42.3332mm" version="1.1" style="shape-rendering:geometricPrecision; text-rendering:geometricPrecision; image-rendering:optimizeQuality; fill-rule:evenodd; clip-rule:evenodd"
viewBox="0 0 4233.32 4233.32">
 <g>
  <path d="M2481.8 2582.01l109.86 -99.44 60.97 -86.89c68.44,-118.18 95.16,-293.24 55.27,-421.66 -29.46,-94.86 42.15,-114.88 84.66,-97.37 25.76,10.6 34.52,36.23 43.46,74.46 41.6,177.65 12.72,345.93 -63.48,495.68 -18.96,37.3 -49.81,77.03 -73.91,110.07 -8.06,11.03 -17.4,19.82 -26.61,30.69 -21.69,25.61 -39.34,36.01 -62.6,56.46 -234.09,205.73 -582.62,221.49 -838.23,49.25 -34.09,-22.99 -75.14,-46.4 -75.14,-89.64 0,-19.62 9.22,-32.26 18.51,-41.62 46.11,-46.36 85.41,-9.57 122.98,18.86 47.27,35.73 108.79,61.21 164.46,78.33 28.51,8.77 61.95,15.77 101.78,19.62 37.25,3.63 84.06,2.74 113.29,-0.25 89.55,-9.22 190.95,-43.94 264.73,-96.55zm152.52 -928.01c80.65,-19.29 114.85,106.64 30.57,125.7 -90.02,20.4 -108.76,-107.02 -30.57,-125.7zm729.44 448.92c0,-86.04 -9.77,-162.84 -27.07,-244.98 -0.25,-1.16 -0.48,-2.19 -0.73,-3.38l-1.46 -6.82c-3.68,-16.92 -7.58,-29.14 -11.93,-46.18l-85.02 -224.92c-45.7,-88.16 -101.73,-180.8 -170.02,-252.97l-33.74 -36.86c-1.03,-1.14 -4.94,-5.11 -5.77,-5.92l-89.11 -84.05c-24.43,-23.9 -49.73,-39.03 -78.62,-61.8 -15.94,-12.56 -46.91,-31.98 -66.85,-44.22 -266.72,-163.52 -576.57,-225.87 -912.53,-148.06 -55.3,12.82 -124.67,34.62 -171.18,54.54 -103.62,44.35 -198.33,94.71 -286.26,165.06 -21.58,17.28 -35.1,27.85 -60.36,50.36 -20.04,17.86 -39.36,32.41 -58.85,52.13 -10.47,10.63 -17.75,18.63 -27.09,30.47 -9.27,11.71 -14.38,16.06 -26.62,30.64 -22.08,26.32 -30.47,35.94 -49.96,60.97 -32.91,42.25 -65.34,92.81 -89.54,137.01 -58.45,106.79 -98.43,205.77 -125.88,324.5 -63.1,272.99 -22.06,539.81 77.96,764.09 36.89,82.72 108.68,207.97 174.98,276.57l141.39 142.8 161.61 115.48c29.82,20.29 60.59,35.3 91.46,50.23l138.07 56.76c73.17,24.93 152.62,45.23 229.42,54.32 16.14,1.91 34.47,2.72 51.98,2.69 97.27,-0.2 198.19,5.62 294.24,-6.62 70.33,-8.97 173.39,-34.7 235.16,-61.19 33.84,-14.51 68.69,-28.94 102.23,-45.2l163.86 -94.68c35.23,-21.36 61.04,-50.57 95.21,-72.78 5.23,-3.39 5.23,-3.45 9.64,-7.22l74.64 -72.9c32.96,-36.09 75.14,-81.01 102.36,-119.61 6.12,-8.71 6.27,-9.8 14.15,-22.54 6.97,-11.28 7.68,-10.15 15.94,-20.44 40.01,-49.99 80.25,-135.23 104.32,-191.98l41.15 -106.54c23.27,-79.07 42.18,-161.67 51.57,-243.83 5.26,-46.16 7.25,-95.14 7.25,-142.93zm576.17 1098.7l0 -2209.68c-19.82,-32.74 -13.98,-42.61 -44.95,-61.87 -24.68,-15.34 -56,-20.75 -87.35,-10 -133.34,45.78 -154.87,356.04 -160.71,462.65 -9.19,167.73 -1.61,439.21 -1.81,625.82 -0.1,79.07 -7.43,123.87 29.89,174.66 40.39,54.97 57.69,59.4 47.74,154.71 -26.14,250.05 -44.34,511.1 -70.96,761.5 -7.81,73.35 -12.97,119.25 25.31,166.75 10.2,12.66 36.84,40.81 62.12,44.92 12.79,2.09 101.58,7 125.65,-6.85 6.47,-3.73 4.53,-2.92 7.58,-5.16l40.34 -37.22c3.88,-5.57 14.03,-19.31 20.57,-40.92 2.35,-7.71 2.25,-11.18 6.58,-19.31zm-3693.67 -1543.65l0 52.68c4.76,11.08 9.47,41.65 14.98,57.21 14.48,40.8 58.83,104.96 84.33,146.61 50.94,83.14 74.56,104.78 65.1,229.45 -7.26,95.68 -12.52,191.57 -17.91,287.41l-43.13 715.62c-4.11,70.03 21.28,122.5 73.75,151.64 26.22,14.53 102.97,21.8 133.84,5.34 35,-18.66 57.51,-39.51 73.98,-77.11 9.52,-21.68 12.69,-37.39 10.88,-68.51 -2.82,-48.13 -6.04,-94.86 -8.94,-145.02l-51.97 -860.81c-3.93,-69.68 -4.79,-97.65 16.34,-153.73 13.77,-36.59 88.59,-142.22 120.09,-200.01l19.03 -51c18.61,-78.54 -3.97,-187.32 -10.22,-280.96l-40.94 -455.25c-4.41,-42.38 3.5,-123.99 -48.53,-90.17 -7.78,11.28 0.3,337.8 0.78,377.56l1.51 282.81c0.1,29.94 -2.49,66.05 -40.71,51.16 -24.33,-9.46 -19.02,-39.73 -19.22,-75.11l-9.62 -616.48c-0.2,-16.14 -0.68,-26.97 -19.08,-28.76 -33.59,-3.27 -25.76,43.57 -25.66,70.03l0.2 571.05c-0.3,29.47 7.48,72.1 -17.93,80.13 -57.44,18.21 -41.62,-80.58 -41.62,-142.32 0,-81.16 5.08,-563 -3.35,-573.07 -54.77,-29.74 -40.75,58.19 -41.58,101.13l-10.47 590.51c-3.6,20.75 -25.61,32.94 -45.25,21.46 -20.02,-11.69 -13.78,-45.13 -13.55,-66.2l4.86 -599.21c0.18,-26.19 6.75,-52.73 -19.19,-53.83 -28.12,-1.19 -24.83,30.67 -26.76,51.87l-64.04 693.88z"/>
 </g>
</svg>
