<?xml version="1.0" encoding="UTF-8"?>
<!DOCTYPE svg PUBLIC "-//W3C//DTD SVG 1.1//EN" "http://www.w3.org/2000/svg">
<svg xmlns="http://www.w3.org/2000/svg" xml:space="preserve" width="34.5438mm" height="34.5438mm" version="1.1" style="shape-rendering:geometricPrecision; text-rendering:geometricPrecision; image-rendering:optimizeQuality; fill-rule:evenodd; clip-rule:evenodd"
viewBox="0 0 3454.38 3454.38">
 <defs>
  <style type="text/css">
    .fil3 {fill:#FEFEFE}
    .fil0 {fill:#14B1AB}
    .fil2 {fill:#63563D}
    .fil1 {fill:#EDC77C}
  </style>
 </defs>
 <g>
  <g>
   <circle class="fil0" cx="1727.19" cy="1727.19" r="1693.33"/>
   <g>
    <path class="fil1" d="M1727.19 33.85c935.18,0 1693.33,758.15 1693.33,1693.34 0,935.18 -758.15,1693.33 -1693.33,1693.33 -935.18,0 -1693.33,-758.15 -1693.33,-1693.33 0,-935.19 758.15,-1693.34 1693.33,-1693.34z"/>
    <path id="1" class="fil2" d="M1727.19 33.85c0.53,0 1.05,0.02 1.58,0.02 -0.53,0 -1.05,-0.01 -1.58,-0.01 -0.53,0 -1.05,0.01 -1.58,0.01 0.53,0 1.05,-0.02 1.58,-0.02zm42.12 0.53c1.06,0.03 2.12,0.06 3.18,0.08 -1.06,-0.02 -2.12,-0.05 -3.18,-0.08zm43.41 1.61c1.07,0.06 2.15,0.11 3.22,0.17 -1.07,-0.06 -2.15,-0.11 -3.22,-0.17zm43.11 2.69c1.1,0.09 2.2,0.17 3.3,0.25 -1.1,-0.08 -2.2,-0.16 -3.3,-0.25zm42.8 3.76c1.13,0.12 2.26,0.23 3.39,0.35 -1.13,-0.12 -2.26,-0.23 -3.39,-0.35zm42.48 4.82c1.17,0.14 2.33,0.29 3.5,0.44 -1.17,-0.15 -2.33,-0.3 -3.5,-0.44zm42.15 5.85c1.2,0.18 2.41,0.37 3.62,0.55 -1.21,-0.18 -2.42,-0.37 -3.62,-0.55zm41.8 6.88c1.25,0.22 2.5,0.44 3.75,0.67 -1.25,-0.23 -2.5,-0.45 -3.75,-0.67zm41.45 7.89c1.3,0.27 2.59,0.53 3.88,0.8 -1.29,-0.27 -2.58,-0.53 -3.88,-0.8zm41.09 8.9c1.34,0.3 2.67,0.61 4.01,0.92 -1.34,-0.31 -2.67,-0.62 -4.01,-0.92zm40.71 9.88c1.38,0.35 2.75,0.71 4.13,1.06 -1.38,-0.35 -2.75,-0.71 -4.13,-1.06zm40.32 10.85c1.42,0.41 2.83,0.81 4.25,1.21 -1.42,-0.4 -2.83,-0.8 -4.25,-1.21zm39.92 11.82c1.45,0.45 2.9,0.9 4.35,1.36 -1.45,-0.46 -2.9,-0.91 -4.35,-1.36zm39.51 12.77c1.48,0.5 2.96,1 4.44,1.5 -1.48,-0.5 -2.96,-1 -4.44,-1.5zm39.09 13.71c1.5,0.55 3.01,1.1 4.51,1.65 -1.5,-0.55 -3.01,-1.1 -4.51,-1.65zm38.65 14.63c1.52,0.6 3.04,1.2 4.56,1.8 -1.52,-0.6 -3.04,-1.2 -4.56,-1.8zm38.2 15.54c1.53,0.65 3.06,1.3 4.59,1.95 -1.53,-0.65 -3.06,-1.3 -4.59,-1.95zm37.74 16.45c1.53,0.69 3.07,1.38 4.6,2.08 -1.53,-0.7 -3.07,-1.39 -4.6,-2.08zm37.26 17.33c1.54,0.73 3.07,1.47 4.6,2.21 -1.53,-0.74 -3.06,-1.48 -4.6,-2.21zm36.79 18.21c1.51,0.77 3.03,1.55 4.54,2.33 -1.51,-0.78 -3.03,-1.56 -4.54,-2.33zm36.28 19.07c1.49,0.81 2.99,1.62 4.48,2.44 -1.49,-0.82 -2.99,-1.63 -4.48,-2.44zm35.76 19.92c1.47,0.84 2.94,1.69 4.4,2.53 -1.46,-0.84 -2.93,-1.69 -4.4,-2.53zm35.25 20.77c1.43,0.86 2.85,1.73 4.28,2.6 -1.43,-0.87 -2.86,-1.74 -4.28,-2.6zm34.69 21.59c1.39,0.88 2.77,1.77 4.16,2.66 -1.39,-0.89 -2.77,-1.78 -4.16,-2.66zm34.15 22.4c1.33,0.9 2.67,1.8 4,2.7 -1.33,-0.9 -2.67,-1.8 -4,-2.7zm33.58 23.21c1.27,0.9 2.55,1.81 3.82,2.72 -1.27,-0.91 -2.55,-1.82 -3.82,-2.72zm32.99 23.99c1.21,0.91 2.42,1.81 3.64,2.72 -1.22,-0.91 -2.43,-1.81 -3.64,-2.72zm32.39 24.77c1.15,0.9 2.29,1.8 3.44,2.7 -1.15,-0.9 -2.29,-1.8 -3.44,-2.7zm31.79 25.53c1.07,0.88 2.14,1.77 3.22,2.66 -1.08,-0.89 -2.15,-1.78 -3.22,-2.66zm31.15 26.28c1,0.86 2,1.73 3,2.59 -1,-0.86 -2,-1.73 -3,-2.59zm30.52 27.01c0.92,0.84 1.84,1.67 2.76,2.51 -0.92,-0.84 -1.84,-1.67 -2.76,-2.51zm29.85 27.73c0.85,0.81 1.69,1.61 2.54,2.42 -0.85,-0.81 -1.69,-1.61 -2.54,-2.42zm29.19 28.44c0.77,0.77 1.54,1.54 2.31,2.31 -0.39,-0.38 -0.76,-0.77 -1.15,-1.16 -0.39,-0.39 -0.78,-0.76 -1.16,-1.15zm28.34 28.98c0.8,0.83 1.6,1.67 2.4,2.51 -0.8,-0.84 -1.6,-1.68 -2.4,-2.51zm27.65 29.63c0.82,0.91 1.65,1.82 2.47,2.72 -0.82,-0.9 -1.65,-1.81 -2.47,-2.72zm26.93 30.29c0.85,0.98 1.7,1.96 2.55,2.94 -0.85,-0.98 -1.7,-1.96 -2.55,-2.94zm26.22 30.93c0.87,1.06 1.74,2.11 2.61,3.17 -0.87,-1.06 -1.74,-2.11 -2.61,-3.17zm25.49 31.57c0.88,1.13 1.77,2.25 2.65,3.38 -0.88,-1.13 -1.77,-2.25 -2.65,-3.38zm24.74 32.19c0.9,1.2 1.79,2.39 2.69,3.59 -0.9,-1.2 -1.79,-2.39 -2.69,-3.59zm23.99 32.8c0.9,1.26 1.8,2.53 2.69,3.79 -0.89,-1.26 -1.79,-2.53 -2.69,-3.79zm23.21 33.39c0.9,1.33 1.8,2.66 2.69,3.99 -0.89,-1.33 -1.79,-2.66 -2.69,-3.99zm22.44 33.99c0.89,1.38 1.78,2.76 2.66,4.15 -0.88,-1.39 -1.77,-2.77 -2.66,-4.15zm21.64 34.55c0.88,1.44 1.75,2.87 2.62,4.31 -0.87,-1.44 -1.74,-2.87 -2.62,-4.31zm20.83 35.12c0.86,1.48 1.71,2.96 2.56,4.44 -0.85,-1.48 -1.7,-2.96 -2.56,-4.44zm20.02 35.67c0.82,1.52 1.65,3.03 2.47,4.55 -0.82,-1.52 -1.65,-3.03 -2.47,-4.55zm19.17 36.21c0.79,1.54 1.59,3.08 2.37,4.63 -0.78,-1.55 -1.58,-3.09 -2.37,-4.63zm18.33 36.73c0.75,1.56 1.5,3.12 2.26,4.69 -0.76,-1.57 -1.51,-3.13 -2.26,-4.69zm17.45 37.24c0.72,1.58 1.43,3.15 2.14,4.73 -0.71,-1.58 -1.42,-3.15 -2.14,-4.73zm16.58 37.74c0.67,1.58 1.34,3.16 2.01,4.73 -0.67,-1.57 -1.34,-3.15 -2.01,-4.73zm15.69 38.23c0.62,1.57 1.24,3.14 1.86,4.71 -0.62,-1.57 -1.24,-3.14 -1.86,-4.71zm14.78 38.7c0.57,1.55 1.14,3.11 1.71,4.66 -0.57,-1.55 -1.14,-3.11 -1.71,-4.66zm13.86 39.15c0.52,1.54 1.04,3.07 1.55,4.6 -0.51,-1.53 -1.03,-3.06 -1.55,-4.6zm12.92 39.6c0.47,1.5 0.93,3.01 1.4,4.51 -0.47,-1.5 -0.93,-3.01 -1.4,-4.51zm11.97 40.03c0.41,1.47 0.83,2.93 1.25,4.4 -0.42,-1.47 -0.84,-2.93 -1.25,-4.4zm11 40.44c0.37,1.43 0.73,2.85 1.1,4.27 -0.37,-1.42 -0.73,-2.84 -1.1,-4.27zm10.02 40.84c0.32,1.38 0.64,2.76 0.96,4.14 -0.32,-1.38 -0.64,-2.76 -0.96,-4.14zm9.03 41.22c0.27,1.34 0.55,2.67 0.82,4 -0.27,-1.33 -0.55,-2.66 -0.82,-4zm8.02 41.59c0.23,1.29 0.46,2.57 0.69,3.85 -0.23,-1.28 -0.46,-2.56 -0.69,-3.85zm7 41.95c0.19,1.23 0.38,2.46 0.57,3.7 -0.19,-1.24 -0.38,-2.47 -0.57,-3.7zm5.96 42.28c0.16,1.18 0.31,2.37 0.46,3.56 -0.15,-1.19 -0.3,-2.38 -0.46,-3.56zm4.92 42.59c0.12,1.15 0.23,2.29 0.35,3.44 -0.12,-1.15 -0.23,-2.29 -0.35,-3.44zm3.85 42.91c0.09,1.11 0.17,2.21 0.26,3.32 -0.09,-1.11 -0.17,-2.21 -0.26,-3.32zm2.78 43.19c0.06,1.08 0.11,2.16 0.17,3.24 -0.06,-1.08 -0.11,-2.16 -0.17,-3.24zm1.7 43.46c0.02,1.06 0.05,2.12 0.08,3.18 -0.03,-1.06 -0.06,-2.12 -0.08,-3.18zm0.59 43.72c0,0.53 0.02,1.05 0.02,1.58 0,0.53 -0.02,1.05 -0.02,1.58 0,-0.53 0.01,-1.05 0.01,-1.58 0,-0.53 -0.01,-1.05 -0.01,-1.58zm-0.51 43.7c-0.03,1.06 -0.06,2.12 -0.08,3.18 0.02,-1.06 0.05,-2.12 0.08,-3.18zm-1.61 43.41c-0.06,1.07 -0.11,2.15 -0.17,3.22 0.06,-1.07 0.11,-2.15 0.17,-3.22zm-2.69 43.11c-0.09,1.1 -0.17,2.2 -0.25,3.3 0.08,-1.1 0.16,-2.2 0.25,-3.3zm-3.76 42.8c-0.12,1.13 -0.23,2.26 -0.35,3.39 0.12,-1.13 0.23,-2.26 0.35,-3.39zm-4.82 42.48c-0.14,1.17 -0.29,2.33 -0.44,3.5 0.15,-1.17 0.3,-2.33 0.44,-3.5zm-5.85 42.15c-0.18,1.2 -0.37,2.41 -0.55,3.62 0.18,-1.21 0.37,-2.42 0.55,-3.62zm-6.88 41.8c-0.22,1.25 -0.44,2.5 -0.67,3.75 0.23,-1.25 0.45,-2.5 0.67,-3.75zm-7.89 41.45c-0.27,1.3 -0.53,2.59 -0.8,3.89 0.27,-1.3 0.53,-2.59 0.8,-3.89zm-8.9 41.09c-0.3,1.34 -0.61,2.67 -0.92,4.01 0.31,-1.34 0.62,-2.67 0.92,-4.01zm-9.88 40.7c-0.35,1.39 -0.71,2.77 -1.06,4.15 0.35,-1.38 0.71,-2.76 1.06,-4.15zm-10.85 40.32c-0.4,1.42 -0.81,2.85 -1.21,4.27 0.4,-1.42 0.81,-2.85 1.21,-4.27zm-11.82 39.92c-0.45,1.46 -0.91,2.92 -1.36,4.37 0.45,-1.45 0.91,-2.91 1.36,-4.37zm-12.77 39.51c-0.5,1.49 -1,2.98 -1.51,4.46 0.51,-1.48 1.01,-2.97 1.51,-4.46zm-13.7 39.08c-0.55,1.52 -1.11,3.03 -1.67,4.54 0.56,-1.51 1.12,-3.02 1.67,-4.54zm-14.63 38.65c-0.6,1.53 -1.21,3.07 -1.82,4.6 0.61,-1.53 1.22,-3.07 1.82,-4.6zm-15.54 38.2c-0.65,1.54 -1.31,3.09 -1.97,4.64 0.66,-1.55 1.32,-3.1 1.97,-4.64zm-16.45 37.73c-0.69,1.56 -1.4,3.11 -2.1,4.66 0.7,-1.55 1.41,-3.1 2.1,-4.66zm-17.32 37.27c-0.75,1.55 -1.5,3.1 -2.24,4.64 0.74,-1.54 1.49,-3.09 2.24,-4.64zm-18.21 36.77c-0.79,1.54 -1.57,3.08 -2.36,4.62 0.79,-1.54 1.57,-3.08 2.36,-4.62zm-19.07 36.28c-0.82,1.52 -1.65,3.04 -2.48,4.56 0.83,-1.52 1.66,-3.04 2.48,-4.56zm-19.92 35.76c-0.86,1.5 -1.72,2.99 -2.58,4.49 0.86,-1.5 1.72,-2.99 2.58,-4.49zm-20.76 35.24c-0.88,1.46 -1.77,2.92 -2.66,4.38 0.89,-1.46 1.78,-2.92 2.66,-4.38zm-21.58 34.69c-0.91,1.42 -1.82,2.84 -2.73,4.26 0.91,-1.42 1.82,-2.84 2.73,-4.26zm-22.4 34.14c-0.93,1.37 -1.85,2.75 -2.78,4.12 0.93,-1.37 1.85,-2.75 2.78,-4.12zm-23.2 33.57c-0.94,1.32 -1.87,2.64 -2.81,3.96 0.94,-1.32 1.87,-2.64 2.81,-3.96zm-23.99 32.99c-0.94,1.26 -1.88,2.52 -2.82,3.78 0.94,-1.26 1.88,-2.52 2.82,-3.78zm-24.76 32.39c-0.94,1.19 -1.88,2.39 -2.82,3.58 0.94,-1.19 1.88,-2.39 2.82,-3.58zm-25.52 31.77c-0.93,1.13 -1.86,2.26 -2.79,3.39 0.93,-1.13 1.86,-2.26 2.79,-3.39zm-26.27 31.15c-0.92,1.06 -1.83,2.12 -2.75,3.18 0.92,-1.06 1.83,-2.12 2.75,-3.18zm-27.01 30.51c-0.89,0.99 -1.78,1.97 -2.68,2.95 0.9,-0.98 1.79,-1.96 2.68,-2.95zm-27.72 29.85c-0.87,0.91 -1.73,1.83 -2.61,2.74 0.87,-0.91 1.74,-1.83 2.61,-2.74zm-28.43 29.18c-0.84,0.84 -1.68,1.68 -2.52,2.52 0.42,-0.42 0.85,-0.83 1.27,-1.25 0.42,-0.42 0.83,-0.85 1.25,-1.27zm-28.96 28.34c-0.91,0.88 -1.83,1.74 -2.74,2.61 0.91,-0.87 1.83,-1.73 2.74,-2.61zm-29.64 27.65c-0.98,0.9 -1.96,1.79 -2.95,2.68 0.99,-0.89 1.97,-1.78 2.95,-2.68zm-30.28 26.94c-1.06,0.92 -2.12,1.83 -3.18,2.75 1.06,-0.92 2.12,-1.83 3.18,-2.75zm-30.94 26.23c-1.13,0.93 -2.26,1.86 -3.39,2.79 1.13,-0.93 2.26,-1.86 3.39,-2.79zm-31.58 25.49c-1.19,0.94 -2.39,1.88 -3.58,2.82 1.19,-0.94 2.39,-1.88 3.58,-2.82zm-32.19 24.76c-1.26,0.94 -2.52,1.88 -3.78,2.82 1.26,-0.94 2.52,-1.88 3.78,-2.82zm-32.81 24c-1.32,0.94 -2.64,1.87 -3.96,2.81 1.32,-0.94 2.64,-1.87 3.96,-2.81zm-33.41 23.23c-1.37,0.93 -2.75,1.85 -4.12,2.78 1.37,-0.93 2.75,-1.85 4.12,-2.78zm-34 22.45c-1.42,0.91 -2.84,1.82 -4.26,2.73 1.42,-0.91 2.84,-1.82 4.26,-2.73zm-34.57 21.65c-1.46,0.89 -2.92,1.78 -4.38,2.66 1.46,-0.88 2.92,-1.77 4.38,-2.66zm-35.13 20.84c-1.5,0.86 -2.99,1.72 -4.49,2.58 1.5,-0.86 2.99,-1.72 4.49,-2.58zm-35.69 20.02c-1.52,0.83 -3.04,1.66 -4.56,2.48 1.52,-0.82 3.04,-1.65 4.56,-2.48zm-36.22 19.19c-1.54,0.79 -3.08,1.57 -4.62,2.36 1.54,-0.79 3.08,-1.57 4.62,-2.36zm-36.75 18.33c-1.54,0.74 -3.09,1.49 -4.64,2.24 1.55,-0.75 3.1,-1.5 4.64,-2.24zm-37.25 17.46c-1.55,0.7 -3.1,1.41 -4.66,2.1 1.56,-0.69 3.11,-1.4 4.66,-2.1zm-37.75 16.58c-1.55,0.66 -3.1,1.32 -4.64,1.97 1.54,-0.65 3.09,-1.31 4.64,-1.97zm-38.24 15.69c-1.53,0.61 -3.07,1.22 -4.6,1.82 1.53,-0.6 3.07,-1.21 4.6,-1.82zm-38.71 14.78c-1.51,0.56 -3.02,1.12 -4.54,1.67 1.52,-0.55 3.03,-1.11 4.54,-1.67zm-39.16 13.86c-1.48,0.51 -2.97,1.01 -4.46,1.51 1.49,-0.5 2.98,-1 4.46,-1.51zm-39.6 12.92c-1.45,0.45 -2.91,0.91 -4.37,1.36 1.46,-0.45 2.92,-0.91 4.37,-1.36zm-40.02 11.97c-1.42,0.4 -2.85,0.81 -4.27,1.21 1.42,-0.4 2.85,-0.81 4.27,-1.21zm-40.44 11c-1.38,0.35 -2.76,0.71 -4.15,1.06 1.39,-0.35 2.77,-0.71 4.15,-1.06zm-40.84 10.02c-1.34,0.31 -2.67,0.62 -4.01,0.92 1.34,-0.3 2.67,-0.61 4.01,-0.92zm-41.21 9.02c-1.3,0.27 -2.59,0.53 -3.89,0.8 1.3,-0.27 2.59,-0.53 3.89,-0.8zm-41.59 8.02c-1.25,0.23 -2.5,0.45 -3.75,0.67 1.25,-0.22 2.5,-0.44 3.75,-0.67zm-41.93 7c-1.21,0.18 -2.42,0.37 -3.62,0.55 1.2,-0.18 2.41,-0.37 3.62,-0.55zm-42.27 5.96c-1.17,0.15 -2.33,0.3 -3.5,0.44 1.17,-0.14 2.33,-0.29 3.5,-0.44zm-42.59 4.91c-1.13,0.12 -2.26,0.23 -3.39,0.35 1.13,-0.12 2.26,-0.23 3.39,-0.35zm-42.89 3.86c-1.1,0.08 -2.2,0.16 -3.3,0.25 1.1,-0.09 2.2,-0.17 3.3,-0.25zm-43.19 2.77c-1.07,0.06 -2.15,0.11 -3.22,0.17 1.07,-0.06 2.15,-0.11 3.22,-0.17zm-43.45 1.7c-1.06,0.02 -2.12,0.05 -3.18,0.08 1.06,-0.03 2.12,-0.06 3.18,-0.08zm-43.72 0.59c-0.53,0 -1.05,0.02 -1.58,0.02 -0.53,0 -1.05,-0.02 -1.58,-0.02 0.53,0 1.05,0.01 1.58,0.01 0.53,0 1.05,-0.01 1.58,-0.01zm-43.7 -0.51c-1.06,-0.03 -2.12,-0.06 -3.18,-0.08 1.06,0.02 2.12,0.05 3.18,0.08zm-43.41 -1.61c-1.07,-0.06 -2.15,-0.11 -3.22,-0.17 1.07,0.06 2.15,0.11 3.22,0.17zm-43.11 -2.69c-1.1,-0.09 -2.2,-0.17 -3.3,-0.25 1.1,0.08 2.2,0.16 3.3,0.25zm-42.8 -3.76c-1.13,-0.12 -2.26,-0.23 -3.39,-0.35 1.13,0.12 2.26,0.23 3.39,0.35zm-42.48 -4.82c-1.17,-0.14 -2.33,-0.29 -3.5,-0.44 1.17,0.15 2.33,0.3 3.5,0.44zm-42.15 -5.85c-1.2,-0.18 -2.41,-0.37 -3.62,-0.55 1.21,0.18 2.42,0.37 3.62,0.55zm-41.8 -6.88c-1.25,-0.22 -2.5,-0.44 -3.75,-0.67 1.25,0.23 2.5,0.45 3.75,0.67zm-41.45 -7.89c-1.3,-0.27 -2.59,-0.53 -3.89,-0.8 1.3,0.27 2.59,0.53 3.89,0.8zm-41.09 -8.9c-1.34,-0.3 -2.67,-0.61 -4.01,-0.92 1.34,0.31 2.67,0.62 4.01,0.92zm-40.7 -9.88c-1.39,-0.35 -2.77,-0.71 -4.15,-1.06 1.38,0.35 2.76,0.71 4.15,1.06zm-40.32 -10.85c-1.42,-0.4 -2.85,-0.81 -4.27,-1.21 1.42,0.4 2.85,0.81 4.27,1.21zm-39.92 -11.82c-1.46,-0.45 -2.92,-0.91 -4.37,-1.36 1.45,0.45 2.91,0.91 4.37,1.36zm-39.51 -12.77c-1.49,-0.5 -2.98,-1 -4.46,-1.51 1.48,0.51 2.97,1.01 4.46,1.51zm-39.08 -13.7c-1.52,-0.55 -3.03,-1.11 -4.54,-1.67 1.51,0.56 3.02,1.12 4.54,1.67zm-38.65 -14.63c-1.53,-0.6 -3.07,-1.21 -4.6,-1.82 1.53,0.61 3.07,1.22 4.6,1.82zm-38.2 -15.54c-1.54,-0.65 -3.09,-1.31 -4.64,-1.97 1.55,0.66 3.1,1.32 4.64,1.97zm-37.73 -16.45c-1.56,-0.69 -3.11,-1.4 -4.66,-2.1 1.55,0.7 3.1,1.41 4.66,2.1zm-37.27 -17.32c-1.55,-0.75 -3.1,-1.5 -4.64,-2.24 1.54,0.74 3.09,1.49 4.64,2.24zm-36.77 -18.21c-1.54,-0.79 -3.08,-1.57 -4.62,-2.36 1.54,0.79 3.08,1.57 4.62,2.36zm-36.28 -19.07c-1.52,-0.82 -3.04,-1.65 -4.56,-2.48 1.52,0.83 3.04,1.66 4.56,2.48zm-35.76 -19.92c-1.5,-0.86 -2.99,-1.72 -4.49,-2.58 1.5,0.86 2.99,1.72 4.49,2.58zm-35.24 -20.76c-1.46,-0.88 -2.92,-1.77 -4.38,-2.66 1.46,0.89 2.92,1.78 4.38,2.66zm-34.69 -21.58c-1.42,-0.91 -2.84,-1.82 -4.26,-2.73 1.42,0.91 2.84,1.82 4.26,2.73zm-34.14 -22.4c-1.37,-0.93 -2.75,-1.85 -4.12,-2.78 1.37,0.93 2.75,1.85 4.12,2.78zm-33.57 -23.2c-1.32,-0.94 -2.64,-1.87 -3.96,-2.81 1.32,0.94 2.64,1.87 3.96,2.81zm-32.99 -23.99c-1.26,-0.94 -2.52,-1.88 -3.78,-2.82 1.26,0.94 2.52,1.88 3.78,2.82zm-32.39 -24.76c-1.19,-0.94 -2.39,-1.88 -3.58,-2.82 1.19,0.94 2.39,1.88 3.58,2.82zm-31.77 -25.52c-1.13,-0.93 -2.26,-1.86 -3.39,-2.79 1.13,0.93 2.26,1.86 3.39,2.79zm-31.15 -26.27c-1.06,-0.92 -2.12,-1.83 -3.18,-2.75 1.06,0.92 2.12,1.83 3.18,2.75zm-30.51 -27.01c-0.99,-0.89 -1.97,-1.78 -2.95,-2.68 0.98,0.9 1.96,1.79 2.95,2.68zm-29.85 -27.72c-0.91,-0.87 -1.83,-1.73 -2.74,-2.61 0.91,0.87 1.83,1.74 2.74,2.61zm-29.18 -28.43c-0.84,-0.84 -1.68,-1.68 -2.52,-2.52 0.42,0.42 0.83,0.85 1.25,1.27 0.42,0.42 0.85,0.83 1.27,1.25zm-28.34 -28.96c-0.88,-0.91 -1.74,-1.83 -2.61,-2.74 0.87,0.91 1.73,1.83 2.61,2.74zm-27.65 -29.64c-0.9,-0.98 -1.79,-1.96 -2.68,-2.95 0.89,0.99 1.78,1.97 2.68,2.95zm-26.94 -30.28c-0.92,-1.06 -1.83,-2.12 -2.75,-3.18 0.92,1.06 1.83,2.12 2.75,3.18zm-26.23 -30.94c-0.93,-1.13 -1.86,-2.26 -2.79,-3.39 0.93,1.13 1.86,2.26 2.79,3.39zm-25.49 -31.58c-0.94,-1.19 -1.88,-2.39 -2.82,-3.58 0.94,1.19 1.88,2.39 2.82,3.58zm-24.76 -32.19c-0.94,-1.26 -1.88,-2.52 -2.82,-3.78 0.94,1.26 1.88,2.52 2.82,3.78zm-24 -32.81c-0.94,-1.32 -1.87,-2.64 -2.81,-3.96 0.94,1.32 1.87,2.64 2.81,3.96zm-23.23 -33.41c-0.93,-1.37 -1.85,-2.75 -2.78,-4.12 0.93,1.37 1.85,2.75 2.78,4.12zm-22.45 -34c-0.91,-1.42 -1.82,-2.84 -2.73,-4.26 0.91,1.42 1.82,2.84 2.73,4.26zm-21.65 -34.57c-0.89,-1.46 -1.78,-2.92 -2.66,-4.38 0.88,1.46 1.77,2.92 2.66,4.38zm-20.84 -35.13c-0.86,-1.5 -1.72,-2.99 -2.58,-4.49 0.86,1.5 1.72,2.99 2.58,4.49zm-20.02 -35.69c-0.83,-1.52 -1.66,-3.04 -2.48,-4.56 0.82,1.52 1.65,3.04 2.48,4.56zm-19.19 -36.22c-0.79,-1.54 -1.57,-3.08 -2.36,-4.62 0.79,1.54 1.57,3.08 2.36,4.62zm-18.33 -36.75c-0.74,-1.54 -1.49,-3.09 -2.24,-4.64 0.75,1.55 1.5,3.1 2.24,4.64zm-17.46 -37.25c-0.7,-1.55 -1.41,-3.1 -2.1,-4.66 0.69,1.56 1.4,3.11 2.1,4.66zm-16.58 -37.75c-0.66,-1.55 -1.32,-3.1 -1.97,-4.64 0.65,1.54 1.31,3.09 1.97,4.64zm-15.69 -38.24c-0.61,-1.53 -1.22,-3.07 -1.82,-4.6 0.6,1.53 1.21,3.07 1.82,4.6zm-14.78 -38.71c-0.56,-1.51 -1.12,-3.02 -1.67,-4.54 0.55,1.52 1.11,3.03 1.67,4.54zm-13.86 -39.16c-0.51,-1.48 -1.01,-2.97 -1.51,-4.46 0.5,1.49 1,2.98 1.51,4.46zm-12.92 -39.6c-0.45,-1.45 -0.91,-2.91 -1.36,-4.37 0.45,1.46 0.91,2.92 1.36,4.37zm-11.97 -40.02c-0.4,-1.42 -0.81,-2.85 -1.21,-4.27 0.4,1.42 0.81,2.85 1.21,4.27zm-11 -40.44c-0.35,-1.38 -0.71,-2.76 -1.06,-4.15 0.35,1.39 0.71,2.77 1.06,4.15zm-10.02 -40.84c-0.31,-1.34 -0.62,-2.67 -0.92,-4.01 0.3,1.34 0.61,2.67 0.92,4.01zm-9.02 -41.21c-0.27,-1.3 -0.53,-2.59 -0.8,-3.89 0.27,1.3 0.53,2.59 0.8,3.89zm-8.02 -41.59c-0.23,-1.25 -0.45,-2.5 -0.67,-3.75 0.22,1.25 0.44,2.5 0.67,3.75zm-7 -41.93c-0.18,-1.21 -0.37,-2.42 -0.55,-3.62 0.18,1.2 0.37,2.41 0.55,3.62zm-5.96 -42.27c-0.15,-1.17 -0.3,-2.33 -0.44,-3.5 0.14,1.17 0.29,2.33 0.44,3.5zm-4.91 -42.59c-0.12,-1.13 -0.23,-2.26 -0.35,-3.39 0.12,1.13 0.23,2.26 0.35,3.39zm-3.86 -42.89c-0.08,-1.1 -0.16,-2.2 -0.25,-3.3 0.09,1.1 0.17,2.2 0.25,3.3zm-2.77 -43.19c-0.06,-1.07 -0.11,-2.15 -0.17,-3.22 0.06,1.07 0.11,2.15 0.17,3.22zm-1.7 -43.45c-0.02,-1.06 -0.05,-2.12 -0.08,-3.18 0.03,1.06 0.06,2.12 0.08,3.18zm-0.59 -43.72c0,-0.53 -0.02,-1.05 -0.02,-1.58 0,-0.53 0.02,-1.05 0.02,-1.58 0,0.53 -0.01,1.05 -0.01,1.58 0,0.53 0.01,1.05 0.01,1.58zm0.51 -43.7c0.03,-1.06 0.06,-2.12 0.08,-3.18 -0.02,1.06 -0.05,2.12 -0.08,3.18zm1.61 -43.4c0.06,-1.08 0.11,-2.16 0.17,-3.24 -0.06,1.08 -0.11,2.16 -0.17,3.24zm2.69 -43.11c0.09,-1.11 0.17,-2.21 0.26,-3.32 -0.09,1.11 -0.17,2.21 -0.26,3.32zm3.76 -42.79c0.12,-1.15 0.23,-2.29 0.35,-3.44 -0.12,1.15 -0.23,2.29 -0.35,3.44zm4.81 -42.47c0.15,-1.19 0.3,-2.38 0.46,-3.56 -0.16,1.18 -0.31,2.37 -0.46,3.56zm5.85 -42.14c0.19,-1.24 0.38,-2.47 0.57,-3.7 -0.19,1.23 -0.38,2.46 -0.57,3.7zm6.88 -41.8c0.23,-1.28 0.46,-2.56 0.69,-3.85 -0.23,1.29 -0.46,2.57 -0.69,3.85zm7.89 -41.44c0.27,-1.33 0.55,-2.66 0.82,-4 -0.27,1.34 -0.55,2.67 -0.82,4zm8.89 -41.08c0.32,-1.38 0.64,-2.76 0.96,-4.14 -0.32,1.38 -0.64,2.76 -0.96,4.14zm9.88 -40.71c0.37,-1.42 0.73,-2.84 1.1,-4.27 -0.37,1.43 -0.73,2.85 -1.1,4.27zm10.85 -40.31c0.42,-1.47 0.84,-2.93 1.25,-4.4 -0.41,1.47 -0.83,2.93 -1.25,4.4zm11.82 -39.92c0.47,-1.5 0.93,-3.01 1.4,-4.51 -0.47,1.5 -0.93,3.01 -1.4,4.51zm12.77 -39.51c0.51,-1.53 1.03,-3.06 1.55,-4.6 -0.52,1.54 -1.04,3.07 -1.55,4.6zm13.7 -39.09c0.57,-1.55 1.14,-3.11 1.71,-4.66 -0.57,1.55 -1.14,3.11 -1.71,4.66zm14.63 -38.65c0.62,-1.57 1.24,-3.14 1.86,-4.71 -0.62,1.57 -1.24,3.14 -1.86,4.71zm15.54 -38.21c0.67,-1.57 1.34,-3.15 2.01,-4.73 -0.67,1.58 -1.34,3.16 -2.01,4.73zm16.45 -37.74c0.71,-1.58 1.42,-3.15 2.14,-4.73 -0.72,1.58 -1.43,3.15 -2.14,4.73zm17.33 -37.28c0.76,-1.57 1.51,-3.13 2.26,-4.69 -0.75,1.56 -1.5,3.12 -2.26,4.69zm18.22 -36.79c0.78,-1.55 1.58,-3.09 2.37,-4.63 -0.79,1.54 -1.59,3.08 -2.37,4.63zm19.07 -36.29c0.82,-1.52 1.65,-3.03 2.47,-4.55 -0.82,1.52 -1.65,3.03 -2.47,4.55zm19.93 -35.78c0.85,-1.48 1.7,-2.96 2.56,-4.44 -0.86,1.48 -1.71,2.96 -2.56,4.44zm20.77 -35.25c0.87,-1.44 1.74,-2.87 2.62,-4.31 -0.88,1.44 -1.75,2.87 -2.62,4.31zm21.6 -34.71c0.88,-1.39 1.77,-2.77 2.66,-4.15 -0.89,1.38 -1.78,2.76 -2.66,4.15zm22.41 -34.15c0.89,-1.33 1.79,-2.66 2.69,-3.99 -0.9,1.33 -1.8,2.66 -2.69,3.99zm23.21 -33.59c0.89,-1.26 1.79,-2.53 2.69,-3.79 -0.9,1.26 -1.8,2.53 -2.69,3.79zm23.99 -33c0.9,-1.2 1.79,-2.39 2.69,-3.59 -0.9,1.2 -1.79,2.39 -2.69,3.59zm24.78 -32.4c0.88,-1.13 1.77,-2.25 2.65,-3.38 -0.88,1.13 -1.77,2.25 -2.65,3.38zm25.53 -31.78c0.87,-1.06 1.74,-2.11 2.61,-3.17 -0.87,1.06 -1.74,2.11 -2.61,3.17zm26.28 -31.16c0.85,-0.98 1.7,-1.96 2.55,-2.94 -0.85,0.98 -1.7,1.96 -2.55,2.94zm27.01 -30.51c0.82,-0.9 1.65,-1.81 2.47,-2.72 -0.82,0.91 -1.65,1.82 -2.47,2.72zm27.72 -29.84c0.8,-0.84 1.6,-1.68 2.4,-2.51 -0.8,0.83 -1.6,1.67 -2.4,2.51zm28.43 -29.18c0.77,-0.77 1.54,-1.54 2.31,-2.31 -0.38,0.39 -0.77,0.76 -1.16,1.15 -0.39,0.39 -0.76,0.78 -1.15,1.16zm28.96 -28.33c0.85,-0.81 1.69,-1.61 2.54,-2.42 -0.85,0.81 -1.69,1.61 -2.54,2.42zm29.63 -27.64c0.92,-0.84 1.84,-1.67 2.76,-2.51 -0.92,0.84 -1.84,1.67 -2.76,2.51zm30.28 -26.93c1,-0.86 2,-1.73 3,-2.59 -1,0.86 -2,1.73 -3,2.59zm30.93 -26.21c1.08,-0.89 2.15,-1.78 3.22,-2.66 -1.07,0.88 -2.14,1.77 -3.22,2.66zm31.57 -25.49c1.15,-0.9 2.29,-1.8 3.44,-2.7 -1.15,0.9 -2.29,1.8 -3.44,2.7zm32.19 -24.75c1.22,-0.91 2.43,-1.81 3.64,-2.72 -1.21,0.91 -2.42,1.81 -3.64,2.72zm32.81 -23.99c1.27,-0.91 2.55,-1.82 3.82,-2.72 -1.27,0.9 -2.55,1.81 -3.82,2.72zm33.4 -23.23c1.33,-0.9 2.67,-1.8 4,-2.7 -1.33,0.9 -2.67,1.8 -4,2.7zm33.99 -22.44c1.39,-0.89 2.77,-1.78 4.16,-2.66 -1.39,0.88 -2.77,1.77 -4.16,2.66zm34.57 -21.65c1.43,-0.87 2.85,-1.74 4.28,-2.6 -1.42,0.86 -2.85,1.73 -4.28,2.6zm35.13 -20.84c1.46,-0.84 2.93,-1.69 4.4,-2.53 -1.47,0.84 -2.94,1.69 -4.4,2.53zm35.68 -20.01c1.49,-0.82 2.99,-1.63 4.48,-2.44 -1.49,0.81 -2.99,1.62 -4.48,2.44zm36.22 -19.18c1.51,-0.78 3.03,-1.56 4.54,-2.33 -1.51,0.77 -3.03,1.55 -4.54,2.33zm36.73 -18.33c1.53,-0.74 3.06,-1.48 4.6,-2.21 -1.54,0.73 -3.07,1.47 -4.6,2.21zm37.26 -17.46c1.53,-0.7 3.07,-1.39 4.6,-2.08 -1.53,0.69 -3.07,1.38 -4.6,2.08zm37.75 -16.58c1.53,-0.65 3.06,-1.3 4.59,-1.95 -1.53,0.65 -3.06,1.3 -4.59,1.95zm38.23 -15.69c1.52,-0.6 3.04,-1.2 4.56,-1.8 -1.52,0.6 -3.04,1.2 -4.56,1.8zm38.7 -14.78c1.5,-0.55 3.01,-1.1 4.51,-1.65 -1.5,0.55 -3.01,1.1 -4.51,1.65zm39.16 -13.86c1.48,-0.5 2.96,-1 4.44,-1.5 -1.48,0.5 -2.96,1 -4.44,1.5zm39.6 -12.91c1.45,-0.46 2.9,-0.91 4.35,-1.36 -1.45,0.45 -2.9,0.9 -4.35,1.36zm40.02 -11.97c1.42,-0.4 2.83,-0.8 4.25,-1.21 -1.42,0.41 -2.83,0.81 -4.25,1.21zm40.44 -11c1.38,-0.35 2.75,-0.71 4.13,-1.06 -1.38,0.35 -2.75,0.71 -4.13,1.06zm40.83 -10.02c1.34,-0.31 2.67,-0.62 4.01,-0.92 -1.34,0.3 -2.67,0.61 -4.01,0.92zm41.22 -9.02c1.29,-0.27 2.58,-0.53 3.88,-0.8 -1.3,0.27 -2.59,0.53 -3.88,0.8zm41.58 -8.02c1.25,-0.23 2.5,-0.45 3.75,-0.67 -1.25,0.22 -2.5,0.44 -3.75,0.67zm41.93 -7c1.21,-0.18 2.42,-0.37 3.62,-0.55 -1.2,0.18 -2.41,0.37 -3.62,0.55zm42.27 -5.96c1.17,-0.15 2.33,-0.3 3.5,-0.44 -1.17,0.14 -2.33,0.29 -3.5,0.44zm42.59 -4.91c1.13,-0.12 2.26,-0.23 3.39,-0.35 -1.13,0.12 -2.26,0.23 -3.39,0.35zm42.89 -3.86c1.1,-0.08 2.2,-0.16 3.3,-0.25 -1.1,0.09 -2.2,0.17 -3.3,0.25zm43.19 -2.77c1.07,-0.06 2.15,-0.11 3.22,-0.17 -1.07,0.06 -2.15,0.11 -3.22,0.17zm43.45 -1.7c1.06,-0.02 2.12,-0.05 3.18,-0.08 -1.06,0.03 -2.12,0.06 -3.18,0.08z"/>
   </g>
   <g>
    <g>
     <polygon class="fil3" points="1006.27,2667.12 2472.57,2667.1 2472.57,1627.75 1006.27,1629.81 "/>
     <path id="1" class="fil2" d="M1006.28 2667.11l1466.28 -0.02 0 -1039.33 -1466.28 2.06 0 1037.29zm-0.01 0.01l1466.3 -0.02 0 -1039.35 -1466.3 2.06 0 1037.31z"/>
    </g>
    <g>
     <polygon class="fil3" points="952.65,1596.92 2526.19,1596.92 2526.91,1392.67 2527.28,1355.55 2526.4,1310.19 952.65,1310.85 "/>
     <path id="1" class="fil2" d="M952.66 1596.91l1573.52 0 0.72 -204.24 0.37 -37.12 -0.88 -45.35 -1573.73 0.66 0 286.05zm-0.01 0.01l1573.54 0 0.72 -204.25 0.37 -37.12 -0.88 -45.36 -1573.75 0.66 0 286.07z"/>
    </g>
    <g>
     <path class="fil3" d="M1800.3 1122.64c7.68,-7.97 11.57,-17.78 18.51,-28.48 0.45,-0.69 4.74,-7.07 4.89,-7.31l50.02 -74.34c41.34,-42.96 24.92,-32.92 76.83,-76.12l75.98 -51.86c0.81,-0.44 1.87,-1 2.7,-1.43 0.84,-0.45 1.93,-0.98 2.79,-1.42 42.28,-21.78 84.8,-42.8 132.45,-20.88 18.99,8.73 -3.87,-2.72 8.13,4.15 65.86,37.69 51.4,129.92 11.33,185.55 -75.85,105.31 -218.38,173.08 -358.88,187.39 29.24,-86.47 -5.28,-65.57 -24.75,-115.25zm-145.44 116.34c-56.37,-14.07 -93.06,-14.82 -146.65,-36.03 -98.97,-39.17 -192.35,-100.58 -231.93,-187.62l-2.56 -5.94c-13.23,-31.63 -19.1,-71.41 -3.99,-101.8l27.06 -35c29.59,-22.23 63.98,-27.46 102.09,-13.42l6.15 2.41c22.73,8.97 54.99,23.48 83.94,43.02 66.54,44.93 157.88,141.78 188.9,224.11 -37.28,49.11 -44.78,46.9 -23.01,110.27zm104.2 -126.76l-37.13 -0.58 -30.46 -91.61c-0.34,-0.84 -0.8,-1.94 -1.16,-2.76l-53.23 -92.27c-20.37,-30.69 -38.17,-49.21 -62.59,-73.65l-75.84 -64.46c-129.08,-99.31 -297.01,-86.88 -371.36,56.52 -59.77,115.27 6.91,245.6 93.32,313.29l12.32 9.64c0.69,0.53 1.63,1.27 2.3,1.79 29.08,22.31 60.83,38.84 94.42,53.35 0.83,0.36 1.95,0.78 2.79,1.12l72.62 26.16c8.86,2.49 18.8,5.14 28.29,7.7 66.47,17.93 162.75,29.42 227.5,12.78 1.18,-0.31 2.18,-0.69 3.37,-0.99 1.2,-0.29 2.2,-0.69 3.41,-0.95 23.65,-5.21 14.85,-1.97 23.17,1.08l8.23 3.84c0.89,0.34 1.93,0.78 2.85,1.1 27.69,9.74 51.59,10.13 78.4,-0.12l14.52 -6.47c18.58,-4.79 -10.49,-3.52 12.93,-0.52l42.53 7.79c43.09,4.14 93.14,-0.29 134.66,-6.16l109.92 -25.91c21.5,-7.24 37.7,-10.97 52.86,-18.3l46.16 -22.9c1.18,-0.54 4.53,-2.11 5.7,-2.68l63.57 -43.61c0.62,-0.51 1.56,-1.29 2.18,-1.8l50.92 -52.18c17.21,-21.56 30.51,-42.41 39.73,-67.92 0.35,-0.98 0.72,-2.06 1.06,-3.04l15.35 -62.39c5.3,-38.47 -2.67,-81.69 -14.15,-111.22l-11.25 -24.24c-30.25,-54.63 -80.86,-93.68 -147.25,-105.57 -90.45,-16.21 -165.52,22.64 -215.78,58.34 -98.85,70.21 -198.06,185.4 -224.88,327.8z"/>
     <path id="1" class="fil2" d="M1800.29 1122.63c5.04,-5.23 8.45,-11.25 12.13,-17.75 1.96,-3.47 4.04,-7.12 6.38,-10.73l4.89 -7.31 50.02 -74.34c14.37,-14.93 21.78,-23.48 27.48,-30.06 10.69,-12.35 15.5,-17.89 49.35,-46.06l75.98 -51.86 0.01 0 2.7 -1.43 2.79 -1.42c21.13,-10.88 42.35,-21.6 64.21,-26.83 21.86,-5.23 44.43,-5 68.24,5.95 2.07,0.95 3.65,1.66 4.82,2.19 -0.28,-0.2 -0.39,-0.31 -0.38,-0.34l0 -0.01c0.05,-0.08 0.93,0.29 1.78,0.7 0.85,0.4 1.69,0.87 1.68,0.91 0,0 -0.01,0.01 -0.02,0.01 0.17,-0.07 -4.99,-2.57 -2.96,-1.22 1.26,0.56 2.05,0.89 2.49,1.07 -0.44,-0.17 -1.2,-0.49 -2.4,-1.03 0.53,0.36 1.51,0.95 3.12,1.87 2.95,1.69 5.75,3.49 8.33,5.35 25.5,18.36 36.37,46.25 37.04,76.17 0.3,13.36 -1.43,27.14 -4.8,40.67 4.19,-16.83 5.84,-34.03 4.2,-50.36 -0.01,-0.04 -0.01,-0.09 -0.02,-0.13 -0.21,-2.11 -0.48,-4.2 -0.81,-6.27 -0.03,-0.22 -0.06,-0.43 -0.1,-0.65 -0.12,-0.73 -0.24,-1.46 -0.38,-2.19 -0.04,-0.26 -0.09,-0.52 -0.14,-0.77 -0.14,-0.71 -0.28,-1.41 -0.42,-2.11 -0.08,-0.35 -0.15,-0.69 -0.23,-1.03 -0.17,-0.77 -0.35,-1.53 -0.54,-2.3 -0.07,-0.31 -0.15,-0.62 -0.23,-0.94 -0.17,-0.68 -0.36,-1.36 -0.54,-2.03 -0.08,-0.27 -0.15,-0.53 -0.23,-0.8 -0.19,-0.68 -0.39,-1.36 -0.6,-2.03 -0.09,-0.27 -0.17,-0.54 -0.26,-0.81 -0.27,-0.83 -0.54,-1.67 -0.83,-2.49 -0.09,-0.26 -0.18,-0.52 -0.28,-0.78 -0.25,-0.7 -0.51,-1.39 -0.77,-2.08 -0.08,-0.2 -0.16,-0.4 -0.24,-0.61 -0.28,-0.7 -0.56,-1.4 -0.85,-2.09 -0.08,-0.17 -0.15,-0.34 -0.23,-0.52 -0.79,-1.84 -1.65,-3.67 -2.57,-5.46 -0.06,-0.12 -0.12,-0.24 -0.18,-0.36 -0.37,-0.72 -0.76,-1.43 -1.15,-2.13 -0.06,-0.11 -0.11,-0.21 -0.17,-0.32 -1.04,-1.86 -2.15,-3.68 -3.34,-5.47 -0.02,-0.04 -0.05,-0.07 -0.08,-0.11 -0.47,-0.71 -0.95,-1.42 -1.45,-2.11 -0.05,-0.07 -0.09,-0.14 -0.14,-0.21 -1.8,-2.51 -3.74,-4.94 -5.84,-7.28 -0.05,-0.05 -0.09,-0.09 -0.14,-0.14 -2.12,-2.36 -4.41,-4.62 -6.86,-6.78 -0.03,-0.03 -0.05,-0.05 -0.08,-0.08 -0.7,-0.62 -1.42,-1.23 -2.15,-1.83l0 0c-2.51,-2.07 -5.17,-4.03 -8,-5.88 -0.34,-0.22 -0.68,-0.44 -1.02,-0.66 -0.51,-0.33 -1.03,-0.65 -1.55,-0.97 -0.61,-0.37 -1.22,-0.73 -1.83,-1.09 -0.18,-0.1 -0.34,-0.21 -0.52,-0.31 -1.69,-0.97 -2.68,-1.57 -3.21,-1.92 -1.18,-0.52 -2.79,-1.25 -4.92,-2.23 -47.65,-21.92 -90.17,-0.9 -132.45,20.88 -0.86,0.44 -1.95,0.97 -2.79,1.42 -0.83,0.43 -1.89,0.99 -2.7,1.43l-75.98 51.86c-51.91,43.2 -35.49,33.16 -76.83,76.12l-50.02 74.34c-0.15,0.24 -4.44,6.62 -4.89,7.31 -6.94,10.7 -10.83,20.51 -18.51,28.48 0.09,0.24 0.19,0.47 0.29,0.71 0.11,0.28 0.22,0.56 0.34,0.83 19.57,47.7 53.05,28.16 24.12,113.71 1.02,-0.1 2.03,-0.22 3.05,-0.33 0.22,-0.02 0.44,-0.05 0.66,-0.07 1.98,-0.22 3.96,-0.44 5.94,-0.68 0.29,-0.03 0.59,-0.07 0.88,-0.1 1.92,-0.23 3.84,-0.47 5.75,-0.73 0.34,-0.04 0.68,-0.08 1.01,-0.13 1.89,-0.25 3.78,-0.51 5.67,-0.78 0.35,-0.05 0.7,-0.1 1.05,-0.15 1.9,-0.28 3.8,-0.56 5.7,-0.86 0.33,-0.05 0.66,-0.1 0.99,-0.15 1.95,-0.31 3.9,-0.62 5.85,-0.95 0.27,-0.04 0.54,-0.09 0.81,-0.13 2.08,-0.35 4.16,-0.72 6.24,-1.09 0.14,-0.02 0.27,-0.05 0.41,-0.07 56.18,-10.15 111.53,-28.61 161.64,-54.37 0.04,-0.01 0.07,-0.03 0.11,-0.05 1.88,-0.97 3.75,-1.95 5.62,-2.94 0.25,-0.13 0.49,-0.26 0.73,-0.39 1.66,-0.88 3.31,-1.76 4.96,-2.66 0.19,-0.11 0.39,-0.22 0.59,-0.32 56.8,-31.07 106.14,-71.74 141.22,-120.44 13.15,-18.25 23.54,-40.44 29.24,-63.35 -4.17,16.75 -10.84,33.12 -19.26,47.83 -3.11,5.45 -6.47,10.66 -9.97,15.53 -36.91,51.23 -89.65,93.63 -150.22,125.25 -63.89,33.35 -136.56,54.8 -208.67,62.14 0,0 -0.01,-0.01 -0.01,-0.01 19.58,-57.91 10.55,-67.67 -3.38,-82.71 -6.87,-7.41 -14.94,-16.14 -21.37,-32.54l0.01 -0.01 -0.01 0zm-145.43 116.35c-56.37,-14.07 -93.06,-14.82 -146.65,-36.03 -96.76,-38.29 -188.17,-97.85 -229.19,-181.83 -0.03,-0.07 -0.07,-0.14 -0.1,-0.21 -0.54,-1.12 -1.08,-2.23 -1.6,-3.35 -0.1,-0.2 -0.19,-0.41 -0.28,-0.61 -0.25,-0.54 -0.51,-1.08 -0.76,-1.62l-2.56 -5.94c-13.23,-31.63 -19.1,-71.41 -3.99,-101.8l27.06 -35c29.59,-22.23 63.98,-27.46 102.09,-13.42l6.15 2.41c22.73,8.97 54.99,23.48 83.94,43.02 60.74,41.01 142.13,125.28 179.45,202.28 0.03,0.05 0.05,0.09 0.07,0.14 0.57,1.17 1.12,2.33 1.67,3.49 0.07,0.15 0.13,0.3 0.2,0.45 0.51,1.08 1,2.16 1.49,3.24 0.28,0.62 0.56,1.24 0.83,1.86 0.32,0.72 0.63,1.43 0.93,2.14 0.25,0.57 0.49,1.14 0.74,1.71 0.31,0.75 0.62,1.5 0.93,2.25 0.22,0.53 0.43,1.06 0.65,1.59 0.3,0.76 0.6,1.51 0.89,2.26 0.21,0.52 0.41,1.05 0.61,1.57 0.15,0.38 0.3,0.75 0.44,1.13l0.01 0.01c-4.26,5.61 -8.15,10.58 -11.63,15.02 -26.97,34.43 -30.65,39.13 -11.38,95.24 0,0 -0.01,0.01 -0.01,0.01 -20.14,-5.02 -37.79,-8.37 -54.57,-11.52 -30.18,-5.69 -57.65,-10.89 -92.08,-24.51 -53.07,-21 -104.56,-48.42 -146.97,-82.72 -36.68,-29.67 -66.61,-64.55 -84.97,-104.91l-2.56 -5.94c-7.1,-16.99 -12.11,-36.36 -12.84,-55.34 -0.63,-16.33 1.87,-32.41 8.85,-46.46l0 -0.01 0 0 27.06 -35c14.93,-11.21 31.1,-18.11 48.35,-20.38 16.9,-2.21 34.89,0.02 53.75,6.96l6.15 2.41c11.35,4.47 25.12,10.36 39.64,17.55 14.53,7.19 29.86,15.72 44.31,25.47 35.63,24.06 78.41,63.04 115.19,106.68 31.87,37.82 59.31,79.21 73.71,117.44l-0.01 0c-37.28,49.11 -44.78,46.9 -23.01,110.27zm104.2 -126.76l-37.13 -0.58 -30.46 -91.61c-0.13,-0.33 -0.29,-0.7 -0.44,-1.08l-0.31 -0.72c-0.14,-0.34 -0.28,-0.67 -0.41,-0.96l-53.23 -92.27c-20.37,-30.69 -38.17,-49.21 -62.59,-73.65l-75.84 -64.46c-0.44,-0.34 -0.89,-0.67 -1.33,-1 0.44,0.33 0.88,0.67 1.32,1.01l75.84 64.46c12.2,12.21 22.77,22.97 32.81,34.48 10.04,11.51 19.6,23.83 29.78,39.17l0 0 53.23 92.26 1.16 2.76 30.46 91.61c0,0 0.01,0.01 0.01,0.01l37.13 0.58c0,0 0.01,-0.01 0.01,-0.01 0.13,-0.71 0.27,-1.43 0.41,-2.14 -0.14,0.71 -0.29,1.42 -0.42,2.14zm-265.24 -328.96c-0.82,-0.61 -1.64,-1.21 -2.45,-1.81 0.81,0.6 1.63,1.2 2.45,1.81zm-6.29 -4.56c-0.71,-0.51 -1.42,-1.01 -2.13,-1.51 0.71,0.5 1.42,1 2.13,1.51zm-6.35 -4.4c-0.6,-0.4 -1.19,-0.8 -1.79,-1.2 0.6,0.4 1.19,0.8 1.79,1.2zm-6.39 -4.22c-0.51,-0.32 -1.01,-0.64 -1.51,-0.96 0.5,0.32 1,0.64 1.51,0.96zm-6.39 -4.01c-0.44,-0.26 -0.88,-0.53 -1.32,-0.79 0.44,0.26 0.88,0.53 1.32,0.79zm-6.34 -3.78c-0.43,-0.25 -0.86,-0.49 -1.29,-0.74 0.43,0.25 0.86,0.49 1.29,0.74zm-6.25 -3.54c-0.51,-0.28 -1.02,-0.56 -1.53,-0.84 0.51,0.28 1.02,0.56 1.53,0.84zm-6.11 -3.28c-0.84,-0.44 -1.68,-0.88 -2.53,-1.31 0.4,0.21 0.81,0.41 1.21,0.62 0.44,0.23 0.88,0.46 1.32,0.69zm-6.28 -3.21c-0.81,-0.4 -1.61,-0.79 -2.41,-1.18 0.8,0.39 1.6,0.78 2.41,1.18zm-5.99 -2.89c-1.1,-0.51 -2.19,-1.02 -3.29,-1.52 1.1,0.5 2.19,1.01 3.29,1.52zm-6.72 -3.06c-1.05,-0.47 -2.1,-0.92 -3.15,-1.37 1.05,0.45 2.1,0.9 3.15,1.37zm-5.99 -2.57c-1.21,-0.5 -2.43,-1 -3.64,-1.49 1.21,0.49 2.43,0.99 3.64,1.49zm-6.76 -2.72c-1.28,-0.49 -2.56,-0.98 -3.83,-1.45 1.27,0.47 2.55,0.96 3.83,1.45zm-5.99 -2.24c-1.32,-0.48 -2.64,-0.95 -3.96,-1.41 1.32,0.46 2.64,0.93 3.96,1.41zm-6.82 -2.39c-1.42,-0.47 -2.83,-0.94 -4.25,-1.39 1.42,0.45 2.84,0.92 4.25,1.39zm-5.93 -1.92c-0.84,-0.26 -1.69,-0.54 -2.53,-0.79 -0.05,-0.01 -0.09,-0.03 -0.14,-0.04 -0.91,-0.27 -1.82,-0.52 -2.73,-0.79 1.8,0.52 3.6,1.06 5.4,1.62zm-6.92 -2.06c-1.51,-0.42 -3.01,-0.84 -4.52,-1.24 1.51,0.4 3.01,0.82 4.52,1.24zm-5.81 -1.58c-0.97,-0.25 -1.93,-0.51 -2.9,-0.76 -0.08,-0.02 -0.16,-0.04 -0.24,-0.06 -0.92,-0.22 -1.85,-0.43 -2.77,-0.65 1.97,0.47 3.94,0.96 5.91,1.47zm-7.09 -1.75c-0.84,-0.19 -1.67,-0.4 -2.51,-0.59 -0.01,0 -0.02,0 -0.03,0 -0.7,-0.16 -1.41,-0.3 -2.11,-0.45 1.55,0.33 3.1,0.68 4.65,1.04zm-5.37 -1.19c-1.21,-0.25 -2.42,-0.52 -3.62,-0.76 -0.07,-0.01 -0.13,-0.02 -0.19,-0.03 -0.88,-0.17 -1.76,-0.32 -2.63,-0.49 2.14,0.4 4.29,0.83 6.44,1.28zm-7.6 -1.49c-0.88,-0.16 -1.76,-0.33 -2.64,-0.48 -0.06,-0.01 -0.12,-0.02 -0.18,-0.03 -1.08,-0.18 -2.15,-0.34 -3.23,-0.51 2.01,0.31 4.03,0.65 6.05,1.02zm-7.18 -1.2c-1.51,-0.23 -3.03,-0.45 -4.54,-0.65 1.51,0.2 3.03,0.42 4.54,0.65zm-5.92 -0.83c-0.9,-0.12 -1.79,-0.25 -2.68,-0.35 -0.05,-0.01 -0.1,-0.01 -0.15,-0.02 -0.86,-0.1 -1.73,-0.18 -2.59,-0.27 1.8,0.19 3.61,0.4 5.42,0.64zm-7.14 -0.82c-1.42,-0.15 -2.85,-0.28 -4.27,-0.39 1.42,0.11 2.85,0.24 4.27,0.39zm-6.4 -0.56c-1.51,-0.11 -3.02,-0.21 -4.52,-0.3 1.5,0.09 3.01,0.19 4.52,0.3zm-6.74 -0.41c-1.28,-0.06 -2.56,-0.11 -3.84,-0.15 1.28,0.04 2.56,0.09 3.84,0.15zm-6.99 -0.23c-1.14,-0.02 -2.27,-0.04 -3.41,-0.04 1.14,0 2.27,0.02 3.41,0.04zm-6.3 -0.03c-1.06,0 -2.12,0.02 -3.18,0.04 1.06,-0.02 2.12,-0.04 3.18,-0.04zm-6.72 0.14c-0.98,0.04 -1.96,0.08 -2.94,0.13 0.98,-0.05 1.96,-0.09 2.94,-0.13zm-6.86 0.35c-0.72,0.05 -1.42,0.1 -2.13,0.16 0.71,-0.06 1.41,-0.11 2.13,-0.16zm-6.16 0.5c-0.8,0.07 -1.6,0.15 -2.4,0.24 0.8,-0.09 1.6,-0.17 2.4,-0.24zm-6.64 0.72c-0.59,0.07 -1.17,0.14 -1.76,0.22 0.59,-0.08 1.17,-0.15 1.76,-0.22zm-6.39 0.88c-0.59,0.09 -1.17,0.18 -1.76,0.28 0.41,-0.07 0.82,-0.14 1.23,-0.2 0.18,-0.03 0.35,-0.05 0.53,-0.08zm-6.27 1.05c-0.47,0.09 -0.95,0.18 -1.42,0.27 0.47,-0.09 0.95,-0.18 1.42,-0.27zm-6.49 1.29c-0.44,0.09 -0.88,0.19 -1.33,0.29 0.45,-0.1 0.89,-0.2 1.33,-0.29zm-5.93 1.36c-0.45,0.11 -0.89,0.22 -1.33,0.33 0.44,-0.11 0.88,-0.22 1.33,-0.33zm-6.27 1.63c-0.44,0.12 -0.88,0.25 -1.33,0.37 0.45,-0.12 0.89,-0.25 1.33,-0.37zm-5.93 1.74c-0.49,0.15 -0.97,0.3 -1.46,0.45 0.49,-0.15 0.97,-0.3 1.46,-0.45zm-6.02 1.95c-0.46,0.16 -0.92,0.32 -1.38,0.48 0.46,-0.16 0.92,-0.32 1.38,-0.48zm-5.93 2.13c-0.52,0.2 -1.04,0.4 -1.56,0.6 0.52,-0.2 1.04,-0.4 1.56,-0.6zm-5.75 2.26c-0.49,0.2 -0.97,0.4 -1.46,0.61 0.49,-0.21 0.97,-0.41 1.46,-0.61zm-5.98 2.57c-0.52,0.23 -1.04,0.47 -1.56,0.71 0.52,-0.24 1.04,-0.48 1.56,-0.71zm-5.43 2.53c-0.62,0.3 -1.24,0.61 -1.87,0.91 0.63,-0.31 1.25,-0.61 1.87,-0.91zm-5.84 2.94c-0.57,0.29 -1.13,0.59 -1.69,0.89 0.56,-0.3 1.13,-0.6 1.69,-0.89zm-5.27 2.86c-0.73,0.41 -1.47,0.83 -2.2,1.25 0.73,-0.42 1.47,-0.84 2.2,-1.25zm-5.65 3.29c-0.61,0.37 -1.22,0.74 -1.82,1.11 0.6,-0.37 1.21,-0.74 1.82,-1.11zm-5.16 3.23c-0.8,0.51 -1.59,1.03 -2.37,1.55 0.78,-0.52 1.57,-1.04 2.37,-1.55zm-5.45 3.64c-0.76,0.52 -1.51,1.05 -2.26,1.58 0.75,-0.53 1.5,-1.06 2.26,-1.58zm-5.06 3.61c-0.81,0.6 -1.62,1.2 -2.42,1.81 0.8,-0.61 1.61,-1.21 2.42,-1.81zm-5.21 3.97c-0.86,0.68 -1.71,1.36 -2.56,2.05 0.85,-0.69 1.7,-1.37 2.56,-2.05zm-5 4.06c-0.79,0.66 -1.57,1.32 -2.35,1.99 0.78,-0.67 1.56,-1.33 2.35,-1.99zm-4.93 4.26c-0.88,0.79 -1.77,1.59 -2.65,2.4 0.88,-0.81 1.77,-1.61 2.65,-2.4zm-5.07 4.67c-0.79,0.75 -1.57,1.51 -2.35,2.27 0.78,-0.76 1.56,-1.52 2.35,-2.27zm-4.48 4.39c-0.88,0.89 -1.76,1.79 -2.63,2.69 0.87,-0.9 1.75,-1.8 2.63,-2.69zm-4.92 5.12c-0.84,0.89 -1.66,1.8 -2.49,2.72 0.83,-0.92 1.66,-1.83 2.49,-2.72zm-4.26 4.71c-0.84,0.96 -1.68,1.93 -2.52,2.91 0.84,-0.98 1.68,-1.95 2.52,-2.91zm-4.65 5.47c-0.84,1.01 -1.67,2.04 -2.49,3.07 0.82,-1.03 1.65,-2.06 2.49,-3.07zm-4.14 5.18c-0.79,1.01 -1.57,2.02 -2.34,3.05 0.54,-0.72 1.09,-1.44 1.64,-2.16 0.23,-0.3 0.46,-0.6 0.7,-0.89zm-4.5 5.96c-0.67,0.93 -1.34,1.87 -2.01,2.81 0.67,-0.94 1.34,-1.88 2.01,-2.81zm-4.2 5.98c-0.58,0.84 -1.15,1.68 -1.72,2.54 0.57,-0.86 1.14,-1.7 1.72,-2.54zm-4.16 6.28c-0.44,0.69 -0.87,1.38 -1.3,2.07 0.43,-0.69 0.86,-1.38 1.3,-2.07zm-4.02 6.51c-0.31,0.52 -0.62,1.04 -0.93,1.57 0.31,-0.53 0.62,-1.05 0.93,-1.57zm-3.82 6.61c-0.23,0.41 -0.46,0.83 -0.69,1.24 0.23,-0.41 0.46,-0.83 0.69,-1.24zm-3.58 6.64c-0.11,0.2 -0.22,0.4 -0.33,0.61 -0.18,0.34 -0.34,0.69 -0.51,1.03 0.17,-0.34 0.34,-0.69 0.52,-1.03 0.11,-0.2 0.21,-0.41 0.32,-0.61zm-2.61 5.17c-0.31,0.64 -0.62,1.28 -0.93,1.92 0.31,-0.64 0.62,-1.28 0.93,-1.92zm-2.59 5.51c-0.27,0.6 -0.54,1.19 -0.8,1.79 0.26,-0.6 0.53,-1.19 0.8,-1.79zm-2.29 5.25c-0.26,0.63 -0.52,1.26 -0.78,1.88 0.26,-0.62 0.52,-1.25 0.78,-1.88zm-2.13 5.28c-0.29,0.77 -0.59,1.54 -0.88,2.31 0.29,-0.77 0.59,-1.54 0.88,-2.31zm-1.96 5.31c-0.33,0.93 -0.66,1.86 -0.97,2.79 0.31,-0.93 0.64,-1.86 0.97,-2.79zm-1.82 5.35c-0.32,0.99 -0.63,1.98 -0.94,2.97 0.31,-0.99 0.62,-1.98 0.94,-2.97zm-1.69 5.48c-0.28,0.97 -0.56,1.94 -0.83,2.91 0.27,-0.97 0.55,-1.94 0.83,-2.91zm-1.61 5.85c-0.22,0.81 -0.42,1.63 -0.62,2.45 0.2,-0.82 0.4,-1.64 0.62,-2.45zm-1.29 5.25c-0.28,1.2 -0.54,2.4 -0.8,3.6 0.26,-1.2 0.52,-2.4 0.8,-3.6zm-1.14 5.25c-0.26,1.3 -0.51,2.61 -0.75,3.91 0.24,-1.3 0.49,-2.61 0.75,-3.91zm-0.98 5.22c-0.24,1.37 -0.47,2.73 -0.68,4.1 0.21,-1.37 0.44,-2.73 0.68,-4.1zm-0.84 5.16c-0.21,1.43 -0.41,2.86 -0.59,4.29 0.18,-1.43 0.38,-2.86 0.59,-4.29zm-0.66 4.88c-0.13,1.02 -0.27,2.04 -0.38,3.06 0,0.03 -0.01,0.07 -0.01,0.1 -0.2,1.8 -0.37,3.61 -0.51,5.41 -0.01,0.05 -0.01,0.09 -0.01,0.14 -0.22,2.79 -0.38,5.59 -0.49,8.39 0.23,-5.7 0.69,-11.4 1.4,-17.1zm-1.41 17.35c-0.06,1.63 -0.11,3.26 -0.13,4.89 0.02,-1.63 0.07,-3.26 0.13,-4.89zm-0.13 5.07c-0.04,2.76 -0.05,5.52 0.02,8.28 0,0.04 0,0.09 0,0.13 0.05,1.78 0.12,3.57 0.21,5.35 0,0.05 0,0.11 0,0.16 0.1,1.8 0.21,3.61 0.34,5.41l0.01 0.01c0.21,2.74 0.48,5.47 0.78,8.2 -1.02,-9.13 -1.5,-18.32 -1.36,-27.54zm1.37 27.61c0.84,7.4 2.04,14.76 3.57,22.04 -1.53,-7.28 -2.73,-14.64 -3.57,-22.04zm3.65 22.4c0.31,1.47 0.64,2.93 0.98,4.39 -0.34,-1.46 -0.67,-2.92 -0.98,-4.39zm1.16 5.17c0.33,1.39 0.67,2.79 1.02,4.18 -0.35,-1.39 -0.7,-2.79 -1.02,-4.18zm1.27 5.17c0.35,1.34 0.7,2.68 1.07,4.01 -0.37,-1.33 -0.72,-2.67 -1.07,-4.01zm1.43 5.28c0.35,1.25 0.71,2.5 1.08,3.75 -0.37,-1.25 -0.73,-2.5 -1.08,-3.75zm1.34 4.63c0.46,1.53 0.94,3.05 1.43,4.57 -0.49,-1.52 -0.97,-3.04 -1.43,-4.57zm1.88 5.97c0.44,1.34 0.89,2.68 1.35,4.02 -0.46,-1.34 -0.91,-2.68 -1.35,-4.02zm1.88 5.52c0.45,1.29 0.92,2.58 1.39,3.87 -0.47,-1.29 -0.94,-2.58 -1.39,-3.87zm1.97 5.42c0.47,1.26 0.96,2.52 1.45,3.77 -0.49,-1.25 -0.98,-2.51 -1.45,-3.77zm2.08 5.37c0.48,1.2 0.97,2.4 1.47,3.6 -0.5,-1.2 -0.99,-2.4 -1.47,-3.6zm2.19 5.31c0.35,0.83 0.7,1.66 1.06,2.48 -0.36,-0.82 -0.71,-1.65 -1.06,-2.48zm1.95 4.51c0.49,1.09 0.98,2.17 1.47,3.26 -0.49,-1.09 -0.98,-2.17 -1.47,-3.26zm2.12 4.64c0.6,1.3 1.21,2.59 1.83,3.87 -0.62,-1.28 -1.23,-2.57 -1.83,-3.87zm2.45 5.14c0.65,1.33 1.31,2.65 1.98,3.97 -0.67,-1.32 -1.33,-2.64 -1.98,-3.97zm2.56 5.12c0.71,1.38 1.43,2.75 2.16,4.12 -0.73,-1.37 -1.45,-2.74 -2.16,-4.12zm2.68 5.09c0.81,1.5 1.63,3 2.46,4.49 -0.83,-1.49 -1.65,-2.99 -2.46,-4.49zm2.77 5.04c2.42,4.31 4.94,8.55 7.56,12.74 -2.62,-4.19 -5.14,-8.43 -7.56,-12.74zm7.72 12.99c1,1.59 2.01,3.17 3.04,4.75 -1.03,-1.58 -2.04,-3.16 -3.04,-4.75zm3.22 5.03c1.04,1.6 2.1,3.18 3.17,4.76 -1.07,-1.58 -2.13,-3.16 -3.17,-4.76zm3.25 4.87c19.06,28.04 42.31,52.74 67.2,72.24l12.32 9.64c0.69,0.53 1.63,1.27 2.3,1.79 29.08,22.31 60.83,38.84 94.42,53.35 0.17,0.07 0.34,0.15 0.53,0.22l0.72 0.29c0.53,0.21 1.08,0.42 1.54,0.61l72.62 26.16c8.86,2.49 18.8,5.14 28.29,7.7 47.77,12.89 110.93,22.44 166.72,20.63l0.05 0c1.2,-0.04 2.39,-0.09 3.58,-0.14 0.02,0 0.03,0 0.04,0 2.4,-0.1 4.78,-0.22 7.15,-0.37 0.02,0 0.05,0 0.07,0 1.15,-0.07 2.3,-0.15 3.44,-0.23 0.06,0 0.11,0 0.17,-0.01 1.12,-0.08 2.25,-0.16 3.37,-0.26l0.12 -0.01c15.22,-1.24 29.65,-3.45 42.79,-6.83 0.69,-0.18 1.32,-0.39 1.96,-0.58l-0.36 0.1 -1.6 0.47c-29.57,7.59 -65.76,9.32 -102.64,7.26 -43.85,-2.45 -88.77,-10.31 -124.86,-20.04l-5.51 -1.49c-7.75,-2.07 -15.63,-4.21 -22.78,-6.21l-72.62 -26.16 -2.79 -1.12c-16.79,-7.25 -33.14,-15.03 -48.9,-23.75 -15.74,-8.72 -30.96,-18.44 -45.51,-29.6l-2.3 -1.79 -12.32 -9.64c-24.89,-19.49 -48.14,-44.19 -67.21,-72.23zm510.5 183.87c0.1,-0.03 0.21,-0.05 0.31,-0.08 0.12,-0.03 0.24,-0.06 0.36,-0.09l0.58 -0.17c0.82,-0.24 1.59,-0.5 2.47,-0.69 23.65,-5.21 14.85,-1.97 23.17,1.08l8.23 3.84c0.48,0.18 1,0.4 1.53,0.6l0.92 0.36c0.13,0.05 0.27,0.09 0.4,0.14 27.69,9.74 51.59,10.13 78.4,-0.12l14.52 -6.47c2.79,-0.72 4.51,-1.3 5.49,-1.76l0.01 0 0 0c0.12,0.03 0.25,0.06 0.38,0.09 1.5,0.34 3.75,0.73 7.05,1.15l42.53 7.79c43.09,4.14 93.14,-0.29 134.66,-6.16l109.92 -25.91c21.5,-7.24 37.7,-10.97 52.86,-18.3l46.16 -22.9c0.34,-0.16 0.86,-0.4 1.45,-0.67l3.14 -1.48c0.45,-0.21 0.84,-0.4 1.11,-0.53l63.57 -43.61c0.62,-0.51 1.56,-1.29 2.18,-1.8l50.92 -52.18c17.21,-21.56 30.51,-42.41 39.73,-67.92 0.35,-0.98 0.72,-2.06 1.06,-3.04l15.35 -62.39c5.3,-38.47 -2.67,-81.69 -14.15,-111.22l-11.25 -24.24c-30.25,-54.63 -80.86,-93.68 -147.25,-105.57 -90.45,-16.21 -165.52,22.64 -215.78,58.34 -81.06,57.57 -162.35,145.4 -203.78,253.67 14.12,-36.88 32.86,-71.39 54.63,-103.13 42.15,-61.45 95.72,-112.58 149.16,-150.53 25.13,-17.85 56.48,-36.5 92.81,-48.64 36.35,-12.14 77.75,-17.8 122.96,-9.7 32.52,5.82 61.27,18.18 85.67,35.67 25.41,18.22 46.15,42.05 61.57,69.89l11.25 24.24c6.12,15.76 11.27,35.45 13.9,56.21 2.3,18.11 2.71,37.09 0.25,55.01l-15.35 62.39 -1.06 3.04c-4.6,12.72 -10.24,24.33 -16.87,35.43 -6.62,11.09 -14.26,21.71 -22.86,32.48l-50.92 52.18 -2.18 1.8 -63.57 43.61 0 0 -5.69 2.68 -46.16 22.9c-10.25,4.95 -21,8.28 -33.52,12.14 -5.98,1.83 -12.4,3.83 -19.34,6.16l-109.92 25.91c-20.75,2.92 -43.66,5.52 -66.74,6.83 -23.08,1.32 -46.38,1.39 -67.92,-0.67l-42.53 -7.79c-3.58,-0.45 -5.93,-0.88 -7.41,-1.24 0.86,-0.41 1.14,-0.73 1.08,-0.95 -0.08,-0.33 -0.91,-0.48 -1.7,-0.48 -0.79,0 -1.6,0.18 -1.62,0.44 -0.01,0.07 0.04,0.15 0.15,0.24 -1.19,-0.98 5.79,-1 2.06,0.76 -0.01,0 -0.02,0 -0.03,-0.01 -0.98,0.46 -2.69,1.05 -5.46,1.76l-14.52 6.47c-13.39,5.11 -26.09,7.58 -38.87,7.56 -12.78,-0.03 -25.7,-2.58 -39.53,-7.44l-1.85 -0.71 -1 -0.39 -8.23 -3.84c-2.43,-0.88 -3.42,-1.83 -4.16,-2.53 -1.77,-1.69 -2.34,-2.22 -19.01,1.45 -0.65,0.13 -1.26,0.33 -1.85,0.51l-1.56 0.44 -0.31 0.09zm116.09 -229.82c-0.67,1.75 -1.32,3.5 -1.97,5.26 0.65,-1.76 1.3,-3.51 1.97,-5.26zm-2.23 5.97c-0.62,1.7 -1.23,3.41 -1.84,5.13 0.6,-1.72 1.22,-3.43 1.84,-5.13zm-2.14 5.99c-1.42,4.06 -2.78,8.14 -4.08,12.25 1.3,-4.11 2.66,-8.19 4.08,-12.25zm-4.67 14.14c-0.44,1.41 -0.87,2.82 -1.3,4.24 0.43,-1.42 0.86,-2.83 1.3,-4.24zm-1.9 6.25c-0.41,1.39 -0.81,2.78 -1.21,4.17 0.4,-1.39 0.8,-2.78 1.21,-4.17zm-1.82 6.34c-0.37,1.35 -0.74,2.7 -1.11,4.06 0.37,-1.36 0.74,-2.71 1.11,-4.06zm-1.77 6.56c-0.33,1.25 -0.65,2.51 -0.97,3.77 0.32,-1.26 0.64,-2.52 0.97,-3.77zm-1.83 7.24c-0.23,0.94 -0.45,1.89 -0.68,2.84 0.23,-0.95 0.45,-1.9 0.68,-2.84zm-1.48 6.33c-0.27,1.2 -0.54,2.4 -0.8,3.6 0.26,-1.2 0.53,-2.4 0.8,-3.6zm-1.39 6.36c-0.29,1.37 -0.56,2.74 -0.84,4.11 0.27,-1.37 0.55,-2.74 0.84,-4.11z"/>
    </g>
   </g>
  </g>
 </g>
</svg>
