<?xml version="1.0" encoding="UTF-8"?>
<!DOCTYPE svg PUBLIC "-//W3C//DTD SVG 1.1//EN" "http://www.w3.org/2000/svg">
<svg xmlns="http://www.w3.org/2000/svg" xml:space="preserve" width="42.3332mm" height="42.3332mm" version="1.1" style="shape-rendering:geometricPrecision; text-rendering:geometricPrecision; image-rendering:optimizeQuality; fill-rule:evenodd; clip-rule:evenodd"
viewBox="0 0 4233.32 4233.32">
 <g>
  <path d="M829.13 3789.32l2564 -0.05 0 -1817.41 -2564 3.6 0 1813.86zm-93.75 -1871.37l2751.5 0 1.28 -357.15 0.63 -64.91 -1.54 -79.32 -2751.87 1.16 0 500.22zm1482.2 -829.34c13.42,-13.92 20.25,-31.07 32.38,-49.78 0.78,-1.21 8.26,-12.37 8.54,-12.79l87.48 -129.99c72.27,-75.11 43.56,-57.56 134.34,-133.1l132.85 -90.68c1.41,-0.78 3.28,-1.76 4.71,-2.52 1.49,-0.78 3.38,-1.69 4.89,-2.47 73.93,-38.1 148.29,-74.83 231.61,-36.51 33.22,15.26 -6.77,-4.76 14.2,7.25 115.18,65.9 89.9,227.19 19.82,324.46 -132.63,184.12 -381.84,302.65 -627.53,327.68 51.11,-151.21 -9.24,-114.67 -43.29,-201.55zm-254.33 203.44c-98.55,-24.6 -162.72,-25.91 -256.41,-63 -173.07,-68.5 -336.35,-175.89 -405.57,-328.06l-4.48 -10.4c-23.12,-55.3 -33.39,-124.87 -6.95,-178.01l47.31 -61.21c51.73,-38.86 111.88,-48.02 178.51,-23.47l10.75 4.23c39.74,15.69 96.15,41.05 146.78,75.24 116.34,78.54 276.09,247.91 330.3,391.87 -65.19,85.86 -78.28,82.01 -40.24,192.81zm182.21 -221.67l-64.91 -0.98 -53.26 -160.2c-0.61,-1.46 -1.41,-3.4 -2.04,-4.84l-93.07 -161.33c-35.63,-53.66 -66.75,-86.05 -109.44,-128.78l-132.62 -112.73c-225.7,-173.65 -519.36,-151.92 -649.37,98.83 -104.5,201.55 12.09,429.46 163.17,547.81l21.56 16.88c1.21,0.93 2.84,2.21 4.03,3.12 50.84,39 106.36,67.91 165.08,93.29 1.46,0.63 3.43,1.36 4.89,1.97l126.99 45.73c15.48,4.35 32.88,8.99 49.48,13.47 116.21,31.35 284.57,51.44 397.8,22.33 2.07,-0.53 3.81,-1.18 5.9,-1.71 2.09,-0.53 3.85,-1.21 5.94,-1.66 41.37,-9.12 25.96,-3.45 40.52,1.89l14.4 6.7c1.53,0.6 3.37,1.38 4.98,1.93 48.4,17.03 90.2,17.71 137.09,-0.2l25.38 -11.33c32.49,-8.38 -18.33,-6.14 22.61,-0.9l74.39 13.62c75.34,7.25 162.84,-0.51 235.47,-10.78l192.2 -45.3c37.6,-12.64 65.9,-19.19 92.42,-32l80.73 -40.04c2.04,-0.93 7.9,-3.7 9.97,-4.69l111.15 -76.24c1.08,-0.91 2.72,-2.27 3.8,-3.15l89.04 -91.26c30.12,-37.69 53.36,-74.16 69.47,-118.78 0.63,-1.68 1.26,-3.6 1.87,-5.31l26.81 -109.08c9.3,-67.26 -4.63,-142.85 -24.72,-194.48l-19.67 -42.38c-52.91,-95.53 -141.39,-163.82 -257.48,-184.62 -158.18,-28.33 -289.42,39.61 -377.33,102.03 -172.84,122.76 -346.31,324.18 -393.23,573.17z"/>
 </g>
</svg>
