<?xml version="1.0" encoding="UTF-8"?>
<!DOCTYPE svg PUBLIC "-//W3C//DTD SVG 1.1//EN" "http://www.w3.org/2000/svg">
<svg xmlns="http://www.w3.org/2000/svg" xml:space="preserve" width="42.3332mm" height="42.3332mm" version="1.1" style="shape-rendering:geometricPrecision; text-rendering:geometricPrecision; image-rendering:optimizeQuality; fill-rule:evenodd; clip-rule:evenodd"
viewBox="0 0 4233.32 4233.32">
 <g>
  <path d="M2562.88 2902.75c-4.56,-55.57 31.9,-328.86 53.68,-363.69 143.61,186.34 375.2,395.65 588.76,510.7l-642.44 -147.01zm-1527.08 150.53c53.01,-46.86 194.17,-118.73 319.45,-231.13 56.3,-50.52 93.19,-86.78 140.43,-137.72l112.19 -125.5c18.35,-16.77 -0.74,-4.31 23.74,-16.95l43.94 322.92c-16.67,10.05 -283.96,73.46 -329.84,86.9 -99.59,29.24 -218.2,80.96 -309.91,101.48zm581.36 539.2c51.97,-0.43 47.03,1.69 52.47,49.06 8.41,83.75 90.88,138.79 184.76,129.8l670.26 -106.79c11.38,-1.66 16.14,-2.84 35.11,-6.22l416.06 -66.58c95.21,-15.18 187.67,-28.3 283.51,-45 36.06,-6.29 51.93,-15.48 86.75,-34.12l94.66 -110.94c40.74,-108.28 11.43,-175.82 -34.58,-248.99 67.66,14 101.86,34.82 167.81,-10.38l35.4 -30.31c20.8,-27.33 34.27,-75.98 29.72,-115.69 -18.69,-163.27 -289.36,-135.95 -619.83,-656.21 -15.94,-25.11 -25.91,-37.12 -41,-65.07 -59.32,-109.89 -168.68,-318.31 -227.83,-410.65 -68.35,-106.74 -134.22,-210.21 -255.19,-276.89 -231.26,-127.52 -728.31,-106.94 -900.65,123.64 -71.58,95.76 -144.89,210.61 -203.89,328.18 -35.45,70.66 -177.34,330.63 -233.35,405.31l-95.96 116.82c-45.1,38.2 -138.47,149.1 -218.55,207.54 -51.92,37.92 -81.78,57.04 -126.36,85.99 -46.81,30.45 -85.94,50.11 -105.3,106.64 -22.51,65.73 -1.13,127.87 34.92,164.13 39.82,40.02 87.66,47.85 160.86,35.99 -102.49,154.03 -45.63,361.07 190.97,379.3 106.17,8.18 556.38,56.23 619.23,51.44zm433.29 -3072.63c-470.41,75.5 -505.13,731.51 -58.78,867.08 32.79,9.95 61.29,16.17 94.08,18.16l79.65 -1.11c284.09,-22.31 521.44,-350.87 336.11,-673.49 -19.06,-33.19 -16.47,-34.19 -45.07,-61.84 -97.81,-94.51 -206.08,-180.88 -405.99,-148.8z"/>
 </g>
</svg>
