<?xml version="1.0" encoding="UTF-8"?>
<!DOCTYPE svg PUBLIC "-//W3C//DTD SVG 1.1//EN" "http://www.w3.org">
<svg xmlns="http://www.w3.org/2000/svg" xml:space="preserve" width="34.5438mm" height="34.5438mm" version="1.1" style="shape-rendering:geometricPrecision; text-rendering:geometricPrecision; image-rendering:optimizeQuality; fill-rule:evenodd; clip-rule:evenodd"
viewBox="0 0 3454.38 3454.38">
 <defs>
  <style type="text/css">
    .fil3 {fill:#FEFEFE}
    .fil0 {fill:#EFB7B7}
    .fil2 {fill:#636161}
    .fil1 {fill:#D4CECE}
  </style>
 </defs>
 <g>
  <g>
   <ellipse class="fil0" cx="1727.19" cy="1727.19" rx="1693.34" ry="1693.33"/>
   <g>
    <path class="fil1" d="M1727.19 33.85c935.18,0 1693.34,758.15 1693.34,1693.34 0,935.18 -758.16,1693.33 -1693.34,1693.33 -935.19,0 -1693.34,-758.15 -1693.34,-1693.33 0,-935.19 758.15,-1693.34 1693.34,-1693.34z"/>
    <path id="1" class="fil2" d="M1727.19 33.85c0.53,0 1.05,0.02 1.58,0.02 -0.53,0 -1.05,-0.01 -1.58,-0.01 -0.53,0 -1.05,0.01 -1.58,0.01 0.53,0 1.05,-0.02 1.58,-0.02zm42.12 0.53c1.06,0.03 2.12,0.06 3.18,0.08 -1.06,-0.02 -2.12,-0.05 -3.18,-0.08zm43.41 1.61c1.07,0.06 2.15,0.11 3.22,0.17 -1.07,-0.06 -2.15,-0.11 -3.22,-0.17zm43.11 2.69c1.1,0.09 2.2,0.17 3.29,0.25 -1.09,-0.08 -2.19,-0.16 -3.29,-0.25zm42.8 3.76c1.13,0.12 2.26,0.23 3.39,0.35 -1.13,-0.12 -2.26,-0.23 -3.39,-0.35zm42.48 4.82c1.17,0.14 2.33,0.29 3.5,0.44 -1.17,-0.15 -2.33,-0.3 -3.5,-0.44zm42.15 5.85c1.21,0.18 2.41,0.37 3.61,0.55 -1.2,-0.18 -2.4,-0.37 -3.61,-0.55zm41.81 6.88c1.24,0.22 2.49,0.44 3.73,0.67 -1.24,-0.23 -2.49,-0.45 -3.73,-0.67zm41.45 7.89c1.29,0.27 2.58,0.53 3.87,0.79 -1.29,-0.26 -2.58,-0.52 -3.87,-0.79zm41.09 8.9c1.33,0.3 2.66,0.61 3.99,0.92 -1.33,-0.31 -2.66,-0.62 -3.99,-0.92zm40.7 9.88c1.38,0.35 2.75,0.7 4.13,1.06 -1.38,-0.36 -2.75,-0.71 -4.13,-1.06zm40.32 10.86c1.42,0.4 2.83,0.8 4.24,1.2 -1.41,-0.4 -2.82,-0.8 -4.24,-1.2zm39.92 11.81c1.45,0.45 2.9,0.9 4.35,1.36 -1.45,-0.46 -2.9,-0.91 -4.35,-1.36zm39.51 12.77c1.48,0.5 2.96,1 4.45,1.51 -1.49,-0.51 -2.97,-1.01 -4.45,-1.51zm39.07 13.7c1.52,0.55 3.03,1.11 4.55,1.67 -1.52,-0.56 -3.03,-1.12 -4.55,-1.67zm38.64 14.63c1.54,0.6 3.08,1.21 4.62,1.82 -1.54,-0.61 -3.08,-1.22 -4.62,-1.82zm38.18 15.53c1.57,0.66 3.13,1.32 4.69,1.98 -1.56,-0.66 -3.12,-1.32 -4.69,-1.98zm37.72 16.44c1.58,0.71 3.16,1.42 4.74,2.14 -1.58,-0.72 -3.16,-1.43 -4.74,-2.14zm37.24 17.31c1.6,0.77 3.19,1.54 4.78,2.31 -1.59,-0.77 -3.18,-1.54 -4.78,-2.31zm36.75 18.19c1.6,0.82 3.2,1.64 4.8,2.46 -1.6,-0.82 -3.2,-1.64 -4.8,-2.46zm36.24 19.05c1.61,0.87 3.22,1.74 4.82,2.62 -1.6,-0.88 -3.21,-1.75 -4.82,-2.62zm35.72 19.89c1.61,0.93 3.22,1.85 4.83,2.78 -1.61,-0.93 -3.22,-1.85 -4.83,-2.78zm35.19 20.73c1.61,0.97 3.22,1.95 4.82,2.93 -1.6,-0.98 -3.21,-1.96 -4.82,-2.93zm34.64 21.54c1.6,1.03 3.21,2.06 4.81,3.09 -1.6,-1.03 -3.21,-2.06 -4.81,-3.09zm34.07 22.35c1.6,1.08 3.2,2.16 4.8,3.24 -1.6,-1.08 -3.2,-2.16 -4.8,-3.24zm33.5 23.13c1.6,1.14 3.19,2.27 4.78,3.41 -1.59,-1.14 -3.18,-2.27 -4.78,-3.41zm32.91 23.92c1.59,1.18 3.18,2.37 4.77,3.56 -1.59,-1.19 -3.18,-2.38 -4.77,-3.56zm32.3 24.67c1.58,1.24 3.17,2.49 4.75,3.74 -1.58,-1.25 -3.17,-2.5 -4.75,-3.74zm31.67 25.42c1.59,1.31 3.17,2.61 4.75,3.92 -1.58,-1.31 -3.16,-2.61 -4.75,-3.92zm31.05 26.15c1.58,1.37 3.17,2.74 4.75,4.12 -1.58,-1.38 -3.17,-2.75 -4.75,-4.12zm30.39 26.87c1.59,1.44 3.18,2.88 4.76,4.33 -1.58,-1.45 -3.17,-2.89 -4.76,-4.33zm29.73 27.57c1.6,1.52 3.19,3.04 4.78,4.56 -1.59,-1.52 -3.18,-3.04 -4.78,-4.56zm29.05 28.26c1.6,1.6 3.21,3.2 4.81,4.81 -0.8,-0.81 -1.59,-1.62 -2.39,-2.42 -0.8,-0.8 -1.62,-1.59 -2.42,-2.39zm28.5 29.07c1.52,1.59 3.05,3.19 4.57,4.79 -1.52,-1.6 -3.05,-3.2 -4.57,-4.79zm27.8 29.74c1.45,1.59 2.9,3.19 4.34,4.78 -1.44,-1.59 -2.89,-3.19 -4.34,-4.78zm27.07 30.4c1.39,1.59 2.77,3.18 4.14,4.78 -1.37,-1.59 -2.75,-3.19 -4.14,-4.78zm26.35 31.04c1.32,1.59 2.63,3.19 3.95,4.79 -1.32,-1.6 -2.63,-3.2 -3.95,-4.79zm25.6 31.67c1.26,1.6 2.52,3.2 3.77,4.8 -1.25,-1.6 -2.51,-3.2 -3.77,-4.8zm24.84 32.28c1.21,1.61 2.41,3.21 3.61,4.83 -1.2,-1.61 -2.4,-3.22 -3.61,-4.83zm24.07 32.89c1.16,1.61 2.31,3.23 3.45,4.85 -1.14,-1.62 -2.29,-3.24 -3.45,-4.85zm23.3 33.47c1.1,1.63 2.2,3.25 3.29,4.88 -1.09,-1.63 -2.19,-3.25 -3.29,-4.88zm22.5 34.06c1.05,1.63 2.1,3.26 3.14,4.9 -1.04,-1.64 -2.09,-3.27 -3.14,-4.9zm21.7 34.63c1,1.63 1.99,3.27 2.98,4.91 -0.99,-1.64 -1.98,-3.28 -2.98,-4.91zm20.88 35.18c0.94,1.64 1.89,3.28 2.83,4.92 -0.94,-1.64 -1.89,-3.28 -2.83,-4.92zm20.05 35.72c0.89,1.64 1.78,3.28 2.67,4.92 -0.89,-1.64 -1.78,-3.28 -2.67,-4.92zm19.2 36.26c0.85,1.63 1.68,3.27 2.52,4.9 -0.84,-1.63 -1.67,-3.27 -2.52,-4.9zm18.35 36.77c0.79,1.63 1.58,3.25 2.36,4.88 -0.78,-1.63 -1.57,-3.25 -2.36,-4.88zm17.48 37.28c0.74,1.61 1.47,3.23 2.19,4.84 -0.72,-1.61 -1.45,-3.23 -2.19,-4.84zm16.6 37.77c0.68,1.6 1.35,3.19 2.03,4.79 -0.68,-1.6 -1.35,-3.19 -2.03,-4.79zm15.7 38.25c0.62,1.58 1.24,3.15 1.86,4.72 -0.62,-1.57 -1.24,-3.14 -1.86,-4.72zm14.78 38.72c0.57,1.54 1.14,3.09 1.7,4.64 -0.56,-1.55 -1.13,-3.1 -1.7,-4.64zm13.87 39.17c0.51,1.51 1.02,3.03 1.53,4.54 -0.51,-1.51 -1.02,-3.03 -1.53,-4.54zm12.92 39.61c0.46,1.48 0.92,2.96 1.38,4.44 -0.46,-1.48 -0.92,-2.96 -1.38,-4.44zm11.97 40.03c0.41,1.44 0.82,2.88 1.22,4.32 -0.4,-1.44 -0.81,-2.88 -1.22,-4.32zm11 40.44c0.36,1.4 0.72,2.8 1.08,4.2 -0.36,-1.4 -0.72,-2.8 -1.08,-4.2zm10.02 40.84c0.31,1.35 0.63,2.71 0.94,4.06 -0.31,-1.35 -0.63,-2.71 -0.94,-4.06zm9.03 41.22c0.27,1.31 0.53,2.61 0.8,3.92 -0.27,-1.31 -0.53,-2.61 -0.8,-3.92zm8.02 41.59c0.22,1.26 0.45,2.52 0.67,3.78 -0.22,-1.26 -0.45,-2.52 -0.67,-3.78zm7 41.94c0.18,1.21 0.37,2.43 0.55,3.64 -0.18,-1.21 -0.37,-2.43 -0.55,-3.64zm5.96 42.27c0.15,1.17 0.3,2.34 0.45,3.52 -0.15,-1.18 -0.3,-2.35 -0.45,-3.52zm4.91 42.59c0.12,1.13 0.23,2.27 0.35,3.4 -0.12,-1.13 -0.23,-2.27 -0.35,-3.4zm3.86 42.9c0.08,1.1 0.16,2.2 0.25,3.3 -0.09,-1.1 -0.17,-2.2 -0.25,-3.3zm2.77 43.18c0.06,1.08 0.11,2.16 0.17,3.23 -0.06,-1.07 -0.11,-2.15 -0.17,-3.23zm1.7 43.46c0.02,1.06 0.05,2.12 0.08,3.18 -0.03,-1.06 -0.06,-2.12 -0.08,-3.18zm0.59 43.72c0,0.53 0.02,1.05 0.02,1.58 0,0.53 -0.02,1.05 -0.02,1.58 0,-0.53 0.01,-1.05 0.01,-1.58 0,-0.53 -0.01,-1.05 -0.01,-1.58zm-0.51 43.7c-0.03,1.06 -0.06,2.12 -0.08,3.17 0.02,-1.05 0.05,-2.11 0.08,-3.17zm-1.61 43.41c-0.06,1.07 -0.11,2.15 -0.17,3.22 0.06,-1.07 0.11,-2.15 0.17,-3.22zm-2.69 43.12c-0.09,1.09 -0.17,2.18 -0.25,3.28 0.08,-1.1 0.16,-2.19 0.25,-3.28zm-3.76 42.8c-0.12,1.12 -0.23,2.24 -0.35,3.37 0.12,-1.13 0.23,-2.25 0.35,-3.37zm-4.82 42.49c-0.14,1.15 -0.29,2.31 -0.44,3.46 0.15,-1.15 0.3,-2.31 0.44,-3.46zm-5.85 42.15c-0.18,1.19 -0.36,2.38 -0.55,3.57 0.19,-1.19 0.37,-2.38 0.55,-3.57zm-6.88 41.82c-0.22,1.22 -0.44,2.45 -0.66,3.68 0.22,-1.23 0.44,-2.46 0.66,-3.68zm-7.9 41.45c-0.26,1.27 -0.52,2.54 -0.78,3.8 0.26,-1.26 0.52,-2.53 0.78,-3.8zm-8.9 41.09c-0.3,1.31 -0.6,2.62 -0.9,3.93 0.3,-1.31 0.6,-2.62 0.9,-3.93zm-9.88 40.72c-0.35,1.34 -0.69,2.69 -1.04,4.04 0.35,-1.35 0.7,-2.7 1.04,-4.04zm-10.86 40.32c-0.39,1.38 -0.78,2.77 -1.18,4.15 0.4,-1.38 0.79,-2.77 1.18,-4.15zm-11.82 39.92c-0.44,1.42 -0.88,2.84 -1.32,4.26 0.44,-1.42 0.88,-2.84 1.32,-4.26zm-12.77 39.51c-0.49,1.45 -0.98,2.9 -1.47,4.35 0.49,-1.45 0.98,-2.9 1.47,-4.35zm-13.7 39.08c-0.54,1.48 -1.08,2.95 -1.63,4.43 0.55,-1.48 1.09,-2.95 1.63,-4.43zm-14.63 38.64c-0.59,1.5 -1.18,3 -1.78,4.5 0.6,-1.5 1.19,-3 1.78,-4.5zm-15.54 38.19c-0.64,1.52 -1.28,3.04 -1.93,4.55 0.65,-1.51 1.29,-3.03 1.93,-4.55zm-16.44 37.73c-0.69,1.53 -1.38,3.06 -2.08,4.59 0.7,-1.53 1.39,-3.06 2.08,-4.59zm-17.33 37.25c-0.73,1.53 -1.47,3.07 -2.22,4.6 0.75,-1.53 1.49,-3.07 2.22,-4.6zm-18.19 36.76c-0.79,1.54 -1.58,3.07 -2.37,4.61 0.79,-1.54 1.58,-3.08 2.37,-4.61zm-19.06 36.25c-0.83,1.54 -1.67,3.07 -2.5,4.6 0.83,-1.53 1.67,-3.06 2.5,-4.6zm-19.91 35.74c-0.87,1.53 -1.75,3.05 -2.62,4.56 0.87,-1.51 1.75,-3.03 2.62,-4.56zm-20.74 35.21c-0.92,1.51 -1.83,3.01 -2.74,4.51 0.91,-1.5 1.82,-3 2.74,-4.51zm-21.57 34.67c-0.95,1.48 -1.9,2.96 -2.85,4.44 0.95,-1.48 1.9,-2.96 2.85,-4.44zm-22.38 34.11c-0.98,1.45 -1.96,2.91 -2.94,4.36 0.98,-1.45 1.96,-2.91 2.94,-4.36zm-23.17 33.54c-1.01,1.42 -2.02,2.84 -3.03,4.26 1.01,-1.42 2.02,-2.84 3.03,-4.26zm-23.95 32.95c-1.04,1.39 -2.07,2.77 -3.11,4.16 1.04,-1.39 2.07,-2.77 3.11,-4.16zm-24.73 32.35c-1.06,1.35 -2.11,2.69 -3.17,4.04 1.06,-1.35 2.11,-2.69 3.17,-4.04zm-25.48 31.74c-1.08,1.3 -2.15,2.61 -3.23,3.91 1.08,-1.3 2.15,-2.61 3.23,-3.91zm-26.23 31.11c-1.09,1.26 -2.18,2.52 -3.27,3.77 1.09,-1.25 2.18,-2.51 3.27,-3.77zm-26.95 30.47c-1.1,1.21 -2.21,2.42 -3.31,3.63 1.1,-1.21 2.21,-2.42 3.31,-3.63zm-27.67 29.81c-1.11,1.16 -2.22,2.33 -3.34,3.49 1.12,-1.16 2.23,-2.33 3.34,-3.49zm-28.38 29.14c-1.11,1.12 -2.23,2.23 -3.35,3.35 0.56,-0.55 1.12,-1.1 1.68,-1.66 0.56,-0.56 1.11,-1.13 1.67,-1.69zm-29.05 28.45c-1.13,1.07 -2.26,2.15 -3.39,3.22 1.13,-1.07 2.26,-2.15 3.39,-3.22zm-29.72 27.73c-1.14,1.05 -2.29,2.09 -3.43,3.13 1.14,-1.04 2.29,-2.08 3.43,-3.13zm-30.36 27.02c-1.17,1.02 -2.34,2.03 -3.5,3.04 1.16,-1.01 2.33,-2.02 3.5,-3.04zm-31.01 26.29c-1.19,0.99 -2.38,1.97 -3.58,2.96 1.2,-0.99 2.39,-1.97 3.58,-2.96zm-31.63 25.55c-1.22,0.96 -2.44,1.92 -3.67,2.88 1.23,-0.96 2.45,-1.92 3.67,-2.88zm-32.25 24.79c-1.25,0.94 -2.5,1.88 -3.76,2.81 1.26,-0.93 2.51,-1.87 3.76,-2.81zm-32.85 24.03c-1.28,0.92 -2.57,1.83 -3.86,2.74 1.29,-0.91 2.58,-1.82 3.86,-2.74zm-33.44 23.25c-1.32,0.89 -2.63,1.78 -3.95,2.67 1.32,-0.89 2.63,-1.78 3.95,-2.67zm-34.02 22.46c-1.35,0.87 -2.7,1.74 -4.05,2.6 1.35,-0.86 2.7,-1.73 4.05,-2.6zm-34.59 21.67c-1.38,0.84 -2.76,1.67 -4.14,2.51 1.38,-0.84 2.76,-1.67 4.14,-2.51zm-35.15 20.84c-1.4,0.81 -2.81,1.62 -4.21,2.42 1.4,-0.8 2.81,-1.61 4.21,-2.42zm-35.69 20.02c-1.43,0.78 -2.85,1.55 -4.28,2.32 1.43,-0.77 2.85,-1.54 4.28,-2.32zm-36.22 19.18c-1.45,0.74 -2.89,1.48 -4.33,2.22 1.44,-0.74 2.88,-1.48 4.33,-2.22zm-36.75 18.33c-1.45,0.7 -2.9,1.4 -4.36,2.1 1.46,-0.7 2.91,-1.4 4.36,-2.1zm-37.25 17.46c-1.46,0.66 -2.92,1.32 -4.38,1.98 1.46,-0.66 2.92,-1.32 4.38,-1.98zm-37.74 16.57c-1.46,0.62 -2.92,1.24 -4.39,1.86 1.47,-0.62 2.93,-1.24 4.39,-1.86zm-38.23 15.68c-1.45,0.58 -2.91,1.15 -4.37,1.73 1.46,-0.58 2.92,-1.15 4.37,-1.73zm-38.69 14.78c-1.44,0.53 -2.89,1.05 -4.33,1.58 1.44,-0.53 2.89,-1.05 4.33,-1.58zm-39.15 13.84c-1.42,0.49 -2.85,0.97 -4.28,1.45 1.43,-0.48 2.86,-0.96 4.28,-1.45zm-39.59 12.92c-1.4,0.43 -2.81,0.87 -4.21,1.31 1.4,-0.44 2.81,-0.88 4.21,-1.31zm-40.01 11.96c-1.38,0.39 -2.75,0.78 -4.13,1.17 1.38,-0.39 2.75,-0.78 4.13,-1.17zm-40.43 10.99c-1.34,0.35 -2.69,0.7 -4.03,1.04 1.34,-0.34 2.69,-0.69 4.03,-1.04zm-40.82 10.02c-1.31,0.3 -2.62,0.6 -3.93,0.91 1.31,-0.31 2.62,-0.61 3.93,-0.91zm-41.21 9.02c-1.27,0.26 -2.54,0.52 -3.82,0.78 1.28,-0.26 2.55,-0.52 3.82,-0.78zm-41.57 8.02c-1.24,0.22 -2.47,0.44 -3.71,0.66 1.24,-0.22 2.47,-0.44 3.71,-0.66zm-41.93 6.99c-1.19,0.18 -2.39,0.37 -3.59,0.55 1.2,-0.18 2.4,-0.37 3.59,-0.55zm-42.26 5.96c-1.16,0.15 -2.32,0.3 -3.48,0.44 1.16,-0.14 2.32,-0.29 3.48,-0.44zm-42.58 4.91c-1.13,0.12 -2.26,0.23 -3.39,0.35 1.13,-0.12 2.26,-0.23 3.39,-0.35zm-42.9 3.86c-1.09,0.08 -2.19,0.16 -3.29,0.25 1.1,-0.09 2.2,-0.17 3.29,-0.25zm-43.18 2.77c-1.07,0.06 -2.15,0.11 -3.22,0.17 1.07,-0.06 2.15,-0.11 3.22,-0.17zm-43.45 1.7c-1.06,0.02 -2.12,0.05 -3.18,0.08 1.06,-0.03 2.12,-0.06 3.18,-0.08zm-43.72 0.59c-0.53,0 -1.05,0.02 -1.58,0.02 -0.53,0 -1.05,-0.02 -1.58,-0.02 0.53,0 1.05,0.01 1.58,0.01 0.53,0 1.05,-0.01 1.58,-0.01zm-43.7 -0.51c-1.06,-0.03 -2.12,-0.06 -3.18,-0.08 1.06,0.02 2.12,0.05 3.18,0.08zm-43.4 -1.61c-1.08,-0.06 -2.16,-0.11 -3.24,-0.17 1.08,0.06 2.16,0.11 3.24,0.17zm-43.11 -2.69c-1.11,-0.09 -2.21,-0.17 -3.32,-0.26 1.11,0.09 2.21,0.17 3.32,0.26zm-42.79 -3.76c-1.15,-0.12 -2.29,-0.23 -3.44,-0.35 1.15,0.12 2.29,0.23 3.44,0.35zm-42.47 -4.81c-1.19,-0.15 -2.38,-0.3 -3.56,-0.46 1.18,0.16 2.37,0.31 3.56,0.46zm-42.14 -5.85c-1.24,-0.19 -2.47,-0.38 -3.7,-0.57 1.23,0.19 2.46,0.38 3.7,0.57zm-41.8 -6.88c-1.28,-0.23 -2.56,-0.46 -3.85,-0.69 1.29,0.23 2.57,0.46 3.85,0.69zm-41.44 -7.89c-1.33,-0.27 -2.66,-0.55 -4,-0.82 1.34,0.27 2.67,0.55 4,0.82zm-41.08 -8.89c-1.38,-0.32 -2.76,-0.64 -4.14,-0.96 1.38,0.32 2.76,0.64 4.14,0.96zm-40.71 -9.88c-1.42,-0.37 -2.84,-0.73 -4.27,-1.1 1.43,0.37 2.85,0.73 4.27,1.1zm-40.31 -10.85c-1.47,-0.42 -2.93,-0.84 -4.4,-1.25 1.47,0.41 2.93,0.83 4.4,1.25zm-39.92 -11.82c-1.5,-0.47 -3.01,-0.93 -4.51,-1.4 1.5,0.47 3.01,0.93 4.51,1.4zm-39.51 -12.77c-1.53,-0.51 -3.06,-1.03 -4.6,-1.55 1.54,0.52 3.07,1.04 4.6,1.55zm-39.09 -13.7c-1.55,-0.57 -3.11,-1.14 -4.66,-1.71 1.55,0.57 3.11,1.14 4.66,1.71zm-38.65 -14.63c-1.57,-0.62 -3.14,-1.24 -4.71,-1.86 1.57,0.62 3.14,1.24 4.71,1.86zm-38.21 -15.54c-1.57,-0.67 -3.15,-1.34 -4.73,-2.01 1.58,0.67 3.16,1.34 4.73,2.01zm-37.74 -16.45c-1.58,-0.71 -3.15,-1.42 -4.73,-2.14 1.58,0.72 3.15,1.43 4.73,2.14zm-37.28 -17.33c-1.57,-0.76 -3.13,-1.51 -4.69,-2.26 1.56,0.75 3.12,1.5 4.69,2.26zm-36.79 -18.22c-1.55,-0.78 -3.09,-1.58 -4.63,-2.37 1.54,0.79 3.08,1.59 4.63,2.37zm-36.29 -19.07c-1.52,-0.82 -3.03,-1.65 -4.55,-2.47 1.52,0.82 3.03,1.65 4.55,2.47zm-35.78 -19.93c-1.48,-0.85 -2.96,-1.7 -4.44,-2.56 1.48,0.86 2.96,1.71 4.44,2.56zm-35.25 -20.77c-1.44,-0.87 -2.87,-1.74 -4.31,-2.62 1.44,0.88 2.87,1.75 4.31,2.62zm-34.71 -21.6c-1.39,-0.88 -2.77,-1.77 -4.15,-2.66 1.38,0.89 2.76,1.78 4.15,2.66zm-34.15 -22.41c-1.33,-0.89 -2.66,-1.79 -3.99,-2.69 1.33,0.9 2.66,1.8 3.99,2.69zm-33.59 -23.21c-1.26,-0.89 -2.53,-1.79 -3.79,-2.69 1.26,0.9 2.53,1.8 3.79,2.69zm-33 -23.99c-1.2,-0.9 -2.39,-1.79 -3.59,-2.69 1.2,0.9 2.39,1.79 3.59,2.69zm-32.4 -24.78c-1.13,-0.88 -2.25,-1.77 -3.38,-2.65 1.13,0.88 2.25,1.77 3.38,2.65zm-31.78 -25.53c-1.06,-0.87 -2.11,-1.74 -3.17,-2.61 1.06,0.87 2.11,1.74 3.17,2.61zm-31.16 -26.28c-0.98,-0.85 -1.96,-1.7 -2.94,-2.55 0.98,0.85 1.96,1.7 2.94,2.55zm-30.51 -27.01c-0.9,-0.82 -1.81,-1.65 -2.72,-2.47 0.91,0.82 1.82,1.65 2.72,2.47zm-29.84 -27.72c-0.84,-0.8 -1.68,-1.6 -2.51,-2.4 0.83,0.8 1.67,1.6 2.51,2.4zm-29.18 -28.43c-0.77,-0.77 -1.54,-1.54 -2.31,-2.31 0.39,0.38 0.76,0.77 1.15,1.16 0.39,0.39 0.78,0.76 1.16,1.15zm-28.33 -28.96c-0.81,-0.85 -1.61,-1.69 -2.42,-2.54 0.81,0.85 1.61,1.69 2.42,2.54zm-27.64 -29.63c-0.84,-0.92 -1.67,-1.84 -2.51,-2.76 0.84,0.92 1.67,1.84 2.51,2.76zm-26.93 -30.28c-0.86,-1 -1.73,-2 -2.59,-3 0.86,1 1.73,2 2.59,3zm-26.21 -30.93c-0.89,-1.08 -1.78,-2.15 -2.66,-3.22 0.88,1.07 1.77,2.14 2.66,3.22zm-25.49 -31.57c-0.9,-1.15 -1.8,-2.29 -2.7,-3.44 0.9,1.15 1.8,2.29 2.7,3.44zm-24.75 -32.19c-0.91,-1.22 -1.81,-2.43 -2.72,-3.64 0.91,1.21 1.81,2.42 2.72,3.64zm-23.99 -32.81c-0.91,-1.27 -1.82,-2.55 -2.72,-3.82 0.9,1.27 1.81,2.55 2.72,3.82zm-23.23 -33.4c-0.9,-1.33 -1.8,-2.67 -2.7,-4 0.9,1.33 1.8,2.67 2.7,4zm-22.44 -33.99c-0.89,-1.39 -1.78,-2.77 -2.66,-4.16 0.88,1.39 1.77,2.77 2.66,4.16zm-21.65 -34.57c-0.87,-1.43 -1.74,-2.85 -2.6,-4.28 0.86,1.42 1.73,2.85 2.6,4.28zm-20.84 -35.13c-0.84,-1.46 -1.69,-2.93 -2.53,-4.4 0.84,1.47 1.69,2.94 2.53,4.4zm-20.01 -35.68c-0.82,-1.49 -1.63,-2.99 -2.44,-4.48 0.81,1.49 1.62,2.99 2.44,4.48zm-19.18 -36.22c-0.78,-1.51 -1.56,-3.03 -2.33,-4.54 0.77,1.51 1.55,3.03 2.33,4.54zm-18.33 -36.73c-0.74,-1.53 -1.48,-3.06 -2.21,-4.6 0.73,1.54 1.47,3.07 2.21,4.6zm-17.46 -37.26c-0.7,-1.53 -1.39,-3.07 -2.08,-4.6 0.69,1.53 1.38,3.07 2.08,4.6zm-16.58 -37.75c-0.65,-1.53 -1.3,-3.06 -1.95,-4.59 0.65,1.53 1.3,3.06 1.95,4.59zm-15.69 -38.23c-0.6,-1.52 -1.2,-3.04 -1.8,-4.56 0.6,1.52 1.2,3.04 1.8,4.56zm-14.78 -38.7c-0.55,-1.5 -1.1,-3.01 -1.65,-4.51 0.55,1.5 1.1,3.01 1.65,4.51zm-13.86 -39.16c-0.5,-1.48 -1,-2.96 -1.5,-4.44 0.5,1.48 1,2.96 1.5,4.44zm-12.91 -39.6c-0.46,-1.45 -0.91,-2.9 -1.36,-4.35 0.45,1.45 0.9,2.9 1.36,4.35zm-11.97 -40.02c-0.4,-1.42 -0.8,-2.83 -1.21,-4.25 0.41,1.42 0.81,2.83 1.21,4.25zm-11 -40.44c-0.35,-1.38 -0.71,-2.75 -1.06,-4.13 0.35,1.38 0.71,2.75 1.06,4.13zm-10.02 -40.83c-0.31,-1.34 -0.62,-2.67 -0.92,-4.01 0.3,1.34 0.61,2.67 0.92,4.01zm-9.02 -41.22c-0.27,-1.29 -0.53,-2.58 -0.8,-3.88 0.27,1.3 0.53,2.59 0.8,3.88zm-8.02 -41.58c-0.23,-1.25 -0.45,-2.5 -0.67,-3.75 0.22,1.25 0.44,2.5 0.67,3.75zm-7 -41.93c-0.18,-1.21 -0.37,-2.42 -0.55,-3.62 0.18,1.2 0.37,2.41 0.55,3.62zm-5.96 -42.27c-0.15,-1.17 -0.3,-2.33 -0.44,-3.5 0.14,1.17 0.29,2.33 0.44,3.5zm-4.91 -42.59c-0.12,-1.13 -0.23,-2.26 -0.35,-3.39 0.12,1.13 0.23,2.26 0.35,3.39zm-3.86 -42.89c-0.08,-1.1 -0.16,-2.2 -0.25,-3.3 0.09,1.1 0.17,2.2 0.25,3.3zm-2.77 -43.19c-0.06,-1.07 -0.11,-2.15 -0.17,-3.22 0.06,1.07 0.11,2.15 0.17,3.22zm-1.7 -43.45c-0.02,-1.06 -0.05,-2.12 -0.08,-3.18 0.03,1.06 0.06,2.12 0.08,3.18zm-0.59 -43.72c0,-0.53 -0.02,-1.05 -0.02,-1.58 0,-0.53 0.02,-1.05 0.02,-1.58 0,0.53 -0.01,1.05 -0.01,1.58 0,0.53 0.01,1.05 0.01,1.58zm0.51 -43.7c0.03,-1.06 0.06,-2.12 0.08,-3.17 -0.02,1.05 -0.05,2.11 -0.08,3.17zm1.61 -43.42c0.06,-1.07 0.11,-2.14 0.17,-3.21 -0.06,1.07 -0.11,2.14 -0.17,3.21zm2.69 -43.11c0.09,-1.09 0.17,-2.18 0.25,-3.27 -0.08,1.09 -0.16,2.18 -0.25,3.27zm3.76 -42.81c0.12,-1.12 0.23,-2.23 0.34,-3.34 -0.11,1.11 -0.22,2.22 -0.34,3.34zm4.82 -42.5c0.14,-1.14 0.29,-2.28 0.44,-3.42 -0.15,1.14 -0.3,2.28 -0.44,3.42zm5.86 -42.16c0.17,-1.17 0.35,-2.35 0.53,-3.52 -0.18,1.17 -0.36,2.35 -0.53,3.52zm6.88 -41.82c0.21,-1.2 0.43,-2.41 0.65,-3.62 -0.22,1.21 -0.44,2.42 -0.65,3.62zm7.9 -41.46c0.25,-1.24 0.5,-2.49 0.76,-3.73 -0.26,1.24 -0.51,2.49 -0.76,3.73zm8.9 -41.1c0.29,-1.28 0.58,-2.55 0.88,-3.83 -0.3,1.28 -0.59,2.55 -0.88,3.83zm9.88 -40.73c0.34,-1.3 0.67,-2.61 1.01,-3.92 -0.34,1.31 -0.67,2.62 -1.01,3.92zm10.87 -40.33c0.37,-1.34 0.75,-2.67 1.13,-4.01 -0.38,1.34 -0.76,2.67 -1.13,4.01zm11.82 -39.94c0.42,-1.36 0.85,-2.72 1.27,-4.08 -0.42,1.36 -0.85,2.72 -1.27,4.08zm12.78 -39.52c0.46,-1.38 0.93,-2.77 1.4,-4.15 -0.47,1.38 -0.94,2.77 -1.4,4.15zm13.71 -39.1c0.51,-1.4 1.03,-2.8 1.54,-4.2 -0.51,1.4 -1.03,2.8 -1.54,4.2zm14.64 -38.66c0.56,-1.41 1.11,-2.82 1.67,-4.23 -0.56,1.41 -1.11,2.82 -1.67,4.23zm15.55 -38.21c0.6,-1.41 1.2,-2.83 1.8,-4.24 -0.6,1.41 -1.2,2.83 -1.8,4.24zm16.45 -37.74c0.64,-1.42 1.28,-2.83 1.92,-4.25 -0.64,1.42 -1.28,2.83 -1.92,4.25zm17.34 -37.27c0.68,-1.41 1.36,-2.82 2.04,-4.23 -0.68,1.41 -1.36,2.82 -2.04,4.23zm18.22 -36.79c0.71,-1.39 1.42,-2.78 2.14,-4.17 -0.72,1.39 -1.43,2.78 -2.14,4.17zm19.08 -36.28c0.74,-1.37 1.48,-2.74 2.23,-4.11 -0.75,1.37 -1.49,2.74 -2.23,4.11zm19.93 -35.77c0.77,-1.34 1.54,-2.68 2.31,-4.02 -0.77,1.34 -1.54,2.68 -2.31,4.02zm20.77 -35.24c0.79,-1.3 1.58,-2.61 2.37,-3.91 -0.79,1.3 -1.58,2.61 -2.37,3.91zm21.59 -34.69c0.81,-1.27 1.62,-2.53 2.43,-3.79 -0.81,1.26 -1.62,2.52 -2.43,3.79zm22.41 -34.14c0.82,-1.22 1.64,-2.44 2.46,-3.65 -0.82,1.21 -1.64,2.43 -2.46,3.65zm23.21 -33.57c0.82,-1.17 1.65,-2.33 2.47,-3.49 -0.82,1.16 -1.65,2.32 -2.47,3.49zm23.99 -32.99c0.82,-1.1 1.65,-2.21 2.48,-3.31 -0.83,1.1 -1.66,2.21 -2.48,3.31zm24.77 -32.39c0.82,-1.04 1.63,-2.08 2.45,-3.12 -0.82,1.04 -1.63,2.08 -2.45,3.12zm25.53 -31.77c0.8,-0.98 1.61,-1.95 2.41,-2.93 -0.8,0.98 -1.61,1.95 -2.41,2.93zm26.27 -31.15c0.79,-0.91 1.58,-1.81 2.36,-2.72 -0.78,0.91 -1.57,1.81 -2.36,2.72zm27.01 -30.5c0.76,-0.84 1.53,-1.68 2.29,-2.52 -0.76,0.84 -1.53,1.68 -2.29,2.52zm27.73 -29.85c0.73,-0.77 1.47,-1.54 2.2,-2.3 -0.73,0.76 -1.47,1.53 -2.2,2.3zm28.44 -29.17c0.7,-0.7 1.4,-1.4 2.1,-2.1 -0.35,0.35 -0.71,0.69 -1.06,1.04 -0.35,0.35 -0.69,0.71 -1.04,1.06zm28.97 -28.34c0.76,-0.73 1.53,-1.47 2.3,-2.2 -0.77,0.73 -1.54,1.47 -2.3,2.2zm29.63 -27.64c0.84,-0.76 1.68,-1.53 2.52,-2.29 -0.84,0.76 -1.68,1.53 -2.52,2.29zm30.3 -26.94c0.91,-0.78 1.81,-1.57 2.72,-2.36 -0.91,0.79 -1.81,1.58 -2.72,2.36zm30.94 -26.22c0.98,-0.8 1.95,-1.61 2.93,-2.41 -0.98,0.8 -1.95,1.61 -2.93,2.41zm31.58 -25.49c1.04,-0.82 2.08,-1.63 3.12,-2.45 -1.04,0.82 -2.08,1.63 -3.12,2.45zm32.2 -24.74c1.1,-0.83 2.21,-1.66 3.31,-2.48 -1.1,0.82 -2.21,1.65 -3.31,2.48zm32.81 -24c1.16,-0.82 2.32,-1.65 3.49,-2.47 -1.17,0.82 -2.33,1.65 -3.49,2.47zm33.41 -23.22c1.21,-0.82 2.43,-1.64 3.65,-2.46 -1.22,0.82 -2.44,1.64 -3.65,2.46zm34 -22.44c1.26,-0.81 2.52,-1.62 3.79,-2.43 -1.27,0.81 -2.53,1.62 -3.79,2.43zm34.57 -21.65c1.3,-0.79 2.61,-1.58 3.91,-2.37 -1.3,0.79 -2.61,1.58 -3.91,2.37zm35.13 -20.83c1.34,-0.77 2.68,-1.54 4.02,-2.31 -1.34,0.77 -2.68,1.54 -4.02,2.31zm35.68 -20.01c1.37,-0.75 2.74,-1.49 4.11,-2.23 -1.37,0.74 -2.74,1.48 -4.11,2.23zm36.22 -19.17c1.39,-0.72 2.78,-1.43 4.17,-2.14 -1.39,0.71 -2.78,1.42 -4.17,2.14zm36.73 -18.32c1.41,-0.68 2.82,-1.36 4.23,-2.04 -1.41,0.68 -2.82,1.36 -4.23,2.04zm37.25 -17.46c1.42,-0.64 2.83,-1.28 4.25,-1.92 -1.42,0.64 -2.83,1.28 -4.25,1.92zm37.75 -16.57c1.41,-0.6 2.83,-1.2 4.24,-1.8 -1.41,0.6 -2.83,1.2 -4.24,1.8zm38.22 -15.68c1.41,-0.56 2.82,-1.11 4.23,-1.67 -1.41,0.56 -2.82,1.11 -4.23,1.67zm38.69 -14.77c1.4,-0.51 2.8,-1.03 4.2,-1.54 -1.4,0.51 -2.8,1.03 -4.2,1.54zm39.15 -13.85c1.38,-0.47 2.77,-0.94 4.15,-1.4 -1.38,0.46 -2.77,0.93 -4.15,1.4zm39.59 -12.91c1.36,-0.42 2.72,-0.85 4.08,-1.27 -1.36,0.42 -2.72,0.85 -4.08,1.27zm40.01 -11.96c1.34,-0.38 2.67,-0.76 4.01,-1.13 -1.34,0.37 -2.67,0.75 -4.01,1.13zm40.42 -10.99c1.31,-0.34 2.62,-0.67 3.92,-1.01 -1.3,0.34 -2.61,0.67 -3.92,1.01zm40.82 -10.01c1.28,-0.3 2.55,-0.59 3.83,-0.88 -1.28,0.29 -2.55,0.58 -3.83,0.88zm41.2 -9.02c1.24,-0.26 2.49,-0.51 3.73,-0.76 -1.24,0.25 -2.49,0.5 -3.73,0.76zm41.57 -8.01c1.21,-0.22 2.42,-0.44 3.62,-0.65 -1.2,0.21 -2.41,0.43 -3.62,0.65zm41.92 -7c1.17,-0.18 2.35,-0.36 3.52,-0.53 -1.17,0.17 -2.35,0.35 -3.52,0.53zm42.26 -5.95c1.14,-0.15 2.28,-0.3 3.42,-0.44 -1.14,0.14 -2.28,0.29 -3.42,0.44zm42.58 -4.92c1.11,-0.11 2.22,-0.22 3.34,-0.34 -1.12,0.12 -2.23,0.23 -3.34,0.34zm42.88 -3.85c1.09,-0.08 2.18,-0.16 3.27,-0.25 -1.09,0.09 -2.18,0.17 -3.27,0.25zm43.17 -2.77c1.07,-0.06 2.14,-0.11 3.21,-0.17 -1.07,0.06 -2.14,0.11 -3.21,0.17zm43.46 -1.7c1.05,-0.02 2.11,-0.05 3.17,-0.08 -1.06,0.03 -2.12,0.06 -3.17,0.08z"/>
   </g>
   <g>
    <g>
     <path class="fil3" d="M1975.2 2167.51c-2.62,-31.78 18.24,-188.07 30.7,-207.99 82.13,106.57 214.56,226.27 336.7,292.05l-367.4 -84.06zm-873.31 86.09c30.31,-26.81 111.04,-67.9 182.68,-132.19 32.19,-28.89 53.3,-49.61 80.32,-78.75l64.15 -71.78c10.5,-9.59 -0.42,-2.46 13.58,-9.69l25.13 184.67c-9.53,5.76 -162.4,42.01 -188.63,49.7 -56.97,16.72 -124.78,46.3 -177.23,58.04zm332.46 308.35c29.73,-0.24 26.9,0.97 30.01,28.06 4.81,47.89 51.98,79.37 105.66,74.24l383.31 -61.08c6.51,-0.95 9.23,-1.63 20.08,-3.56l237.94 -38.07c54.44,-8.69 107.33,-16.18 162.14,-25.74 20.62,-3.6 29.69,-8.85 49.61,-19.52l54.13 -63.44c23.3,-61.92 6.53,-100.54 -19.77,-142.39 38.69,8 58.25,19.91 95.96,-5.93l20.25 -17.33c11.89,-15.64 19.6,-43.45 17,-66.16 -10.69,-93.39 -165.49,-77.75 -354.48,-375.29 -9.11,-14.35 -14.82,-21.23 -23.44,-37.2 -33.93,-62.85 -96.47,-182.04 -130.29,-234.86 -39.09,-61.03 -76.76,-120.2 -145.94,-158.34 -132.26,-72.92 -416.51,-61.16 -515.08,70.71 -40.93,54.76 -82.85,120.45 -116.59,187.69 -20.28,40.4 -101.42,189.07 -133.46,231.78l-54.88 66.81c-25.79,21.85 -79.18,85.26 -124.97,118.69 -29.7,21.69 -46.78,32.61 -72.27,49.18 -26.78,17.4 -49.15,28.65 -60.23,60.98 -12.87,37.58 -0.64,73.12 19.99,93.86 22.76,22.89 50.12,27.36 91.99,20.57 -58.62,88.1 -26.1,206.5 109.2,216.92 60.72,4.68 318.19,32.16 354.13,29.42z"/>
     <path id="1" class="fil2" d="M1975.19 2167.51c-0.44,-5.44 -0.2,-14.53 0.57,-25.95 -0.77,11.42 -1.01,20.51 -0.56,25.95l367.4 84.06 0 0.01 -367.4 -84.06c0,0 -0.01,-0.01 -0.01,-0.01zm0.59 -26.21c0.06,-0.92 0.12,-1.84 0.19,-2.78 -0.07,0.94 -0.13,1.86 -0.19,2.78zm0.24 -3.38c0.06,-0.86 0.12,-1.74 0.19,-2.62 -0.06,0.88 -0.13,1.76 -0.19,2.62zm0.26 -3.51c0.07,-0.82 0.13,-1.64 0.2,-2.48 -0.07,0.84 -0.13,1.66 -0.2,2.48zm0.3 -3.6c0.06,-0.71 0.12,-1.43 0.18,-2.16 -0.06,0.73 -0.12,1.45 -0.18,2.16zm0.32 -3.68c0.05,-0.59 0.1,-1.18 0.15,-1.78 -0.05,0.6 -0.1,1.19 -0.15,1.78zm0.33 -3.73c0.06,-0.56 0.11,-1.12 0.16,-1.68 -0.05,0.56 -0.1,1.12 -0.16,1.68zm0.35 -3.7c0.06,-0.6 0.12,-1.21 0.18,-1.82 -0.06,0.61 -0.12,1.22 -0.18,1.82zm0.35 -3.47c0.07,-0.78 0.15,-1.57 0.23,-2.35 -0.08,0.78 -0.16,1.57 -0.23,2.35zm0.36 -3.61c0.1,-0.95 0.2,-1.91 0.3,-2.87 -0.1,0.96 -0.2,1.92 -0.3,2.87zm0.41 -3.86c0.11,-1.08 0.23,-2.16 0.35,-3.25 -0.12,1.09 -0.24,2.17 -0.35,3.25zm0.41 -3.82c1.91,-17.37 4.34,-36.33 7.05,-54.7 6.24,-42.27 13.91,-81.44 19.73,-90.73 0,0 0.02,0 0.02,0 42.37,54.97 98.15,113.48 158.97,166.23 57.08,49.5 118.62,93.99 177.72,125.82l0 0.01c-122.14,-65.78 -254.57,-185.48 -336.7,-292.05 -0.09,0.14 -0.18,0.31 -0.27,0.46 0,0.02 -0.01,0.03 -0.01,0.04 -8.35,14.56 -20.28,88.22 -26.51,144.92zm-877.22 148.66c30.31,-26.81 111.04,-67.9 182.68,-132.19 32.19,-28.89 53.3,-49.61 80.32,-78.75l64.15 -71.78c5.82,-5.32 5.06,-5.49 5.61,-5.83l-0.06 0.03 -0.01 0c-0.1,0.07 -0.17,0.17 -0.26,0.31 -0.3,0.46 -1.07,1.63 -5.29,5.48l-64.15 71.78c-13.5,14.56 -25.55,27.05 -38.22,39.47 -12.67,12.42 -26.02,24.85 -42.1,39.28 -43.85,39.35 -91.14,70.03 -128.14,94.04 -23.44,15.2 -42.8,27.76 -54.54,38.15l0 0.01 0 0c0,0 0.01,0.01 0.01,0.01l0.01 0 0 0 0 0c30.35,-6.79 65.87,-19.58 101.43,-32.36 25.87,-9.3 51.81,-18.65 75.79,-25.68 9.61,-2.81 36.3,-9.5 66.67,-17.08 52.43,-13.1 115.95,-28.98 121.97,-32.62l-0.01 0 0.01 -0.01 -25.13 -184.67c0,0 -0.01,-0.01 -0.01,-0.01 -4.48,2.3 -6.42,3.17 -7.31,3.55l-0.23 0.11c0.77,-0.34 2.61,-1.11 7.54,-3.65l25.13 184.67c-9.53,5.76 -162.4,42.01 -188.63,49.7 -56.97,16.72 -124.78,46.3 -177.23,58.04zm332.46 308.35c29.73,-0.24 26.9,0.97 30.01,28.06 0.19,1.85 0.44,3.67 0.75,5.47 -0.31,-1.8 -0.56,-3.62 -0.74,-5.47l-0.73 -6.73c-2.13,-20.57 -2.25,-21.56 -29.29,-21.34 -25.06,1.9 -157.91,-10.89 -256.59,-20.38 -42.79,-4.11 -79.18,-7.63 -97.54,-9.04 -0.33,-0.03 -0.66,-0.05 -0.98,-0.08 0.33,0.03 0.65,0.06 0.98,0.09 60.72,4.68 318.19,32.16 354.13,29.42zm30.77 33.56c0.12,0.69 0.24,1.38 0.38,2.06 -0.13,-0.68 -0.26,-1.37 -0.38,-2.06zm0.42 2.23c0.13,0.64 0.27,1.29 0.41,1.92 -0.14,-0.63 -0.28,-1.28 -0.41,-1.92zm0.47 2.18c0.15,0.61 0.3,1.22 0.45,1.83 -0.15,-0.61 -0.3,-1.22 -0.45,-1.83zm0.53 2.14c0.16,0.59 0.32,1.17 0.49,1.76 -0.17,-0.59 -0.33,-1.17 -0.49,-1.76zm0.59 2.09c0.17,0.58 0.35,1.15 0.53,1.72 -0.18,-0.57 -0.36,-1.14 -0.53,-1.72zm0.63 2.04c0.19,0.58 0.39,1.15 0.59,1.72 -0.2,-0.57 -0.4,-1.14 -0.59,-1.72zm0.69 2c0.21,0.58 0.42,1.17 0.65,1.74 -0.23,-0.57 -0.44,-1.16 -0.65,-1.74zm0.73 1.95c0.23,0.6 0.47,1.2 0.72,1.79 -0.25,-0.59 -0.49,-1.19 -0.72,-1.79zm0.77 1.9c14.79,35.15 55.15,56.5 100.07,52.21l383.31 -61.08c4.77,-0.7 7.51,-1.25 12.9,-2.25l-2.41 0.44c-3.9,0.72 -6.49,1.23 -10.49,1.8l-383.31 61.08c-27.08,2.58 -52.53,-4.16 -71.69,-17.62 -12.61,-8.85 -22.51,-20.63 -28.38,-34.58zm501.14 -12.01c0.73,-0.14 1.5,-0.27 2.32,-0.42l237.94 -38.07c54.44,-8.69 107.33,-16.18 162.14,-25.74 20.62,-3.6 29.69,-8.85 49.61,-19.52l54.13 -63.44c23.3,-61.92 6.53,-100.54 -19.77,-142.39 38.69,8 58.25,19.91 95.96,-5.93l20.25 -17.33c11.89,-15.64 19.6,-43.45 17,-66.16 -0.02,-0.22 -0.06,-0.42 -0.09,-0.64 0.03,0.22 0.06,0.43 0.08,0.64 1.27,11.15 0.06,23.56 -2.91,35.12 -3.07,11.96 -8.04,23.07 -14.09,31.03l-20.25 17.33c-31.32,21.46 -50.15,16.87 -77.79,10.12 -5.61,-1.36 -11.62,-2.85 -18.15,-4.19l0 0 -0.01 0 -0.01 0c0,0 0,0.02 0,0.02 13.15,20.93 23.93,41.05 28.49,63.66 4.55,22.62 2.92,47.76 -8.72,78.71l0 0 -54.13 63.44 0 0 -2.83 1.52c-17.98,9.65 -27.17,14.59 -46.77,18 -35.54,6.19 -70.29,11.54 -105.16,16.88 -18.89,2.89 -37.86,5.82 -56.98,8.86l-237.94 38.07 -2.32 0.43zm619.04 -382.81c-0.05,-0.35 -0.11,-0.7 -0.18,-1.05 0.07,0.35 0.13,0.7 0.18,1.05zm-0.76 -4.05c-0.08,-0.32 -0.14,-0.65 -0.22,-0.97 0.08,0.32 0.14,0.65 0.22,0.97zm-1.05 -4.22c-0.09,-0.32 -0.18,-0.64 -0.27,-0.95 0.09,0.31 0.18,0.63 0.27,0.95zm-1.14 -3.71c-0.12,-0.33 -0.23,-0.67 -0.35,-1 0.12,0.33 0.23,0.67 0.35,1zm-1.37 -3.69c-0.17,-0.42 -0.34,-0.83 -0.51,-1.24 0.17,0.41 0.34,0.82 0.51,1.24zm-1.63 -3.75c-0.17,-0.37 -0.35,-0.73 -0.53,-1.1 0.18,0.37 0.36,0.73 0.53,1.1zm-1.69 -3.36c-0.25,-0.47 -0.51,-0.94 -0.77,-1.4 0.26,0.46 0.52,0.93 0.77,1.4zm-1.94 -3.41c-0.3,-0.5 -0.61,-0.99 -0.92,-1.49 0.31,0.5 0.62,0.99 0.92,1.49zm-2.17 -3.4c-0.35,-0.51 -0.71,-1.02 -1.07,-1.54 0.37,0.52 0.72,1.03 1.07,1.54zm-2.18 -3.07c-0.47,-0.64 -0.95,-1.27 -1.45,-1.9 0.5,0.63 0.98,1.26 1.45,1.9zm-2.41 -3.11c-0.6,-0.74 -1.22,-1.48 -1.85,-2.22 0.63,0.74 1.25,1.48 1.85,2.22zm-2.76 -3.26c-0.66,-0.75 -1.35,-1.51 -2.05,-2.26 0.7,0.75 1.38,1.51 2.05,2.26zm-2.53 -2.77c-33.39,-35.4 -101.14,-63.52 -186.92,-146.97 -0.13,-0.14 -0.27,-0.27 -0.41,-0.4 -2.87,-2.81 -5.77,-5.67 -8.69,-8.6 -0.01,-0.01 -0.02,-0.03 -0.04,-0.04 -4.38,-4.4 -8.8,-8.95 -13.27,-13.65 -0.34,-0.36 -0.67,-0.71 -1.01,-1.07 -2.57,-2.71 -5.15,-5.48 -7.75,-8.29 -0.43,-0.47 -0.87,-0.95 -1.31,-1.42 -4.38,-4.78 -8.81,-9.71 -13.27,-14.8 -0.5,-0.57 -1,-1.15 -1.49,-1.72 -2.44,-2.79 -4.88,-5.62 -7.34,-8.51 -0.67,-0.79 -1.34,-1.58 -2.02,-2.38 -2.3,-2.72 -4.61,-5.49 -6.92,-8.29 -0.72,-0.86 -1.43,-1.72 -2.14,-2.6 -1.41,-1.71 -2.81,-3.43 -4.23,-5.18 -0.77,-0.96 -1.54,-1.93 -2.32,-2.89 -2.22,-2.77 -4.44,-5.57 -6.67,-8.41 -0.87,-1.11 -1.74,-2.22 -2.61,-3.34 -2.12,-2.73 -4.25,-5.5 -6.39,-8.3 -0.93,-1.22 -1.86,-2.44 -2.79,-3.67 -1.75,-2.32 -3.51,-4.68 -5.27,-7.05 -1.32,-1.78 -2.65,-3.57 -3.97,-5.38 -1.33,-1.81 -2.66,-3.64 -4,-5.49 -1.11,-1.54 -2.23,-3.1 -3.35,-4.66 -1.94,-2.71 -3.89,-5.46 -5.84,-8.24 -1.06,-1.51 -2.13,-3.03 -3.19,-4.56 -1.89,-2.72 -3.79,-5.48 -5.69,-8.26 -1.22,-1.78 -2.44,-3.57 -3.66,-5.37 -1.3,-1.93 -2.6,-3.87 -3.91,-5.83 -1.84,-2.76 -3.69,-5.55 -5.54,-8.38 -1.29,-1.95 -2.58,-3.94 -3.87,-5.94 -1.17,-1.82 -2.35,-3.64 -3.53,-5.48 -0.96,-1.51 -1.93,-2.98 -2.9,-4.51 -9.11,-14.35 -14.82,-21.23 -23.44,-37.2 -33.93,-62.85 -96.47,-182.04 -130.29,-234.86 -39.09,-61.03 -76.76,-120.2 -145.94,-158.34 -0.37,-0.2 -0.75,-0.4 -1.12,-0.6 0.37,0.21 0.75,0.41 1.12,0.61 68.8,37.93 106.46,96.71 145.34,157.41l0.59 0.93c27.58,43.07 74.19,130.15 108.85,194.89 7.87,14.72 15.16,28.32 21.44,39.96 5.74,10.63 10.18,17.23 15.16,24.63 2.52,3.76 5.22,7.76 8.28,12.58 110.29,173.64 208.97,240.64 274.11,284.86 24.54,16.67 44.34,30.11 58.21,44.81zm-637.03 -762.77c-0.77,-0.4 -1.55,-0.8 -2.32,-1.19 0.77,0.39 1.55,0.79 2.32,1.19zm-6.42 -3.22c-0.73,-0.35 -1.45,-0.71 -2.18,-1.05 0.73,0.34 1.45,0.7 2.18,1.05zm-6.7 -3.14c-0.83,-0.37 -1.65,-0.74 -2.48,-1.11 0.83,0.37 1.65,0.74 2.48,1.11zm-6.96 -3.03c-0.45,-0.19 -0.89,-0.39 -1.35,-0.58l-0.04 -0.02c-0.45,-0.18 -0.91,-0.36 -1.36,-0.55 0.92,0.38 1.84,0.76 2.75,1.15zm-7.18 -2.92c-0.43,-0.17 -0.85,-0.35 -1.28,-0.51 -0.02,-0.01 -0.05,-0.02 -0.07,-0.03 -0.55,-0.21 -1.11,-0.41 -1.67,-0.62 1.01,0.38 2.02,0.77 3.02,1.16zm-6.68 -2.53c-1.33,-0.48 -2.66,-0.96 -4,-1.43 1.34,0.47 2.67,0.95 4,1.43zm-6.78 -2.4c-1.69,-0.57 -3.38,-1.14 -5.09,-1.7 1.71,0.56 3.4,1.13 5.09,1.7zm-7.46 -2.46c-1.9,-0.61 -3.81,-1.2 -5.74,-1.78 1.93,0.58 3.84,1.17 5.74,1.78zm-7.8 -2.4c-2.09,-0.62 -4.19,-1.22 -6.31,-1.81 2.12,0.59 4.22,1.19 6.31,1.81zm-8.03 -2.29c-0.9,-0.24 -1.78,-0.5 -2.68,-0.74 -0.05,-0.01 -0.1,-0.02 -0.16,-0.04 -1.4,-0.37 -2.82,-0.72 -4.23,-1.08 2.37,0.6 4.73,1.23 7.07,1.86zm-8.24 -2.16c-0.79,-0.2 -1.57,-0.41 -2.36,-0.6 -0.17,-0.04 -0.33,-0.08 -0.5,-0.12 -2.54,-0.63 -5.1,-1.23 -7.68,-1.81 -0.23,-0.05 -0.46,-0.1 -0.69,-0.15 -2.55,-0.58 -5.12,-1.13 -7.71,-1.66 -0.25,-0.05 -0.5,-0.11 -0.75,-0.16 -2.59,-0.53 -5.19,-1.04 -7.82,-1.53 -0.23,-0.05 -0.46,-0.09 -0.69,-0.13 -2.66,-0.5 -5.34,-0.98 -8.04,-1.43 -0.16,-0.03 -0.31,-0.05 -0.46,-0.08 -1.14,-0.19 -2.28,-0.36 -3.41,-0.55 13.8,2.23 27.22,4.98 40.11,8.22zm-40.21 -8.23c-3.06,-0.5 -6.14,-0.96 -9.23,-1.41 3.09,0.45 6.17,0.91 9.23,1.41zm-9.31 -1.42c-4.31,-0.61 -8.64,-1.2 -13,-1.71 -0.17,-0.02 -0.33,-0.04 -0.49,-0.06 -2.77,-0.33 -5.56,-0.63 -8.36,-0.92 -0.26,-0.02 -0.52,-0.05 -0.79,-0.08 -2.74,-0.27 -5.49,-0.53 -8.25,-0.77 -0.31,-0.02 -0.62,-0.05 -0.93,-0.08 -2.75,-0.23 -5.51,-0.44 -8.28,-0.63 -0.3,-0.02 -0.61,-0.05 -0.91,-0.07 -2.8,-0.19 -5.6,-0.36 -8.4,-0.51 -0.26,-0.02 -0.52,-0.03 -0.78,-0.04 -2.87,-0.15 -5.75,-0.29 -8.64,-0.4 -0.15,0 -0.3,-0.01 -0.46,-0.01 -4.45,-0.16 -8.92,-0.27 -13.4,-0.34 24.8,0.38 49.25,2.27 72.69,5.62zm-72.83 -5.62c-3.23,-0.05 -6.47,-0.07 -9.72,-0.06 3.25,-0.01 6.49,0.01 9.72,0.06zm-9.99 -0.06c-3.25,0 -6.5,0.03 -9.76,0.09 3.26,-0.06 6.51,-0.09 9.76,-0.09zm-9.91 0.09c-1.16,0.03 -2.32,0.03 -3.48,0.06 -0.09,0 -0.17,0.01 -0.25,0.01 -3.03,0.07 -6.06,0.17 -9.09,0.29 -0.13,0 -0.26,0.01 -0.39,0.01 -3.01,0.12 -6.03,0.26 -9.05,0.43 -0.12,0.01 -0.25,0.02 -0.37,0.02 -3.04,0.17 -6.09,0.36 -9.13,0.58 -0.07,0 -0.14,0.01 -0.21,0.01 -0.96,0.07 -1.92,0.16 -2.88,0.23 11.61,-0.88 23.25,-1.43 34.85,-1.64zm-35.55 1.7c-2.99,0.23 -5.97,0.48 -8.96,0.76 2.99,-0.28 5.97,-0.53 8.96,-0.76zm-10.49 0.9c-2.7,0.26 -5.4,0.53 -8.09,0.83 2.69,-0.29 5.39,-0.57 8.09,-0.83zm-10 1.04c-2.56,0.29 -5.12,0.6 -7.67,0.92 2.55,-0.32 5.11,-0.63 7.67,-0.92zm-9.81 1.19c-2.27,0.3 -4.53,0.61 -6.79,0.93 0.93,-0.14 1.87,-0.27 2.81,-0.4 1.32,-0.18 2.65,-0.36 3.98,-0.53zm-9.62 1.34c-2,0.29 -4.01,0.6 -6,0.92 1.99,-0.32 4,-0.63 6,-0.92zm-9.35 1.46c-1.85,0.3 -3.69,0.62 -5.52,0.94 1.83,-0.32 3.67,-0.64 5.52,-0.94zm-9.62 1.67c-1.59,0.3 -3.17,0.59 -4.76,0.9 1.59,-0.31 3.17,-0.6 4.76,-0.9zm-9.96 1.93c-1.2,0.24 -2.41,0.5 -3.61,0.75 1.2,-0.25 2.41,-0.51 3.61,-0.75zm-8.87 1.89c-1.17,0.26 -2.34,0.52 -3.5,0.79 1.16,-0.27 2.33,-0.53 3.5,-0.79zm-8.82 2.04c-1.26,0.31 -2.52,0.61 -3.77,0.93 1.25,-0.32 2.51,-0.62 3.77,-0.93zm-8.77 2.21c-1.41,0.36 -2.82,0.74 -4.23,1.12 1.41,-0.38 2.82,-0.76 4.23,-1.12zm-8.74 2.37c-1.44,0.4 -2.87,0.81 -4.3,1.23 1.43,-0.42 2.86,-0.83 4.3,-1.23zm-8.76 2.56c-1.38,0.42 -2.75,0.84 -4.12,1.27 1.37,-0.43 2.74,-0.85 4.12,-1.27zm-8.91 2.81c-1.21,0.39 -2.42,0.8 -3.63,1.2 1.21,-0.4 2.42,-0.81 3.63,-1.2zm-8.82 2.99c-1.02,0.36 -2.05,0.72 -3.07,1.09 1.02,-0.37 2.05,-0.73 3.07,-1.09zm-8.15 2.96c-1.01,0.38 -2.02,0.77 -3.03,1.15 1.01,-0.38 2.02,-0.77 3.03,-1.15zm-8.04 3.13c-0.99,0.39 -1.98,0.79 -2.96,1.19 0.98,-0.4 1.97,-0.8 2.96,-1.19zm-7.95 3.29c-1.19,0.51 -2.37,1.03 -3.55,1.54 1.18,-0.51 2.36,-1.03 3.55,-1.54zm-7.86 3.48c-1.24,0.57 -2.48,1.14 -3.71,1.72 1.23,-0.58 2.47,-1.15 3.71,-1.72zm-7.8 3.68c-1.21,0.59 -2.41,1.19 -3.6,1.79 1.19,-0.6 2.39,-1.2 3.6,-1.79zm-7.85 3.96c-1.07,0.56 -2.14,1.12 -3.2,1.69 1.06,-0.57 2.13,-1.13 3.2,-1.69zm-7.86 4.23c-0.86,0.48 -1.71,0.97 -2.57,1.46 0.86,-0.49 1.71,-0.98 2.57,-1.46zm-7.1 4.09c-0.84,0.5 -1.67,1.01 -2.51,1.51 0.84,-0.5 1.67,-1.01 2.51,-1.51zm-6.95 4.27c-0.8,0.51 -1.6,1.02 -2.4,1.53 0.8,-0.51 1.6,-1.02 2.4,-1.53zm-6.8 4.45c-0.83,0.57 -1.66,1.13 -2.49,1.7 0.83,-0.57 1.66,-1.13 2.49,-1.7zm-6.66 4.66c-0.9,0.65 -1.79,1.3 -2.68,1.96 0.89,-0.66 1.78,-1.31 2.68,-1.96zm-6.54 4.89c-0.87,0.67 -1.72,1.34 -2.58,2.02 0.86,-0.68 1.71,-1.35 2.58,-2.02zm-6.51 5.21c-0.74,0.61 -1.47,1.23 -2.19,1.85 0.72,-0.62 1.45,-1.24 2.19,-1.85zm-6.27 5.4c-0.6,0.54 -1.19,1.08 -1.79,1.63 0.6,-0.55 1.19,-1.09 1.79,-1.63zm-5.68 5.28c-0.58,0.55 -1.15,1.11 -1.72,1.66 0.57,-0.55 1.14,-1.11 1.72,-1.66zm-5.48 5.45c-0.54,0.56 -1.07,1.12 -1.6,1.68 0.53,-0.56 1.06,-1.12 1.6,-1.68zm-5.26 5.66c-0.49,0.55 -0.98,1.09 -1.46,1.64 0.48,-0.55 0.97,-1.09 1.46,-1.64zm-5.05 5.87c-0.5,0.61 -1,1.23 -1.5,1.84 0.49,-0.61 1,-1.23 1.5,-1.84zm-4.85 6.13c-0.25,0.33 -0.53,0.66 -0.78,1 -40.93,54.76 -82.85,120.45 -116.59,187.69 -20.28,40.4 -101.42,189.07 -133.46,231.78l-54.88 66.81c-25.79,21.85 -79.18,85.26 -124.97,118.69 -29.7,21.69 -46.78,32.61 -72.27,49.18 -26.78,17.4 -49.15,28.65 -60.23,60.98 -12.87,37.58 -0.64,73.12 19.99,93.86 22.76,22.89 50.12,27.36 91.99,20.57 -0.28,0.42 -0.55,0.85 -0.83,1.28 0.28,-0.43 0.56,-0.85 0.84,-1.27l-0.01 0 0.01 -0.01c0,0 -0.01,-0.01 -0.01,-0.01l-0.01 0 0 0 0 0c-20.93,3.39 -38.24,3.97 -53.15,0.85 -14.9,-3.12 -27.45,-9.98 -38.82,-21.42 -10.96,-11.01 -19.55,-26.22 -23.26,-43.64 -3.27,-15.4 -2.76,-32.6 3.27,-50.21 9.89,-28.88 28.85,-40.96 51.89,-55.62l8.34 -5.35 5.08 -3.3c22.78,-14.79 39.51,-25.67 67.19,-45.88 28.82,-21.04 60.68,-53.98 86.73,-80.93 15.33,-15.86 28.7,-29.68 38.24,-37.76l54.88 -66.81c12.94,-17.25 33.96,-51.92 55.73,-89.71 32,-55.59 65.67,-118.04 77.73,-142.08 16.21,-32.32 34.37,-64.36 53.4,-94.98 20.46,-32.96 41.97,-64.31 63.19,-92.7 0.25,-0.34 0.52,-0.67 0.77,-1.01zm-452.97 833.3c-0.59,0.93 -1.18,1.86 -1.75,2.8 0.57,-0.94 1.16,-1.87 1.75,-2.8zm-2.66 4.28c-0.57,0.95 -1.12,1.9 -1.67,2.86 0.55,-0.96 1.1,-1.91 1.67,-2.86zm-2.33 4.02c-0.55,0.96 -1.08,1.92 -1.6,2.88 0.52,-0.96 1.05,-1.92 1.6,-2.88zm-2.38 4.33c-0.52,1 -1.04,1.99 -1.54,2.99 0.5,-1 1.02,-1.99 1.54,-2.99zm-2.21 4.33c-0.49,0.99 -0.96,1.98 -1.43,2.98 0.47,-1 0.94,-1.99 1.43,-2.98zm-2.01 4.23c-0.45,0.98 -0.89,1.96 -1.32,2.94 0.43,-0.98 0.87,-1.96 1.32,-2.94zm-2 4.51c-0.4,0.95 -0.79,1.89 -1.17,2.84 0.38,-0.95 0.77,-1.89 1.17,-2.84zm-1.78 4.37c-0.34,0.88 -0.68,1.75 -1,2.63 0.32,-0.88 0.66,-1.75 1,-2.63zm-1.66 4.41c-0.32,0.9 -0.63,1.79 -0.93,2.68 0.3,-0.89 0.61,-1.78 0.93,-2.68zm-1.56 4.58c-0.25,0.76 -0.49,1.51 -0.72,2.27 0.23,-0.76 0.47,-1.51 0.72,-2.27zm-1.38 4.45c-0.23,0.77 -0.45,1.55 -0.66,2.33 0.21,-0.78 0.43,-1.56 0.66,-2.33zm-1.23 4.44c-0.2,0.74 -0.39,1.49 -0.57,2.23 0.18,-0.74 0.37,-1.49 0.57,-2.23zm-1.13 4.57c-0.16,0.69 -0.31,1.37 -0.46,2.06 0.15,-0.69 0.3,-1.37 0.46,-2.06zm-0.94 4.39c-0.15,0.72 -0.28,1.44 -0.42,2.15 0.14,-0.71 0.27,-1.43 0.42,-2.15zm-0.82 4.44c-0.11,0.68 -0.22,1.36 -0.33,2.04 0.11,-0.68 0.22,-1.36 0.33,-2.04zm-0.69 4.51c-0.1,0.72 -0.19,1.43 -0.28,2.15 0.09,-0.72 0.18,-1.43 0.28,-2.15zm-0.51 4.19c-0.09,0.86 -0.18,1.72 -0.26,2.58 0.08,-0.86 0.17,-1.72 0.26,-2.58zm-0.41 4.43c-0.07,0.93 -0.13,1.86 -0.19,2.79 0.06,-0.93 0.12,-1.86 0.19,-2.79zm-0.25 4.09c-0.24,4.9 -0.23,9.77 0.05,14.6 0,0.05 0,0.11 0.01,0.17 0.08,1.36 0.18,2.71 0.3,4.06 0.01,0.12 0.02,0.23 0.03,0.34 0.12,1.31 0.26,2.61 0.42,3.9 0.02,0.14 0.04,0.28 0.05,0.41 0.17,1.29 0.35,2.57 0.55,3.85 0.02,0.14 0.04,0.29 0.06,0.43 0.21,1.29 0.43,2.57 0.68,3.85 0.03,0.14 0.05,0.28 0.08,0.41 0.25,1.27 0.51,2.53 0.8,3.78 0.03,0.13 0.06,0.26 0.09,0.39 0.29,1.27 0.6,2.54 0.93,3.79 0.03,0.1 0.05,0.2 0.08,0.29 0.35,1.31 0.71,2.62 1.11,3.92 0.01,0.03 0.02,0.07 0.03,0.1 0.57,1.87 1.19,3.73 1.85,5.57 -5.59,-15.72 -7.95,-32.63 -7.12,-49.86zm7.54 51.01c0.31,0.84 0.63,1.68 0.95,2.52 -0.32,-0.84 -0.64,-1.68 -0.95,-2.52zm1.62 4.17c0.28,0.68 0.56,1.36 0.86,2.04 -0.3,-0.68 -0.58,-1.36 -0.86,-2.04zm1.84 4.26c0.24,0.51 0.47,1.02 0.72,1.53 -0.25,-0.51 -0.48,-1.02 -0.72,-1.53zm1.82 3.78c0.26,0.52 0.52,1.04 0.79,1.55 -0.27,-0.51 -0.53,-1.03 -0.79,-1.55zm1.95 3.73c0.31,0.57 0.62,1.13 0.95,1.69 -0.33,-0.56 -0.64,-1.12 -0.95,-1.69zm2.09 3.67c0.36,0.6 0.72,1.19 1.09,1.78 -0.37,-0.59 -0.73,-1.18 -1.09,-1.78zm2.25 3.62c0.39,0.6 0.78,1.2 1.18,1.79 -0.4,-0.59 -0.79,-1.19 -1.18,-1.79zm2.41 3.59c0.43,0.62 0.88,1.24 1.32,1.85 -0.44,-0.61 -0.89,-1.23 -1.32,-1.85zm2.48 3.42c0.5,0.66 1.01,1.32 1.53,1.97 -0.52,-0.65 -1.03,-1.31 -1.53,-1.97zm2.64 3.36c0.54,0.67 1.1,1.33 1.66,1.99 -0.56,-0.66 -1.12,-1.32 -1.66,-1.99zm2.79 3.31c0.58,0.65 1.16,1.3 1.75,1.94 -0.59,-0.64 -1.17,-1.29 -1.75,-1.94zm3.01 3.3c0.62,0.66 1.25,1.31 1.89,1.96 -0.64,-0.65 -1.27,-1.3 -1.89,-1.96zm3.17 3.23c0.63,0.62 1.27,1.23 1.92,1.84 -0.65,-0.61 -1.29,-1.22 -1.92,-1.84zm3.23 3.06c0.66,0.6 1.32,1.19 1.98,1.77 -0.66,-0.58 -1.32,-1.17 -1.98,-1.77zm3.43 3.01c0.65,0.55 1.31,1.1 1.97,1.64 -0.66,-0.54 -1.32,-1.09 -1.97,-1.64zm3.68 3c0.64,0.5 1.28,0.99 1.93,1.48 -0.65,-0.49 -1.29,-0.98 -1.93,-1.48zm3.71 2.79c0.67,0.49 1.34,0.97 2.03,1.45 -0.69,-0.48 -1.36,-0.96 -2.03,-1.45zm3.83 2.68c0.7,0.48 1.41,0.94 2.13,1.41 -0.53,-0.34 -1.05,-0.68 -1.57,-1.03 -0.19,-0.13 -0.38,-0.25 -0.56,-0.38zm4 2.59c0.73,0.45 1.46,0.9 2.2,1.34 -0.74,-0.44 -1.47,-0.89 -2.2,-1.34zm4.16 2.49c0.75,0.43 1.5,0.85 2.25,1.26 -0.75,-0.41 -1.5,-0.83 -2.25,-1.26zm4.31 2.37c0.76,0.4 1.53,0.8 2.31,1.19 -0.78,-0.39 -1.55,-0.79 -2.31,-1.19zm4.45 2.26c0.78,0.37 1.57,0.74 2.36,1.11 -0.79,-0.37 -1.58,-0.74 -2.36,-1.11zm4.62 2.14c0.78,0.34 1.57,0.69 2.37,1.02 -0.8,-0.33 -1.59,-0.68 -2.37,-1.02zm4.77 2.01c0.78,0.32 1.56,0.63 2.35,0.93 -0.79,-0.3 -1.57,-0.61 -2.35,-0.93zm4.93 1.9c0.76,0.28 1.53,0.55 2.3,0.82 -0.77,-0.27 -1.54,-0.54 -2.3,-0.82zm5.09 1.77c0.73,0.24 1.46,0.48 2.2,0.71 -0.74,-0.23 -1.47,-0.47 -2.2,-0.71zm5.26 1.64c0.7,0.2 1.41,0.41 2.12,0.61 -0.71,-0.2 -1.42,-0.41 -2.12,-0.61zm5.41 1.5c0.69,0.17 1.37,0.35 2.06,0.52 -0.69,-0.17 -1.37,-0.35 -2.06,-0.52zm5.57 1.35c0.66,0.15 1.32,0.3 1.99,0.44 -0.67,-0.14 -1.33,-0.29 -1.99,-0.44zm5.71 1.21c0.64,0.13 1.28,0.25 1.92,0.37 -0.64,-0.12 -1.28,-0.24 -1.92,-0.37zm5.86 1.06c0.62,0.1 1.24,0.2 1.86,0.3 -0.62,-0.1 -1.24,-0.2 -1.86,-0.3zm5.98 0.91c0.61,0.08 1.23,0.16 1.84,0.24 -0.61,-0.08 -1.23,-0.16 -1.84,-0.24zm6.11 0.74c0.62,0.07 1.25,0.13 1.88,0.2 -0.63,-0.06 -1.26,-0.13 -1.88,-0.2z"/>
    </g>
    <g>
     <path class="fil3" d="M1682.14 804.77c-269.01,43.18 -288.88,418.34 -33.61,495.87 18.75,5.7 35.05,9.25 53.8,10.39l45.55 -0.64c162.47,-12.76 298.21,-200.66 192.22,-385.16 -10.89,-18.97 -9.41,-19.55 -25.78,-35.36 -55.93,-54.05 -117.85,-103.45 -232.18,-85.1z"/>
     <path id="1" class="fil2" d="M1682.14 804.78c-0.22,0.03 -0.43,0.07 -0.65,0.11 0.22,-0.04 0.43,-0.08 0.65,-0.12 0.84,-0.13 1.67,-0.26 2.5,-0.38 -0.83,0.13 -1.66,0.26 -2.5,0.39zm-11.75 2.13c-0.47,0.1 -0.93,0.19 -1.4,0.29 0.47,-0.1 0.93,-0.19 1.4,-0.29zm-12.03 2.7c-0.39,0.1 -0.79,0.19 -1.18,0.29 0.39,-0.1 0.79,-0.19 1.18,-0.29zm-11.8 3.19c-0.45,0.13 -0.9,0.27 -1.35,0.4 0.45,-0.13 0.9,-0.27 1.35,-0.4zm-11.17 3.56c-0.44,0.15 -0.89,0.3 -1.33,0.45 0.44,-0.15 0.89,-0.3 1.33,-0.45zm-11.19 4.11c-0.44,0.17 -0.87,0.35 -1.3,0.52 0.43,-0.17 0.86,-0.35 1.3,-0.52zm-10.35 4.35c-0.48,0.21 -0.97,0.43 -1.45,0.65 0.48,-0.22 0.97,-0.44 1.45,-0.65zm-10.29 4.87c-0.5,0.25 -0.99,0.5 -1.48,0.75 0.49,-0.25 0.98,-0.5 1.48,-0.75zm-9.82 5.21c-0.5,0.27 -0.99,0.55 -1.49,0.83 0.5,-0.28 0.99,-0.56 1.49,-0.83zm-9.44 5.56c-0.5,0.31 -1.01,0.62 -1.51,0.94 0.5,-0.32 1.01,-0.63 1.51,-0.94zm-9.24 6.02c-0.48,0.33 -0.96,0.66 -1.43,1 0.47,-0.34 0.95,-0.67 1.43,-1zm-8.63 6.21c-0.46,0.34 -0.92,0.69 -1.37,1.03 0.45,-0.34 0.91,-0.69 1.37,-1.03zm-8.61 6.79c-0.43,0.36 -0.85,0.72 -1.28,1.08 0.43,-0.36 0.85,-0.72 1.28,-1.08zm-7.85 6.8c-0.42,0.38 -0.84,0.76 -1.26,1.15 0.42,-0.39 0.84,-0.77 1.26,-1.15zm-7.75 7.34c-0.41,0.4 -0.82,0.81 -1.22,1.22 0.4,-0.41 0.81,-0.82 1.22,-1.22zm-7.25 7.5c-0.37,0.41 -0.75,0.81 -1.12,1.22 0.37,-0.41 0.75,-0.81 1.12,-1.22zm-6.91 7.81c-0.36,0.43 -0.72,0.85 -1.07,1.28 0.35,-0.43 0.71,-0.85 1.07,-1.28zm-6.6 8.14c-0.32,0.41 -0.63,0.83 -0.95,1.24 0.32,-0.41 0.63,-0.83 0.95,-1.24zm-6.1 8.24c-0.29,0.4 -0.58,0.81 -0.86,1.21 0.28,-0.4 0.57,-0.81 0.86,-1.21zm-5.85 8.62c-0.25,0.39 -0.5,0.78 -0.75,1.17 0.25,-0.39 0.5,-0.78 0.75,-1.17zm-5.39 8.73c-0.24,0.41 -0.48,0.82 -0.72,1.23 0.24,-0.41 0.48,-0.82 0.72,-1.23zm-5.03 8.95c-0.24,0.45 -0.48,0.9 -0.72,1.35 0.24,-0.45 0.48,-0.9 0.72,-1.35zm-4.65 9.12c-0.23,0.48 -0.46,0.97 -0.7,1.45 0.24,-0.48 0.47,-0.97 0.7,-1.45zm-4.24 9.22c-0.23,0.53 -0.46,1.06 -0.68,1.59 0.22,-0.53 0.45,-1.06 0.68,-1.59zm-3.89 9.44c-0.21,0.54 -0.42,1.08 -0.62,1.62 0.2,-0.54 0.41,-1.08 0.62,-1.62zm-3.53 9.64c-0.18,0.5 -0.35,1.01 -0.52,1.51 0.17,-0.5 0.34,-1.01 0.52,-1.51zm-3.17 9.8c-0.14,0.47 -0.28,0.93 -0.42,1.4 0.14,-0.47 0.28,-0.93 0.42,-1.4zm-2.78 9.94c-0.12,0.44 -0.23,0.88 -0.34,1.32 0.11,-0.44 0.22,-0.88 0.34,-1.32zm-2.4 10.02c-0.08,0.41 -0.17,0.81 -0.26,1.22 0.09,-0.41 0.18,-0.81 0.26,-1.22zm-1.98 10.01c-0.07,0.39 -0.14,0.79 -0.21,1.18 0.07,-0.39 0.14,-0.79 0.21,-1.18zm-1.61 10.1c-0.05,0.36 -0.1,0.73 -0.15,1.1 0.05,-0.37 0.1,-0.74 0.15,-1.1zm-1.22 10.14c-0.04,0.37 -0.08,0.73 -0.11,1.09 0.03,-0.36 0.07,-0.72 0.11,-1.09zm-0.84 10.17c-0.03,0.41 -0.05,0.82 -0.08,1.22 0.03,-0.4 0.05,-0.81 0.08,-1.22zm-0.46 10.19c-0.01,0.46 -0.02,0.92 -0.03,1.37 0.01,-0.45 0.02,-0.91 0.03,-1.37zm-0.07 10.09c0.01,0.54 0.01,1.08 0.02,1.62 -0.01,-0.54 -0.01,-1.08 -0.02,-1.62zm0.3 10.1c0.03,0.61 0.06,1.21 0.1,1.82 -0.04,-0.61 -0.07,-1.21 -0.1,-1.82zm0.68 10.15c0.06,0.64 0.11,1.27 0.17,1.9 -0.05,-0.63 -0.11,-1.26 -0.17,-1.9zm1.07 10.18c0.08,0.62 0.16,1.24 0.24,1.86 -0.08,-0.62 -0.16,-1.24 -0.24,-1.86zm1.47 10.18c0.1,0.61 0.2,1.21 0.3,1.82 -0.1,-0.61 -0.2,-1.21 -0.3,-1.82zm1.84 10.03c0.13,0.63 0.26,1.26 0.39,1.89 -0.13,-0.63 -0.26,-1.26 -0.39,-1.89zm2.23 9.98c0.15,0.63 0.31,1.25 0.46,1.88 -0.15,-0.63 -0.31,-1.25 -0.46,-1.88zm2.63 9.96c0.17,0.58 0.34,1.16 0.51,1.74 -0.17,-0.58 -0.34,-1.16 -0.51,-1.74zm3.04 9.89c0.17,0.5 0.33,1 0.5,1.49 -0.17,-0.49 -0.33,-0.99 -0.5,-1.49zm3.45 9.8c0.16,0.42 0.32,0.85 0.48,1.27 -0.16,-0.42 -0.32,-0.85 -0.48,-1.27zm3.85 9.67c0.16,0.37 0.31,0.74 0.47,1.1 -0.16,-0.36 -0.31,-0.73 -0.47,-1.1zm4.26 9.54c0.14,0.29 0.28,0.58 0.42,0.88 -0.14,-0.3 -0.28,-0.59 -0.42,-0.88zm4.51 9.07c0.16,0.3 0.32,0.61 0.48,0.92 -0.16,-0.31 -0.32,-0.62 -0.48,-0.92zm5.04 9.18c0.2,0.34 0.39,0.67 0.59,1.01 -0.2,-0.34 -0.39,-0.67 -0.59,-1.01zm5.27 8.7c0.23,0.37 0.46,0.73 0.7,1.09 -0.24,-0.36 -0.47,-0.72 -0.7,-1.09zm5.81 8.74c0.25,0.37 0.51,0.73 0.77,1.09 -0.26,-0.36 -0.52,-0.72 -0.77,-1.09zm6.11 8.38c0.3,0.4 0.6,0.79 0.9,1.18 -0.3,-0.39 -0.6,-0.78 -0.9,-1.18zm6.47 8.13c0.32,0.38 0.64,0.76 0.96,1.14 -0.32,-0.38 -0.64,-0.76 -0.96,-1.14zm7.07 8.12c0.35,0.39 0.71,0.77 1.06,1.15 -0.35,-0.38 -0.71,-0.76 -1.06,-1.15zm7.18 7.54c0.39,0.39 0.79,0.79 1.19,1.19 -0.4,-0.4 -0.8,-0.8 -1.19,-1.19zm7.75 7.46c0.45,0.41 0.89,0.81 1.34,1.22 -0.45,-0.41 -0.89,-0.81 -1.34,-1.22zm8.17 7.18c0.45,0.38 0.9,0.75 1.36,1.13 -0.46,-0.38 -0.91,-0.75 -1.36,-1.13zm8.44 6.77c0.45,0.35 0.91,0.7 1.36,1.04 -0.45,-0.34 -0.91,-0.69 -1.36,-1.04zm9.16 6.7c0.45,0.31 0.9,0.62 1.36,0.93 -0.46,-0.31 -0.91,-0.62 -1.36,-0.93zm9.16 6.07c0.48,0.3 0.95,0.6 1.43,0.9 -0.48,-0.3 -0.95,-0.6 -1.43,-0.9zm9.82 5.89c0.47,0.27 0.95,0.54 1.43,0.81 -0.48,-0.27 -0.96,-0.54 -1.43,-0.81zm10.19 5.51c0.47,0.24 0.94,0.48 1.41,0.72 -0.47,-0.24 -0.94,-0.48 -1.41,-0.72zm10.48 5.07c0.42,0.2 0.84,0.39 1.26,0.58 -0.42,-0.19 -0.84,-0.38 -1.26,-0.58zm11.19 4.82c0.42,0.17 0.83,0.33 1.25,0.5 -0.42,-0.17 -0.83,-0.33 -1.25,-0.5zm11.17 4.22c0.44,0.16 0.89,0.32 1.34,0.48 -0.45,-0.16 -0.9,-0.32 -1.34,-0.48zm11.87 3.92c0.2,0.06 0.4,0.13 0.6,0.19 9.36,2.84 18.15,5.17 26.9,6.9 8.75,1.74 17.53,2.93 26.9,3.49l45.55 -0.64c0.25,-0.02 0.5,-0.04 0.74,-0.06 -0.24,0.02 -0.49,0.05 -0.74,0.07l-45.55 0.64c-18.75,-1.14 -35.05,-4.69 -53.8,-10.39 -0.2,-0.06 -0.4,-0.13 -0.6,-0.2zm106.9 9.29c0.41,-0.05 0.83,-0.1 1.24,-0.14 -0.41,0.04 -0.83,0.09 -1.24,0.14zm7.58 -0.96c0.42,-0.06 0.85,-0.13 1.27,-0.19 -0.42,0.06 -0.85,0.13 -1.27,0.19zm7.48 -1.21c0.41,-0.07 0.81,-0.14 1.22,-0.22 -0.41,0.08 -0.81,0.15 -1.22,0.22zm7.51 -1.46c0.41,-0.08 0.82,-0.17 1.23,-0.26 -0.41,0.09 -0.82,0.18 -1.23,0.26zm7.27 -1.66c0.46,-0.11 0.92,-0.23 1.38,-0.34 -0.46,0.11 -0.92,0.23 -1.38,0.34zm7.37 -1.94c0.44,-0.12 0.88,-0.24 1.32,-0.37 -0.44,0.13 -0.88,0.25 -1.32,0.37zm7.14 -2.12c0.52,-0.16 1.03,-0.32 1.55,-0.49 -0.52,0.17 -1.03,0.33 -1.55,0.49zm7.19 -2.38c0.51,-0.18 1.02,-0.36 1.53,-0.54 -0.51,0.18 -1.02,0.36 -1.53,0.54zm7.02 -2.57c0.56,-0.22 1.13,-0.44 1.69,-0.66 -0.56,0.22 -1.13,0.44 -1.69,0.66zm7 -2.81c0.59,-0.25 1.19,-0.51 1.78,-0.76 -0.59,0.25 -1.19,0.51 -1.78,0.76zm6.88 -3.02c0.6,-0.27 1.2,-0.54 1.79,-0.82 -0.59,0.28 -1.19,0.55 -1.79,0.82zm6.78 -3.21c0.66,-0.33 1.32,-0.66 1.98,-0.99 -0.66,0.33 -1.32,0.66 -1.98,0.99zm6.73 -3.45c0.68,-0.35 1.35,-0.71 2.02,-1.08 -0.67,0.37 -1.34,0.73 -2.02,1.08zm6.54 -3.59c0.31,-0.17 0.62,-0.35 0.93,-0.53 0.44,-0.25 0.87,-0.5 1.31,-0.76 -0.75,0.44 -1.5,0.87 -2.24,1.29zm6.65 -3.92c0.65,-0.39 1.3,-0.79 1.94,-1.19 -0.64,0.4 -1.29,0.8 -1.94,1.19zm6.35 -4c0.68,-0.44 1.36,-0.88 2.04,-1.33 -0.68,0.45 -1.36,0.89 -2.04,1.33zm6.48 -4.35c0.55,-0.38 1.1,-0.77 1.65,-1.15 -0.55,0.38 -1.1,0.77 -1.65,1.15zm6.13 -4.39c0.6,-0.44 1.19,-0.88 1.79,-1.33 -0.6,0.45 -1.19,0.89 -1.79,1.33zm6.19 -4.71c0.48,-0.38 0.97,-0.76 1.45,-1.15 -0.48,0.39 -0.97,0.77 -1.45,1.15zm5.87 -4.76c0.54,-0.44 1.07,-0.89 1.6,-1.33 -0.53,0.44 -1.06,0.89 -1.6,1.33zm5.9 -5.05c0.44,-0.39 0.87,-0.78 1.31,-1.17 -0.44,0.39 -0.87,0.78 -1.31,1.17zm5.62 -5.12c0.47,-0.44 0.94,-0.88 1.41,-1.33 -0.47,0.45 -0.94,0.89 -1.41,1.33zm5.58 -5.39c0.39,-0.39 0.78,-0.77 1.17,-1.16 -0.39,0.39 -0.78,0.77 -1.17,1.16zm5.34 -5.46c0.41,-0.43 0.81,-0.86 1.22,-1.3 -0.41,0.44 -0.81,0.87 -1.22,1.3zm5.26 -5.71c0.34,-0.38 0.67,-0.76 1.01,-1.14 -0.34,0.38 -0.67,0.76 -1.01,1.14zm5.04 -5.8c0.34,-0.41 0.68,-0.81 1.02,-1.22 -0.34,0.41 -0.68,0.81 -1.02,1.22zm4.91 -6c0.28,-0.36 0.57,-0.72 0.85,-1.08 -0.28,0.36 -0.57,0.72 -0.85,1.08zm4.72 -6.13c0.27,-0.37 0.55,-0.74 0.82,-1.1 -0.27,0.36 -0.55,0.73 -0.82,1.1zm4.54 -6.27c0.23,-0.33 0.47,-0.67 0.7,-1 -0.23,0.33 -0.47,0.67 -0.7,1zm4.38 -6.44c0.21,-0.32 0.42,-0.64 0.63,-0.96 -0.21,0.32 -0.42,0.64 -0.63,0.96zm4.15 -6.52c0.18,-0.3 0.37,-0.6 0.55,-0.9 -0.18,0.3 -0.37,0.6 -0.55,0.9zm4.01 -6.74c0.15,-0.27 0.31,-0.54 0.46,-0.81 -0.15,0.27 -0.31,0.54 -0.46,0.81zm3.7 -6.68c0.17,-0.31 0.34,-0.62 0.5,-0.94 -0.16,0.32 -0.33,0.63 -0.5,0.94zm3.54 -6.84c0.18,-0.38 0.37,-0.75 0.55,-1.13 -0.18,0.38 -0.37,0.75 -0.55,1.13zm3.3 -6.92c0.2,-0.41 0.39,-0.83 0.58,-1.25 -0.19,0.42 -0.38,0.84 -0.58,1.25zm3.1 -7c0.22,-0.52 0.44,-1.05 0.66,-1.57 -0.22,0.52 -0.44,1.05 -0.66,1.57zm2.92 -7.2c0.2,-0.53 0.4,-1.05 0.6,-1.58 -0.2,0.53 -0.4,1.05 -0.6,1.58zm2.64 -7.16c0.24,-0.67 0.47,-1.34 0.7,-2.01 -0.23,0.67 -0.46,1.34 -0.7,2.01zm2.51 -7.48c0.2,-0.63 0.4,-1.25 0.59,-1.88 -0.19,0.63 -0.39,1.25 -0.59,1.88zm2.2 -7.33c0.22,-0.78 0.44,-1.57 0.65,-2.35 -0.21,0.78 -0.43,1.57 -0.65,2.35zm2.07 -7.75c0.17,-0.69 0.34,-1.38 0.5,-2.07 -0.16,0.69 -0.33,1.38 -0.5,2.07zm1.74 -7.52c0.18,-0.84 0.36,-1.68 0.53,-2.52 -0.18,0.84 -0.35,1.68 -0.53,2.52zm1.58 -7.98c0.13,-0.71 0.26,-1.43 0.38,-2.15 -0.12,0.72 -0.25,1.44 -0.38,2.15zm1.26 -7.71c0.13,-0.84 0.25,-1.69 0.37,-2.54 -0.12,0.85 -0.24,1.7 -0.37,2.54zm1.07 -8.17c0.08,-0.7 0.16,-1.4 0.23,-2.1 -0.07,0.7 -0.15,1.4 -0.23,2.1zm0.77 -7.91c0.06,-0.79 0.12,-1.59 0.18,-2.38 -0.06,0.79 -0.12,1.59 -0.18,2.38zm0.53 -8.32c0.02,-0.65 0.05,-1.3 0.08,-1.94 -0.03,0.64 -0.06,1.29 -0.08,1.94zm0.23 -8.11c0.01,-0.7 0.02,-1.39 0.02,-2.09 0,0.7 -0.01,1.39 -0.02,2.09zm-0.04 -8.42c-0.01,-0.57 -0.02,-1.14 -0.04,-1.71 0.02,0.57 0.03,1.14 0.04,1.71zm-0.32 -8.29c-0.03,-0.58 -0.06,-1.15 -0.1,-1.73 0.04,0.58 0.07,1.15 0.1,1.73zm-0.62 -8.51c-0.04,-0.47 -0.08,-0.94 -0.13,-1.41 0.05,0.47 0.09,0.94 0.13,1.41zm-0.9 -8.4c-0.06,-0.45 -0.11,-0.9 -0.17,-1.35 0.06,0.45 0.11,0.9 0.17,1.35zm-1.2 -8.45c-0.07,-0.44 -0.14,-0.87 -0.21,-1.31 0.07,0.44 0.14,0.87 0.21,1.31zm-1.5 -8.5c-0.09,-0.46 -0.19,-0.93 -0.28,-1.4 0.09,0.47 0.19,0.94 0.28,1.4zm-1.77 -8.34c-0.13,-0.56 -0.26,-1.11 -0.39,-1.67 0.13,0.56 0.26,1.11 0.39,1.67zm-2.09 -8.46c-0.16,-0.61 -0.32,-1.22 -0.49,-1.83 0.17,0.61 0.33,1.22 0.49,1.83zm-2.41 -8.56c-0.19,-0.62 -0.38,-1.24 -0.57,-1.86 0.19,0.62 0.38,1.24 0.57,1.86zm-2.72 -8.54c-0.22,-0.64 -0.44,-1.28 -0.66,-1.92 0.22,0.64 0.44,1.28 0.66,1.92zm-3.03 -8.52c-0.26,-0.7 -0.52,-1.4 -0.79,-2.1 0.27,0.7 0.53,1.4 0.79,2.1zm-3.39 -8.64c-0.29,-0.7 -0.58,-1.41 -0.87,-2.11 0.29,0.7 0.58,1.41 0.87,2.11zm-3.75 -8.73c-0.29,-0.64 -0.59,-1.29 -0.88,-1.94 0.29,0.65 0.59,1.3 0.88,1.94zm-4.13 -8.79c-0.27,-0.55 -0.54,-1.1 -0.82,-1.65 0.28,0.55 0.55,1.1 0.82,1.65zm-4.45 -8.72c-0.27,-0.5 -0.54,-1.01 -0.81,-1.52 0.27,0.51 0.55,1.02 0.81,1.52zm-4.83 -8.78c-0.12,-0.21 -0.24,-0.42 -0.36,-0.63 -2.06,-3.6 -3.71,-6.57 -5.09,-9.07 -5.86,-10.64 -7.44,-13.48 -20.69,-26.28 -27.96,-27.03 -57.44,-52.9 -94.18,-69.7 -35.02,-16.01 -76.69,-23.82 -129.99,-16.59 109.24,-14.82 169.57,33.51 224.18,86.28 16.37,15.81 14.89,16.39 25.78,35.36 0.12,0.21 0.23,0.42 0.35,0.63zm-250.41 -122.25c-1.68,0.23 -3.37,0.47 -5.07,0.73 1.7,-0.26 3.39,-0.5 5.07,-0.73z"/>
    </g>
   </g>
  </g>
 </g>
</svg>
