<?xml version="1.0" encoding="UTF-8"?>
<!DOCTYPE svg PUBLIC "-//W3C//DTD SVG 1.1//EN" "http://www.w3.org/2000/svg">
<svg xmlns="http://www.w3.org/2000/svg" xml:space="preserve" width="42.3332mm" height="42.3332mm" version="1.1" style="shape-rendering:geometricPrecision; text-rendering:geometricPrecision; image-rendering:optimizeQuality; fill-rule:evenodd; clip-rule:evenodd"
viewBox="0 0 4233.32 4233.32">
 <g>
  <path d="M3599.74 2472.86c-78.18,44.87 -118.47,107.47 -246.47,106.16 -141.36,-1.46 -172.41,-82.14 -251.71,-114.04 -50.73,60.54 -124.99,98.36 -234.83,93.8 -125.03,-5.19 -170.86,-62.27 -247.81,-92.47 -71.94,45.31 -111.5,98.39 -247.96,91.11 -134.16,-7.18 -172.33,-68.72 -258.2,-91.63 -111.07,66.52 -249.22,130.63 -392.95,67.35 -50.76,-22.36 -66.4,-44.06 -103.29,-66.07 -78.14,33.44 -124.92,83.63 -237.89,91.21 -112.71,7.57 -194.12,-31.86 -244.63,-93.48 -52.4,21.21 -115.08,113.29 -251.83,114.17 -124.07,0.84 -184.25,-68.29 -246.98,-111.17 21.68,93.02 147.29,415.01 189.79,543.53 61.64,186.26 132.86,368.15 195.25,549.12 83.73,242.77 70.54,370.09 351.53,383.03 238.41,10.95 499.92,0.7 740.85,0.73 242.14,0.02 495.51,7.65 735.91,-0.23 291.67,-9.57 286.06,-138.11 365.2,-375.6l194.04 -548.56c64.8,-173.02 136.26,-371.02 191.98,-546.96zm-507.57 -1399.63c-140.53,23.87 -490.77,231.14 -643.8,311.06 -936.48,489.01 -1086.88,311.01 -1433.95,469.67 -122.21,55.86 -185.28,123.67 -184.73,296.28 0.33,101.91 2.59,129.48 69.32,171.79 47.39,30.04 131.65,49.58 191,58.59 461.82,70.13 795.79,-11.78 1163.76,-228.24 104.2,-61.29 193.29,-120.86 292.61,-183.54 150.1,-94.73 443.78,-260.98 569.34,-383.71 66,-64.51 171.65,-163.12 200.76,-275.45 38.08,-147.01 -79.72,-261.03 -224.31,-236.45zm-719.77 -821.68c-1.94,1.89 -4.58,2.27 -5.39,5.99l-36.28 56.71c-250.48,419.97 -513.7,312.12 -908.94,588.76 -126.33,88.43 -270.41,280.49 -298.54,506.13 -18.94,151.94 42.73,228.92 122.53,270.07 217.74,112.31 689.2,-183.04 868.49,-281.65 171.05,-94.08 337.15,-201.02 507.3,-296.78 82.84,-46.64 206.98,-99.67 238.56,-158.54 55.4,-103.34 -60.31,-222.15 -111.48,-261.18 -133.33,-101.7 -156.14,-35.25 -268.07,-129.38 -70.94,-59.68 -101.26,-172.94 -108.18,-300.13zm-242.09 2080.85c560.93,26.17 920.74,22.77 1303.84,-299.68l64.92 -64.36c47.77,-60.96 68.75,-124.14 50.79,-200.94 -26.06,-111.43 -129.58,-178.28 -239.29,-155.47 -81.06,16.87 -103.75,56.63 -156.88,109.89 -202.88,203.46 -573.85,374.79 -838.15,511.98 -37.62,19.54 -160.17,70.98 -185.23,98.58z"/>
 </g>
</svg>
