<?xml version="1.0" encoding="UTF-8"?>
<!DOCTYPE svg PUBLIC "-//W3C//DTD SVG 1.1//EN" "http://www.w3.org/2000/svg">
<svg xmlns="http://www.w3.org/2000/svg" xml:space="preserve" width="34.5438mm" height="34.5438mm" version="1.1" style="shape-rendering:geometricPrecision; text-rendering:geometricPrecision; image-rendering:optimizeQuality; fill-rule:evenodd; clip-rule:evenodd"
viewBox="0 0 3454.38 3454.38">
 <defs>
  <style type="text/css">
    .fil3 {fill:#FEFEFE}
    .fil4 {fill:#615451}
    .fil2 {fill:#695E5A}
    .fil1 {fill:#EED0C6}
    .fil0 {fill:#FBD46D}
  </style>
 </defs>
 <g>
  <g>
   <ellipse class="fil0" cx="1727.19" cy="1727.19" rx="1693.34" ry="1693.33"/>
   <g>
    <path class="fil1" d="M1727.19 33.85c935.19,0 1693.34,758.15 1693.34,1693.34 0,935.18 -758.15,1693.33 -1693.34,1693.33 -935.18,0 -1693.33,-758.15 -1693.33,-1693.33 0,-935.19 758.15,-1693.34 1693.33,-1693.34z"/>
    <path id="1" class="fil2" d="M1727.19 33.85c0.53,0 1.05,0.02 1.58,0.02 -0.53,0 -1.05,-0.01 -1.58,-0.01 -0.53,0 -1.05,0.01 -1.58,0.01 0.53,0 1.05,-0.02 1.58,-0.02zm42.12 0.53c1.06,0.03 2.12,0.06 3.17,0.08 -1.05,-0.02 -2.11,-0.05 -3.17,-0.08zm43.42 1.61c1.07,0.06 2.14,0.11 3.21,0.17 -1.07,-0.06 -2.14,-0.11 -3.21,-0.17zm43.11 2.69c1.09,0.09 2.18,0.17 3.27,0.25 -1.09,-0.08 -2.18,-0.16 -3.27,-0.25zm42.81 3.76c1.12,0.12 2.23,0.23 3.34,0.34 -1.11,-0.11 -2.22,-0.22 -3.34,-0.34zm42.5 4.82c1.14,0.14 2.28,0.29 3.42,0.44 -1.14,-0.15 -2.28,-0.3 -3.42,-0.44zm42.16 5.86c1.17,0.17 2.35,0.35 3.52,0.53 -1.17,-0.18 -2.35,-0.36 -3.52,-0.53zm41.82 6.88c1.2,0.21 2.41,0.43 3.62,0.65 -1.21,-0.22 -2.42,-0.44 -3.62,-0.65zm41.46 7.9c1.24,0.25 2.49,0.5 3.73,0.76 -1.24,-0.26 -2.49,-0.51 -3.73,-0.76zm41.1 8.9c1.28,0.29 2.55,0.58 3.83,0.88 -1.28,-0.3 -2.55,-0.59 -3.83,-0.88zm40.73 9.88c1.3,0.34 2.61,0.67 3.92,1.01 -1.31,-0.34 -2.62,-0.67 -3.92,-1.01zm40.33 10.87c1.34,0.37 2.67,0.75 4.01,1.13 -1.34,-0.38 -2.67,-0.76 -4.01,-1.13zm39.94 11.82c1.36,0.42 2.72,0.85 4.08,1.27 -1.36,-0.42 -2.72,-0.85 -4.08,-1.27zm39.52 12.78c1.38,0.46 2.77,0.93 4.15,1.4 -1.38,-0.47 -2.77,-0.94 -4.15,-1.4zm39.1 13.71c1.4,0.51 2.8,1.03 4.2,1.54 -1.4,-0.51 -2.8,-1.03 -4.2,-1.54zm38.66 14.64c1.41,0.56 2.82,1.11 4.23,1.67 -1.41,-0.56 -2.82,-1.11 -4.23,-1.67zm38.21 15.55c1.41,0.6 2.83,1.2 4.24,1.8 -1.41,-0.6 -2.83,-1.2 -4.24,-1.8zm37.74 16.45c1.42,0.64 2.83,1.28 4.25,1.92 -1.42,-0.64 -2.83,-1.28 -4.25,-1.92zm37.27 17.34c1.41,0.68 2.82,1.36 4.23,2.04 -1.41,-0.68 -2.82,-1.36 -4.23,-2.04zm36.79 18.22c1.39,0.71 2.78,1.42 4.17,2.14 -1.39,-0.72 -2.78,-1.43 -4.17,-2.14zm36.28 19.08c1.37,0.74 2.74,1.48 4.11,2.23 -1.37,-0.75 -2.74,-1.49 -4.11,-2.23zm35.77 19.93c1.34,0.77 2.68,1.54 4.02,2.31 -1.34,-0.77 -2.68,-1.54 -4.02,-2.31zm35.24 20.77c1.3,0.79 2.61,1.58 3.91,2.37 -1.3,-0.79 -2.61,-1.58 -3.91,-2.37zm34.69 21.59c1.27,0.81 2.53,1.62 3.79,2.43 -1.26,-0.81 -2.52,-1.62 -3.79,-2.43zm34.14 22.41c1.22,0.82 2.44,1.64 3.65,2.46 -1.21,-0.82 -2.43,-1.64 -3.65,-2.46zm33.57 23.21c1.17,0.82 2.33,1.65 3.49,2.47 -1.16,-0.82 -2.32,-1.65 -3.49,-2.47zm32.99 23.99c1.1,0.82 2.21,1.65 3.31,2.48 -1.1,-0.83 -2.21,-1.66 -3.31,-2.48zm32.39 24.77c1.04,0.82 2.08,1.63 3.12,2.45 -1.04,-0.82 -2.08,-1.63 -3.12,-2.45zm31.77 25.53c0.98,0.8 1.95,1.61 2.93,2.41 -0.98,-0.8 -1.95,-1.61 -2.93,-2.41zm31.15 26.27c0.91,0.79 1.81,1.58 2.72,2.36 -0.91,-0.78 -1.81,-1.57 -2.72,-2.36zm30.5 27.01c0.84,0.76 1.68,1.53 2.52,2.29 -0.84,-0.76 -1.68,-1.53 -2.52,-2.29zm29.85 27.73c0.77,0.73 1.54,1.47 2.3,2.2 -0.76,-0.73 -1.53,-1.47 -2.3,-2.2zm29.17 28.44c0.7,0.7 1.4,1.4 2.1,2.1 -0.35,-0.35 -0.69,-0.71 -1.04,-1.06 -0.35,-0.35 -0.71,-0.69 -1.06,-1.04zm28.34 28.97c0.73,0.76 1.47,1.53 2.2,2.3 -0.73,-0.77 -1.47,-1.54 -2.2,-2.3zm27.64 29.63c0.76,0.84 1.53,1.68 2.29,2.52 -0.76,-0.84 -1.53,-1.68 -2.29,-2.52zm26.94 30.3c0.78,0.91 1.57,1.81 2.36,2.72 -0.79,-0.91 -1.58,-1.81 -2.36,-2.72zm26.22 30.94c0.8,0.98 1.61,1.95 2.41,2.93 -0.8,-0.98 -1.61,-1.95 -2.41,-2.93zm25.49 31.58c0.82,1.04 1.63,2.08 2.45,3.12 -0.82,-1.04 -1.63,-2.08 -2.45,-3.12zm24.74 32.2c0.83,1.1 1.66,2.21 2.48,3.31 -0.82,-1.1 -1.65,-2.21 -2.48,-3.31zm24 32.81c0.82,1.16 1.65,2.32 2.47,3.49 -0.82,-1.17 -1.65,-2.33 -2.47,-3.49zm23.22 33.41c0.82,1.21 1.64,2.43 2.46,3.65 -0.82,-1.22 -1.64,-2.44 -2.46,-3.65zm22.44 34c0.81,1.26 1.62,2.52 2.43,3.79 -0.81,-1.27 -1.62,-2.53 -2.43,-3.79zm21.65 34.57c0.79,1.3 1.58,2.61 2.37,3.91 -0.79,-1.3 -1.58,-2.61 -2.37,-3.91zm20.83 35.13c0.77,1.34 1.54,2.68 2.31,4.02 -0.77,-1.34 -1.54,-2.68 -2.31,-4.02zm20.01 35.68c0.75,1.37 1.49,2.74 2.23,4.11 -0.74,-1.37 -1.48,-2.74 -2.23,-4.11zm19.17 36.22c0.72,1.39 1.43,2.78 2.14,4.17 -0.71,-1.39 -1.42,-2.78 -2.14,-4.17zm18.32 36.73c0.68,1.41 1.36,2.82 2.04,4.23 -0.68,-1.41 -1.36,-2.82 -2.04,-4.23zm17.46 37.25c0.64,1.42 1.28,2.83 1.92,4.25 -0.64,-1.42 -1.28,-2.83 -1.92,-4.25zm16.57 37.75c0.6,1.41 1.2,2.83 1.8,4.24 -0.6,-1.41 -1.2,-2.83 -1.8,-4.24zm15.68 38.22c0.56,1.41 1.11,2.82 1.67,4.23 -0.56,-1.41 -1.11,-2.82 -1.67,-4.23zm14.77 38.69c0.51,1.4 1.03,2.8 1.54,4.2 -0.51,-1.4 -1.03,-2.8 -1.54,-4.2zm13.85 39.15c0.47,1.38 0.94,2.77 1.4,4.15 -0.46,-1.38 -0.93,-2.77 -1.4,-4.15zm12.91 39.59c0.42,1.36 0.85,2.72 1.27,4.08 -0.42,-1.36 -0.85,-2.72 -1.27,-4.08zm11.96 40.01c0.38,1.34 0.76,2.67 1.13,4.01 -0.37,-1.34 -0.75,-2.67 -1.13,-4.01zm10.99 40.42c0.34,1.31 0.67,2.62 1.01,3.92 -0.34,-1.3 -0.67,-2.61 -1.01,-3.92zm10.01 40.82c0.3,1.28 0.59,2.55 0.88,3.83 -0.29,-1.28 -0.58,-2.55 -0.88,-3.83zm9.02 41.2c0.26,1.24 0.51,2.49 0.76,3.73 -0.25,-1.24 -0.5,-2.49 -0.76,-3.73zm8.01 41.57c0.22,1.21 0.44,2.42 0.65,3.62 -0.21,-1.2 -0.43,-2.41 -0.65,-3.62zm7 41.92c0.18,1.17 0.36,2.35 0.53,3.52 -0.17,-1.17 -0.35,-2.35 -0.53,-3.52zm5.95 42.26c0.15,1.14 0.3,2.28 0.44,3.42 -0.14,-1.14 -0.29,-2.28 -0.44,-3.42zm4.92 42.58c0.11,1.11 0.22,2.22 0.34,3.34 -0.12,-1.12 -0.23,-2.23 -0.34,-3.34zm3.85 42.88c0.08,1.09 0.16,2.18 0.25,3.27 -0.09,-1.09 -0.17,-2.18 -0.25,-3.27zm2.77 43.17c0.06,1.07 0.11,2.14 0.17,3.21 -0.06,-1.07 -0.11,-2.14 -0.17,-3.21zm1.7 43.46c0.02,1.05 0.05,2.11 0.08,3.17 -0.03,-1.06 -0.06,-2.12 -0.08,-3.17zm0.59 43.71c0,0.53 0.02,1.05 0.02,1.58 0,0.53 -0.02,1.05 -0.02,1.58 0,-0.53 0.01,-1.05 0.01,-1.58 0,-0.53 -0.01,-1.05 -0.01,-1.58zm-0.51 43.7c-0.03,1.06 -0.06,2.12 -0.08,3.18 0.02,-1.06 0.05,-2.12 0.08,-3.18zm-1.61 43.41c-0.06,1.07 -0.11,2.15 -0.17,3.22 0.06,-1.07 0.11,-2.15 0.17,-3.22zm-2.69 43.11c-0.09,1.1 -0.17,2.2 -0.25,3.3 0.08,-1.1 0.16,-2.2 0.25,-3.3zm-3.76 42.8c-0.12,1.13 -0.23,2.26 -0.35,3.39 0.12,-1.13 0.23,-2.26 0.35,-3.39zm-4.82 42.48c-0.14,1.17 -0.29,2.33 -0.44,3.5 0.15,-1.17 0.3,-2.33 0.44,-3.5zm-5.85 42.15c-0.18,1.2 -0.37,2.41 -0.55,3.62 0.18,-1.21 0.37,-2.42 0.55,-3.62zm-6.88 41.8c-0.22,1.25 -0.44,2.5 -0.67,3.75 0.23,-1.25 0.45,-2.5 0.67,-3.75zm-7.89 41.45c-0.27,1.3 -0.53,2.59 -0.8,3.88 0.27,-1.29 0.53,-2.58 0.8,-3.88zm-8.9 41.09c-0.3,1.34 -0.61,2.67 -0.92,4.01 0.31,-1.34 0.62,-2.67 0.92,-4.01zm-9.88 40.71c-0.35,1.38 -0.71,2.75 -1.06,4.13 0.35,-1.38 0.71,-2.75 1.06,-4.13zm-10.85 40.32c-0.41,1.42 -0.81,2.83 -1.21,4.25 0.4,-1.42 0.8,-2.83 1.21,-4.25zm-11.82 39.92c-0.45,1.45 -0.9,2.9 -1.36,4.35 0.46,-1.45 0.91,-2.9 1.36,-4.35zm-12.77 39.51c-0.5,1.48 -1,2.96 -1.5,4.44 0.5,-1.48 1,-2.96 1.5,-4.44zm-13.71 39.09c-0.55,1.5 -1.1,3.01 -1.65,4.51 0.55,-1.5 1.1,-3.01 1.65,-4.51zm-14.63 38.65c-0.6,1.52 -1.2,3.04 -1.8,4.56 0.6,-1.52 1.2,-3.04 1.8,-4.56zm-15.54 38.2c-0.65,1.53 -1.3,3.06 -1.95,4.59 0.65,-1.53 1.3,-3.06 1.95,-4.59zm-16.45 37.74c-0.69,1.53 -1.38,3.07 -2.08,4.6 0.7,-1.53 1.39,-3.07 2.08,-4.6zm-17.33 37.26c-0.73,1.54 -1.47,3.07 -2.21,4.6 0.74,-1.53 1.48,-3.06 2.21,-4.6zm-18.21 36.79c-0.77,1.51 -1.55,3.03 -2.33,4.54 0.78,-1.51 1.56,-3.03 2.33,-4.54zm-19.07 36.28c-0.81,1.49 -1.62,2.99 -2.44,4.48 0.82,-1.49 1.63,-2.99 2.44,-4.48zm-19.92 35.76c-0.84,1.47 -1.69,2.94 -2.53,4.4 0.84,-1.46 1.69,-2.93 2.53,-4.4zm-20.77 35.25c-0.86,1.43 -1.73,2.85 -2.6,4.28 0.87,-1.43 1.74,-2.86 2.6,-4.28zm-21.59 34.69c-0.88,1.39 -1.77,2.77 -2.66,4.16 0.89,-1.39 1.78,-2.77 2.66,-4.16zm-22.4 34.15c-0.9,1.33 -1.8,2.67 -2.7,4 0.9,-1.33 1.8,-2.67 2.7,-4zm-23.21 33.58c-0.9,1.27 -1.81,2.55 -2.72,3.82 0.91,-1.27 1.82,-2.55 2.72,-3.82zm-23.99 32.99c-0.91,1.21 -1.81,2.42 -2.72,3.64 0.91,-1.22 1.81,-2.43 2.72,-3.64zm-24.77 32.39c-0.9,1.15 -1.8,2.29 -2.7,3.44 0.9,-1.15 1.8,-2.29 2.7,-3.44zm-25.53 31.79c-0.88,1.07 -1.77,2.14 -2.66,3.22 0.89,-1.08 1.78,-2.15 2.66,-3.22zm-26.28 31.15c-0.86,1 -1.73,2 -2.59,3 0.86,-1 1.73,-2 2.59,-3zm-27.01 30.52c-0.84,0.92 -1.67,1.84 -2.51,2.76 0.84,-0.92 1.67,-1.84 2.51,-2.76zm-27.73 29.85c-0.81,0.85 -1.61,1.69 -2.42,2.54 0.81,-0.85 1.61,-1.69 2.42,-2.54zm-28.44 29.19c-0.77,0.77 -1.54,1.54 -2.31,2.31 0.38,-0.39 0.77,-0.76 1.16,-1.15 0.39,-0.39 0.76,-0.78 1.15,-1.16zm-28.98 28.34c-0.83,0.8 -1.67,1.6 -2.51,2.4 0.84,-0.8 1.68,-1.6 2.51,-2.4zm-29.63 27.65c-0.91,0.82 -1.82,1.65 -2.72,2.47 0.9,-0.82 1.81,-1.65 2.72,-2.47zm-30.29 26.93c-0.98,0.85 -1.96,1.7 -2.94,2.55 0.98,-0.85 1.96,-1.7 2.94,-2.55zm-30.93 26.22c-1.06,0.87 -2.11,1.74 -3.17,2.61 1.06,-0.87 2.11,-1.74 3.17,-2.61zm-31.57 25.49c-1.13,0.88 -2.25,1.77 -3.38,2.65 1.13,-0.88 2.25,-1.77 3.38,-2.65zm-32.19 24.74c-1.2,0.9 -2.39,1.79 -3.59,2.69 1.2,-0.9 2.39,-1.79 3.59,-2.69zm-32.8 23.99c-1.26,0.9 -2.53,1.8 -3.79,2.69 1.26,-0.89 2.53,-1.79 3.79,-2.69zm-33.39 23.21c-1.33,0.9 -2.66,1.8 -3.99,2.69 1.33,-0.89 2.66,-1.79 3.99,-2.69zm-33.99 22.44c-1.38,0.89 -2.76,1.78 -4.15,2.66 1.39,-0.88 2.77,-1.77 4.15,-2.66zm-34.55 21.64c-1.44,0.88 -2.87,1.75 -4.31,2.62 1.44,-0.87 2.87,-1.74 4.31,-2.62zm-35.12 20.83c-1.48,0.86 -2.96,1.71 -4.44,2.56 1.48,-0.85 2.96,-1.7 4.44,-2.56zm-35.67 20.02c-1.52,0.82 -3.03,1.65 -4.55,2.47 1.52,-0.82 3.03,-1.65 4.55,-2.47zm-36.21 19.17c-1.54,0.79 -3.08,1.59 -4.63,2.37 1.55,-0.78 3.09,-1.58 4.63,-2.37zm-36.73 18.33c-1.56,0.75 -3.12,1.5 -4.69,2.26 1.57,-0.76 3.13,-1.51 4.69,-2.26zm-37.24 17.45c-1.58,0.72 -3.15,1.43 -4.73,2.14 1.58,-0.71 3.15,-1.42 4.73,-2.14zm-37.74 16.58c-1.58,0.67 -3.16,1.34 -4.73,2.01 1.57,-0.67 3.15,-1.34 4.73,-2.01zm-38.23 15.69c-1.57,0.62 -3.14,1.24 -4.71,1.86 1.57,-0.62 3.14,-1.24 4.71,-1.86zm-38.7 14.78c-1.55,0.57 -3.11,1.14 -4.66,1.71 1.55,-0.57 3.11,-1.14 4.66,-1.71zm-39.15 13.86c-1.54,0.52 -3.07,1.04 -4.6,1.55 1.53,-0.51 3.06,-1.03 4.6,-1.55zm-39.6 12.92c-1.5,0.47 -3.01,0.93 -4.51,1.4 1.5,-0.47 3.01,-0.93 4.51,-1.4zm-40.03 11.97c-1.47,0.41 -2.93,0.83 -4.4,1.25 1.47,-0.42 2.93,-0.84 4.4,-1.25zm-40.44 11c-1.43,0.37 -2.85,0.73 -4.27,1.1 1.42,-0.37 2.84,-0.73 4.27,-1.1zm-40.84 10.02c-1.38,0.32 -2.76,0.64 -4.14,0.96 1.38,-0.32 2.76,-0.64 4.14,-0.96zm-41.22 9.03c-1.34,0.27 -2.67,0.55 -4,0.82 1.33,-0.27 2.66,-0.55 4,-0.82zm-41.59 8.02c-1.29,0.23 -2.57,0.46 -3.85,0.69 1.28,-0.23 2.56,-0.46 3.85,-0.69zm-41.95 7c-1.23,0.19 -2.46,0.38 -3.7,0.57 1.24,-0.19 2.47,-0.38 3.7,-0.57zm-42.28 5.96c-1.18,0.16 -2.37,0.31 -3.56,0.46 1.19,-0.15 2.38,-0.3 3.56,-0.46zm-42.59 4.92c-1.15,0.12 -2.29,0.23 -3.44,0.35 1.15,-0.12 2.29,-0.23 3.44,-0.35zm-42.91 3.85c-1.11,0.09 -2.21,0.17 -3.32,0.26 1.11,-0.09 2.21,-0.17 3.32,-0.26zm-43.19 2.78c-1.08,0.06 -2.16,0.11 -3.24,0.17 1.08,-0.06 2.16,-0.11 3.24,-0.17zm-43.46 1.7c-1.06,0.02 -2.12,0.05 -3.18,0.08 1.06,-0.03 2.12,-0.06 3.18,-0.08zm-43.72 0.59c-0.53,0 -1.05,0.02 -1.58,0.02 -0.53,0 -1.05,-0.02 -1.58,-0.02 0.53,0 1.05,0.01 1.58,0.01 0.53,0 1.05,-0.01 1.58,-0.01zm-43.7 -0.51c-1.06,-0.03 -2.12,-0.06 -3.18,-0.08 1.06,0.02 2.12,0.05 3.18,0.08zm-43.41 -1.61c-1.07,-0.06 -2.15,-0.11 -3.22,-0.17 1.07,0.06 2.15,0.11 3.22,0.17zm-43.11 -2.69c-1.1,-0.09 -2.2,-0.17 -3.3,-0.25 1.1,0.08 2.2,0.16 3.3,0.25zm-42.8 -3.76c-1.13,-0.12 -2.26,-0.23 -3.39,-0.35 1.13,0.12 2.26,0.23 3.39,0.35zm-42.48 -4.82c-1.17,-0.14 -2.33,-0.29 -3.5,-0.44 1.17,0.15 2.33,0.3 3.5,0.44zm-42.15 -5.85c-1.2,-0.18 -2.41,-0.37 -3.62,-0.55 1.21,0.18 2.42,0.37 3.62,0.55zm-41.8 -6.88c-1.25,-0.22 -2.5,-0.44 -3.75,-0.67 1.25,0.23 2.5,0.45 3.75,0.67zm-41.45 -7.89c-1.3,-0.27 -2.59,-0.53 -3.89,-0.8 1.3,0.27 2.59,0.53 3.89,0.8zm-41.09 -8.9c-1.34,-0.3 -2.67,-0.61 -4.01,-0.92 1.34,0.31 2.67,0.62 4.01,0.92zm-40.7 -9.88c-1.39,-0.35 -2.77,-0.71 -4.15,-1.06 1.38,0.35 2.76,0.71 4.15,1.06zm-40.32 -10.85c-1.42,-0.4 -2.85,-0.81 -4.27,-1.21 1.42,0.4 2.85,0.81 4.27,1.21zm-39.92 -11.82c-1.46,-0.45 -2.92,-0.91 -4.37,-1.36 1.45,0.45 2.91,0.91 4.37,1.36zm-39.51 -12.77c-1.49,-0.5 -2.98,-1 -4.46,-1.51 1.48,0.51 2.97,1.01 4.46,1.51zm-39.08 -13.7c-1.52,-0.55 -3.03,-1.11 -4.54,-1.67 1.51,0.56 3.02,1.12 4.54,1.67zm-38.65 -14.63c-1.53,-0.6 -3.07,-1.21 -4.6,-1.82 1.53,0.61 3.07,1.22 4.6,1.82zm-38.2 -15.54c-1.54,-0.65 -3.09,-1.31 -4.64,-1.97 1.55,0.66 3.1,1.32 4.64,1.97zm-37.73 -16.45c-1.56,-0.69 -3.11,-1.4 -4.66,-2.1 1.55,0.7 3.1,1.41 4.66,2.1zm-37.27 -17.32c-1.55,-0.75 -3.1,-1.5 -4.64,-2.24 1.54,0.74 3.09,1.49 4.64,2.24zm-36.77 -18.21c-1.54,-0.79 -3.08,-1.57 -4.62,-2.36 1.54,0.79 3.08,1.57 4.62,2.36zm-36.28 -19.07c-1.52,-0.82 -3.04,-1.65 -4.56,-2.48 1.52,0.83 3.04,1.66 4.56,2.48zm-35.76 -19.92c-1.5,-0.86 -2.99,-1.72 -4.49,-2.58 1.5,0.86 2.99,1.72 4.49,2.58zm-35.24 -20.76c-1.46,-0.88 -2.92,-1.77 -4.38,-2.66 1.46,0.89 2.92,1.78 4.38,2.66zm-34.69 -21.58c-1.42,-0.91 -2.84,-1.82 -4.26,-2.73 1.42,0.91 2.84,1.82 4.26,2.73zm-34.14 -22.4c-1.37,-0.93 -2.75,-1.85 -4.12,-2.78 1.37,0.93 2.75,1.85 4.12,2.78zm-33.57 -23.2c-1.32,-0.94 -2.64,-1.87 -3.96,-2.81 1.32,0.94 2.64,1.87 3.96,2.81zm-32.99 -23.99c-1.26,-0.94 -2.52,-1.88 -3.78,-2.82 1.26,0.94 2.52,1.88 3.78,2.82zm-32.39 -24.76c-1.19,-0.94 -2.39,-1.88 -3.58,-2.82 1.19,0.94 2.39,1.88 3.58,2.82zm-31.77 -25.52c-1.13,-0.93 -2.26,-1.86 -3.39,-2.79 1.13,0.93 2.26,1.86 3.39,2.79zm-31.15 -26.27c-1.06,-0.92 -2.12,-1.83 -3.18,-2.75 1.06,0.92 2.12,1.83 3.18,2.75zm-30.51 -27.01c-0.99,-0.89 -1.97,-1.78 -2.95,-2.68 0.98,0.9 1.96,1.79 2.95,2.68zm-29.85 -27.72c-0.91,-0.87 -1.83,-1.73 -2.74,-2.61 0.91,0.87 1.83,1.74 2.74,2.61zm-29.18 -28.43c-0.84,-0.84 -1.68,-1.68 -2.52,-2.52 0.42,0.42 0.83,0.85 1.25,1.27 0.42,0.42 0.85,0.83 1.27,1.25zm-28.34 -28.96c-0.88,-0.91 -1.74,-1.83 -2.61,-2.74 0.87,0.91 1.73,1.83 2.61,2.74zm-27.65 -29.64c-0.9,-0.98 -1.79,-1.96 -2.68,-2.95 0.89,0.99 1.78,1.97 2.68,2.95zm-26.94 -30.28c-0.92,-1.06 -1.83,-2.12 -2.75,-3.18 0.92,1.06 1.83,2.12 2.75,3.18zm-26.23 -30.94c-0.93,-1.13 -1.86,-2.26 -2.79,-3.39 0.93,1.13 1.86,2.26 2.79,3.39zm-25.49 -31.58c-0.94,-1.19 -1.88,-2.39 -2.82,-3.58 0.94,1.19 1.88,2.39 2.82,3.58zm-24.76 -32.19c-0.94,-1.26 -1.88,-2.52 -2.82,-3.78 0.94,1.26 1.88,2.52 2.82,3.78zm-24 -32.81c-0.94,-1.32 -1.87,-2.64 -2.81,-3.96 0.94,1.32 1.87,2.64 2.81,3.96zm-23.23 -33.41c-0.93,-1.37 -1.85,-2.75 -2.78,-4.12 0.93,1.37 1.85,2.75 2.78,4.12zm-22.45 -34c-0.91,-1.42 -1.82,-2.84 -2.73,-4.26 0.91,1.42 1.82,2.84 2.73,4.26zm-21.65 -34.57c-0.89,-1.46 -1.78,-2.92 -2.66,-4.38 0.88,1.46 1.77,2.92 2.66,4.38zm-20.84 -35.13c-0.86,-1.5 -1.72,-2.99 -2.58,-4.49 0.86,1.5 1.72,2.99 2.58,4.49zm-20.02 -35.69c-0.83,-1.52 -1.66,-3.04 -2.48,-4.56 0.82,1.52 1.65,3.04 2.48,4.56zm-19.19 -36.22c-0.79,-1.54 -1.57,-3.08 -2.36,-4.62 0.79,1.54 1.57,3.08 2.36,4.62zm-18.33 -36.75c-0.74,-1.54 -1.49,-3.09 -2.24,-4.64 0.75,1.55 1.5,3.1 2.24,4.64zm-17.46 -37.25c-0.7,-1.55 -1.41,-3.1 -2.1,-4.66 0.69,1.56 1.4,3.11 2.1,4.66zm-16.58 -37.75c-0.66,-1.55 -1.32,-3.1 -1.97,-4.64 0.65,1.54 1.31,3.09 1.97,4.64zm-15.69 -38.24c-0.61,-1.53 -1.22,-3.07 -1.82,-4.6 0.6,1.53 1.21,3.07 1.82,4.6zm-14.78 -38.71c-0.56,-1.51 -1.12,-3.02 -1.67,-4.54 0.55,1.52 1.11,3.03 1.67,4.54zm-13.86 -39.16c-0.51,-1.48 -1.01,-2.97 -1.51,-4.46 0.5,1.49 1,2.98 1.51,4.46zm-12.92 -39.6c-0.45,-1.45 -0.91,-2.91 -1.36,-4.37 0.45,1.46 0.91,2.92 1.36,4.37zm-11.97 -40.02c-0.4,-1.42 -0.81,-2.85 -1.21,-4.27 0.4,1.42 0.81,2.85 1.21,4.27zm-11 -40.44c-0.35,-1.38 -0.71,-2.76 -1.06,-4.15 0.35,1.39 0.71,2.77 1.06,4.15zm-10.02 -40.84c-0.31,-1.34 -0.62,-2.67 -0.92,-4.01 0.3,1.34 0.61,2.67 0.92,4.01zm-9.02 -41.21c-0.27,-1.3 -0.53,-2.59 -0.8,-3.89 0.27,1.3 0.53,2.59 0.8,3.89zm-8.02 -41.59c-0.23,-1.25 -0.45,-2.5 -0.67,-3.75 0.22,1.25 0.44,2.5 0.67,3.75zm-7 -41.93c-0.18,-1.21 -0.37,-2.42 -0.55,-3.62 0.18,1.2 0.37,2.41 0.55,3.62zm-5.96 -42.27c-0.15,-1.17 -0.3,-2.33 -0.44,-3.5 0.14,1.17 0.29,2.33 0.44,3.5zm-4.91 -42.59c-0.12,-1.13 -0.23,-2.26 -0.35,-3.39 0.12,1.13 0.23,2.26 0.35,3.39zm-3.86 -42.89c-0.08,-1.1 -0.16,-2.2 -0.25,-3.3 0.09,1.1 0.17,2.2 0.25,3.3zm-2.77 -43.19c-0.06,-1.07 -0.11,-2.15 -0.17,-3.22 0.06,1.07 0.11,2.15 0.17,3.22zm-1.7 -43.45c-0.02,-1.06 -0.05,-2.12 -0.08,-3.18 0.03,1.06 0.06,2.12 0.08,3.18zm-0.59 -43.72c0,-0.53 -0.02,-1.05 -0.02,-1.58 0,-0.53 0.02,-1.05 0.02,-1.58 0,0.53 -0.01,1.05 -0.01,1.58 0,0.53 0.01,1.05 0.01,1.58zm0.51 -43.7c0.03,-1.06 0.06,-2.12 0.08,-3.18 -0.02,1.06 -0.05,2.12 -0.08,3.18zm1.61 -43.4c0.06,-1.08 0.11,-2.16 0.17,-3.24 -0.06,1.08 -0.11,2.16 -0.17,3.24zm2.69 -43.11c0.09,-1.11 0.17,-2.21 0.26,-3.32 -0.09,1.11 -0.17,2.21 -0.26,3.32zm3.76 -42.79c0.12,-1.15 0.23,-2.29 0.35,-3.44 -0.12,1.15 -0.23,2.29 -0.35,3.44zm4.81 -42.47c0.15,-1.19 0.3,-2.38 0.46,-3.56 -0.16,1.18 -0.31,2.37 -0.46,3.56zm5.85 -42.14c0.19,-1.24 0.38,-2.47 0.57,-3.7 -0.19,1.23 -0.38,2.46 -0.57,3.7zm6.88 -41.8c0.23,-1.28 0.46,-2.56 0.69,-3.85 -0.23,1.29 -0.46,2.57 -0.69,3.85zm7.89 -41.44c0.27,-1.33 0.55,-2.66 0.82,-4 -0.27,1.34 -0.55,2.67 -0.82,4zm8.89 -41.08c0.32,-1.38 0.64,-2.76 0.96,-4.14 -0.32,1.38 -0.64,2.76 -0.96,4.14zm9.88 -40.71c0.37,-1.42 0.73,-2.84 1.1,-4.27 -0.37,1.43 -0.73,2.85 -1.1,4.27zm10.85 -40.31c0.42,-1.47 0.84,-2.93 1.25,-4.4 -0.41,1.47 -0.83,2.93 -1.25,4.4zm11.82 -39.92c0.47,-1.5 0.93,-3.01 1.4,-4.51 -0.47,1.5 -0.93,3.01 -1.4,4.51zm12.77 -39.51c0.51,-1.53 1.03,-3.06 1.55,-4.6 -0.52,1.54 -1.04,3.07 -1.55,4.6zm13.7 -39.09c0.57,-1.55 1.14,-3.11 1.71,-4.66 -0.57,1.55 -1.14,3.11 -1.71,4.66zm14.63 -38.65c0.62,-1.57 1.24,-3.14 1.86,-4.71 -0.62,1.57 -1.24,3.14 -1.86,4.71zm15.54 -38.21c0.67,-1.57 1.34,-3.15 2.01,-4.73 -0.67,1.58 -1.34,3.16 -2.01,4.73zm16.45 -37.74c0.71,-1.58 1.42,-3.15 2.14,-4.73 -0.72,1.58 -1.43,3.15 -2.14,4.73zm17.33 -37.28c0.76,-1.57 1.51,-3.13 2.26,-4.69 -0.75,1.56 -1.5,3.12 -2.26,4.69zm18.22 -36.79c0.78,-1.55 1.58,-3.09 2.37,-4.63 -0.79,1.54 -1.59,3.08 -2.37,4.63zm19.07 -36.29c0.82,-1.52 1.65,-3.03 2.47,-4.55 -0.82,1.52 -1.65,3.03 -2.47,4.55zm19.93 -35.78c0.85,-1.48 1.7,-2.96 2.56,-4.44 -0.86,1.48 -1.71,2.96 -2.56,4.44zm20.77 -35.25c0.87,-1.44 1.74,-2.87 2.62,-4.31 -0.88,1.44 -1.75,2.87 -2.62,4.31zm21.6 -34.71c0.88,-1.39 1.77,-2.77 2.66,-4.15 -0.89,1.38 -1.78,2.76 -2.66,4.15zm22.41 -34.15c0.89,-1.33 1.79,-2.66 2.69,-3.99 -0.9,1.33 -1.8,2.66 -2.69,3.99zm23.21 -33.59c0.89,-1.26 1.79,-2.53 2.69,-3.79 -0.9,1.26 -1.8,2.53 -2.69,3.79zm23.99 -33c0.9,-1.2 1.79,-2.39 2.69,-3.59 -0.9,1.2 -1.79,2.39 -2.69,3.59zm24.78 -32.4c0.88,-1.13 1.77,-2.25 2.65,-3.38 -0.88,1.13 -1.77,2.25 -2.65,3.38zm25.53 -31.78c0.87,-1.06 1.74,-2.11 2.61,-3.17 -0.87,1.06 -1.74,2.11 -2.61,3.17zm26.28 -31.16c0.85,-0.98 1.7,-1.96 2.55,-2.94 -0.85,0.98 -1.7,1.96 -2.55,2.94zm27.01 -30.51c0.82,-0.9 1.65,-1.81 2.47,-2.72 -0.82,0.91 -1.65,1.82 -2.47,2.72zm27.72 -29.84c0.8,-0.84 1.6,-1.68 2.4,-2.51 -0.8,0.83 -1.6,1.67 -2.4,2.51zm28.43 -29.18c0.77,-0.77 1.54,-1.54 2.31,-2.31 -0.38,0.39 -0.77,0.76 -1.16,1.15 -0.39,0.39 -0.76,0.78 -1.15,1.16zm28.96 -28.33c0.85,-0.81 1.69,-1.61 2.54,-2.42 -0.85,0.81 -1.69,1.61 -2.54,2.42zm29.63 -27.64c0.92,-0.84 1.84,-1.67 2.76,-2.51 -0.92,0.84 -1.84,1.67 -2.76,2.51zm30.28 -26.93c1,-0.86 2,-1.73 3,-2.59 -1,0.86 -2,1.73 -3,2.59zm30.93 -26.21c1.08,-0.89 2.15,-1.78 3.22,-2.66 -1.07,0.88 -2.14,1.77 -3.22,2.66zm31.57 -25.49c1.15,-0.9 2.29,-1.8 3.44,-2.7 -1.15,0.9 -2.29,1.8 -3.44,2.7zm32.19 -24.75c1.22,-0.91 2.43,-1.81 3.64,-2.72 -1.21,0.91 -2.42,1.81 -3.64,2.72zm32.81 -23.99c1.27,-0.91 2.55,-1.82 3.82,-2.72 -1.27,0.9 -2.55,1.81 -3.82,2.72zm33.4 -23.23c1.33,-0.9 2.67,-1.8 4,-2.7 -1.33,0.9 -2.67,1.8 -4,2.7zm33.99 -22.44c1.39,-0.89 2.77,-1.78 4.16,-2.66 -1.39,0.88 -2.77,1.77 -4.16,2.66zm34.57 -21.65c1.43,-0.87 2.85,-1.74 4.28,-2.6 -1.42,0.86 -2.85,1.73 -4.28,2.6zm35.13 -20.84c1.46,-0.84 2.93,-1.69 4.4,-2.53 -1.47,0.84 -2.94,1.69 -4.4,2.53zm35.68 -20.01c1.49,-0.82 2.99,-1.63 4.48,-2.44 -1.49,0.81 -2.99,1.62 -4.48,2.44zm36.22 -19.18c1.51,-0.78 3.03,-1.56 4.54,-2.33 -1.51,0.77 -3.03,1.55 -4.54,2.33zm36.73 -18.33c1.53,-0.74 3.06,-1.48 4.6,-2.21 -1.54,0.73 -3.07,1.47 -4.6,2.21zm37.26 -17.46c1.53,-0.7 3.07,-1.39 4.6,-2.08 -1.53,0.69 -3.07,1.38 -4.6,2.08zm37.75 -16.58c1.53,-0.65 3.06,-1.3 4.59,-1.95 -1.53,0.65 -3.06,1.3 -4.59,1.95zm38.23 -15.69c1.52,-0.6 3.04,-1.2 4.56,-1.8 -1.52,0.6 -3.04,1.2 -4.56,1.8zm38.7 -14.78c1.5,-0.55 3.01,-1.1 4.51,-1.65 -1.5,0.55 -3.01,1.1 -4.51,1.65zm39.16 -13.86c1.48,-0.5 2.96,-1 4.44,-1.5 -1.48,0.5 -2.96,1 -4.44,1.5zm39.6 -12.91c1.45,-0.46 2.9,-0.91 4.35,-1.36 -1.45,0.45 -2.9,0.9 -4.35,1.36zm40.02 -11.97c1.42,-0.4 2.83,-0.8 4.25,-1.21 -1.42,0.41 -2.83,0.81 -4.25,1.21zm40.44 -11c1.38,-0.35 2.75,-0.71 4.13,-1.06 -1.38,0.35 -2.75,0.71 -4.13,1.06zm40.83 -10.02c1.34,-0.31 2.67,-0.62 4.01,-0.92 -1.34,0.3 -2.67,0.61 -4.01,0.92zm41.22 -9.02c1.29,-0.27 2.58,-0.53 3.88,-0.8 -1.3,0.27 -2.59,0.53 -3.88,0.8zm41.58 -8.02c1.25,-0.23 2.5,-0.45 3.75,-0.67 -1.25,0.22 -2.5,0.44 -3.75,0.67zm41.93 -7c1.21,-0.18 2.42,-0.37 3.62,-0.55 -1.2,0.18 -2.41,0.37 -3.62,0.55zm42.27 -5.96c1.17,-0.15 2.33,-0.3 3.5,-0.44 -1.17,0.14 -2.33,0.29 -3.5,0.44zm42.59 -4.91c1.13,-0.12 2.26,-0.23 3.39,-0.35 -1.13,0.12 -2.26,0.23 -3.39,0.35zm42.89 -3.86c1.1,-0.08 2.2,-0.16 3.3,-0.25 -1.1,0.09 -2.2,0.17 -3.3,0.25zm43.19 -2.77c1.07,-0.06 2.15,-0.11 3.22,-0.17 -1.07,0.06 -2.15,0.11 -3.22,0.17zm43.45 -1.7c1.06,-0.02 2.12,-0.05 3.18,-0.08 -1.06,0.03 -2.12,0.06 -3.18,0.08z"/>
   </g>
   <g>
    <g>
     <g>
      <g>
       <path class="fil3" d="M2553.46 1849.71c-44.7,25.66 -67.75,61.45 -140.94,60.7 -80.84,-0.83 -98.6,-46.97 -143.96,-65.22 -29.01,34.63 -71.48,56.25 -134.3,53.65 -71.48,-2.96 -97.7,-35.61 -141.71,-52.88 -41.13,25.91 -63.76,56.26 -141.8,52.09 -76.72,-4.09 -98.55,-39.28 -147.67,-52.39 -63.52,38.04 -142.52,74.71 -224.71,38.52 -29.04,-12.78 -37.98,-25.2 -59.08,-37.79 -44.68,19.12 -71.44,47.83 -136.04,52.16 -64.46,4.33 -111.01,-18.21 -139.9,-53.45 -29.97,12.12 -65.82,64.78 -144.03,65.29 -70.94,0.47 -105.37,-39.06 -141.23,-63.58 12.4,53.2 84.23,237.33 108.54,310.83 35.24,106.53 75.97,210.54 111.66,314.03 47.88,138.85 40.33,211.66 201.03,219.05 136.35,6.26 285.89,0.4 423.69,0.42 138.46,0.01 283.36,4.38 420.84,-0.13 166.8,-5.46 163.6,-78.99 208.85,-214.79l110.97 -313.73c37.06,-98.94 77.92,-212.17 109.79,-312.78z"/>
       <path id="1" class="fil4" d="M2553.44 1849.73c-11.62,6.68 -21.87,14.11 -31.89,21.37 -28.26,20.5 -54.99,39.87 -109.03,39.32 -53.08,-0.54 -78.98,-20.63 -103.33,-39.51 -12.49,-9.68 -24.62,-19.09 -39.75,-25.35 34.55,14.29 53.19,44.72 96.95,58.2l0 0c1.71,0.53 3.45,1.03 5.24,1.5 0.09,0.02 0.18,0.05 0.27,0.07 1.73,0.45 3.49,0.88 5.29,1.28 0.16,0.03 0.31,0.06 0.46,0.1 1.77,0.38 3.58,0.74 5.43,1.07 0.19,0.04 0.38,0.07 0.57,0.1 1.85,0.33 3.73,0.62 5.66,0.88 0.19,0.03 0.38,0.06 0.57,0.08 1.96,0.26 3.97,0.5 6.02,0.7 0.14,0.01 0.28,0.02 0.42,0.03 2.13,0.21 4.32,0.38 6.56,0.51l0.02 0c3.11,0.18 6.31,0.3 9.62,0.33 73.19,0.75 96.24,-35.04 140.94,-60.7 -31.87,100.61 -72.73,213.84 -109.79,312.78l-110.97 313.73c-14.84,44.55 -24.47,82.39 -36.6,113.33 -0.01,0.03 -0.02,0.05 -0.03,0.07 -0.55,1.4 -1.1,2.78 -1.65,4.14 -0.06,0.13 -0.11,0.25 -0.16,0.38 -0.53,1.3 -1.07,2.58 -1.61,3.85 -0.05,0.12 -0.11,0.25 -0.16,0.38 -0.58,1.36 -1.17,2.7 -1.77,4.03 0,0.01 -0.01,0.02 -0.01,0.02 -1.83,4.07 -3.72,8 -5.72,11.8 -0.1,0.2 -0.21,0.4 -0.32,0.6 -0.34,0.65 -0.69,1.28 -1.04,1.92 13.12,-24.08 22.19,-53.9 32.95,-89.29 4.84,-15.94 10.06,-33.04 16.11,-51.23l110.97 -313.73c18.52,-49.46 38.02,-102.52 56.84,-155.76 18.82,-53.23 37.03,-106.71 52.94,-157zm-284.16 -4.24c-0.24,-0.1 -0.47,-0.19 -0.71,-0.29 -14.48,17.3 -32.38,31.38 -54.48,40.79 -22.09,9.4 -48.43,14.15 -79.83,12.86 -48.96,-2.02 -76.71,-18 -103.46,-33.4 -12.29,-7.07 -24.4,-14.05 -38.24,-19.48 -7.9,4.97 -15.15,10.14 -22.2,15.16 -29.67,21.14 -56.58,40.3 -119.61,36.93 -47.79,-2.54 -74.3,-17.18 -99.36,-31 -15.15,-8.36 -29.8,-16.46 -48.3,-21.39 -31.75,19.01 -67.39,37.7 -105.36,47.1 -37.96,9.39 -78.28,9.51 -119.36,-8.58 -18.07,-7.95 -28.37,-15.76 -38.62,-23.55 -6.24,-4.73 -12.5,-9.49 -20.47,-14.24 -13.43,5.75 -25.28,12.39 -36.99,18.95 -27.21,15.24 -53.9,30.19 -99.04,33.21 -30.79,2.06 -57.52,-2.01 -80.15,-10.65 -24.77,-9.46 -44.69,-24.42 -59.76,-42.8 -0.14,0.06 -0.28,0.11 -0.42,0.17 0.14,-0.06 0.29,-0.12 0.43,-0.18 28.89,35.24 75.44,57.78 139.9,53.45 64.6,-4.33 91.36,-33.04 136.04,-52.16 21.1,12.59 30.04,25.01 59.08,37.79 0.49,0.22 0.98,0.42 1.48,0.63 0.3,0.13 0.6,0.26 0.9,0.38 0.99,0.42 1.97,0.83 2.96,1.23 0.29,0.12 0.57,0.23 0.86,0.34 1.01,0.4 2.01,0.79 3.02,1.17 0.26,0.1 0.52,0.2 0.78,0.29 1.04,0.39 2.07,0.76 3.11,1.12 0.22,0.08 0.45,0.16 0.68,0.24 1.07,0.37 2.14,0.73 3.21,1.08 0.19,0.05 0.37,0.11 0.55,0.17 1.12,0.36 2.24,0.71 3.35,1.04 0.14,0.04 0.27,0.08 0.41,0.12 1.16,0.34 2.33,0.67 3.49,0.99 0.08,0.02 0.17,0.04 0.25,0.07 1.22,0.33 2.43,0.64 3.65,0.94l0.08 0.02c27.9,6.89 55.25,6.19 81.56,0.78 0.06,-0.01 0.11,-0.02 0.17,-0.03 1.09,-0.23 2.19,-0.46 3.28,-0.7 0.15,-0.04 0.3,-0.07 0.46,-0.11 0.99,-0.22 1.97,-0.45 2.96,-0.68 0.26,-0.06 0.52,-0.12 0.78,-0.19 0.89,-0.21 1.79,-0.43 2.69,-0.66 0.3,-0.08 0.61,-0.16 0.91,-0.24 0.89,-0.23 1.78,-0.46 2.67,-0.7 0.28,-0.07 0.55,-0.15 0.83,-0.22 0.93,-0.26 1.85,-0.52 2.77,-0.78 0.23,-0.06 0.46,-0.13 0.68,-0.19 0.98,-0.29 1.97,-0.58 2.95,-0.87 0.15,-0.05 0.31,-0.1 0.46,-0.14 1.06,-0.32 2.12,-0.65 3.17,-0.99 0.07,-0.02 0.13,-0.04 0.2,-0.06 32,-10.17 62.12,-26.24 89.39,-42.57 49.12,13.11 70.95,48.3 147.67,52.39 78.04,4.17 100.67,-26.18 141.8,-52.09 44.01,17.27 70.23,49.92 141.71,52.88 33.84,1.4 61.78,-4.23 84.88,-15.14l0.1 -0.04c0.62,-0.29 1.23,-0.59 1.84,-0.89 0.07,-0.03 0.15,-0.07 0.23,-0.11 0.56,-0.28 1.13,-0.56 1.69,-0.85 0.11,-0.05 0.22,-0.11 0.33,-0.16 0.53,-0.28 1.06,-0.55 1.59,-0.83 0.13,-0.07 0.26,-0.14 0.38,-0.21 0.52,-0.27 1.03,-0.55 1.53,-0.82 0.14,-0.08 0.27,-0.15 0.41,-0.23 0.5,-0.27 1,-0.55 1.5,-0.84 0.13,-0.07 0.26,-0.15 0.4,-0.23 0.5,-0.28 1,-0.57 1.49,-0.86 0.12,-0.08 0.24,-0.15 0.37,-0.22 0.51,-0.3 1.01,-0.61 1.52,-0.92 0.1,-0.06 0.2,-0.12 0.3,-0.18 0.53,-0.33 1.05,-0.65 1.57,-0.98 0.07,-0.05 0.15,-0.09 0.22,-0.14 0.55,-0.35 1.1,-0.7 1.64,-1.06 0.04,-0.02 0.08,-0.05 0.12,-0.08 12.25,-8.04 22.91,-17.78 32.19,-28.86 0.24,0.1 0.48,0.2 0.72,0.3zm-1126.87 0.01c-0.33,0.14 -0.67,0.29 -1.01,0.45 0.34,-0.16 0.68,-0.31 1.01,-0.45zm-1.33 0.6c-0.37,0.17 -0.74,0.34 -1.11,0.53 0.37,-0.19 0.74,-0.36 1.11,-0.53zm-1.14 0.54c-7.94,3.93 -16.41,10.4 -26.01,17.74 -25.75,19.67 -59.78,45.66 -114.61,46.02 -57.37,0.38 -90.88,-25.41 -120.55,-48.24 -7,-5.39 -13.82,-10.65 -20.66,-15.32 7.71,33.07 38.37,116.69 66.3,192.88 17.01,46.41 33.04,90.11 42.23,117.92 20.05,60.63 41.91,120.48 63.58,179.85 16.39,44.92 32.72,89.61 48.08,134.18 7.55,21.93 13.76,42.24 19.43,60.87 7.56,24.83 14.23,46.74 22.1,65.73 -13.78,-33.26 -23.9,-75.44 -41.54,-126.6 -35.69,-103.49 -76.42,-207.5 -111.66,-314.03 -24.31,-73.5 -96.14,-257.63 -108.54,-310.83 35.86,24.52 70.29,64.05 141.23,63.58 4.27,-0.03 8.4,-0.22 12.43,-0.54l0.09 -0.01c66.84,-5.41 100.46,-49.55 128.1,-63.2zm-20.1 751.66c0.48,1.15 0.96,2.29 1.45,3.42 -0.49,-1.13 -0.97,-2.27 -1.45,-3.42zm1.55 3.65c2.43,5.63 4.99,11 7.72,16.1 -2.73,-5.1 -5.29,-10.47 -7.72,-16.1zm8.03 16.67c0.47,0.87 0.94,1.73 1.42,2.59 -0.24,-0.43 -0.49,-0.86 -0.73,-1.29 -0.04,-0.07 -0.08,-0.15 -0.12,-0.22 -0.2,-0.36 -0.38,-0.72 -0.57,-1.08zm1.83 3.31c0.48,0.84 0.97,1.67 1.46,2.5 -0.18,-0.3 -0.36,-0.59 -0.53,-0.88 -0.05,-0.08 -0.09,-0.16 -0.14,-0.23 -0.27,-0.46 -0.53,-0.93 -0.79,-1.39zm1.81 3.09c2.22,3.69 4.55,7.22 7.04,10.6 -2.48,-3.38 -4.82,-6.91 -7.04,-10.6zm7.53 11.29c0.52,0.7 1.05,1.39 1.59,2.07 -0.27,-0.34 -0.54,-0.68 -0.8,-1.02 -0.1,-0.12 -0.19,-0.24 -0.28,-0.37 -0.17,-0.22 -0.34,-0.46 -0.51,-0.68zm2.23 2.9c0.53,0.66 1.07,1.33 1.61,1.98 -0.19,-0.23 -0.39,-0.45 -0.58,-0.68 -0.11,-0.14 -0.23,-0.29 -0.34,-0.43 -0.24,-0.29 -0.46,-0.58 -0.69,-0.87zm2.26 2.76c0.57,0.67 1.13,1.34 1.71,2 -0.15,-0.17 -0.3,-0.34 -0.45,-0.5 -0.06,-0.08 -0.13,-0.15 -0.19,-0.23 -0.36,-0.41 -0.71,-0.84 -1.07,-1.27zm2.12 2.45c1.98,2.22 4.04,4.36 6.2,6.42 -2.16,-2.06 -4.22,-4.2 -6.2,-6.42zm6.87 7.07c0.61,0.57 1.23,1.12 1.85,1.68 -0.33,-0.29 -0.67,-0.59 -1,-0.88 -0.11,-0.11 -0.24,-0.22 -0.35,-0.33 -0.17,-0.15 -0.33,-0.32 -0.5,-0.47zm2.74 2.48c0.61,0.53 1.23,1.06 1.85,1.58 -0.23,-0.19 -0.46,-0.38 -0.69,-0.57 -0.17,-0.14 -0.33,-0.28 -0.5,-0.42 -0.22,-0.2 -0.44,-0.4 -0.66,-0.59zm2.81 2.37c0.64,0.52 1.28,1.04 1.93,1.56 -0.18,-0.14 -0.36,-0.28 -0.54,-0.42 -0.13,-0.1 -0.26,-0.21 -0.4,-0.32 -0.33,-0.27 -0.66,-0.55 -0.99,-0.82zm2.8 2.22c2.32,1.77 4.73,3.47 7.26,5.1 -2.53,-1.63 -4.94,-3.33 -7.26,-5.1zm8.1 5.65c0.71,0.45 1.44,0.89 2.17,1.33 -0.45,-0.27 -0.91,-0.54 -1.36,-0.81 -0.09,-0.06 -0.19,-0.12 -0.28,-0.17 -0.18,-0.12 -0.35,-0.24 -0.53,-0.35zm3.36 2.04c0.71,0.42 1.44,0.84 2.17,1.25 -0.3,-0.17 -0.61,-0.34 -0.91,-0.5 -0.18,-0.11 -0.37,-0.21 -0.55,-0.32 -0.24,-0.14 -0.47,-0.29 -0.71,-0.43zm3.46 1.96c0.74,0.4 1.49,0.8 2.25,1.2 -0.23,-0.12 -0.47,-0.24 -0.7,-0.36 -0.18,-0.09 -0.34,-0.18 -0.51,-0.27 -0.35,-0.19 -0.69,-0.38 -1.04,-0.57zm3.53 1.85c0.8,0.4 1.59,0.8 2.4,1.18 -0.19,-0.09 -0.39,-0.17 -0.58,-0.27 -0.01,0 -0.02,0 -0.02,-0.01 -0.61,-0.29 -1.2,-0.6 -1.8,-0.9zm3.23 1.57c1.82,0.85 3.69,1.68 5.6,2.48 -1.91,-0.8 -3.78,-1.63 -5.6,-2.48zm6.48 2.85c0.85,0.35 1.72,0.69 2.6,1.03 -0.88,-0.34 -1.75,-0.68 -2.6,-1.03zm4.1 1.61c0.85,0.32 1.71,0.63 2.58,0.94 -0.43,-0.15 -0.88,-0.31 -1.31,-0.46 -0.15,-0.06 -0.3,-0.11 -0.45,-0.16 -0.28,-0.11 -0.55,-0.22 -0.82,-0.32zm4.22 1.52c0.88,0.3 1.76,0.6 2.66,0.89 -0.33,-0.11 -0.66,-0.21 -0.99,-0.31 -0.17,-0.06 -0.33,-0.12 -0.5,-0.17 -0.39,-0.13 -0.77,-0.28 -1.17,-0.41zm4.33 1.42c0.93,0.3 1.85,0.59 2.8,0.87 -0.27,-0.08 -0.54,-0.15 -0.81,-0.23 -0.03,-0.01 -0.05,-0.02 -0.08,-0.03 -0.64,-0.2 -1.27,-0.4 -1.91,-0.61zm4.26 1.29c3.42,0.99 6.97,1.91 10.66,2.76 -3.69,-0.85 -7.24,-1.77 -10.66,-2.76zm12.33 3.15c1.05,0.24 2.12,0.46 3.2,0.69 -0.69,-0.14 -1.39,-0.28 -2.07,-0.43 -0.03,0 -0.07,-0.01 -0.1,-0.02 -0.35,-0.07 -0.68,-0.16 -1.03,-0.24zm5.08 1.08c1.08,0.22 2.18,0.43 3.28,0.64 -0.5,-0.1 -1.01,-0.18 -1.51,-0.28 -0.11,-0.02 -0.21,-0.04 -0.32,-0.06 -0.49,-0.1 -0.96,-0.2 -1.45,-0.3zm5.18 0.98c1.15,0.21 2.31,0.42 3.48,0.61 -1.17,-0.19 -2.33,-0.4 -3.48,-0.61zm5.12 0.88c4.38,0.7 8.93,1.33 13.66,1.89 -4.72,-0.56 -9.28,-1.19 -13.66,-1.89zm14.69 2.01c1.43,0.17 2.89,0.32 4.35,0.47 -1.46,-0.15 -2.92,-0.3 -4.35,-0.47zm6 0.63c1.45,0.15 2.92,0.28 4.41,0.41 -1.48,-0.13 -2.96,-0.26 -4.41,-0.41zm6.05 0.55c1.56,0.13 3.13,0.25 4.72,0.37 -1.59,-0.12 -3.16,-0.24 -4.72,-0.37zm5.86 0.44c3.74,0.27 7.58,0.49 11.52,0.67 92.17,4.22 190.4,2.91 286.92,1.64 46.25,-0.61 92.14,-1.22 136.77,-1.22 45.39,0 91.49,0.49 137.77,0.95 94.89,0.96 190.67,1.94 283.07,-1.08 4.32,-0.14 8.53,-0.33 12.63,-0.56 -4.11,0.23 -8.3,0.43 -12.63,0.57 -137.48,4.51 -282.38,0.14 -420.84,0.13 -81.69,-0.01 -167.51,2.04 -252.26,2.41l-0.77 0.01c-4.07,0.01 -8.15,0.03 -12.22,0.04 -0.53,0 -1.06,0 -1.6,0 -1.8,0 -3.59,0.01 -5.39,0.01 -0.22,0 -0.43,0 -0.65,0 -1.9,0 -3.8,0 -5.7,0 -0.57,0 -1.14,0 -1.71,0 -1.76,0 -3.52,0 -5.27,-0.01 -0.22,0 -0.43,0 -0.64,0 -1.99,0 -3.98,-0.01 -5.97,-0.01 -0.42,0 -0.84,0 -1.26,-0.01 -4.15,-0.01 -8.3,-0.03 -12.45,-0.05 -0.13,0 -0.27,0 -0.41,-0.01 -39.8,-0.24 -79.12,-1.04 -117.39,-2.8 -3.95,-0.18 -7.78,-0.41 -11.52,-0.68zm869.38 0.36c1.78,-0.11 3.53,-0.22 5.26,-0.34 -1.73,0.12 -3.48,0.23 -5.26,0.34zm6.71 -0.44c1.63,-0.12 3.24,-0.25 4.84,-0.38 -0.84,0.07 -1.67,0.15 -2.52,0.21l0 0c-0.76,0.06 -1.55,0.11 -2.32,0.17zm6.44 -0.52c1.57,-0.14 3.13,-0.28 4.66,-0.44 -1.53,0.16 -3.09,0.3 -4.66,0.44zm6.09 -0.59c1.59,-0.16 3.17,-0.33 4.72,-0.51 -1.55,0.18 -3.13,0.35 -4.72,0.51zm5.29 -0.58c5.26,-0.62 10.29,-1.34 15.13,-2.16 -4.84,0.82 -9.87,1.54 -15.13,2.16zm16.05 -2.31c1.33,-0.22 2.63,-0.46 3.93,-0.71 -1.3,0.25 -2.61,0.49 -3.93,0.71zm5.47 -0.99c1.23,-0.24 2.43,-0.48 3.63,-0.73 -0.67,0.14 -1.33,0.28 -2.01,0.42 -0.06,0.01 -0.12,0.03 -0.19,0.04 -0.46,0.09 -0.95,0.17 -1.43,0.27zm5.28 -1.08c1.17,-0.25 2.33,-0.51 3.48,-0.77 -0.48,0.11 -0.95,0.22 -1.43,0.33 -0.1,0.03 -0.21,0.05 -0.31,0.07 -0.57,0.13 -1.17,0.25 -1.74,0.37zm5.04 -1.14c1.16,-0.28 2.31,-0.56 3.44,-0.85 -0.36,0.1 -0.71,0.2 -1.08,0.29 -0.01,0 -0.03,0.01 -0.04,0.01 -0.77,0.19 -1.55,0.36 -2.32,0.55zm4.67 -1.17c4.26,-1.12 8.34,-2.32 12.23,-3.62 -3.89,1.3 -7.97,2.5 -12.23,3.62zm12.27 -3.64c1.1,-0.37 2.18,-0.75 3.26,-1.13 -1.08,0.38 -2.16,0.76 -3.26,1.13zm4.4 -1.54c1,-0.37 1.97,-0.74 2.94,-1.12 -0.55,0.22 -1.09,0.43 -1.64,0.65 -0.14,0.05 -0.27,0.1 -0.4,0.15 -0.29,0.11 -0.6,0.21 -0.9,0.32zm4.23 -1.62c0.95,-0.38 1.88,-0.76 2.81,-1.15 -0.38,0.16 -0.75,0.32 -1.13,0.48 -0.2,0.08 -0.4,0.17 -0.61,0.25 -0.35,0.14 -0.71,0.28 -1.07,0.42zm4.05 -1.69c0.93,-0.4 1.85,-0.8 2.75,-1.22 -0.28,0.13 -0.55,0.26 -0.83,0.39 -0.18,0.08 -0.37,0.16 -0.56,0.25 -0.45,0.2 -0.91,0.39 -1.36,0.58zm3.8 -1.71c0.95,-0.45 1.91,-0.9 2.83,-1.36 -0.21,0.11 -0.43,0.22 -0.64,0.33 -0.07,0.04 -0.14,0.07 -0.21,0.1 -0.65,0.32 -1.32,0.62 -1.98,0.93zm3.23 -1.56c3.29,-1.65 6.43,-3.39 9.43,-5.23 -3,1.84 -6.14,3.58 -9.43,5.23zm9.92 -5.52c0.85,-0.53 1.69,-1.08 2.53,-1.62 -0.49,0.32 -0.97,0.64 -1.46,0.95 -0.16,0.1 -0.32,0.21 -0.48,0.31 -0.19,0.12 -0.4,0.23 -0.59,0.36zm3.35 -2.16c0.8,-0.53 1.58,-1.07 2.36,-1.61 -0.32,0.22 -0.63,0.44 -0.95,0.67 -0.24,0.16 -0.47,0.32 -0.71,0.48 -0.23,0.16 -0.47,0.31 -0.7,0.46zm3.21 -2.22c0.77,-0.55 1.53,-1.11 2.28,-1.67 -0.23,0.17 -0.45,0.35 -0.68,0.52 -0.25,0.18 -0.49,0.36 -0.73,0.54 -0.29,0.21 -0.59,0.41 -0.87,0.61zm3.02 -2.24c0.78,-0.6 1.55,-1.2 2.31,-1.81 -0.17,0.14 -0.35,0.29 -0.53,0.43 -0.19,0.16 -0.39,0.32 -0.59,0.47 -0.39,0.31 -0.79,0.61 -1.19,0.91zm2.7 -2.13c3.54,-2.89 6.85,-5.95 9.96,-9.18 -0.49,0.5 -0.98,1.01 -1.47,1.51 -0.13,0.13 -0.26,0.26 -0.39,0.39 -1.91,1.9 -3.89,3.73 -5.96,5.5 -0.04,0.05 -0.09,0.08 -0.14,0.12 -0.65,0.56 -1.33,1.11 -2,1.66zm10.31 -9.55c0.69,-0.72 1.37,-1.45 2.04,-2.19 -0.3,0.32 -0.59,0.66 -0.89,0.98 -0.21,0.23 -0.43,0.46 -0.64,0.69 -0.17,0.18 -0.34,0.35 -0.51,0.52zm2.53 -2.74c0.66,-0.73 1.3,-1.47 1.94,-2.22 -0.21,0.25 -0.42,0.5 -0.63,0.75 -0.23,0.26 -0.46,0.52 -0.69,0.78 -0.2,0.24 -0.41,0.46 -0.62,0.69zm2.39 -2.75c0.65,-0.78 1.3,-1.57 1.94,-2.36 -0.17,0.2 -0.32,0.41 -0.49,0.62 -0.2,0.25 -0.41,0.5 -0.62,0.75 -0.27,0.33 -0.55,0.66 -0.83,0.99zm2.18 -2.67c3.61,-4.54 6.92,-9.35 10.01,-14.45 -0.34,0.56 -0.68,1.12 -1.02,1.67 -0.14,0.23 -0.28,0.45 -0.42,0.68 -0.69,1.09 -1.39,2.17 -2.1,3.23 -0.02,0.04 -0.04,0.08 -0.07,0.11 -1.51,2.27 -3.08,4.47 -4.71,6.61 -0.14,0.18 -0.28,0.35 -0.41,0.53 -0.42,0.55 -0.85,1.08 -1.28,1.62zm10.15 -14.68c0.58,-0.97 1.16,-1.95 1.73,-2.95 -0.23,0.41 -0.47,0.82 -0.7,1.23 -0.17,0.28 -0.33,0.56 -0.5,0.84 -0.17,0.29 -0.35,0.58 -0.53,0.88zm1.91 -3.26c0.58,-1.01 1.15,-2.02 1.71,-3.06 -0.18,0.34 -0.36,0.67 -0.54,1.01 -0.16,0.27 -0.31,0.55 -0.46,0.82 -0.24,0.41 -0.48,0.82 -0.71,1.23z"/>
      </g>
      <g>
       <path class="fil3" d="M2263.2 1049.27c-80.37,13.66 -280.67,132.19 -368.19,177.89 -535.55,279.67 -621.56,177.88 -820.05,268.61 -69.89,31.94 -105.96,70.72 -105.65,169.43 0.19,58.28 1.48,74.04 39.65,98.25 27.11,17.18 75.29,28.34 109.22,33.5 264.12,40.11 455.11,-6.74 665.55,-130.53 59.59,-35.05 110.54,-69.11 167.33,-104.96 85.84,-54.17 253.8,-149.25 325.61,-219.43 37.74,-36.9 98.16,-93.29 114.8,-157.53 21.78,-84.07 -45.58,-149.28 -128.27,-135.23z"/>
       <path id="1" class="fil4" d="M2263.2 1049.28c-0.93,0.16 -1.88,0.33 -2.84,0.52 0.96,-0.19 1.91,-0.37 2.84,-0.53 0.34,-0.06 0.68,-0.11 1.03,-0.16 -0.35,0.06 -0.69,0.11 -1.03,0.17zm-3.03 0.55c-0.85,0.17 -1.72,0.35 -2.6,0.54 0.88,-0.19 1.75,-0.37 2.6,-0.54zm-3.44 0.72c-0.86,0.19 -1.74,0.39 -2.63,0.6 0.89,-0.21 1.77,-0.41 2.63,-0.6zm-3.33 0.77c-2.99,0.72 -6.11,1.54 -9.34,2.48 3.23,-0.94 6.35,-1.76 9.34,-2.48zm-9.85 2.62c-1.02,0.3 -2.06,0.61 -3.11,0.93 1.05,-0.32 2.09,-0.63 3.11,-0.93zm-3.87 1.16c-4.63,1.42 -9.48,3.04 -14.53,4.83 5.05,-1.79 9.9,-3.41 14.53,-4.83zm-14.98 5c-1.24,0.44 -2.48,0.89 -3.74,1.35 1.26,-0.46 2.5,-0.91 3.74,-1.35zm-4.04 1.46c-5.33,1.96 -10.87,4.1 -16.58,6.41 5.71,-2.31 11.25,-4.45 16.58,-6.41zm-16.61 6.43c-69.4,28.06 -164.4,80.25 -238.07,120.71 -27.4,15.05 -51.89,28.51 -70.97,38.47 -8.24,4.3 -16.33,8.48 -24.36,12.61 1.61,-0.83 3.28,-1.71 4.9,-2.54 4.24,-2.19 8.52,-4.41 12.81,-6.64 2.22,-1.15 4.4,-2.27 6.65,-3.44 70.41,-36.77 213.82,-120.67 309.04,-159.17zm-334.18 172.19c-16,8.21 -31.59,16.08 -46.77,23.61 1.82,-0.91 3.69,-1.86 5.53,-2.77 3.43,-1.71 6.89,-3.44 10.36,-5.18 4.39,-2.21 8.81,-4.43 13.26,-6.69 4.42,-2.24 8.86,-4.5 13.34,-6.79 1.43,-0.74 2.84,-1.44 4.28,-2.18zm-47.59 24.01c-15.29,7.58 -30.18,14.82 -44.67,21.73 2.12,-1.01 4.31,-2.08 6.46,-3.11 2.97,-1.42 5.96,-2.87 8.95,-4.31 3.26,-1.58 6.53,-3.16 9.84,-4.77 5.22,-2.54 10.48,-5.13 15.81,-7.76 1.21,-0.6 2.39,-1.17 3.61,-1.78zm-44.9 21.84c-7.15,3.41 -14.19,6.73 -21.15,9.99 1.11,-0.52 2.25,-1.07 3.36,-1.59 4.86,-2.28 9.74,-4.58 14.69,-6.93 1.04,-0.5 2.05,-0.97 3.1,-1.47zm-22.31 10.53c-13.75,6.42 -27.14,12.54 -40.18,18.38 1.2,-0.54 2.45,-1.11 3.66,-1.65 2.79,-1.26 5.61,-2.54 8.43,-3.82 4.88,-2.22 9.8,-4.46 14.78,-6.76 2.67,-1.22 5.35,-2.46 8.04,-3.71 1.75,-0.81 3.49,-1.61 5.27,-2.44zm-41.78 19.1c-12.91,5.77 -25.48,11.26 -37.72,16.49 1.34,-0.57 2.71,-1.17 4.06,-1.75 2.35,-1.01 4.72,-2.04 7.09,-3.07 4.91,-2.12 9.86,-4.29 14.87,-6.49 2.46,-1.09 4.93,-2.18 7.41,-3.28 1.43,-0.64 2.84,-1.25 4.29,-1.9zm-39.26 17.15c-12.3,5.24 -24.26,10.22 -35.92,14.95 1.52,-0.61 3.09,-1.27 4.63,-1.9 2.13,-0.87 4.28,-1.75 6.44,-2.64 4.68,-1.94 9.41,-3.91 14.19,-5.92 2.35,-0.99 4.7,-1.97 7.08,-2.98 1.19,-0.5 2.37,-0.99 3.58,-1.51zm-36.98 15.38c-5.89,2.39 -11.71,4.72 -17.44,6.98 2.22,-0.87 4.5,-1.8 6.75,-2.7 2.53,-1.01 5.06,-2.02 7.62,-3.05 1.03,-0.41 2.03,-0.81 3.07,-1.23zm-17.49 7c-5.83,2.3 -11.58,4.54 -17.26,6.71 1.8,-0.68 3.65,-1.42 5.46,-2.12 2.01,-0.78 4.02,-1.56 6.04,-2.35 1.92,-0.74 3.82,-1.47 5.76,-2.24zm-17.4 6.77c-5.63,2.16 -11.18,4.25 -16.65,6.29 0.95,-0.35 1.93,-0.73 2.88,-1.09 2.69,-1 5.41,-2.04 8.13,-3.07 1.88,-0.71 3.73,-1.4 5.64,-2.13zm-17.2 6.49c-10.91,4.06 -21.51,7.88 -31.84,11.49 1.05,-0.36 2.14,-0.76 3.19,-1.13 2,-0.7 4.03,-1.42 6.05,-2.15 4.04,-1.44 8.12,-2.91 12.24,-4.41 1.92,-0.7 3.84,-1.4 5.77,-2.11 1.53,-0.56 3.04,-1.11 4.59,-1.69zm-32.4 11.69c-10.37,3.62 -20.44,7.02 -30.25,10.22 1.19,-0.39 2.42,-0.8 3.61,-1.2 1.84,-0.6 3.7,-1.22 5.56,-1.84 3.84,-1.29 7.72,-2.6 11.65,-3.94 1.87,-0.64 3.74,-1.28 5.62,-1.93 1.27,-0.44 2.52,-0.86 3.81,-1.31zm-30.48 10.29c-110.14,35.92 -186.41,46.55 -252.11,55.69 -19.02,2.65 -37.16,5.17 -54.98,8.15 38.98,-6.51 79.48,-10.87 127.43,-19.09 0.6,-0.1 1.19,-0.2 1.78,-0.31 5.92,-1.02 11.94,-2.1 18.09,-3.25 1.01,-0.19 2.02,-0.38 3.03,-0.57 3.11,-0.59 6.25,-1.2 9.41,-1.83 1.1,-0.22 2.19,-0.43 3.3,-0.65 1.83,-0.37 3.67,-0.74 5.52,-1.13 1.26,-0.25 2.53,-0.52 3.8,-0.78 2.91,-0.61 5.85,-1.24 8.82,-1.88 1.43,-0.31 2.85,-0.62 4.29,-0.94 1.85,-0.41 3.72,-0.82 5.59,-1.25 1.47,-0.33 2.94,-0.67 4.43,-1.01 2.95,-0.68 5.92,-1.37 8.93,-2.09 1.53,-0.36 3.05,-0.73 4.59,-1.1 1.92,-0.46 3.84,-0.93 5.79,-1.41 1.73,-0.43 3.49,-0.88 5.25,-1.32 2.95,-0.75 5.92,-1.5 8.92,-2.29 1.6,-0.41 3.2,-0.83 4.8,-1.25 2.01,-0.53 4.02,-1.07 6.06,-1.62 2.91,-0.78 5.84,-1.58 8.81,-2.41 2.06,-0.57 4.13,-1.16 6.21,-1.75 1.66,-0.47 3.33,-0.94 5.01,-1.43 2.91,-0.83 5.85,-1.69 8.81,-2.56 2.27,-0.67 4.53,-1.34 6.82,-2.02 2.2,-0.67 4.43,-1.34 6.65,-2.03 1.74,-0.53 3.49,-1.07 5.25,-1.61 3.54,-1.1 7.12,-2.23 10.73,-3.38 1.9,-0.61 3.8,-1.21 5.71,-1.83 1.09,-0.35 2.16,-0.69 3.26,-1.05zm-307.16 63.85c-2.4,0.41 -4.79,0.82 -7.18,1.24 2.39,-0.42 4.78,-0.83 7.18,-1.24zm-8.97 1.55c-1.78,0.32 -3.56,0.64 -5.34,0.97 1.78,-0.33 3.56,-0.65 5.34,-0.97zm-8.59 1.58c-1.66,0.31 -3.33,0.63 -4.99,0.96 1.66,-0.32 3.33,-0.65 4.99,-0.96zm-8.11 1.58c-1.64,0.33 -3.28,0.67 -4.92,1.02 1.64,-0.35 3.28,-0.69 4.92,-1.02zm-8.36 1.75c-1.41,0.3 -2.82,0.61 -4.23,0.92 1.41,-0.31 2.82,-0.62 4.23,-0.92zm-8.44 1.88c-1.39,0.32 -2.79,0.65 -4.18,0.98 1.39,-0.33 2.79,-0.66 4.18,-0.98zm-8.5 2.03c-1.34,0.34 -2.68,0.67 -4.03,1.02 1.35,-0.34 2.69,-0.68 4.03,-1.02zm-8.55 2.2c-1.24,0.33 -2.49,0.66 -3.74,1.01 1.25,-0.35 2.5,-0.68 3.74,-1.01zm-8.61 2.36c-1.05,0.3 -2.1,0.6 -3.15,0.91 1.05,-0.31 2.1,-0.61 3.15,-0.91zm-8.33 2.45c-1.07,0.32 -2.13,0.65 -3.21,0.98 1.08,-0.33 2.14,-0.66 3.21,-0.98zm-8.4 2.63c-1.14,0.37 -2.28,0.74 -3.42,1.12 1.14,-0.38 2.28,-0.75 3.42,-1.12zm-8.66 2.89c-1.12,0.38 -2.25,0.78 -3.37,1.17 1.12,-0.39 2.25,-0.79 3.37,-1.17zm-8.83 3.13c-1.03,0.38 -2.06,0.76 -3.09,1.14 1.03,-0.38 2.06,-0.76 3.09,-1.14zm-9 3.39c-0.86,0.33 -1.71,0.66 -2.57,1 0.86,-0.34 1.71,-0.67 2.57,-1zm-9.15 3.64c-0.83,0.34 -1.66,0.69 -2.5,1.04 0.84,-0.35 1.67,-0.7 2.5,-1.04zm-8.9 3.75c-0.92,0.39 -1.83,0.79 -2.75,1.2 0.92,-0.4 1.83,-0.81 2.75,-1.2zm-9.15 4.05c-0.47,0.21 -0.94,0.42 -1.41,0.64 -34.94,15.96 -61.44,33.66 -79.14,59.68 -17.71,26.01 -26.65,60.4 -26.5,109.74 0.08,29.13 0.47,47.66 5.58,61.9 5.11,14.23 14.99,24.25 34.07,36.34 11.9,7.54 27.87,13.93 44.86,19.14 21.77,6.67 45.32,11.47 64.35,14.36 1.5,0.23 2.99,0.45 4.48,0.67 -1.49,-0.22 -2.98,-0.43 -4.48,-0.66 -33.93,-5.16 -82.11,-16.32 -109.22,-33.5 -38.17,-24.21 -39.46,-39.97 -39.65,-98.25 -0.31,-98.71 35.76,-137.49 105.65,-169.43 0.48,-0.22 0.94,-0.42 1.41,-0.63zm49.63 302.96c3.03,0.45 6.06,0.88 9.07,1.3 -3.01,-0.42 -6.04,-0.85 -9.07,-1.3zm12.15 1.72c3.08,0.43 6.16,0.84 9.23,1.24 -3.07,-0.4 -6.15,-0.81 -9.23,-1.24zm12.03 1.6c3.15,0.4 6.29,0.79 9.42,1.17 -3.13,-0.38 -6.27,-0.77 -9.42,-1.17zm11.92 1.46c3.22,0.39 6.42,0.75 9.62,1.11 -3.2,-0.36 -6.4,-0.72 -9.62,-1.11zm11.82 1.35c3.28,0.36 6.56,0.7 9.82,1.03 -3.26,-0.33 -6.54,-0.67 -9.82,-1.03zm11.73 1.22c3.35,0.33 6.69,0.65 10.01,0.95 -3.32,-0.3 -6.66,-0.62 -10.01,-0.95zm11.63 1.1c3.41,0.3 6.81,0.59 10.2,0.86 -3.39,-0.27 -6.79,-0.56 -10.2,-0.86zm11.55 0.97c3.47,0.28 6.93,0.54 10.37,0.78 -3.44,-0.24 -6.9,-0.5 -10.37,-0.78zm11.47 0.86c3.52,0.24 7.03,0.47 10.52,0.67 -3.49,-0.2 -7,-0.43 -10.52,-0.67zm11.39 0.73c3.56,0.21 7.11,0.4 10.65,0.57 -3.54,-0.17 -7.09,-0.36 -10.65,-0.57zm11.32 0.6c3.59,0.18 7.17,0.33 10.74,0.47 -3.57,-0.14 -7.15,-0.29 -10.74,-0.47zm11.25 0.49c3.62,0.14 7.22,0.26 10.81,0.35 -3.59,-0.09 -7.19,-0.21 -10.81,-0.35zm11.18 0.36c3.63,0.1 7.25,0.18 10.85,0.24 -3.6,-0.06 -7.22,-0.14 -10.85,-0.24zm11.12 0.25c3.63,0.05 7.24,0.09 10.85,0.11 -3.61,-0.02 -7.22,-0.06 -10.85,-0.11zm11.06 0.11c3.62,0.02 7.22,0.02 10.82,0 -3.6,0.02 -7.2,0.02 -10.82,0zm11 0c3.59,-0.03 7.18,-0.07 10.75,-0.13 -3.57,0.06 -7.16,0.1 -10.75,0.13zm10.94 -0.13c3.56,-0.07 7.11,-0.15 10.65,-0.25 -3.54,0.1 -7.09,0.18 -10.65,0.25zm10.9 -0.26c3.51,-0.1 7.01,-0.22 10.5,-0.36 -3.49,0.14 -6.99,0.26 -10.5,0.36zm10.84 -0.38c3.45,-0.14 6.89,-0.3 10.32,-0.48 -3.43,0.18 -6.87,0.34 -10.32,0.48zm10.79 -0.5c3.38,-0.18 6.75,-0.37 10.11,-0.59 -3.36,0.22 -6.73,0.41 -10.11,0.59zm10.75 -0.63c3.29,-0.21 6.58,-0.44 9.86,-0.69 -3.28,0.25 -6.57,0.48 -9.86,0.69zm10.7 -0.76c3.2,-0.24 6.39,-0.5 9.58,-0.78 -3.19,0.28 -6.38,0.54 -9.58,0.78zm10.66 -0.88c3.09,-0.27 6.18,-0.57 9.26,-0.87 -3.08,0.3 -6.17,0.6 -9.26,0.87zm10.62 -1.01c2.97,-0.3 5.95,-0.62 8.91,-0.95 -2.96,0.33 -5.94,0.65 -8.91,0.95zm10.57 -1.14c2.85,-0.32 5.7,-0.66 8.54,-1.01 -2.84,0.35 -5.69,0.69 -8.54,1.01zm10.54 -1.26c2.72,-0.34 5.43,-0.7 8.14,-1.07 -2.71,0.37 -5.42,0.73 -8.14,1.07zm10.49 -1.39c2.58,-0.36 5.15,-0.73 7.72,-1.11 -2.57,0.38 -5.14,0.75 -7.72,1.11zm10.46 -1.52c2.43,-0.37 4.85,-0.75 7.27,-1.14 -2.42,0.39 -4.84,0.77 -7.27,1.14zm10.42 -1.65c2.28,-0.38 4.55,-0.76 6.81,-1.15 -2.26,0.39 -4.53,0.77 -6.81,1.15zm10.39 -1.78c2.11,-0.37 4.22,-0.76 6.33,-1.15 -2.11,0.39 -4.22,0.78 -6.33,1.15zm10.34 -1.9c1.96,-0.37 3.9,-0.75 5.85,-1.14 -1.95,0.39 -3.9,0.77 -5.85,1.14zm10.31 -2.03c0.92,-0.19 1.83,-0.37 2.74,-0.56 0.87,-0.18 1.75,-0.37 2.62,-0.55 -1.78,0.37 -3.57,0.74 -5.36,1.11zm10.26 -2.16c1.64,-0.35 3.28,-0.71 4.92,-1.08 -1.64,0.37 -3.28,0.73 -4.92,1.08zm10.16 -2.26c1.53,-0.36 3.06,-0.71 4.59,-1.07 -1.53,0.36 -3.06,0.71 -4.59,1.07zm10.07 -2.38c1.46,-0.36 2.91,-0.71 4.36,-1.07 -1.45,0.36 -2.9,0.71 -4.36,1.07zm10 -2.49c1.4,-0.36 2.81,-0.72 4.22,-1.09 -1.41,0.37 -2.82,0.73 -4.22,1.09zm9.92 -2.6c1.38,-0.37 2.77,-0.75 4.15,-1.13 -1.38,0.38 -2.77,0.76 -4.15,1.13zm9.86 -2.71c1.38,-0.39 2.77,-0.79 4.16,-1.18 -1.39,0.39 -2.78,0.79 -4.16,1.18zm9.79 -2.82c1.42,-0.42 2.83,-0.84 4.24,-1.26 -1.41,0.42 -2.82,0.84 -4.24,1.26zm9.75 -2.93c1.45,-0.45 2.91,-0.9 4.36,-1.35 -1.45,0.45 -2.91,0.91 -4.36,1.35zm9.7 -3.04c1.51,-0.48 3.02,-0.97 4.53,-1.46 -1.51,0.49 -3.02,0.98 -4.53,1.46zm9.66 -3.14c1.58,-0.53 3.16,-1.06 4.75,-1.6 -1.59,0.54 -3.17,1.07 -4.75,1.6zm9.61 -3.26c1.67,-0.57 3.34,-1.15 5.01,-1.74 -1.67,0.59 -3.34,1.17 -5.01,1.74zm9.6 -3.36c1.76,-0.63 3.52,-1.27 5.28,-1.91 -1.76,0.64 -3.52,1.28 -5.28,1.91zm9.56 -3.48c1.86,-0.69 3.73,-1.38 5.59,-2.08 -1.86,0.7 -3.73,1.39 -5.59,2.08zm9.54 -3.58c1.97,-0.75 3.95,-1.52 5.93,-2.29 -1.98,0.77 -3.96,1.54 -5.93,2.29zm9.52 -3.69c2.09,-0.83 4.18,-1.66 6.28,-2.5 -2.1,0.84 -4.19,1.67 -6.28,2.5zm9.5 -3.8c2.22,-0.9 4.43,-1.81 6.65,-2.73 -2.22,0.92 -4.43,1.83 -6.65,2.73zm9.5 -3.92c2.34,-0.97 4.68,-1.96 7.02,-2.96 -2.34,1 -4.68,1.99 -7.02,2.96zm9.48 -4.02c2.47,-1.06 4.94,-2.13 7.41,-3.22 -2.47,1.09 -4.94,2.16 -7.41,3.22zm9.48 -4.13c2.6,-1.15 5.2,-2.31 7.8,-3.48 -2.6,1.17 -5.2,2.33 -7.8,3.48zm9.48 -4.24c2.73,-1.24 5.47,-2.49 8.2,-3.76 -2.73,1.27 -5.47,2.52 -8.2,3.76zm9.48 -4.36c2.87,-1.33 5.73,-2.67 8.6,-4.04 -2.87,1.37 -5.73,2.71 -8.6,4.04zm9.49 -4.46c2.99,-1.43 5.99,-2.87 8.99,-4.33 -3,1.46 -6,2.9 -8.99,4.33zm9.49 -4.57c3.13,-1.53 6.26,-3.07 9.4,-4.64 -3.14,1.57 -6.27,3.11 -9.4,4.64zm9.5 -4.69c27.46,-13.69 55.05,-28.77 82.98,-45.2 41.67,-24.5 79.14,-48.55 117.31,-73.04 16.4,-10.52 32.96,-21.15 50.02,-31.92 18.23,-11.5 40.19,-24.87 64.12,-39.43 88.74,-54.01 204.95,-124.74 261.49,-180l5.72 -5.58c37.84,-36.87 93.27,-90.87 109.08,-151.94 0.07,-0.27 0.14,-0.55 0.21,-0.82 -0.07,0.27 -0.13,0.54 -0.2,0.82 -16.64,64.24 -77.06,120.63 -114.8,157.53 -71.81,70.18 -239.77,165.26 -325.61,219.43 -56.79,35.85 -107.74,69.91 -167.33,104.96 -27.93,16.43 -55.53,31.5 -82.99,45.19zm691.46 -530.09c0.14,-0.64 0.29,-1.27 0.43,-1.9 -0.14,0.63 -0.28,1.26 -0.43,1.9zm0.83 -3.8c0.15,-0.72 0.29,-1.44 0.42,-2.16 -0.13,0.72 -0.27,1.44 -0.42,2.16zm0.7 -3.7c0.15,-0.85 0.29,-1.69 0.42,-2.52 -0.13,0.83 -0.27,1.67 -0.42,2.52zm0.59 -3.63c0.14,-0.99 0.27,-1.98 0.39,-2.97 -0.12,0.99 -0.25,1.98 -0.39,2.97zm0.43 -3.28c1.19,-10.05 1.1,-19.75 -0.15,-28.98 1.25,9.23 1.34,18.93 0.15,28.98zm-0.15 -29.05c-0.15,-1.1 -0.32,-2.2 -0.5,-3.29 0.18,1.09 0.35,2.19 0.5,3.29zm-0.62 -3.96c-0.15,-0.89 -0.31,-1.77 -0.49,-2.65 0.18,0.88 0.34,1.76 0.49,2.65zm-0.69 -3.62c-0.17,-0.82 -0.35,-1.64 -0.54,-2.46 0.19,0.82 0.37,1.64 0.54,2.46zm-0.73 -3.24c-0.22,-0.89 -0.45,-1.78 -0.68,-2.66 0.23,0.88 0.46,1.77 0.68,2.66zm-0.88 -3.37c-0.23,-0.83 -0.47,-1.66 -0.72,-2.48 0.25,0.82 0.49,1.65 0.72,2.48zm-0.88 -3c-0.32,-1.01 -0.65,-2.02 -1,-3.02 0.35,1 0.68,2.01 1,3.02zm-1.1 -3.32c-4.06,-11.62 -10.09,-22.19 -17.74,-31.39 7.65,9.2 13.68,19.76 17.74,31.39zm-17.83 -31.5c-0.57,-0.69 -1.16,-1.37 -1.75,-2.05 0.59,0.68 1.18,1.36 1.75,2.05zm-1.98 -2.31c-0.66,-0.75 -1.33,-1.48 -2.02,-2.21 0.69,0.73 1.36,1.46 2.02,2.21zm-2.51 -2.73c-0.55,-0.58 -1.12,-1.16 -1.69,-1.73 0.57,0.57 1.14,1.15 1.69,1.73zm-2.37 -2.41c-0.63,-0.62 -1.26,-1.23 -1.91,-1.83 0.64,0.6 1.28,1.21 1.91,1.83zm-2.09 -2c-12.86,-11.95 -28.9,-20.75 -46.92,-25.41 -14.44,-3.73 -30.2,-4.84 -46.62,-2.81 5.62,-0.7 11.16,-1.04 16.6,-1.02l0.02 0c1.23,0 2.46,0.03 3.68,0.07 0,0 0.01,0 0.02,0 1.2,0.03 2.39,0.09 3.57,0.17 0.05,0 0.1,0 0.15,0 1.17,0.08 2.34,0.17 3.5,0.27 0.03,0.01 0.06,0.01 0.08,0.01 1.19,0.11 2.36,0.23 3.54,0.38 0.01,0 0.03,0 0.04,0 24.34,2.96 45.92,13.07 62.34,28.34zm-94.51 -28.1c-0.83,0.11 -1.66,0.22 -2.49,0.35 0.83,-0.12 1.66,-0.24 2.49,-0.35z"/>
      </g>
      <g>
       <path class="fil3" d="M1851.56 579.38c-1.1,1.07 -2.62,1.3 -3.07,3.42l-20.75 32.43c-143.25,240.17 -293.78,178.49 -519.81,336.71 -72.25,50.57 -154.64,160.39 -170.73,289.43 -10.83,86.9 24.44,130.92 70.07,154.46 124.53,64.23 394.15,-104.68 496.69,-161.08 97.82,-53.8 192.8,-114.95 290.1,-169.72 47.38,-26.67 118.37,-56.99 136.43,-90.67 31.69,-59.09 -34.48,-127.03 -63.75,-149.35 -76.25,-58.17 -89.3,-20.16 -153.31,-74 -40.56,-34.12 -57.91,-98.89 -61.87,-171.63z"/>
       <path id="1" class="fil4" d="M1851.55 579.41c-0.31,0.3 -0.7,0.56 -1.05,0.79 -0.84,0.56 -1.7,1.14 -2,2.6l0 0 0 0.01 -20.75 32.43c-87.88,147.35 -178.54,181.09 -287.68,221.69 -20.33,7.57 -41.31,15.37 -63.03,24.2 47.19,-19.17 90.86,-33.54 132.06,-51.1 0.15,-0.06 0.29,-0.12 0.43,-0.18 2.74,-1.17 5.47,-2.35 8.19,-3.56 0.56,-0.24 1.12,-0.49 1.67,-0.73 2.57,-1.15 5.13,-2.3 7.68,-3.48 0.37,-0.17 0.73,-0.33 1.1,-0.5 1.28,-0.6 2.57,-1.2 3.85,-1.8 0.79,-0.38 1.58,-0.76 2.38,-1.13 1.95,-0.94 3.9,-1.88 5.84,-2.84 0.88,-0.43 1.77,-0.87 2.65,-1.31 1.18,-0.59 2.36,-1.18 3.54,-1.78 1.5,-0.76 2.99,-1.53 4.48,-2.31 1.23,-0.65 2.47,-1.3 3.7,-1.96 0.97,-0.52 1.94,-1.04 2.91,-1.57 1.57,-0.85 3.15,-1.72 4.72,-2.6 1.14,-0.63 2.27,-1.27 3.4,-1.91 1.08,-0.61 2.15,-1.23 3.22,-1.86 1.23,-0.71 2.46,-1.44 3.68,-2.17 1.42,-0.84 2.84,-1.7 4.25,-2.56 1.04,-0.64 2.08,-1.28 3.12,-1.93 1.02,-0.63 2.03,-1.26 3.04,-1.91 1.64,-1.04 3.28,-2.1 4.92,-3.18 1.01,-0.67 2.02,-1.34 3.03,-2.02 1.13,-0.76 2.26,-1.53 3.4,-2.3 1.41,-0.98 2.83,-1.97 4.25,-2.96 1.09,-0.78 2.19,-1.56 3.28,-2.35 0.99,-0.71 1.97,-1.42 2.96,-2.15 1.63,-1.2 3.26,-2.42 4.88,-3.66 0.97,-0.73 1.93,-1.48 2.89,-2.23 1.08,-0.84 2.17,-1.69 3.25,-2.55 1.33,-1.06 2.65,-2.13 3.98,-3.21 1.2,-0.98 2.4,-1.97 3.59,-2.97 0.97,-0.81 1.93,-1.62 2.89,-2.44 1.48,-1.27 2.96,-2.55 4.44,-3.85 1.05,-0.93 2.1,-1.87 3.15,-2.82 1.07,-0.96 2.14,-1.93 3.2,-2.91 1.02,-0.94 2.04,-1.88 3.06,-2.84 1.5,-1.41 3,-2.85 4.5,-4.3 0.94,-0.92 1.88,-1.84 2.82,-2.77 1.19,-1.18 2.38,-2.37 3.57,-3.58 1.27,-1.29 2.54,-2.6 3.81,-3.92 1.08,-1.13 2.16,-2.27 3.24,-3.41 0.92,-0.98 1.84,-1.96 2.76,-2.96 1.59,-1.72 3.18,-3.47 4.76,-5.24 0.92,-1.04 1.84,-2.08 2.76,-3.13 1.08,-1.24 2.17,-2.5 3.25,-3.77 1.28,-1.49 2.56,-3 3.84,-4.53 1.13,-1.36 2.27,-2.74 3.4,-4.13 0.93,-1.13 1.85,-2.26 2.77,-3.42 1.57,-1.96 3.14,-3.94 4.71,-5.96 0.9,-1.16 1.79,-2.33 2.68,-3.5 1.04,-1.37 2.08,-2.74 3.12,-4.13 1.13,-1.52 2.27,-3.05 3.4,-4.6 1.3,-1.78 2.6,-3.58 3.91,-5.41 0.92,-1.3 1.84,-2.61 2.77,-3.92 1.2,-1.72 2.39,-3.45 3.59,-5.21 1.23,-1.79 2.45,-3.6 3.67,-5.43 1.02,-1.53 2.04,-3.07 3.06,-4.62 0.91,-1.38 1.82,-2.78 2.73,-4.19 1.54,-2.38 3.07,-4.79 4.6,-7.24 0.93,-1.49 1.86,-2.99 2.79,-4.5 1.03,-1.68 2.06,-3.38 3.09,-5.08 0.67,-1.11 1.35,-2.19 2.02,-3.32l20.75 -32.43c0.45,-2.12 1.97,-2.35 3.07,-3.42 2.39,43.83 9.64,84.77 23.9,117.85 0.01,0.03 0.02,0.05 0.03,0.07 0.34,0.79 0.68,1.57 1.03,2.35 0.01,0.02 0.02,0.04 0.03,0.07 9.27,20.73 21.38,38.25 36.88,51.29 64.01,53.84 77.06,15.83 153.31,74 22.86,17.44 68.25,62.71 71.91,109.85l0 0.04c0.14,1.87 0.22,3.75 0.23,5.62 0,0.02 0,0.03 0,0.05 0.03,6.08 -0.7,12.18 -2.28,18.24 4.84,-18.55 1.51,-37.5 -6.06,-55.23 -14.86,-34.84 -46.11,-65.06 -63.81,-78.56 -38.52,-29.38 -60.92,-34.24 -81.88,-38.76 -20.55,-4.45 -39.77,-8.62 -71.43,-35.24 -19.07,-16.04 -33.04,-38.9 -42.87,-66.18 -11.04,-30.66 -16.91,-66.94 -19,-105.43zm-374.78 281.83c-2.19,0.89 -4.38,1.78 -6.57,2.69 2.19,-0.91 4.38,-1.8 6.57,-2.69zm-7.96 3.27c-2.66,1.1 -5.34,2.23 -8.03,3.37 2.69,-1.14 5.37,-2.27 8.03,-3.37zm-10.18 4.28c-1.97,0.85 -3.96,1.7 -5.95,2.56 1.99,-0.86 3.98,-1.71 5.95,-2.56zm-9.91 4.3c-1.87,0.82 -3.73,1.65 -5.61,2.48 1.88,-0.83 3.74,-1.66 5.61,-2.48zm-8.68 3.87c-1.79,0.8 -3.57,1.61 -5.37,2.44 1.8,-0.82 3.58,-1.64 5.37,-2.44zm-9.8 4.49c-1.78,0.83 -3.57,1.68 -5.37,2.53 1.8,-0.85 3.59,-1.7 5.37,-2.53zm-9.71 4.6c-1.61,0.78 -3.23,1.56 -4.85,2.35 1.62,-0.79 3.24,-1.57 4.85,-2.35zm-9.19 4.5c-1.71,0.84 -3.42,1.7 -5.14,2.57 1.72,-0.87 3.43,-1.73 5.14,-2.57zm-10.1 5.09c-1.59,0.82 -3.19,1.65 -4.79,2.49 1.6,-0.84 3.2,-1.67 4.79,-2.49zm-9.37 4.9c-1.57,0.83 -3.15,1.67 -4.73,2.53 1.58,-0.86 3.16,-1.7 4.73,-2.53zm-10 5.39c-1.62,0.89 -3.25,1.79 -4.88,2.7 1.63,-0.91 3.26,-1.81 4.88,-2.7zm-10.39 5.8c-1.26,0.72 -2.53,1.45 -3.8,2.18 1.27,-0.73 2.54,-1.46 3.8,-2.18zm-9.45 5.46c-1.6,0.94 -3.21,1.9 -4.82,2.86 1.61,-0.96 3.22,-1.92 4.82,-2.86zm-10.51 6.28c-1.41,0.86 -2.82,1.73 -4.24,2.6 1.42,-0.87 2.83,-1.74 4.24,-2.6zm-9.9 6.13c-1.52,0.95 -3.04,1.91 -4.56,2.88 1.52,-0.97 3.04,-1.93 4.56,-2.88zm-10.45 6.67c-1.54,1 -3.09,2.02 -4.64,3.04 1.55,-1.02 3.1,-2.04 4.64,-3.04zm-10.8 7.15c-1.28,0.86 -2.57,1.74 -3.86,2.61 1.29,-0.87 2.58,-1.75 3.86,-2.61zm-10.02 6.86c-0.81,0.55 -1.61,1.11 -2.41,1.67 -39.15,27.4 -81.32,72.24 -114.25,128.09 -21.65,36.71 -39.35,78.2 -49.6,122.63 25.85,-112.05 98.93,-205.3 163.84,-250.73 0.81,-0.57 1.61,-1.1 2.42,-1.66zm-166.44 253.19c-0.35,1.51 -0.69,3.02 -1.01,4.54 0.33,-1.52 0.66,-3.03 1.01,-4.54zm-1.26 5.69c-0.31,1.46 -0.61,2.92 -0.91,4.39 0.3,-1.47 0.6,-2.93 0.91,-4.39zm-1.18 5.75c-0.28,1.42 -0.55,2.84 -0.82,4.26 0.27,-1.42 0.54,-2.84 0.82,-4.26zm-1.12 5.94c-0.24,1.34 -0.48,2.68 -0.71,4.02 0.23,-1.34 0.46,-2.68 0.71,-4.02zm-1.18 6.86c-0.22,1.36 -0.43,2.72 -0.64,4.09 0.21,-1.37 0.42,-2.73 0.64,-4.09zm-0.89 5.74c-0.2,1.43 -0.4,2.85 -0.6,4.28 0.2,-1.43 0.39,-2.85 0.6,-4.28zm-0.79 5.73c-0.09,0.73 -0.19,1.46 -0.28,2.19 -5.15,41.38 0.15,73.06 12.04,97.41 -11.9,-24.36 -17.21,-56.02 -12.05,-97.41 0.09,-0.73 0.19,-1.46 0.29,-2.19zm11.8 99.68c0.37,0.76 0.74,1.5 1.12,2.24 -0.38,-0.74 -0.75,-1.48 -1.12,-2.24zm1.21 2.42c0.19,0.36 0.38,0.72 0.57,1.08 0.18,0.35 0.37,0.69 0.56,1.04 -0.38,-0.7 -0.76,-1.41 -1.13,-2.12zm1.26 2.36c0.37,0.68 0.75,1.35 1.13,2.02 -0.38,-0.67 -0.76,-1.34 -1.13,-2.02zm1.29 2.3c0.37,0.65 0.76,1.3 1.14,1.94 -0.38,-0.64 -0.77,-1.29 -1.14,-1.94zm1.33 2.24c0.38,0.63 0.76,1.26 1.16,1.88 -0.4,-0.62 -0.78,-1.25 -1.16,-1.88zm1.36 2.2c0.39,0.61 0.78,1.22 1.18,1.82 -0.4,-0.6 -0.79,-1.21 -1.18,-1.82zm1.4 2.14c0.4,0.6 0.8,1.19 1.21,1.78 -0.41,-0.59 -0.81,-1.18 -1.21,-1.78zm1.43 2.1c0.41,0.59 0.83,1.17 1.25,1.75 -0.42,-0.58 -0.84,-1.16 -1.25,-1.75zm1.47 2.05c0.42,0.58 0.85,1.15 1.28,1.72 -0.43,-0.57 -0.86,-1.14 -1.28,-1.72zm1.5 2.01c0.44,0.56 0.88,1.13 1.32,1.69 -0.44,-0.56 -0.88,-1.13 -1.32,-1.69zm1.54 1.96c0.45,0.56 0.9,1.12 1.36,1.67 -0.46,-0.55 -0.91,-1.11 -1.36,-1.67zm1.57 1.91c0.46,0.56 0.93,1.11 1.4,1.66 -0.47,-0.55 -0.94,-1.1 -1.4,-1.66zm1.6 1.88c0.48,0.55 0.96,1.1 1.45,1.63 -0.49,-0.53 -0.97,-1.08 -1.45,-1.63zm1.63 1.83c0.5,0.55 0.99,1.09 1.5,1.62 -0.51,-0.53 -1,-1.07 -1.5,-1.62zm1.66 1.8c0.52,0.54 1.03,1.07 1.55,1.6 -0.52,-0.53 -1.03,-1.06 -1.55,-1.6zm1.7 1.75c0.53,0.54 1.06,1.07 1.59,1.59 -0.53,-0.52 -1.06,-1.05 -1.59,-1.59zm1.72 1.72c0.55,0.53 1.09,1.05 1.64,1.57 -0.55,-0.52 -1.09,-1.04 -1.64,-1.57zm1.75 1.67c0.56,0.53 1.13,1.05 1.7,1.56 -0.57,-0.51 -1.14,-1.03 -1.7,-1.56zm1.78 1.64c0.58,0.52 1.16,1.04 1.75,1.55 -0.59,-0.51 -1.17,-1.03 -1.75,-1.55zm1.81 1.6c0.6,0.51 1.2,1.03 1.8,1.53 -0.6,-0.5 -1.2,-1.02 -1.8,-1.53zm1.83 1.55c8.36,7 17.52,12.87 27.14,17.83 0.86,0.44 1.75,0.84 2.63,1.27 -0.88,-0.42 -1.77,-0.82 -2.63,-1.26 -9.62,-4.96 -18.78,-10.84 -27.14,-17.84zm32.62 20.46c1.01,0.45 2.05,0.86 3.08,1.29 -0.63,-0.26 -1.27,-0.52 -1.9,-0.78 -0.28,-0.12 -0.57,-0.23 -0.84,-0.35 -0.12,-0.05 -0.23,-0.11 -0.34,-0.16zm5.8 2.4c1.06,0.41 2.15,0.78 3.23,1.16 -0.41,-0.14 -0.83,-0.28 -1.24,-0.43 -0.53,-0.19 -1.06,-0.37 -1.58,-0.56 -0.14,-0.06 -0.27,-0.12 -0.41,-0.17zm5.96 2.1c1.11,0.36 2.24,0.7 3.37,1.03 -0.32,-0.09 -0.64,-0.18 -0.96,-0.27 -0.63,-0.19 -1.26,-0.38 -1.88,-0.58 -0.18,-0.06 -0.35,-0.12 -0.53,-0.18zm6.12 1.81c1.16,0.32 2.34,0.62 3.52,0.91 -0.27,-0.07 -0.54,-0.13 -0.81,-0.19 -0.68,-0.17 -1.35,-0.34 -2.03,-0.52 -0.23,-0.06 -0.45,-0.13 -0.68,-0.2zm6.25 1.54c1.23,0.27 2.45,0.53 3.69,0.77 -0.23,-0.04 -0.48,-0.08 -0.71,-0.13 -0.69,-0.13 -1.37,-0.28 -2.05,-0.43 -0.31,-0.06 -0.62,-0.14 -0.93,-0.21zm6.37 1.26c1.29,0.22 2.59,0.45 3.9,0.65 -0.21,-0.04 -0.43,-0.06 -0.65,-0.09 -0.65,-0.1 -1.29,-0.22 -1.93,-0.32 -0.45,-0.08 -0.88,-0.17 -1.32,-0.24zm6.38 0.98c1.41,0.19 2.82,0.38 4.25,0.54 -0.2,-0.02 -0.41,-0.04 -0.61,-0.06 -0.51,-0.06 -1.02,-0.13 -1.54,-0.19 -0.7,-0.09 -1.4,-0.19 -2.1,-0.29zm6.03 0.7c5.68,0.56 11.51,0.86 17.47,0.91 -4.38,-0.04 -8.71,-0.18 -12.95,-0.49 -0.06,0 -0.11,-0.01 -0.17,-0.01 -1.46,-0.11 -2.9,-0.26 -4.35,-0.41zm18.37 0.92c1.77,0.01 3.56,-0.02 5.35,-0.06 -0.99,0.02 -1.98,0.04 -2.96,0.06 -0.55,0 -1.12,0.02 -1.67,0.02 -0.24,0 -0.48,-0.02 -0.72,-0.02zm7.17 -0.09c1.72,-0.05 3.46,-0.13 5.2,-0.21 -0.69,0.03 -1.38,0.07 -2.07,0.1 -0.75,0.03 -1.5,0.07 -2.25,0.09 -0.3,0.01 -0.59,0.01 -0.88,0.02zm7.25 -0.31c1.74,-0.1 3.49,-0.23 5.25,-0.36 -0.55,0.04 -1.1,0.09 -1.64,0.13 -0.84,0.06 -1.67,0.12 -2.51,0.17 -0.37,0.02 -0.73,0.03 -1.1,0.06zm7.3 -0.53c1.79,-0.15 3.6,-0.32 5.41,-0.51 -0.46,0.05 -0.92,0.1 -1.38,0.15 -0.87,0.09 -1.74,0.17 -2.6,0.25 -0.48,0.04 -0.95,0.07 -1.43,0.11zm7.3 -0.72c1.9,-0.21 3.8,-0.43 5.72,-0.68 -0.41,0.05 -0.82,0.11 -1.22,0.17 -0.86,0.1 -1.72,0.2 -2.57,0.3 -0.65,0.08 -1.29,0.14 -1.93,0.21zm7.16 -0.88c2.08,-0.28 4.17,-0.57 6.28,-0.89 -0.37,0.05 -0.74,0.12 -1.11,0.18 -0.78,0.11 -1.56,0.22 -2.35,0.33 -0.94,0.13 -1.88,0.26 -2.82,0.38zm6.58 -0.94c12.2,-1.89 24.74,-4.51 37.52,-7.73 -1.36,0.34 -2.72,0.68 -4.08,1.01 -0.82,0.2 -1.64,0.41 -2.45,0.6 -2.24,0.54 -4.47,1.04 -6.69,1.53 -0.49,0.11 -0.98,0.23 -1.47,0.33 -5.5,1.2 -10.95,2.27 -16.33,3.21 -0.57,0.09 -1.12,0.18 -1.69,0.27 -1.61,0.28 -3.21,0.53 -4.81,0.78zm37.63 -7.76c2.47,-0.62 4.94,-1.27 7.43,-1.94 -1.01,0.27 -2.01,0.54 -3.02,0.81 -0.94,0.25 -1.87,0.49 -2.81,0.73 -0.53,0.14 -1.07,0.27 -1.6,0.4zm7.93 -2.07c2.46,-0.67 4.92,-1.35 7.4,-2.06 -0.82,0.24 -1.63,0.47 -2.45,0.7 -0.98,0.28 -1.96,0.55 -2.94,0.82 -0.67,0.18 -1.34,0.36 -2.01,0.54zm7.85 -2.18c104.46,-29.9 221.48,-96.36 296.45,-138.94 14.02,-7.96 26.59,-15.11 37.31,-21 52.51,-28.87 104.39,-60 156.24,-91.09 44.37,-26.62 88.76,-53.24 133.86,-78.63 10.36,-5.83 21.88,-11.86 33.69,-18.03 42.21,-22.06 88.63,-46.33 102.73,-72.63 0.11,-0.21 0.22,-0.42 0.33,-0.63 -0.11,0.21 -0.21,0.42 -0.32,0.63 -18.06,33.68 -89.05,64 -136.43,90.67 -97.3,54.77 -192.28,115.92 -290.1,169.72 -40.02,22.01 -105.5,61.17 -177.87,96.91 -0.13,0.06 -0.25,0.12 -0.37,0.18 -2.7,1.34 -5.41,2.66 -8.13,3.99 -0.24,0.11 -0.47,0.23 -0.71,0.34 -2.66,1.29 -5.34,2.58 -8.02,3.86 -0.23,0.11 -0.45,0.22 -0.68,0.33 -2.82,1.35 -5.65,2.69 -8.49,4.02 -0.05,0.03 -0.1,0.05 -0.15,0.07 -8.82,4.14 -17.71,8.2 -26.63,12.13 -0.14,0.06 -0.28,0.12 -0.41,0.18 -2.71,1.2 -5.43,2.38 -8.14,3.55 -0.58,0.25 -1.15,0.49 -1.73,0.74 -2.28,0.98 -4.57,1.95 -6.86,2.92 -0.76,0.31 -1.51,0.63 -2.27,0.95 -2.12,0.88 -4.25,1.76 -6.37,2.63 -0.83,0.35 -1.67,0.69 -2.51,1.03 -2.07,0.84 -4.13,1.67 -6.2,2.5 -0.85,0.33 -1.7,0.67 -2.55,1.01 -2.1,0.83 -4.21,1.65 -6.31,2.46 -0.79,0.3 -1.57,0.61 -2.36,0.91 -2.29,0.88 -4.59,1.74 -6.88,2.6 -0.58,0.21 -1.16,0.44 -1.74,0.65 -5.83,2.16 -11.66,4.24 -17.46,6.23 -0.29,0.1 -0.58,0.19 -0.87,0.29 -2.54,0.87 -5.07,1.72 -7.6,2.55 -0.77,0.25 -1.53,0.5 -2.3,0.74 -2.05,0.67 -4.11,1.33 -6.16,1.97 -0.92,0.29 -1.84,0.57 -2.76,0.85 -1.9,0.59 -3.79,1.16 -5.69,1.73 -0.97,0.29 -1.95,0.57 -2.92,0.86 -0.88,0.25 -1.75,0.5 -2.62,0.75zm761.44 -422.57c0.17,-0.36 0.34,-0.71 0.51,-1.07 -0.17,0.36 -0.34,0.71 -0.51,1.07zm1.19 -2.56c0.23,-0.51 0.45,-1.02 0.66,-1.53 -0.21,0.51 -0.43,1.02 -0.66,1.53zm1.22 -2.89c0.22,-0.56 0.43,-1.12 0.63,-1.69 -0.2,0.57 -0.41,1.13 -0.63,1.69zm0.92 -2.49c0.22,-0.63 0.43,-1.26 0.63,-1.89 -0.2,0.63 -0.41,1.26 -0.63,1.89zm0.76 -2.32c0.3,-0.94 0.57,-1.89 0.82,-2.84 -0.25,0.95 -0.52,1.9 -0.82,2.84z"/>
      </g>
      <g>
       <path class="fil3" d="M1713.13 1769.38c320.79,14.96 526.55,13.01 745.65,-171.38l37.11 -36.81c27.32,-34.86 39.32,-71 29.06,-114.91 -14.91,-63.73 -74.11,-101.97 -136.86,-88.92 -46.35,9.65 -59.32,32.39 -89.71,62.85 -116.03,116.35 -328.17,214.33 -479.32,292.8 -21.52,11.17 -91.61,40.58 -105.93,56.37z"/>
       <path id="1" class="fil4" d="M1713.16 1769.37c117.68,5.48 219.89,8.69 312.95,1.46 -93.07,7.24 -195.28,4.04 -312.98,-1.45 14.32,-15.79 84.41,-45.2 105.93,-56.37 151.15,-78.47 363.29,-176.45 479.32,-292.8 30.39,-30.46 43.36,-53.2 89.71,-62.85 62.75,-13.05 121.95,25.19 136.86,88.92 10.26,43.91 -1.74,80.05 -29.06,114.91l-37.11 36.81c-1.01,0.85 -2.03,1.68 -3.04,2.52 1.01,-0.84 2.02,-1.68 3.03,-2.53l37.11 -36.81c13.66,-17.43 23.5,-35.19 28.62,-54.05 5.13,-18.87 5.56,-38.91 0.44,-60.85 -7.44,-31.82 -25.95,-57.3 -50.41,-73.19 -24.51,-15.92 -55.05,-22.24 -86.44,-15.72 -37.86,7.88 -53.47,24.54 -74.49,46.98 -4.69,5 -9.67,10.32 -15.21,15.87 -99.07,99.35 -268.33,185.35 -409.78,257.22 -24.14,12.26 -47.51,24.14 -69.55,35.58 -5.62,2.91 -14.61,7.11 -25.02,11.95 -29.34,13.67 -70.29,32.74 -80.88,44.4zm313.42 1.42c3.64,-0.28 7.27,-0.59 10.89,-0.9 -3.62,0.31 -7.25,0.62 -10.89,0.9zm12.33 -1.03c3.29,-0.29 6.58,-0.6 9.85,-0.92 -3.27,0.32 -6.56,0.63 -9.85,0.92zm12.22 -1.16c2.96,-0.3 5.9,-0.61 8.83,-0.93 -2.93,0.33 -5.88,0.63 -8.83,0.93zm12.12 -1.29c2.62,-0.29 5.23,-0.6 7.84,-0.91 -2.6,0.31 -5.22,0.62 -7.84,0.91zm12.01 -1.42c2.3,-0.29 4.6,-0.59 6.89,-0.89 -2.29,0.3 -4.59,0.6 -6.89,0.89zm11.91 -1.57c1.99,-0.27 3.98,-0.55 5.97,-0.84 -1.99,0.29 -3.98,0.57 -5.97,0.84zm11.81 -1.71c1.69,-0.25 3.39,-0.51 5.07,-0.78 -1.68,0.27 -3.38,0.53 -5.07,0.78zm11.72 -1.85c1.4,-0.23 2.8,-0.47 4.21,-0.71 -1.4,0.24 -2.81,0.48 -4.21,0.71zm11.62 -2c0.59,-0.11 1.18,-0.21 1.77,-0.32 0.55,-0.1 1.09,-0.2 1.64,-0.3 -1.14,0.2 -2.27,0.41 -3.41,0.62zm11.33 -2.12c1.01,-0.2 2.02,-0.4 3.04,-0.6 -1.02,0.2 -2.03,0.4 -3.04,0.6zm11.16 -2.26c0.94,-0.2 1.88,-0.4 2.82,-0.6 -0.94,0.2 -1.88,0.4 -2.82,0.6zm11.04 -2.4c0.9,-0.2 1.8,-0.41 2.7,-0.61 -0.9,0.2 -1.8,0.41 -2.7,0.61zm10.93 -2.55c0.89,-0.22 1.77,-0.43 2.66,-0.65 -0.89,0.22 -1.77,0.43 -2.66,0.65zm10.84 -2.7c0.89,-0.24 1.78,-0.47 2.68,-0.7 -0.9,0.23 -1.79,0.46 -2.68,0.7zm10.75 -2.86c0.92,-0.26 1.84,-0.51 2.75,-0.77 -0.91,0.26 -1.83,0.51 -2.75,0.77zm10.67 -3.02c0.96,-0.29 1.92,-0.57 2.88,-0.85 -0.96,0.28 -1.92,0.57 -2.88,0.85zm10.59 -3.19c1.02,-0.31 2.03,-0.63 3.04,-0.95 -1.01,0.32 -2.02,0.64 -3.04,0.95zm10.54 -3.35c1.07,-0.35 2.15,-0.71 3.22,-1.07 -1.07,0.36 -2.15,0.72 -3.22,1.07zm10.47 -3.53c1.14,-0.39 2.29,-0.79 3.43,-1.19 -1.14,0.4 -2.29,0.8 -3.43,1.19zm10.42 -3.7c1.22,-0.44 2.44,-0.89 3.65,-1.34 -1.21,0.45 -2.43,0.9 -3.65,1.34zm10.37 -3.88c1.3,-0.5 2.59,-1 3.89,-1.51 -1.3,0.51 -2.59,1.01 -3.89,1.51zm10.34 -4.07c1.37,-0.56 2.74,-1.12 4.12,-1.68 -1.38,0.56 -2.75,1.12 -4.12,1.68zm10.29 -4.26c1.45,-0.61 2.91,-1.24 4.36,-1.86 -1.45,0.62 -2.91,1.25 -4.36,1.86zm10.26 -4.45c1.53,-0.68 3.07,-1.37 4.6,-2.06 -1.53,0.69 -3.07,1.38 -4.6,2.06zm10.24 -4.65c1.61,-0.75 3.21,-1.5 4.82,-2.26 -1.61,0.76 -3.21,1.51 -4.82,2.26zm10.21 -4.85c1.68,-0.82 3.36,-1.65 5.04,-2.48 -1.68,0.83 -3.36,1.66 -5.04,2.48zm10.19 -5.06c1.75,-0.89 3.5,-1.79 5.25,-2.7 -1.75,0.91 -3.5,1.81 -5.25,2.7zm10.18 -5.28c1.81,-0.96 3.63,-1.93 5.44,-2.91 -1.81,0.98 -3.63,1.95 -5.44,2.91zm10.16 -5.49c1.88,-1.03 3.75,-2.07 5.63,-3.13 -1.88,1.06 -3.75,2.1 -5.63,3.13zm10.16 -5.71c1.93,-1.1 3.86,-2.22 5.78,-3.35 -1.92,1.13 -3.85,2.25 -5.78,3.35zm10.15 -5.93c1.98,-1.18 3.96,-2.37 5.93,-3.58 -1.97,1.21 -3.95,2.4 -5.93,3.58zm10.16 -6.17c2.01,-1.25 4.03,-2.51 6.05,-3.79 -2.02,1.28 -4.04,2.54 -6.05,3.79zm10.15 -6.41c2.05,-1.31 4.1,-2.64 6.16,-3.99 -2.05,1.34 -4.11,2.68 -6.16,3.99zm10.17 -6.64c2.07,-1.38 4.15,-2.78 6.23,-4.19 -2.08,1.41 -4.16,2.81 -6.23,4.19zm10.17 -6.89c2.1,-1.45 4.19,-2.91 6.29,-4.38 -2.1,1.47 -4.19,2.93 -6.29,4.38zm10.19 -7.15c2.11,-1.5 4.21,-3.01 6.31,-4.54 -2.1,1.53 -4.2,3.04 -6.31,4.54zm10.21 -7.4c2.1,-1.55 4.21,-3.11 6.31,-4.7 -2.1,1.58 -4.21,3.15 -6.31,4.7zm10.23 -7.66c2.09,-1.59 4.19,-3.2 6.29,-4.83 -2.1,1.62 -4.2,3.24 -6.29,4.83zm10.25 -7.93c2.08,-1.63 4.16,-3.28 6.23,-4.94 -2.07,1.66 -4.15,3.31 -6.23,4.94zm10.29 -8.2c2.04,-1.66 4.09,-3.33 6.14,-5.02 -2.05,1.68 -4.1,3.37 -6.14,5.02z"/>
      </g>
     </g>
    </g>
   </g>
  </g>
 </g>
</svg>
