<?xml version="1.0" encoding="UTF-8"?>
<!DOCTYPE svg PUBLIC "-//W3C//DTD SVG 1.1//EN" "http://www.w3.org/2000/svg">
<svg xmlns="http://www.w3.org/2000/svg" xml:space="preserve" width="34.5438mm" height="34.5438mm" version="1.1" style="shape-rendering:geometricPrecision; text-rendering:geometricPrecision; image-rendering:optimizeQuality; fill-rule:evenodd; clip-rule:evenodd"
viewBox="0 0 3454.38 3454.38">
 <defs>
  <style type="text/css">
    .fil3 {fill:#FEFEFE}
    .fil0 {fill:#D7E1F1}
    .fil2 {fill:#41694A}
    .fil1 {fill:#7CB488}
  </style>
 </defs>
 <g>
  <g>
   <circle class="fil0" cx="1727.19" cy="1727.19" r="1693.33"/>
   <g>
    <path class="fil1" d="M1727.19 33.86c935.18,0 1693.33,758.15 1693.33,1693.33 0,935.18 -758.15,1693.33 -1693.33,1693.33 -935.18,0 -1693.33,-758.15 -1693.33,-1693.33 0,-935.18 758.15,-1693.33 1693.33,-1693.33z"/>
    <path id="1" class="fil2" d="M1727.19 33.86c0.53,0 1.05,0.02 1.58,0.02 -0.53,0 -1.05,-0.01 -1.58,-0.01 -0.53,0 -1.05,0.01 -1.58,0.01 0.53,0 1.05,-0.02 1.58,-0.02zm42.12 0.53c1.06,0.03 2.12,0.06 3.18,0.08 -1.06,-0.02 -2.12,-0.05 -3.18,-0.08zm43.41 1.61c1.07,0.06 2.15,0.11 3.22,0.17 -1.07,-0.06 -2.15,-0.11 -3.22,-0.17zm43.11 2.69c1.1,0.09 2.2,0.17 3.3,0.25 -1.1,-0.08 -2.2,-0.16 -3.3,-0.25zm42.8 3.76c1.13,0.12 2.26,0.23 3.39,0.35 -1.13,-0.12 -2.26,-0.23 -3.39,-0.35zm42.48 4.82c1.17,0.14 2.33,0.29 3.5,0.44 -1.17,-0.15 -2.33,-0.3 -3.5,-0.44zm42.15 5.85c1.2,0.18 2.41,0.37 3.62,0.55 -1.21,-0.18 -2.42,-0.37 -3.62,-0.55zm41.8 6.88c1.25,0.22 2.5,0.44 3.75,0.67 -1.25,-0.23 -2.5,-0.45 -3.75,-0.67zm41.45 7.89c1.3,0.27 2.59,0.53 3.89,0.8 -1.3,-0.27 -2.59,-0.53 -3.89,-0.8zm41.09 8.9c1.34,0.3 2.67,0.61 4.01,0.92 -1.34,-0.31 -2.67,-0.62 -4.01,-0.92zm40.7 9.88c1.39,0.35 2.77,0.71 4.15,1.06 -1.38,-0.35 -2.76,-0.71 -4.15,-1.06zm40.32 10.85c1.42,0.4 2.85,0.81 4.27,1.21 -1.42,-0.4 -2.85,-0.81 -4.27,-1.21zm39.92 11.82c1.46,0.45 2.92,0.91 4.37,1.36 -1.45,-0.45 -2.91,-0.91 -4.37,-1.36zm39.51 12.77c1.49,0.5 2.98,1 4.46,1.51 -1.48,-0.51 -2.97,-1.01 -4.46,-1.51zm39.08 13.7c1.52,0.55 3.03,1.11 4.54,1.67 -1.51,-0.56 -3.02,-1.12 -4.54,-1.67zm38.65 14.63c1.53,0.6 3.07,1.21 4.6,1.82 -1.53,-0.61 -3.07,-1.22 -4.6,-1.82zm38.2 15.54c1.54,0.65 3.09,1.31 4.64,1.97 -1.55,-0.66 -3.1,-1.32 -4.64,-1.97zm37.73 16.45c1.56,0.69 3.11,1.4 4.66,2.1 -1.55,-0.7 -3.1,-1.41 -4.66,-2.1zm37.27 17.32c1.55,0.75 3.1,1.5 4.64,2.24 -1.54,-0.74 -3.09,-1.49 -4.64,-2.24zm36.77 18.21c1.54,0.79 3.08,1.57 4.62,2.36 -1.54,-0.79 -3.08,-1.57 -4.62,-2.36zm36.28 19.07c1.52,0.82 3.04,1.65 4.56,2.48 -1.52,-0.83 -3.04,-1.66 -4.56,-2.48zm35.76 19.92c1.5,0.86 2.99,1.72 4.49,2.58 -1.5,-0.86 -2.99,-1.72 -4.49,-2.58zm35.24 20.76c1.46,0.88 2.92,1.77 4.38,2.66 -1.46,-0.89 -2.92,-1.78 -4.38,-2.66zm34.69 21.58c1.42,0.91 2.84,1.82 4.26,2.73 -1.42,-0.91 -2.84,-1.82 -4.26,-2.73zm34.14 22.4c1.37,0.93 2.75,1.85 4.12,2.78 -1.37,-0.93 -2.75,-1.85 -4.12,-2.78zm33.57 23.2c1.32,0.94 2.64,1.87 3.96,2.81 -1.32,-0.94 -2.64,-1.87 -3.96,-2.81zm32.99 23.99c1.26,0.94 2.52,1.88 3.78,2.82 -1.26,-0.94 -2.52,-1.88 -3.78,-2.82zm32.39 24.76c1.19,0.94 2.39,1.88 3.58,2.82 -1.19,-0.94 -2.39,-1.88 -3.58,-2.82zm31.77 25.52c1.13,0.93 2.26,1.86 3.39,2.79 -1.13,-0.93 -2.26,-1.86 -3.39,-2.79zm31.15 26.27c1.06,0.92 2.12,1.83 3.18,2.75 -1.06,-0.92 -2.12,-1.83 -3.18,-2.75zm30.51 27.01c0.99,0.89 1.97,1.78 2.95,2.68 -0.98,-0.9 -1.96,-1.79 -2.95,-2.68zm29.85 27.72c0.91,0.87 1.83,1.73 2.74,2.61 -0.91,-0.87 -1.83,-1.74 -2.74,-2.61zm29.18 28.43c0.84,0.84 1.68,1.68 2.52,2.52 -0.42,-0.42 -0.83,-0.85 -1.25,-1.27 -0.42,-0.42 -0.85,-0.83 -1.27,-1.25zm28.34 28.96c0.88,0.91 1.74,1.83 2.61,2.74 -0.87,-0.91 -1.73,-1.83 -2.61,-2.74zm27.65 29.64c0.9,0.98 1.79,1.96 2.68,2.95 -0.89,-0.99 -1.78,-1.97 -2.68,-2.95zm26.94 30.28c0.92,1.06 1.83,2.12 2.75,3.18 -0.92,-1.06 -1.83,-2.12 -2.75,-3.18zm26.23 30.94c0.93,1.13 1.86,2.26 2.79,3.39 -0.93,-1.13 -1.86,-2.26 -2.79,-3.39zm25.49 31.58c0.94,1.19 1.88,2.39 2.82,3.58 -0.94,-1.19 -1.88,-2.39 -2.82,-3.58zm24.76 32.19c0.94,1.26 1.88,2.52 2.82,3.78 -0.94,-1.26 -1.88,-2.52 -2.82,-3.78zm24 32.81c0.94,1.32 1.87,2.64 2.81,3.96 -0.94,-1.32 -1.87,-2.64 -2.81,-3.96zm23.23 33.41c0.93,1.37 1.85,2.75 2.78,4.12 -0.93,-1.37 -1.85,-2.75 -2.78,-4.12zm22.45 34c0.91,1.42 1.82,2.84 2.73,4.26 -0.91,-1.42 -1.82,-2.84 -2.73,-4.26zm21.65 34.57c0.89,1.46 1.78,2.92 2.66,4.38 -0.88,-1.46 -1.77,-2.92 -2.66,-4.38zm20.84 35.13c0.86,1.5 1.72,2.99 2.58,4.49 -0.86,-1.5 -1.72,-2.99 -2.58,-4.49zm20.02 35.69c0.83,1.52 1.66,3.04 2.48,4.56 -0.82,-1.52 -1.65,-3.04 -2.48,-4.56zm19.19 36.22c0.79,1.54 1.57,3.08 2.36,4.62 -0.79,-1.54 -1.57,-3.08 -2.36,-4.62zm18.33 36.75c0.74,1.54 1.49,3.09 2.24,4.64 -0.75,-1.55 -1.5,-3.1 -2.24,-4.64zm17.46 37.25c0.7,1.55 1.41,3.1 2.1,4.66 -0.69,-1.56 -1.4,-3.11 -2.1,-4.66zm16.58 37.75c0.66,1.55 1.32,3.1 1.97,4.64 -0.65,-1.54 -1.31,-3.09 -1.97,-4.64zm15.69 38.24c0.61,1.53 1.22,3.07 1.82,4.6 -0.6,-1.53 -1.21,-3.07 -1.82,-4.6zm14.78 38.71c0.56,1.51 1.12,3.02 1.67,4.54 -0.55,-1.52 -1.11,-3.03 -1.67,-4.54zm13.86 39.16c0.51,1.48 1.01,2.97 1.51,4.46 -0.5,-1.49 -1,-2.98 -1.51,-4.46zm12.92 39.6c0.45,1.45 0.91,2.91 1.36,4.37 -0.45,-1.46 -0.91,-2.92 -1.36,-4.37zm11.97 40.02c0.4,1.42 0.81,2.85 1.21,4.27 -0.4,-1.42 -0.81,-2.85 -1.21,-4.27zm11 40.44c0.35,1.38 0.71,2.76 1.06,4.15 -0.35,-1.39 -0.71,-2.77 -1.06,-4.15zm10.02 40.84c0.31,1.34 0.62,2.67 0.92,4.01 -0.3,-1.34 -0.61,-2.67 -0.92,-4.01zm9.02 41.21c0.27,1.3 0.53,2.59 0.8,3.89 -0.27,-1.3 -0.53,-2.59 -0.8,-3.89zm8.02 41.59c0.23,1.25 0.45,2.5 0.67,3.75 -0.22,-1.25 -0.44,-2.5 -0.67,-3.75zm7 41.93c0.18,1.21 0.37,2.42 0.55,3.62 -0.18,-1.2 -0.37,-2.41 -0.55,-3.62zm5.96 42.27c0.15,1.17 0.3,2.33 0.44,3.5 -0.14,-1.17 -0.29,-2.33 -0.44,-3.5zm4.91 42.59c0.12,1.13 0.23,2.26 0.35,3.39 -0.12,-1.13 -0.23,-2.26 -0.35,-3.39zm3.86 42.89c0.08,1.1 0.16,2.2 0.25,3.3 -0.09,-1.1 -0.17,-2.2 -0.25,-3.3zm2.77 43.19c0.06,1.07 0.11,2.15 0.17,3.22 -0.06,-1.07 -0.11,-2.15 -0.17,-3.22zm1.7 43.45c0.02,1.06 0.05,2.12 0.08,3.18 -0.03,-1.06 -0.06,-2.12 -0.08,-3.18zm0.59 43.72c0,0.53 0.02,1.05 0.02,1.58 0,0.53 -0.02,1.05 -0.02,1.58 0,-0.53 0.01,-1.05 0.01,-1.58 0,-0.53 -0.01,-1.05 -0.01,-1.58zm-0.51 43.7c-0.03,1.06 -0.06,2.12 -0.08,3.18 0.02,-1.06 0.05,-2.12 0.08,-3.18zm-1.61 43.41c-0.06,1.07 -0.11,2.15 -0.17,3.22 0.06,-1.07 0.11,-2.15 0.17,-3.22zm-2.69 43.11c-0.09,1.1 -0.17,2.2 -0.25,3.3 0.08,-1.1 0.16,-2.2 0.25,-3.3zm-3.76 42.8c-0.12,1.13 -0.23,2.26 -0.35,3.39 0.12,-1.13 0.23,-2.26 0.35,-3.39zm-4.82 42.48c-0.14,1.17 -0.29,2.33 -0.44,3.5 0.15,-1.17 0.3,-2.33 0.44,-3.5zm-5.85 42.15c-0.18,1.2 -0.37,2.41 -0.55,3.62 0.18,-1.21 0.37,-2.42 0.55,-3.62zm-6.88 41.8c-0.22,1.25 -0.44,2.5 -0.67,3.75 0.23,-1.25 0.45,-2.5 0.67,-3.75zm-7.89 41.45c-0.27,1.3 -0.53,2.59 -0.8,3.89 0.27,-1.3 0.53,-2.59 0.8,-3.89zm-8.9 41.09c-0.3,1.34 -0.61,2.67 -0.92,4.01 0.31,-1.34 0.62,-2.67 0.92,-4.01zm-9.88 40.7c-0.35,1.39 -0.71,2.77 -1.06,4.15 0.35,-1.38 0.71,-2.76 1.06,-4.15zm-10.85 40.32c-0.4,1.42 -0.81,2.85 -1.21,4.27 0.4,-1.42 0.81,-2.85 1.21,-4.27zm-11.82 39.92c-0.45,1.46 -0.91,2.92 -1.36,4.37 0.45,-1.45 0.91,-2.91 1.36,-4.37zm-12.77 39.51c-0.5,1.49 -1,2.98 -1.51,4.46 0.51,-1.48 1.01,-2.97 1.51,-4.46zm-13.7 39.08c-0.55,1.52 -1.11,3.03 -1.67,4.54 0.56,-1.51 1.12,-3.02 1.67,-4.54zm-14.63 38.65c-0.6,1.53 -1.21,3.07 -1.82,4.6 0.61,-1.53 1.22,-3.07 1.82,-4.6zm-15.54 38.2c-0.65,1.54 -1.31,3.09 -1.97,4.64 0.66,-1.55 1.32,-3.1 1.97,-4.64zm-16.45 37.73c-0.69,1.56 -1.4,3.11 -2.1,4.66 0.7,-1.55 1.41,-3.1 2.1,-4.66zm-17.32 37.27c-0.75,1.55 -1.5,3.1 -2.24,4.64 0.74,-1.54 1.49,-3.09 2.24,-4.64zm-18.21 36.77c-0.79,1.54 -1.57,3.08 -2.36,4.62 0.79,-1.54 1.57,-3.08 2.36,-4.62zm-19.07 36.28c-0.82,1.52 -1.65,3.04 -2.48,4.56 0.83,-1.52 1.66,-3.04 2.48,-4.56zm-19.92 35.76c-0.86,1.5 -1.72,2.99 -2.58,4.49 0.86,-1.5 1.72,-2.99 2.58,-4.49zm-20.76 35.24c-0.88,1.46 -1.77,2.92 -2.66,4.38 0.89,-1.46 1.78,-2.92 2.66,-4.38zm-21.58 34.69c-0.91,1.42 -1.82,2.84 -2.73,4.26 0.91,-1.42 1.82,-2.84 2.73,-4.26zm-22.4 34.14c-0.93,1.37 -1.85,2.75 -2.78,4.12 0.93,-1.37 1.85,-2.75 2.78,-4.12zm-23.2 33.57c-0.94,1.32 -1.87,2.64 -2.81,3.96 0.94,-1.32 1.87,-2.64 2.81,-3.96zm-23.99 32.99c-0.94,1.26 -1.88,2.52 -2.82,3.78 0.94,-1.26 1.88,-2.52 2.82,-3.78zm-24.76 32.39c-0.94,1.19 -1.88,2.39 -2.82,3.58 0.94,-1.19 1.88,-2.39 2.82,-3.58zm-25.52 31.77c-0.93,1.13 -1.86,2.26 -2.79,3.39 0.93,-1.13 1.86,-2.26 2.79,-3.39zm-26.27 31.15c-0.92,1.06 -1.83,2.12 -2.75,3.18 0.92,-1.06 1.83,-2.12 2.75,-3.18zm-27.01 30.51c-0.89,0.99 -1.78,1.97 -2.68,2.95 0.9,-0.98 1.79,-1.96 2.68,-2.95zm-27.72 29.85c-0.87,0.91 -1.73,1.83 -2.61,2.74 0.87,-0.91 1.74,-1.83 2.61,-2.74zm-28.43 29.18c-0.84,0.84 -1.68,1.68 -2.52,2.52 0.42,-0.42 0.85,-0.83 1.27,-1.25 0.42,-0.42 0.83,-0.85 1.25,-1.27zm-28.96 28.34c-0.91,0.88 -1.83,1.74 -2.74,2.61 0.91,-0.87 1.83,-1.73 2.74,-2.61zm-29.64 27.65c-0.98,0.9 -1.96,1.79 -2.95,2.68 0.99,-0.89 1.97,-1.78 2.95,-2.68zm-30.28 26.94c-1.06,0.92 -2.12,1.83 -3.18,2.75 1.06,-0.92 2.12,-1.83 3.18,-2.75zm-30.94 26.23c-1.13,0.93 -2.26,1.86 -3.39,2.79 1.13,-0.93 2.26,-1.86 3.39,-2.79zm-31.58 25.49c-1.19,0.94 -2.39,1.88 -3.58,2.82 1.19,-0.94 2.39,-1.88 3.58,-2.82zm-32.19 24.76c-1.26,0.94 -2.52,1.88 -3.78,2.82 1.26,-0.94 2.52,-1.88 3.78,-2.82zm-32.81 24c-1.32,0.94 -2.64,1.87 -3.96,2.81 1.32,-0.94 2.64,-1.87 3.96,-2.81zm-33.41 23.23c-1.37,0.93 -2.75,1.85 -4.12,2.78 1.37,-0.93 2.75,-1.85 4.12,-2.78zm-34 22.45c-1.42,0.91 -2.84,1.82 -4.26,2.73 1.42,-0.91 2.84,-1.82 4.26,-2.73zm-34.57 21.65c-1.46,0.89 -2.92,1.78 -4.38,2.66 1.46,-0.88 2.92,-1.77 4.38,-2.66zm-35.13 20.84c-1.5,0.86 -2.99,1.72 -4.49,2.58 1.5,-0.86 2.99,-1.72 4.49,-2.58zm-35.69 20.02c-1.52,0.83 -3.04,1.66 -4.56,2.48 1.52,-0.82 3.04,-1.65 4.56,-2.48zm-36.22 19.19c-1.54,0.79 -3.08,1.57 -4.62,2.36 1.54,-0.79 3.08,-1.57 4.62,-2.36zm-36.75 18.33c-1.54,0.74 -3.09,1.49 -4.64,2.24 1.55,-0.75 3.1,-1.5 4.64,-2.24zm-37.25 17.46c-1.55,0.7 -3.1,1.41 -4.66,2.1 1.56,-0.69 3.11,-1.4 4.66,-2.1zm-37.75 16.58c-1.55,0.66 -3.1,1.32 -4.64,1.97 1.54,-0.65 3.09,-1.31 4.64,-1.97zm-38.24 15.69c-1.53,0.61 -3.07,1.22 -4.6,1.82 1.53,-0.6 3.07,-1.21 4.6,-1.82zm-38.71 14.78c-1.51,0.56 -3.02,1.12 -4.54,1.67 1.52,-0.55 3.03,-1.11 4.54,-1.67zm-39.16 13.86c-1.48,0.51 -2.97,1.01 -4.46,1.51 1.49,-0.5 2.98,-1 4.46,-1.51zm-39.6 12.92c-1.45,0.45 -2.91,0.91 -4.37,1.36 1.46,-0.45 2.92,-0.91 4.37,-1.36zm-40.02 11.97c-1.42,0.4 -2.85,0.81 -4.27,1.21 1.42,-0.4 2.85,-0.81 4.27,-1.21zm-40.44 11c-1.38,0.35 -2.76,0.71 -4.15,1.06 1.39,-0.35 2.77,-0.71 4.15,-1.06zm-40.84 10.02c-1.34,0.31 -2.67,0.62 -4.01,0.92 1.34,-0.3 2.67,-0.61 4.01,-0.92zm-41.21 9.02c-1.3,0.27 -2.59,0.53 -3.89,0.8 1.3,-0.27 2.59,-0.53 3.89,-0.8zm-41.59 8.02c-1.25,0.23 -2.5,0.45 -3.75,0.67 1.25,-0.22 2.5,-0.44 3.75,-0.67zm-41.93 7c-1.21,0.18 -2.42,0.37 -3.62,0.55 1.2,-0.18 2.41,-0.37 3.62,-0.55zm-42.27 5.96c-1.17,0.15 -2.33,0.3 -3.5,0.44 1.17,-0.14 2.33,-0.29 3.5,-0.44zm-42.59 4.91c-1.13,0.12 -2.26,0.23 -3.39,0.35 1.13,-0.12 2.26,-0.23 3.39,-0.35zm-42.89 3.86c-1.1,0.08 -2.2,0.16 -3.3,0.25 1.1,-0.09 2.2,-0.17 3.3,-0.25zm-43.19 2.77c-1.07,0.06 -2.15,0.11 -3.22,0.17 1.07,-0.06 2.15,-0.11 3.22,-0.17zm-43.45 1.7c-1.06,0.02 -2.12,0.05 -3.18,0.08 1.06,-0.03 2.12,-0.06 3.18,-0.08zm-43.72 0.59c-0.53,0 -1.05,0.02 -1.58,0.02 -0.53,0 -1.05,-0.02 -1.58,-0.02 0.53,0 1.05,0.01 1.58,0.01 0.53,0 1.05,-0.01 1.58,-0.01zm-43.7 -0.51c-1.06,-0.03 -2.12,-0.06 -3.18,-0.08 1.06,0.02 2.12,0.05 3.18,0.08zm-43.41 -1.61c-1.07,-0.06 -2.15,-0.11 -3.22,-0.17 1.07,0.06 2.15,0.11 3.22,0.17zm-43.11 -2.69c-1.1,-0.09 -2.2,-0.17 -3.3,-0.25 1.1,0.08 2.2,0.16 3.3,0.25zm-42.8 -3.76c-1.13,-0.12 -2.26,-0.23 -3.39,-0.35 1.13,0.12 2.26,0.23 3.39,0.35zm-42.48 -4.82c-1.17,-0.14 -2.33,-0.29 -3.5,-0.44 1.17,0.15 2.33,0.3 3.5,0.44zm-42.15 -5.85c-1.2,-0.18 -2.41,-0.37 -3.62,-0.55 1.21,0.18 2.42,0.37 3.62,0.55zm-41.8 -6.88c-1.25,-0.22 -2.5,-0.44 -3.75,-0.67 1.25,0.23 2.5,0.45 3.75,0.67zm-41.45 -7.89c-1.3,-0.27 -2.59,-0.53 -3.89,-0.8 1.3,0.27 2.59,0.53 3.89,0.8zm-41.09 -8.9c-1.34,-0.3 -2.67,-0.61 -4.01,-0.92 1.34,0.31 2.67,0.62 4.01,0.92zm-40.7 -9.88c-1.39,-0.35 -2.77,-0.71 -4.15,-1.06 1.38,0.35 2.76,0.71 4.15,1.06zm-40.32 -10.85c-1.42,-0.4 -2.85,-0.81 -4.27,-1.21 1.42,0.4 2.85,0.81 4.27,1.21zm-39.92 -11.82c-1.46,-0.45 -2.92,-0.91 -4.37,-1.36 1.45,0.45 2.91,0.91 4.37,1.36zm-39.51 -12.77c-1.49,-0.5 -2.98,-1 -4.46,-1.51 1.48,0.51 2.97,1.01 4.46,1.51zm-39.08 -13.7c-1.52,-0.55 -3.03,-1.11 -4.54,-1.67 1.51,0.56 3.02,1.12 4.54,1.67zm-38.65 -14.63c-1.53,-0.6 -3.07,-1.21 -4.6,-1.82 1.53,0.61 3.07,1.22 4.6,1.82zm-38.2 -15.54c-1.54,-0.65 -3.09,-1.31 -4.64,-1.97 1.55,0.66 3.1,1.32 4.64,1.97zm-37.73 -16.45c-1.56,-0.69 -3.11,-1.4 -4.66,-2.1 1.55,0.7 3.1,1.41 4.66,2.1zm-37.27 -17.32c-1.55,-0.75 -3.1,-1.5 -4.64,-2.24 1.54,0.74 3.09,1.49 4.64,2.24zm-36.77 -18.21c-1.54,-0.79 -3.08,-1.57 -4.62,-2.36 1.54,0.79 3.08,1.57 4.62,2.36zm-36.28 -19.07c-1.52,-0.82 -3.04,-1.65 -4.56,-2.48 1.52,0.83 3.04,1.66 4.56,2.48zm-35.76 -19.92c-1.5,-0.86 -2.99,-1.72 -4.49,-2.58 1.5,0.86 2.99,1.72 4.49,2.58zm-35.24 -20.76c-1.46,-0.88 -2.92,-1.77 -4.38,-2.66 1.46,0.89 2.92,1.78 4.38,2.66zm-34.69 -21.58c-1.42,-0.91 -2.84,-1.82 -4.26,-2.73 1.42,0.91 2.84,1.82 4.26,2.73zm-34.14 -22.4c-1.37,-0.93 -2.75,-1.85 -4.12,-2.78 1.37,0.93 2.75,1.85 4.12,2.78zm-33.57 -23.2c-1.32,-0.94 -2.64,-1.87 -3.96,-2.81 1.32,0.94 2.64,1.87 3.96,2.81zm-32.99 -23.99c-1.26,-0.94 -2.52,-1.88 -3.78,-2.82 1.26,0.94 2.52,1.88 3.78,2.82zm-32.39 -24.76c-1.19,-0.94 -2.39,-1.88 -3.58,-2.82 1.19,0.94 2.39,1.88 3.58,2.82zm-31.77 -25.52c-1.13,-0.93 -2.26,-1.86 -3.39,-2.79 1.13,0.93 2.26,1.86 3.39,2.79zm-31.15 -26.27c-1.06,-0.92 -2.12,-1.83 -3.18,-2.75 1.06,0.92 2.12,1.83 3.18,2.75zm-30.51 -27.01c-0.99,-0.89 -1.97,-1.78 -2.95,-2.68 0.98,0.9 1.96,1.79 2.95,2.68zm-29.85 -27.72c-0.91,-0.87 -1.83,-1.73 -2.74,-2.61 0.91,0.87 1.83,1.74 2.74,2.61zm-29.18 -28.43c-0.84,-0.84 -1.68,-1.68 -2.52,-2.52 0.42,0.42 0.83,0.85 1.25,1.27 0.42,0.42 0.85,0.83 1.27,1.25zm-28.34 -28.96c-0.88,-0.91 -1.74,-1.83 -2.61,-2.74 0.87,0.91 1.73,1.83 2.61,2.74zm-27.65 -29.64c-0.9,-0.98 -1.79,-1.96 -2.68,-2.95 0.89,0.99 1.78,1.97 2.68,2.95zm-26.94 -30.28c-0.92,-1.06 -1.83,-2.12 -2.75,-3.18 0.92,1.06 1.83,2.12 2.75,3.18zm-26.23 -30.94c-0.93,-1.13 -1.86,-2.26 -2.79,-3.39 0.93,1.13 1.86,2.26 2.79,3.39zm-25.49 -31.58c-0.94,-1.19 -1.88,-2.39 -2.82,-3.58 0.94,1.19 1.88,2.39 2.82,3.58zm-24.76 -32.19c-0.94,-1.26 -1.88,-2.52 -2.82,-3.78 0.94,1.26 1.88,2.52 2.82,3.78zm-24 -32.81c-0.94,-1.32 -1.87,-2.64 -2.81,-3.96 0.94,1.32 1.87,2.64 2.81,3.96zm-23.23 -33.41c-0.93,-1.37 -1.85,-2.75 -2.78,-4.12 0.93,1.37 1.85,2.75 2.78,4.12zm-22.45 -34c-0.91,-1.42 -1.82,-2.84 -2.73,-4.26 0.91,1.42 1.82,2.84 2.73,4.26zm-21.65 -34.57c-0.89,-1.46 -1.78,-2.92 -2.66,-4.38 0.88,1.46 1.77,2.92 2.66,4.38zm-20.84 -35.13c-0.86,-1.5 -1.72,-2.99 -2.58,-4.49 0.86,1.5 1.72,2.99 2.58,4.49zm-20.02 -35.69c-0.83,-1.52 -1.66,-3.04 -2.48,-4.56 0.82,1.52 1.65,3.04 2.48,4.56zm-19.19 -36.22c-0.79,-1.54 -1.57,-3.08 -2.36,-4.62 0.79,1.54 1.57,3.08 2.36,4.62zm-18.33 -36.75c-0.74,-1.54 -1.49,-3.09 -2.24,-4.64 0.75,1.55 1.5,3.1 2.24,4.64zm-17.46 -37.25c-0.7,-1.55 -1.41,-3.1 -2.1,-4.66 0.69,1.56 1.4,3.11 2.1,4.66zm-16.58 -37.75c-0.66,-1.55 -1.32,-3.1 -1.97,-4.64 0.65,1.54 1.31,3.09 1.97,4.64zm-15.69 -38.24c-0.61,-1.53 -1.22,-3.07 -1.82,-4.6 0.6,1.53 1.21,3.07 1.82,4.6zm-14.78 -38.71c-0.56,-1.51 -1.12,-3.02 -1.67,-4.54 0.55,1.52 1.11,3.03 1.67,4.54zm-13.86 -39.16c-0.51,-1.48 -1.01,-2.97 -1.51,-4.46 0.5,1.49 1,2.98 1.51,4.46zm-12.92 -39.6c-0.45,-1.45 -0.91,-2.91 -1.36,-4.37 0.45,1.46 0.91,2.92 1.36,4.37zm-11.97 -40.02c-0.4,-1.42 -0.81,-2.85 -1.21,-4.27 0.4,1.42 0.81,2.85 1.21,4.27zm-11 -40.44c-0.35,-1.38 -0.71,-2.76 -1.06,-4.15 0.35,1.39 0.71,2.77 1.06,4.15zm-10.02 -40.84c-0.31,-1.34 -0.62,-2.67 -0.92,-4.01 0.3,1.34 0.61,2.67 0.92,4.01zm-9.02 -41.21c-0.27,-1.3 -0.53,-2.59 -0.8,-3.89 0.27,1.3 0.53,2.59 0.8,3.89zm-8.02 -41.59c-0.23,-1.25 -0.45,-2.5 -0.67,-3.75 0.22,1.25 0.44,2.5 0.67,3.75zm-7 -41.93c-0.18,-1.21 -0.37,-2.42 -0.55,-3.62 0.18,1.2 0.37,2.41 0.55,3.62zm-5.96 -42.27c-0.15,-1.17 -0.3,-2.33 -0.44,-3.5 0.14,1.17 0.29,2.33 0.44,3.5zm-4.91 -42.59c-0.12,-1.13 -0.23,-2.26 -0.35,-3.39 0.12,1.13 0.23,2.26 0.35,3.39zm-3.86 -42.89c-0.08,-1.1 -0.16,-2.2 -0.25,-3.3 0.09,1.1 0.17,2.2 0.25,3.3zm-2.77 -43.19c-0.06,-1.07 -0.11,-2.15 -0.17,-3.22 0.06,1.07 0.11,2.15 0.17,3.22zm-1.7 -43.45c-0.02,-1.06 -0.05,-2.12 -0.08,-3.18 0.03,1.06 0.06,2.12 0.08,3.18zm-0.59 -43.72c0,-0.53 -0.02,-1.05 -0.02,-1.58 0,-0.53 0.02,-1.05 0.02,-1.58 0,0.53 -0.01,1.05 -0.01,1.58 0,0.53 0.01,1.05 0.01,1.58zm0.51 -43.7c0.03,-1.06 0.06,-2.12 0.08,-3.18 -0.02,1.06 -0.05,2.12 -0.08,3.18zm1.61 -43.41c0.06,-1.07 0.11,-2.15 0.17,-3.22 -0.06,1.07 -0.11,2.15 -0.17,3.22zm2.69 -43.11c0.09,-1.1 0.17,-2.2 0.25,-3.3 -0.08,1.1 -0.16,2.2 -0.25,3.3zm3.76 -42.8c0.12,-1.13 0.23,-2.26 0.35,-3.39 -0.12,1.13 -0.23,2.26 -0.35,3.39zm4.82 -42.48c0.14,-1.17 0.29,-2.33 0.44,-3.5 -0.15,1.17 -0.3,2.33 -0.44,3.5zm5.85 -42.15c0.18,-1.2 0.37,-2.41 0.55,-3.62 -0.18,1.21 -0.37,2.42 -0.55,3.62zm6.88 -41.8c0.22,-1.25 0.44,-2.5 0.67,-3.75 -0.23,1.25 -0.45,2.5 -0.67,3.75zm7.89 -41.45c0.27,-1.3 0.53,-2.59 0.8,-3.89 -0.27,1.3 -0.53,2.59 -0.8,3.89zm8.9 -41.09c0.3,-1.34 0.61,-2.67 0.92,-4.01 -0.31,1.34 -0.62,2.67 -0.92,4.01zm9.88 -40.7c0.35,-1.39 0.71,-2.77 1.06,-4.15 -0.35,1.38 -0.71,2.76 -1.06,4.15zm10.85 -40.32c0.4,-1.42 0.81,-2.85 1.21,-4.27 -0.4,1.42 -0.81,2.85 -1.21,4.27zm11.82 -39.92c0.45,-1.46 0.91,-2.92 1.36,-4.37 -0.45,1.45 -0.91,2.91 -1.36,4.37zm12.77 -39.51c0.5,-1.49 1,-2.98 1.51,-4.46 -0.51,1.48 -1.01,2.97 -1.51,4.46zm13.7 -39.08c0.55,-1.52 1.11,-3.03 1.67,-4.54 -0.56,1.51 -1.12,3.02 -1.67,4.54zm14.63 -38.65c0.6,-1.53 1.21,-3.07 1.82,-4.6 -0.61,1.53 -1.22,3.07 -1.82,4.6zm15.54 -38.2c0.65,-1.54 1.31,-3.09 1.97,-4.64 -0.66,1.55 -1.32,3.1 -1.97,4.64zm16.45 -37.73c0.69,-1.56 1.4,-3.11 2.1,-4.66 -0.7,1.55 -1.41,3.1 -2.1,4.66zm17.32 -37.27c0.75,-1.55 1.5,-3.1 2.24,-4.64 -0.74,1.54 -1.49,3.09 -2.24,4.64zm18.21 -36.77c0.79,-1.54 1.57,-3.08 2.36,-4.62 -0.79,1.54 -1.57,3.08 -2.36,4.62zm19.07 -36.28c0.82,-1.52 1.65,-3.04 2.48,-4.56 -0.83,1.52 -1.66,3.04 -2.48,4.56zm19.92 -35.76c0.86,-1.5 1.72,-2.99 2.58,-4.49 -0.86,1.5 -1.72,2.99 -2.58,4.49zm20.76 -35.24c0.88,-1.46 1.77,-2.92 2.66,-4.38 -0.89,1.46 -1.78,2.92 -2.66,4.38zm21.58 -34.69c0.91,-1.42 1.82,-2.84 2.73,-4.26 -0.91,1.42 -1.82,2.84 -2.73,4.26zm22.4 -34.14c0.93,-1.37 1.85,-2.75 2.78,-4.12 -0.93,1.37 -1.85,2.75 -2.78,4.12zm23.2 -33.57c0.94,-1.32 1.87,-2.64 2.81,-3.96 -0.94,1.32 -1.87,2.64 -2.81,3.96zm23.99 -32.99c0.94,-1.26 1.88,-2.52 2.82,-3.78 -0.94,1.26 -1.88,2.52 -2.82,3.78zm24.76 -32.39c0.94,-1.19 1.88,-2.39 2.82,-3.58 -0.94,1.19 -1.88,2.39 -2.82,3.58zm25.52 -31.77c0.93,-1.13 1.86,-2.26 2.79,-3.39 -0.93,1.13 -1.86,2.26 -2.79,3.39zm26.27 -31.15c0.92,-1.06 1.83,-2.12 2.75,-3.18 -0.92,1.06 -1.83,2.12 -2.75,3.18zm27.01 -30.51c0.89,-0.99 1.78,-1.97 2.68,-2.95 -0.9,0.98 -1.79,1.96 -2.68,2.95zm27.72 -29.85c0.87,-0.91 1.73,-1.83 2.61,-2.74 -0.87,0.91 -1.74,1.83 -2.61,2.74zm28.43 -29.18c0.84,-0.84 1.68,-1.68 2.52,-2.52 -0.42,0.42 -0.85,0.83 -1.27,1.25 -0.42,0.42 -0.83,0.85 -1.25,1.27zm28.96 -28.34c0.91,-0.88 1.83,-1.74 2.74,-2.61 -0.91,0.87 -1.83,1.73 -2.74,2.61zm29.64 -27.65c0.98,-0.9 1.96,-1.79 2.95,-2.68 -0.99,0.89 -1.97,1.78 -2.95,2.68zm30.28 -26.94c1.06,-0.92 2.12,-1.83 3.18,-2.75 -1.06,0.92 -2.12,1.83 -3.18,2.75zm30.94 -26.23c1.13,-0.93 2.26,-1.86 3.39,-2.79 -1.13,0.93 -2.26,1.86 -3.39,2.79zm31.58 -25.49c1.19,-0.94 2.39,-1.88 3.58,-2.82 -1.19,0.94 -2.39,1.88 -3.58,2.82zm32.19 -24.76c1.26,-0.94 2.52,-1.88 3.78,-2.82 -1.26,0.94 -2.52,1.88 -3.78,2.82zm32.81 -24c1.32,-0.94 2.64,-1.87 3.96,-2.81 -1.32,0.94 -2.64,1.87 -3.96,2.81zm33.41 -23.23c1.37,-0.93 2.75,-1.85 4.12,-2.78 -1.37,0.93 -2.75,1.85 -4.12,2.78zm34 -22.45c1.42,-0.91 2.84,-1.82 4.26,-2.73 -1.42,0.91 -2.84,1.82 -4.26,2.73zm34.57 -21.65c1.46,-0.89 2.92,-1.78 4.38,-2.66 -1.46,0.88 -2.92,1.77 -4.38,2.66zm35.13 -20.84c1.5,-0.86 2.99,-1.72 4.49,-2.58 -1.5,0.86 -2.99,1.72 -4.49,2.58zm35.69 -20.02c1.52,-0.83 3.04,-1.66 4.56,-2.48 -1.52,0.82 -3.04,1.65 -4.56,2.48zm36.22 -19.19c1.54,-0.79 3.08,-1.57 4.62,-2.36 -1.54,0.79 -3.08,1.57 -4.62,2.36zm36.75 -18.33c1.54,-0.74 3.09,-1.49 4.64,-2.24 -1.55,0.75 -3.1,1.5 -4.64,2.24zm37.25 -17.46c1.55,-0.7 3.1,-1.41 4.66,-2.1 -1.56,0.69 -3.11,1.4 -4.66,2.1zm37.75 -16.58c1.55,-0.66 3.1,-1.32 4.64,-1.97 -1.54,0.65 -3.09,1.31 -4.64,1.97zm38.24 -15.69c1.53,-0.61 3.07,-1.22 4.6,-1.82 -1.53,0.6 -3.07,1.21 -4.6,1.82zm38.71 -14.78c1.51,-0.56 3.02,-1.12 4.54,-1.67 -1.52,0.55 -3.03,1.11 -4.54,1.67zm39.16 -13.86c1.48,-0.51 2.97,-1.01 4.46,-1.51 -1.49,0.5 -2.98,1 -4.46,1.51zm39.6 -12.92c1.45,-0.45 2.91,-0.91 4.37,-1.36 -1.46,0.45 -2.92,0.91 -4.37,1.36zm40.02 -11.97c1.42,-0.4 2.85,-0.81 4.27,-1.21 -1.42,0.4 -2.85,0.81 -4.27,1.21zm40.44 -11c1.38,-0.35 2.76,-0.71 4.15,-1.06 -1.39,0.35 -2.77,0.71 -4.15,1.06zm40.84 -10.02c1.34,-0.31 2.67,-0.62 4.01,-0.92 -1.34,0.3 -2.67,0.61 -4.01,0.92zm41.21 -9.02c1.3,-0.27 2.59,-0.53 3.89,-0.8 -1.3,0.27 -2.59,0.53 -3.89,0.8zm41.59 -8.02c1.25,-0.23 2.5,-0.45 3.75,-0.67 -1.25,0.22 -2.5,0.44 -3.75,0.67zm41.93 -7c1.21,-0.18 2.42,-0.37 3.62,-0.55 -1.2,0.18 -2.41,0.37 -3.62,0.55zm42.27 -5.96c1.17,-0.15 2.33,-0.3 3.5,-0.44 -1.17,0.14 -2.33,0.29 -3.5,0.44zm42.59 -4.91c1.13,-0.12 2.26,-0.23 3.39,-0.35 -1.13,0.12 -2.26,0.23 -3.39,0.35zm42.89 -3.86c1.1,-0.08 2.2,-0.16 3.3,-0.25 -1.1,0.09 -2.2,0.17 -3.3,0.25zm43.19 -2.77c1.07,-0.06 2.15,-0.11 3.22,-0.17 -1.07,0.06 -2.15,0.11 -3.22,0.17zm43.45 -1.7c1.06,-0.02 2.12,-0.05 3.18,-0.08 -1.06,0.03 -2.12,0.06 -3.18,0.08z"/>
   </g>
   <g>
    <g>
     <g>
      <path class="fil3" d="M914.75 2236.81c11.9,4.38 732.98,1.37 886.03,1.43 5.02,0 10.13,0.15 15.11,0.13 8.78,-0.04 8.27,1.59 12.16,-3.49 -16.11,3.92 -91.42,1.21 -115.17,1.21 -84.54,0 -769.67,-2.65 -798.13,0.72 1.83,-40.89 0.86,-90.11 -0.15,-131.51l-0.43 -98.62c0.05,-5.75 0.07,-11.5 0.14,-17.25 0.2,-15.23 2.63,-9.39 -2.09,-12.34 -4.04,17.88 -0.85,106.47 -0.05,130.35 0.71,21.18 0.08,43.05 0.14,64.32l0.18 49.31c0.02,2.32 -0.2,6.54 0.07,8.75 1.55,13.12 0.06,3 2.19,6.99z"/>
      <path id="1" class="fil2" d="M914.82 2236.81c10.27,3.33 434.34,2.35 701.27,1.75 81.78,-0.18 148.84,-0.33 184.69,-0.33l1.37 0.01c-0.46,0 -0.92,0 -1.37,0 -78.91,-0.03 -308.81,0.75 -514.65,0.92l-0.17 0c-5.37,0.01 -10.72,0.01 -16.06,0.01 -1.2,0 -2.4,0.01 -3.59,0.01 -5.07,0 -10.13,0 -15.15,0 -3.53,0.01 -7.05,0.01 -10.56,0.01 -1.69,0 -3.38,0 -5.06,0 -3.84,0 -7.67,0 -11.48,0 -0.95,0 -1.9,0 -2.85,0 -17.7,0 -35.06,0 -51.96,-0.01l-1.3 0c-12.92,-0.01 -25.58,-0.03 -37.9,-0.04l-0.17 0c-3.21,-0.01 -6.38,-0.01 -9.55,-0.02 -1.71,0 -3.41,0 -5.11,-0.01 -2.74,0 -5.47,-0.01 -8.17,-0.01 -2.43,-0.01 -4.82,-0.01 -7.21,-0.02 -2.1,0 -4.2,-0.01 -6.26,-0.01 -4.43,-0.01 -8.81,-0.02 -13.11,-0.04 -1.16,0 -2.29,0 -3.44,-0.01 -3.65,-0.01 -7.25,-0.02 -10.81,-0.03 -0.97,0 -1.93,-0.01 -2.89,-0.01 -86.38,-0.3 -145.25,-0.94 -148.58,-2.17 -1.41,-2.64 -1.23,0.9 -1.4,-0.21l-0.15 -1.25c-0.12,-1.05 -0.32,-2.78 -0.64,-5.53 -0.27,-2.21 -0.05,-6.43 -0.07,-8.75l-0.18 -49.31c-0.06,-21.27 0.57,-43.14 -0.14,-64.32 -0.8,-23.88 -3.99,-112.47 0.05,-130.35 2.24,1.4 2.87,0.82 2.89,1.46l-0.06 0.64c-0.18,1.18 -0.66,3.86 -0.74,10.24 -0.07,5.75 -0.09,11.5 -0.14,17.25l0.43 98.62c1.01,41.4 1.98,90.62 0.15,131.51 28.46,-3.37 713.59,-0.72 798.13,-0.72 23.75,0 99.06,2.71 115.17,-1.21 -3.89,5.08 -3.38,3.45 -12.16,3.49 -0.37,0 -0.73,0 -1.1,0l-4.53 -0.03c-1.32,-0.02 -2.63,-0.04 -3.94,-0.06l1.56 0.02 8.01 0.06c2.08,0 3.67,0.09 4.88,0.14 3.88,0.21 4.32,0.23 7.25,-3.6 -12.25,2.95 -58.42,2.11 -90.39,1.54 -10.21,-0.17 -19,-0.34 -24.75,-0.34 -17.05,0 -58.52,-0.12 -114.08,-0.25 -219.87,-0.56 -660.65,-1.71 -683.98,0.96zm-0.08 -0.03c0.9,-20.43 1.12,-42.96 0.99,-65.53 -0.13,-22.58 -0.65,-45.26 -1.14,-65.95l-0.43 -98.62 0.14 -17.25c0.07,-5.95 0.51,-8.7 0.7,-9.99l0.1 -0.98c-0.03,-0.19 -0.19,-0.25 -0.51,-0.32 -0.42,-0.09 -1.18,-0.29 -2.36,-1.03 -3.87,17.2 -1.08,99.53 -0.16,127.18l0.11 3.15c0.46,13.98 0.34,28.3 0.24,42.52 -0.05,7.29 -0.11,14.59 -0.1,21.8l0.18 49.31 -0.03 2.6c-0.03,2.14 -0.08,4.64 0.1,6.15l0.57 4.91 0.25 2.06 0.06 -0.17c0.1,-0.5 0.33,-1.64 1.29,0.16z"/>
     </g>
     <g>
      <path class="fil3" d="M1290.96 1967.46c4.08,2.94 4.94,1.59 14.53,1.48 5.04,-0.05 10.03,0.09 15.05,0.15l334.45 1.19c39.21,-0.33 84.69,-1.41 122.07,0.72l0.28 -193.51c-5.44,11.64 -2.31,164.25 -2.31,191.39 -79.85,-1.17 -162.29,-1.82 -242.24,-1.23 -40.46,0.3 -81.8,-1.71 -122.2,-0.6 -26.83,0.74 -99.39,-4.63 -119.63,0.41z"/>
      <path id="1" class="fil2" d="M1290.99 1967.46c2.89,2.08 4.17,1.99 8.11,1.74 1.59,-0.09 3.64,-0.25 6.39,-0.27 3.53,-0.03 7.07,0.03 10.59,0.08l4.46 0.07 334.45 1.19 21.53 -0.23c33.66,-0.37 69.84,-0.79 100.53,0.95l0.28 -193.45c-4.36,9.65 -3.17,110.61 -2.56,163.5 0.14,12.67 0.27,22.6 0.27,27.84 0,0 -0.01,0.01 -0.01,0.01 -39.91,-0.57 -80.51,-1.05 -121.08,-1.27 -40.58,-0.23 -81.2,-0.24 -121.16,0.04 -17.19,0.12 -34.57,-0.17 -51.93,-0.45 -23.5,-0.39 -47.05,-0.78 -70.27,-0.15 -9.3,0.25 -24.13,-0.23 -40.34,-0.75 -30.51,-0.97 -66.03,-2.12 -79.26,1.15zm-0.03 0c4.08,2.94 4.94,1.59 14.53,1.48 5.04,-0.05 10.03,0.09 15.05,0.15l334.45 1.19c2.91,-0.02 5.85,-0.05 8.83,-0.08l2.82 -0.03c36.36,-0.4 76.69,-1.09 110.42,0.83l0.28 -193.51c-5.44,11.64 -2.31,164.25 -2.31,191.39 -79.85,-1.17 -162.29,-1.82 -242.24,-1.23 -40.46,0.3 -81.8,-1.71 -122.2,-0.6 -26.83,0.74 -99.39,-4.63 -119.63,0.41z"/>
     </g>
    </g>
    <g>
     <g>
      <path class="fil3" d="M1290.96 1967.46c20.24,-5.04 92.8,0.33 119.63,-0.41 40.4,-1.11 81.74,0.9 122.2,0.6 79.95,-0.59 162.39,0.06 242.24,1.23 0,-27.14 -3.13,-179.75 2.31,-191.39 -1.35,-20.6 0.07,-45.97 9.79,-62.98l24.18 -31.71c22.73,-20.47 26.36,-19.11 50.37,-21.93 5.88,-0.69 10.34,-1.1 16.3,-1.4 79.66,-4.05 67.68,5.74 68.06,-34.29l1.46 -94.45c0.09,-46.49 6.74,-69.54 -10.69,-98.79 -96.56,-162.11 -370.8,-195.88 -564.69,-199.87 -184.89,-3.8 -453.77,37.59 -559.93,191.18 -15.17,21.95 -13.92,15.01 -13.9,47.45 0.05,55.48 -2.21,137.54 0.35,187.09 28.25,-2.68 98.05,-1.16 119.7,12.75 19.1,12.28 44.66,38.25 46.17,59.49 4.49,62.97 0.52,165.55 3.81,236.54 6.66,1.96 307.16,3.41 322.64,0.89z"/>
      <path id="1" class="fil2" d="M1290.96 1967.45c13.21,-3.28 48.76,-2.13 79.29,-1.16 16.21,0.52 31.04,1 40.34,0.75 23.22,-0.63 46.77,-0.24 70.27,0.15 17.36,0.28 34.74,0.57 51.93,0.45 39.96,-0.28 80.58,-0.27 121.16,-0.04 40.57,0.22 81.16,0.7 121.07,1.27 0,-5.24 -0.13,-15.17 -0.27,-27.83 -0.61,-52.97 -1.8,-154.17 2.58,-163.55 -0.74,-11.37 -0.64,-24.23 1.23,-36.3 1.51,-9.77 4.22,-19.08 8.56,-26.68l0.01 -0.01 -0.01 0 24.18 -31.71c20.69,-18.63 25.57,-19.18 44.41,-21.26l5.97 -0.67c2.93,-0.34 5.54,-0.63 8.12,-0.85 2.59,-0.21 5.21,-0.41 8.18,-0.55 15.3,-0.77 27.24,-1.06 36.51,-1.25 15.45,-0.34 23.58,-0.54 27.75,-2.64 4.6,-2.32 4.42,-7 4.05,-16.83 -0.13,-3.71 -0.3,-8.2 -0.26,-13.56l1.46 -94.45c0.01,-10.94 0.42,-20.61 0.76,-29.34 1.12,-28.33 1.86,-47.09 -11.45,-69.44 -0.26,-0.44 -0.53,-0.87 -0.79,-1.3 0.26,0.43 0.54,0.85 0.8,1.29 17.43,29.25 10.78,52.3 10.69,98.79l-1.46 94.45c-0.38,40.03 11.6,30.24 -68.06,34.29 -5.96,0.3 -10.42,0.71 -16.3,1.4 -24.01,2.82 -27.64,1.46 -50.37,21.93l-24.18 31.71c-9.72,17.01 -11.14,42.38 -9.79,62.98 -5.44,11.64 -2.31,164.25 -2.31,191.39 -79.85,-1.17 -162.29,-1.82 -242.24,-1.23 -40.46,0.3 -81.8,-1.71 -122.2,-0.6 -26.83,0.74 -99.39,-4.63 -119.63,0.41 -15.48,2.52 -315.98,1.07 -322.64,-0.89 -3.29,-70.99 0.68,-173.57 -3.81,-236.54 -1.51,-21.24 -27.07,-47.21 -46.17,-59.49 -21.65,-13.91 -91.45,-15.43 -119.7,-12.75 -2.56,-49.55 -0.3,-131.61 -0.35,-187.09 -0.02,-32.44 -1.27,-25.5 13.9,-47.45 0.29,-0.41 0.59,-0.81 0.88,-1.23 -0.29,0.42 -0.58,0.83 -0.87,1.24 -2.08,3.02 -3.89,5.52 -5.39,7.62 -4.08,5.68 -6.25,8.69 -7.36,12.49 -1.23,4.21 -1.2,9.47 -1.17,20.49l0.02 6.84c0.01,17.3 -0.2,37.21 -0.41,57.89 -0.47,45.62 -0.99,95.11 0.76,129.19 16.35,-1.54 46.66,-1.69 73.45,1.16 19.47,2.07 37.15,5.75 46.25,11.59 10.56,6.78 23.12,17.79 32.46,29.83 7.55,9.72 13.04,20.18 13.71,29.67 2.41,33.87 2.37,79.25 2.35,124.97 -0.02,39.24 -0.05,78.78 1.46,111.56 3.66,1.04 90.95,1.96 173.88,2.18 72.42,0.19 141.55,-0.13 148.75,-1.29zm641.98 -541.75c-0.54,-0.84 -1.08,-1.68 -1.62,-2.51 0.54,0.83 1.08,1.67 1.62,2.51zm-4.88 -7.36c-0.56,-0.82 -1.12,-1.62 -1.69,-2.43 0.57,0.81 1.13,1.61 1.69,2.43zm-5.12 -7.18c-0.58,-0.79 -1.17,-1.57 -1.76,-2.35 0.59,0.78 1.18,1.56 1.76,2.35zm-5.36 -6.99c-0.61,-0.76 -1.22,-1.52 -1.84,-2.28 0.62,0.76 1.23,1.52 1.84,2.28zm-5.6 -6.81c-0.64,-0.74 -1.27,-1.48 -1.91,-2.22 0.64,0.74 1.27,1.48 1.91,2.22zm-5.83 -6.63c-0.66,-0.72 -1.32,-1.44 -1.99,-2.15 0.67,0.71 1.33,1.43 1.99,2.15zm-6.06 -6.45c-0.68,-0.7 -1.37,-1.4 -2.06,-2.1 0.69,0.7 1.38,1.4 2.06,2.1zm-6.28 -6.28c-0.7,-0.69 -1.41,-1.36 -2.12,-2.04 0.71,0.68 1.42,1.35 2.12,2.04zm-6.49 -6.12c-0.73,-0.66 -1.45,-1.32 -2.18,-1.97 0.73,0.65 1.45,1.31 2.18,1.97zm-6.71 -5.94c-0.74,-0.64 -1.49,-1.28 -2.23,-1.91 0.74,0.63 1.49,1.27 2.23,1.91zm-6.91 -5.79c-0.75,-0.61 -1.52,-1.23 -2.28,-1.84 0.76,0.61 1.52,1.23 2.28,1.84zm-7.11 -5.62c-0.77,-0.59 -1.54,-1.18 -2.32,-1.77 0.78,0.59 1.55,1.18 2.32,1.77zm-7.3 -5.46c-0.78,-0.57 -1.56,-1.13 -2.35,-1.7 0.79,0.57 1.57,1.13 2.35,1.7zm-7.49 -5.3c-0.79,-0.55 -1.58,-1.09 -2.37,-1.63 0.79,0.54 1.58,1.08 2.37,1.63zm-7.67 -5.15c-0.79,-0.52 -1.59,-1.04 -2.39,-1.55 0.8,0.51 1.6,1.03 2.39,1.55zm-7.84 -4.99c-0.8,-0.5 -1.6,-0.99 -2.4,-1.48 0.8,0.49 1.6,0.98 2.4,1.48zm-8.01 -4.84c-0.8,-0.47 -1.61,-0.94 -2.41,-1.41 0.8,0.47 1.61,0.94 2.41,1.41zm-8.18 -4.69c-0.8,-0.45 -1.61,-0.9 -2.41,-1.34 0.8,0.44 1.61,0.89 2.41,1.34zm-8.32 -4.54c-0.81,-0.43 -1.62,-0.85 -2.43,-1.28 0.81,0.43 1.62,0.85 2.43,1.28zm-8.47 -4.39c-0.81,-0.41 -1.63,-0.82 -2.45,-1.22 0.82,0.4 1.64,0.81 2.45,1.22zm-8.61 -4.24c-0.82,-0.4 -1.65,-0.79 -2.47,-1.18 0.82,0.39 1.65,0.78 2.47,1.18zm-8.73 -4.1c-0.84,-0.38 -1.68,-0.76 -2.53,-1.14 0.85,0.38 1.69,0.76 2.53,1.14zm-8.85 -3.95c-0.87,-0.38 -1.74,-0.75 -2.61,-1.12 0.87,0.37 1.74,0.75 2.61,1.12zm-8.96 -3.81c-0.91,-0.37 -1.81,-0.74 -2.72,-1.11 0.91,0.37 1.81,0.74 2.72,1.11zm-9.06 -3.66c-0.95,-0.38 -1.91,-0.76 -2.87,-1.13 0.96,0.37 1.92,0.75 2.87,1.13zm-9.14 -3.53c-1.03,-0.39 -2.06,-0.77 -3.09,-1.15 1.03,0.38 2.06,0.76 3.09,1.15zm-9.22 -3.39c-1.12,-0.4 -2.24,-0.8 -3.37,-1.2 1.13,0.4 2.25,0.8 3.37,1.2zm-9.27 -3.25c-1.25,-0.42 -2.5,-0.85 -3.75,-1.27 1.25,0.42 2.5,0.85 3.75,1.27zm-9.33 -3.11c-1.4,-0.46 -2.81,-0.91 -4.22,-1.36 1.41,0.45 2.82,0.9 4.22,1.36zm-9.36 -2.98c-1.6,-0.5 -3.21,-0.99 -4.81,-1.48 1.6,0.49 3.21,0.98 4.81,1.48zm-9.39 -2.85c-1.84,-0.55 -3.69,-1.09 -5.54,-1.62 1.85,0.53 3.7,1.07 5.54,1.62zm-9.39 -2.72c-1.01,-0.29 -2.02,-0.58 -3.04,-0.86 -1.09,-0.3 -2.17,-0.6 -3.26,-0.9 2.1,0.58 4.2,1.16 6.3,1.76zm-9.63 -2.66c-2.22,-0.6 -4.44,-1.19 -6.67,-1.77 2.23,0.58 4.45,1.17 6.67,1.77zm-9.8 -2.58c-2.3,-0.59 -4.61,-1.17 -6.92,-1.74 2.31,0.57 4.62,1.15 6.92,1.74zm-9.88 -2.47c-2.37,-0.58 -4.75,-1.15 -7.14,-1.71 2.39,0.56 4.77,1.13 7.14,1.71zm-9.94 -2.36c-2.44,-0.57 -4.88,-1.13 -7.33,-1.67 2.45,0.54 4.89,1.1 7.33,1.67zm-10 -2.27c-2.5,-0.55 -5,-1.09 -7.5,-1.62 2.5,0.53 5,1.07 7.5,1.62zm-10.07 -2.16c-2.53,-0.53 -5.08,-1.05 -7.62,-1.56 2.54,0.51 5.09,1.03 7.62,1.56zm-10.12 -2.06c-2.56,-0.51 -5.13,-1.01 -7.71,-1.5 2.58,0.49 5.15,0.99 7.71,1.5zm-10.16 -1.97c-2.59,-0.49 -5.17,-0.96 -7.76,-1.43 2.59,0.47 5.17,0.94 7.76,1.43zm-10.22 -1.87c-2.58,-0.46 -5.17,-0.91 -7.76,-1.36 2.59,0.45 5.18,0.9 7.76,1.36zm-10.25 -1.78c-2.57,-0.43 -5.15,-0.86 -7.73,-1.28 2.58,0.42 5.16,0.85 7.73,1.28zm-10.29 -1.69c-2.55,-0.4 -5.09,-0.8 -7.64,-1.19 2.55,0.39 5.09,0.79 7.64,1.19zm-10.31 -1.59c-2.51,-0.38 -5.02,-0.75 -7.53,-1.11 2.51,0.36 5.02,0.73 7.53,1.11zm-10.33 -1.51c-2.46,-0.35 -4.92,-0.69 -7.38,-1.03 2.46,0.34 4.92,0.68 7.38,1.03zm-10.34 -1.43c-2.4,-0.32 -4.81,-0.63 -7.21,-0.94 2.4,0.31 4.81,0.62 7.21,0.94zm-10.34 -1.33c-2.34,-0.3 -4.68,-0.58 -7.01,-0.86 2.33,0.28 4.67,0.56 7.01,0.86zm-10.33 -1.26c-2.27,-0.26 -4.54,-0.53 -6.8,-0.78 2.26,0.25 4.53,0.51 6.8,0.78zm-10.32 -1.17c-2.19,-0.24 -4.39,-0.48 -6.59,-0.71 2.2,0.23 4.4,0.47 6.59,0.71zm-10.27 -1.09c-2.14,-0.22 -4.27,-0.43 -6.39,-0.64 2.12,0.21 4.25,0.42 6.39,0.64zm-10.24 -1.02c-2.07,-0.19 -4.14,-0.39 -6.21,-0.58 2.07,0.19 4.14,0.39 6.21,0.58zm-10.17 -0.93c-2.03,-0.18 -4.06,-0.36 -6.09,-0.53 2.03,0.17 4.06,0.35 6.09,0.53zm-10.09 -0.86c-2.01,-0.17 -4.02,-0.33 -6.02,-0.49 2,0.16 4.01,0.32 6.02,0.49zm-10.01 -0.79c-2.02,-0.16 -4.03,-0.3 -6.04,-0.45 2.01,0.15 4.02,0.29 6.04,0.45zm-9.9 -0.72c-2.05,-0.14 -4.11,-0.28 -6.16,-0.42 2.05,0.14 4.11,0.27 6.16,0.42zm-9.77 -0.65c-2.14,-0.14 -4.28,-0.27 -6.42,-0.4 2.14,0.13 4.28,0.26 6.42,0.4zm-9.63 -0.59c-2.28,-0.13 -4.57,-0.26 -6.84,-0.38 2.28,0.12 4.56,0.25 6.84,0.38zm-9.46 -0.52c-2.5,-0.13 -4.99,-0.26 -7.47,-0.38 2.48,0.12 4.97,0.25 7.47,0.38zm-9.28 -0.46c-2.79,-0.14 -5.57,-0.26 -8.34,-0.38 2.77,0.12 5.54,0.24 8.34,0.38zm-9.09 -0.41c-14.21,-0.6 -28.12,-1.02 -41.64,-1.3 -84.83,-1.74 -187.37,6.04 -283.75,29.8 17.61,-4.35 35.42,-8.16 53.29,-11.48l0.07 -0.01c13.29,-2.47 26.61,-4.65 39.91,-6.59 0.04,0 0.08,-0.01 0.12,-0.02 3.31,-0.48 6.61,-0.94 9.92,-1.39 0.02,0 0.03,0 0.05,-0.01 63.23,-8.59 125.51,-11.44 180.39,-10.31 13.52,0.28 27.43,0.71 41.64,1.31zm-325.7 28.57c-3.41,0.84 -6.81,1.71 -10.2,2.59 3.39,-0.88 6.79,-1.75 10.2,-2.59zm-11.52 2.93c-3.09,0.81 -6.17,1.64 -9.24,2.48 3.07,-0.84 6.15,-1.67 9.24,-2.48zm-10.79 2.9c-5.18,1.43 -10.33,2.91 -15.46,4.44 5.13,-1.53 10.28,-3.01 15.46,-4.44zm-18.22 5.27c-2.42,0.74 -4.84,1.48 -7.26,2.24 2.42,-0.76 4.84,-1.5 7.26,-2.24zm-10.45 3.25c-2.17,0.69 -4.34,1.39 -6.5,2.1 2.16,-0.71 4.33,-1.41 6.5,-2.1zm-10.18 3.32c-1.36,0.45 -2.72,0.91 -4.07,1.37 -0.02,0.01 -0.05,0.02 -0.07,0.02 1.37,-0.47 2.76,-0.93 4.14,-1.39zm-9.96 3.41c-1.3,0.46 -2.59,0.92 -3.89,1.38 1.3,-0.46 2.59,-0.92 3.89,-1.38zm-10.04 3.62c-0.97,0.36 -1.94,0.72 -2.91,1.08 0.97,-0.36 1.93,-0.72 2.91,-1.08zm-9.18 3.47c-0.85,0.33 -1.7,0.66 -2.55,0.99 0.85,-0.33 1.7,-0.66 2.55,-0.99zm-9.02 3.57c-0.81,0.33 -1.63,0.66 -2.44,0.99 0.81,-0.33 1.63,-0.66 2.44,-0.99zm-9.42 3.9c-0.79,0.33 -1.57,0.67 -2.35,1.01 0.78,-0.34 1.56,-0.68 2.35,-1.01zm-8.9 3.87c-0.74,0.32 -1.47,0.65 -2.2,0.98 0.73,-0.33 1.46,-0.66 2.2,-0.98zm-8.58 3.9c-0.7,0.32 -1.39,0.64 -2.09,0.97 0.7,-0.33 1.39,-0.65 2.09,-0.97zm-8.77 4.16c-0.79,0.39 -1.59,0.78 -2.38,1.17 0.79,-0.39 1.59,-0.78 2.38,-1.17zm-8.81 4.39c-0.71,0.37 -1.42,0.73 -2.12,1.1 0.7,-0.37 1.41,-0.73 2.12,-1.1zm-8.12 4.25c-0.72,0.38 -1.45,0.77 -2.17,1.16 0.72,-0.39 1.45,-0.78 2.17,-1.16zm-8.17 4.46c-0.84,0.47 -1.67,0.94 -2.51,1.41 0.84,-0.47 1.67,-0.94 2.51,-1.41zm-8.58 4.92c-0.74,0.43 -1.47,0.87 -2.2,1.3 0.73,-0.43 1.46,-0.87 2.2,-1.3zm-7.71 4.64c-0.76,0.46 -1.51,0.93 -2.27,1.4 0.76,-0.47 1.51,-0.94 2.27,-1.4zm-7.62 4.8c-0.84,0.54 -1.67,1.08 -2.51,1.63 0.84,-0.55 1.67,-1.09 2.51,-1.63zm-7.76 5.13c-0.9,0.61 -1.8,1.23 -2.69,1.84 0.89,-0.61 1.79,-1.23 2.69,-1.84zm-7.75 5.39c-0.76,0.54 -1.52,1.09 -2.28,1.64 0.76,-0.55 1.52,-1.1 2.28,-1.64zm-7.08 5.17c-0.74,0.56 -1.49,1.12 -2.23,1.68 0.74,-0.56 1.49,-1.12 2.23,-1.68zm-7.09 5.45c-0.93,0.74 -1.86,1.48 -2.78,2.22 0.92,-0.74 1.85,-1.48 2.78,-2.22zm-7.48 6.05c-0.72,0.6 -1.44,1.21 -2.16,1.82 0.72,-0.61 1.44,-1.22 2.16,-1.82zm-6.52 5.58c-0.72,0.63 -1.43,1.26 -2.14,1.89 0.71,-0.63 1.42,-1.26 2.14,-1.89zm-6.48 5.84c-0.85,0.79 -1.7,1.58 -2.55,2.38 0.85,-0.79 1.7,-1.59 2.55,-2.38zm-6.64 6.32c-0.76,0.75 -1.51,1.5 -2.27,2.25 0.76,-0.75 1.51,-1.5 2.27,-2.25zm-6.3 6.36c-0.64,0.67 -1.28,1.34 -1.92,2.01 0.64,-0.67 1.28,-1.34 1.92,-2.01zm-5.84 6.26c-0.69,0.75 -1.38,1.51 -2.06,2.28 0.68,-0.77 1.37,-1.53 2.06,-2.28zm-5.88 6.66c-0.69,0.82 -1.38,1.64 -2.07,2.46 0.69,-0.82 1.38,-1.64 2.07,-2.46zm-5.82 7.05c-0.55,0.68 -1.09,1.37 -1.62,2.06 0.53,-0.69 1.07,-1.38 1.62,-2.06zm-5.19 6.71c-0.5,0.67 -1.01,1.34 -1.51,2.02 0.5,-0.68 1.01,-1.35 1.51,-2.02z"/>
     </g>
     <g>
      <path class="fil3" d="M1828.05 2234.88c-3.89,5.08 -3.38,3.45 -12.16,3.49 -4.98,0.02 -10.09,-0.13 -15.11,-0.13 -153.05,-0.06 -874.13,2.95 -886.03,-1.43 -2.13,-3.99 -0.64,6.13 -2.19,-6.99 -0.27,-2.21 -0.05,-6.43 -0.07,-8.75l-0.18 -49.31c-0.06,-21.27 0.57,-43.14 -0.14,-64.32 -0.8,-23.88 -3.99,-112.47 0.05,-130.35 4.43,-22.94 -0.49,-64.22 0.87,-89.54 -3.97,-8.13 -2.67,-134.25 -3.32,-145.62 -3.08,0.29 -2.27,0.87 -1.72,-2.37 -3.24,0.54 -2.67,1.36 -2.38,-1.73 -4.01,1.07 -3.44,2.03 -2.56,-1.92 -3.68,0.83 -2.97,1.55 -2.14,-2.14 -3.68,0.83 -2.97,1.54 -2.14,-2.14 -3.69,0.82 -2.97,1.54 -2.15,-2.15 -3.68,0.83 -2.97,1.54 -2.14,-2.14 -3.69,0.82 -2.97,1.54 -2.15,-2.15 -3.94,0.89 -2.98,1.45 -1.91,-2.56 -3.09,0.29 -2.27,0.87 -1.73,-2.37 -3.24,0.54 -2.66,1.36 -2.37,-1.73 -8.92,0.17 -17.86,-0.95 -26.77,-1.18 -5.44,-0.14 -22.97,2.2 -25.13,-2.23 -22.7,0.68 -45.95,-0.29 -68.94,0.35 -27.69,0.76 -35.01,2.28 -48.72,17.6 -8.46,9.44 -8.15,8.42 -7.97,24.79 1.32,119.58 -1.46,250.09 -1.46,371.02 0,88.62 -1.99,180.35 1.99,267.95 1.22,26.7 3.31,37.45 27.64,41.51 31.39,5.23 157.99,5.98 193.67,5.76 179.61,-1.16 360.09,0.34 539.93,0.34 44.21,0 509.74,2.39 540.25,-0.81l10.11 -10.68c3.16,-2.19 10.77,-7.08 11.45,-10.62l1.07 -3.08c0.04,-0.38 0.18,-1.17 0.22,-1.65l1.68 -535.27c0.01,-30.07 -0.74,-60.22 -0.94,-90.19 -0.13,-19.42 1.4,-59.27 -18.12,-69.01 -28.85,-14.41 -134.74,-13.04 -164.19,0.05 -12.97,5.77 -15.85,9.96 -19.01,26.8 -5.57,29.68 -5.05,97 -5.12,128.06 -0.25,118.93 -0.05,237.92 0.03,356.84z"/>
      <path id="1" class="fil2" d="M1828.06 2234.89c-2.95,3.86 -3.38,3.85 -7.29,3.63 -1.21,-0.05 -2.8,-0.14 -4.88,-0.14l-1.1 -0.01c0.37,0 0.73,0 1.1,0 8.78,-0.04 8.27,1.59 12.16,-3.49 -0.08,-118.92 -0.28,-237.91 -0.03,-356.84 0.07,-31.06 -0.45,-98.38 5.12,-128.06 3.16,-16.84 6.04,-21.03 19.01,-26.8 19.32,-8.59 71.53,-12.13 113.31,-9.48 0.03,0 0.05,0 0.08,0 0.95,0.06 1.9,0.13 2.85,0.19 0.04,0.01 0.08,0.01 0.12,0.01 0.95,0.07 1.89,0.14 2.82,0.21 0.06,0.01 0.11,0.01 0.17,0.02 0.92,0.07 1.83,0.15 2.73,0.23 0.07,0 0.14,0.01 0.2,0.02 0.89,0.07 1.76,0.16 2.63,0.24 0.07,0.01 0.15,0.01 0.22,0.02 0.86,0.09 1.72,0.17 2.57,0.26 0.07,0.01 0.13,0.02 0.19,0.03 0.87,0.09 1.72,0.18 2.57,0.28 0.04,0.01 0.08,0.01 0.13,0.02 0.87,0.1 1.72,0.2 2.57,0.31 0.02,0.01 0.04,0.01 0.06,0.01 13.23,1.7 24.21,4.21 30.97,7.58 19.52,9.74 17.99,49.59 18.12,69.01 0.2,29.97 0.95,60.12 0.94,90.19l-1.68 535.27c-0.04,0.48 -0.18,1.27 -0.22,1.65l-1.07 3.08c-0.68,3.54 -8.29,8.43 -11.45,10.62l-10.11 10.68c-27.02,2.83 -395.07,1.28 -509.72,0.89l29.02 0.09c137.7,0.49 455.6,1.63 480.69,-0.99l0 0 10.11 -10.68 0.97 -0.66c3.51,-2.4 9.87,-6.75 10.48,-9.95l1.07 -3.08 0.22 -1.65 1.68 -535.27c0,-17.46 -0.25,-34.97 -0.5,-52.44 -0.17,-12.59 -0.37,-25.2 -0.44,-37.75l-0.01 -4.59c0,-20.5 -0.03,-55.39 -18.1,-64.41 -14.06,-7.02 -46.5,-10.29 -79.41,-10.29 -34.56,0 -69.71,3.65 -84.78,10.34 -6.46,2.87 -10.44,5.38 -13.17,9.25 -2.73,3.86 -4.26,9.13 -5.83,17.54 -5.06,26.98 -5.1,85.14 -5.11,118.79l-0.01 9.27c-0.19,93.89 -0.1,187.85 -0.03,281.75l0.06 75.09 0 0.01 0 0zm-17.8 3.45l-2.38 -0.02 -7.1 -0.07c-35.85,0 -102.91,0.15 -184.69,0.33 -98.2,0.22 -217.67,0.49 -329.98,0.58 205.85,-0.17 435.76,-0.95 514.67,-0.92 0.45,0 0.91,0 1.37,0l4.17 0.04c1.31,0.02 2.62,0.04 3.94,0.06zm-524.26 0.82c-5.38,0.01 -10.74,0.01 -16.08,0.01 5.34,0 10.7,0 16.08,-0.01zm-19.71 0.02c-5.04,0 -10.07,0 -15.08,0 5.01,0 10.04,0 15.08,0zm-25.74 0.01c-1.66,0 -3.33,0 -4.99,0 1.66,0 3.33,0 4.99,0zm-16.51 0c-0.94,0 -1.87,0 -2.81,0 0.94,0 1.87,0 2.81,0zm-103.71 -0.07c-1.71,0 -3.41,0 -5.11,-0.01 1.69,0.01 3.4,0.01 5.11,0.01zm-13.28 -0.02c-2.43,-0.01 -4.82,-0.01 -7.22,-0.02 2.4,0.01 4.8,0.01 7.22,0.02zm-13.47 -0.03c-4.43,-0.01 -8.8,-0.02 -13.11,-0.04 4.31,0.02 8.68,0.03 13.11,0.04zm-16.56 -0.05c-3.64,-0.01 -7.24,-0.02 -10.8,-0.03 3.55,0.01 7.16,0.02 10.8,0.03zm-13.69 -0.04c-86.39,-0.3 -145.26,-0.94 -148.58,-2.16 0,0 -0.01,-0.01 -0.01,-0.01 -0.95,-1.8 -1.18,-0.69 -1.27,-0.19 -0.03,0.17 -0.06,0.29 -0.1,0.17l-0.03 -0.24c0.18,1.25 -0.02,-2.42 1.41,0.26 0.09,0.03 0.35,0.07 0.53,0.1 0.1,0.02 0.16,0.03 0.28,0.05 7.61,1.13 65.01,1.73 147.77,2.02zm-150.06 -2.96l-0.16 -1.28 -0.56 -4.92c-0.18,-1.51 -0.13,-4.01 -0.1,-6.15l0.03 -2.6 -0.18 -49.31c-0.01,-7.21 0.05,-14.51 0.1,-21.8 0.1,-14.22 0.22,-28.54 -0.24,-42.52l-0.11 -3.15c-0.92,-27.66 -3.71,-110.04 0.16,-127.2 2.66,-13.84 1.93,-34.39 1.24,-54.04 -0.45,-12.91 -0.9,-25.47 -0.37,-35.5 -2.83,-5.81 -2.99,-72.03 -3.07,-113.4 -0.03,-16.42 -0.08,-28.96 -0.25,-32.21l-1.3 0.16c-0.55,0.08 -0.82,0.11 -0.91,-0.01 -0.07,-0.1 -0.02,-0.35 0.1,-0.79 0.1,-0.38 0.27,-0.95 0.39,-1.73 -0.78,0.12 -1.35,0.29 -1.74,0.38 -0.44,0.12 -0.7,0.17 -0.8,0.1 -0.11,-0.07 -0.08,-0.35 0,-0.91l0.16 -1.3c-0.96,0.25 -1.68,0.52 -2.16,0.69 -0.54,0.19 -0.86,0.31 -0.97,0.22 -0.13,-0.09 -0.04,-0.44 0.14,-1.14l0.43 -1.69 -1.78 0.47c-0.58,0.17 -0.89,0.25 -0.98,0.16 -0.09,-0.09 -0.02,-0.4 0.15,-0.99 0.12,-0.42 0.31,-1.01 0.47,-1.78 -0.77,0.16 -1.36,0.35 -1.77,0.47 -0.59,0.17 -0.9,0.24 -0.99,0.15 -0.09,-0.09 -0.02,-0.41 0.15,-0.99l0.47 -1.77c-0.77,0.16 -1.37,0.35 -1.78,0.47 -0.58,0.17 -0.89,0.24 -0.99,0.15 -0.09,-0.09 -0.02,-0.4 0.15,-0.98 0.12,-0.42 0.31,-1.02 0.47,-1.79 -0.77,0.16 -1.36,0.35 -1.77,0.47 -0.59,0.17 -0.9,0.24 -0.99,0.15 -0.09,-0.09 -0.02,-0.41 0.15,-0.99l0.47 -1.77c-0.77,0.16 -1.37,0.35 -1.78,0.47 -0.58,0.17 -0.89,0.24 -0.99,0.15 -0.09,-0.09 -0.02,-0.4 0.15,-0.98 0.12,-0.42 0.31,-1.02 0.47,-1.79l-1.68 0.43c-0.7,0.19 -1.06,0.27 -1.14,0.15 -0.09,-0.12 0.02,-0.42 0.22,-0.98 0.17,-0.49 0.44,-1.2 0.69,-2.16l-1.31 0.16c-0.55,0.08 -0.83,0.1 -0.9,0 -0.07,-0.1 -0.02,-0.35 0.1,-0.79 0.09,-0.39 0.26,-0.96 0.38,-1.74 -0.78,0.12 -1.35,0.29 -1.74,0.38 -0.44,0.12 -0.69,0.17 -0.79,0.1 -0.11,-0.07 -0.08,-0.35 0,-0.9l0.16 -1.31c-5.27,0.09 -10.57,-0.26 -15.84,-0.6 -3.64,-0.23 -7.3,-0.5 -10.92,-0.58 -1.27,-0.02 -3.24,0.08 -5.5,0.19 -4.04,0.21 -9.08,0.48 -13.07,0.11 6.22,0.57 15,-0.4 18.57,-0.31 8.91,0.23 17.85,1.35 26.77,1.18 -0.29,3.09 -0.87,2.27 2.37,1.73 -0.54,3.24 -1.36,2.66 1.73,2.37 -0.94,3.52 -1.79,3.52 0.67,2.87l0.74 -0.19c0.16,-0.04 0.32,-0.08 0.5,-0.12 -0.82,3.69 -1.54,2.97 2.15,2.15 -0.02,0.11 -0.05,0.22 -0.07,0.32l-0.31 1.14c-0.56,1.99 -0.56,1.38 2.52,0.68 -0.82,3.69 -1.54,2.97 2.15,2.15 -0.02,0.11 -0.05,0.22 -0.07,0.32l-0.31 1.14c-0.56,1.99 -0.56,1.38 2.52,0.68 -0.71,3.16 -1.33,3.09 0.8,2.48l1 -0.26c0.11,-0.03 0.22,-0.05 0.34,-0.08 -0.03,0.16 -0.07,0.31 -0.1,0.45l-0.25 0.95c-0.6,2.27 -0.53,1.44 2.91,0.52 -0.29,3.09 -0.86,2.27 2.38,1.73 -0.55,3.24 -1.36,2.66 1.72,2.37 0.65,11.37 -0.65,137.49 3.32,145.62 -1.36,25.32 3.56,66.6 -0.87,89.54 -4.04,17.88 -0.85,106.47 -0.05,130.35 0.71,21.18 0.08,43.05 0.14,64.32l0.18 49.31c0.02,2.32 -0.2,6.54 0.07,8.75 0.41,3.44 0.6,5.28 0.71,6.2zm-72.23 -518.36c-0.14,-0.01 -0.27,-0.02 -0.41,-0.04 0.14,0.02 0.27,0.03 0.41,0.04zm-0.47 -0.04c-0.13,-0.02 -0.26,-0.03 -0.4,-0.05 0.14,0.02 0.27,0.03 0.4,0.05zm-0.4 -0.05c-0.14,-0.02 -0.28,-0.03 -0.42,-0.05 0.14,0.02 0.28,0.03 0.42,0.05zm-0.43 -0.05c-0.13,-0.02 -0.25,-0.04 -0.38,-0.06 0.13,0.02 0.26,0.04 0.38,0.06zm-0.43 -0.07c-0.12,-0.02 -0.25,-0.04 -0.37,-0.06 0.12,0.02 0.25,0.04 0.37,0.06zm-0.37 -0.06c-2.23,-0.39 -3.89,-1.09 -4.46,-2.26 -11.47,0.33 -23.12,0.26 -34.77,0.19 -11.38,-0.07 -22.82,-0.15 -34.17,0.16 -13.84,0.37 -22.61,0.96 -29.6,3.34 -6.98,2.38 -12.26,6.6 -19.11,14.26l-0.95 1.06c-3.59,3.99 -5.41,6.01 -6.28,8.73 -0.87,2.74 -0.83,6.27 -0.76,13.28l0.02 1.71c0.78,71.46 0.1,146.85 -0.56,221.74 -0.44,50.41 -0.9,100.63 -0.9,149.28 0,22.07 -0.13,44.35 -0.25,66.69 -0.36,67.36 -0.74,135.49 2.24,201.26 0.6,13.34 1.45,22.72 5.15,29.25 3.71,6.51 10.32,10.23 22.48,12.25 12.1,2.01 38.42,3.38 68.19,4.26 47.37,1.39 103.58,1.63 125.48,1.5 114.85,-0.73 230.08,-0.39 345.25,-0.05 64.92,0.19 129.85,0.39 194.68,0.39l6.15 0.02c-2.52,-0.01 -4.61,-0.01 -6.15,-0.01 -179.84,0 -360.32,-1.5 -539.93,-0.34 -35.68,0.22 -162.28,-0.53 -193.67,-5.76 -24.33,-4.06 -26.42,-14.81 -27.64,-41.51 -3.98,-87.6 -1.99,-179.33 -1.99,-267.95 0,-120.93 2.78,-251.44 1.46,-371.02 -0.18,-16.37 -0.49,-15.35 7.97,-24.79 13.71,-15.32 21.03,-16.84 48.72,-17.6 22.99,-0.64 46.24,0.33 68.94,-0.35 0.57,1.18 2.23,1.88 4.46,2.27z"/>
     </g>
     <g>
      <path class="fil3" d="M2557.64 851.11l-364.5 0 -46.9 349.86c0.03,10.15 -1.9,9.66 16.74,9.97l502.72 -0.73c-3.33,-47 -37.69,-315.68 -45.74,-353.6 -17.35,-5.85 -47.58,-0.11 -62.32,-5.5z"/>
      <path id="1" class="fil2" d="M2557.64 851.12l-364.49 0 -46.9 349.85 -0.02 2.59c-0.05,3.39 -0.08,5.19 1.5,6.13 1.72,1.02 5.38,1.1 12.94,1.2l2.31 0.04 502.71 -0.73c-1.71,-24.29 -11.74,-107.76 -22.11,-187.98 -9.69,-75.04 -19.75,-147.27 -23.63,-165.6 -8.84,-2.98 -21.06,-2.94 -32.84,-2.92 -11.31,0.02 -22.26,0.05 -29.47,-2.58zm0 -0.01l-364.5 0 -46.9 349.86c0.01,2.37 -0.09,4.16 -0.01,5.52 0,0.01 0,0.01 0,0.02 0,0.08 0.01,0.16 0.02,0.24 0,0.02 0,0.03 0,0.04 0.01,0.07 0.01,0.14 0.02,0.21 0,0.01 0,0.03 0,0.04 0.01,0.07 0.02,0.15 0.03,0.22 0,0 0,0 0,0.01 0.51,3.64 3.29,3.45 16.68,3.67l502.72 -0.73c-3.33,-47 -37.69,-315.68 -45.74,-353.6 -17.35,-5.85 -47.58,-0.11 -62.32,-5.5z"/>
     </g>
     <g>
      <path class="fil3" d="M967.66 2026.83c-2.96,54.34 -0.21,110.82 0.67,165.29 20.28,-3.52 372.15,0.22 403.67,0.22 30.71,0 384.2,3.41 404.33,0l0 -169.26c-16.23,-5.33 -783.9,-3.13 -808.67,3.75z"/>
      <path id="1" class="fil2" d="M967.67 2026.84c-2.23,41.1 -1.2,83.44 -0.2,125.19 0.32,13.43 0.67,26.83 0.87,40.08 16.15,-2.78 240.99,-1.01 348.9,-0.16 28.07,0.21 48.25,0.38 54.76,0.38 6.11,0 25.03,0.15 51.53,0.32 106.67,0.76 336.61,2.4 352.79,-0.32l0 -169.24c-0.06,-0.02 -0.18,-0.04 -0.26,-0.06 0.07,0.02 0.22,0.03 0.27,0.05l0 169.26c-20.13,3.41 -373.62,0 -404.33,0 -31.52,0 -383.39,-3.74 -403.67,-0.22 -0.88,-54.47 -3.63,-110.95 -0.67,-165.29 0.08,-0.02 0.23,-0.04 0.33,-0.06 -0.11,0.02 -0.23,0.05 -0.32,0.07zm807.76 -3.93c-17.25,-2.65 -230.03,-3.32 -432.93,-2.39 -176.36,0.81 -345.26,2.86 -371.82,5.84 56.36,-6.43 773.56,-8.44 804.75,-3.45zm-805.16 3.5c-0.52,0.06 -0.97,0.12 -1.37,0.19 0.42,-0.07 0.85,-0.13 1.37,-0.19z"/>
     </g>
     <g>
      <path class="fil3" d="M2154.66 2544.8l381.54 0c10.18,-3.72 65.39,-2.02 81.41,-2.14 10.75,-0.07 28.43,-0.04 38.34,-2.24 13.88,-3.08 16.83,-14.77 21.69,-22.55l0 -17.85c-6.39,-10.83 -5.66,-15.24 -15.4,-21.18 -12.67,-7.72 -81.4,-6.25 -98.23,-6.55 -35.02,-0.64 -110.04,8.64 -121.58,-19.68 0,-197.55 2.05,-396.53 -0.31,-593.86l-1.52 -582.93c-1.2,-8.24 2.32,-1.03 -2.24,-5.65 -5,-4.15 -53.89,-4.11 -67.69,-3.53 2.39,101.24 0.07,205.42 -0.01,306.97l0.01 842.55c0.04,8.67 1.78,30.58 -0.94,37.39 -2.61,6.55 -13.23,10.85 -15.83,18.16 -49.18,2.98 -106.42,0.55 -156.5,0.54 -35.68,-0.02 -43.41,-6.49 -58.05,19.22 -14.84,26.08 7.16,41.9 15.31,53.33z"/>
      <path id="1" class="fil2" d="M2154.67 2544.79l381.53 0c7.94,-2.9 43.38,-2.49 66.14,-2.25 6.37,0.07 11.77,0.13 15.27,0.11l1.94 -0.01c10.82,-0.05 27.07,-0.17 36.4,-2.23 11.04,-2.44 15.17,-10.37 18.84,-17.4 0.95,-1.83 1.89,-3.62 2.84,-5.15l0 -17.83c-1.84,-3.12 -3.13,-5.79 -4.22,-8.07 -2.63,-5.46 -4.29,-8.91 -11.18,-13.11 -10.6,-6.45 -60.5,-6.5 -86.33,-6.5l-1.88 -0.01c25.23,0.02 77.35,-0.12 88.22,6.5 9.74,5.94 9.01,10.35 15.4,21.18l0 17.85c-4.86,7.78 -7.81,19.47 -21.69,22.55 -9.91,2.2 -27.59,2.17 -38.34,2.24 -16.02,0.12 -71.23,-1.58 -81.41,2.14l-381.54 0c-8.15,-11.43 -30.15,-27.25 -15.31,-53.33 14.64,-25.71 22.37,-19.24 58.05,-19.22 50.08,0.01 107.32,2.44 156.5,-0.54 2.6,-7.31 13.22,-11.61 15.83,-18.16 2.72,-6.81 0.98,-28.72 0.94,-37.39l-0.01 -842.55c0.05,-60.28 0.88,-121.49 1.06,-182.46 -0.08,27.96 -0.3,55.98 -0.51,83.93 -0.25,32.98 -0.52,65.91 -0.54,98.53l0.01 842.55c0,2.04 0.12,4.84 0.23,7.99 0.37,10.18 0.9,24.21 -1.17,29.4 -1.25,3.14 -4.36,5.79 -7.51,8.46 -3.43,2.91 -6.98,5.93 -8.32,9.7 0,0 -0.01,0.01 -0.01,0.01 -34.2,2.06 -72.32,1.52 -109.2,1 -16.13,-0.22 -32.05,-0.46 -47.3,-0.46 -6.76,0 -12.53,-0.25 -17.52,-0.44 -21.33,-0.87 -28.67,-1.17 -40.52,19.65 -12.16,21.37 0.45,35.88 9.87,46.7 2.05,2.36 3.99,4.58 5.44,6.62zm410.26 -72.49l-0.92 0c-6.86,-0.12 -15.29,0.14 -24.44,0.41 -30.26,0.92 -68.78,2.09 -87.47,-9.39 24.35,14.95 82.36,8.43 111.91,8.97 0.29,0.01 0.6,0.01 0.92,0.01zm-112.84 -8.99c-1.8,-1.11 -3.41,-2.33 -4.82,-3.68 0.14,0.13 0.29,0.26 0.44,0.39 0.02,0.02 0.04,0.05 0.07,0.07 1.28,1.17 2.72,2.24 4.31,3.22zm-4.83 -3.69c-2.11,-2.03 -3.76,-4.36 -4.84,-7.01 0,-62.64 0.22,-125.44 0.41,-188.27 0.44,-135.3 0.88,-270.84 -0.72,-405.59l-1.52 -582.93c-0.14,-0.98 -0.21,-1.75 -0.24,-2.34 0.03,0.59 0.11,1.35 0.25,2.34l1.52 582.93c2.36,197.33 0.31,396.31 0.31,593.86 0.27,0.66 0.58,1.3 0.92,1.92 0.04,0.07 0.08,0.15 0.12,0.22 0.16,0.28 0.32,0.55 0.49,0.82 0.04,0.07 0.09,0.14 0.13,0.21 0.79,1.21 1.7,2.34 2.74,3.4 0.03,0.03 0.06,0.06 0.08,0.08 0.12,0.12 0.23,0.24 0.35,0.36zm-6.91 -1187.28c0.02,-0.23 0.05,-0.39 0.09,-0.5 -0.35,-0.12 -0.99,-0.54 -2.09,-1.66 -1.95,-1.62 -10.7,-2.62 -21.39,-3.17 -16.55,-0.86 -37.9,-0.7 -46.28,-0.36 0.74,31.54 1.02,63.38 1.06,95.33 -0.04,-31.96 -0.33,-63.79 -1.07,-95.34 13.8,-0.58 62.69,-0.62 67.69,3.53 1.12,1.14 1.75,1.56 2.09,1.67 -0.04,0.11 -0.07,0.28 -0.1,0.5zm-68.61 90.24c0,1.39 0.01,2.78 0.01,4.18 0,-1.4 -0.01,-2.79 -0.01,-4.18zm0.01 4.56c0,1.37 0,2.73 0,4.1 0,-1.37 0,-2.73 0,-4.1zm0 5.56c0,1.01 0,2.03 -0.01,3.04 0.01,-1.01 0.01,-2.03 0.01,-3.04zm-0.01 4.27c0,1.31 0,2.62 0,3.93 0,-1.31 0,-2.62 0,-3.93zm0 5.32c-0.01,1.17 -0.01,2.33 -0.01,3.5 0,-1.17 0,-2.33 0.01,-3.5zm-0.01 4.17c0,1.54 -0.01,3.08 -0.01,4.62 0,-1.54 0.01,-3.08 0.01,-4.62zm68.72 -114.62c0.22,-0.64 0.61,0.19 0.02,0 -0.01,0 -0.01,0 -0.01,0l0 0c0,0 -0.01,0 -0.01,0zm0.3 -0.17c-0.05,-0.08 -0.19,-0.12 -0.29,0.16 0.02,0 0.03,0.01 0.05,0.01 0.24,0.06 0.28,-0.09 0.24,-0.17l0 0z"/>
     </g>
     <g>
      <path class="fil3" d="M1794.93 2544.8l71.01 0c6.32,-3.12 19.08,-4.7 26.38,-19.71 4.35,-8.94 5.84,-27.63 0.62,-39.29 -11.59,-25.89 -35.31,-21.68 -68.58,-21.34 -12,0.13 -32.36,-1 -42.05,3.91 -16.73,8.46 -30.71,35.36 -13.63,59.54 11.82,16.73 16.26,12.17 26.25,16.89z"/>
      <path id="1" class="fil2" d="M1794.93 2544.79l71.01 0c1.27,-0.62 2.83,-1.21 4.52,-1.83 6.72,-2.47 16.04,-5.91 21.85,-17.87 2.3,-4.73 3.82,-12.25 3.93,-19.96 0.1,-6.83 -0.87,-13.87 -3.31,-19.33 -10.17,-22.73 -29.74,-22.24 -56.89,-21.56 -3.74,0.08 -7.66,0.2 -11.68,0.23l-1.09 0c0.37,0 0.73,-0.01 1.09,-0.01 33.27,-0.34 56.99,-4.55 68.58,21.34 5.22,11.66 3.73,30.35 -0.62,39.29 -7.3,15.01 -20.06,16.59 -26.38,19.71l-71.01 0c-9.99,-4.72 -14.43,-0.16 -26.25,-16.89 -17.08,-24.18 -3.1,-51.08 13.63,-59.54 8.41,-4.26 24.85,-3.97 36.89,-3.91l-1.52 0c-11.86,-0.06 -27.32,-0.15 -35.37,3.92 -1.35,0.68 -2.73,1.52 -4.06,2.46 -6.75,4.76 -12.61,12.48 -15.47,21.54 -2.85,9.06 -2.74,19.54 2.45,29.79 0.95,1.9 2.12,3.82 3.46,5.73 8.39,11.88 13.08,13.04 18.65,14.38 2.27,0.55 4.71,1.16 7.59,2.51z"/>
     </g>
     <g>
      <path class="fil3" d="M883.12 2544.8l62.31 0c16.76,-6.96 18.85,-0.75 30.1,-16.9 4.39,-6.31 5.64,-8.05 6.45,-17.13 4.19,-47.08 -32.42,-46.31 -68.78,-46.28 -34.13,0.03 -57.38,-0.81 -65.4,28.2 -4.12,14.89 0.1,28.47 5.97,36.57 10.46,14.41 14.02,9.18 29.35,15.54z"/>
      <path id="1" class="fil2" d="M883.12 2544.79l62.31 0c5.49,-2.27 9.43,-3.16 12.6,-3.85 6.51,-1.43 9.94,-2.21 17.49,-13.05l0.09 -0.13c4.31,-6.2 5.57,-7.99 6.36,-16.99 3.07,-34.58 -15.88,-43.36 -40.57,-45.55 -8.39,-0.73 -17.46,-0.72 -26.54,-0.72l-1.66 0 -2.87 0c-32.54,0 -54.74,0.02 -62.52,28.19 -1.87,6.78 -2.01,13.32 -1.07,19.15 1.13,6.96 3.86,13.01 7.04,17.41 6.98,9.62 10.91,10.5 17.28,11.9 3.17,0.69 6.98,1.54 12.06,3.64zm0 0.01l62.31 0c16.76,-6.96 18.85,-0.75 30.1,-16.9 4.39,-6.31 5.64,-8.05 6.45,-17.13 4.19,-47.08 -32.42,-46.31 -68.78,-46.28 -34.13,0.03 -57.38,-0.81 -65.4,28.2 -4.12,14.89 0.1,28.47 5.97,36.57 10.46,14.41 14.02,9.18 29.35,15.54z"/>
     </g>
    </g>
    <g>
     <path class="fil3" d="M886.38 1718.53c-0.29,3.09 -0.87,2.27 2.37,1.73 -0.54,3.24 -1.36,2.66 1.73,2.37 -1.07,4.01 -2.03,3.45 1.91,2.56 -0.82,3.69 -1.54,2.97 2.15,2.15 -0.83,3.68 -1.54,2.97 2.14,2.14 -0.82,3.69 -1.54,2.97 2.15,2.15 -0.83,3.68 -1.54,2.97 2.14,2.14 -0.83,3.69 -1.54,2.97 2.14,2.14 -0.88,3.95 -1.45,2.99 2.56,1.92 -0.29,3.09 -0.86,2.27 2.38,1.73 -0.55,3.24 -1.36,2.66 1.72,2.37 0.65,11.37 -0.65,137.49 3.32,145.62l-0.32 -140.29c1.16,-9.05 2.44,-2.03 -3,-5.33 1.09,-3.58 1.89,-2.98 -1.72,-2.37 3.28,-3.3 2.21,-1.73 -2.38,-1.73 3.19,-3.56 2.28,-1.92 -2.56,-1.92 3.63,-3.64 2.81,-2.14 -2.14,-2.14 3.63,-3.65 2.81,-2.14 -2.14,-2.14 3.63,-3.65 2.81,-2.15 -2.15,-2.15 3.63,-3.65 2.81,-2.14 -2.14,-2.14 0.82,-3.69 1.54,-2.97 -2.15,-2.15 0.8,-3.55 1.61,-2.84 -1.91,-2.56 1.08,-3.58 1.88,-2.97 -1.73,-2.37 0.61,-3.61 1.21,-2.81 -2.37,-1.73 -1.76,-2.94 6.47,-0.78 -5.15,-2.98l-46.75 -0.43c2.16,4.43 19.69,2.09 25.13,2.23 8.91,0.23 17.85,1.35 26.77,1.18z"/>
     <path id="1" class="fil2" d="M903.11 1735.91c0,0 0,0 0,0 -0.88,3.95 -1.45,2.99 2.56,1.92 0,0 0,0 0,0 3.19,-3.56 2.28,-1.92 -2.56,-1.92 0,0 0,0 0,0zm-16.72 -17.37l-0.16 1.31c-0.07,0.53 -0.1,0.81 0,0.88 0.09,0.07 0.34,0.01 0.77,-0.1 0.39,-0.09 0.97,-0.26 1.74,-0.38l0.11 -0.55c-0.03,0.18 -0.07,0.36 -0.1,0.56 2.08,-0.35 2.7,-0.7 2.64,-0.24 0,0 0,0 0,0.01 0,0 -0.01,0.01 -0.01,0.01 0,0.02 -0.01,0.05 -0.01,0.07 -0.1,0.38 -0.47,1.14 -0.89,2.52 0.15,-0.01 0.3,-0.03 0.43,-0.04l-0.42 0.05c-0.25,0.95 -0.52,1.68 -0.69,2.16 -0.19,0.54 -0.31,0.84 -0.22,0.96 0.08,0.12 0.44,0.02 1.12,-0.16l1.68 -0.42c0.17,-0.8 0.38,-1.41 0.5,-1.83 0.15,-0.5 0.23,-0.78 0.16,-0.88 -0.09,-0.12 -0.4,-0.08 -0.98,-0.01l-0.31 0.04c2.02,-0.27 1.32,-0.35 0.64,2.69 3.69,-0.82 2.97,-1.54 2.15,2.15 4.95,0 5.77,-1.51 2.14,2.14 4.96,0 5.78,-1.5 2.15,2.15 4.95,0 5.77,-1.51 2.14,2.14 4.95,0 5.77,-1.5 2.14,2.14 -1.35,0.3 -2.11,0.59 -2.49,0.66 -0.04,0 -0.08,0.01 -0.11,0.01 -0.36,0.01 -0.2,-0.35 0.11,-1.43l-0.11 0.41c-0.16,0.56 -0.24,0.87 -0.15,0.96 0.09,0.09 0.4,0.01 0.96,-0.15 0.42,-0.12 1.02,-0.31 1.78,-0.47l0 0 1.17 -1.15c0.8,-0.78 1.15,-1.14 1.05,-1.23 -0.07,-0.07 -0.42,-0.03 -0.98,0.03 -0.73,0.08 -1.86,0.23 -3.36,0.23l0 0 0 0 0 0 -0.11 0.42c0.03,-0.14 0.07,-0.28 0.1,-0.43 -0.14,0.03 -0.28,0.06 -0.41,0.1l0.4 -0.11 0 0 1.17 -1.16c0.79,-0.78 1.14,-1.13 1.05,-1.22 -0.06,-0.06 -0.41,-0.03 -0.97,0.03 -0.73,0.08 -1.86,0.23 -3.37,0.23l0 0 0 0 0 0c-0.16,0.77 -0.35,1.36 -0.47,1.77 -0.16,0.57 -0.24,0.88 -0.15,0.97 0.09,0.09 0.41,0.01 0.97,-0.15l0.34 -0.09c-2.01,0.57 -1.4,0.59 -0.7,-2.51 -3.69,0.82 -2.97,1.54 -2.15,-2.15 -0.14,0.03 -0.28,0.06 -0.41,0.1l0.4 -0.11 0 0 1.17 -1.16c0.79,-0.78 1.14,-1.13 1.05,-1.22 -0.06,-0.06 -0.41,-0.03 -0.97,0.03 -0.73,0.08 -1.86,0.23 -3.37,0.23 -0.16,0.77 -0.35,1.36 -0.47,1.77 -0.16,0.57 -0.24,0.88 -0.15,0.97 0.09,0.09 0.41,0.01 0.97,-0.15l0.34 -0.09c-2.01,0.57 -1.4,0.59 -0.7,-2.51 -3.69,0.82 -2.97,1.54 -2.15,-2.15 -3.94,0.89 -2.98,1.45 -1.91,-2.56 -3.09,0.29 -2.27,0.87 -1.73,-2.37 -3.24,0.54 -2.66,1.36 -2.37,-1.73 -8.92,0.17 -17.86,-0.95 -26.77,-1.18 -3.31,-0.09 -11.11,0.75 -17.19,0.41 -0.01,0 -0.03,0 -0.04,0 -0.13,-0.01 -0.25,-0.01 -0.37,-0.02 -0.04,0 -0.08,-0.01 -0.12,-0.01 -0.1,-0.01 -0.21,-0.01 -0.32,-0.02 -0.03,0 -0.07,-0.01 -0.1,-0.01 -0.13,-0.01 -0.26,-0.02 -0.39,-0.03 -0.05,-0.01 -0.1,-0.01 -0.15,-0.02 -0.08,0 -0.16,-0.01 -0.24,-0.02 -0.06,-0.01 -0.12,-0.01 -0.18,-0.02 -0.07,-0.01 -0.15,-0.02 -0.22,-0.02 -0.05,-0.01 -0.11,-0.02 -0.16,-0.02 -0.12,-0.02 -0.24,-0.03 -0.36,-0.05 -0.03,0 -0.07,-0.01 -0.11,-0.02 -0.09,-0.01 -0.18,-0.02 -0.26,-0.03 -0.04,-0.01 -0.09,-0.02 -0.13,-0.02 -0.09,-0.02 -0.18,-0.03 -0.27,-0.05 -0.03,0 -0.06,-0.01 -0.08,-0.01 -0.26,-0.05 -0.5,-0.1 -0.74,-0.15 0,0 0,0 -0.01,0 -1.84,-0.42 -3.18,-1.08 -3.69,-2.12l46.75 0.43c0.42,0.08 0.82,0.15 1.19,0.22l-1.19 -0.21 -46.73 -0.43c1.65,3.36 12.28,2.79 19.61,2.4 2.26,-0.11 4.23,-0.21 5.5,-0.19 3.62,0.08 7.28,0.35 10.92,0.58 5.26,0.34 10.57,0.69 15.83,0.6 -0.78,-1.33 0.49,-1.63 1.01,-1.74l0.19 -0.06 0 0 -1.19 -0.24 -0.56 -0.1c0.49,0.08 0.85,0.14 1.12,0.19l0.59 0.12c0.5,0.15 -2.23,0.02 -1.14,1.84 3.12,-0.94 3.07,-1.67 2.6,0.55l0.08 -0.42c0.13,-0.61 0.2,-0.92 0.08,-1.01 -0.09,-0.07 -0.37,0.04 -0.88,0.23 -0.42,0.16 -1.05,0.42 -1.87,0.66zm19.28 19.29c0,0 0,0 0,0 -0.29,3.09 -0.86,2.27 2.38,1.73 -0.55,3.24 -1.36,2.66 1.72,2.37 0,0 0,0 0,0 0,0 0,0 0,0 0.95,-3.12 1.68,-3.07 -0.54,-2.6l0.42 -0.08c0.6,-0.13 0.91,-0.2 1,-0.08 0.07,0.09 -0.03,0.37 -0.22,0.87 -0.16,0.43 -0.42,1.05 -0.67,1.88l0 0 0 0 -1.3 0.16c-0.53,0.07 -0.8,0.12 -0.89,0 -0.07,-0.09 -0.01,-0.34 0.1,-0.78 0.1,-0.38 0.27,-0.96 0.39,-1.73l0 0 0 0 0.55 -0.11c-0.18,0.03 -0.36,0.07 -0.56,0.1 3.28,-3.3 2.21,-1.73 -2.38,-1.73zm4.1 4.1c0.65,11.37 -0.65,137.49 3.32,145.62l-0.32 -140.29c1.16,-9.05 2.44,-2.03 -3,-5.33zm-21.01 -21.66c-0.12,0.77 -0.29,1.35 -0.38,1.74 -0.11,0.42 -0.17,0.67 -0.1,0.77 0.07,0.11 0.35,0.07 0.88,0l1.31 -0.16c0.24,-0.82 0.5,-1.45 0.66,-1.88 0.19,-0.5 0.29,-0.78 0.22,-0.87 -0.09,-0.12 -0.39,-0.04 -1,0.09l-1.59 0.31zm3.64 4.93c-0.16,0.76 -0.35,1.37 -0.47,1.78 -0.16,0.56 -0.24,0.87 -0.15,0.97 0.09,0.09 0.4,0.01 0.96,-0.15 0.42,-0.12 1.03,-0.31 1.79,-0.47 0.16,-0.76 0.35,-1.37 0.47,-1.78 0.16,-0.56 0.24,-0.87 0.15,-0.97 -0.09,-0.09 -0.4,-0.01 -0.96,0.15 -0.42,0.12 -1.03,0.31 -1.79,0.47zm4.29 4.29c-0.16,0.77 -0.35,1.37 -0.47,1.78 -0.16,0.56 -0.24,0.87 -0.15,0.97 0.09,0.09 0.4,0.01 0.96,-0.15 0.42,-0.12 1.03,-0.31 1.79,-0.47l0 0 1.16 -1.15c0.81,-0.79 1.16,-1.15 1.06,-1.24 -0.06,-0.06 -0.42,-0.03 -0.99,0.03 -0.72,0.08 -1.85,0.23 -3.36,0.23l0 0 0 0 0 0zm6.43 6.43l-0.42 1.69c-0.18,0.69 -0.26,1.05 -0.16,1.12 0.12,0.09 0.42,-0.03 0.95,-0.22 0.49,-0.17 1.21,-0.44 2.17,-0.69l0 0 0.9 -0.99c0.74,-0.81 1.05,-1.16 0.94,-1.25 -0.08,-0.06 -0.41,-0.01 -0.9,0.05 -0.73,0.1 -1.9,0.29 -3.48,0.29l0 0 0 0 0 0zm2.56 1.92l-0.16 1.29c-0.07,0.54 -0.1,0.83 0.01,0.9 0.09,0.07 0.34,0.01 0.77,-0.1 0.39,-0.09 0.97,-0.26 1.74,-0.38l0 0 0.86 -0.86c0.79,-0.78 1.12,-1.12 1.02,-1.2 -0.08,-0.06 -0.39,0 -0.85,0.06 -0.71,0.1 -1.86,0.29 -3.39,0.29l0 0 0 0 0 0zm4.1 4.11c0.17,3.27 0.22,15.8 0.25,32.2 0.08,41.27 0.24,107.27 3.05,113.35l-0.32 -140.24c0.43,-3.42 0.91,-4.56 1,-4.8l0.01 -0.02c-0.19,0.18 -1.24,1.17 -3.99,-0.49z"/>
    </g>
    <g>
     <path class="fil3" d="M2536.2 2544.8l141.44 0 0 -26.93c-4.86,7.78 -7.81,19.47 -21.69,22.55 -9.91,2.2 -27.59,2.17 -38.34,2.24 -16.02,0.12 -71.23,-1.58 -81.41,2.14z"/>
     <path id="1" class="fil2" d="M2536.26 2544.79l141.37 0 0 -26.88c-1,1.61 -1.91,3.34 -2.82,5.1 -3.67,7.04 -7.81,14.97 -18.86,17.42 -9.33,2.06 -25.58,2.18 -36.4,2.23l-1.94 0.01c-3.5,0.02 -8.9,-0.04 -15.27,-0.11 -22.71,-0.24 -58.03,-0.65 -66.08,2.23zm-0.06 0.01l141.44 0 0 -26.93c-4.86,7.78 -7.81,19.47 -21.69,22.55 -9.91,2.2 -27.59,2.17 -38.34,2.24 -16.02,0.12 -71.23,-1.58 -81.41,2.14z"/>
    </g>
   </g>
  </g>
 </g>
</svg>
