<?xml version="1.0" encoding="UTF-8"?>
<!DOCTYPE svg PUBLIC "-//W3C//DTD SVG 1.1//EN" "http://www.w3.org/2000/svg">
<svg xmlns="http://www.w3.org/2000/svg" xml:space="preserve" width="42.3332mm" height="42.3332mm" version="1.1" style="shape-rendering:geometricPrecision; text-rendering:geometricPrecision; image-rendering:optimizeQuality; fill-rule:evenodd; clip-rule:evenodd"
viewBox="0 0 4233.32 4233.32">
 <g>
  <path d="M1494.26 2578.14c35.28,-8.77 161.74,0.57 208.5,-0.71 70.41,-1.94 142.47,1.56 212.98,1.03 139.35,-1 283.03,0.13 422.21,2.17 0,-47.32 -5.47,-313.3 4.03,-333.6 -2.37,-35.91 0.12,-80.12 17.05,-109.76l42.15 -55.27c39.61,-35.69 45.93,-33.29 87.78,-38.23 10.25,-1.18 18.03,-1.89 28.4,-2.42 138.85,-7.07 117.98,10 118.63,-59.78l2.54 -164.6c0.18,-81.04 11.76,-121.2 -18.63,-172.19 -168.28,-282.53 -646.27,-341.4 -984.2,-348.35 -322.24,-6.63 -790.88,65.52 -975.91,333.21 -26.44,38.25 -24.27,26.14 -24.22,82.7 0.1,96.69 -3.86,239.72 0.6,326.07 49.25,-4.66 170.9,-2.02 208.62,22.23 33.29,21.38 77.84,66.68 80.48,103.67 7.83,109.77 0.91,288.55 6.63,412.29 11.63,3.4 535.37,5.94 562.36,1.54zm936.1 466.09c-6.8,8.84 -5.91,6.02 -21.2,6.07 -8.69,0.05 -17.6,-0.2 -26.34,-0.22 -266.77,-0.1 -1523.52,5.16 -1544.27,-2.47 -3.7,-6.98 -1.13,10.65 -3.83,-12.21 -0.45,-3.83 -0.07,-11.21 -0.1,-15.24l-0.33 -85.94c-0.1,-37.07 0.99,-75.19 -0.25,-112.11 -1.38,-41.62 -6.95,-196.03 0.1,-227.18 7.73,-39.99 -0.85,-111.93 1.51,-156.07 -6.92,-14.18 -4.65,-233.98 -5.76,-253.8 -5.39,0.5 -3.98,1.51 -3.02,-4.13 -5.64,0.93 -4.64,2.37 -4.13,-3.02 -7,1.86 -6.02,3.55 -4.46,-3.32 -6.42,1.43 -5.19,2.66 -3.75,-3.76 -6.42,1.44 -5.17,2.7 -3.73,-3.72 -6.42,1.43 -5.19,2.69 -3.75,-3.73 -6.42,1.44 -5.16,2.67 -3.73,-3.75 -6.42,1.43 -5.19,2.69 -3.73,-3.73 -6.87,1.54 -5.21,2.52 -3.34,-4.48 -5.39,0.53 -3.96,1.54 -3,-4.13 -5.67,0.96 -4.66,2.37 -4.16,-3 -15.53,0.28 -31.12,-1.66 -46.66,-2.06 -9.46,-0.25 -40.03,3.83 -43.79,-3.9 -39.55,1.2 -80.1,-0.51 -120.16,0.6 -48.27,1.33 -61.01,4 -84.91,30.69 -14.76,16.47 -14.2,14.69 -13.9,43.22 2.32,208.39 -2.54,435.88 -2.54,646.64 0,154.46 -3.45,314.34 3.47,467.01 2.14,46.53 5.77,65.29 48.17,72.34 54.72,9.12 275.38,10.45 337.55,10.05 313.05,-2.01 627.61,0.58 941.07,0.58 77.05,0 888.43,4.18 941.61,-1.39l17.6 -18.63c5.52,-3.8 18.79,-12.34 19.97,-18.51l1.84 -5.36c0.08,-0.68 0.33,-2.04 0.4,-2.87l2.92 -932.93c0.03,-52.4 -1.28,-104.95 -1.63,-157.21 -0.2,-33.84 2.44,-103.29 -31.58,-120.26 -50.29,-25.1 -234.84,-22.71 -286.16,0.08 -22.61,10.04 -27.62,17.37 -33.13,46.71 -9.72,51.72 -8.82,169.06 -8.92,223.2 -0.45,207.29 -0.1,414.68 0.05,621.94zm1271.62 -2411.78l-635.32 0 -81.74 609.76c0.05,17.7 -3.3,16.85 29.19,17.38l876.19 -1.26c-5.79,-81.92 -65.69,-550.21 -79.72,-616.28 -30.24,-10.23 -82.92,-0.2 -108.6,-9.6zm-2771.22 2049.18c-5.16,94.7 -0.35,193.14 1.16,288.07 35.35,-6.15 648.64,0.38 703.58,0.38 53.51,0 669.61,5.96 704.72,0l0 -295c-28.31,-9.29 -1366.3,-5.44 -1409.46,6.55zm2068.84 902.76l665.01 0c17.72,-6.5 113.94,-3.52 141.87,-3.73 18.73,-0.12 49.55,-0.07 66.83,-3.9 24.17,-5.36 29.33,-25.76 37.79,-39.31l0 -31.12c-11.13,-18.86 -9.84,-26.54 -26.84,-36.89 -22.06,-13.47 -141.87,-10.9 -171.21,-11.43 -61.03,-1.11 -191.77,15.08 -211.89,-34.3 0,-344.32 3.57,-691.11 -0.53,-1035.04l-2.65 -1016c-2.11,-14.35 4.03,-1.78 -3.92,-9.84 -8.72,-7.23 -93.93,-7.18 -117.98,-6.15 4.18,176.45 0.13,358.03 -0.02,535.02l0.02 1468.48c0.08,15.11 3.1,53.31 -1.63,65.17 -4.56,11.43 -23.07,18.91 -27.6,31.65 -85.72,5.19 -185.46,0.98 -272.76,0.93 -62.17,-0.02 -75.67,-11.3 -101.18,33.52 -25.86,45.45 12.49,73.02 26.69,92.94zm-626.98 0l123.77 0c11.03,-5.44 33.26,-8.18 45.98,-34.35 7.58,-15.58 10.17,-48.17 1.08,-68.49 -20.22,-45.12 -61.54,-37.77 -119.53,-37.16 -20.9,0.2 -56.41,-1.77 -73.28,6.79 -29.16,14.76 -53.53,61.65 -23.77,103.77 20.6,29.16 28.35,21.23 45.75,29.44zm-1589.19 0l108.58 0c29.21,-12.14 32.86,-1.31 52.48,-29.46 7.63,-10.98 9.82,-14.03 11.23,-29.87 7.3,-82.03 -56.48,-80.67 -119.86,-80.62 -59.51,0.02 -100.02,-1.41 -114,49.12 -7.18,25.96 0.18,49.64 10.43,63.74 18.2,25.13 24.42,16.01 51.14,27.09z"/>
 </g>
</svg>
