<?xml version="1.0" encoding="UTF-8"?>
<!DOCTYPE svg PUBLIC "-//W3C//DTD SVG 1.1//EN" "http://www.w3.org/2000/svg">

<svg xmlns="http://www.w3.org/2000/svg" xml:space="preserve" width="100mm" height="20mm" version="1.1" style="shape-rendering:geometricPrecision; text-rendering:geometricPrecision; image-rendering:optimizeQuality; fill-rule:evenodd; clip-rule:evenodd"
viewBox="0 0 10000 2000">
 <defs>
  <style type="text/css">
    .fil0 {fill:#1F1B20;fill-rule:nonzero}
  </style>
 </defs>
 <g>
  <metadata/>
  <path class="fil0" d="M1344.35 999.9c36.08,7.47 71.24,20.22 105.45,38.26 34.23,18.04 64.4,40.76 90.53,68.13 26.13,27.38 47.28,58.8 63.46,94.25 16.17,35.48 24.26,73.74 24.26,114.79 0,58.49 -16.16,108.57 -48.52,150.27 -32.35,41.68 -72.49,74.97 -120.39,99.85 -47.91,24.89 -99.56,42.93 -154.92,54.12 -55.37,11.21 -106.08,16.81 -152.12,16.81 -95.82,0 -190.7,-4.66 -284.64,-14 -93.95,-9.34 -188.83,-14 -284.64,-14 -53.52,0 -105.47,2.49 -155.86,7.47 -50.4,4.97 -101.11,11.82 -152.12,20.53l-67.19 -162.39 84 0c49.77,0 89.57,-18.98 119.45,-56.93 29.86,-37.95 52.87,-83.69 69.06,-137.18 16.17,-53.52 28.3,-108.88 36.39,-166.12 8.09,-57.24 15.87,-104.52 23.33,-141.86 11.21,-51.02 29.56,-98.3 55.07,-141.85 25.51,-43.55 55.37,-84.31 89.59,-122.26 34.21,-37.95 71.85,-72.18 112.92,-102.66 41.06,-30.48 82.13,-56.93 123.18,-79.32 -74.65,0 -147.44,9.02 -218.37,27.06 -70.93,18.05 -137.49,51.33 -199.72,99.87 -43.55,36.08 -80.57,79 -111.05,128.77 -30.48,49.79 -45.73,105.16 -45.73,166.12 0,38.58 5.59,74.05 16.79,106.39 11.21,32.36 25.51,65.96 42.94,100.81l-128.79 108.25c-26.14,-51.01 -46.98,-98.93 -62.53,-143.73 -15.56,-44.79 -23.34,-97.06 -23.34,-156.78 0,-97.06 23.97,-183.54 71.87,-259.44 47.91,-75.9 109.19,-139.99 183.85,-192.25 87.09,-62.22 183.22,-107.02 288.38,-134.4 105.14,-27.36 208.73,-41.05 310.77,-41.05 33.59,0 70.93,2.17 111.98,6.53 41.07,4.35 83.06,11.82 125.99,22.39 42.94,10.58 84.62,24.58 125.07,42.01 40.43,17.42 76.21,39.18 107.32,65.32 31.11,26.13 55.99,56.61 74.66,91.46 18.66,34.83 28,75.28 28,121.33 0,41.05 -8.09,78.69 -24.28,112.92 -16.17,34.22 -37.01,64.39 -62.52,90.53 -25.51,26.13 -54.75,48.83 -87.73,68.12 -32.97,19.29 -66.26,33.91 -99.85,43.86zm-468.49 490.9c31.11,0 63.46,-4.99 97.05,-14.94 33.6,-9.95 64.71,-24.58 93.34,-43.86 28.61,-19.29 52.24,-42.93 70.91,-70.93 18.66,-27.99 28,-61.28 28,-99.86 0,-26.13 -5.28,-49.14 -15.87,-69.06 -10.57,-19.91 -24.89,-36.4 -42.93,-49.45 -18.04,-13.07 -37.95,-23.03 -59.71,-29.88 -21.79,-6.84 -43.87,-10.26 -66.27,-10.26l-65.34 0c-12.44,67.19 -30.17,135.33 -53.18,204.39 -23.03,69.05 -56.93,130.33 -101.73,183.85l115.73 0zm210.9 -916.46c-24.88,9.94 -46.02,26.13 -63.46,48.52 -17.41,22.41 -31.73,47.6 -42.92,75.61 -11.2,27.99 -19.91,56.61 -26.14,85.85 -6.22,29.24 -9.94,56.93 -11.19,83.06 -1.25,17.42 -2.5,35.46 -3.73,54.12 -1.24,18.67 -3.12,37.33 -5.61,56.01 27.38,-2.5 56.01,-9.65 85.87,-21.47 29.86,-11.82 57.55,-27.38 83.06,-46.67 25.51,-19.29 46.65,-41.99 63.46,-68.12 16.79,-26.14 25.2,-55.99 25.2,-89.6 0,-33.6 -9.97,-67.81 -29.86,-102.66 -19.91,-34.83 -44.8,-59.72 -74.68,-74.65zm1015.4 530.09c32.35,-29.87 70.62,-51.33 114.79,-64.39 44.17,-13.07 84.29,-18.36 120.39,-15.88 31.11,2.5 60.34,9.65 87.72,21.47 27.38,11.82 51.02,28.61 70.93,50.4 19.91,21.76 35.15,47.9 45.73,78.4 10.58,30.48 13.99,65 10.26,103.58 -4.97,46.04 -16.18,86.49 -33.6,121.32 -17.42,34.85 -39.51,64.71 -66.25,89.59 -26.76,24.89 -57.24,45.74 -91.47,62.53 -34.22,16.79 -70.61,29.55 -109.19,38.26 -36.08,8.72 -77.46,14.94 -124.11,18.67 -46.67,3.74 -88.66,4.97 -125.99,3.74 -44.8,0 -86.18,-4.99 -124.13,-14.94 -37.95,-9.94 -70.62,-25.51 -97.99,-46.67 -27.38,-21.14 -48.53,-48.83 -63.46,-83.06 -14.93,-34.21 -20.53,-76.21 -16.81,-125.98 1.25,-12.45 2.81,-24.89 4.68,-37.33 1.86,-12.44 4.66,-25.51 8.39,-39.2l95.19 -358.36 354.64 0 -59.72 197.85zm-69.06 332.23c0,14.94 4.35,28 13.07,39.2 8.7,11.19 20.51,16.79 35.45,16.79 22.39,0 41.99,-8.39 58.8,-25.2 16.79,-16.79 30.8,-36.7 41.99,-59.71 11.2,-23.04 19.6,-46.98 25.2,-71.87 5.6,-24.89 8.4,-45.42 8.4,-61.59 0,-14.94 -4.66,-29.86 -14,-44.8 -9.32,-14.93 -21.47,-22.4 -36.39,-22.4 -19.91,0 -37.95,9.34 -54.14,28 -16.17,18.66 -30.17,40.45 -41.99,65.33 -11.82,24.89 -20.85,50.09 -27.07,75.59 -6.22,25.51 -9.32,45.74 -9.32,60.66zm780.2 153.05c-74.66,0 -129.42,-19.91 -164.25,-59.71 -34.85,-39.83 -49.17,-102.66 -42.95,-188.53 1.25,-12.45 2.5,-24.89 3.75,-37.33 1.24,-12.44 3.72,-25.51 7.47,-39.2l95.19 -358.36 354.63 0 -104.53 395.69c-3.73,13.69 -5.6,26.13 -5.6,37.34 0,23.64 11.2,35.46 33.6,35.46 14.92,0 29.55,-6.85 43.86,-20.54 14.32,-13.69 25.2,-26.75 32.67,-39.2l78.38 50.4 -1.85 1.87c-17.43,29.86 -37.64,58.18 -60.67,84.93 -23.02,26.76 -48.53,50.4 -76.53,70.93 -27.99,20.52 -58.16,36.71 -90.51,48.53 -32.36,11.81 -66.58,17.72 -102.66,17.72zm912.71 -574.87c-11.19,-17.43 -25.51,-26.13 -42.92,-26.13 -17.44,0 -32.36,7.78 -44.8,23.32 -12.44,15.56 -22.72,33.91 -30.79,55.06 -8.1,21.16 -14.01,42.94 -17.75,65.33 -3.73,22.41 -5.6,40.45 -5.6,54.14 0,29.86 4.06,59.09 12.13,87.72 8.1,28.61 20.54,53.81 37.33,75.59 16.81,21.77 37.66,39.2 62.54,52.27 24.89,13.06 54.12,19.6 87.73,19.6 28.61,0 56.3,-3.43 83.06,-10.28 26.75,-6.84 52.56,-14.62 77.46,-23.32l50.4 117.58c-60.99,32.35 -121.02,56.93 -180.13,73.73 -59.11,16.8 -124.11,25.2 -195.04,25.2 -51.02,0 -101.1,-6.84 -150.27,-20.53 -49.15,-13.69 -93.32,-34.23 -132.52,-61.59 -39.2,-27.38 -70.93,-62.22 -95.19,-104.54 -24.26,-42.3 -36.39,-92.07 -36.39,-149.31 0,-67.2 14.94,-125.98 44.8,-176.4 29.85,-50.39 69.05,-92.69 117.58,-126.92 48.54,-34.21 102.66,-59.72 162.39,-76.51 59.72,-16.81 119.46,-25.21 179.19,-25.21 33.59,0 69.37,4.68 107.32,14 37.95,9.34 73.41,23.34 106.39,42.01 32.98,18.66 60.03,42.61 81.19,71.85 21.16,29.25 31.73,63.14 31.73,101.72 0,48.54 -16.79,88.97 -50.39,121.33 -33.61,32.35 -74.66,48.53 -123.2,48.53 -21.14,0 -41.99,-3.74 -62.53,-11.21 -20.52,-7.45 -38.88,-17.73 -55.05,-30.79 -16.17,-13.07 -29.24,-29.24 -39.2,-48.52 -9.95,-19.29 -14.92,-40.14 -14.92,-62.53 0,-36.1 11.82,-67.83 35.45,-95.19zm845.53 -147.46c49.77,0 97.05,7.78 141.85,23.33 44.79,15.56 83.68,38.26 116.66,68.12 32.98,29.88 59.11,65.96 78.4,108.26 19.29,42.32 28.92,89.59 28.92,141.86 0,63.46 -12.44,120.07 -37.33,169.85 -24.88,49.78 -58.48,91.77 -100.79,125.98 -42.31,34.23 -90.53,60.36 -144.65,78.4 -54.13,18.04 -111.06,27.07 -170.8,27.07 -51,0 -98.29,-7.78 -141.84,-23.33 -43.55,-15.56 -81.5,-38.26 -113.86,-68.14 -32.35,-29.86 -57.55,-65.62 -75.59,-107.32 -18.04,-41.68 -27.07,-88.66 -27.07,-140.92 0,-62.22 12.13,-118.21 36.4,-167.98 24.26,-49.77 56.92,-92.09 97.99,-126.92 41.06,-34.85 88.66,-61.59 142.78,-80.27 54.14,-18.67 110.45,-27.99 168.93,-27.99zm61.59 207.18c-22.39,0 -43.24,5.28 -62.52,15.87 -19.29,10.57 -35.48,24.26 -48.54,41.05 -13.05,16.81 -23.33,35.48 -30.8,56 -7.47,20.53 -11.19,41.38 -11.19,62.54 0,38.57 11.19,71.22 33.6,97.98 22.39,26.76 53.5,40.14 93.32,40.14 21.16,0 40.76,-5.6 58.8,-16.8 18.04,-11.21 33.29,-25.51 45.73,-42.94 12.44,-17.42 22.08,-36.7 28.93,-57.86 6.84,-21.15 10.25,-41.06 10.25,-59.72 0,-34.85 -10.25,-66.27 -30.79,-94.26 -20.52,-28 -49.46,-42 -86.79,-42zm393.84 18.66c18.66,-28.61 37.95,-56.3 57.86,-83.06 19.91,-26.74 41.68,-50.39 65.33,-70.91 23.64,-20.54 50.4,-37.04 80.26,-49.48 29.85,-12.44 63.46,-18.66 100.78,-18.66 26.14,0 50.4,5.28 72.81,15.87 22.39,10.57 41.99,24.89 58.78,42.93 16.81,18.04 30.48,38.57 41.07,61.59 10.57,23.03 17.1,46.98 19.6,71.86 14.92,-24.88 33.58,-48.21 55.99,-69.99 22.39,-21.79 46.98,-40.76 73.72,-56.93 26.76,-16.17 54.76,-28.92 84,-38.26 29.23,-9.33 58.8,-14.01 88.66,-14.01 27.38,0 53.82,3.75 79.33,11.2 25.51,7.47 47.9,18.97 67.19,34.54 19.29,15.56 34.85,34.53 46.67,56.92 11.82,22.41 17.73,48.53 17.73,78.4 16.16,-24.88 36.7,-48.23 61.59,-69.99 24.88,-21.78 51.95,-41.07 81.18,-57.87 29.26,-16.79 60.05,-29.85 92.41,-39.19 32.35,-9.33 63.46,-14.01 93.32,-14.01 60.98,0 112,18.67 153.05,56 41.07,37.34 61.59,87.73 61.59,151.2 0,23.63 -3.1,46.65 -9.32,69.05l-115.73 423.7 -332.24 0 76.52 -274.38c2.5,-12.45 4.99,-24.89 7.47,-37.33 2.5,-12.44 3.75,-24.89 3.75,-37.33 0,-23.64 -5.93,-45.11 -17.75,-64.4 -11.82,-19.28 -30.79,-28.92 -56.93,-28.92 -19.91,0 -36.7,4.35 -50.39,13.07 -13.69,8.7 -25.51,19.89 -35.46,33.58 -9.96,13.69 -18.04,28.63 -24.26,44.8 -6.22,16.18 -11.82,32.35 -16.81,48.54l-83.98 302.37 -332.24 0 78.4 -287.45c3.72,-11.19 6.83,-22.7 9.32,-34.52 2.5,-11.82 3.73,-23.97 3.73,-36.41 0,-21.14 -5.6,-40.43 -16.8,-57.85 -11.19,-17.43 -29.23,-26.13 -54.12,-26.13 -14.93,0 -29.56,4.35 -43.86,13.07 -14.31,8.7 -27.38,19.6 -39.2,32.65 -11.82,13.06 -22.09,27.38 -30.79,42.94 -8.72,15.54 -14.94,30.17 -18.67,43.86l-83.99 309.84 -332.25 0 115.73 -431.16c2.48,-8.72 4.66,-17.42 6.53,-26.14 1.88,-8.71 2.79,-17.41 2.79,-26.13 0,-6.22 -1.23,-13.69 -3.72,-22.39 -2.5,-8.72 -8.72,-13.07 -18.67,-13.07 -7.46,0 -14.62,2.48 -21.47,7.47 -6.84,4.98 -13.69,11.2 -20.52,18.67 -6.84,7.45 -12.75,15.23 -17.74,23.32 -4.97,8.09 -8.7,14.63 -11.2,19.6l-69.05 -41.07zm2545.91 279.98c0,9.96 3.41,18.04 10.26,24.26 6.84,6.22 15.25,9.34 25.19,9.34 8.72,0 18.05,-3.43 28.01,-10.26 9.95,-6.84 19.29,-14.94 27.99,-24.28 8.71,-9.32 16.81,-19.29 24.26,-29.86 7.47,-10.57 13.07,-19.6 16.81,-27.07l85.85 50.4 0 1.87c-18.66,29.86 -40.43,58.49 -65.32,85.87 -24.9,27.36 -52.57,51.02 -83.06,70.91 -30.5,19.91 -63.15,35.79 -98,47.61 -34.83,11.81 -70.3,17.72 -106.38,17.72 -37.33,0 -71.24,-11.5 -101.73,-34.52 -30.48,-23.03 -53.82,-50.7 -69.99,-83.06 -39.83,41.06 -85.56,73.41 -137.2,97.05 -51.63,23.65 -106.08,35.47 -163.32,35.47 -39.82,0 -77.77,-7.47 -113.85,-22.4 -36.08,-14.93 -67.5,-35.15 -94.26,-60.66 -26.75,-25.51 -48.21,-55.68 -64.39,-90.53 -16.17,-34.83 -24.27,-72.18 -24.27,-111.98 0,-63.46 13.07,-121.33 39.2,-173.59 26.14,-52.27 60.66,-97.38 103.58,-135.33 42.95,-37.95 92.41,-67.5 148.4,-88.66 55.99,-21.14 113.85,-31.73 173.59,-31.73 37.33,0 74.34,6.53 111.05,19.6 36.7,13.07 68.74,33.29 96.12,60.67l18.67 -63.46 332.24 0 -113.85 444.23c-1.25,3.72 -2.5,7.47 -3.75,11.19 -1.23,3.73 -1.85,7.47 -1.85,11.2zm-268.78 -261.32c-3.73,-17.41 -12.14,-31.41 -25.2,-41.99 -13.07,-10.57 -28.32,-15.87 -45.73,-15.87 -26.14,0 -49.15,7.78 -69.06,23.34 -19.91,15.55 -36.4,34.84 -49.46,57.87 -13.07,23.01 -23.03,47.58 -29.86,73.72 -6.85,26.13 -10.28,50.39 -10.28,72.8 0,24.88 7.78,49.77 23.33,74.66 15.56,24.88 37.66,37.32 66.27,37.32 23.64,0 42.3,-8.4 55.99,-25.19 13.69,-16.8 23.64,-35.77 29.87,-56.93l54.13 -199.73zm1371.86 -210.9c47.29,33.59 84,73.72 110.13,120.39 26.13,46.65 39.2,99.85 39.2,159.59 0,73.41 -17.42,137.18 -52.27,191.3 -34.83,54.14 -79.31,99.56 -133.45,136.26 -54.12,36.71 -114.79,64.09 -181.98,82.13 -67.2,18.04 -132.52,27.07 -195.98,27.07 -51.02,0 -101.1,-6.22 -150.26,-18.67 -49.15,-12.44 -93.33,-31.73 -132.52,-57.86 -39.2,-26.13 -70.93,-59.73 -95.2,-100.79 -24.26,-41.07 -36.39,-90.84 -36.39,-149.33 0,-37.33 7.16,-72.47 21.47,-105.45 14.3,-32.98 33.28,-62.52 56.93,-88.66 23.64,-26.13 51.33,-48.85 83.06,-68.14 31.73,-19.27 64.38,-34.52 97.98,-45.71 -44.79,-48.54 -67.18,-108.26 -67.18,-179.19 0,-57.24 14.92,-107.95 44.79,-152.12 29.86,-44.17 67.81,-81.19 113.86,-111.07 46.03,-29.85 96.73,-52.24 152.12,-67.18 55.37,-14.94 107.94,-22.41 157.72,-22.41 37.32,0 74.03,4.68 110.12,14 36.09,9.34 68.13,23.66 96.12,42.93 28,19.29 50.39,44.48 67.2,75.61 16.79,31.1 25.2,67.81 25.2,110.11 0,43.55 -12.45,83.68 -37.33,120.39 -24.89,36.7 -55.99,65.64 -93.34,86.8zm-294.9 -223.98c0,21.16 5.91,39.82 17.73,55.99 11.82,16.18 26.13,30.17 42.93,41.99 16.81,11.83 35.16,22.09 55.07,30.81 19.9,8.7 37.95,16.79 54.12,24.26 16.19,-1.25 33.29,-5.6 51.33,-13.06 18.04,-7.47 33.91,-17.42 47.61,-29.86 13.67,-12.46 25.19,-26.45 34.52,-42.01 9.34,-15.55 14,-32.67 14,-51.33 0,-22.39 -4.66,-41.99 -14,-58.8 -9.33,-16.79 -21.77,-30.48 -37.33,-41.05 -15.56,-10.58 -32.98,-18.67 -52.27,-24.27 -19.29,-5.59 -38.89,-8.4 -58.8,-8.4 -17.41,0 -35.14,2.18 -53.18,6.53 -18.04,4.35 -34.54,11.2 -49.46,20.54 -14.94,9.32 -27.38,21.45 -37.33,36.39 -9.96,14.94 -14.94,32.36 -14.94,52.27zm-160.52 395.7c-29.86,2.48 -59.41,8.39 -88.66,17.73 -29.23,9.32 -55.99,22.7 -80.25,40.12 -24.26,17.43 -43.86,38.57 -58.8,63.46 -14.94,24.9 -22.39,54.14 -22.39,87.74 0,34.83 7.45,65.31 22.39,91.45 14.94,26.13 34.54,47.6 58.8,64.39 24.26,16.8 51.64,29.55 82.12,38.27 30.48,8.71 61.28,13.06 92.39,13.06 24.88,0 50.39,-3.11 76.52,-9.34 26.14,-6.22 50.09,-15.85 71.87,-28.92 21.77,-13.07 39.51,-30.17 53.2,-51.33 13.68,-21.16 20.52,-46.04 20.52,-74.66 0,-37.32 -6.84,-68.74 -20.52,-94.25 -13.69,-25.51 -31.43,-47.29 -53.2,-65.33 -21.78,-18.04 -46.36,-33.92 -73.72,-47.59 -27.38,-13.69 -54.14,-28.63 -80.27,-44.8zm1394.29 205.31c-42.32,29.87 -88.36,52.57 -138.14,68.12 -49.77,15.56 -100.79,23.34 -153.05,23.34 -53.5,0 -102.96,-7.78 -148.38,-23.34 -45.42,-15.55 -84.62,-38.25 -117.6,-68.12 -32.96,-29.86 -58.78,-66.57 -77.44,-110.12 -18.68,-43.56 -28.01,-92.71 -28.01,-147.45 0,-58.49 7.78,-114.48 23.33,-168 15.56,-53.49 37.95,-102.97 67.2,-148.37 29.24,-45.43 64.69,-86.81 106.39,-124.14 41.68,-37.32 88.03,-68.43 139.05,-93.32 39.83,-19.91 80.88,-35.16 123.2,-45.73 42.3,-10.57 85.23,-15.86 128.78,-15.86 57.24,0 107.63,9.33 151.2,27.99 43.54,18.67 80.25,44.8 110.11,78.4 29.86,33.6 52.58,73.41 68.12,119.45 15.56,46.05 23.34,96.44 23.34,151.19 0,52.26 -5.91,107.32 -17.72,165.18 -11.84,57.87 -28.32,115.42 -49.48,172.66 -21.14,57.24 -46.34,111.67 -75.59,163.31 -29.24,51.65 -60.66,97.38 -94.26,137.2 -44.79,52.25 -91.15,96.11 -139.05,131.59 -47.9,35.45 -98.61,64.39 -152.12,86.78 -53.51,22.41 -110.13,38.27 -169.85,47.61 -59.73,9.32 -123.19,14 -190.38,14l67.19 -177.33c21.16,6.22 42.92,10.9 65.33,14 22.39,3.12 44.8,4.68 67.19,4.68 47.29,0 90.84,-7.78 130.66,-23.35 39.81,-15.54 76.53,-36.39 110.11,-62.52 33.61,-26.13 64.4,-56.31 92.4,-90.53 27.99,-34.21 53.81,-70 77.47,-107.32zm-238.93 -268.77c0,17.42 1.25,36.08 3.75,55.99 2.48,19.91 7.45,38.27 14.92,55.06 7.47,16.79 17.73,31.11 30.79,42.92 13.07,11.82 30.82,17.75 53.21,17.75 27.38,0 54.13,-8.09 80.25,-24.28 26.13,-16.17 50.1,-36.08 71.87,-59.72 21.78,-23.65 41.07,-49.16 57.86,-76.52 16.79,-27.38 30.17,-52.27 40.13,-74.66 21.15,-53.51 31.73,-108.26 31.73,-164.27 0,-18.66 -1.56,-38.57 -4.67,-59.72 -3.11,-21.15 -9.02,-40.44 -17.73,-57.86 -8.7,-17.42 -20.23,-32.04 -34.52,-43.86 -14.32,-11.82 -33.29,-17.73 -56.93,-17.73 -17.43,0 -34.54,3.73 -51.33,11.2 -16.81,7.46 -32.67,16.17 -47.61,26.13 -28.61,19.91 -53.8,43.86 -75.59,71.85 -21.78,28 -39.82,58.49 -54.12,91.46 -14.31,32.98 -24.88,67.19 -31.73,102.66 -6.84,35.46 -10.28,70 -10.28,103.6z"/>
 </g>
</svg>
